<?xml version="1.0"?>
<!-- Created by MetaPost 2.000 on 2017.07.25:0128 -->
<svg version="1.1" xmlns="http://www.w3.org/2000/svg" xmlns:xlink="http://www.w3.org/1999/xlink" width="850.893524" height="230.105881" viewBox="0 0 850.893524 230.105881">
<!-- Original BoundingBox: -76.785324 -88.124176 774.108200 141.981705 -->
  <path d="M102.177765 203.242569C102.890060 203.360062,103.615158 203.420166,104.346451 203.420166C107.879776 203.420166,111.268478 202.016907,113.767105 199.518280C116.265732 197.019653,117.668991 193.630951,117.668991 190.097626C117.668991 186.564301,116.265732 183.175598,113.767105 180.676971C111.268478 178.178345,107.879776 176.775085,104.346451 176.775085C100.813126 176.775085,97.424423 178.178345,94.925797 180.676971C92.427170 183.175598,91.023911 186.564301,91.023911 190.097626C91.023911 190.828857,91.084015 191.553909,91.201492 192.266159" style="stroke:rgb(0.000000%,0.000000%,0.000000%); stroke-width: 0.500000;stroke-linecap: round;stroke-linejoin: round;stroke-miterlimit: 10.000000;fill: none;"></path>
  <path d="M91.201523 192.266205C88.981781 192.517975,86.899628 193.513992,85.304596 195.109024C83.444061 196.969559,82.398575 199.492859,82.398575 202.124252C82.398575 204.755646,83.444061 207.278946,85.304596 209.139481C87.165131 211.000015,89.688431 212.045502,92.319824 212.045502C94.951218 212.045502,97.474518 211.000015,99.335052 209.139481C100.930084 207.544449,101.926102 205.462296,102.177872 203.242554" style="stroke:rgb(0.000000%,0.000000%,0.000000%); stroke-width: 0.500000;stroke-linecap: round;stroke-linejoin: round;stroke-miterlimit: 10.000000;fill: none;"></path>
  <path d="M158.870667 203.242569C159.582962 203.360062,160.308060 203.420166,161.039352 203.420166C164.572678 203.420166,167.961380 202.016907,170.460007 199.518280C172.958633 197.019653,174.361893 193.630951,174.361893 190.097626C174.361893 186.564301,172.958633 183.175598,170.460007 180.676971C167.961380 178.178345,164.572678 176.775085,161.039352 176.775085C157.506027 176.775085,154.117325 178.178345,151.618698 180.676971C149.120071 183.175598,147.716812 186.564301,147.716812 190.097626C147.716812 190.828857,147.776917 191.553909,147.894394 192.266159" style="stroke:rgb(0.000000%,0.000000%,0.000000%); stroke-width: 0.500000;stroke-linecap: round;stroke-linejoin: round;stroke-miterlimit: 10.000000;fill: none;"></path>
  <path d="M147.894424 192.266205C145.674683 192.517975,143.592529 193.513992,141.997498 195.109024C140.136963 196.969559,139.091476 199.492859,139.091476 202.124252C139.091476 204.755646,140.136963 207.278946,141.997498 209.139481C143.858032 211.000015,146.381332 212.045502,149.012726 212.045502C151.644119 212.045502,154.167419 211.000015,156.027954 209.139481C157.622986 207.544449,158.619003 205.462296,158.870773 203.242554" style="stroke:rgb(0.000000%,0.000000%,0.000000%); stroke-width: 0.500000;stroke-linecap: round;stroke-linejoin: round;stroke-miterlimit: 10.000000;fill: none;"></path>
  <path d="M215.563568 203.242569C216.275864 203.360062,217.000961 203.420166,217.732254 203.420166C221.265579 203.420166,224.654282 202.016907,227.152908 199.518280C229.651535 197.019653,231.054794 193.630951,231.054794 190.097626C231.054794 186.564301,229.651535 183.175598,227.152908 180.676971C224.654282 178.178345,221.265579 176.775085,217.732254 176.775085C214.198929 176.775085,210.810226 178.178345,208.311600 180.676971C205.812973 183.175598,204.409714 186.564301,204.409714 190.097626C204.409714 190.828857,204.469818 191.553909,204.587296 192.266159" style="stroke:rgb(0.000000%,0.000000%,0.000000%); stroke-width: 0.500000;stroke-linecap: round;stroke-linejoin: round;stroke-miterlimit: 10.000000;fill: none;"></path>
  <path d="M204.587326 192.266205C202.367584 192.517975,200.285431 193.513992,198.690399 195.109024C196.829865 196.969559,195.784378 199.492859,195.784378 202.124252C195.784378 204.755646,196.829865 207.278946,198.690399 209.139481C200.550934 211.000015,203.074234 212.045502,205.705627 212.045502C208.337021 212.045502,210.860321 211.000015,212.720856 209.139481C214.315887 207.544449,215.311905 205.462296,215.563675 203.242554" style="stroke:rgb(0.000000%,0.000000%,0.000000%); stroke-width: 0.500000;stroke-linecap: round;stroke-linejoin: round;stroke-miterlimit: 10.000000;fill: none;"></path>
  <path d="M272.256470 203.242569C272.968765 203.360062,273.693863 203.420166,274.425156 203.420166C277.958481 203.420166,281.347183 202.016907,283.845810 199.518280C286.344437 197.019653,287.747696 193.630951,287.747696 190.097626C287.747696 186.564301,286.344437 183.175598,283.845810 180.676971C281.347183 178.178345,277.958481 176.775085,274.425156 176.775085C270.891830 176.775085,267.503128 178.178345,265.004501 180.676971C262.505875 183.175598,261.102615 186.564301,261.102615 190.097626C261.102615 190.828857,261.162720 191.553909,261.280197 192.266159" style="stroke:rgb(0.000000%,0.000000%,0.000000%); stroke-width: 0.500000;stroke-linecap: round;stroke-linejoin: round;stroke-miterlimit: 10.000000;fill: none;"></path>
  <path d="M261.280228 192.266205C259.060486 192.517975,256.978333 193.513992,255.383301 195.109024C253.522766 196.969559,252.477280 199.492859,252.477280 202.124252C252.477280 204.755646,253.522766 207.278946,255.383301 209.139481C257.243835 211.000015,259.767136 212.045502,262.398529 212.045502C265.029922 212.045502,267.553223 211.000015,269.413757 209.139481C271.008789 207.544449,272.004807 205.462296,272.256577 203.242554" style="stroke:rgb(0.000000%,0.000000%,0.000000%); stroke-width: 0.500000;stroke-linecap: round;stroke-linejoin: round;stroke-miterlimit: 10.000000;fill: none;"></path>
  <path d="M328.949371 203.242569C329.661667 203.360062,330.386765 203.420166,331.118057 203.420166C334.651382 203.420166,338.040085 202.016907,340.538712 199.518280C343.037338 197.019653,344.440598 193.630951,344.440598 190.097626C344.440598 186.564301,343.037338 183.175598,340.538712 180.676971C338.040085 178.178345,334.651382 176.775085,331.118057 176.775085C327.584732 176.775085,324.196030 178.178345,321.697403 180.676971C319.198776 183.175598,317.795517 186.564301,317.795517 190.097626C317.795517 190.828857,317.855621 191.553909,317.973099 192.266159" style="stroke:rgb(0.000000%,0.000000%,0.000000%); stroke-width: 0.500000;stroke-linecap: round;stroke-linejoin: round;stroke-miterlimit: 10.000000;fill: none;"></path>
  <path d="M317.973129 192.266205C315.753387 192.517975,313.671234 193.513992,312.076202 195.109024C310.215668 196.969559,309.170181 199.492859,309.170181 202.124252C309.170181 204.755646,310.215668 207.278946,312.076202 209.139481C313.936737 211.000015,316.460037 212.045502,319.091431 212.045502C321.722824 212.045502,324.246124 211.000015,326.106659 209.139481C327.701691 207.544449,328.697708 205.462296,328.949478 203.242554" style="stroke:rgb(0.000000%,0.000000%,0.000000%); stroke-width: 0.500000;stroke-linecap: round;stroke-linejoin: round;stroke-miterlimit: 10.000000;fill: none;"></path>
  <path d="M385.642273 203.242569C386.354568 203.360062,387.079666 203.420166,387.810959 203.420166C391.344284 203.420166,394.732986 202.016907,397.231613 199.518280C399.730240 197.019653,401.133499 193.630951,401.133499 190.097626C401.133499 186.564301,399.730240 183.175598,397.231613 180.676971C394.732986 178.178345,391.344284 176.775085,387.810959 176.775085C384.277634 176.775085,380.888931 178.178345,378.390305 180.676971C375.891678 183.175598,374.488419 186.564301,374.488419 190.097626C374.488419 190.828857,374.548523 191.553909,374.666000 192.266159" style="stroke:rgb(0.000000%,0.000000%,0.000000%); stroke-width: 0.500000;stroke-linecap: round;stroke-linejoin: round;stroke-miterlimit: 10.000000;fill: none;"></path>
  <path d="M374.666031 192.266205C372.446289 192.517975,370.364136 193.513992,368.769104 195.109024C366.908569 196.969559,365.863083 199.492859,365.863083 202.124252C365.863083 204.755646,366.908569 207.278946,368.769104 209.139481C370.629639 211.000015,373.152939 212.045502,375.784332 212.045502C378.415726 212.045502,380.939026 211.000015,382.799561 209.139481C384.394592 207.544449,385.390610 205.462296,385.642380 203.242554" style="stroke:rgb(0.000000%,0.000000%,0.000000%); stroke-width: 0.500000;stroke-linecap: round;stroke-linejoin: round;stroke-miterlimit: 10.000000;fill: none;"></path>
  <path d="M442.335175 203.242569C443.047470 203.360062,443.772568 203.420166,444.503860 203.420166C448.037186 203.420166,451.425888 202.016907,453.924515 199.518280C456.423141 197.019653,457.826401 193.630951,457.826401 190.097626C457.826401 186.564301,456.423141 183.175598,453.924515 180.676971C451.425888 178.178345,448.037186 176.775085,444.503860 176.775085C440.970535 176.775085,437.581833 178.178345,435.083206 180.676971C432.584579 183.175598,431.181320 186.564301,431.181320 190.097626C431.181320 190.828857,431.241425 191.553909,431.358902 192.266159" style="stroke:rgb(0.000000%,0.000000%,0.000000%); stroke-width: 0.500000;stroke-linecap: round;stroke-linejoin: round;stroke-miterlimit: 10.000000;fill: none;"></path>
  <path d="M431.358932 192.266205C429.139191 192.517975,427.057037 193.513992,425.462006 195.109024C423.601471 196.969559,422.555984 199.492859,422.555984 202.124252C422.555984 204.755646,423.601471 207.278946,425.462006 209.139481C427.322540 211.000015,429.845840 212.045502,432.477234 212.045502C435.108627 212.045502,437.631927 211.000015,439.492462 209.139481C441.087494 207.544449,442.083511 205.462296,442.335281 203.242554" style="stroke:rgb(0.000000%,0.000000%,0.000000%); stroke-width: 0.500000;stroke-linecap: round;stroke-linejoin: round;stroke-miterlimit: 10.000000;fill: none;"></path>
  <path d="M499.028076 203.242569C499.740372 203.360062,500.465469 203.420166,501.196762 203.420166C504.730087 203.420166,508.118790 202.016907,510.617416 199.518280C513.116043 197.019653,514.519302 193.630951,514.519302 190.097626C514.519302 186.564301,513.116043 183.175598,510.617416 180.676971C508.118790 178.178345,504.730087 176.775085,501.196762 176.775085C497.663437 176.775085,494.274734 178.178345,491.776108 180.676971C489.277481 183.175598,487.874222 186.564301,487.874222 190.097626C487.874222 190.828857,487.934326 191.553909,488.051804 192.266159" style="stroke:rgb(0.000000%,0.000000%,0.000000%); stroke-width: 0.500000;stroke-linecap: round;stroke-linejoin: round;stroke-miterlimit: 10.000000;fill: none;"></path>
  <path d="M488.051834 192.266205C485.832092 192.517975,483.749939 193.513992,482.154907 195.109024C480.294373 196.969559,479.248886 199.492859,479.248886 202.124252C479.248886 204.755646,480.294373 207.278946,482.154907 209.139481C484.015442 211.000015,486.538742 212.045502,489.170135 212.045502C491.801529 212.045502,494.324829 211.000015,496.185364 209.139481C497.780396 207.544449,498.776413 205.462296,499.028183 203.242554" style="stroke:rgb(0.000000%,0.000000%,0.000000%); stroke-width: 0.500000;stroke-linecap: round;stroke-linejoin: round;stroke-miterlimit: 10.000000;fill: none;"></path>
  <path d="M555.720978 203.242569C556.433273 203.360062,557.158371 203.420166,557.889664 203.420166C561.422989 203.420166,564.811691 202.016907,567.310318 199.518280C569.808945 197.019653,571.212204 193.630951,571.212204 190.097626C571.212204 186.564301,569.808945 183.175598,567.310318 180.676971C564.811691 178.178345,561.422989 176.775085,557.889664 176.775085C554.356339 176.775085,550.967636 178.178345,548.469009 180.676971C545.970383 183.175598,544.567123 186.564301,544.567123 190.097626C544.567123 190.828857,544.627228 191.553909,544.744705 192.266159" style="stroke:rgb(0.000000%,0.000000%,0.000000%); stroke-width: 0.500000;stroke-linecap: round;stroke-linejoin: round;stroke-miterlimit: 10.000000;fill: none;"></path>
  <path d="M544.744736 192.266205C542.524994 192.517975,540.442841 193.513992,538.847809 195.109024C536.987274 196.969559,535.941788 199.492859,535.941788 202.124252C535.941788 204.755646,536.987274 207.278946,538.847809 209.139481C540.708344 211.000015,543.231644 212.045502,545.863037 212.045502C548.494431 212.045502,551.017731 211.000015,552.878265 209.139481C554.473297 207.544449,555.469315 205.462296,555.721085 203.242554" style="stroke:rgb(0.000000%,0.000000%,0.000000%); stroke-width: 0.500000;stroke-linecap: round;stroke-linejoin: round;stroke-miterlimit: 10.000000;fill: none;"></path>
  <path d="M612.413879 203.242569C613.126175 203.360062,613.851273 203.420166,614.582565 203.420166C618.115891 203.420166,621.504593 202.016907,624.003220 199.518280C626.501846 197.019653,627.905106 193.630951,627.905106 190.097626C627.905106 186.564301,626.501846 183.175598,624.003220 180.676971C621.504593 178.178345,618.115891 176.775085,614.582565 176.775085C611.049240 176.775085,607.660538 178.178345,605.161911 180.676971C602.663284 183.175598,601.260025 186.564301,601.260025 190.097626C601.260025 190.828857,601.320129 191.553909,601.437607 192.266159" style="stroke:rgb(0.000000%,0.000000%,0.000000%); stroke-width: 0.500000;stroke-linecap: round;stroke-linejoin: round;stroke-miterlimit: 10.000000;fill: none;"></path>
  <path d="M601.437637 192.266205C599.217896 192.517975,597.135742 193.513992,595.540710 195.109024C593.680176 196.969559,592.634689 199.492859,592.634689 202.124252C592.634689 204.755646,593.680176 207.278946,595.540710 209.139481C597.401245 211.000015,599.924545 212.045502,602.555939 212.045502C605.187332 212.045502,607.710632 211.000015,609.571167 209.139481C611.166199 207.544449,612.162216 205.462296,612.413986 203.242554" style="stroke:rgb(0.000000%,0.000000%,0.000000%); stroke-width: 0.500000;stroke-linecap: round;stroke-linejoin: round;stroke-miterlimit: 10.000000;fill: none;"></path>
  <path d="M669.106781 203.242569C669.819077 203.360062,670.544174 203.420166,671.275467 203.420166C674.808792 203.420166,678.197495 202.016907,680.696121 199.518280C683.194748 197.019653,684.598007 193.630951,684.598007 190.097626C684.598007 186.564301,683.194748 183.175598,680.696121 180.676971C678.197495 178.178345,674.808792 176.775085,671.275467 176.775085C667.742142 176.775085,664.353439 178.178345,661.854813 180.676971C659.356186 183.175598,657.952927 186.564301,657.952927 190.097626C657.952927 190.828857,658.013031 191.553909,658.130508 192.266159" style="stroke:rgb(0.000000%,0.000000%,0.000000%); stroke-width: 0.500000;stroke-linecap: round;stroke-linejoin: round;stroke-miterlimit: 10.000000;fill: none;"></path>
  <path d="M658.130539 192.266205C655.910797 192.517975,653.828644 193.513992,652.233612 195.109024C650.373077 196.969559,649.327591 199.492859,649.327591 202.124252C649.327591 204.755646,650.373077 207.278946,652.233612 209.139481C654.094147 211.000015,656.617447 212.045502,659.248840 212.045502C661.880234 212.045502,664.403534 211.000015,666.264069 209.139481C667.859100 207.544449,668.855118 205.462296,669.106888 203.242554" style="stroke:rgb(0.000000%,0.000000%,0.000000%); stroke-width: 0.500000;stroke-linecap: round;stroke-linejoin: round;stroke-miterlimit: 10.000000;fill: none;"></path>
  <path d="M725.799683 203.242569C726.511978 203.360062,727.237076 203.420166,727.968369 203.420166C731.501694 203.420166,734.890396 202.016907,737.389023 199.518280C739.887650 197.019653,741.290909 193.630951,741.290909 190.097626C741.290909 186.564301,739.887650 183.175598,737.389023 180.676971C734.890396 178.178345,731.501694 176.775085,727.968369 176.775085C724.435043 176.775085,721.046341 178.178345,718.547714 180.676971C716.049088 183.175598,714.645828 186.564301,714.645828 190.097626C714.645828 190.828857,714.705933 191.553909,714.823410 192.266159" style="stroke:rgb(0.000000%,0.000000%,0.000000%); stroke-width: 0.500000;stroke-linecap: round;stroke-linejoin: round;stroke-miterlimit: 10.000000;fill: none;"></path>
  <path d="M714.823441 192.266205C712.603699 192.517975,710.521545 193.513992,708.926514 195.109024C707.065979 196.969559,706.020493 199.492859,706.020493 202.124252C706.020493 204.755646,707.065979 207.278946,708.926514 209.139481C710.787048 211.000015,713.310349 212.045502,715.941742 212.045502C718.573135 212.045502,721.096436 211.000015,722.956970 209.139481C724.552002 207.544449,725.548019 205.462296,725.799789 203.242554" style="stroke:rgb(0.000000%,0.000000%,0.000000%); stroke-width: 0.500000;stroke-linecap: round;stroke-linejoin: round;stroke-miterlimit: 10.000000;fill: none;"></path>
  <path d="M73.831314 154.144943C74.543610 154.262436,75.268707 154.322540,76.000000 154.322540C79.533325 154.322540,82.922028 152.919281,85.420654 150.420654C87.919281 147.922028,89.322540 144.533325,89.322540 141.000000C89.322540 137.466675,87.919281 134.077972,85.420654 131.579346C82.922028 129.080719,79.533325 127.677460,76.000000 127.677460C72.466675 127.677460,69.077972 129.080719,66.579346 131.579346C64.080719 134.077972,62.677460 137.466675,62.677460 141.000000C62.677460 141.731232,62.737564 142.456284,62.855042 143.168533" style="stroke:rgb(0.000000%,0.000000%,0.000000%); stroke-width: 0.500000;stroke-linecap: round;stroke-linejoin: round;stroke-miterlimit: 10.000000;fill: none;"></path>
  <path d="M62.855072 143.168579C60.635330 143.420349,58.553177 144.416367,56.958145 146.011398C55.097610 147.871933,54.052124 150.395233,54.052124 153.026627C54.052124 155.658020,55.097610 158.181320,56.958145 160.041855C58.818680 161.902390,61.341980 162.947876,63.973373 162.947876C66.604767 162.947876,69.128067 161.902390,70.988602 160.041855C72.583633 158.446823,73.579651 156.364670,73.831421 154.144928" style="stroke:rgb(0.000000%,0.000000%,0.000000%); stroke-width: 0.500000;stroke-linecap: round;stroke-linejoin: round;stroke-miterlimit: 10.000000;fill: none;"></path>
  <path d="M130.524216 154.144943C131.236511 154.262436,131.961609 154.322540,132.692902 154.322540C136.226227 154.322540,139.614929 152.919281,142.113556 150.420654C144.612183 147.922028,146.015442 144.533325,146.015442 141.000000C146.015442 137.466675,144.612183 134.077972,142.113556 131.579346C139.614929 129.080719,136.226227 127.677460,132.692902 127.677460C129.159576 127.677460,125.770874 129.080719,123.272247 131.579346C120.773621 134.077972,119.370361 137.466675,119.370361 141.000000C119.370361 141.731232,119.430466 142.456284,119.547943 143.168533" style="stroke:rgb(0.000000%,0.000000%,0.000000%); stroke-width: 0.500000;stroke-linecap: round;stroke-linejoin: round;stroke-miterlimit: 10.000000;fill: none;"></path>
  <path d="M119.547974 143.168579C117.328232 143.420349,115.246078 144.416367,113.651047 146.011398C111.790512 147.871933,110.745026 150.395233,110.745026 153.026627C110.745026 155.658020,111.790512 158.181320,113.651047 160.041855C115.511581 161.902390,118.034882 162.947876,120.666275 162.947876C123.297668 162.947876,125.820969 161.902390,127.681503 160.041855C129.276535 158.446823,130.272552 156.364670,130.524323 154.144928" style="stroke:rgb(0.000000%,0.000000%,0.000000%); stroke-width: 0.500000;stroke-linecap: round;stroke-linejoin: round;stroke-miterlimit: 10.000000;fill: none;"></path>
  <path d="M187.217117 154.144943C187.929413 154.262436,188.654510 154.322540,189.385803 154.322540C192.919128 154.322540,196.307831 152.919281,198.806458 150.420654C201.305084 147.922028,202.708344 144.533325,202.708344 141.000000C202.708344 137.466675,201.305084 134.077972,198.806458 131.579346C196.307831 129.080719,192.919128 127.677460,189.385803 127.677460C185.852478 127.677460,182.463776 129.080719,179.965149 131.579346C177.466522 134.077972,176.063263 137.466675,176.063263 141.000000C176.063263 141.731232,176.123367 142.456284,176.240845 143.168533" style="stroke:rgb(0.000000%,0.000000%,0.000000%); stroke-width: 0.500000;stroke-linecap: round;stroke-linejoin: round;stroke-miterlimit: 10.000000;fill: none;"></path>
  <path d="M176.240875 143.168579C174.021133 143.420349,171.938980 144.416367,170.343948 146.011398C168.483414 147.871933,167.437927 150.395233,167.437927 153.026627C167.437927 155.658020,168.483414 158.181320,170.343948 160.041855C172.204483 161.902390,174.727783 162.947876,177.359177 162.947876C179.990570 162.947876,182.513870 161.902390,184.374405 160.041855C185.969437 158.446823,186.965454 156.364670,187.217224 154.144928" style="stroke:rgb(0.000000%,0.000000%,0.000000%); stroke-width: 0.500000;stroke-linecap: round;stroke-linejoin: round;stroke-miterlimit: 10.000000;fill: none;"></path>
  <path d="M243.910019 154.144943C244.622314 154.262436,245.347412 154.322540,246.078705 154.322540C249.612030 154.322540,253.000732 152.919281,255.499359 150.420654C257.997986 147.922028,259.401245 144.533325,259.401245 141.000000C259.401245 137.466675,257.997986 134.077972,255.499359 131.579346C253.000732 129.080719,249.612030 127.677460,246.078705 127.677460C242.545380 127.677460,239.156677 129.080719,236.658051 131.579346C234.159424 134.077972,232.756165 137.466675,232.756165 141.000000C232.756165 141.731232,232.816269 142.456284,232.933746 143.168533" style="stroke:rgb(0.000000%,0.000000%,0.000000%); stroke-width: 0.500000;stroke-linecap: round;stroke-linejoin: round;stroke-miterlimit: 10.000000;fill: none;"></path>
  <path d="M232.933777 143.168579C230.714035 143.420349,228.631882 144.416367,227.036850 146.011398C225.176315 147.871933,224.130829 150.395233,224.130829 153.026627C224.130829 155.658020,225.176315 158.181320,227.036850 160.041855C228.897385 161.902390,231.420685 162.947876,234.052078 162.947876C236.683472 162.947876,239.206772 161.902390,241.067307 160.041855C242.662338 158.446823,243.658356 156.364670,243.910126 154.144928" style="stroke:rgb(0.000000%,0.000000%,0.000000%); stroke-width: 0.500000;stroke-linecap: round;stroke-linejoin: round;stroke-miterlimit: 10.000000;fill: none;"></path>
  <path d="M300.602921 154.144943C301.315216 154.262436,302.040314 154.322540,302.771606 154.322540C306.304932 154.322540,309.693634 152.919281,312.192261 150.420654C314.690887 147.922028,316.094147 144.533325,316.094147 141.000000C316.094147 137.466675,314.690887 134.077972,312.192261 131.579346C309.693634 129.080719,306.304932 127.677460,302.771606 127.677460C299.238281 127.677460,295.849579 129.080719,293.350952 131.579346C290.852325 134.077972,289.449066 137.466675,289.449066 141.000000C289.449066 141.731232,289.509171 142.456284,289.626648 143.168533" style="stroke:rgb(0.000000%,0.000000%,0.000000%); stroke-width: 0.500000;stroke-linecap: round;stroke-linejoin: round;stroke-miterlimit: 10.000000;fill: none;"></path>
  <path d="M289.626678 143.168579C287.406937 143.420349,285.324783 144.416367,283.729752 146.011398C281.869217 147.871933,280.823730 150.395233,280.823730 153.026627C280.823730 155.658020,281.869217 158.181320,283.729752 160.041855C285.590286 161.902390,288.113586 162.947876,290.744980 162.947876C293.376373 162.947876,295.899673 161.902390,297.760208 160.041855C299.355240 158.446823,300.351257 156.364670,300.603027 154.144928" style="stroke:rgb(0.000000%,0.000000%,0.000000%); stroke-width: 0.500000;stroke-linecap: round;stroke-linejoin: round;stroke-miterlimit: 10.000000;fill: none;"></path>
  <path d="M357.295822 154.144943C358.008118 154.262436,358.733215 154.322540,359.464508 154.322540C362.997833 154.322540,366.386536 152.919281,368.885162 150.420654C371.383789 147.922028,372.787048 144.533325,372.787048 141.000000C372.787048 137.466675,371.383789 134.077972,368.885162 131.579346C366.386536 129.080719,362.997833 127.677460,359.464508 127.677460C355.931183 127.677460,352.542480 129.080719,350.043854 131.579346C347.545227 134.077972,346.141968 137.466675,346.141968 141.000000C346.141968 141.731232,346.202072 142.456284,346.319550 143.168533" style="stroke:rgb(0.000000%,0.000000%,0.000000%); stroke-width: 0.500000;stroke-linecap: round;stroke-linejoin: round;stroke-miterlimit: 10.000000;fill: none;"></path>
  <path d="M346.319580 143.168579C344.099838 143.420349,342.017685 144.416367,340.422653 146.011398C338.562119 147.871933,337.516632 150.395233,337.516632 153.026627C337.516632 155.658020,338.562119 158.181320,340.422653 160.041855C342.283188 161.902390,344.806488 162.947876,347.437881 162.947876C350.069275 162.947876,352.592575 161.902390,354.453110 160.041855C356.048141 158.446823,357.044159 156.364670,357.295929 154.144928" style="stroke:rgb(0.000000%,0.000000%,0.000000%); stroke-width: 0.500000;stroke-linecap: round;stroke-linejoin: round;stroke-miterlimit: 10.000000;fill: none;"></path>
  <path d="M413.988724 154.144943C414.701019 154.262436,415.426117 154.322540,416.157410 154.322540C419.690735 154.322540,423.079437 152.919281,425.578064 150.420654C428.076691 147.922028,429.479950 144.533325,429.479950 141.000000C429.479950 137.466675,428.076691 134.077972,425.578064 131.579346C423.079437 129.080719,419.690735 127.677460,416.157410 127.677460C412.624084 127.677460,409.235382 129.080719,406.736755 131.579346C404.238129 134.077972,402.834869 137.466675,402.834869 141.000000C402.834869 141.731232,402.894974 142.456284,403.012451 143.168533" style="stroke:rgb(0.000000%,0.000000%,0.000000%); stroke-width: 0.500000;stroke-linecap: round;stroke-linejoin: round;stroke-miterlimit: 10.000000;fill: none;"></path>
  <path d="M403.012482 143.168579C400.792740 143.420349,398.710587 144.416367,397.115555 146.011398C395.255020 147.871933,394.209534 150.395233,394.209534 153.026627C394.209534 155.658020,395.255020 158.181320,397.115555 160.041855C398.976089 161.902390,401.499390 162.947876,404.130783 162.947876C406.762177 162.947876,409.285477 161.902390,411.146011 160.041855C412.741043 158.446823,413.737061 156.364670,413.988831 154.144928" style="stroke:rgb(0.000000%,0.000000%,0.000000%); stroke-width: 0.500000;stroke-linecap: round;stroke-linejoin: round;stroke-miterlimit: 10.000000;fill: none;"></path>
  <path d="M470.681625 154.144943C471.393921 154.262436,472.119019 154.322540,472.850311 154.322540C476.383636 154.322540,479.772339 152.919281,482.270966 150.420654C484.769592 147.922028,486.172852 144.533325,486.172852 141.000000C486.172852 137.466675,484.769592 134.077972,482.270966 131.579346C479.772339 129.080719,476.383636 127.677460,472.850311 127.677460C469.316986 127.677460,465.928284 129.080719,463.429657 131.579346C460.931030 134.077972,459.527771 137.466675,459.527771 141.000000C459.527771 141.731232,459.587875 142.456284,459.705353 143.168533" style="stroke:rgb(0.000000%,0.000000%,0.000000%); stroke-width: 0.500000;stroke-linecap: round;stroke-linejoin: round;stroke-miterlimit: 10.000000;fill: none;"></path>
  <path d="M459.705383 143.168579C457.485641 143.420349,455.403488 144.416367,453.808456 146.011398C451.947922 147.871933,450.902435 150.395233,450.902435 153.026627C450.902435 155.658020,451.947922 158.181320,453.808456 160.041855C455.668991 161.902390,458.192291 162.947876,460.823685 162.947876C463.455078 162.947876,465.978378 161.902390,467.838913 160.041855C469.433945 158.446823,470.429962 156.364670,470.681732 154.144928" style="stroke:rgb(0.000000%,0.000000%,0.000000%); stroke-width: 0.500000;stroke-linecap: round;stroke-linejoin: round;stroke-miterlimit: 10.000000;fill: none;"></path>
  <path d="M527.374527 154.144943C528.086823 154.262436,528.811920 154.322540,529.543213 154.322540C533.076538 154.322540,536.465240 152.919281,538.963867 150.420654C541.462494 147.922028,542.865753 144.533325,542.865753 141.000000C542.865753 137.466675,541.462494 134.077972,538.963867 131.579346C536.465240 129.080719,533.076538 127.677460,529.543213 127.677460C526.009888 127.677460,522.621185 129.080719,520.122559 131.579346C517.623932 134.077972,516.220673 137.466675,516.220673 141.000000C516.220673 141.731232,516.280777 142.456284,516.398254 143.168533" style="stroke:rgb(0.000000%,0.000000%,0.000000%); stroke-width: 0.500000;stroke-linecap: round;stroke-linejoin: round;stroke-miterlimit: 10.000000;fill: none;"></path>
  <path d="M516.398285 143.168579C514.178543 143.420349,512.096390 144.416367,510.501358 146.011398C508.640823 147.871933,507.595337 150.395233,507.595337 153.026627C507.595337 155.658020,508.640823 158.181320,510.501358 160.041855C512.361893 161.902390,514.885193 162.947876,517.516586 162.947876C520.147980 162.947876,522.671280 161.902390,524.531815 160.041855C526.126846 158.446823,527.122864 156.364670,527.374634 154.144928" style="stroke:rgb(0.000000%,0.000000%,0.000000%); stroke-width: 0.500000;stroke-linecap: round;stroke-linejoin: round;stroke-miterlimit: 10.000000;fill: none;"></path>
  <path d="M584.067429 154.144943C584.779724 154.262436,585.504822 154.322540,586.236115 154.322540C589.769440 154.322540,593.158142 152.919281,595.656769 150.420654C598.155396 147.922028,599.558655 144.533325,599.558655 141.000000C599.558655 137.466675,598.155396 134.077972,595.656769 131.579346C593.158142 129.080719,589.769440 127.677460,586.236115 127.677460C582.702789 127.677460,579.314087 129.080719,576.815460 131.579346C574.316833 134.077972,572.913574 137.466675,572.913574 141.000000C572.913574 141.731232,572.973679 142.456284,573.091156 143.168533" style="stroke:rgb(0.000000%,0.000000%,0.000000%); stroke-width: 0.500000;stroke-linecap: round;stroke-linejoin: round;stroke-miterlimit: 10.000000;fill: none;"></path>
  <path d="M573.091187 143.168579C570.871445 143.420349,568.789291 144.416367,567.194260 146.011398C565.333725 147.871933,564.288239 150.395233,564.288239 153.026627C564.288239 155.658020,565.333725 158.181320,567.194260 160.041855C569.054794 161.902390,571.578094 162.947876,574.209488 162.947876C576.840881 162.947876,579.364182 161.902390,581.224716 160.041855C582.819748 158.446823,583.815765 156.364670,584.067535 154.144928" style="stroke:rgb(0.000000%,0.000000%,0.000000%); stroke-width: 0.500000;stroke-linecap: round;stroke-linejoin: round;stroke-miterlimit: 10.000000;fill: none;"></path>
  <path d="M640.760330 154.144943C641.472626 154.262436,642.197723 154.322540,642.929016 154.322540C646.462341 154.322540,649.851044 152.919281,652.349670 150.420654C654.848297 147.922028,656.251556 144.533325,656.251556 141.000000C656.251556 137.466675,654.848297 134.077972,652.349670 131.579346C649.851044 129.080719,646.462341 127.677460,642.929016 127.677460C639.395691 127.677460,636.006989 129.080719,633.508362 131.579346C631.009735 134.077972,629.606476 137.466675,629.606476 141.000000C629.606476 141.731232,629.666580 142.456284,629.784058 143.168533" style="stroke:rgb(0.000000%,0.000000%,0.000000%); stroke-width: 0.500000;stroke-linecap: round;stroke-linejoin: round;stroke-miterlimit: 10.000000;fill: none;"></path>
  <path d="M629.784088 143.168579C627.564346 143.420349,625.482193 144.416367,623.887161 146.011398C622.026627 147.871933,620.981140 150.395233,620.981140 153.026627C620.981140 155.658020,622.026627 158.181320,623.887161 160.041855C625.747696 161.902390,628.270996 162.947876,630.902390 162.947876C633.533783 162.947876,636.057083 161.902390,637.917618 160.041855C639.512650 158.446823,640.508667 156.364670,640.760437 154.144928" style="stroke:rgb(0.000000%,0.000000%,0.000000%); stroke-width: 0.500000;stroke-linecap: round;stroke-linejoin: round;stroke-miterlimit: 10.000000;fill: none;"></path>
  <path d="M697.453232 154.144943C698.165527 154.262436,698.890625 154.322540,699.621918 154.322540C703.155243 154.322540,706.543945 152.919281,709.042572 150.420654C711.541199 147.922028,712.944458 144.533325,712.944458 141.000000C712.944458 137.466675,711.541199 134.077972,709.042572 131.579346C706.543945 129.080719,703.155243 127.677460,699.621918 127.677460C696.088593 127.677460,692.699890 129.080719,690.201263 131.579346C687.702637 134.077972,686.299377 137.466675,686.299377 141.000000C686.299377 141.731232,686.359482 142.456284,686.476959 143.168533" style="stroke:rgb(0.000000%,0.000000%,0.000000%); stroke-width: 0.500000;stroke-linecap: round;stroke-linejoin: round;stroke-miterlimit: 10.000000;fill: none;"></path>
  <path d="M686.476990 143.168579C684.257248 143.420349,682.175095 144.416367,680.580063 146.011398C678.719528 147.871933,677.674042 150.395233,677.674042 153.026627C677.674042 155.658020,678.719528 158.181320,680.580063 160.041855C682.440598 161.902390,684.963898 162.947876,687.595291 162.947876C690.226685 162.947876,692.749985 161.902390,694.610519 160.041855C696.205551 158.446823,697.201569 156.364670,697.453339 154.144928" style="stroke:rgb(0.000000%,0.000000%,0.000000%); stroke-width: 0.500000;stroke-linecap: round;stroke-linejoin: round;stroke-miterlimit: 10.000000;fill: none;"></path>
  <path d="M754.146133 154.144943C754.858429 154.262436,755.583527 154.322540,756.314819 154.322540C759.848145 154.322540,763.236847 152.919281,765.735474 150.420654C768.234100 147.922028,769.637360 144.533325,769.637360 141.000000C769.637360 137.466675,768.234100 134.077972,765.735474 131.579346C763.236847 129.080719,759.848145 127.677460,756.314819 127.677460C752.781494 127.677460,749.392792 129.080719,746.894165 131.579346C744.395538 134.077972,742.992279 137.466675,742.992279 141.000000C742.992279 141.731232,743.052383 142.456284,743.169861 143.168533" style="stroke:rgb(0.000000%,0.000000%,0.000000%); stroke-width: 0.500000;stroke-linecap: round;stroke-linejoin: round;stroke-miterlimit: 10.000000;fill: none;"></path>
  <path d="M743.169891 143.168579C740.950150 143.420349,738.867996 144.416367,737.272964 146.011398C735.412430 147.871933,734.366943 150.395233,734.366943 153.026627C734.366943 155.658020,735.412430 158.181320,737.272964 160.041855C739.133499 161.902390,741.656799 162.947876,744.288193 162.947876C746.919586 162.947876,749.442886 161.902390,751.303421 160.041855C752.898453 158.446823,753.894470 156.364670,754.146240 154.144928" style="stroke:rgb(0.000000%,0.000000%,0.000000%); stroke-width: 0.500000;stroke-linecap: round;stroke-linejoin: round;stroke-miterlimit: 10.000000;fill: none;"></path>
  <path d="M102.177765 105.047318C102.890060 105.164810,103.615158 105.224915,104.346451 105.224915C107.879776 105.224915,111.268478 103.821655,113.767105 101.323029C116.265732 98.824402,117.668991 95.435699,117.668991 91.902374C117.668991 88.369049,116.265732 84.980347,113.767105 82.481720C111.268478 79.983093,107.879776 78.579834,104.346451 78.579834C100.813126 78.579834,97.424423 79.983093,94.925797 82.481720C92.427170 84.980347,91.023911 88.369049,91.023911 91.902374C91.023911 92.633606,91.084015 93.358658,91.201492 94.070908" style="stroke:rgb(0.000000%,0.000000%,0.000000%); stroke-width: 0.500000;stroke-linecap: round;stroke-linejoin: round;stroke-miterlimit: 10.000000;fill: none;"></path>
  <path d="M91.201523 94.070953C88.981781 94.322723,86.899628 95.318741,85.304596 96.913773C83.444061 98.774307,82.398575 101.297607,82.398575 103.929001C82.398575 106.560394,83.444061 109.083694,85.304596 110.944229C87.165131 112.804764,89.688431 113.850250,92.319824 113.850250C94.951218 113.850250,97.474518 112.804764,99.335052 110.944229C100.930084 109.349197,101.926102 107.267044,102.177872 105.047302" style="stroke:rgb(0.000000%,0.000000%,0.000000%); stroke-width: 0.500000;stroke-linecap: round;stroke-linejoin: round;stroke-miterlimit: 10.000000;fill: none;"></path>
  <path d="M158.870667 105.047318C159.582962 105.164810,160.308060 105.224915,161.039352 105.224915C164.572678 105.224915,167.961380 103.821655,170.460007 101.323029C172.958633 98.824402,174.361893 95.435699,174.361893 91.902374C174.361893 88.369049,172.958633 84.980347,170.460007 82.481720C167.961380 79.983093,164.572678 78.579834,161.039352 78.579834C157.506027 78.579834,154.117325 79.983093,151.618698 82.481720C149.120071 84.980347,147.716812 88.369049,147.716812 91.902374C147.716812 92.633606,147.776917 93.358658,147.894394 94.070908" style="stroke:rgb(0.000000%,0.000000%,0.000000%); stroke-width: 0.500000;stroke-linecap: round;stroke-linejoin: round;stroke-miterlimit: 10.000000;fill: none;"></path>
  <path d="M147.894424 94.070953C145.674683 94.322723,143.592529 95.318741,141.997498 96.913773C140.136963 98.774307,139.091476 101.297607,139.091476 103.929001C139.091476 106.560394,140.136963 109.083694,141.997498 110.944229C143.858032 112.804764,146.381332 113.850250,149.012726 113.850250C151.644119 113.850250,154.167419 112.804764,156.027954 110.944229C157.622986 109.349197,158.619003 107.267044,158.870773 105.047302" style="stroke:rgb(0.000000%,0.000000%,0.000000%); stroke-width: 0.500000;stroke-linecap: round;stroke-linejoin: round;stroke-miterlimit: 10.000000;fill: none;"></path>
  <path d="M215.563568 105.047318C216.275864 105.164810,217.000961 105.224915,217.732254 105.224915C221.265579 105.224915,224.654282 103.821655,227.152908 101.323029C229.651535 98.824402,231.054794 95.435699,231.054794 91.902374C231.054794 88.369049,229.651535 84.980347,227.152908 82.481720C224.654282 79.983093,221.265579 78.579834,217.732254 78.579834C214.198929 78.579834,210.810226 79.983093,208.311600 82.481720C205.812973 84.980347,204.409714 88.369049,204.409714 91.902374C204.409714 92.633606,204.469818 93.358658,204.587296 94.070908" style="stroke:rgb(0.000000%,0.000000%,0.000000%); stroke-width: 0.500000;stroke-linecap: round;stroke-linejoin: round;stroke-miterlimit: 10.000000;fill: none;"></path>
  <path d="M204.587326 94.070953C202.367584 94.322723,200.285431 95.318741,198.690399 96.913773C196.829865 98.774307,195.784378 101.297607,195.784378 103.929001C195.784378 106.560394,196.829865 109.083694,198.690399 110.944229C200.550934 112.804764,203.074234 113.850250,205.705627 113.850250C208.337021 113.850250,210.860321 112.804764,212.720856 110.944229C214.315887 109.349197,215.311905 107.267044,215.563675 105.047302" style="stroke:rgb(0.000000%,0.000000%,0.000000%); stroke-width: 0.500000;stroke-linecap: round;stroke-linejoin: round;stroke-miterlimit: 10.000000;fill: none;"></path>
  <path d="M272.256470 105.047318C272.968765 105.164810,273.693863 105.224915,274.425156 105.224915C277.958481 105.224915,281.347183 103.821655,283.845810 101.323029C286.344437 98.824402,287.747696 95.435699,287.747696 91.902374C287.747696 88.369049,286.344437 84.980347,283.845810 82.481720C281.347183 79.983093,277.958481 78.579834,274.425156 78.579834C270.891830 78.579834,267.503128 79.983093,265.004501 82.481720C262.505875 84.980347,261.102615 88.369049,261.102615 91.902374C261.102615 92.633606,261.162720 93.358658,261.280197 94.070908" style="stroke:rgb(0.000000%,0.000000%,0.000000%); stroke-width: 0.500000;stroke-linecap: round;stroke-linejoin: round;stroke-miterlimit: 10.000000;fill: none;"></path>
  <path d="M261.280228 94.070953C259.060486 94.322723,256.978333 95.318741,255.383301 96.913773C253.522766 98.774307,252.477280 101.297607,252.477280 103.929001C252.477280 106.560394,253.522766 109.083694,255.383301 110.944229C257.243835 112.804764,259.767136 113.850250,262.398529 113.850250C265.029922 113.850250,267.553223 112.804764,269.413757 110.944229C271.008789 109.349197,272.004807 107.267044,272.256577 105.047302" style="stroke:rgb(0.000000%,0.000000%,0.000000%); stroke-width: 0.500000;stroke-linecap: round;stroke-linejoin: round;stroke-miterlimit: 10.000000;fill: none;"></path>
  <path d="M328.949371 105.047318C329.661667 105.164810,330.386765 105.224915,331.118057 105.224915C334.651382 105.224915,338.040085 103.821655,340.538712 101.323029C343.037338 98.824402,344.440598 95.435699,344.440598 91.902374C344.440598 88.369049,343.037338 84.980347,340.538712 82.481720C338.040085 79.983093,334.651382 78.579834,331.118057 78.579834C327.584732 78.579834,324.196030 79.983093,321.697403 82.481720C319.198776 84.980347,317.795517 88.369049,317.795517 91.902374C317.795517 92.633606,317.855621 93.358658,317.973099 94.070908" style="stroke:rgb(0.000000%,0.000000%,0.000000%); stroke-width: 0.500000;stroke-linecap: round;stroke-linejoin: round;stroke-miterlimit: 10.000000;fill: none;"></path>
  <path d="M317.973129 94.070953C315.753387 94.322723,313.671234 95.318741,312.076202 96.913773C310.215668 98.774307,309.170181 101.297607,309.170181 103.929001C309.170181 106.560394,310.215668 109.083694,312.076202 110.944229C313.936737 112.804764,316.460037 113.850250,319.091431 113.850250C321.722824 113.850250,324.246124 112.804764,326.106659 110.944229C327.701691 109.349197,328.697708 107.267044,328.949478 105.047302" style="stroke:rgb(0.000000%,0.000000%,0.000000%); stroke-width: 0.500000;stroke-linecap: round;stroke-linejoin: round;stroke-miterlimit: 10.000000;fill: none;"></path>
  <path d="M385.642273 105.047318C386.354568 105.164810,387.079666 105.224915,387.810959 105.224915C391.344284 105.224915,394.732986 103.821655,397.231613 101.323029C399.730240 98.824402,401.133499 95.435699,401.133499 91.902374C401.133499 88.369049,399.730240 84.980347,397.231613 82.481720C394.732986 79.983093,391.344284 78.579834,387.810959 78.579834C384.277634 78.579834,380.888931 79.983093,378.390305 82.481720C375.891678 84.980347,374.488419 88.369049,374.488419 91.902374C374.488419 92.633606,374.548523 93.358658,374.666000 94.070908" style="stroke:rgb(0.000000%,0.000000%,0.000000%); stroke-width: 0.500000;stroke-linecap: round;stroke-linejoin: round;stroke-miterlimit: 10.000000;fill: none;"></path>
  <path d="M374.666031 94.070953C372.446289 94.322723,370.364136 95.318741,368.769104 96.913773C366.908569 98.774307,365.863083 101.297607,365.863083 103.929001C365.863083 106.560394,366.908569 109.083694,368.769104 110.944229C370.629639 112.804764,373.152939 113.850250,375.784332 113.850250C378.415726 113.850250,380.939026 112.804764,382.799561 110.944229C384.394592 109.349197,385.390610 107.267044,385.642380 105.047302" style="stroke:rgb(0.000000%,0.000000%,0.000000%); stroke-width: 0.500000;stroke-linecap: round;stroke-linejoin: round;stroke-miterlimit: 10.000000;fill: none;"></path>
  <path d="M442.335175 105.047318C443.047470 105.164810,443.772568 105.224915,444.503860 105.224915C448.037186 105.224915,451.425888 103.821655,453.924515 101.323029C456.423141 98.824402,457.826401 95.435699,457.826401 91.902374C457.826401 88.369049,456.423141 84.980347,453.924515 82.481720C451.425888 79.983093,448.037186 78.579834,444.503860 78.579834C440.970535 78.579834,437.581833 79.983093,435.083206 82.481720C432.584579 84.980347,431.181320 88.369049,431.181320 91.902374C431.181320 92.633606,431.241425 93.358658,431.358902 94.070908" style="stroke:rgb(0.000000%,0.000000%,0.000000%); stroke-width: 0.500000;stroke-linecap: round;stroke-linejoin: round;stroke-miterlimit: 10.000000;fill: none;"></path>
  <path d="M431.358932 94.070953C429.139191 94.322723,427.057037 95.318741,425.462006 96.913773C423.601471 98.774307,422.555984 101.297607,422.555984 103.929001C422.555984 106.560394,423.601471 109.083694,425.462006 110.944229C427.322540 112.804764,429.845840 113.850250,432.477234 113.850250C435.108627 113.850250,437.631927 112.804764,439.492462 110.944229C441.087494 109.349197,442.083511 107.267044,442.335281 105.047302" style="stroke:rgb(0.000000%,0.000000%,0.000000%); stroke-width: 0.500000;stroke-linecap: round;stroke-linejoin: round;stroke-miterlimit: 10.000000;fill: none;"></path>
  <path d="M499.028076 105.047318C499.740372 105.164810,500.465469 105.224915,501.196762 105.224915C504.730087 105.224915,508.118790 103.821655,510.617416 101.323029C513.116043 98.824402,514.519302 95.435699,514.519302 91.902374C514.519302 88.369049,513.116043 84.980347,510.617416 82.481720C508.118790 79.983093,504.730087 78.579834,501.196762 78.579834C497.663437 78.579834,494.274734 79.983093,491.776108 82.481720C489.277481 84.980347,487.874222 88.369049,487.874222 91.902374C487.874222 92.633606,487.934326 93.358658,488.051804 94.070908" style="stroke:rgb(0.000000%,0.000000%,0.000000%); stroke-width: 0.500000;stroke-linecap: round;stroke-linejoin: round;stroke-miterlimit: 10.000000;fill: none;"></path>
  <path d="M488.051834 94.070953C485.832092 94.322723,483.749939 95.318741,482.154907 96.913773C480.294373 98.774307,479.248886 101.297607,479.248886 103.929001C479.248886 106.560394,480.294373 109.083694,482.154907 110.944229C484.015442 112.804764,486.538742 113.850250,489.170135 113.850250C491.801529 113.850250,494.324829 112.804764,496.185364 110.944229C497.780396 109.349197,498.776413 107.267044,499.028183 105.047302" style="stroke:rgb(0.000000%,0.000000%,0.000000%); stroke-width: 0.500000;stroke-linecap: round;stroke-linejoin: round;stroke-miterlimit: 10.000000;fill: none;"></path>
  <path d="M555.720978 105.047318C556.433273 105.164810,557.158371 105.224915,557.889664 105.224915C561.422989 105.224915,564.811691 103.821655,567.310318 101.323029C569.808945 98.824402,571.212204 95.435699,571.212204 91.902374C571.212204 88.369049,569.808945 84.980347,567.310318 82.481720C564.811691 79.983093,561.422989 78.579834,557.889664 78.579834C554.356339 78.579834,550.967636 79.983093,548.469009 82.481720C545.970383 84.980347,544.567123 88.369049,544.567123 91.902374C544.567123 92.633606,544.627228 93.358658,544.744705 94.070908" style="stroke:rgb(0.000000%,0.000000%,0.000000%); stroke-width: 0.500000;stroke-linecap: round;stroke-linejoin: round;stroke-miterlimit: 10.000000;fill: none;"></path>
  <path d="M544.744736 94.070953C542.524994 94.322723,540.442841 95.318741,538.847809 96.913773C536.987274 98.774307,535.941788 101.297607,535.941788 103.929001C535.941788 106.560394,536.987274 109.083694,538.847809 110.944229C540.708344 112.804764,543.231644 113.850250,545.863037 113.850250C548.494431 113.850250,551.017731 112.804764,552.878265 110.944229C554.473297 109.349197,555.469315 107.267044,555.721085 105.047302" style="stroke:rgb(0.000000%,0.000000%,0.000000%); stroke-width: 0.500000;stroke-linecap: round;stroke-linejoin: round;stroke-miterlimit: 10.000000;fill: none;"></path>
  <path d="M612.413879 105.047318C613.126175 105.164810,613.851273 105.224915,614.582565 105.224915C618.115891 105.224915,621.504593 103.821655,624.003220 101.323029C626.501846 98.824402,627.905106 95.435699,627.905106 91.902374C627.905106 88.369049,626.501846 84.980347,624.003220 82.481720C621.504593 79.983093,618.115891 78.579834,614.582565 78.579834C611.049240 78.579834,607.660538 79.983093,605.161911 82.481720C602.663284 84.980347,601.260025 88.369049,601.260025 91.902374C601.260025 92.633606,601.320129 93.358658,601.437607 94.070908" style="stroke:rgb(0.000000%,0.000000%,0.000000%); stroke-width: 0.500000;stroke-linecap: round;stroke-linejoin: round;stroke-miterlimit: 10.000000;fill: none;"></path>
  <path d="M601.437637 94.070953C599.217896 94.322723,597.135742 95.318741,595.540710 96.913773C593.680176 98.774307,592.634689 101.297607,592.634689 103.929001C592.634689 106.560394,593.680176 109.083694,595.540710 110.944229C597.401245 112.804764,599.924545 113.850250,602.555939 113.850250C605.187332 113.850250,607.710632 112.804764,609.571167 110.944229C611.166199 109.349197,612.162216 107.267044,612.413986 105.047302" style="stroke:rgb(0.000000%,0.000000%,0.000000%); stroke-width: 0.500000;stroke-linecap: round;stroke-linejoin: round;stroke-miterlimit: 10.000000;fill: none;"></path>
  <path d="M669.106781 105.047318C669.819077 105.164810,670.544174 105.224915,671.275467 105.224915C674.808792 105.224915,678.197495 103.821655,680.696121 101.323029C683.194748 98.824402,684.598007 95.435699,684.598007 91.902374C684.598007 88.369049,683.194748 84.980347,680.696121 82.481720C678.197495 79.983093,674.808792 78.579834,671.275467 78.579834C667.742142 78.579834,664.353439 79.983093,661.854813 82.481720C659.356186 84.980347,657.952927 88.369049,657.952927 91.902374C657.952927 92.633606,658.013031 93.358658,658.130508 94.070908" style="stroke:rgb(0.000000%,0.000000%,0.000000%); stroke-width: 0.500000;stroke-linecap: round;stroke-linejoin: round;stroke-miterlimit: 10.000000;fill: none;"></path>
  <path d="M658.130539 94.070953C655.910797 94.322723,653.828644 95.318741,652.233612 96.913773C650.373077 98.774307,649.327591 101.297607,649.327591 103.929001C649.327591 106.560394,650.373077 109.083694,652.233612 110.944229C654.094147 112.804764,656.617447 113.850250,659.248840 113.850250C661.880234 113.850250,664.403534 112.804764,666.264069 110.944229C667.859100 109.349197,668.855118 107.267044,669.106888 105.047302" style="stroke:rgb(0.000000%,0.000000%,0.000000%); stroke-width: 0.500000;stroke-linecap: round;stroke-linejoin: round;stroke-miterlimit: 10.000000;fill: none;"></path>
  <path d="M725.799683 105.047318C726.511978 105.164810,727.237076 105.224915,727.968369 105.224915C731.501694 105.224915,734.890396 103.821655,737.389023 101.323029C739.887650 98.824402,741.290909 95.435699,741.290909 91.902374C741.290909 88.369049,739.887650 84.980347,737.389023 82.481720C734.890396 79.983093,731.501694 78.579834,727.968369 78.579834C724.435043 78.579834,721.046341 79.983093,718.547714 82.481720C716.049088 84.980347,714.645828 88.369049,714.645828 91.902374C714.645828 92.633606,714.705933 93.358658,714.823410 94.070908" style="stroke:rgb(0.000000%,0.000000%,0.000000%); stroke-width: 0.500000;stroke-linecap: round;stroke-linejoin: round;stroke-miterlimit: 10.000000;fill: none;"></path>
  <path d="M714.823441 94.070953C712.603699 94.322723,710.521545 95.318741,708.926514 96.913773C707.065979 98.774307,706.020493 101.297607,706.020493 103.929001C706.020493 106.560394,707.065979 109.083694,708.926514 110.944229C710.787048 112.804764,713.310349 113.850250,715.941742 113.850250C718.573135 113.850250,721.096436 112.804764,722.956970 110.944229C724.552002 109.349197,725.548019 107.267044,725.799789 105.047302" style="stroke:rgb(0.000000%,0.000000%,0.000000%); stroke-width: 0.500000;stroke-linecap: round;stroke-linejoin: round;stroke-miterlimit: 10.000000;fill: none;"></path>
  <path d="M187.217117 55.949692C187.929413 56.067184,188.654510 56.127289,189.385803 56.127289C192.919128 56.127289,196.307831 54.724030,198.806458 52.225403C201.305084 49.726776,202.708344 46.338074,202.708344 42.804749C202.708344 39.271423,201.305084 35.882721,198.806458 33.384094C196.307831 30.885468,192.919128 29.482208,189.385803 29.482208C185.852478 29.482208,182.463776 30.885468,179.965149 33.384094C177.466522 35.882721,176.063263 39.271423,176.063263 42.804749C176.063263 43.535980,176.123367 44.261032,176.240845 44.973282" style="stroke:rgb(0.000000%,0.000000%,0.000000%); stroke-width: 0.500000;stroke-linecap: round;stroke-linejoin: round;stroke-miterlimit: 10.000000;fill: none;"></path>
  <path d="M176.240875 44.973328C174.021133 45.225098,171.938980 46.221115,170.343948 47.816147C168.483414 49.676682,167.437927 52.199982,167.437927 54.831375C167.437927 57.462769,168.483414 59.986069,170.343948 61.846603C172.204483 63.707138,174.727783 64.752625,177.359177 64.752625C179.990570 64.752625,182.513870 63.707138,184.374405 61.846603C185.969437 60.251572,186.965454 58.169418,187.217224 55.949677" style="stroke:rgb(0.000000%,0.000000%,0.000000%); stroke-width: 0.500000;stroke-linecap: round;stroke-linejoin: round;stroke-miterlimit: 10.000000;fill: none;"></path>
  <path d="M243.910019 55.949692C244.622314 56.067184,245.347412 56.127289,246.078705 56.127289C249.612030 56.127289,253.000732 54.724030,255.499359 52.225403C257.997986 49.726776,259.401245 46.338074,259.401245 42.804749C259.401245 39.271423,257.997986 35.882721,255.499359 33.384094C253.000732 30.885468,249.612030 29.482208,246.078705 29.482208C242.545380 29.482208,239.156677 30.885468,236.658051 33.384094C234.159424 35.882721,232.756165 39.271423,232.756165 42.804749C232.756165 43.535980,232.816269 44.261032,232.933746 44.973282" style="stroke:rgb(0.000000%,0.000000%,0.000000%); stroke-width: 0.500000;stroke-linecap: round;stroke-linejoin: round;stroke-miterlimit: 10.000000;fill: none;"></path>
  <path d="M232.933777 44.973328C230.714035 45.225098,228.631882 46.221115,227.036850 47.816147C225.176315 49.676682,224.130829 52.199982,224.130829 54.831375C224.130829 57.462769,225.176315 59.986069,227.036850 61.846603C228.897385 63.707138,231.420685 64.752625,234.052078 64.752625C236.683472 64.752625,239.206772 63.707138,241.067307 61.846603C242.662338 60.251572,243.658356 58.169418,243.910126 55.949677" style="stroke:rgb(0.000000%,0.000000%,0.000000%); stroke-width: 0.500000;stroke-linecap: round;stroke-linejoin: round;stroke-miterlimit: 10.000000;fill: none;"></path>
  <path d="M300.602921 55.949692C301.315216 56.067184,302.040314 56.127289,302.771606 56.127289C306.304932 56.127289,309.693634 54.724030,312.192261 52.225403C314.690887 49.726776,316.094147 46.338074,316.094147 42.804749C316.094147 39.271423,314.690887 35.882721,312.192261 33.384094C309.693634 30.885468,306.304932 29.482208,302.771606 29.482208C299.238281 29.482208,295.849579 30.885468,293.350952 33.384094C290.852325 35.882721,289.449066 39.271423,289.449066 42.804749C289.449066 43.535980,289.509171 44.261032,289.626648 44.973282" style="stroke:rgb(0.000000%,0.000000%,0.000000%); stroke-width: 0.500000;stroke-linecap: round;stroke-linejoin: round;stroke-miterlimit: 10.000000;fill: none;"></path>
  <path d="M289.626678 44.973328C287.406937 45.225098,285.324783 46.221115,283.729752 47.816147C281.869217 49.676682,280.823730 52.199982,280.823730 54.831375C280.823730 57.462769,281.869217 59.986069,283.729752 61.846603C285.590286 63.707138,288.113586 64.752625,290.744980 64.752625C293.376373 64.752625,295.899673 63.707138,297.760208 61.846603C299.355240 60.251572,300.351257 58.169418,300.603027 55.949677" style="stroke:rgb(0.000000%,0.000000%,0.000000%); stroke-width: 0.500000;stroke-linecap: round;stroke-linejoin: round;stroke-miterlimit: 10.000000;fill: none;"></path>
  <path d="M357.295822 55.949692C358.008118 56.067184,358.733215 56.127289,359.464508 56.127289C362.997833 56.127289,366.386536 54.724030,368.885162 52.225403C371.383789 49.726776,372.787048 46.338074,372.787048 42.804749C372.787048 39.271423,371.383789 35.882721,368.885162 33.384094C366.386536 30.885468,362.997833 29.482208,359.464508 29.482208C355.931183 29.482208,352.542480 30.885468,350.043854 33.384094C347.545227 35.882721,346.141968 39.271423,346.141968 42.804749C346.141968 43.535980,346.202072 44.261032,346.319550 44.973282" style="stroke:rgb(0.000000%,0.000000%,0.000000%); stroke-width: 0.500000;stroke-linecap: round;stroke-linejoin: round;stroke-miterlimit: 10.000000;fill: none;"></path>
  <path d="M346.319580 44.973328C344.099838 45.225098,342.017685 46.221115,340.422653 47.816147C338.562119 49.676682,337.516632 52.199982,337.516632 54.831375C337.516632 57.462769,338.562119 59.986069,340.422653 61.846603C342.283188 63.707138,344.806488 64.752625,347.437881 64.752625C350.069275 64.752625,352.592575 63.707138,354.453110 61.846603C356.048141 60.251572,357.044159 58.169418,357.295929 55.949677" style="stroke:rgb(0.000000%,0.000000%,0.000000%); stroke-width: 0.500000;stroke-linecap: round;stroke-linejoin: round;stroke-miterlimit: 10.000000;fill: none;"></path>
  <path d="M413.988724 55.949692C414.701019 56.067184,415.426117 56.127289,416.157410 56.127289C419.690735 56.127289,423.079437 54.724030,425.578064 52.225403C428.076691 49.726776,429.479950 46.338074,429.479950 42.804749C429.479950 39.271423,428.076691 35.882721,425.578064 33.384094C423.079437 30.885468,419.690735 29.482208,416.157410 29.482208C412.624084 29.482208,409.235382 30.885468,406.736755 33.384094C404.238129 35.882721,402.834869 39.271423,402.834869 42.804749C402.834869 43.535980,402.894974 44.261032,403.012451 44.973282" style="stroke:rgb(0.000000%,0.000000%,0.000000%); stroke-width: 0.500000;stroke-linecap: round;stroke-linejoin: round;stroke-miterlimit: 10.000000;fill: none;"></path>
  <path d="M403.012482 44.973328C400.792740 45.225098,398.710587 46.221115,397.115555 47.816147C395.255020 49.676682,394.209534 52.199982,394.209534 54.831375C394.209534 57.462769,395.255020 59.986069,397.115555 61.846603C398.976089 63.707138,401.499390 64.752625,404.130783 64.752625C406.762177 64.752625,409.285477 63.707138,411.146011 61.846603C412.741043 60.251572,413.737061 58.169418,413.988831 55.949677" style="stroke:rgb(0.000000%,0.000000%,0.000000%); stroke-width: 0.500000;stroke-linecap: round;stroke-linejoin: round;stroke-miterlimit: 10.000000;fill: none;"></path>
  <path d="M470.681625 55.949692C471.393921 56.067184,472.119019 56.127289,472.850311 56.127289C476.383636 56.127289,479.772339 54.724030,482.270966 52.225403C484.769592 49.726776,486.172852 46.338074,486.172852 42.804749C486.172852 39.271423,484.769592 35.882721,482.270966 33.384094C479.772339 30.885468,476.383636 29.482208,472.850311 29.482208C469.316986 29.482208,465.928284 30.885468,463.429657 33.384094C460.931030 35.882721,459.527771 39.271423,459.527771 42.804749C459.527771 43.535980,459.587875 44.261032,459.705353 44.973282" style="stroke:rgb(0.000000%,0.000000%,0.000000%); stroke-width: 0.500000;stroke-linecap: round;stroke-linejoin: round;stroke-miterlimit: 10.000000;fill: none;"></path>
  <path d="M459.705383 44.973328C457.485641 45.225098,455.403488 46.221115,453.808456 47.816147C451.947922 49.676682,450.902435 52.199982,450.902435 54.831375C450.902435 57.462769,451.947922 59.986069,453.808456 61.846603C455.668991 63.707138,458.192291 64.752625,460.823685 64.752625C463.455078 64.752625,465.978378 63.707138,467.838913 61.846603C469.433945 60.251572,470.429962 58.169418,470.681732 55.949677" style="stroke:rgb(0.000000%,0.000000%,0.000000%); stroke-width: 0.500000;stroke-linecap: round;stroke-linejoin: round;stroke-miterlimit: 10.000000;fill: none;"></path>
  <path d="M527.374527 55.949692C528.086823 56.067184,528.811920 56.127289,529.543213 56.127289C533.076538 56.127289,536.465240 54.724030,538.963867 52.225403C541.462494 49.726776,542.865753 46.338074,542.865753 42.804749C542.865753 39.271423,541.462494 35.882721,538.963867 33.384094C536.465240 30.885468,533.076538 29.482208,529.543213 29.482208C526.009888 29.482208,522.621185 30.885468,520.122559 33.384094C517.623932 35.882721,516.220673 39.271423,516.220673 42.804749C516.220673 43.535980,516.280777 44.261032,516.398254 44.973282" style="stroke:rgb(0.000000%,0.000000%,0.000000%); stroke-width: 0.500000;stroke-linecap: round;stroke-linejoin: round;stroke-miterlimit: 10.000000;fill: none;"></path>
  <path d="M516.398285 44.973328C514.178543 45.225098,512.096390 46.221115,510.501358 47.816147C508.640823 49.676682,507.595337 52.199982,507.595337 54.831375C507.595337 57.462769,508.640823 59.986069,510.501358 61.846603C512.361893 63.707138,514.885193 64.752625,517.516586 64.752625C520.147980 64.752625,522.671280 63.707138,524.531815 61.846603C526.126846 60.251572,527.122864 58.169418,527.374634 55.949677" style="stroke:rgb(0.000000%,0.000000%,0.000000%); stroke-width: 0.500000;stroke-linecap: round;stroke-linejoin: round;stroke-miterlimit: 10.000000;fill: none;"></path>
  <path d="M-0.535324 228.874176C282.924866 228.874176,566.398010 228.874176,849.858200 228.874176C849.858200 152.340057,849.858200 75.802414,849.858200 -0.731705C566.398010 -0.731705,282.924866 -0.731705,-0.535324 -0.731705C-0.535324 75.802414,-0.535324 152.340057,-0.535324 228.874176Z" style="stroke:rgb(0.000000%,0.000000%,0.000000%); stroke-width: 0.500000;stroke-linecap: round;stroke-linejoin: round;stroke-miterlimit: 10.000000;fill: none;"></path>
</svg>
