  0
SECTION
  2
HEADER
  9
$ACADVER
  1
AC1014
  9
$HANDSEED
  5
FFFF
  9
$MEASUREMENT
 70
     1
  0
ENDSEC
  0
SECTION
  2
TABLES
  0
TABLE
  2
VPORT
  5
8
330
0
100
AcDbSymbolTable
 70
     4
  0
VPORT
  5
2E
330
8
100
AcDbSymbolTableRecord
100
AcDbViewportTableRecord
  2
*ACTIVE
 70
     0
 10
0.0
 20
0.0
 11
1.0
 21
1.0
 12
210.0
 22
148.5
 13
0.0
 23
0.0
 14
10.0
 24
10.0
 15
10.0
 25
10.0
 16
0.0
 26
0.0
 36
1.0
 17
0.0
 27
0.0
 37
0.0
 40
341.0
 41
1.24
 42
50.0
 43
0.0
 44
0.0
 50
0.0
 51
0.0
 71
     0
 72
   100
 73
     1
 74
     3
 75
     0
 76
     0
 77
     0
 78
     0
  0
ENDTAB
  0
TABLE
  2
LTYPE
  5
5
330
0
100
AcDbSymbolTable
 70
     1
  0
LTYPE
  5
14
330
5
100
AcDbSymbolTableRecord
100
AcDbLinetypeTableRecord
  2
BYBLOCK
 70
     0
  3

 72
    65
 73
     0
 40
0.0
  0
LTYPE
  5
15
330
5
100
AcDbSymbolTableRecord
100
AcDbLinetypeTableRecord
  2
BYLAYER
 70
     0
  3

 72
    65
 73
     0
 40
0.0
  0
LTYPE
  5
16
330
5
100
AcDbSymbolTableRecord
100
AcDbLinetypeTableRecord
  2
CONTINUOUS
 70
     0
  3
Solid line
 72
    65
 73
     0
 40
0.0
  0
ENDTAB
  0
TABLE
  2
LAYER
  5
2
100
AcDbSymbolTable
 70
1
  0
LAYER
  5
50
100
AcDbSymbolTableRecord
100
AcDbLayerTableRecord
  2
0
 70
0
  6
CONTINUOUS
  0
ENDTAB
  0
TABLE
  2
STYLE
  5
3
330
0
100
AcDbSymbolTable
 70
     1
  0
STYLE
  5
11
330
3
100
AcDbSymbolTableRecord
100
AcDbTextStyleTableRecord
  2
STANDARD
 70
     0
 40
0.0
 41
1.0
 50
0.0
 71
     0
 42
2.5
  3
txt
  4

  0
ENDTAB
  0
TABLE
  2
VIEW
  5
6
330
0
100
AcDbSymbolTable
 70
     0
  0
ENDTAB
  0
TABLE
  2
UCS
  5
7
330
0
100
AcDbSymbolTable
 70
     0
  0
ENDTAB
  0
TABLE
  2
APPID
  5
9
330
0
100
AcDbSymbolTable
 70
     2
  0
APPID
  5
12
330
9
100
AcDbSymbolTableRecord
100
AcDbRegAppTableRecord
  2
ACAD
 70
     0
  0
ENDTAB
  0
TABLE
  2
DIMSTYLE
  5
A
330
0
100
AcDbSymbolTable
 70
     1
  0
DIMSTYLE
105
27
330
A
100
AcDbSymbolTableRecord
100
AcDbDimStyleTableRecord
  2
ISO-25
 70
     0
  3

  4

  5

  6

  7

 40
1.0
 41
2.5
 42
0.625
 43
3.75
 44
1.25
 45
0.0
 46
0.0
 47
0.0
 48
0.0
140
2.5
141
2.5
142
0.0
143
0.03937007874016
144
1.0
145
0.0
146
1.0
147
0.625
 71
     0
 72
     0
 73
     0
 74
     0
 75
     0
 76
     0
 77
     1
 78
     8
170
     0
171
     3
172
     1
173
     0
174
     0
175
     0
176
     0
177
     0
178
     0
270
     2
271
     2
272
     2
273
     2
274
     3
340
11
275
     0
280
     0
281
     0
282
     0
283
     0
284
     8
285
     0
286
     0
287
     3
288
     0
  0
ENDTAB
  0
TABLE
  2
BLOCK_RECORD
  5
1
330
0
100
AcDbSymbolTable
 70
     1
  0
BLOCK_RECORD
  5
1F
330
1
100
AcDbSymbolTableRecord
100
AcDbBlockTableRecord
  2
*MODEL_SPACE
  0
BLOCK_RECORD
  5
1B
330
1
100
AcDbSymbolTableRecord
100
AcDbBlockTableRecord
  2
*PAPER_SPACE
  0
ENDTAB
  0
ENDSEC
  0
SECTION
  2
BLOCKS
  0
BLOCK
  5
20
330
1F
100
AcDbEntity
  8
0
100
AcDbBlockBegin
  2
*MODEL_SPACE
 70
     0
 10
0.0
 20
0.0
 30
0.0
  3
*MODEL_SPACE
  1

  0
ENDBLK
  5
21
330
1F
100
AcDbEntity
  8
0
100
AcDbBlockEnd
  0
BLOCK
  5
1C
330
1B
100
AcDbEntity
 67
     1
  8
0
100
AcDbBlockBegin
  2
*PAPER_SPACE
  1

  0
ENDBLK
  5
1D
330
1B
100
AcDbEntity
 67
     1
  8
0
100
AcDbBlockEnd
  0
ENDSEC
  0
SECTION
  2
ENTITIES
  0
SPLINE
  5
100
100
AcDbEntity
  8
0
 62
7
100
AcDbSpline
 70
8
 71
3
 72
8
 73
4
 74
0
 40
0
 40
0
 40
0
 40
0
 40
1
 40
1
 40
1
 40
1
 10
102.177765
 20
26.863312
 30
0.0
 10
102.890060
 20
26.745819
 30
0.0
 10
103.615158
 20
26.685715
 30
0.0
 10
104.346451
 20
26.685715
 30
0.0
  0
SPLINE
  5
101
100
AcDbEntity
  8
0
 62
7
100
AcDbSpline
 70
8
 71
3
 72
8
 73
4
 74
0
 40
0
 40
0
 40
0
 40
0
 40
1
 40
1
 40
1
 40
1
 10
104.346451
 20
26.685715
 30
0.0
 10
107.879776
 20
26.685715
 30
0.0
 10
111.268478
 20
28.088974
 30
0.0
 10
113.767105
 20
30.587601
 30
0.0
  0
SPLINE
  5
102
100
AcDbEntity
  8
0
 62
7
100
AcDbSpline
 70
8
 71
3
 72
8
 73
4
 74
0
 40
0
 40
0
 40
0
 40
0
 40
1
 40
1
 40
1
 40
1
 10
113.767105
 20
30.587601
 30
0.0
 10
116.265732
 20
33.086228
 30
0.0
 10
117.668991
 20
36.474930
 30
0.0
 10
117.668991
 20
40.008255
 30
0.0
  0
SPLINE
  5
103
100
AcDbEntity
  8
0
 62
7
100
AcDbSpline
 70
8
 71
3
 72
8
 73
4
 74
0
 40
0
 40
0
 40
0
 40
0
 40
1
 40
1
 40
1
 40
1
 10
117.668991
 20
40.008255
 30
0.0
 10
117.668991
 20
43.541580
 30
0.0
 10
116.265732
 20
46.930283
 30
0.0
 10
113.767105
 20
49.428910
 30
0.0
  0
SPLINE
  5
104
100
AcDbEntity
  8
0
 62
7
100
AcDbSpline
 70
8
 71
3
 72
8
 73
4
 74
0
 40
0
 40
0
 40
0
 40
0
 40
1
 40
1
 40
1
 40
1
 10
113.767105
 20
49.428910
 30
0.0
 10
111.268478
 20
51.927536
 30
0.0
 10
107.879776
 20
53.330796
 30
0.0
 10
104.346451
 20
53.330796
 30
0.0
  0
SPLINE
  5
105
100
AcDbEntity
  8
0
 62
7
100
AcDbSpline
 70
8
 71
3
 72
8
 73
4
 74
0
 40
0
 40
0
 40
0
 40
0
 40
1
 40
1
 40
1
 40
1
 10
104.346451
 20
53.330796
 30
0.0
 10
100.813126
 20
53.330796
 30
0.0
 10
97.424423
 20
51.927536
 30
0.0
 10
94.925797
 20
49.428910
 30
0.0
  0
SPLINE
  5
106
100
AcDbEntity
  8
0
 62
7
100
AcDbSpline
 70
8
 71
3
 72
8
 73
4
 74
0
 40
0
 40
0
 40
0
 40
0
 40
1
 40
1
 40
1
 40
1
 10
94.925797
 20
49.428910
 30
0.0
 10
92.427170
 20
46.930283
 30
0.0
 10
91.023911
 20
43.541580
 30
0.0
 10
91.023911
 20
40.008255
 30
0.0
  0
SPLINE
  5
107
100
AcDbEntity
  8
0
 62
7
100
AcDbSpline
 70
8
 71
3
 72
8
 73
4
 74
0
 40
0
 40
0
 40
0
 40
0
 40
1
 40
1
 40
1
 40
1
 10
91.023911
 20
40.008255
 30
0.0
 10
91.023911
 20
39.277024
 30
0.0
 10
91.084015
 20
38.551972
 30
0.0
 10
91.201492
 20
37.839722
 30
0.0
  0
SPLINE
  5
108
100
AcDbEntity
  8
0
 62
7
100
AcDbSpline
 70
8
 71
3
 72
8
 73
4
 74
0
 40
0
 40
0
 40
0
 40
0
 40
1
 40
1
 40
1
 40
1
 10
91.201523
 20
37.839676
 30
0.0
 10
88.981781
 20
37.587906
 30
0.0
 10
86.899628
 20
36.591889
 30
0.0
 10
85.304596
 20
34.996857
 30
0.0
  0
SPLINE
  5
109
100
AcDbEntity
  8
0
 62
7
100
AcDbSpline
 70
8
 71
3
 72
8
 73
4
 74
0
 40
0
 40
0
 40
0
 40
0
 40
1
 40
1
 40
1
 40
1
 10
85.304596
 20
34.996857
 30
0.0
 10
83.444061
 20
33.136322
 30
0.0
 10
82.398575
 20
30.613022
 30
0.0
 10
82.398575
 20
27.981629
 30
0.0
  0
SPLINE
  5
10a
100
AcDbEntity
  8
0
 62
7
100
AcDbSpline
 70
8
 71
3
 72
8
 73
4
 74
0
 40
0
 40
0
 40
0
 40
0
 40
1
 40
1
 40
1
 40
1
 10
82.398575
 20
27.981629
 30
0.0
 10
82.398575
 20
25.350235
 30
0.0
 10
83.444061
 20
22.826935
 30
0.0
 10
85.304596
 20
20.966400
 30
0.0
  0
SPLINE
  5
10b
100
AcDbEntity
  8
0
 62
7
100
AcDbSpline
 70
8
 71
3
 72
8
 73
4
 74
0
 40
0
 40
0
 40
0
 40
0
 40
1
 40
1
 40
1
 40
1
 10
85.304596
 20
20.966400
 30
0.0
 10
87.165131
 20
19.105866
 30
0.0
 10
89.688431
 20
18.060379
 30
0.0
 10
92.319824
 20
18.060379
 30
0.0
  0
SPLINE
  5
10c
100
AcDbEntity
  8
0
 62
7
100
AcDbSpline
 70
8
 71
3
 72
8
 73
4
 74
0
 40
0
 40
0
 40
0
 40
0
 40
1
 40
1
 40
1
 40
1
 10
92.319824
 20
18.060379
 30
0.0
 10
94.951218
 20
18.060379
 30
0.0
 10
97.474518
 20
19.105866
 30
0.0
 10
99.335052
 20
20.966400
 30
0.0
  0
SPLINE
  5
10d
100
AcDbEntity
  8
0
 62
7
100
AcDbSpline
 70
8
 71
3
 72
8
 73
4
 74
0
 40
0
 40
0
 40
0
 40
0
 40
1
 40
1
 40
1
 40
1
 10
99.335052
 20
20.966400
 30
0.0
 10
100.930084
 20
22.561432
 30
0.0
 10
101.926102
 20
24.643585
 30
0.0
 10
102.177872
 20
26.863327
 30
0.0
  0
SPLINE
  5
10e
100
AcDbEntity
  8
0
 62
7
100
AcDbSpline
 70
8
 71
3
 72
8
 73
4
 74
0
 40
0
 40
0
 40
0
 40
0
 40
1
 40
1
 40
1
 40
1
 10
158.870667
 20
26.863312
 30
0.0
 10
159.582962
 20
26.745819
 30
0.0
 10
160.308060
 20
26.685715
 30
0.0
 10
161.039352
 20
26.685715
 30
0.0
  0
SPLINE
  5
10f
100
AcDbEntity
  8
0
 62
7
100
AcDbSpline
 70
8
 71
3
 72
8
 73
4
 74
0
 40
0
 40
0
 40
0
 40
0
 40
1
 40
1
 40
1
 40
1
 10
161.039352
 20
26.685715
 30
0.0
 10
164.572678
 20
26.685715
 30
0.0
 10
167.961380
 20
28.088974
 30
0.0
 10
170.460007
 20
30.587601
 30
0.0
  0
SPLINE
  5
110
100
AcDbEntity
  8
0
 62
7
100
AcDbSpline
 70
8
 71
3
 72
8
 73
4
 74
0
 40
0
 40
0
 40
0
 40
0
 40
1
 40
1
 40
1
 40
1
 10
170.460007
 20
30.587601
 30
0.0
 10
172.958633
 20
33.086228
 30
0.0
 10
174.361893
 20
36.474930
 30
0.0
 10
174.361893
 20
40.008255
 30
0.0
  0
SPLINE
  5
111
100
AcDbEntity
  8
0
 62
7
100
AcDbSpline
 70
8
 71
3
 72
8
 73
4
 74
0
 40
0
 40
0
 40
0
 40
0
 40
1
 40
1
 40
1
 40
1
 10
174.361893
 20
40.008255
 30
0.0
 10
174.361893
 20
43.541580
 30
0.0
 10
172.958633
 20
46.930283
 30
0.0
 10
170.460007
 20
49.428910
 30
0.0
  0
SPLINE
  5
112
100
AcDbEntity
  8
0
 62
7
100
AcDbSpline
 70
8
 71
3
 72
8
 73
4
 74
0
 40
0
 40
0
 40
0
 40
0
 40
1
 40
1
 40
1
 40
1
 10
170.460007
 20
49.428910
 30
0.0
 10
167.961380
 20
51.927536
 30
0.0
 10
164.572678
 20
53.330796
 30
0.0
 10
161.039352
 20
53.330796
 30
0.0
  0
SPLINE
  5
113
100
AcDbEntity
  8
0
 62
7
100
AcDbSpline
 70
8
 71
3
 72
8
 73
4
 74
0
 40
0
 40
0
 40
0
 40
0
 40
1
 40
1
 40
1
 40
1
 10
161.039352
 20
53.330796
 30
0.0
 10
157.506027
 20
53.330796
 30
0.0
 10
154.117325
 20
51.927536
 30
0.0
 10
151.618698
 20
49.428910
 30
0.0
  0
SPLINE
  5
114
100
AcDbEntity
  8
0
 62
7
100
AcDbSpline
 70
8
 71
3
 72
8
 73
4
 74
0
 40
0
 40
0
 40
0
 40
0
 40
1
 40
1
 40
1
 40
1
 10
151.618698
 20
49.428910
 30
0.0
 10
149.120071
 20
46.930283
 30
0.0
 10
147.716812
 20
43.541580
 30
0.0
 10
147.716812
 20
40.008255
 30
0.0
  0
SPLINE
  5
115
100
AcDbEntity
  8
0
 62
7
100
AcDbSpline
 70
8
 71
3
 72
8
 73
4
 74
0
 40
0
 40
0
 40
0
 40
0
 40
1
 40
1
 40
1
 40
1
 10
147.716812
 20
40.008255
 30
0.0
 10
147.716812
 20
39.277024
 30
0.0
 10
147.776917
 20
38.551972
 30
0.0
 10
147.894394
 20
37.839722
 30
0.0
  0
SPLINE
  5
116
100
AcDbEntity
  8
0
 62
7
100
AcDbSpline
 70
8
 71
3
 72
8
 73
4
 74
0
 40
0
 40
0
 40
0
 40
0
 40
1
 40
1
 40
1
 40
1
 10
147.894424
 20
37.839676
 30
0.0
 10
145.674683
 20
37.587906
 30
0.0
 10
143.592529
 20
36.591889
 30
0.0
 10
141.997498
 20
34.996857
 30
0.0
  0
SPLINE
  5
117
100
AcDbEntity
  8
0
 62
7
100
AcDbSpline
 70
8
 71
3
 72
8
 73
4
 74
0
 40
0
 40
0
 40
0
 40
0
 40
1
 40
1
 40
1
 40
1
 10
141.997498
 20
34.996857
 30
0.0
 10
140.136963
 20
33.136322
 30
0.0
 10
139.091476
 20
30.613022
 30
0.0
 10
139.091476
 20
27.981629
 30
0.0
  0
SPLINE
  5
118
100
AcDbEntity
  8
0
 62
7
100
AcDbSpline
 70
8
 71
3
 72
8
 73
4
 74
0
 40
0
 40
0
 40
0
 40
0
 40
1
 40
1
 40
1
 40
1
 10
139.091476
 20
27.981629
 30
0.0
 10
139.091476
 20
25.350235
 30
0.0
 10
140.136963
 20
22.826935
 30
0.0
 10
141.997498
 20
20.966400
 30
0.0
  0
SPLINE
  5
119
100
AcDbEntity
  8
0
 62
7
100
AcDbSpline
 70
8
 71
3
 72
8
 73
4
 74
0
 40
0
 40
0
 40
0
 40
0
 40
1
 40
1
 40
1
 40
1
 10
141.997498
 20
20.966400
 30
0.0
 10
143.858032
 20
19.105866
 30
0.0
 10
146.381332
 20
18.060379
 30
0.0
 10
149.012726
 20
18.060379
 30
0.0
  0
SPLINE
  5
11a
100
AcDbEntity
  8
0
 62
7
100
AcDbSpline
 70
8
 71
3
 72
8
 73
4
 74
0
 40
0
 40
0
 40
0
 40
0
 40
1
 40
1
 40
1
 40
1
 10
149.012726
 20
18.060379
 30
0.0
 10
151.644119
 20
18.060379
 30
0.0
 10
154.167419
 20
19.105866
 30
0.0
 10
156.027954
 20
20.966400
 30
0.0
  0
SPLINE
  5
11b
100
AcDbEntity
  8
0
 62
7
100
AcDbSpline
 70
8
 71
3
 72
8
 73
4
 74
0
 40
0
 40
0
 40
0
 40
0
 40
1
 40
1
 40
1
 40
1
 10
156.027954
 20
20.966400
 30
0.0
 10
157.622986
 20
22.561432
 30
0.0
 10
158.619003
 20
24.643585
 30
0.0
 10
158.870773
 20
26.863327
 30
0.0
  0
SPLINE
  5
11c
100
AcDbEntity
  8
0
 62
7
100
AcDbSpline
 70
8
 71
3
 72
8
 73
4
 74
0
 40
0
 40
0
 40
0
 40
0
 40
1
 40
1
 40
1
 40
1
 10
215.563568
 20
26.863312
 30
0.0
 10
216.275864
 20
26.745819
 30
0.0
 10
217.000961
 20
26.685715
 30
0.0
 10
217.732254
 20
26.685715
 30
0.0
  0
SPLINE
  5
11d
100
AcDbEntity
  8
0
 62
7
100
AcDbSpline
 70
8
 71
3
 72
8
 73
4
 74
0
 40
0
 40
0
 40
0
 40
0
 40
1
 40
1
 40
1
 40
1
 10
217.732254
 20
26.685715
 30
0.0
 10
221.265579
 20
26.685715
 30
0.0
 10
224.654282
 20
28.088974
 30
0.0
 10
227.152908
 20
30.587601
 30
0.0
  0
SPLINE
  5
11e
100
AcDbEntity
  8
0
 62
7
100
AcDbSpline
 70
8
 71
3
 72
8
 73
4
 74
0
 40
0
 40
0
 40
0
 40
0
 40
1
 40
1
 40
1
 40
1
 10
227.152908
 20
30.587601
 30
0.0
 10
229.651535
 20
33.086228
 30
0.0
 10
231.054794
 20
36.474930
 30
0.0
 10
231.054794
 20
40.008255
 30
0.0
  0
SPLINE
  5
11f
100
AcDbEntity
  8
0
 62
7
100
AcDbSpline
 70
8
 71
3
 72
8
 73
4
 74
0
 40
0
 40
0
 40
0
 40
0
 40
1
 40
1
 40
1
 40
1
 10
231.054794
 20
40.008255
 30
0.0
 10
231.054794
 20
43.541580
 30
0.0
 10
229.651535
 20
46.930283
 30
0.0
 10
227.152908
 20
49.428910
 30
0.0
  0
SPLINE
  5
120
100
AcDbEntity
  8
0
 62
7
100
AcDbSpline
 70
8
 71
3
 72
8
 73
4
 74
0
 40
0
 40
0
 40
0
 40
0
 40
1
 40
1
 40
1
 40
1
 10
227.152908
 20
49.428910
 30
0.0
 10
224.654282
 20
51.927536
 30
0.0
 10
221.265579
 20
53.330796
 30
0.0
 10
217.732254
 20
53.330796
 30
0.0
  0
SPLINE
  5
121
100
AcDbEntity
  8
0
 62
7
100
AcDbSpline
 70
8
 71
3
 72
8
 73
4
 74
0
 40
0
 40
0
 40
0
 40
0
 40
1
 40
1
 40
1
 40
1
 10
217.732254
 20
53.330796
 30
0.0
 10
214.198929
 20
53.330796
 30
0.0
 10
210.810226
 20
51.927536
 30
0.0
 10
208.311600
 20
49.428910
 30
0.0
  0
SPLINE
  5
122
100
AcDbEntity
  8
0
 62
7
100
AcDbSpline
 70
8
 71
3
 72
8
 73
4
 74
0
 40
0
 40
0
 40
0
 40
0
 40
1
 40
1
 40
1
 40
1
 10
208.311600
 20
49.428910
 30
0.0
 10
205.812973
 20
46.930283
 30
0.0
 10
204.409714
 20
43.541580
 30
0.0
 10
204.409714
 20
40.008255
 30
0.0
  0
SPLINE
  5
123
100
AcDbEntity
  8
0
 62
7
100
AcDbSpline
 70
8
 71
3
 72
8
 73
4
 74
0
 40
0
 40
0
 40
0
 40
0
 40
1
 40
1
 40
1
 40
1
 10
204.409714
 20
40.008255
 30
0.0
 10
204.409714
 20
39.277024
 30
0.0
 10
204.469818
 20
38.551972
 30
0.0
 10
204.587296
 20
37.839722
 30
0.0
  0
SPLINE
  5
124
100
AcDbEntity
  8
0
 62
7
100
AcDbSpline
 70
8
 71
3
 72
8
 73
4
 74
0
 40
0
 40
0
 40
0
 40
0
 40
1
 40
1
 40
1
 40
1
 10
204.587326
 20
37.839676
 30
0.0
 10
202.367584
 20
37.587906
 30
0.0
 10
200.285431
 20
36.591889
 30
0.0
 10
198.690399
 20
34.996857
 30
0.0
  0
SPLINE
  5
125
100
AcDbEntity
  8
0
 62
7
100
AcDbSpline
 70
8
 71
3
 72
8
 73
4
 74
0
 40
0
 40
0
 40
0
 40
0
 40
1
 40
1
 40
1
 40
1
 10
198.690399
 20
34.996857
 30
0.0
 10
196.829865
 20
33.136322
 30
0.0
 10
195.784378
 20
30.613022
 30
0.0
 10
195.784378
 20
27.981629
 30
0.0
  0
SPLINE
  5
126
100
AcDbEntity
  8
0
 62
7
100
AcDbSpline
 70
8
 71
3
 72
8
 73
4
 74
0
 40
0
 40
0
 40
0
 40
0
 40
1
 40
1
 40
1
 40
1
 10
195.784378
 20
27.981629
 30
0.0
 10
195.784378
 20
25.350235
 30
0.0
 10
196.829865
 20
22.826935
 30
0.0
 10
198.690399
 20
20.966400
 30
0.0
  0
SPLINE
  5
127
100
AcDbEntity
  8
0
 62
7
100
AcDbSpline
 70
8
 71
3
 72
8
 73
4
 74
0
 40
0
 40
0
 40
0
 40
0
 40
1
 40
1
 40
1
 40
1
 10
198.690399
 20
20.966400
 30
0.0
 10
200.550934
 20
19.105866
 30
0.0
 10
203.074234
 20
18.060379
 30
0.0
 10
205.705627
 20
18.060379
 30
0.0
  0
SPLINE
  5
128
100
AcDbEntity
  8
0
 62
7
100
AcDbSpline
 70
8
 71
3
 72
8
 73
4
 74
0
 40
0
 40
0
 40
0
 40
0
 40
1
 40
1
 40
1
 40
1
 10
205.705627
 20
18.060379
 30
0.0
 10
208.337021
 20
18.060379
 30
0.0
 10
210.860321
 20
19.105866
 30
0.0
 10
212.720856
 20
20.966400
 30
0.0
  0
SPLINE
  5
129
100
AcDbEntity
  8
0
 62
7
100
AcDbSpline
 70
8
 71
3
 72
8
 73
4
 74
0
 40
0
 40
0
 40
0
 40
0
 40
1
 40
1
 40
1
 40
1
 10
212.720856
 20
20.966400
 30
0.0
 10
214.315887
 20
22.561432
 30
0.0
 10
215.311905
 20
24.643585
 30
0.0
 10
215.563675
 20
26.863327
 30
0.0
  0
SPLINE
  5
12a
100
AcDbEntity
  8
0
 62
7
100
AcDbSpline
 70
8
 71
3
 72
8
 73
4
 74
0
 40
0
 40
0
 40
0
 40
0
 40
1
 40
1
 40
1
 40
1
 10
272.256470
 20
26.863312
 30
0.0
 10
272.968765
 20
26.745819
 30
0.0
 10
273.693863
 20
26.685715
 30
0.0
 10
274.425156
 20
26.685715
 30
0.0
  0
SPLINE
  5
12b
100
AcDbEntity
  8
0
 62
7
100
AcDbSpline
 70
8
 71
3
 72
8
 73
4
 74
0
 40
0
 40
0
 40
0
 40
0
 40
1
 40
1
 40
1
 40
1
 10
274.425156
 20
26.685715
 30
0.0
 10
277.958481
 20
26.685715
 30
0.0
 10
281.347183
 20
28.088974
 30
0.0
 10
283.845810
 20
30.587601
 30
0.0
  0
SPLINE
  5
12c
100
AcDbEntity
  8
0
 62
7
100
AcDbSpline
 70
8
 71
3
 72
8
 73
4
 74
0
 40
0
 40
0
 40
0
 40
0
 40
1
 40
1
 40
1
 40
1
 10
283.845810
 20
30.587601
 30
0.0
 10
286.344437
 20
33.086228
 30
0.0
 10
287.747696
 20
36.474930
 30
0.0
 10
287.747696
 20
40.008255
 30
0.0
  0
SPLINE
  5
12d
100
AcDbEntity
  8
0
 62
7
100
AcDbSpline
 70
8
 71
3
 72
8
 73
4
 74
0
 40
0
 40
0
 40
0
 40
0
 40
1
 40
1
 40
1
 40
1
 10
287.747696
 20
40.008255
 30
0.0
 10
287.747696
 20
43.541580
 30
0.0
 10
286.344437
 20
46.930283
 30
0.0
 10
283.845810
 20
49.428910
 30
0.0
  0
SPLINE
  5
12e
100
AcDbEntity
  8
0
 62
7
100
AcDbSpline
 70
8
 71
3
 72
8
 73
4
 74
0
 40
0
 40
0
 40
0
 40
0
 40
1
 40
1
 40
1
 40
1
 10
283.845810
 20
49.428910
 30
0.0
 10
281.347183
 20
51.927536
 30
0.0
 10
277.958481
 20
53.330796
 30
0.0
 10
274.425156
 20
53.330796
 30
0.0
  0
SPLINE
  5
12f
100
AcDbEntity
  8
0
 62
7
100
AcDbSpline
 70
8
 71
3
 72
8
 73
4
 74
0
 40
0
 40
0
 40
0
 40
0
 40
1
 40
1
 40
1
 40
1
 10
274.425156
 20
53.330796
 30
0.0
 10
270.891830
 20
53.330796
 30
0.0
 10
267.503128
 20
51.927536
 30
0.0
 10
265.004501
 20
49.428910
 30
0.0
  0
SPLINE
  5
130
100
AcDbEntity
  8
0
 62
7
100
AcDbSpline
 70
8
 71
3
 72
8
 73
4
 74
0
 40
0
 40
0
 40
0
 40
0
 40
1
 40
1
 40
1
 40
1
 10
265.004501
 20
49.428910
 30
0.0
 10
262.505875
 20
46.930283
 30
0.0
 10
261.102615
 20
43.541580
 30
0.0
 10
261.102615
 20
40.008255
 30
0.0
  0
SPLINE
  5
131
100
AcDbEntity
  8
0
 62
7
100
AcDbSpline
 70
8
 71
3
 72
8
 73
4
 74
0
 40
0
 40
0
 40
0
 40
0
 40
1
 40
1
 40
1
 40
1
 10
261.102615
 20
40.008255
 30
0.0
 10
261.102615
 20
39.277024
 30
0.0
 10
261.162720
 20
38.551972
 30
0.0
 10
261.280197
 20
37.839722
 30
0.0
  0
SPLINE
  5
132
100
AcDbEntity
  8
0
 62
7
100
AcDbSpline
 70
8
 71
3
 72
8
 73
4
 74
0
 40
0
 40
0
 40
0
 40
0
 40
1
 40
1
 40
1
 40
1
 10
261.280228
 20
37.839676
 30
0.0
 10
259.060486
 20
37.587906
 30
0.0
 10
256.978333
 20
36.591889
 30
0.0
 10
255.383301
 20
34.996857
 30
0.0
  0
SPLINE
  5
133
100
AcDbEntity
  8
0
 62
7
100
AcDbSpline
 70
8
 71
3
 72
8
 73
4
 74
0
 40
0
 40
0
 40
0
 40
0
 40
1
 40
1
 40
1
 40
1
 10
255.383301
 20
34.996857
 30
0.0
 10
253.522766
 20
33.136322
 30
0.0
 10
252.477280
 20
30.613022
 30
0.0
 10
252.477280
 20
27.981629
 30
0.0
  0
SPLINE
  5
134
100
AcDbEntity
  8
0
 62
7
100
AcDbSpline
 70
8
 71
3
 72
8
 73
4
 74
0
 40
0
 40
0
 40
0
 40
0
 40
1
 40
1
 40
1
 40
1
 10
252.477280
 20
27.981629
 30
0.0
 10
252.477280
 20
25.350235
 30
0.0
 10
253.522766
 20
22.826935
 30
0.0
 10
255.383301
 20
20.966400
 30
0.0
  0
SPLINE
  5
135
100
AcDbEntity
  8
0
 62
7
100
AcDbSpline
 70
8
 71
3
 72
8
 73
4
 74
0
 40
0
 40
0
 40
0
 40
0
 40
1
 40
1
 40
1
 40
1
 10
255.383301
 20
20.966400
 30
0.0
 10
257.243835
 20
19.105866
 30
0.0
 10
259.767136
 20
18.060379
 30
0.0
 10
262.398529
 20
18.060379
 30
0.0
  0
SPLINE
  5
136
100
AcDbEntity
  8
0
 62
7
100
AcDbSpline
 70
8
 71
3
 72
8
 73
4
 74
0
 40
0
 40
0
 40
0
 40
0
 40
1
 40
1
 40
1
 40
1
 10
262.398529
 20
18.060379
 30
0.0
 10
265.029922
 20
18.060379
 30
0.0
 10
267.553223
 20
19.105866
 30
0.0
 10
269.413757
 20
20.966400
 30
0.0
  0
SPLINE
  5
137
100
AcDbEntity
  8
0
 62
7
100
AcDbSpline
 70
8
 71
3
 72
8
 73
4
 74
0
 40
0
 40
0
 40
0
 40
0
 40
1
 40
1
 40
1
 40
1
 10
269.413757
 20
20.966400
 30
0.0
 10
271.008789
 20
22.561432
 30
0.0
 10
272.004807
 20
24.643585
 30
0.0
 10
272.256577
 20
26.863327
 30
0.0
  0
SPLINE
  5
138
100
AcDbEntity
  8
0
 62
7
100
AcDbSpline
 70
8
 71
3
 72
8
 73
4
 74
0
 40
0
 40
0
 40
0
 40
0
 40
1
 40
1
 40
1
 40
1
 10
328.949371
 20
26.863312
 30
0.0
 10
329.661667
 20
26.745819
 30
0.0
 10
330.386765
 20
26.685715
 30
0.0
 10
331.118057
 20
26.685715
 30
0.0
  0
SPLINE
  5
139
100
AcDbEntity
  8
0
 62
7
100
AcDbSpline
 70
8
 71
3
 72
8
 73
4
 74
0
 40
0
 40
0
 40
0
 40
0
 40
1
 40
1
 40
1
 40
1
 10
331.118057
 20
26.685715
 30
0.0
 10
334.651382
 20
26.685715
 30
0.0
 10
338.040085
 20
28.088974
 30
0.0
 10
340.538712
 20
30.587601
 30
0.0
  0
SPLINE
  5
13a
100
AcDbEntity
  8
0
 62
7
100
AcDbSpline
 70
8
 71
3
 72
8
 73
4
 74
0
 40
0
 40
0
 40
0
 40
0
 40
1
 40
1
 40
1
 40
1
 10
340.538712
 20
30.587601
 30
0.0
 10
343.037338
 20
33.086228
 30
0.0
 10
344.440598
 20
36.474930
 30
0.0
 10
344.440598
 20
40.008255
 30
0.0
  0
SPLINE
  5
13b
100
AcDbEntity
  8
0
 62
7
100
AcDbSpline
 70
8
 71
3
 72
8
 73
4
 74
0
 40
0
 40
0
 40
0
 40
0
 40
1
 40
1
 40
1
 40
1
 10
344.440598
 20
40.008255
 30
0.0
 10
344.440598
 20
43.541580
 30
0.0
 10
343.037338
 20
46.930283
 30
0.0
 10
340.538712
 20
49.428910
 30
0.0
  0
SPLINE
  5
13c
100
AcDbEntity
  8
0
 62
7
100
AcDbSpline
 70
8
 71
3
 72
8
 73
4
 74
0
 40
0
 40
0
 40
0
 40
0
 40
1
 40
1
 40
1
 40
1
 10
340.538712
 20
49.428910
 30
0.0
 10
338.040085
 20
51.927536
 30
0.0
 10
334.651382
 20
53.330796
 30
0.0
 10
331.118057
 20
53.330796
 30
0.0
  0
SPLINE
  5
13d
100
AcDbEntity
  8
0
 62
7
100
AcDbSpline
 70
8
 71
3
 72
8
 73
4
 74
0
 40
0
 40
0
 40
0
 40
0
 40
1
 40
1
 40
1
 40
1
 10
331.118057
 20
53.330796
 30
0.0
 10
327.584732
 20
53.330796
 30
0.0
 10
324.196030
 20
51.927536
 30
0.0
 10
321.697403
 20
49.428910
 30
0.0
  0
SPLINE
  5
13e
100
AcDbEntity
  8
0
 62
7
100
AcDbSpline
 70
8
 71
3
 72
8
 73
4
 74
0
 40
0
 40
0
 40
0
 40
0
 40
1
 40
1
 40
1
 40
1
 10
321.697403
 20
49.428910
 30
0.0
 10
319.198776
 20
46.930283
 30
0.0
 10
317.795517
 20
43.541580
 30
0.0
 10
317.795517
 20
40.008255
 30
0.0
  0
SPLINE
  5
13f
100
AcDbEntity
  8
0
 62
7
100
AcDbSpline
 70
8
 71
3
 72
8
 73
4
 74
0
 40
0
 40
0
 40
0
 40
0
 40
1
 40
1
 40
1
 40
1
 10
317.795517
 20
40.008255
 30
0.0
 10
317.795517
 20
39.277024
 30
0.0
 10
317.855621
 20
38.551972
 30
0.0
 10
317.973099
 20
37.839722
 30
0.0
  0
SPLINE
  5
140
100
AcDbEntity
  8
0
 62
7
100
AcDbSpline
 70
8
 71
3
 72
8
 73
4
 74
0
 40
0
 40
0
 40
0
 40
0
 40
1
 40
1
 40
1
 40
1
 10
317.973129
 20
37.839676
 30
0.0
 10
315.753387
 20
37.587906
 30
0.0
 10
313.671234
 20
36.591889
 30
0.0
 10
312.076202
 20
34.996857
 30
0.0
  0
SPLINE
  5
141
100
AcDbEntity
  8
0
 62
7
100
AcDbSpline
 70
8
 71
3
 72
8
 73
4
 74
0
 40
0
 40
0
 40
0
 40
0
 40
1
 40
1
 40
1
 40
1
 10
312.076202
 20
34.996857
 30
0.0
 10
310.215668
 20
33.136322
 30
0.0
 10
309.170181
 20
30.613022
 30
0.0
 10
309.170181
 20
27.981629
 30
0.0
  0
SPLINE
  5
142
100
AcDbEntity
  8
0
 62
7
100
AcDbSpline
 70
8
 71
3
 72
8
 73
4
 74
0
 40
0
 40
0
 40
0
 40
0
 40
1
 40
1
 40
1
 40
1
 10
309.170181
 20
27.981629
 30
0.0
 10
309.170181
 20
25.350235
 30
0.0
 10
310.215668
 20
22.826935
 30
0.0
 10
312.076202
 20
20.966400
 30
0.0
  0
SPLINE
  5
143
100
AcDbEntity
  8
0
 62
7
100
AcDbSpline
 70
8
 71
3
 72
8
 73
4
 74
0
 40
0
 40
0
 40
0
 40
0
 40
1
 40
1
 40
1
 40
1
 10
312.076202
 20
20.966400
 30
0.0
 10
313.936737
 20
19.105866
 30
0.0
 10
316.460037
 20
18.060379
 30
0.0
 10
319.091431
 20
18.060379
 30
0.0
  0
SPLINE
  5
144
100
AcDbEntity
  8
0
 62
7
100
AcDbSpline
 70
8
 71
3
 72
8
 73
4
 74
0
 40
0
 40
0
 40
0
 40
0
 40
1
 40
1
 40
1
 40
1
 10
319.091431
 20
18.060379
 30
0.0
 10
321.722824
 20
18.060379
 30
0.0
 10
324.246124
 20
19.105866
 30
0.0
 10
326.106659
 20
20.966400
 30
0.0
  0
SPLINE
  5
145
100
AcDbEntity
  8
0
 62
7
100
AcDbSpline
 70
8
 71
3
 72
8
 73
4
 74
0
 40
0
 40
0
 40
0
 40
0
 40
1
 40
1
 40
1
 40
1
 10
326.106659
 20
20.966400
 30
0.0
 10
327.701691
 20
22.561432
 30
0.0
 10
328.697708
 20
24.643585
 30
0.0
 10
328.949478
 20
26.863327
 30
0.0
  0
SPLINE
  5
146
100
AcDbEntity
  8
0
 62
7
100
AcDbSpline
 70
8
 71
3
 72
8
 73
4
 74
0
 40
0
 40
0
 40
0
 40
0
 40
1
 40
1
 40
1
 40
1
 10
385.642273
 20
26.863312
 30
0.0
 10
386.354568
 20
26.745819
 30
0.0
 10
387.079666
 20
26.685715
 30
0.0
 10
387.810959
 20
26.685715
 30
0.0
  0
SPLINE
  5
147
100
AcDbEntity
  8
0
 62
7
100
AcDbSpline
 70
8
 71
3
 72
8
 73
4
 74
0
 40
0
 40
0
 40
0
 40
0
 40
1
 40
1
 40
1
 40
1
 10
387.810959
 20
26.685715
 30
0.0
 10
391.344284
 20
26.685715
 30
0.0
 10
394.732986
 20
28.088974
 30
0.0
 10
397.231613
 20
30.587601
 30
0.0
  0
SPLINE
  5
148
100
AcDbEntity
  8
0
 62
7
100
AcDbSpline
 70
8
 71
3
 72
8
 73
4
 74
0
 40
0
 40
0
 40
0
 40
0
 40
1
 40
1
 40
1
 40
1
 10
397.231613
 20
30.587601
 30
0.0
 10
399.730240
 20
33.086228
 30
0.0
 10
401.133499
 20
36.474930
 30
0.0
 10
401.133499
 20
40.008255
 30
0.0
  0
SPLINE
  5
149
100
AcDbEntity
  8
0
 62
7
100
AcDbSpline
 70
8
 71
3
 72
8
 73
4
 74
0
 40
0
 40
0
 40
0
 40
0
 40
1
 40
1
 40
1
 40
1
 10
401.133499
 20
40.008255
 30
0.0
 10
401.133499
 20
43.541580
 30
0.0
 10
399.730240
 20
46.930283
 30
0.0
 10
397.231613
 20
49.428910
 30
0.0
  0
SPLINE
  5
14a
100
AcDbEntity
  8
0
 62
7
100
AcDbSpline
 70
8
 71
3
 72
8
 73
4
 74
0
 40
0
 40
0
 40
0
 40
0
 40
1
 40
1
 40
1
 40
1
 10
397.231613
 20
49.428910
 30
0.0
 10
394.732986
 20
51.927536
 30
0.0
 10
391.344284
 20
53.330796
 30
0.0
 10
387.810959
 20
53.330796
 30
0.0
  0
SPLINE
  5
14b
100
AcDbEntity
  8
0
 62
7
100
AcDbSpline
 70
8
 71
3
 72
8
 73
4
 74
0
 40
0
 40
0
 40
0
 40
0
 40
1
 40
1
 40
1
 40
1
 10
387.810959
 20
53.330796
 30
0.0
 10
384.277634
 20
53.330796
 30
0.0
 10
380.888931
 20
51.927536
 30
0.0
 10
378.390305
 20
49.428910
 30
0.0
  0
SPLINE
  5
14c
100
AcDbEntity
  8
0
 62
7
100
AcDbSpline
 70
8
 71
3
 72
8
 73
4
 74
0
 40
0
 40
0
 40
0
 40
0
 40
1
 40
1
 40
1
 40
1
 10
378.390305
 20
49.428910
 30
0.0
 10
375.891678
 20
46.930283
 30
0.0
 10
374.488419
 20
43.541580
 30
0.0
 10
374.488419
 20
40.008255
 30
0.0
  0
SPLINE
  5
14d
100
AcDbEntity
  8
0
 62
7
100
AcDbSpline
 70
8
 71
3
 72
8
 73
4
 74
0
 40
0
 40
0
 40
0
 40
0
 40
1
 40
1
 40
1
 40
1
 10
374.488419
 20
40.008255
 30
0.0
 10
374.488419
 20
39.277024
 30
0.0
 10
374.548523
 20
38.551972
 30
0.0
 10
374.666000
 20
37.839722
 30
0.0
  0
SPLINE
  5
14e
100
AcDbEntity
  8
0
 62
7
100
AcDbSpline
 70
8
 71
3
 72
8
 73
4
 74
0
 40
0
 40
0
 40
0
 40
0
 40
1
 40
1
 40
1
 40
1
 10
374.666031
 20
37.839676
 30
0.0
 10
372.446289
 20
37.587906
 30
0.0
 10
370.364136
 20
36.591889
 30
0.0
 10
368.769104
 20
34.996857
 30
0.0
  0
SPLINE
  5
14f
100
AcDbEntity
  8
0
 62
7
100
AcDbSpline
 70
8
 71
3
 72
8
 73
4
 74
0
 40
0
 40
0
 40
0
 40
0
 40
1
 40
1
 40
1
 40
1
 10
368.769104
 20
34.996857
 30
0.0
 10
366.908569
 20
33.136322
 30
0.0
 10
365.863083
 20
30.613022
 30
0.0
 10
365.863083
 20
27.981629
 30
0.0
  0
SPLINE
  5
150
100
AcDbEntity
  8
0
 62
7
100
AcDbSpline
 70
8
 71
3
 72
8
 73
4
 74
0
 40
0
 40
0
 40
0
 40
0
 40
1
 40
1
 40
1
 40
1
 10
365.863083
 20
27.981629
 30
0.0
 10
365.863083
 20
25.350235
 30
0.0
 10
366.908569
 20
22.826935
 30
0.0
 10
368.769104
 20
20.966400
 30
0.0
  0
SPLINE
  5
151
100
AcDbEntity
  8
0
 62
7
100
AcDbSpline
 70
8
 71
3
 72
8
 73
4
 74
0
 40
0
 40
0
 40
0
 40
0
 40
1
 40
1
 40
1
 40
1
 10
368.769104
 20
20.966400
 30
0.0
 10
370.629639
 20
19.105866
 30
0.0
 10
373.152939
 20
18.060379
 30
0.0
 10
375.784332
 20
18.060379
 30
0.0
  0
SPLINE
  5
152
100
AcDbEntity
  8
0
 62
7
100
AcDbSpline
 70
8
 71
3
 72
8
 73
4
 74
0
 40
0
 40
0
 40
0
 40
0
 40
1
 40
1
 40
1
 40
1
 10
375.784332
 20
18.060379
 30
0.0
 10
378.415726
 20
18.060379
 30
0.0
 10
380.939026
 20
19.105866
 30
0.0
 10
382.799561
 20
20.966400
 30
0.0
  0
SPLINE
  5
153
100
AcDbEntity
  8
0
 62
7
100
AcDbSpline
 70
8
 71
3
 72
8
 73
4
 74
0
 40
0
 40
0
 40
0
 40
0
 40
1
 40
1
 40
1
 40
1
 10
382.799561
 20
20.966400
 30
0.0
 10
384.394592
 20
22.561432
 30
0.0
 10
385.390610
 20
24.643585
 30
0.0
 10
385.642380
 20
26.863327
 30
0.0
  0
SPLINE
  5
154
100
AcDbEntity
  8
0
 62
7
100
AcDbSpline
 70
8
 71
3
 72
8
 73
4
 74
0
 40
0
 40
0
 40
0
 40
0
 40
1
 40
1
 40
1
 40
1
 10
442.335175
 20
26.863312
 30
0.0
 10
443.047470
 20
26.745819
 30
0.0
 10
443.772568
 20
26.685715
 30
0.0
 10
444.503860
 20
26.685715
 30
0.0
  0
SPLINE
  5
155
100
AcDbEntity
  8
0
 62
7
100
AcDbSpline
 70
8
 71
3
 72
8
 73
4
 74
0
 40
0
 40
0
 40
0
 40
0
 40
1
 40
1
 40
1
 40
1
 10
444.503860
 20
26.685715
 30
0.0
 10
448.037186
 20
26.685715
 30
0.0
 10
451.425888
 20
28.088974
 30
0.0
 10
453.924515
 20
30.587601
 30
0.0
  0
SPLINE
  5
156
100
AcDbEntity
  8
0
 62
7
100
AcDbSpline
 70
8
 71
3
 72
8
 73
4
 74
0
 40
0
 40
0
 40
0
 40
0
 40
1
 40
1
 40
1
 40
1
 10
453.924515
 20
30.587601
 30
0.0
 10
456.423141
 20
33.086228
 30
0.0
 10
457.826401
 20
36.474930
 30
0.0
 10
457.826401
 20
40.008255
 30
0.0
  0
SPLINE
  5
157
100
AcDbEntity
  8
0
 62
7
100
AcDbSpline
 70
8
 71
3
 72
8
 73
4
 74
0
 40
0
 40
0
 40
0
 40
0
 40
1
 40
1
 40
1
 40
1
 10
457.826401
 20
40.008255
 30
0.0
 10
457.826401
 20
43.541580
 30
0.0
 10
456.423141
 20
46.930283
 30
0.0
 10
453.924515
 20
49.428910
 30
0.0
  0
SPLINE
  5
158
100
AcDbEntity
  8
0
 62
7
100
AcDbSpline
 70
8
 71
3
 72
8
 73
4
 74
0
 40
0
 40
0
 40
0
 40
0
 40
1
 40
1
 40
1
 40
1
 10
453.924515
 20
49.428910
 30
0.0
 10
451.425888
 20
51.927536
 30
0.0
 10
448.037186
 20
53.330796
 30
0.0
 10
444.503860
 20
53.330796
 30
0.0
  0
SPLINE
  5
159
100
AcDbEntity
  8
0
 62
7
100
AcDbSpline
 70
8
 71
3
 72
8
 73
4
 74
0
 40
0
 40
0
 40
0
 40
0
 40
1
 40
1
 40
1
 40
1
 10
444.503860
 20
53.330796
 30
0.0
 10
440.970535
 20
53.330796
 30
0.0
 10
437.581833
 20
51.927536
 30
0.0
 10
435.083206
 20
49.428910
 30
0.0
  0
SPLINE
  5
15a
100
AcDbEntity
  8
0
 62
7
100
AcDbSpline
 70
8
 71
3
 72
8
 73
4
 74
0
 40
0
 40
0
 40
0
 40
0
 40
1
 40
1
 40
1
 40
1
 10
435.083206
 20
49.428910
 30
0.0
 10
432.584579
 20
46.930283
 30
0.0
 10
431.181320
 20
43.541580
 30
0.0
 10
431.181320
 20
40.008255
 30
0.0
  0
SPLINE
  5
15b
100
AcDbEntity
  8
0
 62
7
100
AcDbSpline
 70
8
 71
3
 72
8
 73
4
 74
0
 40
0
 40
0
 40
0
 40
0
 40
1
 40
1
 40
1
 40
1
 10
431.181320
 20
40.008255
 30
0.0
 10
431.181320
 20
39.277024
 30
0.0
 10
431.241425
 20
38.551972
 30
0.0
 10
431.358902
 20
37.839722
 30
0.0
  0
SPLINE
  5
15c
100
AcDbEntity
  8
0
 62
7
100
AcDbSpline
 70
8
 71
3
 72
8
 73
4
 74
0
 40
0
 40
0
 40
0
 40
0
 40
1
 40
1
 40
1
 40
1
 10
431.358932
 20
37.839676
 30
0.0
 10
429.139191
 20
37.587906
 30
0.0
 10
427.057037
 20
36.591889
 30
0.0
 10
425.462006
 20
34.996857
 30
0.0
  0
SPLINE
  5
15d
100
AcDbEntity
  8
0
 62
7
100
AcDbSpline
 70
8
 71
3
 72
8
 73
4
 74
0
 40
0
 40
0
 40
0
 40
0
 40
1
 40
1
 40
1
 40
1
 10
425.462006
 20
34.996857
 30
0.0
 10
423.601471
 20
33.136322
 30
0.0
 10
422.555984
 20
30.613022
 30
0.0
 10
422.555984
 20
27.981629
 30
0.0
  0
SPLINE
  5
15e
100
AcDbEntity
  8
0
 62
7
100
AcDbSpline
 70
8
 71
3
 72
8
 73
4
 74
0
 40
0
 40
0
 40
0
 40
0
 40
1
 40
1
 40
1
 40
1
 10
422.555984
 20
27.981629
 30
0.0
 10
422.555984
 20
25.350235
 30
0.0
 10
423.601471
 20
22.826935
 30
0.0
 10
425.462006
 20
20.966400
 30
0.0
  0
SPLINE
  5
15f
100
AcDbEntity
  8
0
 62
7
100
AcDbSpline
 70
8
 71
3
 72
8
 73
4
 74
0
 40
0
 40
0
 40
0
 40
0
 40
1
 40
1
 40
1
 40
1
 10
425.462006
 20
20.966400
 30
0.0
 10
427.322540
 20
19.105866
 30
0.0
 10
429.845840
 20
18.060379
 30
0.0
 10
432.477234
 20
18.060379
 30
0.0
  0
SPLINE
  5
160
100
AcDbEntity
  8
0
 62
7
100
AcDbSpline
 70
8
 71
3
 72
8
 73
4
 74
0
 40
0
 40
0
 40
0
 40
0
 40
1
 40
1
 40
1
 40
1
 10
432.477234
 20
18.060379
 30
0.0
 10
435.108627
 20
18.060379
 30
0.0
 10
437.631927
 20
19.105866
 30
0.0
 10
439.492462
 20
20.966400
 30
0.0
  0
SPLINE
  5
161
100
AcDbEntity
  8
0
 62
7
100
AcDbSpline
 70
8
 71
3
 72
8
 73
4
 74
0
 40
0
 40
0
 40
0
 40
0
 40
1
 40
1
 40
1
 40
1
 10
439.492462
 20
20.966400
 30
0.0
 10
441.087494
 20
22.561432
 30
0.0
 10
442.083511
 20
24.643585
 30
0.0
 10
442.335281
 20
26.863327
 30
0.0
  0
SPLINE
  5
162
100
AcDbEntity
  8
0
 62
7
100
AcDbSpline
 70
8
 71
3
 72
8
 73
4
 74
0
 40
0
 40
0
 40
0
 40
0
 40
1
 40
1
 40
1
 40
1
 10
499.028076
 20
26.863312
 30
0.0
 10
499.740372
 20
26.745819
 30
0.0
 10
500.465469
 20
26.685715
 30
0.0
 10
501.196762
 20
26.685715
 30
0.0
  0
SPLINE
  5
163
100
AcDbEntity
  8
0
 62
7
100
AcDbSpline
 70
8
 71
3
 72
8
 73
4
 74
0
 40
0
 40
0
 40
0
 40
0
 40
1
 40
1
 40
1
 40
1
 10
501.196762
 20
26.685715
 30
0.0
 10
504.730087
 20
26.685715
 30
0.0
 10
508.118790
 20
28.088974
 30
0.0
 10
510.617416
 20
30.587601
 30
0.0
  0
SPLINE
  5
164
100
AcDbEntity
  8
0
 62
7
100
AcDbSpline
 70
8
 71
3
 72
8
 73
4
 74
0
 40
0
 40
0
 40
0
 40
0
 40
1
 40
1
 40
1
 40
1
 10
510.617416
 20
30.587601
 30
0.0
 10
513.116043
 20
33.086228
 30
0.0
 10
514.519302
 20
36.474930
 30
0.0
 10
514.519302
 20
40.008255
 30
0.0
  0
SPLINE
  5
165
100
AcDbEntity
  8
0
 62
7
100
AcDbSpline
 70
8
 71
3
 72
8
 73
4
 74
0
 40
0
 40
0
 40
0
 40
0
 40
1
 40
1
 40
1
 40
1
 10
514.519302
 20
40.008255
 30
0.0
 10
514.519302
 20
43.541580
 30
0.0
 10
513.116043
 20
46.930283
 30
0.0
 10
510.617416
 20
49.428910
 30
0.0
  0
SPLINE
  5
166
100
AcDbEntity
  8
0
 62
7
100
AcDbSpline
 70
8
 71
3
 72
8
 73
4
 74
0
 40
0
 40
0
 40
0
 40
0
 40
1
 40
1
 40
1
 40
1
 10
510.617416
 20
49.428910
 30
0.0
 10
508.118790
 20
51.927536
 30
0.0
 10
504.730087
 20
53.330796
 30
0.0
 10
501.196762
 20
53.330796
 30
0.0
  0
SPLINE
  5
167
100
AcDbEntity
  8
0
 62
7
100
AcDbSpline
 70
8
 71
3
 72
8
 73
4
 74
0
 40
0
 40
0
 40
0
 40
0
 40
1
 40
1
 40
1
 40
1
 10
501.196762
 20
53.330796
 30
0.0
 10
497.663437
 20
53.330796
 30
0.0
 10
494.274734
 20
51.927536
 30
0.0
 10
491.776108
 20
49.428910
 30
0.0
  0
SPLINE
  5
168
100
AcDbEntity
  8
0
 62
7
100
AcDbSpline
 70
8
 71
3
 72
8
 73
4
 74
0
 40
0
 40
0
 40
0
 40
0
 40
1
 40
1
 40
1
 40
1
 10
491.776108
 20
49.428910
 30
0.0
 10
489.277481
 20
46.930283
 30
0.0
 10
487.874222
 20
43.541580
 30
0.0
 10
487.874222
 20
40.008255
 30
0.0
  0
SPLINE
  5
169
100
AcDbEntity
  8
0
 62
7
100
AcDbSpline
 70
8
 71
3
 72
8
 73
4
 74
0
 40
0
 40
0
 40
0
 40
0
 40
1
 40
1
 40
1
 40
1
 10
487.874222
 20
40.008255
 30
0.0
 10
487.874222
 20
39.277024
 30
0.0
 10
487.934326
 20
38.551972
 30
0.0
 10
488.051804
 20
37.839722
 30
0.0
  0
SPLINE
  5
16a
100
AcDbEntity
  8
0
 62
7
100
AcDbSpline
 70
8
 71
3
 72
8
 73
4
 74
0
 40
0
 40
0
 40
0
 40
0
 40
1
 40
1
 40
1
 40
1
 10
488.051834
 20
37.839676
 30
0.0
 10
485.832092
 20
37.587906
 30
0.0
 10
483.749939
 20
36.591889
 30
0.0
 10
482.154907
 20
34.996857
 30
0.0
  0
SPLINE
  5
16b
100
AcDbEntity
  8
0
 62
7
100
AcDbSpline
 70
8
 71
3
 72
8
 73
4
 74
0
 40
0
 40
0
 40
0
 40
0
 40
1
 40
1
 40
1
 40
1
 10
482.154907
 20
34.996857
 30
0.0
 10
480.294373
 20
33.136322
 30
0.0
 10
479.248886
 20
30.613022
 30
0.0
 10
479.248886
 20
27.981629
 30
0.0
  0
SPLINE
  5
16c
100
AcDbEntity
  8
0
 62
7
100
AcDbSpline
 70
8
 71
3
 72
8
 73
4
 74
0
 40
0
 40
0
 40
0
 40
0
 40
1
 40
1
 40
1
 40
1
 10
479.248886
 20
27.981629
 30
0.0
 10
479.248886
 20
25.350235
 30
0.0
 10
480.294373
 20
22.826935
 30
0.0
 10
482.154907
 20
20.966400
 30
0.0
  0
SPLINE
  5
16d
100
AcDbEntity
  8
0
 62
7
100
AcDbSpline
 70
8
 71
3
 72
8
 73
4
 74
0
 40
0
 40
0
 40
0
 40
0
 40
1
 40
1
 40
1
 40
1
 10
482.154907
 20
20.966400
 30
0.0
 10
484.015442
 20
19.105866
 30
0.0
 10
486.538742
 20
18.060379
 30
0.0
 10
489.170135
 20
18.060379
 30
0.0
  0
SPLINE
  5
16e
100
AcDbEntity
  8
0
 62
7
100
AcDbSpline
 70
8
 71
3
 72
8
 73
4
 74
0
 40
0
 40
0
 40
0
 40
0
 40
1
 40
1
 40
1
 40
1
 10
489.170135
 20
18.060379
 30
0.0
 10
491.801529
 20
18.060379
 30
0.0
 10
494.324829
 20
19.105866
 30
0.0
 10
496.185364
 20
20.966400
 30
0.0
  0
SPLINE
  5
16f
100
AcDbEntity
  8
0
 62
7
100
AcDbSpline
 70
8
 71
3
 72
8
 73
4
 74
0
 40
0
 40
0
 40
0
 40
0
 40
1
 40
1
 40
1
 40
1
 10
496.185364
 20
20.966400
 30
0.0
 10
497.780396
 20
22.561432
 30
0.0
 10
498.776413
 20
24.643585
 30
0.0
 10
499.028183
 20
26.863327
 30
0.0
  0
SPLINE
  5
170
100
AcDbEntity
  8
0
 62
7
100
AcDbSpline
 70
8
 71
3
 72
8
 73
4
 74
0
 40
0
 40
0
 40
0
 40
0
 40
1
 40
1
 40
1
 40
1
 10
555.720978
 20
26.863312
 30
0.0
 10
556.433273
 20
26.745819
 30
0.0
 10
557.158371
 20
26.685715
 30
0.0
 10
557.889664
 20
26.685715
 30
0.0
  0
SPLINE
  5
171
100
AcDbEntity
  8
0
 62
7
100
AcDbSpline
 70
8
 71
3
 72
8
 73
4
 74
0
 40
0
 40
0
 40
0
 40
0
 40
1
 40
1
 40
1
 40
1
 10
557.889664
 20
26.685715
 30
0.0
 10
561.422989
 20
26.685715
 30
0.0
 10
564.811691
 20
28.088974
 30
0.0
 10
567.310318
 20
30.587601
 30
0.0
  0
SPLINE
  5
172
100
AcDbEntity
  8
0
 62
7
100
AcDbSpline
 70
8
 71
3
 72
8
 73
4
 74
0
 40
0
 40
0
 40
0
 40
0
 40
1
 40
1
 40
1
 40
1
 10
567.310318
 20
30.587601
 30
0.0
 10
569.808945
 20
33.086228
 30
0.0
 10
571.212204
 20
36.474930
 30
0.0
 10
571.212204
 20
40.008255
 30
0.0
  0
SPLINE
  5
173
100
AcDbEntity
  8
0
 62
7
100
AcDbSpline
 70
8
 71
3
 72
8
 73
4
 74
0
 40
0
 40
0
 40
0
 40
0
 40
1
 40
1
 40
1
 40
1
 10
571.212204
 20
40.008255
 30
0.0
 10
571.212204
 20
43.541580
 30
0.0
 10
569.808945
 20
46.930283
 30
0.0
 10
567.310318
 20
49.428910
 30
0.0
  0
SPLINE
  5
174
100
AcDbEntity
  8
0
 62
7
100
AcDbSpline
 70
8
 71
3
 72
8
 73
4
 74
0
 40
0
 40
0
 40
0
 40
0
 40
1
 40
1
 40
1
 40
1
 10
567.310318
 20
49.428910
 30
0.0
 10
564.811691
 20
51.927536
 30
0.0
 10
561.422989
 20
53.330796
 30
0.0
 10
557.889664
 20
53.330796
 30
0.0
  0
SPLINE
  5
175
100
AcDbEntity
  8
0
 62
7
100
AcDbSpline
 70
8
 71
3
 72
8
 73
4
 74
0
 40
0
 40
0
 40
0
 40
0
 40
1
 40
1
 40
1
 40
1
 10
557.889664
 20
53.330796
 30
0.0
 10
554.356339
 20
53.330796
 30
0.0
 10
550.967636
 20
51.927536
 30
0.0
 10
548.469009
 20
49.428910
 30
0.0
  0
SPLINE
  5
176
100
AcDbEntity
  8
0
 62
7
100
AcDbSpline
 70
8
 71
3
 72
8
 73
4
 74
0
 40
0
 40
0
 40
0
 40
0
 40
1
 40
1
 40
1
 40
1
 10
548.469009
 20
49.428910
 30
0.0
 10
545.970383
 20
46.930283
 30
0.0
 10
544.567123
 20
43.541580
 30
0.0
 10
544.567123
 20
40.008255
 30
0.0
  0
SPLINE
  5
177
100
AcDbEntity
  8
0
 62
7
100
AcDbSpline
 70
8
 71
3
 72
8
 73
4
 74
0
 40
0
 40
0
 40
0
 40
0
 40
1
 40
1
 40
1
 40
1
 10
544.567123
 20
40.008255
 30
0.0
 10
544.567123
 20
39.277024
 30
0.0
 10
544.627228
 20
38.551972
 30
0.0
 10
544.744705
 20
37.839722
 30
0.0
  0
SPLINE
  5
178
100
AcDbEntity
  8
0
 62
7
100
AcDbSpline
 70
8
 71
3
 72
8
 73
4
 74
0
 40
0
 40
0
 40
0
 40
0
 40
1
 40
1
 40
1
 40
1
 10
544.744736
 20
37.839676
 30
0.0
 10
542.524994
 20
37.587906
 30
0.0
 10
540.442841
 20
36.591889
 30
0.0
 10
538.847809
 20
34.996857
 30
0.0
  0
SPLINE
  5
179
100
AcDbEntity
  8
0
 62
7
100
AcDbSpline
 70
8
 71
3
 72
8
 73
4
 74
0
 40
0
 40
0
 40
0
 40
0
 40
1
 40
1
 40
1
 40
1
 10
538.847809
 20
34.996857
 30
0.0
 10
536.987274
 20
33.136322
 30
0.0
 10
535.941788
 20
30.613022
 30
0.0
 10
535.941788
 20
27.981629
 30
0.0
  0
SPLINE
  5
17a
100
AcDbEntity
  8
0
 62
7
100
AcDbSpline
 70
8
 71
3
 72
8
 73
4
 74
0
 40
0
 40
0
 40
0
 40
0
 40
1
 40
1
 40
1
 40
1
 10
535.941788
 20
27.981629
 30
0.0
 10
535.941788
 20
25.350235
 30
0.0
 10
536.987274
 20
22.826935
 30
0.0
 10
538.847809
 20
20.966400
 30
0.0
  0
SPLINE
  5
17b
100
AcDbEntity
  8
0
 62
7
100
AcDbSpline
 70
8
 71
3
 72
8
 73
4
 74
0
 40
0
 40
0
 40
0
 40
0
 40
1
 40
1
 40
1
 40
1
 10
538.847809
 20
20.966400
 30
0.0
 10
540.708344
 20
19.105866
 30
0.0
 10
543.231644
 20
18.060379
 30
0.0
 10
545.863037
 20
18.060379
 30
0.0
  0
SPLINE
  5
17c
100
AcDbEntity
  8
0
 62
7
100
AcDbSpline
 70
8
 71
3
 72
8
 73
4
 74
0
 40
0
 40
0
 40
0
 40
0
 40
1
 40
1
 40
1
 40
1
 10
545.863037
 20
18.060379
 30
0.0
 10
548.494431
 20
18.060379
 30
0.0
 10
551.017731
 20
19.105866
 30
0.0
 10
552.878265
 20
20.966400
 30
0.0
  0
SPLINE
  5
17d
100
AcDbEntity
  8
0
 62
7
100
AcDbSpline
 70
8
 71
3
 72
8
 73
4
 74
0
 40
0
 40
0
 40
0
 40
0
 40
1
 40
1
 40
1
 40
1
 10
552.878265
 20
20.966400
 30
0.0
 10
554.473297
 20
22.561432
 30
0.0
 10
555.469315
 20
24.643585
 30
0.0
 10
555.721085
 20
26.863327
 30
0.0
  0
SPLINE
  5
17e
100
AcDbEntity
  8
0
 62
7
100
AcDbSpline
 70
8
 71
3
 72
8
 73
4
 74
0
 40
0
 40
0
 40
0
 40
0
 40
1
 40
1
 40
1
 40
1
 10
612.413879
 20
26.863312
 30
0.0
 10
613.126175
 20
26.745819
 30
0.0
 10
613.851273
 20
26.685715
 30
0.0
 10
614.582565
 20
26.685715
 30
0.0
  0
SPLINE
  5
17f
100
AcDbEntity
  8
0
 62
7
100
AcDbSpline
 70
8
 71
3
 72
8
 73
4
 74
0
 40
0
 40
0
 40
0
 40
0
 40
1
 40
1
 40
1
 40
1
 10
614.582565
 20
26.685715
 30
0.0
 10
618.115891
 20
26.685715
 30
0.0
 10
621.504593
 20
28.088974
 30
0.0
 10
624.003220
 20
30.587601
 30
0.0
  0
SPLINE
  5
180
100
AcDbEntity
  8
0
 62
7
100
AcDbSpline
 70
8
 71
3
 72
8
 73
4
 74
0
 40
0
 40
0
 40
0
 40
0
 40
1
 40
1
 40
1
 40
1
 10
624.003220
 20
30.587601
 30
0.0
 10
626.501846
 20
33.086228
 30
0.0
 10
627.905106
 20
36.474930
 30
0.0
 10
627.905106
 20
40.008255
 30
0.0
  0
SPLINE
  5
181
100
AcDbEntity
  8
0
 62
7
100
AcDbSpline
 70
8
 71
3
 72
8
 73
4
 74
0
 40
0
 40
0
 40
0
 40
0
 40
1
 40
1
 40
1
 40
1
 10
627.905106
 20
40.008255
 30
0.0
 10
627.905106
 20
43.541580
 30
0.0
 10
626.501846
 20
46.930283
 30
0.0
 10
624.003220
 20
49.428910
 30
0.0
  0
SPLINE
  5
182
100
AcDbEntity
  8
0
 62
7
100
AcDbSpline
 70
8
 71
3
 72
8
 73
4
 74
0
 40
0
 40
0
 40
0
 40
0
 40
1
 40
1
 40
1
 40
1
 10
624.003220
 20
49.428910
 30
0.0
 10
621.504593
 20
51.927536
 30
0.0
 10
618.115891
 20
53.330796
 30
0.0
 10
614.582565
 20
53.330796
 30
0.0
  0
SPLINE
  5
183
100
AcDbEntity
  8
0
 62
7
100
AcDbSpline
 70
8
 71
3
 72
8
 73
4
 74
0
 40
0
 40
0
 40
0
 40
0
 40
1
 40
1
 40
1
 40
1
 10
614.582565
 20
53.330796
 30
0.0
 10
611.049240
 20
53.330796
 30
0.0
 10
607.660538
 20
51.927536
 30
0.0
 10
605.161911
 20
49.428910
 30
0.0
  0
SPLINE
  5
184
100
AcDbEntity
  8
0
 62
7
100
AcDbSpline
 70
8
 71
3
 72
8
 73
4
 74
0
 40
0
 40
0
 40
0
 40
0
 40
1
 40
1
 40
1
 40
1
 10
605.161911
 20
49.428910
 30
0.0
 10
602.663284
 20
46.930283
 30
0.0
 10
601.260025
 20
43.541580
 30
0.0
 10
601.260025
 20
40.008255
 30
0.0
  0
SPLINE
  5
185
100
AcDbEntity
  8
0
 62
7
100
AcDbSpline
 70
8
 71
3
 72
8
 73
4
 74
0
 40
0
 40
0
 40
0
 40
0
 40
1
 40
1
 40
1
 40
1
 10
601.260025
 20
40.008255
 30
0.0
 10
601.260025
 20
39.277024
 30
0.0
 10
601.320129
 20
38.551972
 30
0.0
 10
601.437607
 20
37.839722
 30
0.0
  0
SPLINE
  5
186
100
AcDbEntity
  8
0
 62
7
100
AcDbSpline
 70
8
 71
3
 72
8
 73
4
 74
0
 40
0
 40
0
 40
0
 40
0
 40
1
 40
1
 40
1
 40
1
 10
601.437637
 20
37.839676
 30
0.0
 10
599.217896
 20
37.587906
 30
0.0
 10
597.135742
 20
36.591889
 30
0.0
 10
595.540710
 20
34.996857
 30
0.0
  0
SPLINE
  5
187
100
AcDbEntity
  8
0
 62
7
100
AcDbSpline
 70
8
 71
3
 72
8
 73
4
 74
0
 40
0
 40
0
 40
0
 40
0
 40
1
 40
1
 40
1
 40
1
 10
595.540710
 20
34.996857
 30
0.0
 10
593.680176
 20
33.136322
 30
0.0
 10
592.634689
 20
30.613022
 30
0.0
 10
592.634689
 20
27.981629
 30
0.0
  0
SPLINE
  5
188
100
AcDbEntity
  8
0
 62
7
100
AcDbSpline
 70
8
 71
3
 72
8
 73
4
 74
0
 40
0
 40
0
 40
0
 40
0
 40
1
 40
1
 40
1
 40
1
 10
592.634689
 20
27.981629
 30
0.0
 10
592.634689
 20
25.350235
 30
0.0
 10
593.680176
 20
22.826935
 30
0.0
 10
595.540710
 20
20.966400
 30
0.0
  0
SPLINE
  5
189
100
AcDbEntity
  8
0
 62
7
100
AcDbSpline
 70
8
 71
3
 72
8
 73
4
 74
0
 40
0
 40
0
 40
0
 40
0
 40
1
 40
1
 40
1
 40
1
 10
595.540710
 20
20.966400
 30
0.0
 10
597.401245
 20
19.105866
 30
0.0
 10
599.924545
 20
18.060379
 30
0.0
 10
602.555939
 20
18.060379
 30
0.0
  0
SPLINE
  5
18a
100
AcDbEntity
  8
0
 62
7
100
AcDbSpline
 70
8
 71
3
 72
8
 73
4
 74
0
 40
0
 40
0
 40
0
 40
0
 40
1
 40
1
 40
1
 40
1
 10
602.555939
 20
18.060379
 30
0.0
 10
605.187332
 20
18.060379
 30
0.0
 10
607.710632
 20
19.105866
 30
0.0
 10
609.571167
 20
20.966400
 30
0.0
  0
SPLINE
  5
18b
100
AcDbEntity
  8
0
 62
7
100
AcDbSpline
 70
8
 71
3
 72
8
 73
4
 74
0
 40
0
 40
0
 40
0
 40
0
 40
1
 40
1
 40
1
 40
1
 10
609.571167
 20
20.966400
 30
0.0
 10
611.166199
 20
22.561432
 30
0.0
 10
612.162216
 20
24.643585
 30
0.0
 10
612.413986
 20
26.863327
 30
0.0
  0
SPLINE
  5
18c
100
AcDbEntity
  8
0
 62
7
100
AcDbSpline
 70
8
 71
3
 72
8
 73
4
 74
0
 40
0
 40
0
 40
0
 40
0
 40
1
 40
1
 40
1
 40
1
 10
669.106781
 20
26.863312
 30
0.0
 10
669.819077
 20
26.745819
 30
0.0
 10
670.544174
 20
26.685715
 30
0.0
 10
671.275467
 20
26.685715
 30
0.0
  0
SPLINE
  5
18d
100
AcDbEntity
  8
0
 62
7
100
AcDbSpline
 70
8
 71
3
 72
8
 73
4
 74
0
 40
0
 40
0
 40
0
 40
0
 40
1
 40
1
 40
1
 40
1
 10
671.275467
 20
26.685715
 30
0.0
 10
674.808792
 20
26.685715
 30
0.0
 10
678.197495
 20
28.088974
 30
0.0
 10
680.696121
 20
30.587601
 30
0.0
  0
SPLINE
  5
18e
100
AcDbEntity
  8
0
 62
7
100
AcDbSpline
 70
8
 71
3
 72
8
 73
4
 74
0
 40
0
 40
0
 40
0
 40
0
 40
1
 40
1
 40
1
 40
1
 10
680.696121
 20
30.587601
 30
0.0
 10
683.194748
 20
33.086228
 30
0.0
 10
684.598007
 20
36.474930
 30
0.0
 10
684.598007
 20
40.008255
 30
0.0
  0
SPLINE
  5
18f
100
AcDbEntity
  8
0
 62
7
100
AcDbSpline
 70
8
 71
3
 72
8
 73
4
 74
0
 40
0
 40
0
 40
0
 40
0
 40
1
 40
1
 40
1
 40
1
 10
684.598007
 20
40.008255
 30
0.0
 10
684.598007
 20
43.541580
 30
0.0
 10
683.194748
 20
46.930283
 30
0.0
 10
680.696121
 20
49.428910
 30
0.0
  0
SPLINE
  5
190
100
AcDbEntity
  8
0
 62
7
100
AcDbSpline
 70
8
 71
3
 72
8
 73
4
 74
0
 40
0
 40
0
 40
0
 40
0
 40
1
 40
1
 40
1
 40
1
 10
680.696121
 20
49.428910
 30
0.0
 10
678.197495
 20
51.927536
 30
0.0
 10
674.808792
 20
53.330796
 30
0.0
 10
671.275467
 20
53.330796
 30
0.0
  0
SPLINE
  5
191
100
AcDbEntity
  8
0
 62
7
100
AcDbSpline
 70
8
 71
3
 72
8
 73
4
 74
0
 40
0
 40
0
 40
0
 40
0
 40
1
 40
1
 40
1
 40
1
 10
671.275467
 20
53.330796
 30
0.0
 10
667.742142
 20
53.330796
 30
0.0
 10
664.353439
 20
51.927536
 30
0.0
 10
661.854813
 20
49.428910
 30
0.0
  0
SPLINE
  5
192
100
AcDbEntity
  8
0
 62
7
100
AcDbSpline
 70
8
 71
3
 72
8
 73
4
 74
0
 40
0
 40
0
 40
0
 40
0
 40
1
 40
1
 40
1
 40
1
 10
661.854813
 20
49.428910
 30
0.0
 10
659.356186
 20
46.930283
 30
0.0
 10
657.952927
 20
43.541580
 30
0.0
 10
657.952927
 20
40.008255
 30
0.0
  0
SPLINE
  5
193
100
AcDbEntity
  8
0
 62
7
100
AcDbSpline
 70
8
 71
3
 72
8
 73
4
 74
0
 40
0
 40
0
 40
0
 40
0
 40
1
 40
1
 40
1
 40
1
 10
657.952927
 20
40.008255
 30
0.0
 10
657.952927
 20
39.277024
 30
0.0
 10
658.013031
 20
38.551972
 30
0.0
 10
658.130508
 20
37.839722
 30
0.0
  0
SPLINE
  5
194
100
AcDbEntity
  8
0
 62
7
100
AcDbSpline
 70
8
 71
3
 72
8
 73
4
 74
0
 40
0
 40
0
 40
0
 40
0
 40
1
 40
1
 40
1
 40
1
 10
658.130539
 20
37.839676
 30
0.0
 10
655.910797
 20
37.587906
 30
0.0
 10
653.828644
 20
36.591889
 30
0.0
 10
652.233612
 20
34.996857
 30
0.0
  0
SPLINE
  5
195
100
AcDbEntity
  8
0
 62
7
100
AcDbSpline
 70
8
 71
3
 72
8
 73
4
 74
0
 40
0
 40
0
 40
0
 40
0
 40
1
 40
1
 40
1
 40
1
 10
652.233612
 20
34.996857
 30
0.0
 10
650.373077
 20
33.136322
 30
0.0
 10
649.327591
 20
30.613022
 30
0.0
 10
649.327591
 20
27.981629
 30
0.0
  0
SPLINE
  5
196
100
AcDbEntity
  8
0
 62
7
100
AcDbSpline
 70
8
 71
3
 72
8
 73
4
 74
0
 40
0
 40
0
 40
0
 40
0
 40
1
 40
1
 40
1
 40
1
 10
649.327591
 20
27.981629
 30
0.0
 10
649.327591
 20
25.350235
 30
0.0
 10
650.373077
 20
22.826935
 30
0.0
 10
652.233612
 20
20.966400
 30
0.0
  0
SPLINE
  5
197
100
AcDbEntity
  8
0
 62
7
100
AcDbSpline
 70
8
 71
3
 72
8
 73
4
 74
0
 40
0
 40
0
 40
0
 40
0
 40
1
 40
1
 40
1
 40
1
 10
652.233612
 20
20.966400
 30
0.0
 10
654.094147
 20
19.105866
 30
0.0
 10
656.617447
 20
18.060379
 30
0.0
 10
659.248840
 20
18.060379
 30
0.0
  0
SPLINE
  5
198
100
AcDbEntity
  8
0
 62
7
100
AcDbSpline
 70
8
 71
3
 72
8
 73
4
 74
0
 40
0
 40
0
 40
0
 40
0
 40
1
 40
1
 40
1
 40
1
 10
659.248840
 20
18.060379
 30
0.0
 10
661.880234
 20
18.060379
 30
0.0
 10
664.403534
 20
19.105866
 30
0.0
 10
666.264069
 20
20.966400
 30
0.0
  0
SPLINE
  5
199
100
AcDbEntity
  8
0
 62
7
100
AcDbSpline
 70
8
 71
3
 72
8
 73
4
 74
0
 40
0
 40
0
 40
0
 40
0
 40
1
 40
1
 40
1
 40
1
 10
666.264069
 20
20.966400
 30
0.0
 10
667.859100
 20
22.561432
 30
0.0
 10
668.855118
 20
24.643585
 30
0.0
 10
669.106888
 20
26.863327
 30
0.0
  0
SPLINE
  5
19a
100
AcDbEntity
  8
0
 62
7
100
AcDbSpline
 70
8
 71
3
 72
8
 73
4
 74
0
 40
0
 40
0
 40
0
 40
0
 40
1
 40
1
 40
1
 40
1
 10
725.799683
 20
26.863312
 30
0.0
 10
726.511978
 20
26.745819
 30
0.0
 10
727.237076
 20
26.685715
 30
0.0
 10
727.968369
 20
26.685715
 30
0.0
  0
SPLINE
  5
19b
100
AcDbEntity
  8
0
 62
7
100
AcDbSpline
 70
8
 71
3
 72
8
 73
4
 74
0
 40
0
 40
0
 40
0
 40
0
 40
1
 40
1
 40
1
 40
1
 10
727.968369
 20
26.685715
 30
0.0
 10
731.501694
 20
26.685715
 30
0.0
 10
734.890396
 20
28.088974
 30
0.0
 10
737.389023
 20
30.587601
 30
0.0
  0
SPLINE
  5
19c
100
AcDbEntity
  8
0
 62
7
100
AcDbSpline
 70
8
 71
3
 72
8
 73
4
 74
0
 40
0
 40
0
 40
0
 40
0
 40
1
 40
1
 40
1
 40
1
 10
737.389023
 20
30.587601
 30
0.0
 10
739.887650
 20
33.086228
 30
0.0
 10
741.290909
 20
36.474930
 30
0.0
 10
741.290909
 20
40.008255
 30
0.0
  0
SPLINE
  5
19d
100
AcDbEntity
  8
0
 62
7
100
AcDbSpline
 70
8
 71
3
 72
8
 73
4
 74
0
 40
0
 40
0
 40
0
 40
0
 40
1
 40
1
 40
1
 40
1
 10
741.290909
 20
40.008255
 30
0.0
 10
741.290909
 20
43.541580
 30
0.0
 10
739.887650
 20
46.930283
 30
0.0
 10
737.389023
 20
49.428910
 30
0.0
  0
SPLINE
  5
19e
100
AcDbEntity
  8
0
 62
7
100
AcDbSpline
 70
8
 71
3
 72
8
 73
4
 74
0
 40
0
 40
0
 40
0
 40
0
 40
1
 40
1
 40
1
 40
1
 10
737.389023
 20
49.428910
 30
0.0
 10
734.890396
 20
51.927536
 30
0.0
 10
731.501694
 20
53.330796
 30
0.0
 10
727.968369
 20
53.330796
 30
0.0
  0
SPLINE
  5
19f
100
AcDbEntity
  8
0
 62
7
100
AcDbSpline
 70
8
 71
3
 72
8
 73
4
 74
0
 40
0
 40
0
 40
0
 40
0
 40
1
 40
1
 40
1
 40
1
 10
727.968369
 20
53.330796
 30
0.0
 10
724.435043
 20
53.330796
 30
0.0
 10
721.046341
 20
51.927536
 30
0.0
 10
718.547714
 20
49.428910
 30
0.0
  0
SPLINE
  5
1a0
100
AcDbEntity
  8
0
 62
7
100
AcDbSpline
 70
8
 71
3
 72
8
 73
4
 74
0
 40
0
 40
0
 40
0
 40
0
 40
1
 40
1
 40
1
 40
1
 10
718.547714
 20
49.428910
 30
0.0
 10
716.049088
 20
46.930283
 30
0.0
 10
714.645828
 20
43.541580
 30
0.0
 10
714.645828
 20
40.008255
 30
0.0
  0
SPLINE
  5
1a1
100
AcDbEntity
  8
0
 62
7
100
AcDbSpline
 70
8
 71
3
 72
8
 73
4
 74
0
 40
0
 40
0
 40
0
 40
0
 40
1
 40
1
 40
1
 40
1
 10
714.645828
 20
40.008255
 30
0.0
 10
714.645828
 20
39.277024
 30
0.0
 10
714.705933
 20
38.551972
 30
0.0
 10
714.823410
 20
37.839722
 30
0.0
  0
SPLINE
  5
1a2
100
AcDbEntity
  8
0
 62
7
100
AcDbSpline
 70
8
 71
3
 72
8
 73
4
 74
0
 40
0
 40
0
 40
0
 40
0
 40
1
 40
1
 40
1
 40
1
 10
714.823441
 20
37.839676
 30
0.0
 10
712.603699
 20
37.587906
 30
0.0
 10
710.521545
 20
36.591889
 30
0.0
 10
708.926514
 20
34.996857
 30
0.0
  0
SPLINE
  5
1a3
100
AcDbEntity
  8
0
 62
7
100
AcDbSpline
 70
8
 71
3
 72
8
 73
4
 74
0
 40
0
 40
0
 40
0
 40
0
 40
1
 40
1
 40
1
 40
1
 10
708.926514
 20
34.996857
 30
0.0
 10
707.065979
 20
33.136322
 30
0.0
 10
706.020493
 20
30.613022
 30
0.0
 10
706.020493
 20
27.981629
 30
0.0
  0
SPLINE
  5
1a4
100
AcDbEntity
  8
0
 62
7
100
AcDbSpline
 70
8
 71
3
 72
8
 73
4
 74
0
 40
0
 40
0
 40
0
 40
0
 40
1
 40
1
 40
1
 40
1
 10
706.020493
 20
27.981629
 30
0.0
 10
706.020493
 20
25.350235
 30
0.0
 10
707.065979
 20
22.826935
 30
0.0
 10
708.926514
 20
20.966400
 30
0.0
  0
SPLINE
  5
1a5
100
AcDbEntity
  8
0
 62
7
100
AcDbSpline
 70
8
 71
3
 72
8
 73
4
 74
0
 40
0
 40
0
 40
0
 40
0
 40
1
 40
1
 40
1
 40
1
 10
708.926514
 20
20.966400
 30
0.0
 10
710.787048
 20
19.105866
 30
0.0
 10
713.310349
 20
18.060379
 30
0.0
 10
715.941742
 20
18.060379
 30
0.0
  0
SPLINE
  5
1a6
100
AcDbEntity
  8
0
 62
7
100
AcDbSpline
 70
8
 71
3
 72
8
 73
4
 74
0
 40
0
 40
0
 40
0
 40
0
 40
1
 40
1
 40
1
 40
1
 10
715.941742
 20
18.060379
 30
0.0
 10
718.573135
 20
18.060379
 30
0.0
 10
721.096436
 20
19.105866
 30
0.0
 10
722.956970
 20
20.966400
 30
0.0
  0
SPLINE
  5
1a7
100
AcDbEntity
  8
0
 62
7
100
AcDbSpline
 70
8
 71
3
 72
8
 73
4
 74
0
 40
0
 40
0
 40
0
 40
0
 40
1
 40
1
 40
1
 40
1
 10
722.956970
 20
20.966400
 30
0.0
 10
724.552002
 20
22.561432
 30
0.0
 10
725.548019
 20
24.643585
 30
0.0
 10
725.799789
 20
26.863327
 30
0.0
  0
SPLINE
  5
1a8
100
AcDbEntity
  8
0
 62
7
100
AcDbSpline
 70
8
 71
3
 72
8
 73
4
 74
0
 40
0
 40
0
 40
0
 40
0
 40
1
 40
1
 40
1
 40
1
 10
73.831314
 20
75.960938
 30
0.0
 10
74.543610
 20
75.843445
 30
0.0
 10
75.268707
 20
75.783341
 30
0.0
 10
76.000000
 20
75.783341
 30
0.0
  0
SPLINE
  5
1a9
100
AcDbEntity
  8
0
 62
7
100
AcDbSpline
 70
8
 71
3
 72
8
 73
4
 74
0
 40
0
 40
0
 40
0
 40
0
 40
1
 40
1
 40
1
 40
1
 10
76.000000
 20
75.783341
 30
0.0
 10
79.533325
 20
75.783341
 30
0.0
 10
82.922028
 20
77.186600
 30
0.0
 10
85.420654
 20
79.685227
 30
0.0
  0
SPLINE
  5
1aa
100
AcDbEntity
  8
0
 62
7
100
AcDbSpline
 70
8
 71
3
 72
8
 73
4
 74
0
 40
0
 40
0
 40
0
 40
0
 40
1
 40
1
 40
1
 40
1
 10
85.420654
 20
79.685227
 30
0.0
 10
87.919281
 20
82.183853
 30
0.0
 10
89.322540
 20
85.572556
 30
0.0
 10
89.322540
 20
89.105881
 30
0.0
  0
SPLINE
  5
1ab
100
AcDbEntity
  8
0
 62
7
100
AcDbSpline
 70
8
 71
3
 72
8
 73
4
 74
0
 40
0
 40
0
 40
0
 40
0
 40
1
 40
1
 40
1
 40
1
 10
89.322540
 20
89.105881
 30
0.0
 10
89.322540
 20
92.639206
 30
0.0
 10
87.919281
 20
96.027909
 30
0.0
 10
85.420654
 20
98.526535
 30
0.0
  0
SPLINE
  5
1ac
100
AcDbEntity
  8
0
 62
7
100
AcDbSpline
 70
8
 71
3
 72
8
 73
4
 74
0
 40
0
 40
0
 40
0
 40
0
 40
1
 40
1
 40
1
 40
1
 10
85.420654
 20
98.526535
 30
0.0
 10
82.922028
 20
101.025162
 30
0.0
 10
79.533325
 20
102.428421
 30
0.0
 10
76.000000
 20
102.428421
 30
0.0
  0
SPLINE
  5
1ad
100
AcDbEntity
  8
0
 62
7
100
AcDbSpline
 70
8
 71
3
 72
8
 73
4
 74
0
 40
0
 40
0
 40
0
 40
0
 40
1
 40
1
 40
1
 40
1
 10
76.000000
 20
102.428421
 30
0.0
 10
72.466675
 20
102.428421
 30
0.0
 10
69.077972
 20
101.025162
 30
0.0
 10
66.579346
 20
98.526535
 30
0.0
  0
SPLINE
  5
1ae
100
AcDbEntity
  8
0
 62
7
100
AcDbSpline
 70
8
 71
3
 72
8
 73
4
 74
0
 40
0
 40
0
 40
0
 40
0
 40
1
 40
1
 40
1
 40
1
 10
66.579346
 20
98.526535
 30
0.0
 10
64.080719
 20
96.027909
 30
0.0
 10
62.677460
 20
92.639206
 30
0.0
 10
62.677460
 20
89.105881
 30
0.0
  0
SPLINE
  5
1af
100
AcDbEntity
  8
0
 62
7
100
AcDbSpline
 70
8
 71
3
 72
8
 73
4
 74
0
 40
0
 40
0
 40
0
 40
0
 40
1
 40
1
 40
1
 40
1
 10
62.677460
 20
89.105881
 30
0.0
 10
62.677460
 20
88.374649
 30
0.0
 10
62.737564
 20
87.649597
 30
0.0
 10
62.855042
 20
86.937348
 30
0.0
  0
SPLINE
  5
1b0
100
AcDbEntity
  8
0
 62
7
100
AcDbSpline
 70
8
 71
3
 72
8
 73
4
 74
0
 40
0
 40
0
 40
0
 40
0
 40
1
 40
1
 40
1
 40
1
 10
62.855072
 20
86.937302
 30
0.0
 10
60.635330
 20
86.685532
 30
0.0
 10
58.553177
 20
85.689514
 30
0.0
 10
56.958145
 20
84.094483
 30
0.0
  0
SPLINE
  5
1b1
100
AcDbEntity
  8
0
 62
7
100
AcDbSpline
 70
8
 71
3
 72
8
 73
4
 74
0
 40
0
 40
0
 40
0
 40
0
 40
1
 40
1
 40
1
 40
1
 10
56.958145
 20
84.094483
 30
0.0
 10
55.097610
 20
82.233948
 30
0.0
 10
54.052124
 20
79.710648
 30
0.0
 10
54.052124
 20
77.079254
 30
0.0
  0
SPLINE
  5
1b2
100
AcDbEntity
  8
0
 62
7
100
AcDbSpline
 70
8
 71
3
 72
8
 73
4
 74
0
 40
0
 40
0
 40
0
 40
0
 40
1
 40
1
 40
1
 40
1
 10
54.052124
 20
77.079254
 30
0.0
 10
54.052124
 20
74.447861
 30
0.0
 10
55.097610
 20
71.924561
 30
0.0
 10
56.958145
 20
70.064026
 30
0.0
  0
SPLINE
  5
1b3
100
AcDbEntity
  8
0
 62
7
100
AcDbSpline
 70
8
 71
3
 72
8
 73
4
 74
0
 40
0
 40
0
 40
0
 40
0
 40
1
 40
1
 40
1
 40
1
 10
56.958145
 20
70.064026
 30
0.0
 10
58.818680
 20
68.203491
 30
0.0
 10
61.341980
 20
67.158005
 30
0.0
 10
63.973373
 20
67.158005
 30
0.0
  0
SPLINE
  5
1b4
100
AcDbEntity
  8
0
 62
7
100
AcDbSpline
 70
8
 71
3
 72
8
 73
4
 74
0
 40
0
 40
0
 40
0
 40
0
 40
1
 40
1
 40
1
 40
1
 10
63.973373
 20
67.158005
 30
0.0
 10
66.604767
 20
67.158005
 30
0.0
 10
69.128067
 20
68.203491
 30
0.0
 10
70.988602
 20
70.064026
 30
0.0
  0
SPLINE
  5
1b5
100
AcDbEntity
  8
0
 62
7
100
AcDbSpline
 70
8
 71
3
 72
8
 73
4
 74
0
 40
0
 40
0
 40
0
 40
0
 40
1
 40
1
 40
1
 40
1
 10
70.988602
 20
70.064026
 30
0.0
 10
72.583633
 20
71.659058
 30
0.0
 10
73.579651
 20
73.741211
 30
0.0
 10
73.831421
 20
75.960953
 30
0.0
  0
SPLINE
  5
1b6
100
AcDbEntity
  8
0
 62
7
100
AcDbSpline
 70
8
 71
3
 72
8
 73
4
 74
0
 40
0
 40
0
 40
0
 40
0
 40
1
 40
1
 40
1
 40
1
 10
130.524216
 20
75.960938
 30
0.0
 10
131.236511
 20
75.843445
 30
0.0
 10
131.961609
 20
75.783341
 30
0.0
 10
132.692902
 20
75.783341
 30
0.0
  0
SPLINE
  5
1b7
100
AcDbEntity
  8
0
 62
7
100
AcDbSpline
 70
8
 71
3
 72
8
 73
4
 74
0
 40
0
 40
0
 40
0
 40
0
 40
1
 40
1
 40
1
 40
1
 10
132.692902
 20
75.783341
 30
0.0
 10
136.226227
 20
75.783341
 30
0.0
 10
139.614929
 20
77.186600
 30
0.0
 10
142.113556
 20
79.685227
 30
0.0
  0
SPLINE
  5
1b8
100
AcDbEntity
  8
0
 62
7
100
AcDbSpline
 70
8
 71
3
 72
8
 73
4
 74
0
 40
0
 40
0
 40
0
 40
0
 40
1
 40
1
 40
1
 40
1
 10
142.113556
 20
79.685227
 30
0.0
 10
144.612183
 20
82.183853
 30
0.0
 10
146.015442
 20
85.572556
 30
0.0
 10
146.015442
 20
89.105881
 30
0.0
  0
SPLINE
  5
1b9
100
AcDbEntity
  8
0
 62
7
100
AcDbSpline
 70
8
 71
3
 72
8
 73
4
 74
0
 40
0
 40
0
 40
0
 40
0
 40
1
 40
1
 40
1
 40
1
 10
146.015442
 20
89.105881
 30
0.0
 10
146.015442
 20
92.639206
 30
0.0
 10
144.612183
 20
96.027909
 30
0.0
 10
142.113556
 20
98.526535
 30
0.0
  0
SPLINE
  5
1ba
100
AcDbEntity
  8
0
 62
7
100
AcDbSpline
 70
8
 71
3
 72
8
 73
4
 74
0
 40
0
 40
0
 40
0
 40
0
 40
1
 40
1
 40
1
 40
1
 10
142.113556
 20
98.526535
 30
0.0
 10
139.614929
 20
101.025162
 30
0.0
 10
136.226227
 20
102.428421
 30
0.0
 10
132.692902
 20
102.428421
 30
0.0
  0
SPLINE
  5
1bb
100
AcDbEntity
  8
0
 62
7
100
AcDbSpline
 70
8
 71
3
 72
8
 73
4
 74
0
 40
0
 40
0
 40
0
 40
0
 40
1
 40
1
 40
1
 40
1
 10
132.692902
 20
102.428421
 30
0.0
 10
129.159576
 20
102.428421
 30
0.0
 10
125.770874
 20
101.025162
 30
0.0
 10
123.272247
 20
98.526535
 30
0.0
  0
SPLINE
  5
1bc
100
AcDbEntity
  8
0
 62
7
100
AcDbSpline
 70
8
 71
3
 72
8
 73
4
 74
0
 40
0
 40
0
 40
0
 40
0
 40
1
 40
1
 40
1
 40
1
 10
123.272247
 20
98.526535
 30
0.0
 10
120.773621
 20
96.027909
 30
0.0
 10
119.370361
 20
92.639206
 30
0.0
 10
119.370361
 20
89.105881
 30
0.0
  0
SPLINE
  5
1bd
100
AcDbEntity
  8
0
 62
7
100
AcDbSpline
 70
8
 71
3
 72
8
 73
4
 74
0
 40
0
 40
0
 40
0
 40
0
 40
1
 40
1
 40
1
 40
1
 10
119.370361
 20
89.105881
 30
0.0
 10
119.370361
 20
88.374649
 30
0.0
 10
119.430466
 20
87.649597
 30
0.0
 10
119.547943
 20
86.937348
 30
0.0
  0
SPLINE
  5
1be
100
AcDbEntity
  8
0
 62
7
100
AcDbSpline
 70
8
 71
3
 72
8
 73
4
 74
0
 40
0
 40
0
 40
0
 40
0
 40
1
 40
1
 40
1
 40
1
 10
119.547974
 20
86.937302
 30
0.0
 10
117.328232
 20
86.685532
 30
0.0
 10
115.246078
 20
85.689514
 30
0.0
 10
113.651047
 20
84.094483
 30
0.0
  0
SPLINE
  5
1bf
100
AcDbEntity
  8
0
 62
7
100
AcDbSpline
 70
8
 71
3
 72
8
 73
4
 74
0
 40
0
 40
0
 40
0
 40
0
 40
1
 40
1
 40
1
 40
1
 10
113.651047
 20
84.094483
 30
0.0
 10
111.790512
 20
82.233948
 30
0.0
 10
110.745026
 20
79.710648
 30
0.0
 10
110.745026
 20
77.079254
 30
0.0
  0
SPLINE
  5
1c0
100
AcDbEntity
  8
0
 62
7
100
AcDbSpline
 70
8
 71
3
 72
8
 73
4
 74
0
 40
0
 40
0
 40
0
 40
0
 40
1
 40
1
 40
1
 40
1
 10
110.745026
 20
77.079254
 30
0.0
 10
110.745026
 20
74.447861
 30
0.0
 10
111.790512
 20
71.924561
 30
0.0
 10
113.651047
 20
70.064026
 30
0.0
  0
SPLINE
  5
1c1
100
AcDbEntity
  8
0
 62
7
100
AcDbSpline
 70
8
 71
3
 72
8
 73
4
 74
0
 40
0
 40
0
 40
0
 40
0
 40
1
 40
1
 40
1
 40
1
 10
113.651047
 20
70.064026
 30
0.0
 10
115.511581
 20
68.203491
 30
0.0
 10
118.034882
 20
67.158005
 30
0.0
 10
120.666275
 20
67.158005
 30
0.0
  0
SPLINE
  5
1c2
100
AcDbEntity
  8
0
 62
7
100
AcDbSpline
 70
8
 71
3
 72
8
 73
4
 74
0
 40
0
 40
0
 40
0
 40
0
 40
1
 40
1
 40
1
 40
1
 10
120.666275
 20
67.158005
 30
0.0
 10
123.297668
 20
67.158005
 30
0.0
 10
125.820969
 20
68.203491
 30
0.0
 10
127.681503
 20
70.064026
 30
0.0
  0
SPLINE
  5
1c3
100
AcDbEntity
  8
0
 62
7
100
AcDbSpline
 70
8
 71
3
 72
8
 73
4
 74
0
 40
0
 40
0
 40
0
 40
0
 40
1
 40
1
 40
1
 40
1
 10
127.681503
 20
70.064026
 30
0.0
 10
129.276535
 20
71.659058
 30
0.0
 10
130.272552
 20
73.741211
 30
0.0
 10
130.524323
 20
75.960953
 30
0.0
  0
SPLINE
  5
1c4
100
AcDbEntity
  8
0
 62
7
100
AcDbSpline
 70
8
 71
3
 72
8
 73
4
 74
0
 40
0
 40
0
 40
0
 40
0
 40
1
 40
1
 40
1
 40
1
 10
187.217117
 20
75.960938
 30
0.0
 10
187.929413
 20
75.843445
 30
0.0
 10
188.654510
 20
75.783341
 30
0.0
 10
189.385803
 20
75.783341
 30
0.0
  0
SPLINE
  5
1c5
100
AcDbEntity
  8
0
 62
7
100
AcDbSpline
 70
8
 71
3
 72
8
 73
4
 74
0
 40
0
 40
0
 40
0
 40
0
 40
1
 40
1
 40
1
 40
1
 10
189.385803
 20
75.783341
 30
0.0
 10
192.919128
 20
75.783341
 30
0.0
 10
196.307831
 20
77.186600
 30
0.0
 10
198.806458
 20
79.685227
 30
0.0
  0
SPLINE
  5
1c6
100
AcDbEntity
  8
0
 62
7
100
AcDbSpline
 70
8
 71
3
 72
8
 73
4
 74
0
 40
0
 40
0
 40
0
 40
0
 40
1
 40
1
 40
1
 40
1
 10
198.806458
 20
79.685227
 30
0.0
 10
201.305084
 20
82.183853
 30
0.0
 10
202.708344
 20
85.572556
 30
0.0
 10
202.708344
 20
89.105881
 30
0.0
  0
SPLINE
  5
1c7
100
AcDbEntity
  8
0
 62
7
100
AcDbSpline
 70
8
 71
3
 72
8
 73
4
 74
0
 40
0
 40
0
 40
0
 40
0
 40
1
 40
1
 40
1
 40
1
 10
202.708344
 20
89.105881
 30
0.0
 10
202.708344
 20
92.639206
 30
0.0
 10
201.305084
 20
96.027909
 30
0.0
 10
198.806458
 20
98.526535
 30
0.0
  0
SPLINE
  5
1c8
100
AcDbEntity
  8
0
 62
7
100
AcDbSpline
 70
8
 71
3
 72
8
 73
4
 74
0
 40
0
 40
0
 40
0
 40
0
 40
1
 40
1
 40
1
 40
1
 10
198.806458
 20
98.526535
 30
0.0
 10
196.307831
 20
101.025162
 30
0.0
 10
192.919128
 20
102.428421
 30
0.0
 10
189.385803
 20
102.428421
 30
0.0
  0
SPLINE
  5
1c9
100
AcDbEntity
  8
0
 62
7
100
AcDbSpline
 70
8
 71
3
 72
8
 73
4
 74
0
 40
0
 40
0
 40
0
 40
0
 40
1
 40
1
 40
1
 40
1
 10
189.385803
 20
102.428421
 30
0.0
 10
185.852478
 20
102.428421
 30
0.0
 10
182.463776
 20
101.025162
 30
0.0
 10
179.965149
 20
98.526535
 30
0.0
  0
SPLINE
  5
1ca
100
AcDbEntity
  8
0
 62
7
100
AcDbSpline
 70
8
 71
3
 72
8
 73
4
 74
0
 40
0
 40
0
 40
0
 40
0
 40
1
 40
1
 40
1
 40
1
 10
179.965149
 20
98.526535
 30
0.0
 10
177.466522
 20
96.027909
 30
0.0
 10
176.063263
 20
92.639206
 30
0.0
 10
176.063263
 20
89.105881
 30
0.0
  0
SPLINE
  5
1cb
100
AcDbEntity
  8
0
 62
7
100
AcDbSpline
 70
8
 71
3
 72
8
 73
4
 74
0
 40
0
 40
0
 40
0
 40
0
 40
1
 40
1
 40
1
 40
1
 10
176.063263
 20
89.105881
 30
0.0
 10
176.063263
 20
88.374649
 30
0.0
 10
176.123367
 20
87.649597
 30
0.0
 10
176.240845
 20
86.937348
 30
0.0
  0
SPLINE
  5
1cc
100
AcDbEntity
  8
0
 62
7
100
AcDbSpline
 70
8
 71
3
 72
8
 73
4
 74
0
 40
0
 40
0
 40
0
 40
0
 40
1
 40
1
 40
1
 40
1
 10
176.240875
 20
86.937302
 30
0.0
 10
174.021133
 20
86.685532
 30
0.0
 10
171.938980
 20
85.689514
 30
0.0
 10
170.343948
 20
84.094483
 30
0.0
  0
SPLINE
  5
1cd
100
AcDbEntity
  8
0
 62
7
100
AcDbSpline
 70
8
 71
3
 72
8
 73
4
 74
0
 40
0
 40
0
 40
0
 40
0
 40
1
 40
1
 40
1
 40
1
 10
170.343948
 20
84.094483
 30
0.0
 10
168.483414
 20
82.233948
 30
0.0
 10
167.437927
 20
79.710648
 30
0.0
 10
167.437927
 20
77.079254
 30
0.0
  0
SPLINE
  5
1ce
100
AcDbEntity
  8
0
 62
7
100
AcDbSpline
 70
8
 71
3
 72
8
 73
4
 74
0
 40
0
 40
0
 40
0
 40
0
 40
1
 40
1
 40
1
 40
1
 10
167.437927
 20
77.079254
 30
0.0
 10
167.437927
 20
74.447861
 30
0.0
 10
168.483414
 20
71.924561
 30
0.0
 10
170.343948
 20
70.064026
 30
0.0
  0
SPLINE
  5
1cf
100
AcDbEntity
  8
0
 62
7
100
AcDbSpline
 70
8
 71
3
 72
8
 73
4
 74
0
 40
0
 40
0
 40
0
 40
0
 40
1
 40
1
 40
1
 40
1
 10
170.343948
 20
70.064026
 30
0.0
 10
172.204483
 20
68.203491
 30
0.0
 10
174.727783
 20
67.158005
 30
0.0
 10
177.359177
 20
67.158005
 30
0.0
  0
SPLINE
  5
1d0
100
AcDbEntity
  8
0
 62
7
100
AcDbSpline
 70
8
 71
3
 72
8
 73
4
 74
0
 40
0
 40
0
 40
0
 40
0
 40
1
 40
1
 40
1
 40
1
 10
177.359177
 20
67.158005
 30
0.0
 10
179.990570
 20
67.158005
 30
0.0
 10
182.513870
 20
68.203491
 30
0.0
 10
184.374405
 20
70.064026
 30
0.0
  0
SPLINE
  5
1d1
100
AcDbEntity
  8
0
 62
7
100
AcDbSpline
 70
8
 71
3
 72
8
 73
4
 74
0
 40
0
 40
0
 40
0
 40
0
 40
1
 40
1
 40
1
 40
1
 10
184.374405
 20
70.064026
 30
0.0
 10
185.969437
 20
71.659058
 30
0.0
 10
186.965454
 20
73.741211
 30
0.0
 10
187.217224
 20
75.960953
 30
0.0
  0
SPLINE
  5
1d2
100
AcDbEntity
  8
0
 62
7
100
AcDbSpline
 70
8
 71
3
 72
8
 73
4
 74
0
 40
0
 40
0
 40
0
 40
0
 40
1
 40
1
 40
1
 40
1
 10
243.910019
 20
75.960938
 30
0.0
 10
244.622314
 20
75.843445
 30
0.0
 10
245.347412
 20
75.783341
 30
0.0
 10
246.078705
 20
75.783341
 30
0.0
  0
SPLINE
  5
1d3
100
AcDbEntity
  8
0
 62
7
100
AcDbSpline
 70
8
 71
3
 72
8
 73
4
 74
0
 40
0
 40
0
 40
0
 40
0
 40
1
 40
1
 40
1
 40
1
 10
246.078705
 20
75.783341
 30
0.0
 10
249.612030
 20
75.783341
 30
0.0
 10
253.000732
 20
77.186600
 30
0.0
 10
255.499359
 20
79.685227
 30
0.0
  0
SPLINE
  5
1d4
100
AcDbEntity
  8
0
 62
7
100
AcDbSpline
 70
8
 71
3
 72
8
 73
4
 74
0
 40
0
 40
0
 40
0
 40
0
 40
1
 40
1
 40
1
 40
1
 10
255.499359
 20
79.685227
 30
0.0
 10
257.997986
 20
82.183853
 30
0.0
 10
259.401245
 20
85.572556
 30
0.0
 10
259.401245
 20
89.105881
 30
0.0
  0
SPLINE
  5
1d5
100
AcDbEntity
  8
0
 62
7
100
AcDbSpline
 70
8
 71
3
 72
8
 73
4
 74
0
 40
0
 40
0
 40
0
 40
0
 40
1
 40
1
 40
1
 40
1
 10
259.401245
 20
89.105881
 30
0.0
 10
259.401245
 20
92.639206
 30
0.0
 10
257.997986
 20
96.027909
 30
0.0
 10
255.499359
 20
98.526535
 30
0.0
  0
SPLINE
  5
1d6
100
AcDbEntity
  8
0
 62
7
100
AcDbSpline
 70
8
 71
3
 72
8
 73
4
 74
0
 40
0
 40
0
 40
0
 40
0
 40
1
 40
1
 40
1
 40
1
 10
255.499359
 20
98.526535
 30
0.0
 10
253.000732
 20
101.025162
 30
0.0
 10
249.612030
 20
102.428421
 30
0.0
 10
246.078705
 20
102.428421
 30
0.0
  0
SPLINE
  5
1d7
100
AcDbEntity
  8
0
 62
7
100
AcDbSpline
 70
8
 71
3
 72
8
 73
4
 74
0
 40
0
 40
0
 40
0
 40
0
 40
1
 40
1
 40
1
 40
1
 10
246.078705
 20
102.428421
 30
0.0
 10
242.545380
 20
102.428421
 30
0.0
 10
239.156677
 20
101.025162
 30
0.0
 10
236.658051
 20
98.526535
 30
0.0
  0
SPLINE
  5
1d8
100
AcDbEntity
  8
0
 62
7
100
AcDbSpline
 70
8
 71
3
 72
8
 73
4
 74
0
 40
0
 40
0
 40
0
 40
0
 40
1
 40
1
 40
1
 40
1
 10
236.658051
 20
98.526535
 30
0.0
 10
234.159424
 20
96.027909
 30
0.0
 10
232.756165
 20
92.639206
 30
0.0
 10
232.756165
 20
89.105881
 30
0.0
  0
SPLINE
  5
1d9
100
AcDbEntity
  8
0
 62
7
100
AcDbSpline
 70
8
 71
3
 72
8
 73
4
 74
0
 40
0
 40
0
 40
0
 40
0
 40
1
 40
1
 40
1
 40
1
 10
232.756165
 20
89.105881
 30
0.0
 10
232.756165
 20
88.374649
 30
0.0
 10
232.816269
 20
87.649597
 30
0.0
 10
232.933746
 20
86.937348
 30
0.0
  0
SPLINE
  5
1da
100
AcDbEntity
  8
0
 62
7
100
AcDbSpline
 70
8
 71
3
 72
8
 73
4
 74
0
 40
0
 40
0
 40
0
 40
0
 40
1
 40
1
 40
1
 40
1
 10
232.933777
 20
86.937302
 30
0.0
 10
230.714035
 20
86.685532
 30
0.0
 10
228.631882
 20
85.689514
 30
0.0
 10
227.036850
 20
84.094483
 30
0.0
  0
SPLINE
  5
1db
100
AcDbEntity
  8
0
 62
7
100
AcDbSpline
 70
8
 71
3
 72
8
 73
4
 74
0
 40
0
 40
0
 40
0
 40
0
 40
1
 40
1
 40
1
 40
1
 10
227.036850
 20
84.094483
 30
0.0
 10
225.176315
 20
82.233948
 30
0.0
 10
224.130829
 20
79.710648
 30
0.0
 10
224.130829
 20
77.079254
 30
0.0
  0
SPLINE
  5
1dc
100
AcDbEntity
  8
0
 62
7
100
AcDbSpline
 70
8
 71
3
 72
8
 73
4
 74
0
 40
0
 40
0
 40
0
 40
0
 40
1
 40
1
 40
1
 40
1
 10
224.130829
 20
77.079254
 30
0.0
 10
224.130829
 20
74.447861
 30
0.0
 10
225.176315
 20
71.924561
 30
0.0
 10
227.036850
 20
70.064026
 30
0.0
  0
SPLINE
  5
1dd
100
AcDbEntity
  8
0
 62
7
100
AcDbSpline
 70
8
 71
3
 72
8
 73
4
 74
0
 40
0
 40
0
 40
0
 40
0
 40
1
 40
1
 40
1
 40
1
 10
227.036850
 20
70.064026
 30
0.0
 10
228.897385
 20
68.203491
 30
0.0
 10
231.420685
 20
67.158005
 30
0.0
 10
234.052078
 20
67.158005
 30
0.0
  0
SPLINE
  5
1de
100
AcDbEntity
  8
0
 62
7
100
AcDbSpline
 70
8
 71
3
 72
8
 73
4
 74
0
 40
0
 40
0
 40
0
 40
0
 40
1
 40
1
 40
1
 40
1
 10
234.052078
 20
67.158005
 30
0.0
 10
236.683472
 20
67.158005
 30
0.0
 10
239.206772
 20
68.203491
 30
0.0
 10
241.067307
 20
70.064026
 30
0.0
  0
SPLINE
  5
1df
100
AcDbEntity
  8
0
 62
7
100
AcDbSpline
 70
8
 71
3
 72
8
 73
4
 74
0
 40
0
 40
0
 40
0
 40
0
 40
1
 40
1
 40
1
 40
1
 10
241.067307
 20
70.064026
 30
0.0
 10
242.662338
 20
71.659058
 30
0.0
 10
243.658356
 20
73.741211
 30
0.0
 10
243.910126
 20
75.960953
 30
0.0
  0
SPLINE
  5
1e0
100
AcDbEntity
  8
0
 62
7
100
AcDbSpline
 70
8
 71
3
 72
8
 73
4
 74
0
 40
0
 40
0
 40
0
 40
0
 40
1
 40
1
 40
1
 40
1
 10
300.602921
 20
75.960938
 30
0.0
 10
301.315216
 20
75.843445
 30
0.0
 10
302.040314
 20
75.783341
 30
0.0
 10
302.771606
 20
75.783341
 30
0.0
  0
SPLINE
  5
1e1
100
AcDbEntity
  8
0
 62
7
100
AcDbSpline
 70
8
 71
3
 72
8
 73
4
 74
0
 40
0
 40
0
 40
0
 40
0
 40
1
 40
1
 40
1
 40
1
 10
302.771606
 20
75.783341
 30
0.0
 10
306.304932
 20
75.783341
 30
0.0
 10
309.693634
 20
77.186600
 30
0.0
 10
312.192261
 20
79.685227
 30
0.0
  0
SPLINE
  5
1e2
100
AcDbEntity
  8
0
 62
7
100
AcDbSpline
 70
8
 71
3
 72
8
 73
4
 74
0
 40
0
 40
0
 40
0
 40
0
 40
1
 40
1
 40
1
 40
1
 10
312.192261
 20
79.685227
 30
0.0
 10
314.690887
 20
82.183853
 30
0.0
 10
316.094147
 20
85.572556
 30
0.0
 10
316.094147
 20
89.105881
 30
0.0
  0
SPLINE
  5
1e3
100
AcDbEntity
  8
0
 62
7
100
AcDbSpline
 70
8
 71
3
 72
8
 73
4
 74
0
 40
0
 40
0
 40
0
 40
0
 40
1
 40
1
 40
1
 40
1
 10
316.094147
 20
89.105881
 30
0.0
 10
316.094147
 20
92.639206
 30
0.0
 10
314.690887
 20
96.027909
 30
0.0
 10
312.192261
 20
98.526535
 30
0.0
  0
SPLINE
  5
1e4
100
AcDbEntity
  8
0
 62
7
100
AcDbSpline
 70
8
 71
3
 72
8
 73
4
 74
0
 40
0
 40
0
 40
0
 40
0
 40
1
 40
1
 40
1
 40
1
 10
312.192261
 20
98.526535
 30
0.0
 10
309.693634
 20
101.025162
 30
0.0
 10
306.304932
 20
102.428421
 30
0.0
 10
302.771606
 20
102.428421
 30
0.0
  0
SPLINE
  5
1e5
100
AcDbEntity
  8
0
 62
7
100
AcDbSpline
 70
8
 71
3
 72
8
 73
4
 74
0
 40
0
 40
0
 40
0
 40
0
 40
1
 40
1
 40
1
 40
1
 10
302.771606
 20
102.428421
 30
0.0
 10
299.238281
 20
102.428421
 30
0.0
 10
295.849579
 20
101.025162
 30
0.0
 10
293.350952
 20
98.526535
 30
0.0
  0
SPLINE
  5
1e6
100
AcDbEntity
  8
0
 62
7
100
AcDbSpline
 70
8
 71
3
 72
8
 73
4
 74
0
 40
0
 40
0
 40
0
 40
0
 40
1
 40
1
 40
1
 40
1
 10
293.350952
 20
98.526535
 30
0.0
 10
290.852325
 20
96.027909
 30
0.0
 10
289.449066
 20
92.639206
 30
0.0
 10
289.449066
 20
89.105881
 30
0.0
  0
SPLINE
  5
1e7
100
AcDbEntity
  8
0
 62
7
100
AcDbSpline
 70
8
 71
3
 72
8
 73
4
 74
0
 40
0
 40
0
 40
0
 40
0
 40
1
 40
1
 40
1
 40
1
 10
289.449066
 20
89.105881
 30
0.0
 10
289.449066
 20
88.374649
 30
0.0
 10
289.509171
 20
87.649597
 30
0.0
 10
289.626648
 20
86.937348
 30
0.0
  0
SPLINE
  5
1e8
100
AcDbEntity
  8
0
 62
7
100
AcDbSpline
 70
8
 71
3
 72
8
 73
4
 74
0
 40
0
 40
0
 40
0
 40
0
 40
1
 40
1
 40
1
 40
1
 10
289.626678
 20
86.937302
 30
0.0
 10
287.406937
 20
86.685532
 30
0.0
 10
285.324783
 20
85.689514
 30
0.0
 10
283.729752
 20
84.094483
 30
0.0
  0
SPLINE
  5
1e9
100
AcDbEntity
  8
0
 62
7
100
AcDbSpline
 70
8
 71
3
 72
8
 73
4
 74
0
 40
0
 40
0
 40
0
 40
0
 40
1
 40
1
 40
1
 40
1
 10
283.729752
 20
84.094483
 30
0.0
 10
281.869217
 20
82.233948
 30
0.0
 10
280.823730
 20
79.710648
 30
0.0
 10
280.823730
 20
77.079254
 30
0.0
  0
SPLINE
  5
1ea
100
AcDbEntity
  8
0
 62
7
100
AcDbSpline
 70
8
 71
3
 72
8
 73
4
 74
0
 40
0
 40
0
 40
0
 40
0
 40
1
 40
1
 40
1
 40
1
 10
280.823730
 20
77.079254
 30
0.0
 10
280.823730
 20
74.447861
 30
0.0
 10
281.869217
 20
71.924561
 30
0.0
 10
283.729752
 20
70.064026
 30
0.0
  0
SPLINE
  5
1eb
100
AcDbEntity
  8
0
 62
7
100
AcDbSpline
 70
8
 71
3
 72
8
 73
4
 74
0
 40
0
 40
0
 40
0
 40
0
 40
1
 40
1
 40
1
 40
1
 10
283.729752
 20
70.064026
 30
0.0
 10
285.590286
 20
68.203491
 30
0.0
 10
288.113586
 20
67.158005
 30
0.0
 10
290.744980
 20
67.158005
 30
0.0
  0
SPLINE
  5
1ec
100
AcDbEntity
  8
0
 62
7
100
AcDbSpline
 70
8
 71
3
 72
8
 73
4
 74
0
 40
0
 40
0
 40
0
 40
0
 40
1
 40
1
 40
1
 40
1
 10
290.744980
 20
67.158005
 30
0.0
 10
293.376373
 20
67.158005
 30
0.0
 10
295.899673
 20
68.203491
 30
0.0
 10
297.760208
 20
70.064026
 30
0.0
  0
SPLINE
  5
1ed
100
AcDbEntity
  8
0
 62
7
100
AcDbSpline
 70
8
 71
3
 72
8
 73
4
 74
0
 40
0
 40
0
 40
0
 40
0
 40
1
 40
1
 40
1
 40
1
 10
297.760208
 20
70.064026
 30
0.0
 10
299.355240
 20
71.659058
 30
0.0
 10
300.351257
 20
73.741211
 30
0.0
 10
300.603027
 20
75.960953
 30
0.0
  0
SPLINE
  5
1ee
100
AcDbEntity
  8
0
 62
7
100
AcDbSpline
 70
8
 71
3
 72
8
 73
4
 74
0
 40
0
 40
0
 40
0
 40
0
 40
1
 40
1
 40
1
 40
1
 10
357.295822
 20
75.960938
 30
0.0
 10
358.008118
 20
75.843445
 30
0.0
 10
358.733215
 20
75.783341
 30
0.0
 10
359.464508
 20
75.783341
 30
0.0
  0
SPLINE
  5
1ef
100
AcDbEntity
  8
0
 62
7
100
AcDbSpline
 70
8
 71
3
 72
8
 73
4
 74
0
 40
0
 40
0
 40
0
 40
0
 40
1
 40
1
 40
1
 40
1
 10
359.464508
 20
75.783341
 30
0.0
 10
362.997833
 20
75.783341
 30
0.0
 10
366.386536
 20
77.186600
 30
0.0
 10
368.885162
 20
79.685227
 30
0.0
  0
SPLINE
  5
1f0
100
AcDbEntity
  8
0
 62
7
100
AcDbSpline
 70
8
 71
3
 72
8
 73
4
 74
0
 40
0
 40
0
 40
0
 40
0
 40
1
 40
1
 40
1
 40
1
 10
368.885162
 20
79.685227
 30
0.0
 10
371.383789
 20
82.183853
 30
0.0
 10
372.787048
 20
85.572556
 30
0.0
 10
372.787048
 20
89.105881
 30
0.0
  0
SPLINE
  5
1f1
100
AcDbEntity
  8
0
 62
7
100
AcDbSpline
 70
8
 71
3
 72
8
 73
4
 74
0
 40
0
 40
0
 40
0
 40
0
 40
1
 40
1
 40
1
 40
1
 10
372.787048
 20
89.105881
 30
0.0
 10
372.787048
 20
92.639206
 30
0.0
 10
371.383789
 20
96.027909
 30
0.0
 10
368.885162
 20
98.526535
 30
0.0
  0
SPLINE
  5
1f2
100
AcDbEntity
  8
0
 62
7
100
AcDbSpline
 70
8
 71
3
 72
8
 73
4
 74
0
 40
0
 40
0
 40
0
 40
0
 40
1
 40
1
 40
1
 40
1
 10
368.885162
 20
98.526535
 30
0.0
 10
366.386536
 20
101.025162
 30
0.0
 10
362.997833
 20
102.428421
 30
0.0
 10
359.464508
 20
102.428421
 30
0.0
  0
SPLINE
  5
1f3
100
AcDbEntity
  8
0
 62
7
100
AcDbSpline
 70
8
 71
3
 72
8
 73
4
 74
0
 40
0
 40
0
 40
0
 40
0
 40
1
 40
1
 40
1
 40
1
 10
359.464508
 20
102.428421
 30
0.0
 10
355.931183
 20
102.428421
 30
0.0
 10
352.542480
 20
101.025162
 30
0.0
 10
350.043854
 20
98.526535
 30
0.0
  0
SPLINE
  5
1f4
100
AcDbEntity
  8
0
 62
7
100
AcDbSpline
 70
8
 71
3
 72
8
 73
4
 74
0
 40
0
 40
0
 40
0
 40
0
 40
1
 40
1
 40
1
 40
1
 10
350.043854
 20
98.526535
 30
0.0
 10
347.545227
 20
96.027909
 30
0.0
 10
346.141968
 20
92.639206
 30
0.0
 10
346.141968
 20
89.105881
 30
0.0
  0
SPLINE
  5
1f5
100
AcDbEntity
  8
0
 62
7
100
AcDbSpline
 70
8
 71
3
 72
8
 73
4
 74
0
 40
0
 40
0
 40
0
 40
0
 40
1
 40
1
 40
1
 40
1
 10
346.141968
 20
89.105881
 30
0.0
 10
346.141968
 20
88.374649
 30
0.0
 10
346.202072
 20
87.649597
 30
0.0
 10
346.319550
 20
86.937348
 30
0.0
  0
SPLINE
  5
1f6
100
AcDbEntity
  8
0
 62
7
100
AcDbSpline
 70
8
 71
3
 72
8
 73
4
 74
0
 40
0
 40
0
 40
0
 40
0
 40
1
 40
1
 40
1
 40
1
 10
346.319580
 20
86.937302
 30
0.0
 10
344.099838
 20
86.685532
 30
0.0
 10
342.017685
 20
85.689514
 30
0.0
 10
340.422653
 20
84.094483
 30
0.0
  0
SPLINE
  5
1f7
100
AcDbEntity
  8
0
 62
7
100
AcDbSpline
 70
8
 71
3
 72
8
 73
4
 74
0
 40
0
 40
0
 40
0
 40
0
 40
1
 40
1
 40
1
 40
1
 10
340.422653
 20
84.094483
 30
0.0
 10
338.562119
 20
82.233948
 30
0.0
 10
337.516632
 20
79.710648
 30
0.0
 10
337.516632
 20
77.079254
 30
0.0
  0
SPLINE
  5
1f8
100
AcDbEntity
  8
0
 62
7
100
AcDbSpline
 70
8
 71
3
 72
8
 73
4
 74
0
 40
0
 40
0
 40
0
 40
0
 40
1
 40
1
 40
1
 40
1
 10
337.516632
 20
77.079254
 30
0.0
 10
337.516632
 20
74.447861
 30
0.0
 10
338.562119
 20
71.924561
 30
0.0
 10
340.422653
 20
70.064026
 30
0.0
  0
SPLINE
  5
1f9
100
AcDbEntity
  8
0
 62
7
100
AcDbSpline
 70
8
 71
3
 72
8
 73
4
 74
0
 40
0
 40
0
 40
0
 40
0
 40
1
 40
1
 40
1
 40
1
 10
340.422653
 20
70.064026
 30
0.0
 10
342.283188
 20
68.203491
 30
0.0
 10
344.806488
 20
67.158005
 30
0.0
 10
347.437881
 20
67.158005
 30
0.0
  0
SPLINE
  5
1fa
100
AcDbEntity
  8
0
 62
7
100
AcDbSpline
 70
8
 71
3
 72
8
 73
4
 74
0
 40
0
 40
0
 40
0
 40
0
 40
1
 40
1
 40
1
 40
1
 10
347.437881
 20
67.158005
 30
0.0
 10
350.069275
 20
67.158005
 30
0.0
 10
352.592575
 20
68.203491
 30
0.0
 10
354.453110
 20
70.064026
 30
0.0
  0
SPLINE
  5
1fb
100
AcDbEntity
  8
0
 62
7
100
AcDbSpline
 70
8
 71
3
 72
8
 73
4
 74
0
 40
0
 40
0
 40
0
 40
0
 40
1
 40
1
 40
1
 40
1
 10
354.453110
 20
70.064026
 30
0.0
 10
356.048141
 20
71.659058
 30
0.0
 10
357.044159
 20
73.741211
 30
0.0
 10
357.295929
 20
75.960953
 30
0.0
  0
SPLINE
  5
1fc
100
AcDbEntity
  8
0
 62
7
100
AcDbSpline
 70
8
 71
3
 72
8
 73
4
 74
0
 40
0
 40
0
 40
0
 40
0
 40
1
 40
1
 40
1
 40
1
 10
413.988724
 20
75.960938
 30
0.0
 10
414.701019
 20
75.843445
 30
0.0
 10
415.426117
 20
75.783341
 30
0.0
 10
416.157410
 20
75.783341
 30
0.0
  0
SPLINE
  5
1fd
100
AcDbEntity
  8
0
 62
7
100
AcDbSpline
 70
8
 71
3
 72
8
 73
4
 74
0
 40
0
 40
0
 40
0
 40
0
 40
1
 40
1
 40
1
 40
1
 10
416.157410
 20
75.783341
 30
0.0
 10
419.690735
 20
75.783341
 30
0.0
 10
423.079437
 20
77.186600
 30
0.0
 10
425.578064
 20
79.685227
 30
0.0
  0
SPLINE
  5
1fe
100
AcDbEntity
  8
0
 62
7
100
AcDbSpline
 70
8
 71
3
 72
8
 73
4
 74
0
 40
0
 40
0
 40
0
 40
0
 40
1
 40
1
 40
1
 40
1
 10
425.578064
 20
79.685227
 30
0.0
 10
428.076691
 20
82.183853
 30
0.0
 10
429.479950
 20
85.572556
 30
0.0
 10
429.479950
 20
89.105881
 30
0.0
  0
SPLINE
  5
1ff
100
AcDbEntity
  8
0
 62
7
100
AcDbSpline
 70
8
 71
3
 72
8
 73
4
 74
0
 40
0
 40
0
 40
0
 40
0
 40
1
 40
1
 40
1
 40
1
 10
429.479950
 20
89.105881
 30
0.0
 10
429.479950
 20
92.639206
 30
0.0
 10
428.076691
 20
96.027909
 30
0.0
 10
425.578064
 20
98.526535
 30
0.0
  0
SPLINE
  5
200
100
AcDbEntity
  8
0
 62
7
100
AcDbSpline
 70
8
 71
3
 72
8
 73
4
 74
0
 40
0
 40
0
 40
0
 40
0
 40
1
 40
1
 40
1
 40
1
 10
425.578064
 20
98.526535
 30
0.0
 10
423.079437
 20
101.025162
 30
0.0
 10
419.690735
 20
102.428421
 30
0.0
 10
416.157410
 20
102.428421
 30
0.0
  0
SPLINE
  5
201
100
AcDbEntity
  8
0
 62
7
100
AcDbSpline
 70
8
 71
3
 72
8
 73
4
 74
0
 40
0
 40
0
 40
0
 40
0
 40
1
 40
1
 40
1
 40
1
 10
416.157410
 20
102.428421
 30
0.0
 10
412.624084
 20
102.428421
 30
0.0
 10
409.235382
 20
101.025162
 30
0.0
 10
406.736755
 20
98.526535
 30
0.0
  0
SPLINE
  5
202
100
AcDbEntity
  8
0
 62
7
100
AcDbSpline
 70
8
 71
3
 72
8
 73
4
 74
0
 40
0
 40
0
 40
0
 40
0
 40
1
 40
1
 40
1
 40
1
 10
406.736755
 20
98.526535
 30
0.0
 10
404.238129
 20
96.027909
 30
0.0
 10
402.834869
 20
92.639206
 30
0.0
 10
402.834869
 20
89.105881
 30
0.0
  0
SPLINE
  5
203
100
AcDbEntity
  8
0
 62
7
100
AcDbSpline
 70
8
 71
3
 72
8
 73
4
 74
0
 40
0
 40
0
 40
0
 40
0
 40
1
 40
1
 40
1
 40
1
 10
402.834869
 20
89.105881
 30
0.0
 10
402.834869
 20
88.374649
 30
0.0
 10
402.894974
 20
87.649597
 30
0.0
 10
403.012451
 20
86.937348
 30
0.0
  0
SPLINE
  5
204
100
AcDbEntity
  8
0
 62
7
100
AcDbSpline
 70
8
 71
3
 72
8
 73
4
 74
0
 40
0
 40
0
 40
0
 40
0
 40
1
 40
1
 40
1
 40
1
 10
403.012482
 20
86.937302
 30
0.0
 10
400.792740
 20
86.685532
 30
0.0
 10
398.710587
 20
85.689514
 30
0.0
 10
397.115555
 20
84.094483
 30
0.0
  0
SPLINE
  5
205
100
AcDbEntity
  8
0
 62
7
100
AcDbSpline
 70
8
 71
3
 72
8
 73
4
 74
0
 40
0
 40
0
 40
0
 40
0
 40
1
 40
1
 40
1
 40
1
 10
397.115555
 20
84.094483
 30
0.0
 10
395.255020
 20
82.233948
 30
0.0
 10
394.209534
 20
79.710648
 30
0.0
 10
394.209534
 20
77.079254
 30
0.0
  0
SPLINE
  5
206
100
AcDbEntity
  8
0
 62
7
100
AcDbSpline
 70
8
 71
3
 72
8
 73
4
 74
0
 40
0
 40
0
 40
0
 40
0
 40
1
 40
1
 40
1
 40
1
 10
394.209534
 20
77.079254
 30
0.0
 10
394.209534
 20
74.447861
 30
0.0
 10
395.255020
 20
71.924561
 30
0.0
 10
397.115555
 20
70.064026
 30
0.0
  0
SPLINE
  5
207
100
AcDbEntity
  8
0
 62
7
100
AcDbSpline
 70
8
 71
3
 72
8
 73
4
 74
0
 40
0
 40
0
 40
0
 40
0
 40
1
 40
1
 40
1
 40
1
 10
397.115555
 20
70.064026
 30
0.0
 10
398.976089
 20
68.203491
 30
0.0
 10
401.499390
 20
67.158005
 30
0.0
 10
404.130783
 20
67.158005
 30
0.0
  0
SPLINE
  5
208
100
AcDbEntity
  8
0
 62
7
100
AcDbSpline
 70
8
 71
3
 72
8
 73
4
 74
0
 40
0
 40
0
 40
0
 40
0
 40
1
 40
1
 40
1
 40
1
 10
404.130783
 20
67.158005
 30
0.0
 10
406.762177
 20
67.158005
 30
0.0
 10
409.285477
 20
68.203491
 30
0.0
 10
411.146011
 20
70.064026
 30
0.0
  0
SPLINE
  5
209
100
AcDbEntity
  8
0
 62
7
100
AcDbSpline
 70
8
 71
3
 72
8
 73
4
 74
0
 40
0
 40
0
 40
0
 40
0
 40
1
 40
1
 40
1
 40
1
 10
411.146011
 20
70.064026
 30
0.0
 10
412.741043
 20
71.659058
 30
0.0
 10
413.737061
 20
73.741211
 30
0.0
 10
413.988831
 20
75.960953
 30
0.0
  0
SPLINE
  5
20a
100
AcDbEntity
  8
0
 62
7
100
AcDbSpline
 70
8
 71
3
 72
8
 73
4
 74
0
 40
0
 40
0
 40
0
 40
0
 40
1
 40
1
 40
1
 40
1
 10
470.681625
 20
75.960938
 30
0.0
 10
471.393921
 20
75.843445
 30
0.0
 10
472.119019
 20
75.783341
 30
0.0
 10
472.850311
 20
75.783341
 30
0.0
  0
SPLINE
  5
20b
100
AcDbEntity
  8
0
 62
7
100
AcDbSpline
 70
8
 71
3
 72
8
 73
4
 74
0
 40
0
 40
0
 40
0
 40
0
 40
1
 40
1
 40
1
 40
1
 10
472.850311
 20
75.783341
 30
0.0
 10
476.383636
 20
75.783341
 30
0.0
 10
479.772339
 20
77.186600
 30
0.0
 10
482.270966
 20
79.685227
 30
0.0
  0
SPLINE
  5
20c
100
AcDbEntity
  8
0
 62
7
100
AcDbSpline
 70
8
 71
3
 72
8
 73
4
 74
0
 40
0
 40
0
 40
0
 40
0
 40
1
 40
1
 40
1
 40
1
 10
482.270966
 20
79.685227
 30
0.0
 10
484.769592
 20
82.183853
 30
0.0
 10
486.172852
 20
85.572556
 30
0.0
 10
486.172852
 20
89.105881
 30
0.0
  0
SPLINE
  5
20d
100
AcDbEntity
  8
0
 62
7
100
AcDbSpline
 70
8
 71
3
 72
8
 73
4
 74
0
 40
0
 40
0
 40
0
 40
0
 40
1
 40
1
 40
1
 40
1
 10
486.172852
 20
89.105881
 30
0.0
 10
486.172852
 20
92.639206
 30
0.0
 10
484.769592
 20
96.027909
 30
0.0
 10
482.270966
 20
98.526535
 30
0.0
  0
SPLINE
  5
20e
100
AcDbEntity
  8
0
 62
7
100
AcDbSpline
 70
8
 71
3
 72
8
 73
4
 74
0
 40
0
 40
0
 40
0
 40
0
 40
1
 40
1
 40
1
 40
1
 10
482.270966
 20
98.526535
 30
0.0
 10
479.772339
 20
101.025162
 30
0.0
 10
476.383636
 20
102.428421
 30
0.0
 10
472.850311
 20
102.428421
 30
0.0
  0
SPLINE
  5
20f
100
AcDbEntity
  8
0
 62
7
100
AcDbSpline
 70
8
 71
3
 72
8
 73
4
 74
0
 40
0
 40
0
 40
0
 40
0
 40
1
 40
1
 40
1
 40
1
 10
472.850311
 20
102.428421
 30
0.0
 10
469.316986
 20
102.428421
 30
0.0
 10
465.928284
 20
101.025162
 30
0.0
 10
463.429657
 20
98.526535
 30
0.0
  0
SPLINE
  5
210
100
AcDbEntity
  8
0
 62
7
100
AcDbSpline
 70
8
 71
3
 72
8
 73
4
 74
0
 40
0
 40
0
 40
0
 40
0
 40
1
 40
1
 40
1
 40
1
 10
463.429657
 20
98.526535
 30
0.0
 10
460.931030
 20
96.027909
 30
0.0
 10
459.527771
 20
92.639206
 30
0.0
 10
459.527771
 20
89.105881
 30
0.0
  0
SPLINE
  5
211
100
AcDbEntity
  8
0
 62
7
100
AcDbSpline
 70
8
 71
3
 72
8
 73
4
 74
0
 40
0
 40
0
 40
0
 40
0
 40
1
 40
1
 40
1
 40
1
 10
459.527771
 20
89.105881
 30
0.0
 10
459.527771
 20
88.374649
 30
0.0
 10
459.587875
 20
87.649597
 30
0.0
 10
459.705353
 20
86.937348
 30
0.0
  0
SPLINE
  5
212
100
AcDbEntity
  8
0
 62
7
100
AcDbSpline
 70
8
 71
3
 72
8
 73
4
 74
0
 40
0
 40
0
 40
0
 40
0
 40
1
 40
1
 40
1
 40
1
 10
459.705383
 20
86.937302
 30
0.0
 10
457.485641
 20
86.685532
 30
0.0
 10
455.403488
 20
85.689514
 30
0.0
 10
453.808456
 20
84.094483
 30
0.0
  0
SPLINE
  5
213
100
AcDbEntity
  8
0
 62
7
100
AcDbSpline
 70
8
 71
3
 72
8
 73
4
 74
0
 40
0
 40
0
 40
0
 40
0
 40
1
 40
1
 40
1
 40
1
 10
453.808456
 20
84.094483
 30
0.0
 10
451.947922
 20
82.233948
 30
0.0
 10
450.902435
 20
79.710648
 30
0.0
 10
450.902435
 20
77.079254
 30
0.0
  0
SPLINE
  5
214
100
AcDbEntity
  8
0
 62
7
100
AcDbSpline
 70
8
 71
3
 72
8
 73
4
 74
0
 40
0
 40
0
 40
0
 40
0
 40
1
 40
1
 40
1
 40
1
 10
450.902435
 20
77.079254
 30
0.0
 10
450.902435
 20
74.447861
 30
0.0
 10
451.947922
 20
71.924561
 30
0.0
 10
453.808456
 20
70.064026
 30
0.0
  0
SPLINE
  5
215
100
AcDbEntity
  8
0
 62
7
100
AcDbSpline
 70
8
 71
3
 72
8
 73
4
 74
0
 40
0
 40
0
 40
0
 40
0
 40
1
 40
1
 40
1
 40
1
 10
453.808456
 20
70.064026
 30
0.0
 10
455.668991
 20
68.203491
 30
0.0
 10
458.192291
 20
67.158005
 30
0.0
 10
460.823685
 20
67.158005
 30
0.0
  0
SPLINE
  5
216
100
AcDbEntity
  8
0
 62
7
100
AcDbSpline
 70
8
 71
3
 72
8
 73
4
 74
0
 40
0
 40
0
 40
0
 40
0
 40
1
 40
1
 40
1
 40
1
 10
460.823685
 20
67.158005
 30
0.0
 10
463.455078
 20
67.158005
 30
0.0
 10
465.978378
 20
68.203491
 30
0.0
 10
467.838913
 20
70.064026
 30
0.0
  0
SPLINE
  5
217
100
AcDbEntity
  8
0
 62
7
100
AcDbSpline
 70
8
 71
3
 72
8
 73
4
 74
0
 40
0
 40
0
 40
0
 40
0
 40
1
 40
1
 40
1
 40
1
 10
467.838913
 20
70.064026
 30
0.0
 10
469.433945
 20
71.659058
 30
0.0
 10
470.429962
 20
73.741211
 30
0.0
 10
470.681732
 20
75.960953
 30
0.0
  0
SPLINE
  5
218
100
AcDbEntity
  8
0
 62
7
100
AcDbSpline
 70
8
 71
3
 72
8
 73
4
 74
0
 40
0
 40
0
 40
0
 40
0
 40
1
 40
1
 40
1
 40
1
 10
527.374527
 20
75.960938
 30
0.0
 10
528.086823
 20
75.843445
 30
0.0
 10
528.811920
 20
75.783341
 30
0.0
 10
529.543213
 20
75.783341
 30
0.0
  0
SPLINE
  5
219
100
AcDbEntity
  8
0
 62
7
100
AcDbSpline
 70
8
 71
3
 72
8
 73
4
 74
0
 40
0
 40
0
 40
0
 40
0
 40
1
 40
1
 40
1
 40
1
 10
529.543213
 20
75.783341
 30
0.0
 10
533.076538
 20
75.783341
 30
0.0
 10
536.465240
 20
77.186600
 30
0.0
 10
538.963867
 20
79.685227
 30
0.0
  0
SPLINE
  5
21a
100
AcDbEntity
  8
0
 62
7
100
AcDbSpline
 70
8
 71
3
 72
8
 73
4
 74
0
 40
0
 40
0
 40
0
 40
0
 40
1
 40
1
 40
1
 40
1
 10
538.963867
 20
79.685227
 30
0.0
 10
541.462494
 20
82.183853
 30
0.0
 10
542.865753
 20
85.572556
 30
0.0
 10
542.865753
 20
89.105881
 30
0.0
  0
SPLINE
  5
21b
100
AcDbEntity
  8
0
 62
7
100
AcDbSpline
 70
8
 71
3
 72
8
 73
4
 74
0
 40
0
 40
0
 40
0
 40
0
 40
1
 40
1
 40
1
 40
1
 10
542.865753
 20
89.105881
 30
0.0
 10
542.865753
 20
92.639206
 30
0.0
 10
541.462494
 20
96.027909
 30
0.0
 10
538.963867
 20
98.526535
 30
0.0
  0
SPLINE
  5
21c
100
AcDbEntity
  8
0
 62
7
100
AcDbSpline
 70
8
 71
3
 72
8
 73
4
 74
0
 40
0
 40
0
 40
0
 40
0
 40
1
 40
1
 40
1
 40
1
 10
538.963867
 20
98.526535
 30
0.0
 10
536.465240
 20
101.025162
 30
0.0
 10
533.076538
 20
102.428421
 30
0.0
 10
529.543213
 20
102.428421
 30
0.0
  0
SPLINE
  5
21d
100
AcDbEntity
  8
0
 62
7
100
AcDbSpline
 70
8
 71
3
 72
8
 73
4
 74
0
 40
0
 40
0
 40
0
 40
0
 40
1
 40
1
 40
1
 40
1
 10
529.543213
 20
102.428421
 30
0.0
 10
526.009888
 20
102.428421
 30
0.0
 10
522.621185
 20
101.025162
 30
0.0
 10
520.122559
 20
98.526535
 30
0.0
  0
SPLINE
  5
21e
100
AcDbEntity
  8
0
 62
7
100
AcDbSpline
 70
8
 71
3
 72
8
 73
4
 74
0
 40
0
 40
0
 40
0
 40
0
 40
1
 40
1
 40
1
 40
1
 10
520.122559
 20
98.526535
 30
0.0
 10
517.623932
 20
96.027909
 30
0.0
 10
516.220673
 20
92.639206
 30
0.0
 10
516.220673
 20
89.105881
 30
0.0
  0
SPLINE
  5
21f
100
AcDbEntity
  8
0
 62
7
100
AcDbSpline
 70
8
 71
3
 72
8
 73
4
 74
0
 40
0
 40
0
 40
0
 40
0
 40
1
 40
1
 40
1
 40
1
 10
516.220673
 20
89.105881
 30
0.0
 10
516.220673
 20
88.374649
 30
0.0
 10
516.280777
 20
87.649597
 30
0.0
 10
516.398254
 20
86.937348
 30
0.0
  0
SPLINE
  5
220
100
AcDbEntity
  8
0
 62
7
100
AcDbSpline
 70
8
 71
3
 72
8
 73
4
 74
0
 40
0
 40
0
 40
0
 40
0
 40
1
 40
1
 40
1
 40
1
 10
516.398285
 20
86.937302
 30
0.0
 10
514.178543
 20
86.685532
 30
0.0
 10
512.096390
 20
85.689514
 30
0.0
 10
510.501358
 20
84.094483
 30
0.0
  0
SPLINE
  5
221
100
AcDbEntity
  8
0
 62
7
100
AcDbSpline
 70
8
 71
3
 72
8
 73
4
 74
0
 40
0
 40
0
 40
0
 40
0
 40
1
 40
1
 40
1
 40
1
 10
510.501358
 20
84.094483
 30
0.0
 10
508.640823
 20
82.233948
 30
0.0
 10
507.595337
 20
79.710648
 30
0.0
 10
507.595337
 20
77.079254
 30
0.0
  0
SPLINE
  5
222
100
AcDbEntity
  8
0
 62
7
100
AcDbSpline
 70
8
 71
3
 72
8
 73
4
 74
0
 40
0
 40
0
 40
0
 40
0
 40
1
 40
1
 40
1
 40
1
 10
507.595337
 20
77.079254
 30
0.0
 10
507.595337
 20
74.447861
 30
0.0
 10
508.640823
 20
71.924561
 30
0.0
 10
510.501358
 20
70.064026
 30
0.0
  0
SPLINE
  5
223
100
AcDbEntity
  8
0
 62
7
100
AcDbSpline
 70
8
 71
3
 72
8
 73
4
 74
0
 40
0
 40
0
 40
0
 40
0
 40
1
 40
1
 40
1
 40
1
 10
510.501358
 20
70.064026
 30
0.0
 10
512.361893
 20
68.203491
 30
0.0
 10
514.885193
 20
67.158005
 30
0.0
 10
517.516586
 20
67.158005
 30
0.0
  0
SPLINE
  5
224
100
AcDbEntity
  8
0
 62
7
100
AcDbSpline
 70
8
 71
3
 72
8
 73
4
 74
0
 40
0
 40
0
 40
0
 40
0
 40
1
 40
1
 40
1
 40
1
 10
517.516586
 20
67.158005
 30
0.0
 10
520.147980
 20
67.158005
 30
0.0
 10
522.671280
 20
68.203491
 30
0.0
 10
524.531815
 20
70.064026
 30
0.0
  0
SPLINE
  5
225
100
AcDbEntity
  8
0
 62
7
100
AcDbSpline
 70
8
 71
3
 72
8
 73
4
 74
0
 40
0
 40
0
 40
0
 40
0
 40
1
 40
1
 40
1
 40
1
 10
524.531815
 20
70.064026
 30
0.0
 10
526.126846
 20
71.659058
 30
0.0
 10
527.122864
 20
73.741211
 30
0.0
 10
527.374634
 20
75.960953
 30
0.0
  0
SPLINE
  5
226
100
AcDbEntity
  8
0
 62
7
100
AcDbSpline
 70
8
 71
3
 72
8
 73
4
 74
0
 40
0
 40
0
 40
0
 40
0
 40
1
 40
1
 40
1
 40
1
 10
584.067429
 20
75.960938
 30
0.0
 10
584.779724
 20
75.843445
 30
0.0
 10
585.504822
 20
75.783341
 30
0.0
 10
586.236115
 20
75.783341
 30
0.0
  0
SPLINE
  5
227
100
AcDbEntity
  8
0
 62
7
100
AcDbSpline
 70
8
 71
3
 72
8
 73
4
 74
0
 40
0
 40
0
 40
0
 40
0
 40
1
 40
1
 40
1
 40
1
 10
586.236115
 20
75.783341
 30
0.0
 10
589.769440
 20
75.783341
 30
0.0
 10
593.158142
 20
77.186600
 30
0.0
 10
595.656769
 20
79.685227
 30
0.0
  0
SPLINE
  5
228
100
AcDbEntity
  8
0
 62
7
100
AcDbSpline
 70
8
 71
3
 72
8
 73
4
 74
0
 40
0
 40
0
 40
0
 40
0
 40
1
 40
1
 40
1
 40
1
 10
595.656769
 20
79.685227
 30
0.0
 10
598.155396
 20
82.183853
 30
0.0
 10
599.558655
 20
85.572556
 30
0.0
 10
599.558655
 20
89.105881
 30
0.0
  0
SPLINE
  5
229
100
AcDbEntity
  8
0
 62
7
100
AcDbSpline
 70
8
 71
3
 72
8
 73
4
 74
0
 40
0
 40
0
 40
0
 40
0
 40
1
 40
1
 40
1
 40
1
 10
599.558655
 20
89.105881
 30
0.0
 10
599.558655
 20
92.639206
 30
0.0
 10
598.155396
 20
96.027909
 30
0.0
 10
595.656769
 20
98.526535
 30
0.0
  0
SPLINE
  5
22a
100
AcDbEntity
  8
0
 62
7
100
AcDbSpline
 70
8
 71
3
 72
8
 73
4
 74
0
 40
0
 40
0
 40
0
 40
0
 40
1
 40
1
 40
1
 40
1
 10
595.656769
 20
98.526535
 30
0.0
 10
593.158142
 20
101.025162
 30
0.0
 10
589.769440
 20
102.428421
 30
0.0
 10
586.236115
 20
102.428421
 30
0.0
  0
SPLINE
  5
22b
100
AcDbEntity
  8
0
 62
7
100
AcDbSpline
 70
8
 71
3
 72
8
 73
4
 74
0
 40
0
 40
0
 40
0
 40
0
 40
1
 40
1
 40
1
 40
1
 10
586.236115
 20
102.428421
 30
0.0
 10
582.702789
 20
102.428421
 30
0.0
 10
579.314087
 20
101.025162
 30
0.0
 10
576.815460
 20
98.526535
 30
0.0
  0
SPLINE
  5
22c
100
AcDbEntity
  8
0
 62
7
100
AcDbSpline
 70
8
 71
3
 72
8
 73
4
 74
0
 40
0
 40
0
 40
0
 40
0
 40
1
 40
1
 40
1
 40
1
 10
576.815460
 20
98.526535
 30
0.0
 10
574.316833
 20
96.027909
 30
0.0
 10
572.913574
 20
92.639206
 30
0.0
 10
572.913574
 20
89.105881
 30
0.0
  0
SPLINE
  5
22d
100
AcDbEntity
  8
0
 62
7
100
AcDbSpline
 70
8
 71
3
 72
8
 73
4
 74
0
 40
0
 40
0
 40
0
 40
0
 40
1
 40
1
 40
1
 40
1
 10
572.913574
 20
89.105881
 30
0.0
 10
572.913574
 20
88.374649
 30
0.0
 10
572.973679
 20
87.649597
 30
0.0
 10
573.091156
 20
86.937348
 30
0.0
  0
SPLINE
  5
22e
100
AcDbEntity
  8
0
 62
7
100
AcDbSpline
 70
8
 71
3
 72
8
 73
4
 74
0
 40
0
 40
0
 40
0
 40
0
 40
1
 40
1
 40
1
 40
1
 10
573.091187
 20
86.937302
 30
0.0
 10
570.871445
 20
86.685532
 30
0.0
 10
568.789291
 20
85.689514
 30
0.0
 10
567.194260
 20
84.094483
 30
0.0
  0
SPLINE
  5
22f
100
AcDbEntity
  8
0
 62
7
100
AcDbSpline
 70
8
 71
3
 72
8
 73
4
 74
0
 40
0
 40
0
 40
0
 40
0
 40
1
 40
1
 40
1
 40
1
 10
567.194260
 20
84.094483
 30
0.0
 10
565.333725
 20
82.233948
 30
0.0
 10
564.288239
 20
79.710648
 30
0.0
 10
564.288239
 20
77.079254
 30
0.0
  0
SPLINE
  5
230
100
AcDbEntity
  8
0
 62
7
100
AcDbSpline
 70
8
 71
3
 72
8
 73
4
 74
0
 40
0
 40
0
 40
0
 40
0
 40
1
 40
1
 40
1
 40
1
 10
564.288239
 20
77.079254
 30
0.0
 10
564.288239
 20
74.447861
 30
0.0
 10
565.333725
 20
71.924561
 30
0.0
 10
567.194260
 20
70.064026
 30
0.0
  0
SPLINE
  5
231
100
AcDbEntity
  8
0
 62
7
100
AcDbSpline
 70
8
 71
3
 72
8
 73
4
 74
0
 40
0
 40
0
 40
0
 40
0
 40
1
 40
1
 40
1
 40
1
 10
567.194260
 20
70.064026
 30
0.0
 10
569.054794
 20
68.203491
 30
0.0
 10
571.578094
 20
67.158005
 30
0.0
 10
574.209488
 20
67.158005
 30
0.0
  0
SPLINE
  5
232
100
AcDbEntity
  8
0
 62
7
100
AcDbSpline
 70
8
 71
3
 72
8
 73
4
 74
0
 40
0
 40
0
 40
0
 40
0
 40
1
 40
1
 40
1
 40
1
 10
574.209488
 20
67.158005
 30
0.0
 10
576.840881
 20
67.158005
 30
0.0
 10
579.364182
 20
68.203491
 30
0.0
 10
581.224716
 20
70.064026
 30
0.0
  0
SPLINE
  5
233
100
AcDbEntity
  8
0
 62
7
100
AcDbSpline
 70
8
 71
3
 72
8
 73
4
 74
0
 40
0
 40
0
 40
0
 40
0
 40
1
 40
1
 40
1
 40
1
 10
581.224716
 20
70.064026
 30
0.0
 10
582.819748
 20
71.659058
 30
0.0
 10
583.815765
 20
73.741211
 30
0.0
 10
584.067535
 20
75.960953
 30
0.0
  0
SPLINE
  5
234
100
AcDbEntity
  8
0
 62
7
100
AcDbSpline
 70
8
 71
3
 72
8
 73
4
 74
0
 40
0
 40
0
 40
0
 40
0
 40
1
 40
1
 40
1
 40
1
 10
640.760330
 20
75.960938
 30
0.0
 10
641.472626
 20
75.843445
 30
0.0
 10
642.197723
 20
75.783341
 30
0.0
 10
642.929016
 20
75.783341
 30
0.0
  0
SPLINE
  5
235
100
AcDbEntity
  8
0
 62
7
100
AcDbSpline
 70
8
 71
3
 72
8
 73
4
 74
0
 40
0
 40
0
 40
0
 40
0
 40
1
 40
1
 40
1
 40
1
 10
642.929016
 20
75.783341
 30
0.0
 10
646.462341
 20
75.783341
 30
0.0
 10
649.851044
 20
77.186600
 30
0.0
 10
652.349670
 20
79.685227
 30
0.0
  0
SPLINE
  5
236
100
AcDbEntity
  8
0
 62
7
100
AcDbSpline
 70
8
 71
3
 72
8
 73
4
 74
0
 40
0
 40
0
 40
0
 40
0
 40
1
 40
1
 40
1
 40
1
 10
652.349670
 20
79.685227
 30
0.0
 10
654.848297
 20
82.183853
 30
0.0
 10
656.251556
 20
85.572556
 30
0.0
 10
656.251556
 20
89.105881
 30
0.0
  0
SPLINE
  5
237
100
AcDbEntity
  8
0
 62
7
100
AcDbSpline
 70
8
 71
3
 72
8
 73
4
 74
0
 40
0
 40
0
 40
0
 40
0
 40
1
 40
1
 40
1
 40
1
 10
656.251556
 20
89.105881
 30
0.0
 10
656.251556
 20
92.639206
 30
0.0
 10
654.848297
 20
96.027909
 30
0.0
 10
652.349670
 20
98.526535
 30
0.0
  0
SPLINE
  5
238
100
AcDbEntity
  8
0
 62
7
100
AcDbSpline
 70
8
 71
3
 72
8
 73
4
 74
0
 40
0
 40
0
 40
0
 40
0
 40
1
 40
1
 40
1
 40
1
 10
652.349670
 20
98.526535
 30
0.0
 10
649.851044
 20
101.025162
 30
0.0
 10
646.462341
 20
102.428421
 30
0.0
 10
642.929016
 20
102.428421
 30
0.0
  0
SPLINE
  5
239
100
AcDbEntity
  8
0
 62
7
100
AcDbSpline
 70
8
 71
3
 72
8
 73
4
 74
0
 40
0
 40
0
 40
0
 40
0
 40
1
 40
1
 40
1
 40
1
 10
642.929016
 20
102.428421
 30
0.0
 10
639.395691
 20
102.428421
 30
0.0
 10
636.006989
 20
101.025162
 30
0.0
 10
633.508362
 20
98.526535
 30
0.0
  0
SPLINE
  5
23a
100
AcDbEntity
  8
0
 62
7
100
AcDbSpline
 70
8
 71
3
 72
8
 73
4
 74
0
 40
0
 40
0
 40
0
 40
0
 40
1
 40
1
 40
1
 40
1
 10
633.508362
 20
98.526535
 30
0.0
 10
631.009735
 20
96.027909
 30
0.0
 10
629.606476
 20
92.639206
 30
0.0
 10
629.606476
 20
89.105881
 30
0.0
  0
SPLINE
  5
23b
100
AcDbEntity
  8
0
 62
7
100
AcDbSpline
 70
8
 71
3
 72
8
 73
4
 74
0
 40
0
 40
0
 40
0
 40
0
 40
1
 40
1
 40
1
 40
1
 10
629.606476
 20
89.105881
 30
0.0
 10
629.606476
 20
88.374649
 30
0.0
 10
629.666580
 20
87.649597
 30
0.0
 10
629.784058
 20
86.937348
 30
0.0
  0
SPLINE
  5
23c
100
AcDbEntity
  8
0
 62
7
100
AcDbSpline
 70
8
 71
3
 72
8
 73
4
 74
0
 40
0
 40
0
 40
0
 40
0
 40
1
 40
1
 40
1
 40
1
 10
629.784088
 20
86.937302
 30
0.0
 10
627.564346
 20
86.685532
 30
0.0
 10
625.482193
 20
85.689514
 30
0.0
 10
623.887161
 20
84.094483
 30
0.0
  0
SPLINE
  5
23d
100
AcDbEntity
  8
0
 62
7
100
AcDbSpline
 70
8
 71
3
 72
8
 73
4
 74
0
 40
0
 40
0
 40
0
 40
0
 40
1
 40
1
 40
1
 40
1
 10
623.887161
 20
84.094483
 30
0.0
 10
622.026627
 20
82.233948
 30
0.0
 10
620.981140
 20
79.710648
 30
0.0
 10
620.981140
 20
77.079254
 30
0.0
  0
SPLINE
  5
23e
100
AcDbEntity
  8
0
 62
7
100
AcDbSpline
 70
8
 71
3
 72
8
 73
4
 74
0
 40
0
 40
0
 40
0
 40
0
 40
1
 40
1
 40
1
 40
1
 10
620.981140
 20
77.079254
 30
0.0
 10
620.981140
 20
74.447861
 30
0.0
 10
622.026627
 20
71.924561
 30
0.0
 10
623.887161
 20
70.064026
 30
0.0
  0
SPLINE
  5
23f
100
AcDbEntity
  8
0
 62
7
100
AcDbSpline
 70
8
 71
3
 72
8
 73
4
 74
0
 40
0
 40
0
 40
0
 40
0
 40
1
 40
1
 40
1
 40
1
 10
623.887161
 20
70.064026
 30
0.0
 10
625.747696
 20
68.203491
 30
0.0
 10
628.270996
 20
67.158005
 30
0.0
 10
630.902390
 20
67.158005
 30
0.0
  0
SPLINE
  5
240
100
AcDbEntity
  8
0
 62
7
100
AcDbSpline
 70
8
 71
3
 72
8
 73
4
 74
0
 40
0
 40
0
 40
0
 40
0
 40
1
 40
1
 40
1
 40
1
 10
630.902390
 20
67.158005
 30
0.0
 10
633.533783
 20
67.158005
 30
0.0
 10
636.057083
 20
68.203491
 30
0.0
 10
637.917618
 20
70.064026
 30
0.0
  0
SPLINE
  5
241
100
AcDbEntity
  8
0
 62
7
100
AcDbSpline
 70
8
 71
3
 72
8
 73
4
 74
0
 40
0
 40
0
 40
0
 40
0
 40
1
 40
1
 40
1
 40
1
 10
637.917618
 20
70.064026
 30
0.0
 10
639.512650
 20
71.659058
 30
0.0
 10
640.508667
 20
73.741211
 30
0.0
 10
640.760437
 20
75.960953
 30
0.0
  0
SPLINE
  5
242
100
AcDbEntity
  8
0
 62
7
100
AcDbSpline
 70
8
 71
3
 72
8
 73
4
 74
0
 40
0
 40
0
 40
0
 40
0
 40
1
 40
1
 40
1
 40
1
 10
697.453232
 20
75.960938
 30
0.0
 10
698.165527
 20
75.843445
 30
0.0
 10
698.890625
 20
75.783341
 30
0.0
 10
699.621918
 20
75.783341
 30
0.0
  0
SPLINE
  5
243
100
AcDbEntity
  8
0
 62
7
100
AcDbSpline
 70
8
 71
3
 72
8
 73
4
 74
0
 40
0
 40
0
 40
0
 40
0
 40
1
 40
1
 40
1
 40
1
 10
699.621918
 20
75.783341
 30
0.0
 10
703.155243
 20
75.783341
 30
0.0
 10
706.543945
 20
77.186600
 30
0.0
 10
709.042572
 20
79.685227
 30
0.0
  0
SPLINE
  5
244
100
AcDbEntity
  8
0
 62
7
100
AcDbSpline
 70
8
 71
3
 72
8
 73
4
 74
0
 40
0
 40
0
 40
0
 40
0
 40
1
 40
1
 40
1
 40
1
 10
709.042572
 20
79.685227
 30
0.0
 10
711.541199
 20
82.183853
 30
0.0
 10
712.944458
 20
85.572556
 30
0.0
 10
712.944458
 20
89.105881
 30
0.0
  0
SPLINE
  5
245
100
AcDbEntity
  8
0
 62
7
100
AcDbSpline
 70
8
 71
3
 72
8
 73
4
 74
0
 40
0
 40
0
 40
0
 40
0
 40
1
 40
1
 40
1
 40
1
 10
712.944458
 20
89.105881
 30
0.0
 10
712.944458
 20
92.639206
 30
0.0
 10
711.541199
 20
96.027909
 30
0.0
 10
709.042572
 20
98.526535
 30
0.0
  0
SPLINE
  5
246
100
AcDbEntity
  8
0
 62
7
100
AcDbSpline
 70
8
 71
3
 72
8
 73
4
 74
0
 40
0
 40
0
 40
0
 40
0
 40
1
 40
1
 40
1
 40
1
 10
709.042572
 20
98.526535
 30
0.0
 10
706.543945
 20
101.025162
 30
0.0
 10
703.155243
 20
102.428421
 30
0.0
 10
699.621918
 20
102.428421
 30
0.0
  0
SPLINE
  5
247
100
AcDbEntity
  8
0
 62
7
100
AcDbSpline
 70
8
 71
3
 72
8
 73
4
 74
0
 40
0
 40
0
 40
0
 40
0
 40
1
 40
1
 40
1
 40
1
 10
699.621918
 20
102.428421
 30
0.0
 10
696.088593
 20
102.428421
 30
0.0
 10
692.699890
 20
101.025162
 30
0.0
 10
690.201263
 20
98.526535
 30
0.0
  0
SPLINE
  5
248
100
AcDbEntity
  8
0
 62
7
100
AcDbSpline
 70
8
 71
3
 72
8
 73
4
 74
0
 40
0
 40
0
 40
0
 40
0
 40
1
 40
1
 40
1
 40
1
 10
690.201263
 20
98.526535
 30
0.0
 10
687.702637
 20
96.027909
 30
0.0
 10
686.299377
 20
92.639206
 30
0.0
 10
686.299377
 20
89.105881
 30
0.0
  0
SPLINE
  5
249
100
AcDbEntity
  8
0
 62
7
100
AcDbSpline
 70
8
 71
3
 72
8
 73
4
 74
0
 40
0
 40
0
 40
0
 40
0
 40
1
 40
1
 40
1
 40
1
 10
686.299377
 20
89.105881
 30
0.0
 10
686.299377
 20
88.374649
 30
0.0
 10
686.359482
 20
87.649597
 30
0.0
 10
686.476959
 20
86.937348
 30
0.0
  0
SPLINE
  5
24a
100
AcDbEntity
  8
0
 62
7
100
AcDbSpline
 70
8
 71
3
 72
8
 73
4
 74
0
 40
0
 40
0
 40
0
 40
0
 40
1
 40
1
 40
1
 40
1
 10
686.476990
 20
86.937302
 30
0.0
 10
684.257248
 20
86.685532
 30
0.0
 10
682.175095
 20
85.689514
 30
0.0
 10
680.580063
 20
84.094483
 30
0.0
  0
SPLINE
  5
24b
100
AcDbEntity
  8
0
 62
7
100
AcDbSpline
 70
8
 71
3
 72
8
 73
4
 74
0
 40
0
 40
0
 40
0
 40
0
 40
1
 40
1
 40
1
 40
1
 10
680.580063
 20
84.094483
 30
0.0
 10
678.719528
 20
82.233948
 30
0.0
 10
677.674042
 20
79.710648
 30
0.0
 10
677.674042
 20
77.079254
 30
0.0
  0
SPLINE
  5
24c
100
AcDbEntity
  8
0
 62
7
100
AcDbSpline
 70
8
 71
3
 72
8
 73
4
 74
0
 40
0
 40
0
 40
0
 40
0
 40
1
 40
1
 40
1
 40
1
 10
677.674042
 20
77.079254
 30
0.0
 10
677.674042
 20
74.447861
 30
0.0
 10
678.719528
 20
71.924561
 30
0.0
 10
680.580063
 20
70.064026
 30
0.0
  0
SPLINE
  5
24d
100
AcDbEntity
  8
0
 62
7
100
AcDbSpline
 70
8
 71
3
 72
8
 73
4
 74
0
 40
0
 40
0
 40
0
 40
0
 40
1
 40
1
 40
1
 40
1
 10
680.580063
 20
70.064026
 30
0.0
 10
682.440598
 20
68.203491
 30
0.0
 10
684.963898
 20
67.158005
 30
0.0
 10
687.595291
 20
67.158005
 30
0.0
  0
SPLINE
  5
24e
100
AcDbEntity
  8
0
 62
7
100
AcDbSpline
 70
8
 71
3
 72
8
 73
4
 74
0
 40
0
 40
0
 40
0
 40
0
 40
1
 40
1
 40
1
 40
1
 10
687.595291
 20
67.158005
 30
0.0
 10
690.226685
 20
67.158005
 30
0.0
 10
692.749985
 20
68.203491
 30
0.0
 10
694.610519
 20
70.064026
 30
0.0
  0
SPLINE
  5
24f
100
AcDbEntity
  8
0
 62
7
100
AcDbSpline
 70
8
 71
3
 72
8
 73
4
 74
0
 40
0
 40
0
 40
0
 40
0
 40
1
 40
1
 40
1
 40
1
 10
694.610519
 20
70.064026
 30
0.0
 10
696.205551
 20
71.659058
 30
0.0
 10
697.201569
 20
73.741211
 30
0.0
 10
697.453339
 20
75.960953
 30
0.0
  0
SPLINE
  5
250
100
AcDbEntity
  8
0
 62
7
100
AcDbSpline
 70
8
 71
3
 72
8
 73
4
 74
0
 40
0
 40
0
 40
0
 40
0
 40
1
 40
1
 40
1
 40
1
 10
754.146133
 20
75.960938
 30
0.0
 10
754.858429
 20
75.843445
 30
0.0
 10
755.583527
 20
75.783341
 30
0.0
 10
756.314819
 20
75.783341
 30
0.0
  0
SPLINE
  5
251
100
AcDbEntity
  8
0
 62
7
100
AcDbSpline
 70
8
 71
3
 72
8
 73
4
 74
0
 40
0
 40
0
 40
0
 40
0
 40
1
 40
1
 40
1
 40
1
 10
756.314819
 20
75.783341
 30
0.0
 10
759.848145
 20
75.783341
 30
0.0
 10
763.236847
 20
77.186600
 30
0.0
 10
765.735474
 20
79.685227
 30
0.0
  0
SPLINE
  5
252
100
AcDbEntity
  8
0
 62
7
100
AcDbSpline
 70
8
 71
3
 72
8
 73
4
 74
0
 40
0
 40
0
 40
0
 40
0
 40
1
 40
1
 40
1
 40
1
 10
765.735474
 20
79.685227
 30
0.0
 10
768.234100
 20
82.183853
 30
0.0
 10
769.637360
 20
85.572556
 30
0.0
 10
769.637360
 20
89.105881
 30
0.0
  0
SPLINE
  5
253
100
AcDbEntity
  8
0
 62
7
100
AcDbSpline
 70
8
 71
3
 72
8
 73
4
 74
0
 40
0
 40
0
 40
0
 40
0
 40
1
 40
1
 40
1
 40
1
 10
769.637360
 20
89.105881
 30
0.0
 10
769.637360
 20
92.639206
 30
0.0
 10
768.234100
 20
96.027909
 30
0.0
 10
765.735474
 20
98.526535
 30
0.0
  0
SPLINE
  5
254
100
AcDbEntity
  8
0
 62
7
100
AcDbSpline
 70
8
 71
3
 72
8
 73
4
 74
0
 40
0
 40
0
 40
0
 40
0
 40
1
 40
1
 40
1
 40
1
 10
765.735474
 20
98.526535
 30
0.0
 10
763.236847
 20
101.025162
 30
0.0
 10
759.848145
 20
102.428421
 30
0.0
 10
756.314819
 20
102.428421
 30
0.0
  0
SPLINE
  5
255
100
AcDbEntity
  8
0
 62
7
100
AcDbSpline
 70
8
 71
3
 72
8
 73
4
 74
0
 40
0
 40
0
 40
0
 40
0
 40
1
 40
1
 40
1
 40
1
 10
756.314819
 20
102.428421
 30
0.0
 10
752.781494
 20
102.428421
 30
0.0
 10
749.392792
 20
101.025162
 30
0.0
 10
746.894165
 20
98.526535
 30
0.0
  0
SPLINE
  5
256
100
AcDbEntity
  8
0
 62
7
100
AcDbSpline
 70
8
 71
3
 72
8
 73
4
 74
0
 40
0
 40
0
 40
0
 40
0
 40
1
 40
1
 40
1
 40
1
 10
746.894165
 20
98.526535
 30
0.0
 10
744.395538
 20
96.027909
 30
0.0
 10
742.992279
 20
92.639206
 30
0.0
 10
742.992279
 20
89.105881
 30
0.0
  0
SPLINE
  5
257
100
AcDbEntity
  8
0
 62
7
100
AcDbSpline
 70
8
 71
3
 72
8
 73
4
 74
0
 40
0
 40
0
 40
0
 40
0
 40
1
 40
1
 40
1
 40
1
 10
742.992279
 20
89.105881
 30
0.0
 10
742.992279
 20
88.374649
 30
0.0
 10
743.052383
 20
87.649597
 30
0.0
 10
743.169861
 20
86.937348
 30
0.0
  0
SPLINE
  5
258
100
AcDbEntity
  8
0
 62
7
100
AcDbSpline
 70
8
 71
3
 72
8
 73
4
 74
0
 40
0
 40
0
 40
0
 40
0
 40
1
 40
1
 40
1
 40
1
 10
743.169891
 20
86.937302
 30
0.0
 10
740.950150
 20
86.685532
 30
0.0
 10
738.867996
 20
85.689514
 30
0.0
 10
737.272964
 20
84.094483
 30
0.0
  0
SPLINE
  5
259
100
AcDbEntity
  8
0
 62
7
100
AcDbSpline
 70
8
 71
3
 72
8
 73
4
 74
0
 40
0
 40
0
 40
0
 40
0
 40
1
 40
1
 40
1
 40
1
 10
737.272964
 20
84.094483
 30
0.0
 10
735.412430
 20
82.233948
 30
0.0
 10
734.366943
 20
79.710648
 30
0.0
 10
734.366943
 20
77.079254
 30
0.0
  0
SPLINE
  5
25a
100
AcDbEntity
  8
0
 62
7
100
AcDbSpline
 70
8
 71
3
 72
8
 73
4
 74
0
 40
0
 40
0
 40
0
 40
0
 40
1
 40
1
 40
1
 40
1
 10
734.366943
 20
77.079254
 30
0.0
 10
734.366943
 20
74.447861
 30
0.0
 10
735.412430
 20
71.924561
 30
0.0
 10
737.272964
 20
70.064026
 30
0.0
  0
SPLINE
  5
25b
100
AcDbEntity
  8
0
 62
7
100
AcDbSpline
 70
8
 71
3
 72
8
 73
4
 74
0
 40
0
 40
0
 40
0
 40
0
 40
1
 40
1
 40
1
 40
1
 10
737.272964
 20
70.064026
 30
0.0
 10
739.133499
 20
68.203491
 30
0.0
 10
741.656799
 20
67.158005
 30
0.0
 10
744.288193
 20
67.158005
 30
0.0
  0
SPLINE
  5
25c
100
AcDbEntity
  8
0
 62
7
100
AcDbSpline
 70
8
 71
3
 72
8
 73
4
 74
0
 40
0
 40
0
 40
0
 40
0
 40
1
 40
1
 40
1
 40
1
 10
744.288193
 20
67.158005
 30
0.0
 10
746.919586
 20
67.158005
 30
0.0
 10
749.442886
 20
68.203491
 30
0.0
 10
751.303421
 20
70.064026
 30
0.0
  0
SPLINE
  5
25d
100
AcDbEntity
  8
0
 62
7
100
AcDbSpline
 70
8
 71
3
 72
8
 73
4
 74
0
 40
0
 40
0
 40
0
 40
0
 40
1
 40
1
 40
1
 40
1
 10
751.303421
 20
70.064026
 30
0.0
 10
752.898453
 20
71.659058
 30
0.0
 10
753.894470
 20
73.741211
 30
0.0
 10
754.146240
 20
75.960953
 30
0.0
  0
SPLINE
  5
25e
100
AcDbEntity
  8
0
 62
7
100
AcDbSpline
 70
8
 71
3
 72
8
 73
4
 74
0
 40
0
 40
0
 40
0
 40
0
 40
1
 40
1
 40
1
 40
1
 10
102.177765
 20
125.058563
 30
0.0
 10
102.890060
 20
124.941071
 30
0.0
 10
103.615158
 20
124.880966
 30
0.0
 10
104.346451
 20
124.880966
 30
0.0
  0
SPLINE
  5
25f
100
AcDbEntity
  8
0
 62
7
100
AcDbSpline
 70
8
 71
3
 72
8
 73
4
 74
0
 40
0
 40
0
 40
0
 40
0
 40
1
 40
1
 40
1
 40
1
 10
104.346451
 20
124.880966
 30
0.0
 10
107.879776
 20
124.880966
 30
0.0
 10
111.268478
 20
126.284226
 30
0.0
 10
113.767105
 20
128.782852
 30
0.0
  0
SPLINE
  5
260
100
AcDbEntity
  8
0
 62
7
100
AcDbSpline
 70
8
 71
3
 72
8
 73
4
 74
0
 40
0
 40
0
 40
0
 40
0
 40
1
 40
1
 40
1
 40
1
 10
113.767105
 20
128.782852
 30
0.0
 10
116.265732
 20
131.281479
 30
0.0
 10
117.668991
 20
134.670182
 30
0.0
 10
117.668991
 20
138.203507
 30
0.0
  0
SPLINE
  5
261
100
AcDbEntity
  8
0
 62
7
100
AcDbSpline
 70
8
 71
3
 72
8
 73
4
 74
0
 40
0
 40
0
 40
0
 40
0
 40
1
 40
1
 40
1
 40
1
 10
117.668991
 20
138.203507
 30
0.0
 10
117.668991
 20
141.736832
 30
0.0
 10
116.265732
 20
145.125534
 30
0.0
 10
113.767105
 20
147.624161
 30
0.0
  0
SPLINE
  5
262
100
AcDbEntity
  8
0
 62
7
100
AcDbSpline
 70
8
 71
3
 72
8
 73
4
 74
0
 40
0
 40
0
 40
0
 40
0
 40
1
 40
1
 40
1
 40
1
 10
113.767105
 20
147.624161
 30
0.0
 10
111.268478
 20
150.122788
 30
0.0
 10
107.879776
 20
151.526047
 30
0.0
 10
104.346451
 20
151.526047
 30
0.0
  0
SPLINE
  5
263
100
AcDbEntity
  8
0
 62
7
100
AcDbSpline
 70
8
 71
3
 72
8
 73
4
 74
0
 40
0
 40
0
 40
0
 40
0
 40
1
 40
1
 40
1
 40
1
 10
104.346451
 20
151.526047
 30
0.0
 10
100.813126
 20
151.526047
 30
0.0
 10
97.424423
 20
150.122788
 30
0.0
 10
94.925797
 20
147.624161
 30
0.0
  0
SPLINE
  5
264
100
AcDbEntity
  8
0
 62
7
100
AcDbSpline
 70
8
 71
3
 72
8
 73
4
 74
0
 40
0
 40
0
 40
0
 40
0
 40
1
 40
1
 40
1
 40
1
 10
94.925797
 20
147.624161
 30
0.0
 10
92.427170
 20
145.125534
 30
0.0
 10
91.023911
 20
141.736832
 30
0.0
 10
91.023911
 20
138.203507
 30
0.0
  0
SPLINE
  5
265
100
AcDbEntity
  8
0
 62
7
100
AcDbSpline
 70
8
 71
3
 72
8
 73
4
 74
0
 40
0
 40
0
 40
0
 40
0
 40
1
 40
1
 40
1
 40
1
 10
91.023911
 20
138.203507
 30
0.0
 10
91.023911
 20
137.472275
 30
0.0
 10
91.084015
 20
136.747223
 30
0.0
 10
91.201492
 20
136.034973
 30
0.0
  0
SPLINE
  5
266
100
AcDbEntity
  8
0
 62
7
100
AcDbSpline
 70
8
 71
3
 72
8
 73
4
 74
0
 40
0
 40
0
 40
0
 40
0
 40
1
 40
1
 40
1
 40
1
 10
91.201523
 20
136.034928
 30
0.0
 10
88.981781
 20
135.783158
 30
0.0
 10
86.899628
 20
134.787140
 30
0.0
 10
85.304596
 20
133.192108
 30
0.0
  0
SPLINE
  5
267
100
AcDbEntity
  8
0
 62
7
100
AcDbSpline
 70
8
 71
3
 72
8
 73
4
 74
0
 40
0
 40
0
 40
0
 40
0
 40
1
 40
1
 40
1
 40
1
 10
85.304596
 20
133.192108
 30
0.0
 10
83.444061
 20
131.331574
 30
0.0
 10
82.398575
 20
128.808274
 30
0.0
 10
82.398575
 20
126.176880
 30
0.0
  0
SPLINE
  5
268
100
AcDbEntity
  8
0
 62
7
100
AcDbSpline
 70
8
 71
3
 72
8
 73
4
 74
0
 40
0
 40
0
 40
0
 40
0
 40
1
 40
1
 40
1
 40
1
 10
82.398575
 20
126.176880
 30
0.0
 10
82.398575
 20
123.545487
 30
0.0
 10
83.444061
 20
121.022187
 30
0.0
 10
85.304596
 20
119.161652
 30
0.0
  0
SPLINE
  5
269
100
AcDbEntity
  8
0
 62
7
100
AcDbSpline
 70
8
 71
3
 72
8
 73
4
 74
0
 40
0
 40
0
 40
0
 40
0
 40
1
 40
1
 40
1
 40
1
 10
85.304596
 20
119.161652
 30
0.0
 10
87.165131
 20
117.301117
 30
0.0
 10
89.688431
 20
116.255631
 30
0.0
 10
92.319824
 20
116.255631
 30
0.0
  0
SPLINE
  5
26a
100
AcDbEntity
  8
0
 62
7
100
AcDbSpline
 70
8
 71
3
 72
8
 73
4
 74
0
 40
0
 40
0
 40
0
 40
0
 40
1
 40
1
 40
1
 40
1
 10
92.319824
 20
116.255631
 30
0.0
 10
94.951218
 20
116.255631
 30
0.0
 10
97.474518
 20
117.301117
 30
0.0
 10
99.335052
 20
119.161652
 30
0.0
  0
SPLINE
  5
26b
100
AcDbEntity
  8
0
 62
7
100
AcDbSpline
 70
8
 71
3
 72
8
 73
4
 74
0
 40
0
 40
0
 40
0
 40
0
 40
1
 40
1
 40
1
 40
1
 10
99.335052
 20
119.161652
 30
0.0
 10
100.930084
 20
120.756684
 30
0.0
 10
101.926102
 20
122.838837
 30
0.0
 10
102.177872
 20
125.058579
 30
0.0
  0
SPLINE
  5
26c
100
AcDbEntity
  8
0
 62
7
100
AcDbSpline
 70
8
 71
3
 72
8
 73
4
 74
0
 40
0
 40
0
 40
0
 40
0
 40
1
 40
1
 40
1
 40
1
 10
158.870667
 20
125.058563
 30
0.0
 10
159.582962
 20
124.941071
 30
0.0
 10
160.308060
 20
124.880966
 30
0.0
 10
161.039352
 20
124.880966
 30
0.0
  0
SPLINE
  5
26d
100
AcDbEntity
  8
0
 62
7
100
AcDbSpline
 70
8
 71
3
 72
8
 73
4
 74
0
 40
0
 40
0
 40
0
 40
0
 40
1
 40
1
 40
1
 40
1
 10
161.039352
 20
124.880966
 30
0.0
 10
164.572678
 20
124.880966
 30
0.0
 10
167.961380
 20
126.284226
 30
0.0
 10
170.460007
 20
128.782852
 30
0.0
  0
SPLINE
  5
26e
100
AcDbEntity
  8
0
 62
7
100
AcDbSpline
 70
8
 71
3
 72
8
 73
4
 74
0
 40
0
 40
0
 40
0
 40
0
 40
1
 40
1
 40
1
 40
1
 10
170.460007
 20
128.782852
 30
0.0
 10
172.958633
 20
131.281479
 30
0.0
 10
174.361893
 20
134.670182
 30
0.0
 10
174.361893
 20
138.203507
 30
0.0
  0
SPLINE
  5
26f
100
AcDbEntity
  8
0
 62
7
100
AcDbSpline
 70
8
 71
3
 72
8
 73
4
 74
0
 40
0
 40
0
 40
0
 40
0
 40
1
 40
1
 40
1
 40
1
 10
174.361893
 20
138.203507
 30
0.0
 10
174.361893
 20
141.736832
 30
0.0
 10
172.958633
 20
145.125534
 30
0.0
 10
170.460007
 20
147.624161
 30
0.0
  0
SPLINE
  5
270
100
AcDbEntity
  8
0
 62
7
100
AcDbSpline
 70
8
 71
3
 72
8
 73
4
 74
0
 40
0
 40
0
 40
0
 40
0
 40
1
 40
1
 40
1
 40
1
 10
170.460007
 20
147.624161
 30
0.0
 10
167.961380
 20
150.122788
 30
0.0
 10
164.572678
 20
151.526047
 30
0.0
 10
161.039352
 20
151.526047
 30
0.0
  0
SPLINE
  5
271
100
AcDbEntity
  8
0
 62
7
100
AcDbSpline
 70
8
 71
3
 72
8
 73
4
 74
0
 40
0
 40
0
 40
0
 40
0
 40
1
 40
1
 40
1
 40
1
 10
161.039352
 20
151.526047
 30
0.0
 10
157.506027
 20
151.526047
 30
0.0
 10
154.117325
 20
150.122788
 30
0.0
 10
151.618698
 20
147.624161
 30
0.0
  0
SPLINE
  5
272
100
AcDbEntity
  8
0
 62
7
100
AcDbSpline
 70
8
 71
3
 72
8
 73
4
 74
0
 40
0
 40
0
 40
0
 40
0
 40
1
 40
1
 40
1
 40
1
 10
151.618698
 20
147.624161
 30
0.0
 10
149.120071
 20
145.125534
 30
0.0
 10
147.716812
 20
141.736832
 30
0.0
 10
147.716812
 20
138.203507
 30
0.0
  0
SPLINE
  5
273
100
AcDbEntity
  8
0
 62
7
100
AcDbSpline
 70
8
 71
3
 72
8
 73
4
 74
0
 40
0
 40
0
 40
0
 40
0
 40
1
 40
1
 40
1
 40
1
 10
147.716812
 20
138.203507
 30
0.0
 10
147.716812
 20
137.472275
 30
0.0
 10
147.776917
 20
136.747223
 30
0.0
 10
147.894394
 20
136.034973
 30
0.0
  0
SPLINE
  5
274
100
AcDbEntity
  8
0
 62
7
100
AcDbSpline
 70
8
 71
3
 72
8
 73
4
 74
0
 40
0
 40
0
 40
0
 40
0
 40
1
 40
1
 40
1
 40
1
 10
147.894424
 20
136.034928
 30
0.0
 10
145.674683
 20
135.783158
 30
0.0
 10
143.592529
 20
134.787140
 30
0.0
 10
141.997498
 20
133.192108
 30
0.0
  0
SPLINE
  5
275
100
AcDbEntity
  8
0
 62
7
100
AcDbSpline
 70
8
 71
3
 72
8
 73
4
 74
0
 40
0
 40
0
 40
0
 40
0
 40
1
 40
1
 40
1
 40
1
 10
141.997498
 20
133.192108
 30
0.0
 10
140.136963
 20
131.331574
 30
0.0
 10
139.091476
 20
128.808274
 30
0.0
 10
139.091476
 20
126.176880
 30
0.0
  0
SPLINE
  5
276
100
AcDbEntity
  8
0
 62
7
100
AcDbSpline
 70
8
 71
3
 72
8
 73
4
 74
0
 40
0
 40
0
 40
0
 40
0
 40
1
 40
1
 40
1
 40
1
 10
139.091476
 20
126.176880
 30
0.0
 10
139.091476
 20
123.545487
 30
0.0
 10
140.136963
 20
121.022187
 30
0.0
 10
141.997498
 20
119.161652
 30
0.0
  0
SPLINE
  5
277
100
AcDbEntity
  8
0
 62
7
100
AcDbSpline
 70
8
 71
3
 72
8
 73
4
 74
0
 40
0
 40
0
 40
0
 40
0
 40
1
 40
1
 40
1
 40
1
 10
141.997498
 20
119.161652
 30
0.0
 10
143.858032
 20
117.301117
 30
0.0
 10
146.381332
 20
116.255631
 30
0.0
 10
149.012726
 20
116.255631
 30
0.0
  0
SPLINE
  5
278
100
AcDbEntity
  8
0
 62
7
100
AcDbSpline
 70
8
 71
3
 72
8
 73
4
 74
0
 40
0
 40
0
 40
0
 40
0
 40
1
 40
1
 40
1
 40
1
 10
149.012726
 20
116.255631
 30
0.0
 10
151.644119
 20
116.255631
 30
0.0
 10
154.167419
 20
117.301117
 30
0.0
 10
156.027954
 20
119.161652
 30
0.0
  0
SPLINE
  5
279
100
AcDbEntity
  8
0
 62
7
100
AcDbSpline
 70
8
 71
3
 72
8
 73
4
 74
0
 40
0
 40
0
 40
0
 40
0
 40
1
 40
1
 40
1
 40
1
 10
156.027954
 20
119.161652
 30
0.0
 10
157.622986
 20
120.756684
 30
0.0
 10
158.619003
 20
122.838837
 30
0.0
 10
158.870773
 20
125.058579
 30
0.0
  0
SPLINE
  5
27a
100
AcDbEntity
  8
0
 62
7
100
AcDbSpline
 70
8
 71
3
 72
8
 73
4
 74
0
 40
0
 40
0
 40
0
 40
0
 40
1
 40
1
 40
1
 40
1
 10
215.563568
 20
125.058563
 30
0.0
 10
216.275864
 20
124.941071
 30
0.0
 10
217.000961
 20
124.880966
 30
0.0
 10
217.732254
 20
124.880966
 30
0.0
  0
SPLINE
  5
27b
100
AcDbEntity
  8
0
 62
7
100
AcDbSpline
 70
8
 71
3
 72
8
 73
4
 74
0
 40
0
 40
0
 40
0
 40
0
 40
1
 40
1
 40
1
 40
1
 10
217.732254
 20
124.880966
 30
0.0
 10
221.265579
 20
124.880966
 30
0.0
 10
224.654282
 20
126.284226
 30
0.0
 10
227.152908
 20
128.782852
 30
0.0
  0
SPLINE
  5
27c
100
AcDbEntity
  8
0
 62
7
100
AcDbSpline
 70
8
 71
3
 72
8
 73
4
 74
0
 40
0
 40
0
 40
0
 40
0
 40
1
 40
1
 40
1
 40
1
 10
227.152908
 20
128.782852
 30
0.0
 10
229.651535
 20
131.281479
 30
0.0
 10
231.054794
 20
134.670182
 30
0.0
 10
231.054794
 20
138.203507
 30
0.0
  0
SPLINE
  5
27d
100
AcDbEntity
  8
0
 62
7
100
AcDbSpline
 70
8
 71
3
 72
8
 73
4
 74
0
 40
0
 40
0
 40
0
 40
0
 40
1
 40
1
 40
1
 40
1
 10
231.054794
 20
138.203507
 30
0.0
 10
231.054794
 20
141.736832
 30
0.0
 10
229.651535
 20
145.125534
 30
0.0
 10
227.152908
 20
147.624161
 30
0.0
  0
SPLINE
  5
27e
100
AcDbEntity
  8
0
 62
7
100
AcDbSpline
 70
8
 71
3
 72
8
 73
4
 74
0
 40
0
 40
0
 40
0
 40
0
 40
1
 40
1
 40
1
 40
1
 10
227.152908
 20
147.624161
 30
0.0
 10
224.654282
 20
150.122788
 30
0.0
 10
221.265579
 20
151.526047
 30
0.0
 10
217.732254
 20
151.526047
 30
0.0
  0
SPLINE
  5
27f
100
AcDbEntity
  8
0
 62
7
100
AcDbSpline
 70
8
 71
3
 72
8
 73
4
 74
0
 40
0
 40
0
 40
0
 40
0
 40
1
 40
1
 40
1
 40
1
 10
217.732254
 20
151.526047
 30
0.0
 10
214.198929
 20
151.526047
 30
0.0
 10
210.810226
 20
150.122788
 30
0.0
 10
208.311600
 20
147.624161
 30
0.0
  0
SPLINE
  5
280
100
AcDbEntity
  8
0
 62
7
100
AcDbSpline
 70
8
 71
3
 72
8
 73
4
 74
0
 40
0
 40
0
 40
0
 40
0
 40
1
 40
1
 40
1
 40
1
 10
208.311600
 20
147.624161
 30
0.0
 10
205.812973
 20
145.125534
 30
0.0
 10
204.409714
 20
141.736832
 30
0.0
 10
204.409714
 20
138.203507
 30
0.0
  0
SPLINE
  5
281
100
AcDbEntity
  8
0
 62
7
100
AcDbSpline
 70
8
 71
3
 72
8
 73
4
 74
0
 40
0
 40
0
 40
0
 40
0
 40
1
 40
1
 40
1
 40
1
 10
204.409714
 20
138.203507
 30
0.0
 10
204.409714
 20
137.472275
 30
0.0
 10
204.469818
 20
136.747223
 30
0.0
 10
204.587296
 20
136.034973
 30
0.0
  0
SPLINE
  5
282
100
AcDbEntity
  8
0
 62
7
100
AcDbSpline
 70
8
 71
3
 72
8
 73
4
 74
0
 40
0
 40
0
 40
0
 40
0
 40
1
 40
1
 40
1
 40
1
 10
204.587326
 20
136.034928
 30
0.0
 10
202.367584
 20
135.783158
 30
0.0
 10
200.285431
 20
134.787140
 30
0.0
 10
198.690399
 20
133.192108
 30
0.0
  0
SPLINE
  5
283
100
AcDbEntity
  8
0
 62
7
100
AcDbSpline
 70
8
 71
3
 72
8
 73
4
 74
0
 40
0
 40
0
 40
0
 40
0
 40
1
 40
1
 40
1
 40
1
 10
198.690399
 20
133.192108
 30
0.0
 10
196.829865
 20
131.331574
 30
0.0
 10
195.784378
 20
128.808274
 30
0.0
 10
195.784378
 20
126.176880
 30
0.0
  0
SPLINE
  5
284
100
AcDbEntity
  8
0
 62
7
100
AcDbSpline
 70
8
 71
3
 72
8
 73
4
 74
0
 40
0
 40
0
 40
0
 40
0
 40
1
 40
1
 40
1
 40
1
 10
195.784378
 20
126.176880
 30
0.0
 10
195.784378
 20
123.545487
 30
0.0
 10
196.829865
 20
121.022187
 30
0.0
 10
198.690399
 20
119.161652
 30
0.0
  0
SPLINE
  5
285
100
AcDbEntity
  8
0
 62
7
100
AcDbSpline
 70
8
 71
3
 72
8
 73
4
 74
0
 40
0
 40
0
 40
0
 40
0
 40
1
 40
1
 40
1
 40
1
 10
198.690399
 20
119.161652
 30
0.0
 10
200.550934
 20
117.301117
 30
0.0
 10
203.074234
 20
116.255631
 30
0.0
 10
205.705627
 20
116.255631
 30
0.0
  0
SPLINE
  5
286
100
AcDbEntity
  8
0
 62
7
100
AcDbSpline
 70
8
 71
3
 72
8
 73
4
 74
0
 40
0
 40
0
 40
0
 40
0
 40
1
 40
1
 40
1
 40
1
 10
205.705627
 20
116.255631
 30
0.0
 10
208.337021
 20
116.255631
 30
0.0
 10
210.860321
 20
117.301117
 30
0.0
 10
212.720856
 20
119.161652
 30
0.0
  0
SPLINE
  5
287
100
AcDbEntity
  8
0
 62
7
100
AcDbSpline
 70
8
 71
3
 72
8
 73
4
 74
0
 40
0
 40
0
 40
0
 40
0
 40
1
 40
1
 40
1
 40
1
 10
212.720856
 20
119.161652
 30
0.0
 10
214.315887
 20
120.756684
 30
0.0
 10
215.311905
 20
122.838837
 30
0.0
 10
215.563675
 20
125.058579
 30
0.0
  0
SPLINE
  5
288
100
AcDbEntity
  8
0
 62
7
100
AcDbSpline
 70
8
 71
3
 72
8
 73
4
 74
0
 40
0
 40
0
 40
0
 40
0
 40
1
 40
1
 40
1
 40
1
 10
272.256470
 20
125.058563
 30
0.0
 10
272.968765
 20
124.941071
 30
0.0
 10
273.693863
 20
124.880966
 30
0.0
 10
274.425156
 20
124.880966
 30
0.0
  0
SPLINE
  5
289
100
AcDbEntity
  8
0
 62
7
100
AcDbSpline
 70
8
 71
3
 72
8
 73
4
 74
0
 40
0
 40
0
 40
0
 40
0
 40
1
 40
1
 40
1
 40
1
 10
274.425156
 20
124.880966
 30
0.0
 10
277.958481
 20
124.880966
 30
0.0
 10
281.347183
 20
126.284226
 30
0.0
 10
283.845810
 20
128.782852
 30
0.0
  0
SPLINE
  5
28a
100
AcDbEntity
  8
0
 62
7
100
AcDbSpline
 70
8
 71
3
 72
8
 73
4
 74
0
 40
0
 40
0
 40
0
 40
0
 40
1
 40
1
 40
1
 40
1
 10
283.845810
 20
128.782852
 30
0.0
 10
286.344437
 20
131.281479
 30
0.0
 10
287.747696
 20
134.670182
 30
0.0
 10
287.747696
 20
138.203507
 30
0.0
  0
SPLINE
  5
28b
100
AcDbEntity
  8
0
 62
7
100
AcDbSpline
 70
8
 71
3
 72
8
 73
4
 74
0
 40
0
 40
0
 40
0
 40
0
 40
1
 40
1
 40
1
 40
1
 10
287.747696
 20
138.203507
 30
0.0
 10
287.747696
 20
141.736832
 30
0.0
 10
286.344437
 20
145.125534
 30
0.0
 10
283.845810
 20
147.624161
 30
0.0
  0
SPLINE
  5
28c
100
AcDbEntity
  8
0
 62
7
100
AcDbSpline
 70
8
 71
3
 72
8
 73
4
 74
0
 40
0
 40
0
 40
0
 40
0
 40
1
 40
1
 40
1
 40
1
 10
283.845810
 20
147.624161
 30
0.0
 10
281.347183
 20
150.122788
 30
0.0
 10
277.958481
 20
151.526047
 30
0.0
 10
274.425156
 20
151.526047
 30
0.0
  0
SPLINE
  5
28d
100
AcDbEntity
  8
0
 62
7
100
AcDbSpline
 70
8
 71
3
 72
8
 73
4
 74
0
 40
0
 40
0
 40
0
 40
0
 40
1
 40
1
 40
1
 40
1
 10
274.425156
 20
151.526047
 30
0.0
 10
270.891830
 20
151.526047
 30
0.0
 10
267.503128
 20
150.122788
 30
0.0
 10
265.004501
 20
147.624161
 30
0.0
  0
SPLINE
  5
28e
100
AcDbEntity
  8
0
 62
7
100
AcDbSpline
 70
8
 71
3
 72
8
 73
4
 74
0
 40
0
 40
0
 40
0
 40
0
 40
1
 40
1
 40
1
 40
1
 10
265.004501
 20
147.624161
 30
0.0
 10
262.505875
 20
145.125534
 30
0.0
 10
261.102615
 20
141.736832
 30
0.0
 10
261.102615
 20
138.203507
 30
0.0
  0
SPLINE
  5
28f
100
AcDbEntity
  8
0
 62
7
100
AcDbSpline
 70
8
 71
3
 72
8
 73
4
 74
0
 40
0
 40
0
 40
0
 40
0
 40
1
 40
1
 40
1
 40
1
 10
261.102615
 20
138.203507
 30
0.0
 10
261.102615
 20
137.472275
 30
0.0
 10
261.162720
 20
136.747223
 30
0.0
 10
261.280197
 20
136.034973
 30
0.0
  0
SPLINE
  5
290
100
AcDbEntity
  8
0
 62
7
100
AcDbSpline
 70
8
 71
3
 72
8
 73
4
 74
0
 40
0
 40
0
 40
0
 40
0
 40
1
 40
1
 40
1
 40
1
 10
261.280228
 20
136.034928
 30
0.0
 10
259.060486
 20
135.783158
 30
0.0
 10
256.978333
 20
134.787140
 30
0.0
 10
255.383301
 20
133.192108
 30
0.0
  0
SPLINE
  5
291
100
AcDbEntity
  8
0
 62
7
100
AcDbSpline
 70
8
 71
3
 72
8
 73
4
 74
0
 40
0
 40
0
 40
0
 40
0
 40
1
 40
1
 40
1
 40
1
 10
255.383301
 20
133.192108
 30
0.0
 10
253.522766
 20
131.331574
 30
0.0
 10
252.477280
 20
128.808274
 30
0.0
 10
252.477280
 20
126.176880
 30
0.0
  0
SPLINE
  5
292
100
AcDbEntity
  8
0
 62
7
100
AcDbSpline
 70
8
 71
3
 72
8
 73
4
 74
0
 40
0
 40
0
 40
0
 40
0
 40
1
 40
1
 40
1
 40
1
 10
252.477280
 20
126.176880
 30
0.0
 10
252.477280
 20
123.545487
 30
0.0
 10
253.522766
 20
121.022187
 30
0.0
 10
255.383301
 20
119.161652
 30
0.0
  0
SPLINE
  5
293
100
AcDbEntity
  8
0
 62
7
100
AcDbSpline
 70
8
 71
3
 72
8
 73
4
 74
0
 40
0
 40
0
 40
0
 40
0
 40
1
 40
1
 40
1
 40
1
 10
255.383301
 20
119.161652
 30
0.0
 10
257.243835
 20
117.301117
 30
0.0
 10
259.767136
 20
116.255631
 30
0.0
 10
262.398529
 20
116.255631
 30
0.0
  0
SPLINE
  5
294
100
AcDbEntity
  8
0
 62
7
100
AcDbSpline
 70
8
 71
3
 72
8
 73
4
 74
0
 40
0
 40
0
 40
0
 40
0
 40
1
 40
1
 40
1
 40
1
 10
262.398529
 20
116.255631
 30
0.0
 10
265.029922
 20
116.255631
 30
0.0
 10
267.553223
 20
117.301117
 30
0.0
 10
269.413757
 20
119.161652
 30
0.0
  0
SPLINE
  5
295
100
AcDbEntity
  8
0
 62
7
100
AcDbSpline
 70
8
 71
3
 72
8
 73
4
 74
0
 40
0
 40
0
 40
0
 40
0
 40
1
 40
1
 40
1
 40
1
 10
269.413757
 20
119.161652
 30
0.0
 10
271.008789
 20
120.756684
 30
0.0
 10
272.004807
 20
122.838837
 30
0.0
 10
272.256577
 20
125.058579
 30
0.0
  0
SPLINE
  5
296
100
AcDbEntity
  8
0
 62
7
100
AcDbSpline
 70
8
 71
3
 72
8
 73
4
 74
0
 40
0
 40
0
 40
0
 40
0
 40
1
 40
1
 40
1
 40
1
 10
328.949371
 20
125.058563
 30
0.0
 10
329.661667
 20
124.941071
 30
0.0
 10
330.386765
 20
124.880966
 30
0.0
 10
331.118057
 20
124.880966
 30
0.0
  0
SPLINE
  5
297
100
AcDbEntity
  8
0
 62
7
100
AcDbSpline
 70
8
 71
3
 72
8
 73
4
 74
0
 40
0
 40
0
 40
0
 40
0
 40
1
 40
1
 40
1
 40
1
 10
331.118057
 20
124.880966
 30
0.0
 10
334.651382
 20
124.880966
 30
0.0
 10
338.040085
 20
126.284226
 30
0.0
 10
340.538712
 20
128.782852
 30
0.0
  0
SPLINE
  5
298
100
AcDbEntity
  8
0
 62
7
100
AcDbSpline
 70
8
 71
3
 72
8
 73
4
 74
0
 40
0
 40
0
 40
0
 40
0
 40
1
 40
1
 40
1
 40
1
 10
340.538712
 20
128.782852
 30
0.0
 10
343.037338
 20
131.281479
 30
0.0
 10
344.440598
 20
134.670182
 30
0.0
 10
344.440598
 20
138.203507
 30
0.0
  0
SPLINE
  5
299
100
AcDbEntity
  8
0
 62
7
100
AcDbSpline
 70
8
 71
3
 72
8
 73
4
 74
0
 40
0
 40
0
 40
0
 40
0
 40
1
 40
1
 40
1
 40
1
 10
344.440598
 20
138.203507
 30
0.0
 10
344.440598
 20
141.736832
 30
0.0
 10
343.037338
 20
145.125534
 30
0.0
 10
340.538712
 20
147.624161
 30
0.0
  0
SPLINE
  5
29a
100
AcDbEntity
  8
0
 62
7
100
AcDbSpline
 70
8
 71
3
 72
8
 73
4
 74
0
 40
0
 40
0
 40
0
 40
0
 40
1
 40
1
 40
1
 40
1
 10
340.538712
 20
147.624161
 30
0.0
 10
338.040085
 20
150.122788
 30
0.0
 10
334.651382
 20
151.526047
 30
0.0
 10
331.118057
 20
151.526047
 30
0.0
  0
SPLINE
  5
29b
100
AcDbEntity
  8
0
 62
7
100
AcDbSpline
 70
8
 71
3
 72
8
 73
4
 74
0
 40
0
 40
0
 40
0
 40
0
 40
1
 40
1
 40
1
 40
1
 10
331.118057
 20
151.526047
 30
0.0
 10
327.584732
 20
151.526047
 30
0.0
 10
324.196030
 20
150.122788
 30
0.0
 10
321.697403
 20
147.624161
 30
0.0
  0
SPLINE
  5
29c
100
AcDbEntity
  8
0
 62
7
100
AcDbSpline
 70
8
 71
3
 72
8
 73
4
 74
0
 40
0
 40
0
 40
0
 40
0
 40
1
 40
1
 40
1
 40
1
 10
321.697403
 20
147.624161
 30
0.0
 10
319.198776
 20
145.125534
 30
0.0
 10
317.795517
 20
141.736832
 30
0.0
 10
317.795517
 20
138.203507
 30
0.0
  0
SPLINE
  5
29d
100
AcDbEntity
  8
0
 62
7
100
AcDbSpline
 70
8
 71
3
 72
8
 73
4
 74
0
 40
0
 40
0
 40
0
 40
0
 40
1
 40
1
 40
1
 40
1
 10
317.795517
 20
138.203507
 30
0.0
 10
317.795517
 20
137.472275
 30
0.0
 10
317.855621
 20
136.747223
 30
0.0
 10
317.973099
 20
136.034973
 30
0.0
  0
SPLINE
  5
29e
100
AcDbEntity
  8
0
 62
7
100
AcDbSpline
 70
8
 71
3
 72
8
 73
4
 74
0
 40
0
 40
0
 40
0
 40
0
 40
1
 40
1
 40
1
 40
1
 10
317.973129
 20
136.034928
 30
0.0
 10
315.753387
 20
135.783158
 30
0.0
 10
313.671234
 20
134.787140
 30
0.0
 10
312.076202
 20
133.192108
 30
0.0
  0
SPLINE
  5
29f
100
AcDbEntity
  8
0
 62
7
100
AcDbSpline
 70
8
 71
3
 72
8
 73
4
 74
0
 40
0
 40
0
 40
0
 40
0
 40
1
 40
1
 40
1
 40
1
 10
312.076202
 20
133.192108
 30
0.0
 10
310.215668
 20
131.331574
 30
0.0
 10
309.170181
 20
128.808274
 30
0.0
 10
309.170181
 20
126.176880
 30
0.0
  0
SPLINE
  5
2a0
100
AcDbEntity
  8
0
 62
7
100
AcDbSpline
 70
8
 71
3
 72
8
 73
4
 74
0
 40
0
 40
0
 40
0
 40
0
 40
1
 40
1
 40
1
 40
1
 10
309.170181
 20
126.176880
 30
0.0
 10
309.170181
 20
123.545487
 30
0.0
 10
310.215668
 20
121.022187
 30
0.0
 10
312.076202
 20
119.161652
 30
0.0
  0
SPLINE
  5
2a1
100
AcDbEntity
  8
0
 62
7
100
AcDbSpline
 70
8
 71
3
 72
8
 73
4
 74
0
 40
0
 40
0
 40
0
 40
0
 40
1
 40
1
 40
1
 40
1
 10
312.076202
 20
119.161652
 30
0.0
 10
313.936737
 20
117.301117
 30
0.0
 10
316.460037
 20
116.255631
 30
0.0
 10
319.091431
 20
116.255631
 30
0.0
  0
SPLINE
  5
2a2
100
AcDbEntity
  8
0
 62
7
100
AcDbSpline
 70
8
 71
3
 72
8
 73
4
 74
0
 40
0
 40
0
 40
0
 40
0
 40
1
 40
1
 40
1
 40
1
 10
319.091431
 20
116.255631
 30
0.0
 10
321.722824
 20
116.255631
 30
0.0
 10
324.246124
 20
117.301117
 30
0.0
 10
326.106659
 20
119.161652
 30
0.0
  0
SPLINE
  5
2a3
100
AcDbEntity
  8
0
 62
7
100
AcDbSpline
 70
8
 71
3
 72
8
 73
4
 74
0
 40
0
 40
0
 40
0
 40
0
 40
1
 40
1
 40
1
 40
1
 10
326.106659
 20
119.161652
 30
0.0
 10
327.701691
 20
120.756684
 30
0.0
 10
328.697708
 20
122.838837
 30
0.0
 10
328.949478
 20
125.058579
 30
0.0
  0
SPLINE
  5
2a4
100
AcDbEntity
  8
0
 62
7
100
AcDbSpline
 70
8
 71
3
 72
8
 73
4
 74
0
 40
0
 40
0
 40
0
 40
0
 40
1
 40
1
 40
1
 40
1
 10
385.642273
 20
125.058563
 30
0.0
 10
386.354568
 20
124.941071
 30
0.0
 10
387.079666
 20
124.880966
 30
0.0
 10
387.810959
 20
124.880966
 30
0.0
  0
SPLINE
  5
2a5
100
AcDbEntity
  8
0
 62
7
100
AcDbSpline
 70
8
 71
3
 72
8
 73
4
 74
0
 40
0
 40
0
 40
0
 40
0
 40
1
 40
1
 40
1
 40
1
 10
387.810959
 20
124.880966
 30
0.0
 10
391.344284
 20
124.880966
 30
0.0
 10
394.732986
 20
126.284226
 30
0.0
 10
397.231613
 20
128.782852
 30
0.0
  0
SPLINE
  5
2a6
100
AcDbEntity
  8
0
 62
7
100
AcDbSpline
 70
8
 71
3
 72
8
 73
4
 74
0
 40
0
 40
0
 40
0
 40
0
 40
1
 40
1
 40
1
 40
1
 10
397.231613
 20
128.782852
 30
0.0
 10
399.730240
 20
131.281479
 30
0.0
 10
401.133499
 20
134.670182
 30
0.0
 10
401.133499
 20
138.203507
 30
0.0
  0
SPLINE
  5
2a7
100
AcDbEntity
  8
0
 62
7
100
AcDbSpline
 70
8
 71
3
 72
8
 73
4
 74
0
 40
0
 40
0
 40
0
 40
0
 40
1
 40
1
 40
1
 40
1
 10
401.133499
 20
138.203507
 30
0.0
 10
401.133499
 20
141.736832
 30
0.0
 10
399.730240
 20
145.125534
 30
0.0
 10
397.231613
 20
147.624161
 30
0.0
  0
SPLINE
  5
2a8
100
AcDbEntity
  8
0
 62
7
100
AcDbSpline
 70
8
 71
3
 72
8
 73
4
 74
0
 40
0
 40
0
 40
0
 40
0
 40
1
 40
1
 40
1
 40
1
 10
397.231613
 20
147.624161
 30
0.0
 10
394.732986
 20
150.122788
 30
0.0
 10
391.344284
 20
151.526047
 30
0.0
 10
387.810959
 20
151.526047
 30
0.0
  0
SPLINE
  5
2a9
100
AcDbEntity
  8
0
 62
7
100
AcDbSpline
 70
8
 71
3
 72
8
 73
4
 74
0
 40
0
 40
0
 40
0
 40
0
 40
1
 40
1
 40
1
 40
1
 10
387.810959
 20
151.526047
 30
0.0
 10
384.277634
 20
151.526047
 30
0.0
 10
380.888931
 20
150.122788
 30
0.0
 10
378.390305
 20
147.624161
 30
0.0
  0
SPLINE
  5
2aa
100
AcDbEntity
  8
0
 62
7
100
AcDbSpline
 70
8
 71
3
 72
8
 73
4
 74
0
 40
0
 40
0
 40
0
 40
0
 40
1
 40
1
 40
1
 40
1
 10
378.390305
 20
147.624161
 30
0.0
 10
375.891678
 20
145.125534
 30
0.0
 10
374.488419
 20
141.736832
 30
0.0
 10
374.488419
 20
138.203507
 30
0.0
  0
SPLINE
  5
2ab
100
AcDbEntity
  8
0
 62
7
100
AcDbSpline
 70
8
 71
3
 72
8
 73
4
 74
0
 40
0
 40
0
 40
0
 40
0
 40
1
 40
1
 40
1
 40
1
 10
374.488419
 20
138.203507
 30
0.0
 10
374.488419
 20
137.472275
 30
0.0
 10
374.548523
 20
136.747223
 30
0.0
 10
374.666000
 20
136.034973
 30
0.0
  0
SPLINE
  5
2ac
100
AcDbEntity
  8
0
 62
7
100
AcDbSpline
 70
8
 71
3
 72
8
 73
4
 74
0
 40
0
 40
0
 40
0
 40
0
 40
1
 40
1
 40
1
 40
1
 10
374.666031
 20
136.034928
 30
0.0
 10
372.446289
 20
135.783158
 30
0.0
 10
370.364136
 20
134.787140
 30
0.0
 10
368.769104
 20
133.192108
 30
0.0
  0
SPLINE
  5
2ad
100
AcDbEntity
  8
0
 62
7
100
AcDbSpline
 70
8
 71
3
 72
8
 73
4
 74
0
 40
0
 40
0
 40
0
 40
0
 40
1
 40
1
 40
1
 40
1
 10
368.769104
 20
133.192108
 30
0.0
 10
366.908569
 20
131.331574
 30
0.0
 10
365.863083
 20
128.808274
 30
0.0
 10
365.863083
 20
126.176880
 30
0.0
  0
SPLINE
  5
2ae
100
AcDbEntity
  8
0
 62
7
100
AcDbSpline
 70
8
 71
3
 72
8
 73
4
 74
0
 40
0
 40
0
 40
0
 40
0
 40
1
 40
1
 40
1
 40
1
 10
365.863083
 20
126.176880
 30
0.0
 10
365.863083
 20
123.545487
 30
0.0
 10
366.908569
 20
121.022187
 30
0.0
 10
368.769104
 20
119.161652
 30
0.0
  0
SPLINE
  5
2af
100
AcDbEntity
  8
0
 62
7
100
AcDbSpline
 70
8
 71
3
 72
8
 73
4
 74
0
 40
0
 40
0
 40
0
 40
0
 40
1
 40
1
 40
1
 40
1
 10
368.769104
 20
119.161652
 30
0.0
 10
370.629639
 20
117.301117
 30
0.0
 10
373.152939
 20
116.255631
 30
0.0
 10
375.784332
 20
116.255631
 30
0.0
  0
SPLINE
  5
2b0
100
AcDbEntity
  8
0
 62
7
100
AcDbSpline
 70
8
 71
3
 72
8
 73
4
 74
0
 40
0
 40
0
 40
0
 40
0
 40
1
 40
1
 40
1
 40
1
 10
375.784332
 20
116.255631
 30
0.0
 10
378.415726
 20
116.255631
 30
0.0
 10
380.939026
 20
117.301117
 30
0.0
 10
382.799561
 20
119.161652
 30
0.0
  0
SPLINE
  5
2b1
100
AcDbEntity
  8
0
 62
7
100
AcDbSpline
 70
8
 71
3
 72
8
 73
4
 74
0
 40
0
 40
0
 40
0
 40
0
 40
1
 40
1
 40
1
 40
1
 10
382.799561
 20
119.161652
 30
0.0
 10
384.394592
 20
120.756684
 30
0.0
 10
385.390610
 20
122.838837
 30
0.0
 10
385.642380
 20
125.058579
 30
0.0
  0
SPLINE
  5
2b2
100
AcDbEntity
  8
0
 62
7
100
AcDbSpline
 70
8
 71
3
 72
8
 73
4
 74
0
 40
0
 40
0
 40
0
 40
0
 40
1
 40
1
 40
1
 40
1
 10
442.335175
 20
125.058563
 30
0.0
 10
443.047470
 20
124.941071
 30
0.0
 10
443.772568
 20
124.880966
 30
0.0
 10
444.503860
 20
124.880966
 30
0.0
  0
SPLINE
  5
2b3
100
AcDbEntity
  8
0
 62
7
100
AcDbSpline
 70
8
 71
3
 72
8
 73
4
 74
0
 40
0
 40
0
 40
0
 40
0
 40
1
 40
1
 40
1
 40
1
 10
444.503860
 20
124.880966
 30
0.0
 10
448.037186
 20
124.880966
 30
0.0
 10
451.425888
 20
126.284226
 30
0.0
 10
453.924515
 20
128.782852
 30
0.0
  0
SPLINE
  5
2b4
100
AcDbEntity
  8
0
 62
7
100
AcDbSpline
 70
8
 71
3
 72
8
 73
4
 74
0
 40
0
 40
0
 40
0
 40
0
 40
1
 40
1
 40
1
 40
1
 10
453.924515
 20
128.782852
 30
0.0
 10
456.423141
 20
131.281479
 30
0.0
 10
457.826401
 20
134.670182
 30
0.0
 10
457.826401
 20
138.203507
 30
0.0
  0
SPLINE
  5
2b5
100
AcDbEntity
  8
0
 62
7
100
AcDbSpline
 70
8
 71
3
 72
8
 73
4
 74
0
 40
0
 40
0
 40
0
 40
0
 40
1
 40
1
 40
1
 40
1
 10
457.826401
 20
138.203507
 30
0.0
 10
457.826401
 20
141.736832
 30
0.0
 10
456.423141
 20
145.125534
 30
0.0
 10
453.924515
 20
147.624161
 30
0.0
  0
SPLINE
  5
2b6
100
AcDbEntity
  8
0
 62
7
100
AcDbSpline
 70
8
 71
3
 72
8
 73
4
 74
0
 40
0
 40
0
 40
0
 40
0
 40
1
 40
1
 40
1
 40
1
 10
453.924515
 20
147.624161
 30
0.0
 10
451.425888
 20
150.122788
 30
0.0
 10
448.037186
 20
151.526047
 30
0.0
 10
444.503860
 20
151.526047
 30
0.0
  0
SPLINE
  5
2b7
100
AcDbEntity
  8
0
 62
7
100
AcDbSpline
 70
8
 71
3
 72
8
 73
4
 74
0
 40
0
 40
0
 40
0
 40
0
 40
1
 40
1
 40
1
 40
1
 10
444.503860
 20
151.526047
 30
0.0
 10
440.970535
 20
151.526047
 30
0.0
 10
437.581833
 20
150.122788
 30
0.0
 10
435.083206
 20
147.624161
 30
0.0
  0
SPLINE
  5
2b8
100
AcDbEntity
  8
0
 62
7
100
AcDbSpline
 70
8
 71
3
 72
8
 73
4
 74
0
 40
0
 40
0
 40
0
 40
0
 40
1
 40
1
 40
1
 40
1
 10
435.083206
 20
147.624161
 30
0.0
 10
432.584579
 20
145.125534
 30
0.0
 10
431.181320
 20
141.736832
 30
0.0
 10
431.181320
 20
138.203507
 30
0.0
  0
SPLINE
  5
2b9
100
AcDbEntity
  8
0
 62
7
100
AcDbSpline
 70
8
 71
3
 72
8
 73
4
 74
0
 40
0
 40
0
 40
0
 40
0
 40
1
 40
1
 40
1
 40
1
 10
431.181320
 20
138.203507
 30
0.0
 10
431.181320
 20
137.472275
 30
0.0
 10
431.241425
 20
136.747223
 30
0.0
 10
431.358902
 20
136.034973
 30
0.0
  0
SPLINE
  5
2ba
100
AcDbEntity
  8
0
 62
7
100
AcDbSpline
 70
8
 71
3
 72
8
 73
4
 74
0
 40
0
 40
0
 40
0
 40
0
 40
1
 40
1
 40
1
 40
1
 10
431.358932
 20
136.034928
 30
0.0
 10
429.139191
 20
135.783158
 30
0.0
 10
427.057037
 20
134.787140
 30
0.0
 10
425.462006
 20
133.192108
 30
0.0
  0
SPLINE
  5
2bb
100
AcDbEntity
  8
0
 62
7
100
AcDbSpline
 70
8
 71
3
 72
8
 73
4
 74
0
 40
0
 40
0
 40
0
 40
0
 40
1
 40
1
 40
1
 40
1
 10
425.462006
 20
133.192108
 30
0.0
 10
423.601471
 20
131.331574
 30
0.0
 10
422.555984
 20
128.808274
 30
0.0
 10
422.555984
 20
126.176880
 30
0.0
  0
SPLINE
  5
2bc
100
AcDbEntity
  8
0
 62
7
100
AcDbSpline
 70
8
 71
3
 72
8
 73
4
 74
0
 40
0
 40
0
 40
0
 40
0
 40
1
 40
1
 40
1
 40
1
 10
422.555984
 20
126.176880
 30
0.0
 10
422.555984
 20
123.545487
 30
0.0
 10
423.601471
 20
121.022187
 30
0.0
 10
425.462006
 20
119.161652
 30
0.0
  0
SPLINE
  5
2bd
100
AcDbEntity
  8
0
 62
7
100
AcDbSpline
 70
8
 71
3
 72
8
 73
4
 74
0
 40
0
 40
0
 40
0
 40
0
 40
1
 40
1
 40
1
 40
1
 10
425.462006
 20
119.161652
 30
0.0
 10
427.322540
 20
117.301117
 30
0.0
 10
429.845840
 20
116.255631
 30
0.0
 10
432.477234
 20
116.255631
 30
0.0
  0
SPLINE
  5
2be
100
AcDbEntity
  8
0
 62
7
100
AcDbSpline
 70
8
 71
3
 72
8
 73
4
 74
0
 40
0
 40
0
 40
0
 40
0
 40
1
 40
1
 40
1
 40
1
 10
432.477234
 20
116.255631
 30
0.0
 10
435.108627
 20
116.255631
 30
0.0
 10
437.631927
 20
117.301117
 30
0.0
 10
439.492462
 20
119.161652
 30
0.0
  0
SPLINE
  5
2bf
100
AcDbEntity
  8
0
 62
7
100
AcDbSpline
 70
8
 71
3
 72
8
 73
4
 74
0
 40
0
 40
0
 40
0
 40
0
 40
1
 40
1
 40
1
 40
1
 10
439.492462
 20
119.161652
 30
0.0
 10
441.087494
 20
120.756684
 30
0.0
 10
442.083511
 20
122.838837
 30
0.0
 10
442.335281
 20
125.058579
 30
0.0
  0
SPLINE
  5
2c0
100
AcDbEntity
  8
0
 62
7
100
AcDbSpline
 70
8
 71
3
 72
8
 73
4
 74
0
 40
0
 40
0
 40
0
 40
0
 40
1
 40
1
 40
1
 40
1
 10
499.028076
 20
125.058563
 30
0.0
 10
499.740372
 20
124.941071
 30
0.0
 10
500.465469
 20
124.880966
 30
0.0
 10
501.196762
 20
124.880966
 30
0.0
  0
SPLINE
  5
2c1
100
AcDbEntity
  8
0
 62
7
100
AcDbSpline
 70
8
 71
3
 72
8
 73
4
 74
0
 40
0
 40
0
 40
0
 40
0
 40
1
 40
1
 40
1
 40
1
 10
501.196762
 20
124.880966
 30
0.0
 10
504.730087
 20
124.880966
 30
0.0
 10
508.118790
 20
126.284226
 30
0.0
 10
510.617416
 20
128.782852
 30
0.0
  0
SPLINE
  5
2c2
100
AcDbEntity
  8
0
 62
7
100
AcDbSpline
 70
8
 71
3
 72
8
 73
4
 74
0
 40
0
 40
0
 40
0
 40
0
 40
1
 40
1
 40
1
 40
1
 10
510.617416
 20
128.782852
 30
0.0
 10
513.116043
 20
131.281479
 30
0.0
 10
514.519302
 20
134.670182
 30
0.0
 10
514.519302
 20
138.203507
 30
0.0
  0
SPLINE
  5
2c3
100
AcDbEntity
  8
0
 62
7
100
AcDbSpline
 70
8
 71
3
 72
8
 73
4
 74
0
 40
0
 40
0
 40
0
 40
0
 40
1
 40
1
 40
1
 40
1
 10
514.519302
 20
138.203507
 30
0.0
 10
514.519302
 20
141.736832
 30
0.0
 10
513.116043
 20
145.125534
 30
0.0
 10
510.617416
 20
147.624161
 30
0.0
  0
SPLINE
  5
2c4
100
AcDbEntity
  8
0
 62
7
100
AcDbSpline
 70
8
 71
3
 72
8
 73
4
 74
0
 40
0
 40
0
 40
0
 40
0
 40
1
 40
1
 40
1
 40
1
 10
510.617416
 20
147.624161
 30
0.0
 10
508.118790
 20
150.122788
 30
0.0
 10
504.730087
 20
151.526047
 30
0.0
 10
501.196762
 20
151.526047
 30
0.0
  0
SPLINE
  5
2c5
100
AcDbEntity
  8
0
 62
7
100
AcDbSpline
 70
8
 71
3
 72
8
 73
4
 74
0
 40
0
 40
0
 40
0
 40
0
 40
1
 40
1
 40
1
 40
1
 10
501.196762
 20
151.526047
 30
0.0
 10
497.663437
 20
151.526047
 30
0.0
 10
494.274734
 20
150.122788
 30
0.0
 10
491.776108
 20
147.624161
 30
0.0
  0
SPLINE
  5
2c6
100
AcDbEntity
  8
0
 62
7
100
AcDbSpline
 70
8
 71
3
 72
8
 73
4
 74
0
 40
0
 40
0
 40
0
 40
0
 40
1
 40
1
 40
1
 40
1
 10
491.776108
 20
147.624161
 30
0.0
 10
489.277481
 20
145.125534
 30
0.0
 10
487.874222
 20
141.736832
 30
0.0
 10
487.874222
 20
138.203507
 30
0.0
  0
SPLINE
  5
2c7
100
AcDbEntity
  8
0
 62
7
100
AcDbSpline
 70
8
 71
3
 72
8
 73
4
 74
0
 40
0
 40
0
 40
0
 40
0
 40
1
 40
1
 40
1
 40
1
 10
487.874222
 20
138.203507
 30
0.0
 10
487.874222
 20
137.472275
 30
0.0
 10
487.934326
 20
136.747223
 30
0.0
 10
488.051804
 20
136.034973
 30
0.0
  0
SPLINE
  5
2c8
100
AcDbEntity
  8
0
 62
7
100
AcDbSpline
 70
8
 71
3
 72
8
 73
4
 74
0
 40
0
 40
0
 40
0
 40
0
 40
1
 40
1
 40
1
 40
1
 10
488.051834
 20
136.034928
 30
0.0
 10
485.832092
 20
135.783158
 30
0.0
 10
483.749939
 20
134.787140
 30
0.0
 10
482.154907
 20
133.192108
 30
0.0
  0
SPLINE
  5
2c9
100
AcDbEntity
  8
0
 62
7
100
AcDbSpline
 70
8
 71
3
 72
8
 73
4
 74
0
 40
0
 40
0
 40
0
 40
0
 40
1
 40
1
 40
1
 40
1
 10
482.154907
 20
133.192108
 30
0.0
 10
480.294373
 20
131.331574
 30
0.0
 10
479.248886
 20
128.808274
 30
0.0
 10
479.248886
 20
126.176880
 30
0.0
  0
SPLINE
  5
2ca
100
AcDbEntity
  8
0
 62
7
100
AcDbSpline
 70
8
 71
3
 72
8
 73
4
 74
0
 40
0
 40
0
 40
0
 40
0
 40
1
 40
1
 40
1
 40
1
 10
479.248886
 20
126.176880
 30
0.0
 10
479.248886
 20
123.545487
 30
0.0
 10
480.294373
 20
121.022187
 30
0.0
 10
482.154907
 20
119.161652
 30
0.0
  0
SPLINE
  5
2cb
100
AcDbEntity
  8
0
 62
7
100
AcDbSpline
 70
8
 71
3
 72
8
 73
4
 74
0
 40
0
 40
0
 40
0
 40
0
 40
1
 40
1
 40
1
 40
1
 10
482.154907
 20
119.161652
 30
0.0
 10
484.015442
 20
117.301117
 30
0.0
 10
486.538742
 20
116.255631
 30
0.0
 10
489.170135
 20
116.255631
 30
0.0
  0
SPLINE
  5
2cc
100
AcDbEntity
  8
0
 62
7
100
AcDbSpline
 70
8
 71
3
 72
8
 73
4
 74
0
 40
0
 40
0
 40
0
 40
0
 40
1
 40
1
 40
1
 40
1
 10
489.170135
 20
116.255631
 30
0.0
 10
491.801529
 20
116.255631
 30
0.0
 10
494.324829
 20
117.301117
 30
0.0
 10
496.185364
 20
119.161652
 30
0.0
  0
SPLINE
  5
2cd
100
AcDbEntity
  8
0
 62
7
100
AcDbSpline
 70
8
 71
3
 72
8
 73
4
 74
0
 40
0
 40
0
 40
0
 40
0
 40
1
 40
1
 40
1
 40
1
 10
496.185364
 20
119.161652
 30
0.0
 10
497.780396
 20
120.756684
 30
0.0
 10
498.776413
 20
122.838837
 30
0.0
 10
499.028183
 20
125.058579
 30
0.0
  0
SPLINE
  5
2ce
100
AcDbEntity
  8
0
 62
7
100
AcDbSpline
 70
8
 71
3
 72
8
 73
4
 74
0
 40
0
 40
0
 40
0
 40
0
 40
1
 40
1
 40
1
 40
1
 10
555.720978
 20
125.058563
 30
0.0
 10
556.433273
 20
124.941071
 30
0.0
 10
557.158371
 20
124.880966
 30
0.0
 10
557.889664
 20
124.880966
 30
0.0
  0
SPLINE
  5
2cf
100
AcDbEntity
  8
0
 62
7
100
AcDbSpline
 70
8
 71
3
 72
8
 73
4
 74
0
 40
0
 40
0
 40
0
 40
0
 40
1
 40
1
 40
1
 40
1
 10
557.889664
 20
124.880966
 30
0.0
 10
561.422989
 20
124.880966
 30
0.0
 10
564.811691
 20
126.284226
 30
0.0
 10
567.310318
 20
128.782852
 30
0.0
  0
SPLINE
  5
2d0
100
AcDbEntity
  8
0
 62
7
100
AcDbSpline
 70
8
 71
3
 72
8
 73
4
 74
0
 40
0
 40
0
 40
0
 40
0
 40
1
 40
1
 40
1
 40
1
 10
567.310318
 20
128.782852
 30
0.0
 10
569.808945
 20
131.281479
 30
0.0
 10
571.212204
 20
134.670182
 30
0.0
 10
571.212204
 20
138.203507
 30
0.0
  0
SPLINE
  5
2d1
100
AcDbEntity
  8
0
 62
7
100
AcDbSpline
 70
8
 71
3
 72
8
 73
4
 74
0
 40
0
 40
0
 40
0
 40
0
 40
1
 40
1
 40
1
 40
1
 10
571.212204
 20
138.203507
 30
0.0
 10
571.212204
 20
141.736832
 30
0.0
 10
569.808945
 20
145.125534
 30
0.0
 10
567.310318
 20
147.624161
 30
0.0
  0
SPLINE
  5
2d2
100
AcDbEntity
  8
0
 62
7
100
AcDbSpline
 70
8
 71
3
 72
8
 73
4
 74
0
 40
0
 40
0
 40
0
 40
0
 40
1
 40
1
 40
1
 40
1
 10
567.310318
 20
147.624161
 30
0.0
 10
564.811691
 20
150.122788
 30
0.0
 10
561.422989
 20
151.526047
 30
0.0
 10
557.889664
 20
151.526047
 30
0.0
  0
SPLINE
  5
2d3
100
AcDbEntity
  8
0
 62
7
100
AcDbSpline
 70
8
 71
3
 72
8
 73
4
 74
0
 40
0
 40
0
 40
0
 40
0
 40
1
 40
1
 40
1
 40
1
 10
557.889664
 20
151.526047
 30
0.0
 10
554.356339
 20
151.526047
 30
0.0
 10
550.967636
 20
150.122788
 30
0.0
 10
548.469009
 20
147.624161
 30
0.0
  0
SPLINE
  5
2d4
100
AcDbEntity
  8
0
 62
7
100
AcDbSpline
 70
8
 71
3
 72
8
 73
4
 74
0
 40
0
 40
0
 40
0
 40
0
 40
1
 40
1
 40
1
 40
1
 10
548.469009
 20
147.624161
 30
0.0
 10
545.970383
 20
145.125534
 30
0.0
 10
544.567123
 20
141.736832
 30
0.0
 10
544.567123
 20
138.203507
 30
0.0
  0
SPLINE
  5
2d5
100
AcDbEntity
  8
0
 62
7
100
AcDbSpline
 70
8
 71
3
 72
8
 73
4
 74
0
 40
0
 40
0
 40
0
 40
0
 40
1
 40
1
 40
1
 40
1
 10
544.567123
 20
138.203507
 30
0.0
 10
544.567123
 20
137.472275
 30
0.0
 10
544.627228
 20
136.747223
 30
0.0
 10
544.744705
 20
136.034973
 30
0.0
  0
SPLINE
  5
2d6
100
AcDbEntity
  8
0
 62
7
100
AcDbSpline
 70
8
 71
3
 72
8
 73
4
 74
0
 40
0
 40
0
 40
0
 40
0
 40
1
 40
1
 40
1
 40
1
 10
544.744736
 20
136.034928
 30
0.0
 10
542.524994
 20
135.783158
 30
0.0
 10
540.442841
 20
134.787140
 30
0.0
 10
538.847809
 20
133.192108
 30
0.0
  0
SPLINE
  5
2d7
100
AcDbEntity
  8
0
 62
7
100
AcDbSpline
 70
8
 71
3
 72
8
 73
4
 74
0
 40
0
 40
0
 40
0
 40
0
 40
1
 40
1
 40
1
 40
1
 10
538.847809
 20
133.192108
 30
0.0
 10
536.987274
 20
131.331574
 30
0.0
 10
535.941788
 20
128.808274
 30
0.0
 10
535.941788
 20
126.176880
 30
0.0
  0
SPLINE
  5
2d8
100
AcDbEntity
  8
0
 62
7
100
AcDbSpline
 70
8
 71
3
 72
8
 73
4
 74
0
 40
0
 40
0
 40
0
 40
0
 40
1
 40
1
 40
1
 40
1
 10
535.941788
 20
126.176880
 30
0.0
 10
535.941788
 20
123.545487
 30
0.0
 10
536.987274
 20
121.022187
 30
0.0
 10
538.847809
 20
119.161652
 30
0.0
  0
SPLINE
  5
2d9
100
AcDbEntity
  8
0
 62
7
100
AcDbSpline
 70
8
 71
3
 72
8
 73
4
 74
0
 40
0
 40
0
 40
0
 40
0
 40
1
 40
1
 40
1
 40
1
 10
538.847809
 20
119.161652
 30
0.0
 10
540.708344
 20
117.301117
 30
0.0
 10
543.231644
 20
116.255631
 30
0.0
 10
545.863037
 20
116.255631
 30
0.0
  0
SPLINE
  5
2da
100
AcDbEntity
  8
0
 62
7
100
AcDbSpline
 70
8
 71
3
 72
8
 73
4
 74
0
 40
0
 40
0
 40
0
 40
0
 40
1
 40
1
 40
1
 40
1
 10
545.863037
 20
116.255631
 30
0.0
 10
548.494431
 20
116.255631
 30
0.0
 10
551.017731
 20
117.301117
 30
0.0
 10
552.878265
 20
119.161652
 30
0.0
  0
SPLINE
  5
2db
100
AcDbEntity
  8
0
 62
7
100
AcDbSpline
 70
8
 71
3
 72
8
 73
4
 74
0
 40
0
 40
0
 40
0
 40
0
 40
1
 40
1
 40
1
 40
1
 10
552.878265
 20
119.161652
 30
0.0
 10
554.473297
 20
120.756684
 30
0.0
 10
555.469315
 20
122.838837
 30
0.0
 10
555.721085
 20
125.058579
 30
0.0
  0
SPLINE
  5
2dc
100
AcDbEntity
  8
0
 62
7
100
AcDbSpline
 70
8
 71
3
 72
8
 73
4
 74
0
 40
0
 40
0
 40
0
 40
0
 40
1
 40
1
 40
1
 40
1
 10
612.413879
 20
125.058563
 30
0.0
 10
613.126175
 20
124.941071
 30
0.0
 10
613.851273
 20
124.880966
 30
0.0
 10
614.582565
 20
124.880966
 30
0.0
  0
SPLINE
  5
2dd
100
AcDbEntity
  8
0
 62
7
100
AcDbSpline
 70
8
 71
3
 72
8
 73
4
 74
0
 40
0
 40
0
 40
0
 40
0
 40
1
 40
1
 40
1
 40
1
 10
614.582565
 20
124.880966
 30
0.0
 10
618.115891
 20
124.880966
 30
0.0
 10
621.504593
 20
126.284226
 30
0.0
 10
624.003220
 20
128.782852
 30
0.0
  0
SPLINE
  5
2de
100
AcDbEntity
  8
0
 62
7
100
AcDbSpline
 70
8
 71
3
 72
8
 73
4
 74
0
 40
0
 40
0
 40
0
 40
0
 40
1
 40
1
 40
1
 40
1
 10
624.003220
 20
128.782852
 30
0.0
 10
626.501846
 20
131.281479
 30
0.0
 10
627.905106
 20
134.670182
 30
0.0
 10
627.905106
 20
138.203507
 30
0.0
  0
SPLINE
  5
2df
100
AcDbEntity
  8
0
 62
7
100
AcDbSpline
 70
8
 71
3
 72
8
 73
4
 74
0
 40
0
 40
0
 40
0
 40
0
 40
1
 40
1
 40
1
 40
1
 10
627.905106
 20
138.203507
 30
0.0
 10
627.905106
 20
141.736832
 30
0.0
 10
626.501846
 20
145.125534
 30
0.0
 10
624.003220
 20
147.624161
 30
0.0
  0
SPLINE
  5
2e0
100
AcDbEntity
  8
0
 62
7
100
AcDbSpline
 70
8
 71
3
 72
8
 73
4
 74
0
 40
0
 40
0
 40
0
 40
0
 40
1
 40
1
 40
1
 40
1
 10
624.003220
 20
147.624161
 30
0.0
 10
621.504593
 20
150.122788
 30
0.0
 10
618.115891
 20
151.526047
 30
0.0
 10
614.582565
 20
151.526047
 30
0.0
  0
SPLINE
  5
2e1
100
AcDbEntity
  8
0
 62
7
100
AcDbSpline
 70
8
 71
3
 72
8
 73
4
 74
0
 40
0
 40
0
 40
0
 40
0
 40
1
 40
1
 40
1
 40
1
 10
614.582565
 20
151.526047
 30
0.0
 10
611.049240
 20
151.526047
 30
0.0
 10
607.660538
 20
150.122788
 30
0.0
 10
605.161911
 20
147.624161
 30
0.0
  0
SPLINE
  5
2e2
100
AcDbEntity
  8
0
 62
7
100
AcDbSpline
 70
8
 71
3
 72
8
 73
4
 74
0
 40
0
 40
0
 40
0
 40
0
 40
1
 40
1
 40
1
 40
1
 10
605.161911
 20
147.624161
 30
0.0
 10
602.663284
 20
145.125534
 30
0.0
 10
601.260025
 20
141.736832
 30
0.0
 10
601.260025
 20
138.203507
 30
0.0
  0
SPLINE
  5
2e3
100
AcDbEntity
  8
0
 62
7
100
AcDbSpline
 70
8
 71
3
 72
8
 73
4
 74
0
 40
0
 40
0
 40
0
 40
0
 40
1
 40
1
 40
1
 40
1
 10
601.260025
 20
138.203507
 30
0.0
 10
601.260025
 20
137.472275
 30
0.0
 10
601.320129
 20
136.747223
 30
0.0
 10
601.437607
 20
136.034973
 30
0.0
  0
SPLINE
  5
2e4
100
AcDbEntity
  8
0
 62
7
100
AcDbSpline
 70
8
 71
3
 72
8
 73
4
 74
0
 40
0
 40
0
 40
0
 40
0
 40
1
 40
1
 40
1
 40
1
 10
601.437637
 20
136.034928
 30
0.0
 10
599.217896
 20
135.783158
 30
0.0
 10
597.135742
 20
134.787140
 30
0.0
 10
595.540710
 20
133.192108
 30
0.0
  0
SPLINE
  5
2e5
100
AcDbEntity
  8
0
 62
7
100
AcDbSpline
 70
8
 71
3
 72
8
 73
4
 74
0
 40
0
 40
0
 40
0
 40
0
 40
1
 40
1
 40
1
 40
1
 10
595.540710
 20
133.192108
 30
0.0
 10
593.680176
 20
131.331574
 30
0.0
 10
592.634689
 20
128.808274
 30
0.0
 10
592.634689
 20
126.176880
 30
0.0
  0
SPLINE
  5
2e6
100
AcDbEntity
  8
0
 62
7
100
AcDbSpline
 70
8
 71
3
 72
8
 73
4
 74
0
 40
0
 40
0
 40
0
 40
0
 40
1
 40
1
 40
1
 40
1
 10
592.634689
 20
126.176880
 30
0.0
 10
592.634689
 20
123.545487
 30
0.0
 10
593.680176
 20
121.022187
 30
0.0
 10
595.540710
 20
119.161652
 30
0.0
  0
SPLINE
  5
2e7
100
AcDbEntity
  8
0
 62
7
100
AcDbSpline
 70
8
 71
3
 72
8
 73
4
 74
0
 40
0
 40
0
 40
0
 40
0
 40
1
 40
1
 40
1
 40
1
 10
595.540710
 20
119.161652
 30
0.0
 10
597.401245
 20
117.301117
 30
0.0
 10
599.924545
 20
116.255631
 30
0.0
 10
602.555939
 20
116.255631
 30
0.0
  0
SPLINE
  5
2e8
100
AcDbEntity
  8
0
 62
7
100
AcDbSpline
 70
8
 71
3
 72
8
 73
4
 74
0
 40
0
 40
0
 40
0
 40
0
 40
1
 40
1
 40
1
 40
1
 10
602.555939
 20
116.255631
 30
0.0
 10
605.187332
 20
116.255631
 30
0.0
 10
607.710632
 20
117.301117
 30
0.0
 10
609.571167
 20
119.161652
 30
0.0
  0
SPLINE
  5
2e9
100
AcDbEntity
  8
0
 62
7
100
AcDbSpline
 70
8
 71
3
 72
8
 73
4
 74
0
 40
0
 40
0
 40
0
 40
0
 40
1
 40
1
 40
1
 40
1
 10
609.571167
 20
119.161652
 30
0.0
 10
611.166199
 20
120.756684
 30
0.0
 10
612.162216
 20
122.838837
 30
0.0
 10
612.413986
 20
125.058579
 30
0.0
  0
SPLINE
  5
2ea
100
AcDbEntity
  8
0
 62
7
100
AcDbSpline
 70
8
 71
3
 72
8
 73
4
 74
0
 40
0
 40
0
 40
0
 40
0
 40
1
 40
1
 40
1
 40
1
 10
669.106781
 20
125.058563
 30
0.0
 10
669.819077
 20
124.941071
 30
0.0
 10
670.544174
 20
124.880966
 30
0.0
 10
671.275467
 20
124.880966
 30
0.0
  0
SPLINE
  5
2eb
100
AcDbEntity
  8
0
 62
7
100
AcDbSpline
 70
8
 71
3
 72
8
 73
4
 74
0
 40
0
 40
0
 40
0
 40
0
 40
1
 40
1
 40
1
 40
1
 10
671.275467
 20
124.880966
 30
0.0
 10
674.808792
 20
124.880966
 30
0.0
 10
678.197495
 20
126.284226
 30
0.0
 10
680.696121
 20
128.782852
 30
0.0
  0
SPLINE
  5
2ec
100
AcDbEntity
  8
0
 62
7
100
AcDbSpline
 70
8
 71
3
 72
8
 73
4
 74
0
 40
0
 40
0
 40
0
 40
0
 40
1
 40
1
 40
1
 40
1
 10
680.696121
 20
128.782852
 30
0.0
 10
683.194748
 20
131.281479
 30
0.0
 10
684.598007
 20
134.670182
 30
0.0
 10
684.598007
 20
138.203507
 30
0.0
  0
SPLINE
  5
2ed
100
AcDbEntity
  8
0
 62
7
100
AcDbSpline
 70
8
 71
3
 72
8
 73
4
 74
0
 40
0
 40
0
 40
0
 40
0
 40
1
 40
1
 40
1
 40
1
 10
684.598007
 20
138.203507
 30
0.0
 10
684.598007
 20
141.736832
 30
0.0
 10
683.194748
 20
145.125534
 30
0.0
 10
680.696121
 20
147.624161
 30
0.0
  0
SPLINE
  5
2ee
100
AcDbEntity
  8
0
 62
7
100
AcDbSpline
 70
8
 71
3
 72
8
 73
4
 74
0
 40
0
 40
0
 40
0
 40
0
 40
1
 40
1
 40
1
 40
1
 10
680.696121
 20
147.624161
 30
0.0
 10
678.197495
 20
150.122788
 30
0.0
 10
674.808792
 20
151.526047
 30
0.0
 10
671.275467
 20
151.526047
 30
0.0
  0
SPLINE
  5
2ef
100
AcDbEntity
  8
0
 62
7
100
AcDbSpline
 70
8
 71
3
 72
8
 73
4
 74
0
 40
0
 40
0
 40
0
 40
0
 40
1
 40
1
 40
1
 40
1
 10
671.275467
 20
151.526047
 30
0.0
 10
667.742142
 20
151.526047
 30
0.0
 10
664.353439
 20
150.122788
 30
0.0
 10
661.854813
 20
147.624161
 30
0.0
  0
SPLINE
  5
2f0
100
AcDbEntity
  8
0
 62
7
100
AcDbSpline
 70
8
 71
3
 72
8
 73
4
 74
0
 40
0
 40
0
 40
0
 40
0
 40
1
 40
1
 40
1
 40
1
 10
661.854813
 20
147.624161
 30
0.0
 10
659.356186
 20
145.125534
 30
0.0
 10
657.952927
 20
141.736832
 30
0.0
 10
657.952927
 20
138.203507
 30
0.0
  0
SPLINE
  5
2f1
100
AcDbEntity
  8
0
 62
7
100
AcDbSpline
 70
8
 71
3
 72
8
 73
4
 74
0
 40
0
 40
0
 40
0
 40
0
 40
1
 40
1
 40
1
 40
1
 10
657.952927
 20
138.203507
 30
0.0
 10
657.952927
 20
137.472275
 30
0.0
 10
658.013031
 20
136.747223
 30
0.0
 10
658.130508
 20
136.034973
 30
0.0
  0
SPLINE
  5
2f2
100
AcDbEntity
  8
0
 62
7
100
AcDbSpline
 70
8
 71
3
 72
8
 73
4
 74
0
 40
0
 40
0
 40
0
 40
0
 40
1
 40
1
 40
1
 40
1
 10
658.130539
 20
136.034928
 30
0.0
 10
655.910797
 20
135.783158
 30
0.0
 10
653.828644
 20
134.787140
 30
0.0
 10
652.233612
 20
133.192108
 30
0.0
  0
SPLINE
  5
2f3
100
AcDbEntity
  8
0
 62
7
100
AcDbSpline
 70
8
 71
3
 72
8
 73
4
 74
0
 40
0
 40
0
 40
0
 40
0
 40
1
 40
1
 40
1
 40
1
 10
652.233612
 20
133.192108
 30
0.0
 10
650.373077
 20
131.331574
 30
0.0
 10
649.327591
 20
128.808274
 30
0.0
 10
649.327591
 20
126.176880
 30
0.0
  0
SPLINE
  5
2f4
100
AcDbEntity
  8
0
 62
7
100
AcDbSpline
 70
8
 71
3
 72
8
 73
4
 74
0
 40
0
 40
0
 40
0
 40
0
 40
1
 40
1
 40
1
 40
1
 10
649.327591
 20
126.176880
 30
0.0
 10
649.327591
 20
123.545487
 30
0.0
 10
650.373077
 20
121.022187
 30
0.0
 10
652.233612
 20
119.161652
 30
0.0
  0
SPLINE
  5
2f5
100
AcDbEntity
  8
0
 62
7
100
AcDbSpline
 70
8
 71
3
 72
8
 73
4
 74
0
 40
0
 40
0
 40
0
 40
0
 40
1
 40
1
 40
1
 40
1
 10
652.233612
 20
119.161652
 30
0.0
 10
654.094147
 20
117.301117
 30
0.0
 10
656.617447
 20
116.255631
 30
0.0
 10
659.248840
 20
116.255631
 30
0.0
  0
SPLINE
  5
2f6
100
AcDbEntity
  8
0
 62
7
100
AcDbSpline
 70
8
 71
3
 72
8
 73
4
 74
0
 40
0
 40
0
 40
0
 40
0
 40
1
 40
1
 40
1
 40
1
 10
659.248840
 20
116.255631
 30
0.0
 10
661.880234
 20
116.255631
 30
0.0
 10
664.403534
 20
117.301117
 30
0.0
 10
666.264069
 20
119.161652
 30
0.0
  0
SPLINE
  5
2f7
100
AcDbEntity
  8
0
 62
7
100
AcDbSpline
 70
8
 71
3
 72
8
 73
4
 74
0
 40
0
 40
0
 40
0
 40
0
 40
1
 40
1
 40
1
 40
1
 10
666.264069
 20
119.161652
 30
0.0
 10
667.859100
 20
120.756684
 30
0.0
 10
668.855118
 20
122.838837
 30
0.0
 10
669.106888
 20
125.058579
 30
0.0
  0
SPLINE
  5
2f8
100
AcDbEntity
  8
0
 62
7
100
AcDbSpline
 70
8
 71
3
 72
8
 73
4
 74
0
 40
0
 40
0
 40
0
 40
0
 40
1
 40
1
 40
1
 40
1
 10
725.799683
 20
125.058563
 30
0.0
 10
726.511978
 20
124.941071
 30
0.0
 10
727.237076
 20
124.880966
 30
0.0
 10
727.968369
 20
124.880966
 30
0.0
  0
SPLINE
  5
2f9
100
AcDbEntity
  8
0
 62
7
100
AcDbSpline
 70
8
 71
3
 72
8
 73
4
 74
0
 40
0
 40
0
 40
0
 40
0
 40
1
 40
1
 40
1
 40
1
 10
727.968369
 20
124.880966
 30
0.0
 10
731.501694
 20
124.880966
 30
0.0
 10
734.890396
 20
126.284226
 30
0.0
 10
737.389023
 20
128.782852
 30
0.0
  0
SPLINE
  5
2fa
100
AcDbEntity
  8
0
 62
7
100
AcDbSpline
 70
8
 71
3
 72
8
 73
4
 74
0
 40
0
 40
0
 40
0
 40
0
 40
1
 40
1
 40
1
 40
1
 10
737.389023
 20
128.782852
 30
0.0
 10
739.887650
 20
131.281479
 30
0.0
 10
741.290909
 20
134.670182
 30
0.0
 10
741.290909
 20
138.203507
 30
0.0
  0
SPLINE
  5
2fb
100
AcDbEntity
  8
0
 62
7
100
AcDbSpline
 70
8
 71
3
 72
8
 73
4
 74
0
 40
0
 40
0
 40
0
 40
0
 40
1
 40
1
 40
1
 40
1
 10
741.290909
 20
138.203507
 30
0.0
 10
741.290909
 20
141.736832
 30
0.0
 10
739.887650
 20
145.125534
 30
0.0
 10
737.389023
 20
147.624161
 30
0.0
  0
SPLINE
  5
2fc
100
AcDbEntity
  8
0
 62
7
100
AcDbSpline
 70
8
 71
3
 72
8
 73
4
 74
0
 40
0
 40
0
 40
0
 40
0
 40
1
 40
1
 40
1
 40
1
 10
737.389023
 20
147.624161
 30
0.0
 10
734.890396
 20
150.122788
 30
0.0
 10
731.501694
 20
151.526047
 30
0.0
 10
727.968369
 20
151.526047
 30
0.0
  0
SPLINE
  5
2fd
100
AcDbEntity
  8
0
 62
7
100
AcDbSpline
 70
8
 71
3
 72
8
 73
4
 74
0
 40
0
 40
0
 40
0
 40
0
 40
1
 40
1
 40
1
 40
1
 10
727.968369
 20
151.526047
 30
0.0
 10
724.435043
 20
151.526047
 30
0.0
 10
721.046341
 20
150.122788
 30
0.0
 10
718.547714
 20
147.624161
 30
0.0
  0
SPLINE
  5
2fe
100
AcDbEntity
  8
0
 62
7
100
AcDbSpline
 70
8
 71
3
 72
8
 73
4
 74
0
 40
0
 40
0
 40
0
 40
0
 40
1
 40
1
 40
1
 40
1
 10
718.547714
 20
147.624161
 30
0.0
 10
716.049088
 20
145.125534
 30
0.0
 10
714.645828
 20
141.736832
 30
0.0
 10
714.645828
 20
138.203507
 30
0.0
  0
SPLINE
  5
2ff
100
AcDbEntity
  8
0
 62
7
100
AcDbSpline
 70
8
 71
3
 72
8
 73
4
 74
0
 40
0
 40
0
 40
0
 40
0
 40
1
 40
1
 40
1
 40
1
 10
714.645828
 20
138.203507
 30
0.0
 10
714.645828
 20
137.472275
 30
0.0
 10
714.705933
 20
136.747223
 30
0.0
 10
714.823410
 20
136.034973
 30
0.0
  0
SPLINE
  5
300
100
AcDbEntity
  8
0
 62
7
100
AcDbSpline
 70
8
 71
3
 72
8
 73
4
 74
0
 40
0
 40
0
 40
0
 40
0
 40
1
 40
1
 40
1
 40
1
 10
714.823441
 20
136.034928
 30
0.0
 10
712.603699
 20
135.783158
 30
0.0
 10
710.521545
 20
134.787140
 30
0.0
 10
708.926514
 20
133.192108
 30
0.0
  0
SPLINE
  5
301
100
AcDbEntity
  8
0
 62
7
100
AcDbSpline
 70
8
 71
3
 72
8
 73
4
 74
0
 40
0
 40
0
 40
0
 40
0
 40
1
 40
1
 40
1
 40
1
 10
708.926514
 20
133.192108
 30
0.0
 10
707.065979
 20
131.331574
 30
0.0
 10
706.020493
 20
128.808274
 30
0.0
 10
706.020493
 20
126.176880
 30
0.0
  0
SPLINE
  5
302
100
AcDbEntity
  8
0
 62
7
100
AcDbSpline
 70
8
 71
3
 72
8
 73
4
 74
0
 40
0
 40
0
 40
0
 40
0
 40
1
 40
1
 40
1
 40
1
 10
706.020493
 20
126.176880
 30
0.0
 10
706.020493
 20
123.545487
 30
0.0
 10
707.065979
 20
121.022187
 30
0.0
 10
708.926514
 20
119.161652
 30
0.0
  0
SPLINE
  5
303
100
AcDbEntity
  8
0
 62
7
100
AcDbSpline
 70
8
 71
3
 72
8
 73
4
 74
0
 40
0
 40
0
 40
0
 40
0
 40
1
 40
1
 40
1
 40
1
 10
708.926514
 20
119.161652
 30
0.0
 10
710.787048
 20
117.301117
 30
0.0
 10
713.310349
 20
116.255631
 30
0.0
 10
715.941742
 20
116.255631
 30
0.0
  0
SPLINE
  5
304
100
AcDbEntity
  8
0
 62
7
100
AcDbSpline
 70
8
 71
3
 72
8
 73
4
 74
0
 40
0
 40
0
 40
0
 40
0
 40
1
 40
1
 40
1
 40
1
 10
715.941742
 20
116.255631
 30
0.0
 10
718.573135
 20
116.255631
 30
0.0
 10
721.096436
 20
117.301117
 30
0.0
 10
722.956970
 20
119.161652
 30
0.0
  0
SPLINE
  5
305
100
AcDbEntity
  8
0
 62
7
100
AcDbSpline
 70
8
 71
3
 72
8
 73
4
 74
0
 40
0
 40
0
 40
0
 40
0
 40
1
 40
1
 40
1
 40
1
 10
722.956970
 20
119.161652
 30
0.0
 10
724.552002
 20
120.756684
 30
0.0
 10
725.548019
 20
122.838837
 30
0.0
 10
725.799789
 20
125.058579
 30
0.0
  0
SPLINE
  5
306
100
AcDbEntity
  8
0
 62
7
100
AcDbSpline
 70
8
 71
3
 72
8
 73
4
 74
0
 40
0
 40
0
 40
0
 40
0
 40
1
 40
1
 40
1
 40
1
 10
187.217117
 20
174.156189
 30
0.0
 10
187.929413
 20
174.038697
 30
0.0
 10
188.654510
 20
173.978592
 30
0.0
 10
189.385803
 20
173.978592
 30
0.0
  0
SPLINE
  5
307
100
AcDbEntity
  8
0
 62
7
100
AcDbSpline
 70
8
 71
3
 72
8
 73
4
 74
0
 40
0
 40
0
 40
0
 40
0
 40
1
 40
1
 40
1
 40
1
 10
189.385803
 20
173.978592
 30
0.0
 10
192.919128
 20
173.978592
 30
0.0
 10
196.307831
 20
175.381851
 30
0.0
 10
198.806458
 20
177.880478
 30
0.0
  0
SPLINE
  5
308
100
AcDbEntity
  8
0
 62
7
100
AcDbSpline
 70
8
 71
3
 72
8
 73
4
 74
0
 40
0
 40
0
 40
0
 40
0
 40
1
 40
1
 40
1
 40
1
 10
198.806458
 20
177.880478
 30
0.0
 10
201.305084
 20
180.379105
 30
0.0
 10
202.708344
 20
183.767807
 30
0.0
 10
202.708344
 20
187.301132
 30
0.0
  0
SPLINE
  5
309
100
AcDbEntity
  8
0
 62
7
100
AcDbSpline
 70
8
 71
3
 72
8
 73
4
 74
0
 40
0
 40
0
 40
0
 40
0
 40
1
 40
1
 40
1
 40
1
 10
202.708344
 20
187.301132
 30
0.0
 10
202.708344
 20
190.834458
 30
0.0
 10
201.305084
 20
194.223160
 30
0.0
 10
198.806458
 20
196.721787
 30
0.0
  0
SPLINE
  5
30a
100
AcDbEntity
  8
0
 62
7
100
AcDbSpline
 70
8
 71
3
 72
8
 73
4
 74
0
 40
0
 40
0
 40
0
 40
0
 40
1
 40
1
 40
1
 40
1
 10
198.806458
 20
196.721787
 30
0.0
 10
196.307831
 20
199.220413
 30
0.0
 10
192.919128
 20
200.623673
 30
0.0
 10
189.385803
 20
200.623673
 30
0.0
  0
SPLINE
  5
30b
100
AcDbEntity
  8
0
 62
7
100
AcDbSpline
 70
8
 71
3
 72
8
 73
4
 74
0
 40
0
 40
0
 40
0
 40
0
 40
1
 40
1
 40
1
 40
1
 10
189.385803
 20
200.623673
 30
0.0
 10
185.852478
 20
200.623673
 30
0.0
 10
182.463776
 20
199.220413
 30
0.0
 10
179.965149
 20
196.721787
 30
0.0
  0
SPLINE
  5
30c
100
AcDbEntity
  8
0
 62
7
100
AcDbSpline
 70
8
 71
3
 72
8
 73
4
 74
0
 40
0
 40
0
 40
0
 40
0
 40
1
 40
1
 40
1
 40
1
 10
179.965149
 20
196.721787
 30
0.0
 10
177.466522
 20
194.223160
 30
0.0
 10
176.063263
 20
190.834458
 30
0.0
 10
176.063263
 20
187.301132
 30
0.0
  0
SPLINE
  5
30d
100
AcDbEntity
  8
0
 62
7
100
AcDbSpline
 70
8
 71
3
 72
8
 73
4
 74
0
 40
0
 40
0
 40
0
 40
0
 40
1
 40
1
 40
1
 40
1
 10
176.063263
 20
187.301132
 30
0.0
 10
176.063263
 20
186.569901
 30
0.0
 10
176.123367
 20
185.844849
 30
0.0
 10
176.240845
 20
185.132599
 30
0.0
  0
SPLINE
  5
30e
100
AcDbEntity
  8
0
 62
7
100
AcDbSpline
 70
8
 71
3
 72
8
 73
4
 74
0
 40
0
 40
0
 40
0
 40
0
 40
1
 40
1
 40
1
 40
1
 10
176.240875
 20
185.132553
 30
0.0
 10
174.021133
 20
184.880783
 30
0.0
 10
171.938980
 20
183.884766
 30
0.0
 10
170.343948
 20
182.289734
 30
0.0
  0
SPLINE
  5
30f
100
AcDbEntity
  8
0
 62
7
100
AcDbSpline
 70
8
 71
3
 72
8
 73
4
 74
0
 40
0
 40
0
 40
0
 40
0
 40
1
 40
1
 40
1
 40
1
 10
170.343948
 20
182.289734
 30
0.0
 10
168.483414
 20
180.429199
 30
0.0
 10
167.437927
 20
177.905899
 30
0.0
 10
167.437927
 20
175.274506
 30
0.0
  0
SPLINE
  5
310
100
AcDbEntity
  8
0
 62
7
100
AcDbSpline
 70
8
 71
3
 72
8
 73
4
 74
0
 40
0
 40
0
 40
0
 40
0
 40
1
 40
1
 40
1
 40
1
 10
167.437927
 20
175.274506
 30
0.0
 10
167.437927
 20
172.643112
 30
0.0
 10
168.483414
 20
170.119812
 30
0.0
 10
170.343948
 20
168.259278
 30
0.0
  0
SPLINE
  5
311
100
AcDbEntity
  8
0
 62
7
100
AcDbSpline
 70
8
 71
3
 72
8
 73
4
 74
0
 40
0
 40
0
 40
0
 40
0
 40
1
 40
1
 40
1
 40
1
 10
170.343948
 20
168.259278
 30
0.0
 10
172.204483
 20
166.398743
 30
0.0
 10
174.727783
 20
165.353256
 30
0.0
 10
177.359177
 20
165.353256
 30
0.0
  0
SPLINE
  5
312
100
AcDbEntity
  8
0
 62
7
100
AcDbSpline
 70
8
 71
3
 72
8
 73
4
 74
0
 40
0
 40
0
 40
0
 40
0
 40
1
 40
1
 40
1
 40
1
 10
177.359177
 20
165.353256
 30
0.0
 10
179.990570
 20
165.353256
 30
0.0
 10
182.513870
 20
166.398743
 30
0.0
 10
184.374405
 20
168.259278
 30
0.0
  0
SPLINE
  5
313
100
AcDbEntity
  8
0
 62
7
100
AcDbSpline
 70
8
 71
3
 72
8
 73
4
 74
0
 40
0
 40
0
 40
0
 40
0
 40
1
 40
1
 40
1
 40
1
 10
184.374405
 20
168.259278
 30
0.0
 10
185.969437
 20
169.854309
 30
0.0
 10
186.965454
 20
171.936463
 30
0.0
 10
187.217224
 20
174.156204
 30
0.0
  0
SPLINE
  5
314
100
AcDbEntity
  8
0
 62
7
100
AcDbSpline
 70
8
 71
3
 72
8
 73
4
 74
0
 40
0
 40
0
 40
0
 40
0
 40
1
 40
1
 40
1
 40
1
 10
243.910019
 20
174.156189
 30
0.0
 10
244.622314
 20
174.038697
 30
0.0
 10
245.347412
 20
173.978592
 30
0.0
 10
246.078705
 20
173.978592
 30
0.0
  0
SPLINE
  5
315
100
AcDbEntity
  8
0
 62
7
100
AcDbSpline
 70
8
 71
3
 72
8
 73
4
 74
0
 40
0
 40
0
 40
0
 40
0
 40
1
 40
1
 40
1
 40
1
 10
246.078705
 20
173.978592
 30
0.0
 10
249.612030
 20
173.978592
 30
0.0
 10
253.000732
 20
175.381851
 30
0.0
 10
255.499359
 20
177.880478
 30
0.0
  0
SPLINE
  5
316
100
AcDbEntity
  8
0
 62
7
100
AcDbSpline
 70
8
 71
3
 72
8
 73
4
 74
0
 40
0
 40
0
 40
0
 40
0
 40
1
 40
1
 40
1
 40
1
 10
255.499359
 20
177.880478
 30
0.0
 10
257.997986
 20
180.379105
 30
0.0
 10
259.401245
 20
183.767807
 30
0.0
 10
259.401245
 20
187.301132
 30
0.0
  0
SPLINE
  5
317
100
AcDbEntity
  8
0
 62
7
100
AcDbSpline
 70
8
 71
3
 72
8
 73
4
 74
0
 40
0
 40
0
 40
0
 40
0
 40
1
 40
1
 40
1
 40
1
 10
259.401245
 20
187.301132
 30
0.0
 10
259.401245
 20
190.834458
 30
0.0
 10
257.997986
 20
194.223160
 30
0.0
 10
255.499359
 20
196.721787
 30
0.0
  0
SPLINE
  5
318
100
AcDbEntity
  8
0
 62
7
100
AcDbSpline
 70
8
 71
3
 72
8
 73
4
 74
0
 40
0
 40
0
 40
0
 40
0
 40
1
 40
1
 40
1
 40
1
 10
255.499359
 20
196.721787
 30
0.0
 10
253.000732
 20
199.220413
 30
0.0
 10
249.612030
 20
200.623673
 30
0.0
 10
246.078705
 20
200.623673
 30
0.0
  0
SPLINE
  5
319
100
AcDbEntity
  8
0
 62
7
100
AcDbSpline
 70
8
 71
3
 72
8
 73
4
 74
0
 40
0
 40
0
 40
0
 40
0
 40
1
 40
1
 40
1
 40
1
 10
246.078705
 20
200.623673
 30
0.0
 10
242.545380
 20
200.623673
 30
0.0
 10
239.156677
 20
199.220413
 30
0.0
 10
236.658051
 20
196.721787
 30
0.0
  0
SPLINE
  5
31a
100
AcDbEntity
  8
0
 62
7
100
AcDbSpline
 70
8
 71
3
 72
8
 73
4
 74
0
 40
0
 40
0
 40
0
 40
0
 40
1
 40
1
 40
1
 40
1
 10
236.658051
 20
196.721787
 30
0.0
 10
234.159424
 20
194.223160
 30
0.0
 10
232.756165
 20
190.834458
 30
0.0
 10
232.756165
 20
187.301132
 30
0.0
  0
SPLINE
  5
31b
100
AcDbEntity
  8
0
 62
7
100
AcDbSpline
 70
8
 71
3
 72
8
 73
4
 74
0
 40
0
 40
0
 40
0
 40
0
 40
1
 40
1
 40
1
 40
1
 10
232.756165
 20
187.301132
 30
0.0
 10
232.756165
 20
186.569901
 30
0.0
 10
232.816269
 20
185.844849
 30
0.0
 10
232.933746
 20
185.132599
 30
0.0
  0
SPLINE
  5
31c
100
AcDbEntity
  8
0
 62
7
100
AcDbSpline
 70
8
 71
3
 72
8
 73
4
 74
0
 40
0
 40
0
 40
0
 40
0
 40
1
 40
1
 40
1
 40
1
 10
232.933777
 20
185.132553
 30
0.0
 10
230.714035
 20
184.880783
 30
0.0
 10
228.631882
 20
183.884766
 30
0.0
 10
227.036850
 20
182.289734
 30
0.0
  0
SPLINE
  5
31d
100
AcDbEntity
  8
0
 62
7
100
AcDbSpline
 70
8
 71
3
 72
8
 73
4
 74
0
 40
0
 40
0
 40
0
 40
0
 40
1
 40
1
 40
1
 40
1
 10
227.036850
 20
182.289734
 30
0.0
 10
225.176315
 20
180.429199
 30
0.0
 10
224.130829
 20
177.905899
 30
0.0
 10
224.130829
 20
175.274506
 30
0.0
  0
SPLINE
  5
31e
100
AcDbEntity
  8
0
 62
7
100
AcDbSpline
 70
8
 71
3
 72
8
 73
4
 74
0
 40
0
 40
0
 40
0
 40
0
 40
1
 40
1
 40
1
 40
1
 10
224.130829
 20
175.274506
 30
0.0
 10
224.130829
 20
172.643112
 30
0.0
 10
225.176315
 20
170.119812
 30
0.0
 10
227.036850
 20
168.259278
 30
0.0
  0
SPLINE
  5
31f
100
AcDbEntity
  8
0
 62
7
100
AcDbSpline
 70
8
 71
3
 72
8
 73
4
 74
0
 40
0
 40
0
 40
0
 40
0
 40
1
 40
1
 40
1
 40
1
 10
227.036850
 20
168.259278
 30
0.0
 10
228.897385
 20
166.398743
 30
0.0
 10
231.420685
 20
165.353256
 30
0.0
 10
234.052078
 20
165.353256
 30
0.0
  0
SPLINE
  5
320
100
AcDbEntity
  8
0
 62
7
100
AcDbSpline
 70
8
 71
3
 72
8
 73
4
 74
0
 40
0
 40
0
 40
0
 40
0
 40
1
 40
1
 40
1
 40
1
 10
234.052078
 20
165.353256
 30
0.0
 10
236.683472
 20
165.353256
 30
0.0
 10
239.206772
 20
166.398743
 30
0.0
 10
241.067307
 20
168.259278
 30
0.0
  0
SPLINE
  5
321
100
AcDbEntity
  8
0
 62
7
100
AcDbSpline
 70
8
 71
3
 72
8
 73
4
 74
0
 40
0
 40
0
 40
0
 40
0
 40
1
 40
1
 40
1
 40
1
 10
241.067307
 20
168.259278
 30
0.0
 10
242.662338
 20
169.854309
 30
0.0
 10
243.658356
 20
171.936463
 30
0.0
 10
243.910126
 20
174.156204
 30
0.0
  0
SPLINE
  5
322
100
AcDbEntity
  8
0
 62
7
100
AcDbSpline
 70
8
 71
3
 72
8
 73
4
 74
0
 40
0
 40
0
 40
0
 40
0
 40
1
 40
1
 40
1
 40
1
 10
300.602921
 20
174.156189
 30
0.0
 10
301.315216
 20
174.038697
 30
0.0
 10
302.040314
 20
173.978592
 30
0.0
 10
302.771606
 20
173.978592
 30
0.0
  0
SPLINE
  5
323
100
AcDbEntity
  8
0
 62
7
100
AcDbSpline
 70
8
 71
3
 72
8
 73
4
 74
0
 40
0
 40
0
 40
0
 40
0
 40
1
 40
1
 40
1
 40
1
 10
302.771606
 20
173.978592
 30
0.0
 10
306.304932
 20
173.978592
 30
0.0
 10
309.693634
 20
175.381851
 30
0.0
 10
312.192261
 20
177.880478
 30
0.0
  0
SPLINE
  5
324
100
AcDbEntity
  8
0
 62
7
100
AcDbSpline
 70
8
 71
3
 72
8
 73
4
 74
0
 40
0
 40
0
 40
0
 40
0
 40
1
 40
1
 40
1
 40
1
 10
312.192261
 20
177.880478
 30
0.0
 10
314.690887
 20
180.379105
 30
0.0
 10
316.094147
 20
183.767807
 30
0.0
 10
316.094147
 20
187.301132
 30
0.0
  0
SPLINE
  5
325
100
AcDbEntity
  8
0
 62
7
100
AcDbSpline
 70
8
 71
3
 72
8
 73
4
 74
0
 40
0
 40
0
 40
0
 40
0
 40
1
 40
1
 40
1
 40
1
 10
316.094147
 20
187.301132
 30
0.0
 10
316.094147
 20
190.834458
 30
0.0
 10
314.690887
 20
194.223160
 30
0.0
 10
312.192261
 20
196.721787
 30
0.0
  0
SPLINE
  5
326
100
AcDbEntity
  8
0
 62
7
100
AcDbSpline
 70
8
 71
3
 72
8
 73
4
 74
0
 40
0
 40
0
 40
0
 40
0
 40
1
 40
1
 40
1
 40
1
 10
312.192261
 20
196.721787
 30
0.0
 10
309.693634
 20
199.220413
 30
0.0
 10
306.304932
 20
200.623673
 30
0.0
 10
302.771606
 20
200.623673
 30
0.0
  0
SPLINE
  5
327
100
AcDbEntity
  8
0
 62
7
100
AcDbSpline
 70
8
 71
3
 72
8
 73
4
 74
0
 40
0
 40
0
 40
0
 40
0
 40
1
 40
1
 40
1
 40
1
 10
302.771606
 20
200.623673
 30
0.0
 10
299.238281
 20
200.623673
 30
0.0
 10
295.849579
 20
199.220413
 30
0.0
 10
293.350952
 20
196.721787
 30
0.0
  0
SPLINE
  5
328
100
AcDbEntity
  8
0
 62
7
100
AcDbSpline
 70
8
 71
3
 72
8
 73
4
 74
0
 40
0
 40
0
 40
0
 40
0
 40
1
 40
1
 40
1
 40
1
 10
293.350952
 20
196.721787
 30
0.0
 10
290.852325
 20
194.223160
 30
0.0
 10
289.449066
 20
190.834458
 30
0.0
 10
289.449066
 20
187.301132
 30
0.0
  0
SPLINE
  5
329
100
AcDbEntity
  8
0
 62
7
100
AcDbSpline
 70
8
 71
3
 72
8
 73
4
 74
0
 40
0
 40
0
 40
0
 40
0
 40
1
 40
1
 40
1
 40
1
 10
289.449066
 20
187.301132
 30
0.0
 10
289.449066
 20
186.569901
 30
0.0
 10
289.509171
 20
185.844849
 30
0.0
 10
289.626648
 20
185.132599
 30
0.0
  0
SPLINE
  5
32a
100
AcDbEntity
  8
0
 62
7
100
AcDbSpline
 70
8
 71
3
 72
8
 73
4
 74
0
 40
0
 40
0
 40
0
 40
0
 40
1
 40
1
 40
1
 40
1
 10
289.626678
 20
185.132553
 30
0.0
 10
287.406937
 20
184.880783
 30
0.0
 10
285.324783
 20
183.884766
 30
0.0
 10
283.729752
 20
182.289734
 30
0.0
  0
SPLINE
  5
32b
100
AcDbEntity
  8
0
 62
7
100
AcDbSpline
 70
8
 71
3
 72
8
 73
4
 74
0
 40
0
 40
0
 40
0
 40
0
 40
1
 40
1
 40
1
 40
1
 10
283.729752
 20
182.289734
 30
0.0
 10
281.869217
 20
180.429199
 30
0.0
 10
280.823730
 20
177.905899
 30
0.0
 10
280.823730
 20
175.274506
 30
0.0
  0
SPLINE
  5
32c
100
AcDbEntity
  8
0
 62
7
100
AcDbSpline
 70
8
 71
3
 72
8
 73
4
 74
0
 40
0
 40
0
 40
0
 40
0
 40
1
 40
1
 40
1
 40
1
 10
280.823730
 20
175.274506
 30
0.0
 10
280.823730
 20
172.643112
 30
0.0
 10
281.869217
 20
170.119812
 30
0.0
 10
283.729752
 20
168.259278
 30
0.0
  0
SPLINE
  5
32d
100
AcDbEntity
  8
0
 62
7
100
AcDbSpline
 70
8
 71
3
 72
8
 73
4
 74
0
 40
0
 40
0
 40
0
 40
0
 40
1
 40
1
 40
1
 40
1
 10
283.729752
 20
168.259278
 30
0.0
 10
285.590286
 20
166.398743
 30
0.0
 10
288.113586
 20
165.353256
 30
0.0
 10
290.744980
 20
165.353256
 30
0.0
  0
SPLINE
  5
32e
100
AcDbEntity
  8
0
 62
7
100
AcDbSpline
 70
8
 71
3
 72
8
 73
4
 74
0
 40
0
 40
0
 40
0
 40
0
 40
1
 40
1
 40
1
 40
1
 10
290.744980
 20
165.353256
 30
0.0
 10
293.376373
 20
165.353256
 30
0.0
 10
295.899673
 20
166.398743
 30
0.0
 10
297.760208
 20
168.259278
 30
0.0
  0
SPLINE
  5
32f
100
AcDbEntity
  8
0
 62
7
100
AcDbSpline
 70
8
 71
3
 72
8
 73
4
 74
0
 40
0
 40
0
 40
0
 40
0
 40
1
 40
1
 40
1
 40
1
 10
297.760208
 20
168.259278
 30
0.0
 10
299.355240
 20
169.854309
 30
0.0
 10
300.351257
 20
171.936463
 30
0.0
 10
300.603027
 20
174.156204
 30
0.0
  0
SPLINE
  5
330
100
AcDbEntity
  8
0
 62
7
100
AcDbSpline
 70
8
 71
3
 72
8
 73
4
 74
0
 40
0
 40
0
 40
0
 40
0
 40
1
 40
1
 40
1
 40
1
 10
357.295822
 20
174.156189
 30
0.0
 10
358.008118
 20
174.038697
 30
0.0
 10
358.733215
 20
173.978592
 30
0.0
 10
359.464508
 20
173.978592
 30
0.0
  0
SPLINE
  5
331
100
AcDbEntity
  8
0
 62
7
100
AcDbSpline
 70
8
 71
3
 72
8
 73
4
 74
0
 40
0
 40
0
 40
0
 40
0
 40
1
 40
1
 40
1
 40
1
 10
359.464508
 20
173.978592
 30
0.0
 10
362.997833
 20
173.978592
 30
0.0
 10
366.386536
 20
175.381851
 30
0.0
 10
368.885162
 20
177.880478
 30
0.0
  0
SPLINE
  5
332
100
AcDbEntity
  8
0
 62
7
100
AcDbSpline
 70
8
 71
3
 72
8
 73
4
 74
0
 40
0
 40
0
 40
0
 40
0
 40
1
 40
1
 40
1
 40
1
 10
368.885162
 20
177.880478
 30
0.0
 10
371.383789
 20
180.379105
 30
0.0
 10
372.787048
 20
183.767807
 30
0.0
 10
372.787048
 20
187.301132
 30
0.0
  0
SPLINE
  5
333
100
AcDbEntity
  8
0
 62
7
100
AcDbSpline
 70
8
 71
3
 72
8
 73
4
 74
0
 40
0
 40
0
 40
0
 40
0
 40
1
 40
1
 40
1
 40
1
 10
372.787048
 20
187.301132
 30
0.0
 10
372.787048
 20
190.834458
 30
0.0
 10
371.383789
 20
194.223160
 30
0.0
 10
368.885162
 20
196.721787
 30
0.0
  0
SPLINE
  5
334
100
AcDbEntity
  8
0
 62
7
100
AcDbSpline
 70
8
 71
3
 72
8
 73
4
 74
0
 40
0
 40
0
 40
0
 40
0
 40
1
 40
1
 40
1
 40
1
 10
368.885162
 20
196.721787
 30
0.0
 10
366.386536
 20
199.220413
 30
0.0
 10
362.997833
 20
200.623673
 30
0.0
 10
359.464508
 20
200.623673
 30
0.0
  0
SPLINE
  5
335
100
AcDbEntity
  8
0
 62
7
100
AcDbSpline
 70
8
 71
3
 72
8
 73
4
 74
0
 40
0
 40
0
 40
0
 40
0
 40
1
 40
1
 40
1
 40
1
 10
359.464508
 20
200.623673
 30
0.0
 10
355.931183
 20
200.623673
 30
0.0
 10
352.542480
 20
199.220413
 30
0.0
 10
350.043854
 20
196.721787
 30
0.0
  0
SPLINE
  5
336
100
AcDbEntity
  8
0
 62
7
100
AcDbSpline
 70
8
 71
3
 72
8
 73
4
 74
0
 40
0
 40
0
 40
0
 40
0
 40
1
 40
1
 40
1
 40
1
 10
350.043854
 20
196.721787
 30
0.0
 10
347.545227
 20
194.223160
 30
0.0
 10
346.141968
 20
190.834458
 30
0.0
 10
346.141968
 20
187.301132
 30
0.0
  0
SPLINE
  5
337
100
AcDbEntity
  8
0
 62
7
100
AcDbSpline
 70
8
 71
3
 72
8
 73
4
 74
0
 40
0
 40
0
 40
0
 40
0
 40
1
 40
1
 40
1
 40
1
 10
346.141968
 20
187.301132
 30
0.0
 10
346.141968
 20
186.569901
 30
0.0
 10
346.202072
 20
185.844849
 30
0.0
 10
346.319550
 20
185.132599
 30
0.0
  0
SPLINE
  5
338
100
AcDbEntity
  8
0
 62
7
100
AcDbSpline
 70
8
 71
3
 72
8
 73
4
 74
0
 40
0
 40
0
 40
0
 40
0
 40
1
 40
1
 40
1
 40
1
 10
346.319580
 20
185.132553
 30
0.0
 10
344.099838
 20
184.880783
 30
0.0
 10
342.017685
 20
183.884766
 30
0.0
 10
340.422653
 20
182.289734
 30
0.0
  0
SPLINE
  5
339
100
AcDbEntity
  8
0
 62
7
100
AcDbSpline
 70
8
 71
3
 72
8
 73
4
 74
0
 40
0
 40
0
 40
0
 40
0
 40
1
 40
1
 40
1
 40
1
 10
340.422653
 20
182.289734
 30
0.0
 10
338.562119
 20
180.429199
 30
0.0
 10
337.516632
 20
177.905899
 30
0.0
 10
337.516632
 20
175.274506
 30
0.0
  0
SPLINE
  5
33a
100
AcDbEntity
  8
0
 62
7
100
AcDbSpline
 70
8
 71
3
 72
8
 73
4
 74
0
 40
0
 40
0
 40
0
 40
0
 40
1
 40
1
 40
1
 40
1
 10
337.516632
 20
175.274506
 30
0.0
 10
337.516632
 20
172.643112
 30
0.0
 10
338.562119
 20
170.119812
 30
0.0
 10
340.422653
 20
168.259278
 30
0.0
  0
SPLINE
  5
33b
100
AcDbEntity
  8
0
 62
7
100
AcDbSpline
 70
8
 71
3
 72
8
 73
4
 74
0
 40
0
 40
0
 40
0
 40
0
 40
1
 40
1
 40
1
 40
1
 10
340.422653
 20
168.259278
 30
0.0
 10
342.283188
 20
166.398743
 30
0.0
 10
344.806488
 20
165.353256
 30
0.0
 10
347.437881
 20
165.353256
 30
0.0
  0
SPLINE
  5
33c
100
AcDbEntity
  8
0
 62
7
100
AcDbSpline
 70
8
 71
3
 72
8
 73
4
 74
0
 40
0
 40
0
 40
0
 40
0
 40
1
 40
1
 40
1
 40
1
 10
347.437881
 20
165.353256
 30
0.0
 10
350.069275
 20
165.353256
 30
0.0
 10
352.592575
 20
166.398743
 30
0.0
 10
354.453110
 20
168.259278
 30
0.0
  0
SPLINE
  5
33d
100
AcDbEntity
  8
0
 62
7
100
AcDbSpline
 70
8
 71
3
 72
8
 73
4
 74
0
 40
0
 40
0
 40
0
 40
0
 40
1
 40
1
 40
1
 40
1
 10
354.453110
 20
168.259278
 30
0.0
 10
356.048141
 20
169.854309
 30
0.0
 10
357.044159
 20
171.936463
 30
0.0
 10
357.295929
 20
174.156204
 30
0.0
  0
SPLINE
  5
33e
100
AcDbEntity
  8
0
 62
7
100
AcDbSpline
 70
8
 71
3
 72
8
 73
4
 74
0
 40
0
 40
0
 40
0
 40
0
 40
1
 40
1
 40
1
 40
1
 10
413.988724
 20
174.156189
 30
0.0
 10
414.701019
 20
174.038697
 30
0.0
 10
415.426117
 20
173.978592
 30
0.0
 10
416.157410
 20
173.978592
 30
0.0
  0
SPLINE
  5
33f
100
AcDbEntity
  8
0
 62
7
100
AcDbSpline
 70
8
 71
3
 72
8
 73
4
 74
0
 40
0
 40
0
 40
0
 40
0
 40
1
 40
1
 40
1
 40
1
 10
416.157410
 20
173.978592
 30
0.0
 10
419.690735
 20
173.978592
 30
0.0
 10
423.079437
 20
175.381851
 30
0.0
 10
425.578064
 20
177.880478
 30
0.0
  0
SPLINE
  5
340
100
AcDbEntity
  8
0
 62
7
100
AcDbSpline
 70
8
 71
3
 72
8
 73
4
 74
0
 40
0
 40
0
 40
0
 40
0
 40
1
 40
1
 40
1
 40
1
 10
425.578064
 20
177.880478
 30
0.0
 10
428.076691
 20
180.379105
 30
0.0
 10
429.479950
 20
183.767807
 30
0.0
 10
429.479950
 20
187.301132
 30
0.0
  0
SPLINE
  5
341
100
AcDbEntity
  8
0
 62
7
100
AcDbSpline
 70
8
 71
3
 72
8
 73
4
 74
0
 40
0
 40
0
 40
0
 40
0
 40
1
 40
1
 40
1
 40
1
 10
429.479950
 20
187.301132
 30
0.0
 10
429.479950
 20
190.834458
 30
0.0
 10
428.076691
 20
194.223160
 30
0.0
 10
425.578064
 20
196.721787
 30
0.0
  0
SPLINE
  5
342
100
AcDbEntity
  8
0
 62
7
100
AcDbSpline
 70
8
 71
3
 72
8
 73
4
 74
0
 40
0
 40
0
 40
0
 40
0
 40
1
 40
1
 40
1
 40
1
 10
425.578064
 20
196.721787
 30
0.0
 10
423.079437
 20
199.220413
 30
0.0
 10
419.690735
 20
200.623673
 30
0.0
 10
416.157410
 20
200.623673
 30
0.0
  0
SPLINE
  5
343
100
AcDbEntity
  8
0
 62
7
100
AcDbSpline
 70
8
 71
3
 72
8
 73
4
 74
0
 40
0
 40
0
 40
0
 40
0
 40
1
 40
1
 40
1
 40
1
 10
416.157410
 20
200.623673
 30
0.0
 10
412.624084
 20
200.623673
 30
0.0
 10
409.235382
 20
199.220413
 30
0.0
 10
406.736755
 20
196.721787
 30
0.0
  0
SPLINE
  5
344
100
AcDbEntity
  8
0
 62
7
100
AcDbSpline
 70
8
 71
3
 72
8
 73
4
 74
0
 40
0
 40
0
 40
0
 40
0
 40
1
 40
1
 40
1
 40
1
 10
406.736755
 20
196.721787
 30
0.0
 10
404.238129
 20
194.223160
 30
0.0
 10
402.834869
 20
190.834458
 30
0.0
 10
402.834869
 20
187.301132
 30
0.0
  0
SPLINE
  5
345
100
AcDbEntity
  8
0
 62
7
100
AcDbSpline
 70
8
 71
3
 72
8
 73
4
 74
0
 40
0
 40
0
 40
0
 40
0
 40
1
 40
1
 40
1
 40
1
 10
402.834869
 20
187.301132
 30
0.0
 10
402.834869
 20
186.569901
 30
0.0
 10
402.894974
 20
185.844849
 30
0.0
 10
403.012451
 20
185.132599
 30
0.0
  0
SPLINE
  5
346
100
AcDbEntity
  8
0
 62
7
100
AcDbSpline
 70
8
 71
3
 72
8
 73
4
 74
0
 40
0
 40
0
 40
0
 40
0
 40
1
 40
1
 40
1
 40
1
 10
403.012482
 20
185.132553
 30
0.0
 10
400.792740
 20
184.880783
 30
0.0
 10
398.710587
 20
183.884766
 30
0.0
 10
397.115555
 20
182.289734
 30
0.0
  0
SPLINE
  5
347
100
AcDbEntity
  8
0
 62
7
100
AcDbSpline
 70
8
 71
3
 72
8
 73
4
 74
0
 40
0
 40
0
 40
0
 40
0
 40
1
 40
1
 40
1
 40
1
 10
397.115555
 20
182.289734
 30
0.0
 10
395.255020
 20
180.429199
 30
0.0
 10
394.209534
 20
177.905899
 30
0.0
 10
394.209534
 20
175.274506
 30
0.0
  0
SPLINE
  5
348
100
AcDbEntity
  8
0
 62
7
100
AcDbSpline
 70
8
 71
3
 72
8
 73
4
 74
0
 40
0
 40
0
 40
0
 40
0
 40
1
 40
1
 40
1
 40
1
 10
394.209534
 20
175.274506
 30
0.0
 10
394.209534
 20
172.643112
 30
0.0
 10
395.255020
 20
170.119812
 30
0.0
 10
397.115555
 20
168.259278
 30
0.0
  0
SPLINE
  5
349
100
AcDbEntity
  8
0
 62
7
100
AcDbSpline
 70
8
 71
3
 72
8
 73
4
 74
0
 40
0
 40
0
 40
0
 40
0
 40
1
 40
1
 40
1
 40
1
 10
397.115555
 20
168.259278
 30
0.0
 10
398.976089
 20
166.398743
 30
0.0
 10
401.499390
 20
165.353256
 30
0.0
 10
404.130783
 20
165.353256
 30
0.0
  0
SPLINE
  5
34a
100
AcDbEntity
  8
0
 62
7
100
AcDbSpline
 70
8
 71
3
 72
8
 73
4
 74
0
 40
0
 40
0
 40
0
 40
0
 40
1
 40
1
 40
1
 40
1
 10
404.130783
 20
165.353256
 30
0.0
 10
406.762177
 20
165.353256
 30
0.0
 10
409.285477
 20
166.398743
 30
0.0
 10
411.146011
 20
168.259278
 30
0.0
  0
SPLINE
  5
34b
100
AcDbEntity
  8
0
 62
7
100
AcDbSpline
 70
8
 71
3
 72
8
 73
4
 74
0
 40
0
 40
0
 40
0
 40
0
 40
1
 40
1
 40
1
 40
1
 10
411.146011
 20
168.259278
 30
0.0
 10
412.741043
 20
169.854309
 30
0.0
 10
413.737061
 20
171.936463
 30
0.0
 10
413.988831
 20
174.156204
 30
0.0
  0
SPLINE
  5
34c
100
AcDbEntity
  8
0
 62
7
100
AcDbSpline
 70
8
 71
3
 72
8
 73
4
 74
0
 40
0
 40
0
 40
0
 40
0
 40
1
 40
1
 40
1
 40
1
 10
470.681625
 20
174.156189
 30
0.0
 10
471.393921
 20
174.038697
 30
0.0
 10
472.119019
 20
173.978592
 30
0.0
 10
472.850311
 20
173.978592
 30
0.0
  0
SPLINE
  5
34d
100
AcDbEntity
  8
0
 62
7
100
AcDbSpline
 70
8
 71
3
 72
8
 73
4
 74
0
 40
0
 40
0
 40
0
 40
0
 40
1
 40
1
 40
1
 40
1
 10
472.850311
 20
173.978592
 30
0.0
 10
476.383636
 20
173.978592
 30
0.0
 10
479.772339
 20
175.381851
 30
0.0
 10
482.270966
 20
177.880478
 30
0.0
  0
SPLINE
  5
34e
100
AcDbEntity
  8
0
 62
7
100
AcDbSpline
 70
8
 71
3
 72
8
 73
4
 74
0
 40
0
 40
0
 40
0
 40
0
 40
1
 40
1
 40
1
 40
1
 10
482.270966
 20
177.880478
 30
0.0
 10
484.769592
 20
180.379105
 30
0.0
 10
486.172852
 20
183.767807
 30
0.0
 10
486.172852
 20
187.301132
 30
0.0
  0
SPLINE
  5
34f
100
AcDbEntity
  8
0
 62
7
100
AcDbSpline
 70
8
 71
3
 72
8
 73
4
 74
0
 40
0
 40
0
 40
0
 40
0
 40
1
 40
1
 40
1
 40
1
 10
486.172852
 20
187.301132
 30
0.0
 10
486.172852
 20
190.834458
 30
0.0
 10
484.769592
 20
194.223160
 30
0.0
 10
482.270966
 20
196.721787
 30
0.0
  0
SPLINE
  5
350
100
AcDbEntity
  8
0
 62
7
100
AcDbSpline
 70
8
 71
3
 72
8
 73
4
 74
0
 40
0
 40
0
 40
0
 40
0
 40
1
 40
1
 40
1
 40
1
 10
482.270966
 20
196.721787
 30
0.0
 10
479.772339
 20
199.220413
 30
0.0
 10
476.383636
 20
200.623673
 30
0.0
 10
472.850311
 20
200.623673
 30
0.0
  0
SPLINE
  5
351
100
AcDbEntity
  8
0
 62
7
100
AcDbSpline
 70
8
 71
3
 72
8
 73
4
 74
0
 40
0
 40
0
 40
0
 40
0
 40
1
 40
1
 40
1
 40
1
 10
472.850311
 20
200.623673
 30
0.0
 10
469.316986
 20
200.623673
 30
0.0
 10
465.928284
 20
199.220413
 30
0.0
 10
463.429657
 20
196.721787
 30
0.0
  0
SPLINE
  5
352
100
AcDbEntity
  8
0
 62
7
100
AcDbSpline
 70
8
 71
3
 72
8
 73
4
 74
0
 40
0
 40
0
 40
0
 40
0
 40
1
 40
1
 40
1
 40
1
 10
463.429657
 20
196.721787
 30
0.0
 10
460.931030
 20
194.223160
 30
0.0
 10
459.527771
 20
190.834458
 30
0.0
 10
459.527771
 20
187.301132
 30
0.0
  0
SPLINE
  5
353
100
AcDbEntity
  8
0
 62
7
100
AcDbSpline
 70
8
 71
3
 72
8
 73
4
 74
0
 40
0
 40
0
 40
0
 40
0
 40
1
 40
1
 40
1
 40
1
 10
459.527771
 20
187.301132
 30
0.0
 10
459.527771
 20
186.569901
 30
0.0
 10
459.587875
 20
185.844849
 30
0.0
 10
459.705353
 20
185.132599
 30
0.0
  0
SPLINE
  5
354
100
AcDbEntity
  8
0
 62
7
100
AcDbSpline
 70
8
 71
3
 72
8
 73
4
 74
0
 40
0
 40
0
 40
0
 40
0
 40
1
 40
1
 40
1
 40
1
 10
459.705383
 20
185.132553
 30
0.0
 10
457.485641
 20
184.880783
 30
0.0
 10
455.403488
 20
183.884766
 30
0.0
 10
453.808456
 20
182.289734
 30
0.0
  0
SPLINE
  5
355
100
AcDbEntity
  8
0
 62
7
100
AcDbSpline
 70
8
 71
3
 72
8
 73
4
 74
0
 40
0
 40
0
 40
0
 40
0
 40
1
 40
1
 40
1
 40
1
 10
453.808456
 20
182.289734
 30
0.0
 10
451.947922
 20
180.429199
 30
0.0
 10
450.902435
 20
177.905899
 30
0.0
 10
450.902435
 20
175.274506
 30
0.0
  0
SPLINE
  5
356
100
AcDbEntity
  8
0
 62
7
100
AcDbSpline
 70
8
 71
3
 72
8
 73
4
 74
0
 40
0
 40
0
 40
0
 40
0
 40
1
 40
1
 40
1
 40
1
 10
450.902435
 20
175.274506
 30
0.0
 10
450.902435
 20
172.643112
 30
0.0
 10
451.947922
 20
170.119812
 30
0.0
 10
453.808456
 20
168.259278
 30
0.0
  0
SPLINE
  5
357
100
AcDbEntity
  8
0
 62
7
100
AcDbSpline
 70
8
 71
3
 72
8
 73
4
 74
0
 40
0
 40
0
 40
0
 40
0
 40
1
 40
1
 40
1
 40
1
 10
453.808456
 20
168.259278
 30
0.0
 10
455.668991
 20
166.398743
 30
0.0
 10
458.192291
 20
165.353256
 30
0.0
 10
460.823685
 20
165.353256
 30
0.0
  0
SPLINE
  5
358
100
AcDbEntity
  8
0
 62
7
100
AcDbSpline
 70
8
 71
3
 72
8
 73
4
 74
0
 40
0
 40
0
 40
0
 40
0
 40
1
 40
1
 40
1
 40
1
 10
460.823685
 20
165.353256
 30
0.0
 10
463.455078
 20
165.353256
 30
0.0
 10
465.978378
 20
166.398743
 30
0.0
 10
467.838913
 20
168.259278
 30
0.0
  0
SPLINE
  5
359
100
AcDbEntity
  8
0
 62
7
100
AcDbSpline
 70
8
 71
3
 72
8
 73
4
 74
0
 40
0
 40
0
 40
0
 40
0
 40
1
 40
1
 40
1
 40
1
 10
467.838913
 20
168.259278
 30
0.0
 10
469.433945
 20
169.854309
 30
0.0
 10
470.429962
 20
171.936463
 30
0.0
 10
470.681732
 20
174.156204
 30
0.0
  0
SPLINE
  5
35a
100
AcDbEntity
  8
0
 62
7
100
AcDbSpline
 70
8
 71
3
 72
8
 73
4
 74
0
 40
0
 40
0
 40
0
 40
0
 40
1
 40
1
 40
1
 40
1
 10
527.374527
 20
174.156189
 30
0.0
 10
528.086823
 20
174.038697
 30
0.0
 10
528.811920
 20
173.978592
 30
0.0
 10
529.543213
 20
173.978592
 30
0.0
  0
SPLINE
  5
35b
100
AcDbEntity
  8
0
 62
7
100
AcDbSpline
 70
8
 71
3
 72
8
 73
4
 74
0
 40
0
 40
0
 40
0
 40
0
 40
1
 40
1
 40
1
 40
1
 10
529.543213
 20
173.978592
 30
0.0
 10
533.076538
 20
173.978592
 30
0.0
 10
536.465240
 20
175.381851
 30
0.0
 10
538.963867
 20
177.880478
 30
0.0
  0
SPLINE
  5
35c
100
AcDbEntity
  8
0
 62
7
100
AcDbSpline
 70
8
 71
3
 72
8
 73
4
 74
0
 40
0
 40
0
 40
0
 40
0
 40
1
 40
1
 40
1
 40
1
 10
538.963867
 20
177.880478
 30
0.0
 10
541.462494
 20
180.379105
 30
0.0
 10
542.865753
 20
183.767807
 30
0.0
 10
542.865753
 20
187.301132
 30
0.0
  0
SPLINE
  5
35d
100
AcDbEntity
  8
0
 62
7
100
AcDbSpline
 70
8
 71
3
 72
8
 73
4
 74
0
 40
0
 40
0
 40
0
 40
0
 40
1
 40
1
 40
1
 40
1
 10
542.865753
 20
187.301132
 30
0.0
 10
542.865753
 20
190.834458
 30
0.0
 10
541.462494
 20
194.223160
 30
0.0
 10
538.963867
 20
196.721787
 30
0.0
  0
SPLINE
  5
35e
100
AcDbEntity
  8
0
 62
7
100
AcDbSpline
 70
8
 71
3
 72
8
 73
4
 74
0
 40
0
 40
0
 40
0
 40
0
 40
1
 40
1
 40
1
 40
1
 10
538.963867
 20
196.721787
 30
0.0
 10
536.465240
 20
199.220413
 30
0.0
 10
533.076538
 20
200.623673
 30
0.0
 10
529.543213
 20
200.623673
 30
0.0
  0
SPLINE
  5
35f
100
AcDbEntity
  8
0
 62
7
100
AcDbSpline
 70
8
 71
3
 72
8
 73
4
 74
0
 40
0
 40
0
 40
0
 40
0
 40
1
 40
1
 40
1
 40
1
 10
529.543213
 20
200.623673
 30
0.0
 10
526.009888
 20
200.623673
 30
0.0
 10
522.621185
 20
199.220413
 30
0.0
 10
520.122559
 20
196.721787
 30
0.0
  0
SPLINE
  5
360
100
AcDbEntity
  8
0
 62
7
100
AcDbSpline
 70
8
 71
3
 72
8
 73
4
 74
0
 40
0
 40
0
 40
0
 40
0
 40
1
 40
1
 40
1
 40
1
 10
520.122559
 20
196.721787
 30
0.0
 10
517.623932
 20
194.223160
 30
0.0
 10
516.220673
 20
190.834458
 30
0.0
 10
516.220673
 20
187.301132
 30
0.0
  0
SPLINE
  5
361
100
AcDbEntity
  8
0
 62
7
100
AcDbSpline
 70
8
 71
3
 72
8
 73
4
 74
0
 40
0
 40
0
 40
0
 40
0
 40
1
 40
1
 40
1
 40
1
 10
516.220673
 20
187.301132
 30
0.0
 10
516.220673
 20
186.569901
 30
0.0
 10
516.280777
 20
185.844849
 30
0.0
 10
516.398254
 20
185.132599
 30
0.0
  0
SPLINE
  5
362
100
AcDbEntity
  8
0
 62
7
100
AcDbSpline
 70
8
 71
3
 72
8
 73
4
 74
0
 40
0
 40
0
 40
0
 40
0
 40
1
 40
1
 40
1
 40
1
 10
516.398285
 20
185.132553
 30
0.0
 10
514.178543
 20
184.880783
 30
0.0
 10
512.096390
 20
183.884766
 30
0.0
 10
510.501358
 20
182.289734
 30
0.0
  0
SPLINE
  5
363
100
AcDbEntity
  8
0
 62
7
100
AcDbSpline
 70
8
 71
3
 72
8
 73
4
 74
0
 40
0
 40
0
 40
0
 40
0
 40
1
 40
1
 40
1
 40
1
 10
510.501358
 20
182.289734
 30
0.0
 10
508.640823
 20
180.429199
 30
0.0
 10
507.595337
 20
177.905899
 30
0.0
 10
507.595337
 20
175.274506
 30
0.0
  0
SPLINE
  5
364
100
AcDbEntity
  8
0
 62
7
100
AcDbSpline
 70
8
 71
3
 72
8
 73
4
 74
0
 40
0
 40
0
 40
0
 40
0
 40
1
 40
1
 40
1
 40
1
 10
507.595337
 20
175.274506
 30
0.0
 10
507.595337
 20
172.643112
 30
0.0
 10
508.640823
 20
170.119812
 30
0.0
 10
510.501358
 20
168.259278
 30
0.0
  0
SPLINE
  5
365
100
AcDbEntity
  8
0
 62
7
100
AcDbSpline
 70
8
 71
3
 72
8
 73
4
 74
0
 40
0
 40
0
 40
0
 40
0
 40
1
 40
1
 40
1
 40
1
 10
510.501358
 20
168.259278
 30
0.0
 10
512.361893
 20
166.398743
 30
0.0
 10
514.885193
 20
165.353256
 30
0.0
 10
517.516586
 20
165.353256
 30
0.0
  0
SPLINE
  5
366
100
AcDbEntity
  8
0
 62
7
100
AcDbSpline
 70
8
 71
3
 72
8
 73
4
 74
0
 40
0
 40
0
 40
0
 40
0
 40
1
 40
1
 40
1
 40
1
 10
517.516586
 20
165.353256
 30
0.0
 10
520.147980
 20
165.353256
 30
0.0
 10
522.671280
 20
166.398743
 30
0.0
 10
524.531815
 20
168.259278
 30
0.0
  0
SPLINE
  5
367
100
AcDbEntity
  8
0
 62
7
100
AcDbSpline
 70
8
 71
3
 72
8
 73
4
 74
0
 40
0
 40
0
 40
0
 40
0
 40
1
 40
1
 40
1
 40
1
 10
524.531815
 20
168.259278
 30
0.0
 10
526.126846
 20
169.854309
 30
0.0
 10
527.122864
 20
171.936463
 30
0.0
 10
527.374634
 20
174.156204
 30
0.0
  0
SPLINE
  5
368
100
AcDbEntity
  8
0
 62
7
100
AcDbSpline
 70
8
 71
3
 72
8
 73
4
 74
0
 40
0
 40
0
 40
0
 40
0
 40
1
 40
1
 40
1
 40
1
 10
-0.535324
 20
1.231705
 30
0.0
 10
282.924866
 20
1.231705
 30
0.0
 10
566.398010
 20
1.231705
 30
0.0
 10
849.858200
 20
1.231705
 30
0.0
  0
SPLINE
  5
369
100
AcDbEntity
  8
0
 62
7
100
AcDbSpline
 70
8
 71
3
 72
8
 73
4
 74
0
 40
0
 40
0
 40
0
 40
0
 40
1
 40
1
 40
1
 40
1
 10
849.858200
 20
1.231705
 30
0.0
 10
849.858200
 20
77.765824
 30
0.0
 10
849.858200
 20
154.303467
 30
0.0
 10
849.858200
 20
230.837586
 30
0.0
  0
SPLINE
  5
36a
100
AcDbEntity
  8
0
 62
7
100
AcDbSpline
 70
8
 71
3
 72
8
 73
4
 74
0
 40
0
 40
0
 40
0
 40
0
 40
1
 40
1
 40
1
 40
1
 10
849.858200
 20
230.837586
 30
0.0
 10
566.398010
 20
230.837586
 30
0.0
 10
282.924866
 20
230.837586
 30
0.0
 10
-0.535324
 20
230.837586
 30
0.0
  0
SPLINE
  5
36b
100
AcDbEntity
  8
0
 62
7
100
AcDbSpline
 70
8
 71
3
 72
8
 73
4
 74
0
 40
0
 40
0
 40
0
 40
0
 40
1
 40
1
 40
1
 40
1
 10
-0.535324
 20
230.837586
 30
0.0
 10
-0.535324
 20
154.303467
 30
0.0
 10
-0.535324
 20
77.765824
 30
0.0
 10
-0.535324
 20
1.231705
 30
0.0
  0
LWPOLYLINE
  5
36c
100
AcDbEntity
  8
0
 62
7
100
AcDbPolyline
 90
2
 70
1
 10
-0.535324
 20
1.231705
 30
0.0
 10
-0.535324
 20
1.231705
 30
0.0
  0
ENDSEC
  0
SECTION
  2
OBJECTS
  0
DICTIONARY
  5
C
330
0
100
AcDbDictionary
  3
ACAD_GROUP
350
D
  3
ACAD_MLINESTYLE
350
17
  0
DICTIONARY
  5
D
330
C
100
AcDbDictionary
  0
DICTIONARY
  5
1A
330
C
100
AcDbDictionary
  0
DICTIONARY
  5
17
330
C
100
AcDbDictionary
  3
STANDARD
350
18
  0
DICTIONARY
  5
19
330
C
100
AcDbDictionary
  0
ENDSEC
  0
EOF
