  0
SECTION
  2
HEADER
  9
$ACADVER
  1
AC1014
  9
$HANDSEED
  5
FFFF
  9
$MEASUREMENT
 70
     1
  0
ENDSEC
  0
SECTION
  2
TABLES
  0
TABLE
  2
VPORT
  5
8
330
0
100
AcDbSymbolTable
 70
     4
  0
VPORT
  5
2E
330
8
100
AcDbSymbolTableRecord
100
AcDbViewportTableRecord
  2
*ACTIVE
 70
     0
 10
0.0
 20
0.0
 11
1.0
 21
1.0
 12
210.0
 22
148.5
 13
0.0
 23
0.0
 14
10.0
 24
10.0
 15
10.0
 25
10.0
 16
0.0
 26
0.0
 36
1.0
 17
0.0
 27
0.0
 37
0.0
 40
341.0
 41
1.24
 42
50.0
 43
0.0
 44
0.0
 50
0.0
 51
0.0
 71
     0
 72
   100
 73
     1
 74
     3
 75
     0
 76
     0
 77
     0
 78
     0
  0
ENDTAB
  0
TABLE
  2
LTYPE
  5
5
330
0
100
AcDbSymbolTable
 70
     1
  0
LTYPE
  5
14
330
5
100
AcDbSymbolTableRecord
100
AcDbLinetypeTableRecord
  2
BYBLOCK
 70
     0
  3

 72
    65
 73
     0
 40
0.0
  0
LTYPE
  5
15
330
5
100
AcDbSymbolTableRecord
100
AcDbLinetypeTableRecord
  2
BYLAYER
 70
     0
  3

 72
    65
 73
     0
 40
0.0
  0
LTYPE
  5
16
330
5
100
AcDbSymbolTableRecord
100
AcDbLinetypeTableRecord
  2
CONTINUOUS
 70
     0
  3
Solid line
 72
    65
 73
     0
 40
0.0
  0
ENDTAB
  0
TABLE
  2
LAYER
  5
2
100
AcDbSymbolTable
 70
1
  0
LAYER
  5
50
100
AcDbSymbolTableRecord
100
AcDbLayerTableRecord
  2
0
 70
0
  6
CONTINUOUS
  0
ENDTAB
  0
TABLE
  2
STYLE
  5
3
330
0
100
AcDbSymbolTable
 70
     1
  0
STYLE
  5
11
330
3
100
AcDbSymbolTableRecord
100
AcDbTextStyleTableRecord
  2
STANDARD
 70
     0
 40
0.0
 41
1.0
 50
0.0
 71
     0
 42
2.5
  3
txt
  4

  0
ENDTAB
  0
TABLE
  2
VIEW
  5
6
330
0
100
AcDbSymbolTable
 70
     0
  0
ENDTAB
  0
TABLE
  2
UCS
  5
7
330
0
100
AcDbSymbolTable
 70
     0
  0
ENDTAB
  0
TABLE
  2
APPID
  5
9
330
0
100
AcDbSymbolTable
 70
     2
  0
APPID
  5
12
330
9
100
AcDbSymbolTableRecord
100
AcDbRegAppTableRecord
  2
ACAD
 70
     0
  0
ENDTAB
  0
TABLE
  2
DIMSTYLE
  5
A
330
0
100
AcDbSymbolTable
 70
     1
  0
DIMSTYLE
105
27
330
A
100
AcDbSymbolTableRecord
100
AcDbDimStyleTableRecord
  2
ISO-25
 70
     0
  3

  4

  5

  6

  7

 40
1.0
 41
2.5
 42
0.625
 43
3.75
 44
1.25
 45
0.0
 46
0.0
 47
0.0
 48
0.0
140
2.5
141
2.5
142
0.0
143
0.03937007874016
144
1.0
145
0.0
146
1.0
147
0.625
 71
     0
 72
     0
 73
     0
 74
     0
 75
     0
 76
     0
 77
     1
 78
     8
170
     0
171
     3
172
     1
173
     0
174
     0
175
     0
176
     0
177
     0
178
     0
270
     2
271
     2
272
     2
273
     2
274
     3
340
11
275
     0
280
     0
281
     0
282
     0
283
     0
284
     8
285
     0
286
     0
287
     3
288
     0
  0
ENDTAB
  0
TABLE
  2
BLOCK_RECORD
  5
1
330
0
100
AcDbSymbolTable
 70
     1
  0
BLOCK_RECORD
  5
1F
330
1
100
AcDbSymbolTableRecord
100
AcDbBlockTableRecord
  2
*MODEL_SPACE
  0
BLOCK_RECORD
  5
1B
330
1
100
AcDbSymbolTableRecord
100
AcDbBlockTableRecord
  2
*PAPER_SPACE
  0
ENDTAB
  0
ENDSEC
  0
SECTION
  2
BLOCKS
  0
BLOCK
  5
20
330
1F
100
AcDbEntity
  8
0
100
AcDbBlockBegin
  2
*MODEL_SPACE
 70
     0
 10
0.0
 20
0.0
 30
0.0
  3
*MODEL_SPACE
  1

  0
ENDBLK
  5
21
330
1F
100
AcDbEntity
  8
0
100
AcDbBlockEnd
  0
BLOCK
  5
1C
330
1B
100
AcDbEntity
 67
     1
  8
0
100
AcDbBlockBegin
  2
*PAPER_SPACE
  1

  0
ENDBLK
  5
1D
330
1B
100
AcDbEntity
 67
     1
  8
0
100
AcDbBlockEnd
  0
ENDSEC
  0
SECTION
  2
ENTITIES
  0
SPLINE
  5
100
100
AcDbEntity
  8
0
 62
7
100
AcDbSpline
 70
8
 71
3
 72
8
 73
4
 74
0
 40
0
 40
0
 40
0
 40
0
 40
1
 40
1
 40
1
 40
1
 10
114.267700
 20
40.008255
 30
0.0
 10
114.267700
 20
42.639649
 30
0.0
 10
113.222214
 20
45.162949
 30
0.0
 10
111.361679
 20
47.023484
 30
0.0
  0
SPLINE
  5
101
100
AcDbEntity
  8
0
 62
7
100
AcDbSpline
 70
8
 71
3
 72
8
 73
4
 74
0
 40
0
 40
0
 40
0
 40
0
 40
1
 40
1
 40
1
 40
1
 10
111.361679
 20
47.023484
 30
0.0
 10
109.501144
 20
48.884018
 30
0.0
 10
106.977844
 20
49.929505
 30
0.0
 10
104.346451
 20
49.929505
 30
0.0
  0
SPLINE
  5
102
100
AcDbEntity
  8
0
 62
7
100
AcDbSpline
 70
8
 71
3
 72
8
 73
4
 74
0
 40
0
 40
0
 40
0
 40
0
 40
1
 40
1
 40
1
 40
1
 10
104.346451
 20
49.929505
 30
0.0
 10
101.715057
 20
49.929505
 30
0.0
 10
99.191757
 20
48.884018
 30
0.0
 10
97.331223
 20
47.023484
 30
0.0
  0
SPLINE
  5
103
100
AcDbEntity
  8
0
 62
7
100
AcDbSpline
 70
8
 71
3
 72
8
 73
4
 74
0
 40
0
 40
0
 40
0
 40
0
 40
1
 40
1
 40
1
 40
1
 10
97.331223
 20
47.023484
 30
0.0
 10
95.470688
 20
45.162949
 30
0.0
 10
94.425201
 20
42.639649
 30
0.0
 10
94.425201
 20
40.008255
 30
0.0
  0
SPLINE
  5
104
100
AcDbEntity
  8
0
 62
7
100
AcDbSpline
 70
8
 71
3
 72
8
 73
4
 74
0
 40
0
 40
0
 40
0
 40
0
 40
1
 40
1
 40
1
 40
1
 10
94.425201
 20
40.008255
 30
0.0
 10
94.425201
 20
37.376862
 30
0.0
 10
95.470688
 20
34.853562
 30
0.0
 10
97.331223
 20
32.993027
 30
0.0
  0
SPLINE
  5
105
100
AcDbEntity
  8
0
 62
7
100
AcDbSpline
 70
8
 71
3
 72
8
 73
4
 74
0
 40
0
 40
0
 40
0
 40
0
 40
1
 40
1
 40
1
 40
1
 10
97.331223
 20
32.993027
 30
0.0
 10
99.191757
 20
31.132492
 30
0.0
 10
101.715057
 20
30.087006
 30
0.0
 10
104.346451
 20
30.087006
 30
0.0
  0
SPLINE
  5
106
100
AcDbEntity
  8
0
 62
7
100
AcDbSpline
 70
8
 71
3
 72
8
 73
4
 74
0
 40
0
 40
0
 40
0
 40
0
 40
1
 40
1
 40
1
 40
1
 10
104.346451
 20
30.087006
 30
0.0
 10
106.977844
 20
30.087006
 30
0.0
 10
109.501144
 20
31.132492
 30
0.0
 10
111.361679
 20
32.993027
 30
0.0
  0
SPLINE
  5
107
100
AcDbEntity
  8
0
 62
7
100
AcDbSpline
 70
8
 71
3
 72
8
 73
4
 74
0
 40
0
 40
0
 40
0
 40
0
 40
1
 40
1
 40
1
 40
1
 10
111.361679
 20
32.993027
 30
0.0
 10
113.222214
 20
34.853562
 30
0.0
 10
114.267700
 20
37.376862
 30
0.0
 10
114.267700
 20
40.008255
 30
0.0
  0
SPLINE
  5
108
100
AcDbEntity
  8
0
 62
7
100
AcDbSpline
 70
8
 71
3
 72
8
 73
4
 74
0
 40
0
 40
0
 40
0
 40
0
 40
1
 40
1
 40
1
 40
1
 10
170.960602
 20
40.008255
 30
0.0
 10
170.960602
 20
42.639649
 30
0.0
 10
169.915115
 20
45.162949
 30
0.0
 10
168.054581
 20
47.023484
 30
0.0
  0
SPLINE
  5
109
100
AcDbEntity
  8
0
 62
7
100
AcDbSpline
 70
8
 71
3
 72
8
 73
4
 74
0
 40
0
 40
0
 40
0
 40
0
 40
1
 40
1
 40
1
 40
1
 10
168.054581
 20
47.023484
 30
0.0
 10
166.194046
 20
48.884018
 30
0.0
 10
163.670746
 20
49.929505
 30
0.0
 10
161.039352
 20
49.929505
 30
0.0
  0
SPLINE
  5
10a
100
AcDbEntity
  8
0
 62
7
100
AcDbSpline
 70
8
 71
3
 72
8
 73
4
 74
0
 40
0
 40
0
 40
0
 40
0
 40
1
 40
1
 40
1
 40
1
 10
161.039352
 20
49.929505
 30
0.0
 10
158.407959
 20
49.929505
 30
0.0
 10
155.884659
 20
48.884018
 30
0.0
 10
154.024124
 20
47.023484
 30
0.0
  0
SPLINE
  5
10b
100
AcDbEntity
  8
0
 62
7
100
AcDbSpline
 70
8
 71
3
 72
8
 73
4
 74
0
 40
0
 40
0
 40
0
 40
0
 40
1
 40
1
 40
1
 40
1
 10
154.024124
 20
47.023484
 30
0.0
 10
152.163589
 20
45.162949
 30
0.0
 10
151.118103
 20
42.639649
 30
0.0
 10
151.118103
 20
40.008255
 30
0.0
  0
SPLINE
  5
10c
100
AcDbEntity
  8
0
 62
7
100
AcDbSpline
 70
8
 71
3
 72
8
 73
4
 74
0
 40
0
 40
0
 40
0
 40
0
 40
1
 40
1
 40
1
 40
1
 10
151.118103
 20
40.008255
 30
0.0
 10
151.118103
 20
37.376862
 30
0.0
 10
152.163589
 20
34.853562
 30
0.0
 10
154.024124
 20
32.993027
 30
0.0
  0
SPLINE
  5
10d
100
AcDbEntity
  8
0
 62
7
100
AcDbSpline
 70
8
 71
3
 72
8
 73
4
 74
0
 40
0
 40
0
 40
0
 40
0
 40
1
 40
1
 40
1
 40
1
 10
154.024124
 20
32.993027
 30
0.0
 10
155.884659
 20
31.132492
 30
0.0
 10
158.407959
 20
30.087006
 30
0.0
 10
161.039352
 20
30.087006
 30
0.0
  0
SPLINE
  5
10e
100
AcDbEntity
  8
0
 62
7
100
AcDbSpline
 70
8
 71
3
 72
8
 73
4
 74
0
 40
0
 40
0
 40
0
 40
0
 40
1
 40
1
 40
1
 40
1
 10
161.039352
 20
30.087006
 30
0.0
 10
163.670746
 20
30.087006
 30
0.0
 10
166.194046
 20
31.132492
 30
0.0
 10
168.054581
 20
32.993027
 30
0.0
  0
SPLINE
  5
10f
100
AcDbEntity
  8
0
 62
7
100
AcDbSpline
 70
8
 71
3
 72
8
 73
4
 74
0
 40
0
 40
0
 40
0
 40
0
 40
1
 40
1
 40
1
 40
1
 10
168.054581
 20
32.993027
 30
0.0
 10
169.915115
 20
34.853562
 30
0.0
 10
170.960602
 20
37.376862
 30
0.0
 10
170.960602
 20
40.008255
 30
0.0
  0
LWPOLYLINE
  5
110
100
AcDbEntity
  8
0
 62
7
100
AcDbPolyline
 90
2
 70
1
 10
114.267700
 20
40.008255
 30
0.0
 10
114.267700
 20
40.008255
 30
0.0
  0
SPLINE
  5
111
100
AcDbEntity
  8
0
 62
7
100
AcDbSpline
 70
8
 71
3
 72
8
 73
4
 74
0
 40
0
 40
0
 40
0
 40
0
 40
1
 40
1
 40
1
 40
1
 10
227.653503
 20
40.008255
 30
0.0
 10
227.653503
 20
42.639649
 30
0.0
 10
226.608017
 20
45.162949
 30
0.0
 10
224.747482
 20
47.023484
 30
0.0
  0
SPLINE
  5
112
100
AcDbEntity
  8
0
 62
7
100
AcDbSpline
 70
8
 71
3
 72
8
 73
4
 74
0
 40
0
 40
0
 40
0
 40
0
 40
1
 40
1
 40
1
 40
1
 10
224.747482
 20
47.023484
 30
0.0
 10
222.886948
 20
48.884018
 30
0.0
 10
220.363647
 20
49.929505
 30
0.0
 10
217.732254
 20
49.929505
 30
0.0
  0
SPLINE
  5
113
100
AcDbEntity
  8
0
 62
7
100
AcDbSpline
 70
8
 71
3
 72
8
 73
4
 74
0
 40
0
 40
0
 40
0
 40
0
 40
1
 40
1
 40
1
 40
1
 10
217.732254
 20
49.929505
 30
0.0
 10
215.100861
 20
49.929505
 30
0.0
 10
212.577560
 20
48.884018
 30
0.0
 10
210.717026
 20
47.023484
 30
0.0
  0
SPLINE
  5
114
100
AcDbEntity
  8
0
 62
7
100
AcDbSpline
 70
8
 71
3
 72
8
 73
4
 74
0
 40
0
 40
0
 40
0
 40
0
 40
1
 40
1
 40
1
 40
1
 10
210.717026
 20
47.023484
 30
0.0
 10
208.856491
 20
45.162949
 30
0.0
 10
207.811005
 20
42.639649
 30
0.0
 10
207.811005
 20
40.008255
 30
0.0
  0
SPLINE
  5
115
100
AcDbEntity
  8
0
 62
7
100
AcDbSpline
 70
8
 71
3
 72
8
 73
4
 74
0
 40
0
 40
0
 40
0
 40
0
 40
1
 40
1
 40
1
 40
1
 10
207.811005
 20
40.008255
 30
0.0
 10
207.811005
 20
37.376862
 30
0.0
 10
208.856491
 20
34.853562
 30
0.0
 10
210.717026
 20
32.993027
 30
0.0
  0
SPLINE
  5
116
100
AcDbEntity
  8
0
 62
7
100
AcDbSpline
 70
8
 71
3
 72
8
 73
4
 74
0
 40
0
 40
0
 40
0
 40
0
 40
1
 40
1
 40
1
 40
1
 10
210.717026
 20
32.993027
 30
0.0
 10
212.577560
 20
31.132492
 30
0.0
 10
215.100861
 20
30.087006
 30
0.0
 10
217.732254
 20
30.087006
 30
0.0
  0
SPLINE
  5
117
100
AcDbEntity
  8
0
 62
7
100
AcDbSpline
 70
8
 71
3
 72
8
 73
4
 74
0
 40
0
 40
0
 40
0
 40
0
 40
1
 40
1
 40
1
 40
1
 10
217.732254
 20
30.087006
 30
0.0
 10
220.363647
 20
30.087006
 30
0.0
 10
222.886948
 20
31.132492
 30
0.0
 10
224.747482
 20
32.993027
 30
0.0
  0
SPLINE
  5
118
100
AcDbEntity
  8
0
 62
7
100
AcDbSpline
 70
8
 71
3
 72
8
 73
4
 74
0
 40
0
 40
0
 40
0
 40
0
 40
1
 40
1
 40
1
 40
1
 10
224.747482
 20
32.993027
 30
0.0
 10
226.608017
 20
34.853562
 30
0.0
 10
227.653503
 20
37.376862
 30
0.0
 10
227.653503
 20
40.008255
 30
0.0
  0
LWPOLYLINE
  5
119
100
AcDbEntity
  8
0
 62
7
100
AcDbPolyline
 90
2
 70
1
 10
170.960602
 20
40.008255
 30
0.0
 10
170.960602
 20
40.008255
 30
0.0
  0
SPLINE
  5
11a
100
AcDbEntity
  8
0
 62
7
100
AcDbSpline
 70
8
 71
3
 72
8
 73
4
 74
0
 40
0
 40
0
 40
0
 40
0
 40
1
 40
1
 40
1
 40
1
 10
284.346405
 20
40.008255
 30
0.0
 10
284.346405
 20
42.639649
 30
0.0
 10
283.300919
 20
45.162949
 30
0.0
 10
281.440384
 20
47.023484
 30
0.0
  0
SPLINE
  5
11b
100
AcDbEntity
  8
0
 62
7
100
AcDbSpline
 70
8
 71
3
 72
8
 73
4
 74
0
 40
0
 40
0
 40
0
 40
0
 40
1
 40
1
 40
1
 40
1
 10
281.440384
 20
47.023484
 30
0.0
 10
279.579849
 20
48.884018
 30
0.0
 10
277.056549
 20
49.929505
 30
0.0
 10
274.425156
 20
49.929505
 30
0.0
  0
SPLINE
  5
11c
100
AcDbEntity
  8
0
 62
7
100
AcDbSpline
 70
8
 71
3
 72
8
 73
4
 74
0
 40
0
 40
0
 40
0
 40
0
 40
1
 40
1
 40
1
 40
1
 10
274.425156
 20
49.929505
 30
0.0
 10
271.793762
 20
49.929505
 30
0.0
 10
269.270462
 20
48.884018
 30
0.0
 10
267.409927
 20
47.023484
 30
0.0
  0
SPLINE
  5
11d
100
AcDbEntity
  8
0
 62
7
100
AcDbSpline
 70
8
 71
3
 72
8
 73
4
 74
0
 40
0
 40
0
 40
0
 40
0
 40
1
 40
1
 40
1
 40
1
 10
267.409927
 20
47.023484
 30
0.0
 10
265.549393
 20
45.162949
 30
0.0
 10
264.503906
 20
42.639649
 30
0.0
 10
264.503906
 20
40.008255
 30
0.0
  0
SPLINE
  5
11e
100
AcDbEntity
  8
0
 62
7
100
AcDbSpline
 70
8
 71
3
 72
8
 73
4
 74
0
 40
0
 40
0
 40
0
 40
0
 40
1
 40
1
 40
1
 40
1
 10
264.503906
 20
40.008255
 30
0.0
 10
264.503906
 20
37.376862
 30
0.0
 10
265.549393
 20
34.853562
 30
0.0
 10
267.409927
 20
32.993027
 30
0.0
  0
SPLINE
  5
11f
100
AcDbEntity
  8
0
 62
7
100
AcDbSpline
 70
8
 71
3
 72
8
 73
4
 74
0
 40
0
 40
0
 40
0
 40
0
 40
1
 40
1
 40
1
 40
1
 10
267.409927
 20
32.993027
 30
0.0
 10
269.270462
 20
31.132492
 30
0.0
 10
271.793762
 20
30.087006
 30
0.0
 10
274.425156
 20
30.087006
 30
0.0
  0
SPLINE
  5
120
100
AcDbEntity
  8
0
 62
7
100
AcDbSpline
 70
8
 71
3
 72
8
 73
4
 74
0
 40
0
 40
0
 40
0
 40
0
 40
1
 40
1
 40
1
 40
1
 10
274.425156
 20
30.087006
 30
0.0
 10
277.056549
 20
30.087006
 30
0.0
 10
279.579849
 20
31.132492
 30
0.0
 10
281.440384
 20
32.993027
 30
0.0
  0
SPLINE
  5
121
100
AcDbEntity
  8
0
 62
7
100
AcDbSpline
 70
8
 71
3
 72
8
 73
4
 74
0
 40
0
 40
0
 40
0
 40
0
 40
1
 40
1
 40
1
 40
1
 10
281.440384
 20
32.993027
 30
0.0
 10
283.300919
 20
34.853562
 30
0.0
 10
284.346405
 20
37.376862
 30
0.0
 10
284.346405
 20
40.008255
 30
0.0
  0
LWPOLYLINE
  5
122
100
AcDbEntity
  8
0
 62
7
100
AcDbPolyline
 90
2
 70
1
 10
227.653503
 20
40.008255
 30
0.0
 10
227.653503
 20
40.008255
 30
0.0
  0
SPLINE
  5
123
100
AcDbEntity
  8
0
 62
7
100
AcDbSpline
 70
8
 71
3
 72
8
 73
4
 74
0
 40
0
 40
0
 40
0
 40
0
 40
1
 40
1
 40
1
 40
1
 10
341.039307
 20
40.008255
 30
0.0
 10
341.039307
 20
42.639649
 30
0.0
 10
339.993820
 20
45.162949
 30
0.0
 10
338.133286
 20
47.023484
 30
0.0
  0
SPLINE
  5
124
100
AcDbEntity
  8
0
 62
7
100
AcDbSpline
 70
8
 71
3
 72
8
 73
4
 74
0
 40
0
 40
0
 40
0
 40
0
 40
1
 40
1
 40
1
 40
1
 10
338.133286
 20
47.023484
 30
0.0
 10
336.272751
 20
48.884018
 30
0.0
 10
333.749451
 20
49.929505
 30
0.0
 10
331.118057
 20
49.929505
 30
0.0
  0
SPLINE
  5
125
100
AcDbEntity
  8
0
 62
7
100
AcDbSpline
 70
8
 71
3
 72
8
 73
4
 74
0
 40
0
 40
0
 40
0
 40
0
 40
1
 40
1
 40
1
 40
1
 10
331.118057
 20
49.929505
 30
0.0
 10
328.486664
 20
49.929505
 30
0.0
 10
325.963364
 20
48.884018
 30
0.0
 10
324.102829
 20
47.023484
 30
0.0
  0
SPLINE
  5
126
100
AcDbEntity
  8
0
 62
7
100
AcDbSpline
 70
8
 71
3
 72
8
 73
4
 74
0
 40
0
 40
0
 40
0
 40
0
 40
1
 40
1
 40
1
 40
1
 10
324.102829
 20
47.023484
 30
0.0
 10
322.242294
 20
45.162949
 30
0.0
 10
321.196808
 20
42.639649
 30
0.0
 10
321.196808
 20
40.008255
 30
0.0
  0
SPLINE
  5
127
100
AcDbEntity
  8
0
 62
7
100
AcDbSpline
 70
8
 71
3
 72
8
 73
4
 74
0
 40
0
 40
0
 40
0
 40
0
 40
1
 40
1
 40
1
 40
1
 10
321.196808
 20
40.008255
 30
0.0
 10
321.196808
 20
37.376862
 30
0.0
 10
322.242294
 20
34.853562
 30
0.0
 10
324.102829
 20
32.993027
 30
0.0
  0
SPLINE
  5
128
100
AcDbEntity
  8
0
 62
7
100
AcDbSpline
 70
8
 71
3
 72
8
 73
4
 74
0
 40
0
 40
0
 40
0
 40
0
 40
1
 40
1
 40
1
 40
1
 10
324.102829
 20
32.993027
 30
0.0
 10
325.963364
 20
31.132492
 30
0.0
 10
328.486664
 20
30.087006
 30
0.0
 10
331.118057
 20
30.087006
 30
0.0
  0
SPLINE
  5
129
100
AcDbEntity
  8
0
 62
7
100
AcDbSpline
 70
8
 71
3
 72
8
 73
4
 74
0
 40
0
 40
0
 40
0
 40
0
 40
1
 40
1
 40
1
 40
1
 10
331.118057
 20
30.087006
 30
0.0
 10
333.749451
 20
30.087006
 30
0.0
 10
336.272751
 20
31.132492
 30
0.0
 10
338.133286
 20
32.993027
 30
0.0
  0
SPLINE
  5
12a
100
AcDbEntity
  8
0
 62
7
100
AcDbSpline
 70
8
 71
3
 72
8
 73
4
 74
0
 40
0
 40
0
 40
0
 40
0
 40
1
 40
1
 40
1
 40
1
 10
338.133286
 20
32.993027
 30
0.0
 10
339.993820
 20
34.853562
 30
0.0
 10
341.039307
 20
37.376862
 30
0.0
 10
341.039307
 20
40.008255
 30
0.0
  0
LWPOLYLINE
  5
12b
100
AcDbEntity
  8
0
 62
7
100
AcDbPolyline
 90
2
 70
1
 10
284.346405
 20
40.008255
 30
0.0
 10
284.346405
 20
40.008255
 30
0.0
  0
SPLINE
  5
12c
100
AcDbEntity
  8
0
 62
7
100
AcDbSpline
 70
8
 71
3
 72
8
 73
4
 74
0
 40
0
 40
0
 40
0
 40
0
 40
1
 40
1
 40
1
 40
1
 10
397.732208
 20
40.008255
 30
0.0
 10
397.732208
 20
42.639649
 30
0.0
 10
396.686722
 20
45.162949
 30
0.0
 10
394.826187
 20
47.023484
 30
0.0
  0
SPLINE
  5
12d
100
AcDbEntity
  8
0
 62
7
100
AcDbSpline
 70
8
 71
3
 72
8
 73
4
 74
0
 40
0
 40
0
 40
0
 40
0
 40
1
 40
1
 40
1
 40
1
 10
394.826187
 20
47.023484
 30
0.0
 10
392.965652
 20
48.884018
 30
0.0
 10
390.442352
 20
49.929505
 30
0.0
 10
387.810959
 20
49.929505
 30
0.0
  0
SPLINE
  5
12e
100
AcDbEntity
  8
0
 62
7
100
AcDbSpline
 70
8
 71
3
 72
8
 73
4
 74
0
 40
0
 40
0
 40
0
 40
0
 40
1
 40
1
 40
1
 40
1
 10
387.810959
 20
49.929505
 30
0.0
 10
385.179565
 20
49.929505
 30
0.0
 10
382.656265
 20
48.884018
 30
0.0
 10
380.795731
 20
47.023484
 30
0.0
  0
SPLINE
  5
12f
100
AcDbEntity
  8
0
 62
7
100
AcDbSpline
 70
8
 71
3
 72
8
 73
4
 74
0
 40
0
 40
0
 40
0
 40
0
 40
1
 40
1
 40
1
 40
1
 10
380.795731
 20
47.023484
 30
0.0
 10
378.935196
 20
45.162949
 30
0.0
 10
377.889709
 20
42.639649
 30
0.0
 10
377.889709
 20
40.008255
 30
0.0
  0
SPLINE
  5
130
100
AcDbEntity
  8
0
 62
7
100
AcDbSpline
 70
8
 71
3
 72
8
 73
4
 74
0
 40
0
 40
0
 40
0
 40
0
 40
1
 40
1
 40
1
 40
1
 10
377.889709
 20
40.008255
 30
0.0
 10
377.889709
 20
37.376862
 30
0.0
 10
378.935196
 20
34.853562
 30
0.0
 10
380.795731
 20
32.993027
 30
0.0
  0
SPLINE
  5
131
100
AcDbEntity
  8
0
 62
7
100
AcDbSpline
 70
8
 71
3
 72
8
 73
4
 74
0
 40
0
 40
0
 40
0
 40
0
 40
1
 40
1
 40
1
 40
1
 10
380.795731
 20
32.993027
 30
0.0
 10
382.656265
 20
31.132492
 30
0.0
 10
385.179565
 20
30.087006
 30
0.0
 10
387.810959
 20
30.087006
 30
0.0
  0
SPLINE
  5
132
100
AcDbEntity
  8
0
 62
7
100
AcDbSpline
 70
8
 71
3
 72
8
 73
4
 74
0
 40
0
 40
0
 40
0
 40
0
 40
1
 40
1
 40
1
 40
1
 10
387.810959
 20
30.087006
 30
0.0
 10
390.442352
 20
30.087006
 30
0.0
 10
392.965652
 20
31.132492
 30
0.0
 10
394.826187
 20
32.993027
 30
0.0
  0
SPLINE
  5
133
100
AcDbEntity
  8
0
 62
7
100
AcDbSpline
 70
8
 71
3
 72
8
 73
4
 74
0
 40
0
 40
0
 40
0
 40
0
 40
1
 40
1
 40
1
 40
1
 10
394.826187
 20
32.993027
 30
0.0
 10
396.686722
 20
34.853562
 30
0.0
 10
397.732208
 20
37.376862
 30
0.0
 10
397.732208
 20
40.008255
 30
0.0
  0
LWPOLYLINE
  5
134
100
AcDbEntity
  8
0
 62
7
100
AcDbPolyline
 90
2
 70
1
 10
341.039307
 20
40.008255
 30
0.0
 10
341.039307
 20
40.008255
 30
0.0
  0
SPLINE
  5
135
100
AcDbEntity
  8
0
 62
7
100
AcDbSpline
 70
8
 71
3
 72
8
 73
4
 74
0
 40
0
 40
0
 40
0
 40
0
 40
1
 40
1
 40
1
 40
1
 10
454.425110
 20
40.008255
 30
0.0
 10
454.425110
 20
42.639649
 30
0.0
 10
453.379623
 20
45.162949
 30
0.0
 10
451.519089
 20
47.023484
 30
0.0
  0
SPLINE
  5
136
100
AcDbEntity
  8
0
 62
7
100
AcDbSpline
 70
8
 71
3
 72
8
 73
4
 74
0
 40
0
 40
0
 40
0
 40
0
 40
1
 40
1
 40
1
 40
1
 10
451.519089
 20
47.023484
 30
0.0
 10
449.658554
 20
48.884018
 30
0.0
 10
447.135254
 20
49.929505
 30
0.0
 10
444.503860
 20
49.929505
 30
0.0
  0
SPLINE
  5
137
100
AcDbEntity
  8
0
 62
7
100
AcDbSpline
 70
8
 71
3
 72
8
 73
4
 74
0
 40
0
 40
0
 40
0
 40
0
 40
1
 40
1
 40
1
 40
1
 10
444.503860
 20
49.929505
 30
0.0
 10
441.872467
 20
49.929505
 30
0.0
 10
439.349167
 20
48.884018
 30
0.0
 10
437.488632
 20
47.023484
 30
0.0
  0
SPLINE
  5
138
100
AcDbEntity
  8
0
 62
7
100
AcDbSpline
 70
8
 71
3
 72
8
 73
4
 74
0
 40
0
 40
0
 40
0
 40
0
 40
1
 40
1
 40
1
 40
1
 10
437.488632
 20
47.023484
 30
0.0
 10
435.628098
 20
45.162949
 30
0.0
 10
434.582611
 20
42.639649
 30
0.0
 10
434.582611
 20
40.008255
 30
0.0
  0
SPLINE
  5
139
100
AcDbEntity
  8
0
 62
7
100
AcDbSpline
 70
8
 71
3
 72
8
 73
4
 74
0
 40
0
 40
0
 40
0
 40
0
 40
1
 40
1
 40
1
 40
1
 10
434.582611
 20
40.008255
 30
0.0
 10
434.582611
 20
37.376862
 30
0.0
 10
435.628098
 20
34.853562
 30
0.0
 10
437.488632
 20
32.993027
 30
0.0
  0
SPLINE
  5
13a
100
AcDbEntity
  8
0
 62
7
100
AcDbSpline
 70
8
 71
3
 72
8
 73
4
 74
0
 40
0
 40
0
 40
0
 40
0
 40
1
 40
1
 40
1
 40
1
 10
437.488632
 20
32.993027
 30
0.0
 10
439.349167
 20
31.132492
 30
0.0
 10
441.872467
 20
30.087006
 30
0.0
 10
444.503860
 20
30.087006
 30
0.0
  0
SPLINE
  5
13b
100
AcDbEntity
  8
0
 62
7
100
AcDbSpline
 70
8
 71
3
 72
8
 73
4
 74
0
 40
0
 40
0
 40
0
 40
0
 40
1
 40
1
 40
1
 40
1
 10
444.503860
 20
30.087006
 30
0.0
 10
447.135254
 20
30.087006
 30
0.0
 10
449.658554
 20
31.132492
 30
0.0
 10
451.519089
 20
32.993027
 30
0.0
  0
SPLINE
  5
13c
100
AcDbEntity
  8
0
 62
7
100
AcDbSpline
 70
8
 71
3
 72
8
 73
4
 74
0
 40
0
 40
0
 40
0
 40
0
 40
1
 40
1
 40
1
 40
1
 10
451.519089
 20
32.993027
 30
0.0
 10
453.379623
 20
34.853562
 30
0.0
 10
454.425110
 20
37.376862
 30
0.0
 10
454.425110
 20
40.008255
 30
0.0
  0
LWPOLYLINE
  5
13d
100
AcDbEntity
  8
0
 62
7
100
AcDbPolyline
 90
2
 70
1
 10
397.732208
 20
40.008255
 30
0.0
 10
397.732208
 20
40.008255
 30
0.0
  0
SPLINE
  5
13e
100
AcDbEntity
  8
0
 62
7
100
AcDbSpline
 70
8
 71
3
 72
8
 73
4
 74
0
 40
0
 40
0
 40
0
 40
0
 40
1
 40
1
 40
1
 40
1
 10
511.118011
 20
40.008255
 30
0.0
 10
511.118011
 20
42.639649
 30
0.0
 10
510.072525
 20
45.162949
 30
0.0
 10
508.211990
 20
47.023484
 30
0.0
  0
SPLINE
  5
13f
100
AcDbEntity
  8
0
 62
7
100
AcDbSpline
 70
8
 71
3
 72
8
 73
4
 74
0
 40
0
 40
0
 40
0
 40
0
 40
1
 40
1
 40
1
 40
1
 10
508.211990
 20
47.023484
 30
0.0
 10
506.351456
 20
48.884018
 30
0.0
 10
503.828156
 20
49.929505
 30
0.0
 10
501.196762
 20
49.929505
 30
0.0
  0
SPLINE
  5
140
100
AcDbEntity
  8
0
 62
7
100
AcDbSpline
 70
8
 71
3
 72
8
 73
4
 74
0
 40
0
 40
0
 40
0
 40
0
 40
1
 40
1
 40
1
 40
1
 10
501.196762
 20
49.929505
 30
0.0
 10
498.565369
 20
49.929505
 30
0.0
 10
496.042068
 20
48.884018
 30
0.0
 10
494.181534
 20
47.023484
 30
0.0
  0
SPLINE
  5
141
100
AcDbEntity
  8
0
 62
7
100
AcDbSpline
 70
8
 71
3
 72
8
 73
4
 74
0
 40
0
 40
0
 40
0
 40
0
 40
1
 40
1
 40
1
 40
1
 10
494.181534
 20
47.023484
 30
0.0
 10
492.320999
 20
45.162949
 30
0.0
 10
491.275513
 20
42.639649
 30
0.0
 10
491.275513
 20
40.008255
 30
0.0
  0
SPLINE
  5
142
100
AcDbEntity
  8
0
 62
7
100
AcDbSpline
 70
8
 71
3
 72
8
 73
4
 74
0
 40
0
 40
0
 40
0
 40
0
 40
1
 40
1
 40
1
 40
1
 10
491.275513
 20
40.008255
 30
0.0
 10
491.275513
 20
37.376862
 30
0.0
 10
492.320999
 20
34.853562
 30
0.0
 10
494.181534
 20
32.993027
 30
0.0
  0
SPLINE
  5
143
100
AcDbEntity
  8
0
 62
7
100
AcDbSpline
 70
8
 71
3
 72
8
 73
4
 74
0
 40
0
 40
0
 40
0
 40
0
 40
1
 40
1
 40
1
 40
1
 10
494.181534
 20
32.993027
 30
0.0
 10
496.042068
 20
31.132492
 30
0.0
 10
498.565369
 20
30.087006
 30
0.0
 10
501.196762
 20
30.087006
 30
0.0
  0
SPLINE
  5
144
100
AcDbEntity
  8
0
 62
7
100
AcDbSpline
 70
8
 71
3
 72
8
 73
4
 74
0
 40
0
 40
0
 40
0
 40
0
 40
1
 40
1
 40
1
 40
1
 10
501.196762
 20
30.087006
 30
0.0
 10
503.828156
 20
30.087006
 30
0.0
 10
506.351456
 20
31.132492
 30
0.0
 10
508.211990
 20
32.993027
 30
0.0
  0
SPLINE
  5
145
100
AcDbEntity
  8
0
 62
7
100
AcDbSpline
 70
8
 71
3
 72
8
 73
4
 74
0
 40
0
 40
0
 40
0
 40
0
 40
1
 40
1
 40
1
 40
1
 10
508.211990
 20
32.993027
 30
0.0
 10
510.072525
 20
34.853562
 30
0.0
 10
511.118011
 20
37.376862
 30
0.0
 10
511.118011
 20
40.008255
 30
0.0
  0
LWPOLYLINE
  5
146
100
AcDbEntity
  8
0
 62
7
100
AcDbPolyline
 90
2
 70
1
 10
454.425110
 20
40.008255
 30
0.0
 10
454.425110
 20
40.008255
 30
0.0
  0
SPLINE
  5
147
100
AcDbEntity
  8
0
 62
7
100
AcDbSpline
 70
8
 71
3
 72
8
 73
4
 74
0
 40
0
 40
0
 40
0
 40
0
 40
1
 40
1
 40
1
 40
1
 10
567.810913
 20
40.008255
 30
0.0
 10
567.810913
 20
42.639649
 30
0.0
 10
566.765427
 20
45.162949
 30
0.0
 10
564.904892
 20
47.023484
 30
0.0
  0
SPLINE
  5
148
100
AcDbEntity
  8
0
 62
7
100
AcDbSpline
 70
8
 71
3
 72
8
 73
4
 74
0
 40
0
 40
0
 40
0
 40
0
 40
1
 40
1
 40
1
 40
1
 10
564.904892
 20
47.023484
 30
0.0
 10
563.044357
 20
48.884018
 30
0.0
 10
560.521057
 20
49.929505
 30
0.0
 10
557.889664
 20
49.929505
 30
0.0
  0
SPLINE
  5
149
100
AcDbEntity
  8
0
 62
7
100
AcDbSpline
 70
8
 71
3
 72
8
 73
4
 74
0
 40
0
 40
0
 40
0
 40
0
 40
1
 40
1
 40
1
 40
1
 10
557.889664
 20
49.929505
 30
0.0
 10
555.258270
 20
49.929505
 30
0.0
 10
552.734970
 20
48.884018
 30
0.0
 10
550.874435
 20
47.023484
 30
0.0
  0
SPLINE
  5
14a
100
AcDbEntity
  8
0
 62
7
100
AcDbSpline
 70
8
 71
3
 72
8
 73
4
 74
0
 40
0
 40
0
 40
0
 40
0
 40
1
 40
1
 40
1
 40
1
 10
550.874435
 20
47.023484
 30
0.0
 10
549.013901
 20
45.162949
 30
0.0
 10
547.968414
 20
42.639649
 30
0.0
 10
547.968414
 20
40.008255
 30
0.0
  0
SPLINE
  5
14b
100
AcDbEntity
  8
0
 62
7
100
AcDbSpline
 70
8
 71
3
 72
8
 73
4
 74
0
 40
0
 40
0
 40
0
 40
0
 40
1
 40
1
 40
1
 40
1
 10
547.968414
 20
40.008255
 30
0.0
 10
547.968414
 20
37.376862
 30
0.0
 10
549.013901
 20
34.853562
 30
0.0
 10
550.874435
 20
32.993027
 30
0.0
  0
SPLINE
  5
14c
100
AcDbEntity
  8
0
 62
7
100
AcDbSpline
 70
8
 71
3
 72
8
 73
4
 74
0
 40
0
 40
0
 40
0
 40
0
 40
1
 40
1
 40
1
 40
1
 10
550.874435
 20
32.993027
 30
0.0
 10
552.734970
 20
31.132492
 30
0.0
 10
555.258270
 20
30.087006
 30
0.0
 10
557.889664
 20
30.087006
 30
0.0
  0
SPLINE
  5
14d
100
AcDbEntity
  8
0
 62
7
100
AcDbSpline
 70
8
 71
3
 72
8
 73
4
 74
0
 40
0
 40
0
 40
0
 40
0
 40
1
 40
1
 40
1
 40
1
 10
557.889664
 20
30.087006
 30
0.0
 10
560.521057
 20
30.087006
 30
0.0
 10
563.044357
 20
31.132492
 30
0.0
 10
564.904892
 20
32.993027
 30
0.0
  0
SPLINE
  5
14e
100
AcDbEntity
  8
0
 62
7
100
AcDbSpline
 70
8
 71
3
 72
8
 73
4
 74
0
 40
0
 40
0
 40
0
 40
0
 40
1
 40
1
 40
1
 40
1
 10
564.904892
 20
32.993027
 30
0.0
 10
566.765427
 20
34.853562
 30
0.0
 10
567.810913
 20
37.376862
 30
0.0
 10
567.810913
 20
40.008255
 30
0.0
  0
LWPOLYLINE
  5
14f
100
AcDbEntity
  8
0
 62
7
100
AcDbPolyline
 90
2
 70
1
 10
511.118011
 20
40.008255
 30
0.0
 10
511.118011
 20
40.008255
 30
0.0
  0
SPLINE
  5
150
100
AcDbEntity
  8
0
 62
7
100
AcDbSpline
 70
8
 71
3
 72
8
 73
4
 74
0
 40
0
 40
0
 40
0
 40
0
 40
1
 40
1
 40
1
 40
1
 10
624.503815
 20
40.008255
 30
0.0
 10
624.503815
 20
42.639649
 30
0.0
 10
623.458328
 20
45.162949
 30
0.0
 10
621.597794
 20
47.023484
 30
0.0
  0
SPLINE
  5
151
100
AcDbEntity
  8
0
 62
7
100
AcDbSpline
 70
8
 71
3
 72
8
 73
4
 74
0
 40
0
 40
0
 40
0
 40
0
 40
1
 40
1
 40
1
 40
1
 10
621.597794
 20
47.023484
 30
0.0
 10
619.737259
 20
48.884018
 30
0.0
 10
617.213959
 20
49.929505
 30
0.0
 10
614.582565
 20
49.929505
 30
0.0
  0
SPLINE
  5
152
100
AcDbEntity
  8
0
 62
7
100
AcDbSpline
 70
8
 71
3
 72
8
 73
4
 74
0
 40
0
 40
0
 40
0
 40
0
 40
1
 40
1
 40
1
 40
1
 10
614.582565
 20
49.929505
 30
0.0
 10
611.951172
 20
49.929505
 30
0.0
 10
609.427872
 20
48.884018
 30
0.0
 10
607.567337
 20
47.023484
 30
0.0
  0
SPLINE
  5
153
100
AcDbEntity
  8
0
 62
7
100
AcDbSpline
 70
8
 71
3
 72
8
 73
4
 74
0
 40
0
 40
0
 40
0
 40
0
 40
1
 40
1
 40
1
 40
1
 10
607.567337
 20
47.023484
 30
0.0
 10
605.706802
 20
45.162949
 30
0.0
 10
604.661316
 20
42.639649
 30
0.0
 10
604.661316
 20
40.008255
 30
0.0
  0
SPLINE
  5
154
100
AcDbEntity
  8
0
 62
7
100
AcDbSpline
 70
8
 71
3
 72
8
 73
4
 74
0
 40
0
 40
0
 40
0
 40
0
 40
1
 40
1
 40
1
 40
1
 10
604.661316
 20
40.008255
 30
0.0
 10
604.661316
 20
37.376862
 30
0.0
 10
605.706802
 20
34.853562
 30
0.0
 10
607.567337
 20
32.993027
 30
0.0
  0
SPLINE
  5
155
100
AcDbEntity
  8
0
 62
7
100
AcDbSpline
 70
8
 71
3
 72
8
 73
4
 74
0
 40
0
 40
0
 40
0
 40
0
 40
1
 40
1
 40
1
 40
1
 10
607.567337
 20
32.993027
 30
0.0
 10
609.427872
 20
31.132492
 30
0.0
 10
611.951172
 20
30.087006
 30
0.0
 10
614.582565
 20
30.087006
 30
0.0
  0
SPLINE
  5
156
100
AcDbEntity
  8
0
 62
7
100
AcDbSpline
 70
8
 71
3
 72
8
 73
4
 74
0
 40
0
 40
0
 40
0
 40
0
 40
1
 40
1
 40
1
 40
1
 10
614.582565
 20
30.087006
 30
0.0
 10
617.213959
 20
30.087006
 30
0.0
 10
619.737259
 20
31.132492
 30
0.0
 10
621.597794
 20
32.993027
 30
0.0
  0
SPLINE
  5
157
100
AcDbEntity
  8
0
 62
7
100
AcDbSpline
 70
8
 71
3
 72
8
 73
4
 74
0
 40
0
 40
0
 40
0
 40
0
 40
1
 40
1
 40
1
 40
1
 10
621.597794
 20
32.993027
 30
0.0
 10
623.458328
 20
34.853562
 30
0.0
 10
624.503815
 20
37.376862
 30
0.0
 10
624.503815
 20
40.008255
 30
0.0
  0
LWPOLYLINE
  5
158
100
AcDbEntity
  8
0
 62
7
100
AcDbPolyline
 90
2
 70
1
 10
567.810913
 20
40.008255
 30
0.0
 10
567.810913
 20
40.008255
 30
0.0
  0
SPLINE
  5
159
100
AcDbEntity
  8
0
 62
7
100
AcDbSpline
 70
8
 71
3
 72
8
 73
4
 74
0
 40
0
 40
0
 40
0
 40
0
 40
1
 40
1
 40
1
 40
1
 10
681.196716
 20
40.008255
 30
0.0
 10
681.196716
 20
42.639649
 30
0.0
 10
680.151230
 20
45.162949
 30
0.0
 10
678.290695
 20
47.023484
 30
0.0
  0
SPLINE
  5
15a
100
AcDbEntity
  8
0
 62
7
100
AcDbSpline
 70
8
 71
3
 72
8
 73
4
 74
0
 40
0
 40
0
 40
0
 40
0
 40
1
 40
1
 40
1
 40
1
 10
678.290695
 20
47.023484
 30
0.0
 10
676.430161
 20
48.884018
 30
0.0
 10
673.906860
 20
49.929505
 30
0.0
 10
671.275467
 20
49.929505
 30
0.0
  0
SPLINE
  5
15b
100
AcDbEntity
  8
0
 62
7
100
AcDbSpline
 70
8
 71
3
 72
8
 73
4
 74
0
 40
0
 40
0
 40
0
 40
0
 40
1
 40
1
 40
1
 40
1
 10
671.275467
 20
49.929505
 30
0.0
 10
668.644073
 20
49.929505
 30
0.0
 10
666.120773
 20
48.884018
 30
0.0
 10
664.260239
 20
47.023484
 30
0.0
  0
SPLINE
  5
15c
100
AcDbEntity
  8
0
 62
7
100
AcDbSpline
 70
8
 71
3
 72
8
 73
4
 74
0
 40
0
 40
0
 40
0
 40
0
 40
1
 40
1
 40
1
 40
1
 10
664.260239
 20
47.023484
 30
0.0
 10
662.399704
 20
45.162949
 30
0.0
 10
661.354218
 20
42.639649
 30
0.0
 10
661.354218
 20
40.008255
 30
0.0
  0
SPLINE
  5
15d
100
AcDbEntity
  8
0
 62
7
100
AcDbSpline
 70
8
 71
3
 72
8
 73
4
 74
0
 40
0
 40
0
 40
0
 40
0
 40
1
 40
1
 40
1
 40
1
 10
661.354218
 20
40.008255
 30
0.0
 10
661.354218
 20
37.376862
 30
0.0
 10
662.399704
 20
34.853562
 30
0.0
 10
664.260239
 20
32.993027
 30
0.0
  0
SPLINE
  5
15e
100
AcDbEntity
  8
0
 62
7
100
AcDbSpline
 70
8
 71
3
 72
8
 73
4
 74
0
 40
0
 40
0
 40
0
 40
0
 40
1
 40
1
 40
1
 40
1
 10
664.260239
 20
32.993027
 30
0.0
 10
666.120773
 20
31.132492
 30
0.0
 10
668.644073
 20
30.087006
 30
0.0
 10
671.275467
 20
30.087006
 30
0.0
  0
SPLINE
  5
15f
100
AcDbEntity
  8
0
 62
7
100
AcDbSpline
 70
8
 71
3
 72
8
 73
4
 74
0
 40
0
 40
0
 40
0
 40
0
 40
1
 40
1
 40
1
 40
1
 10
671.275467
 20
30.087006
 30
0.0
 10
673.906860
 20
30.087006
 30
0.0
 10
676.430161
 20
31.132492
 30
0.0
 10
678.290695
 20
32.993027
 30
0.0
  0
SPLINE
  5
160
100
AcDbEntity
  8
0
 62
7
100
AcDbSpline
 70
8
 71
3
 72
8
 73
4
 74
0
 40
0
 40
0
 40
0
 40
0
 40
1
 40
1
 40
1
 40
1
 10
678.290695
 20
32.993027
 30
0.0
 10
680.151230
 20
34.853562
 30
0.0
 10
681.196716
 20
37.376862
 30
0.0
 10
681.196716
 20
40.008255
 30
0.0
  0
LWPOLYLINE
  5
161
100
AcDbEntity
  8
0
 62
7
100
AcDbPolyline
 90
2
 70
1
 10
624.503815
 20
40.008255
 30
0.0
 10
624.503815
 20
40.008255
 30
0.0
  0
SPLINE
  5
162
100
AcDbEntity
  8
0
 62
7
100
AcDbSpline
 70
8
 71
3
 72
8
 73
4
 74
0
 40
0
 40
0
 40
0
 40
0
 40
1
 40
1
 40
1
 40
1
 10
737.889618
 20
40.008255
 30
0.0
 10
737.889618
 20
42.639649
 30
0.0
 10
736.844131
 20
45.162949
 30
0.0
 10
734.983597
 20
47.023484
 30
0.0
  0
SPLINE
  5
163
100
AcDbEntity
  8
0
 62
7
100
AcDbSpline
 70
8
 71
3
 72
8
 73
4
 74
0
 40
0
 40
0
 40
0
 40
0
 40
1
 40
1
 40
1
 40
1
 10
734.983597
 20
47.023484
 30
0.0
 10
733.123062
 20
48.884018
 30
0.0
 10
730.599762
 20
49.929505
 30
0.0
 10
727.968369
 20
49.929505
 30
0.0
  0
SPLINE
  5
164
100
AcDbEntity
  8
0
 62
7
100
AcDbSpline
 70
8
 71
3
 72
8
 73
4
 74
0
 40
0
 40
0
 40
0
 40
0
 40
1
 40
1
 40
1
 40
1
 10
727.968369
 20
49.929505
 30
0.0
 10
725.336975
 20
49.929505
 30
0.0
 10
722.813675
 20
48.884018
 30
0.0
 10
720.953140
 20
47.023484
 30
0.0
  0
SPLINE
  5
165
100
AcDbEntity
  8
0
 62
7
100
AcDbSpline
 70
8
 71
3
 72
8
 73
4
 74
0
 40
0
 40
0
 40
0
 40
0
 40
1
 40
1
 40
1
 40
1
 10
720.953140
 20
47.023484
 30
0.0
 10
719.092606
 20
45.162949
 30
0.0
 10
718.047119
 20
42.639649
 30
0.0
 10
718.047119
 20
40.008255
 30
0.0
  0
SPLINE
  5
166
100
AcDbEntity
  8
0
 62
7
100
AcDbSpline
 70
8
 71
3
 72
8
 73
4
 74
0
 40
0
 40
0
 40
0
 40
0
 40
1
 40
1
 40
1
 40
1
 10
718.047119
 20
40.008255
 30
0.0
 10
718.047119
 20
37.376862
 30
0.0
 10
719.092606
 20
34.853562
 30
0.0
 10
720.953140
 20
32.993027
 30
0.0
  0
SPLINE
  5
167
100
AcDbEntity
  8
0
 62
7
100
AcDbSpline
 70
8
 71
3
 72
8
 73
4
 74
0
 40
0
 40
0
 40
0
 40
0
 40
1
 40
1
 40
1
 40
1
 10
720.953140
 20
32.993027
 30
0.0
 10
722.813675
 20
31.132492
 30
0.0
 10
725.336975
 20
30.087006
 30
0.0
 10
727.968369
 20
30.087006
 30
0.0
  0
SPLINE
  5
168
100
AcDbEntity
  8
0
 62
7
100
AcDbSpline
 70
8
 71
3
 72
8
 73
4
 74
0
 40
0
 40
0
 40
0
 40
0
 40
1
 40
1
 40
1
 40
1
 10
727.968369
 20
30.087006
 30
0.0
 10
730.599762
 20
30.087006
 30
0.0
 10
733.123062
 20
31.132492
 30
0.0
 10
734.983597
 20
32.993027
 30
0.0
  0
SPLINE
  5
169
100
AcDbEntity
  8
0
 62
7
100
AcDbSpline
 70
8
 71
3
 72
8
 73
4
 74
0
 40
0
 40
0
 40
0
 40
0
 40
1
 40
1
 40
1
 40
1
 10
734.983597
 20
32.993027
 30
0.0
 10
736.844131
 20
34.853562
 30
0.0
 10
737.889618
 20
37.376862
 30
0.0
 10
737.889618
 20
40.008255
 30
0.0
  0
LWPOLYLINE
  5
16a
100
AcDbEntity
  8
0
 62
7
100
AcDbPolyline
 90
2
 70
1
 10
681.196716
 20
40.008255
 30
0.0
 10
681.196716
 20
40.008255
 30
0.0
  0
SPLINE
  5
16b
100
AcDbEntity
  8
0
 62
7
100
AcDbSpline
 70
8
 71
3
 72
8
 73
4
 74
0
 40
0
 40
0
 40
0
 40
0
 40
1
 40
1
 40
1
 40
1
 10
85.921249
 20
89.105881
 30
0.0
 10
85.921249
 20
91.737274
 30
0.0
 10
84.875763
 20
94.260575
 30
0.0
 10
83.015228
 20
96.121109
 30
0.0
  0
SPLINE
  5
16c
100
AcDbEntity
  8
0
 62
7
100
AcDbSpline
 70
8
 71
3
 72
8
 73
4
 74
0
 40
0
 40
0
 40
0
 40
0
 40
1
 40
1
 40
1
 40
1
 10
83.015228
 20
96.121109
 30
0.0
 10
81.154694
 20
97.981644
 30
0.0
 10
78.631393
 20
99.027130
 30
0.0
 10
76.000000
 20
99.027130
 30
0.0
  0
SPLINE
  5
16d
100
AcDbEntity
  8
0
 62
7
100
AcDbSpline
 70
8
 71
3
 72
8
 73
4
 74
0
 40
0
 40
0
 40
0
 40
0
 40
1
 40
1
 40
1
 40
1
 10
76.000000
 20
99.027130
 30
0.0
 10
73.368607
 20
99.027130
 30
0.0
 10
70.845306
 20
97.981644
 30
0.0
 10
68.984772
 20
96.121109
 30
0.0
  0
SPLINE
  5
16e
100
AcDbEntity
  8
0
 62
7
100
AcDbSpline
 70
8
 71
3
 72
8
 73
4
 74
0
 40
0
 40
0
 40
0
 40
0
 40
1
 40
1
 40
1
 40
1
 10
68.984772
 20
96.121109
 30
0.0
 10
67.124237
 20
94.260575
 30
0.0
 10
66.078751
 20
91.737274
 30
0.0
 10
66.078751
 20
89.105881
 30
0.0
  0
SPLINE
  5
16f
100
AcDbEntity
  8
0
 62
7
100
AcDbSpline
 70
8
 71
3
 72
8
 73
4
 74
0
 40
0
 40
0
 40
0
 40
0
 40
1
 40
1
 40
1
 40
1
 10
66.078751
 20
89.105881
 30
0.0
 10
66.078751
 20
86.474488
 30
0.0
 10
67.124237
 20
83.951187
 30
0.0
 10
68.984772
 20
82.090653
 30
0.0
  0
SPLINE
  5
170
100
AcDbEntity
  8
0
 62
7
100
AcDbSpline
 70
8
 71
3
 72
8
 73
4
 74
0
 40
0
 40
0
 40
0
 40
0
 40
1
 40
1
 40
1
 40
1
 10
68.984772
 20
82.090653
 30
0.0
 10
70.845306
 20
80.230118
 30
0.0
 10
73.368607
 20
79.184632
 30
0.0
 10
76.000000
 20
79.184632
 30
0.0
  0
SPLINE
  5
171
100
AcDbEntity
  8
0
 62
7
100
AcDbSpline
 70
8
 71
3
 72
8
 73
4
 74
0
 40
0
 40
0
 40
0
 40
0
 40
1
 40
1
 40
1
 40
1
 10
76.000000
 20
79.184632
 30
0.0
 10
78.631393
 20
79.184632
 30
0.0
 10
81.154694
 20
80.230118
 30
0.0
 10
83.015228
 20
82.090653
 30
0.0
  0
SPLINE
  5
172
100
AcDbEntity
  8
0
 62
7
100
AcDbSpline
 70
8
 71
3
 72
8
 73
4
 74
0
 40
0
 40
0
 40
0
 40
0
 40
1
 40
1
 40
1
 40
1
 10
83.015228
 20
82.090653
 30
0.0
 10
84.875763
 20
83.951187
 30
0.0
 10
85.921249
 20
86.474488
 30
0.0
 10
85.921249
 20
89.105881
 30
0.0
  0
LWPOLYLINE
  5
173
100
AcDbEntity
  8
0
 62
7
100
AcDbPolyline
 90
2
 70
1
 10
737.889618
 20
40.008255
 30
0.0
 10
737.889618
 20
40.008255
 30
0.0
  0
SPLINE
  5
174
100
AcDbEntity
  8
0
 62
7
100
AcDbSpline
 70
8
 71
3
 72
8
 73
4
 74
0
 40
0
 40
0
 40
0
 40
0
 40
1
 40
1
 40
1
 40
1
 10
142.614151
 20
89.105881
 30
0.0
 10
142.614151
 20
91.737274
 30
0.0
 10
141.568665
 20
94.260575
 30
0.0
 10
139.708130
 20
96.121109
 30
0.0
  0
SPLINE
  5
175
100
AcDbEntity
  8
0
 62
7
100
AcDbSpline
 70
8
 71
3
 72
8
 73
4
 74
0
 40
0
 40
0
 40
0
 40
0
 40
1
 40
1
 40
1
 40
1
 10
139.708130
 20
96.121109
 30
0.0
 10
137.847595
 20
97.981644
 30
0.0
 10
135.324295
 20
99.027130
 30
0.0
 10
132.692902
 20
99.027130
 30
0.0
  0
SPLINE
  5
176
100
AcDbEntity
  8
0
 62
7
100
AcDbSpline
 70
8
 71
3
 72
8
 73
4
 74
0
 40
0
 40
0
 40
0
 40
0
 40
1
 40
1
 40
1
 40
1
 10
132.692902
 20
99.027130
 30
0.0
 10
130.061508
 20
99.027130
 30
0.0
 10
127.538208
 20
97.981644
 30
0.0
 10
125.677673
 20
96.121109
 30
0.0
  0
SPLINE
  5
177
100
AcDbEntity
  8
0
 62
7
100
AcDbSpline
 70
8
 71
3
 72
8
 73
4
 74
0
 40
0
 40
0
 40
0
 40
0
 40
1
 40
1
 40
1
 40
1
 10
125.677673
 20
96.121109
 30
0.0
 10
123.817139
 20
94.260575
 30
0.0
 10
122.771652
 20
91.737274
 30
0.0
 10
122.771652
 20
89.105881
 30
0.0
  0
SPLINE
  5
178
100
AcDbEntity
  8
0
 62
7
100
AcDbSpline
 70
8
 71
3
 72
8
 73
4
 74
0
 40
0
 40
0
 40
0
 40
0
 40
1
 40
1
 40
1
 40
1
 10
122.771652
 20
89.105881
 30
0.0
 10
122.771652
 20
86.474488
 30
0.0
 10
123.817139
 20
83.951187
 30
0.0
 10
125.677673
 20
82.090653
 30
0.0
  0
SPLINE
  5
179
100
AcDbEntity
  8
0
 62
7
100
AcDbSpline
 70
8
 71
3
 72
8
 73
4
 74
0
 40
0
 40
0
 40
0
 40
0
 40
1
 40
1
 40
1
 40
1
 10
125.677673
 20
82.090653
 30
0.0
 10
127.538208
 20
80.230118
 30
0.0
 10
130.061508
 20
79.184632
 30
0.0
 10
132.692902
 20
79.184632
 30
0.0
  0
SPLINE
  5
17a
100
AcDbEntity
  8
0
 62
7
100
AcDbSpline
 70
8
 71
3
 72
8
 73
4
 74
0
 40
0
 40
0
 40
0
 40
0
 40
1
 40
1
 40
1
 40
1
 10
132.692902
 20
79.184632
 30
0.0
 10
135.324295
 20
79.184632
 30
0.0
 10
137.847595
 20
80.230118
 30
0.0
 10
139.708130
 20
82.090653
 30
0.0
  0
SPLINE
  5
17b
100
AcDbEntity
  8
0
 62
7
100
AcDbSpline
 70
8
 71
3
 72
8
 73
4
 74
0
 40
0
 40
0
 40
0
 40
0
 40
1
 40
1
 40
1
 40
1
 10
139.708130
 20
82.090653
 30
0.0
 10
141.568665
 20
83.951187
 30
0.0
 10
142.614151
 20
86.474488
 30
0.0
 10
142.614151
 20
89.105881
 30
0.0
  0
LWPOLYLINE
  5
17c
100
AcDbEntity
  8
0
 62
7
100
AcDbPolyline
 90
2
 70
1
 10
85.921249
 20
89.105881
 30
0.0
 10
85.921249
 20
89.105881
 30
0.0
  0
SPLINE
  5
17d
100
AcDbEntity
  8
0
 62
7
100
AcDbSpline
 70
8
 71
3
 72
8
 73
4
 74
0
 40
0
 40
0
 40
0
 40
0
 40
1
 40
1
 40
1
 40
1
 10
199.307053
 20
89.105881
 30
0.0
 10
199.307053
 20
91.737274
 30
0.0
 10
198.261566
 20
94.260575
 30
0.0
 10
196.401031
 20
96.121109
 30
0.0
  0
SPLINE
  5
17e
100
AcDbEntity
  8
0
 62
7
100
AcDbSpline
 70
8
 71
3
 72
8
 73
4
 74
0
 40
0
 40
0
 40
0
 40
0
 40
1
 40
1
 40
1
 40
1
 10
196.401031
 20
96.121109
 30
0.0
 10
194.540497
 20
97.981644
 30
0.0
 10
192.017197
 20
99.027130
 30
0.0
 10
189.385803
 20
99.027130
 30
0.0
  0
SPLINE
  5
17f
100
AcDbEntity
  8
0
 62
7
100
AcDbSpline
 70
8
 71
3
 72
8
 73
4
 74
0
 40
0
 40
0
 40
0
 40
0
 40
1
 40
1
 40
1
 40
1
 10
189.385803
 20
99.027130
 30
0.0
 10
186.754410
 20
99.027130
 30
0.0
 10
184.231110
 20
97.981644
 30
0.0
 10
182.370575
 20
96.121109
 30
0.0
  0
SPLINE
  5
180
100
AcDbEntity
  8
0
 62
7
100
AcDbSpline
 70
8
 71
3
 72
8
 73
4
 74
0
 40
0
 40
0
 40
0
 40
0
 40
1
 40
1
 40
1
 40
1
 10
182.370575
 20
96.121109
 30
0.0
 10
180.510040
 20
94.260575
 30
0.0
 10
179.464554
 20
91.737274
 30
0.0
 10
179.464554
 20
89.105881
 30
0.0
  0
SPLINE
  5
181
100
AcDbEntity
  8
0
 62
7
100
AcDbSpline
 70
8
 71
3
 72
8
 73
4
 74
0
 40
0
 40
0
 40
0
 40
0
 40
1
 40
1
 40
1
 40
1
 10
179.464554
 20
89.105881
 30
0.0
 10
179.464554
 20
86.474488
 30
0.0
 10
180.510040
 20
83.951187
 30
0.0
 10
182.370575
 20
82.090653
 30
0.0
  0
SPLINE
  5
182
100
AcDbEntity
  8
0
 62
7
100
AcDbSpline
 70
8
 71
3
 72
8
 73
4
 74
0
 40
0
 40
0
 40
0
 40
0
 40
1
 40
1
 40
1
 40
1
 10
182.370575
 20
82.090653
 30
0.0
 10
184.231110
 20
80.230118
 30
0.0
 10
186.754410
 20
79.184632
 30
0.0
 10
189.385803
 20
79.184632
 30
0.0
  0
SPLINE
  5
183
100
AcDbEntity
  8
0
 62
7
100
AcDbSpline
 70
8
 71
3
 72
8
 73
4
 74
0
 40
0
 40
0
 40
0
 40
0
 40
1
 40
1
 40
1
 40
1
 10
189.385803
 20
79.184632
 30
0.0
 10
192.017197
 20
79.184632
 30
0.0
 10
194.540497
 20
80.230118
 30
0.0
 10
196.401031
 20
82.090653
 30
0.0
  0
SPLINE
  5
184
100
AcDbEntity
  8
0
 62
7
100
AcDbSpline
 70
8
 71
3
 72
8
 73
4
 74
0
 40
0
 40
0
 40
0
 40
0
 40
1
 40
1
 40
1
 40
1
 10
196.401031
 20
82.090653
 30
0.0
 10
198.261566
 20
83.951187
 30
0.0
 10
199.307053
 20
86.474488
 30
0.0
 10
199.307053
 20
89.105881
 30
0.0
  0
LWPOLYLINE
  5
185
100
AcDbEntity
  8
0
 62
7
100
AcDbPolyline
 90
2
 70
1
 10
142.614151
 20
89.105881
 30
0.0
 10
142.614151
 20
89.105881
 30
0.0
  0
SPLINE
  5
186
100
AcDbEntity
  8
0
 62
7
100
AcDbSpline
 70
8
 71
3
 72
8
 73
4
 74
0
 40
0
 40
0
 40
0
 40
0
 40
1
 40
1
 40
1
 40
1
 10
255.999954
 20
89.105881
 30
0.0
 10
255.999954
 20
91.737274
 30
0.0
 10
254.954468
 20
94.260575
 30
0.0
 10
253.093933
 20
96.121109
 30
0.0
  0
SPLINE
  5
187
100
AcDbEntity
  8
0
 62
7
100
AcDbSpline
 70
8
 71
3
 72
8
 73
4
 74
0
 40
0
 40
0
 40
0
 40
0
 40
1
 40
1
 40
1
 40
1
 10
253.093933
 20
96.121109
 30
0.0
 10
251.233398
 20
97.981644
 30
0.0
 10
248.710098
 20
99.027130
 30
0.0
 10
246.078705
 20
99.027130
 30
0.0
  0
SPLINE
  5
188
100
AcDbEntity
  8
0
 62
7
100
AcDbSpline
 70
8
 71
3
 72
8
 73
4
 74
0
 40
0
 40
0
 40
0
 40
0
 40
1
 40
1
 40
1
 40
1
 10
246.078705
 20
99.027130
 30
0.0
 10
243.447311
 20
99.027130
 30
0.0
 10
240.924011
 20
97.981644
 30
0.0
 10
239.063477
 20
96.121109
 30
0.0
  0
SPLINE
  5
189
100
AcDbEntity
  8
0
 62
7
100
AcDbSpline
 70
8
 71
3
 72
8
 73
4
 74
0
 40
0
 40
0
 40
0
 40
0
 40
1
 40
1
 40
1
 40
1
 10
239.063477
 20
96.121109
 30
0.0
 10
237.202942
 20
94.260575
 30
0.0
 10
236.157455
 20
91.737274
 30
0.0
 10
236.157455
 20
89.105881
 30
0.0
  0
SPLINE
  5
18a
100
AcDbEntity
  8
0
 62
7
100
AcDbSpline
 70
8
 71
3
 72
8
 73
4
 74
0
 40
0
 40
0
 40
0
 40
0
 40
1
 40
1
 40
1
 40
1
 10
236.157455
 20
89.105881
 30
0.0
 10
236.157455
 20
86.474488
 30
0.0
 10
237.202942
 20
83.951187
 30
0.0
 10
239.063477
 20
82.090653
 30
0.0
  0
SPLINE
  5
18b
100
AcDbEntity
  8
0
 62
7
100
AcDbSpline
 70
8
 71
3
 72
8
 73
4
 74
0
 40
0
 40
0
 40
0
 40
0
 40
1
 40
1
 40
1
 40
1
 10
239.063477
 20
82.090653
 30
0.0
 10
240.924011
 20
80.230118
 30
0.0
 10
243.447311
 20
79.184632
 30
0.0
 10
246.078705
 20
79.184632
 30
0.0
  0
SPLINE
  5
18c
100
AcDbEntity
  8
0
 62
7
100
AcDbSpline
 70
8
 71
3
 72
8
 73
4
 74
0
 40
0
 40
0
 40
0
 40
0
 40
1
 40
1
 40
1
 40
1
 10
246.078705
 20
79.184632
 30
0.0
 10
248.710098
 20
79.184632
 30
0.0
 10
251.233398
 20
80.230118
 30
0.0
 10
253.093933
 20
82.090653
 30
0.0
  0
SPLINE
  5
18d
100
AcDbEntity
  8
0
 62
7
100
AcDbSpline
 70
8
 71
3
 72
8
 73
4
 74
0
 40
0
 40
0
 40
0
 40
0
 40
1
 40
1
 40
1
 40
1
 10
253.093933
 20
82.090653
 30
0.0
 10
254.954468
 20
83.951187
 30
0.0
 10
255.999954
 20
86.474488
 30
0.0
 10
255.999954
 20
89.105881
 30
0.0
  0
LWPOLYLINE
  5
18e
100
AcDbEntity
  8
0
 62
7
100
AcDbPolyline
 90
2
 70
1
 10
199.307053
 20
89.105881
 30
0.0
 10
199.307053
 20
89.105881
 30
0.0
  0
SPLINE
  5
18f
100
AcDbEntity
  8
0
 62
7
100
AcDbSpline
 70
8
 71
3
 72
8
 73
4
 74
0
 40
0
 40
0
 40
0
 40
0
 40
1
 40
1
 40
1
 40
1
 10
312.692856
 20
89.105881
 30
0.0
 10
312.692856
 20
91.737274
 30
0.0
 10
311.647369
 20
94.260575
 30
0.0
 10
309.786835
 20
96.121109
 30
0.0
  0
SPLINE
  5
190
100
AcDbEntity
  8
0
 62
7
100
AcDbSpline
 70
8
 71
3
 72
8
 73
4
 74
0
 40
0
 40
0
 40
0
 40
0
 40
1
 40
1
 40
1
 40
1
 10
309.786835
 20
96.121109
 30
0.0
 10
307.926300
 20
97.981644
 30
0.0
 10
305.403000
 20
99.027130
 30
0.0
 10
302.771606
 20
99.027130
 30
0.0
  0
SPLINE
  5
191
100
AcDbEntity
  8
0
 62
7
100
AcDbSpline
 70
8
 71
3
 72
8
 73
4
 74
0
 40
0
 40
0
 40
0
 40
0
 40
1
 40
1
 40
1
 40
1
 10
302.771606
 20
99.027130
 30
0.0
 10
300.140213
 20
99.027130
 30
0.0
 10
297.616913
 20
97.981644
 30
0.0
 10
295.756378
 20
96.121109
 30
0.0
  0
SPLINE
  5
192
100
AcDbEntity
  8
0
 62
7
100
AcDbSpline
 70
8
 71
3
 72
8
 73
4
 74
0
 40
0
 40
0
 40
0
 40
0
 40
1
 40
1
 40
1
 40
1
 10
295.756378
 20
96.121109
 30
0.0
 10
293.895844
 20
94.260575
 30
0.0
 10
292.850357
 20
91.737274
 30
0.0
 10
292.850357
 20
89.105881
 30
0.0
  0
SPLINE
  5
193
100
AcDbEntity
  8
0
 62
7
100
AcDbSpline
 70
8
 71
3
 72
8
 73
4
 74
0
 40
0
 40
0
 40
0
 40
0
 40
1
 40
1
 40
1
 40
1
 10
292.850357
 20
89.105881
 30
0.0
 10
292.850357
 20
86.474488
 30
0.0
 10
293.895844
 20
83.951187
 30
0.0
 10
295.756378
 20
82.090653
 30
0.0
  0
SPLINE
  5
194
100
AcDbEntity
  8
0
 62
7
100
AcDbSpline
 70
8
 71
3
 72
8
 73
4
 74
0
 40
0
 40
0
 40
0
 40
0
 40
1
 40
1
 40
1
 40
1
 10
295.756378
 20
82.090653
 30
0.0
 10
297.616913
 20
80.230118
 30
0.0
 10
300.140213
 20
79.184632
 30
0.0
 10
302.771606
 20
79.184632
 30
0.0
  0
SPLINE
  5
195
100
AcDbEntity
  8
0
 62
7
100
AcDbSpline
 70
8
 71
3
 72
8
 73
4
 74
0
 40
0
 40
0
 40
0
 40
0
 40
1
 40
1
 40
1
 40
1
 10
302.771606
 20
79.184632
 30
0.0
 10
305.403000
 20
79.184632
 30
0.0
 10
307.926300
 20
80.230118
 30
0.0
 10
309.786835
 20
82.090653
 30
0.0
  0
SPLINE
  5
196
100
AcDbEntity
  8
0
 62
7
100
AcDbSpline
 70
8
 71
3
 72
8
 73
4
 74
0
 40
0
 40
0
 40
0
 40
0
 40
1
 40
1
 40
1
 40
1
 10
309.786835
 20
82.090653
 30
0.0
 10
311.647369
 20
83.951187
 30
0.0
 10
312.692856
 20
86.474488
 30
0.0
 10
312.692856
 20
89.105881
 30
0.0
  0
LWPOLYLINE
  5
197
100
AcDbEntity
  8
0
 62
7
100
AcDbPolyline
 90
2
 70
1
 10
255.999954
 20
89.105881
 30
0.0
 10
255.999954
 20
89.105881
 30
0.0
  0
SPLINE
  5
198
100
AcDbEntity
  8
0
 62
7
100
AcDbSpline
 70
8
 71
3
 72
8
 73
4
 74
0
 40
0
 40
0
 40
0
 40
0
 40
1
 40
1
 40
1
 40
1
 10
369.385757
 20
89.105881
 30
0.0
 10
369.385757
 20
91.737274
 30
0.0
 10
368.340271
 20
94.260575
 30
0.0
 10
366.479736
 20
96.121109
 30
0.0
  0
SPLINE
  5
199
100
AcDbEntity
  8
0
 62
7
100
AcDbSpline
 70
8
 71
3
 72
8
 73
4
 74
0
 40
0
 40
0
 40
0
 40
0
 40
1
 40
1
 40
1
 40
1
 10
366.479736
 20
96.121109
 30
0.0
 10
364.619202
 20
97.981644
 30
0.0
 10
362.095901
 20
99.027130
 30
0.0
 10
359.464508
 20
99.027130
 30
0.0
  0
SPLINE
  5
19a
100
AcDbEntity
  8
0
 62
7
100
AcDbSpline
 70
8
 71
3
 72
8
 73
4
 74
0
 40
0
 40
0
 40
0
 40
0
 40
1
 40
1
 40
1
 40
1
 10
359.464508
 20
99.027130
 30
0.0
 10
356.833115
 20
99.027130
 30
0.0
 10
354.309814
 20
97.981644
 30
0.0
 10
352.449280
 20
96.121109
 30
0.0
  0
SPLINE
  5
19b
100
AcDbEntity
  8
0
 62
7
100
AcDbSpline
 70
8
 71
3
 72
8
 73
4
 74
0
 40
0
 40
0
 40
0
 40
0
 40
1
 40
1
 40
1
 40
1
 10
352.449280
 20
96.121109
 30
0.0
 10
350.588745
 20
94.260575
 30
0.0
 10
349.543259
 20
91.737274
 30
0.0
 10
349.543259
 20
89.105881
 30
0.0
  0
SPLINE
  5
19c
100
AcDbEntity
  8
0
 62
7
100
AcDbSpline
 70
8
 71
3
 72
8
 73
4
 74
0
 40
0
 40
0
 40
0
 40
0
 40
1
 40
1
 40
1
 40
1
 10
349.543259
 20
89.105881
 30
0.0
 10
349.543259
 20
86.474488
 30
0.0
 10
350.588745
 20
83.951187
 30
0.0
 10
352.449280
 20
82.090653
 30
0.0
  0
SPLINE
  5
19d
100
AcDbEntity
  8
0
 62
7
100
AcDbSpline
 70
8
 71
3
 72
8
 73
4
 74
0
 40
0
 40
0
 40
0
 40
0
 40
1
 40
1
 40
1
 40
1
 10
352.449280
 20
82.090653
 30
0.0
 10
354.309814
 20
80.230118
 30
0.0
 10
356.833115
 20
79.184632
 30
0.0
 10
359.464508
 20
79.184632
 30
0.0
  0
SPLINE
  5
19e
100
AcDbEntity
  8
0
 62
7
100
AcDbSpline
 70
8
 71
3
 72
8
 73
4
 74
0
 40
0
 40
0
 40
0
 40
0
 40
1
 40
1
 40
1
 40
1
 10
359.464508
 20
79.184632
 30
0.0
 10
362.095901
 20
79.184632
 30
0.0
 10
364.619202
 20
80.230118
 30
0.0
 10
366.479736
 20
82.090653
 30
0.0
  0
SPLINE
  5
19f
100
AcDbEntity
  8
0
 62
7
100
AcDbSpline
 70
8
 71
3
 72
8
 73
4
 74
0
 40
0
 40
0
 40
0
 40
0
 40
1
 40
1
 40
1
 40
1
 10
366.479736
 20
82.090653
 30
0.0
 10
368.340271
 20
83.951187
 30
0.0
 10
369.385757
 20
86.474488
 30
0.0
 10
369.385757
 20
89.105881
 30
0.0
  0
LWPOLYLINE
  5
1a0
100
AcDbEntity
  8
0
 62
7
100
AcDbPolyline
 90
2
 70
1
 10
312.692856
 20
89.105881
 30
0.0
 10
312.692856
 20
89.105881
 30
0.0
  0
SPLINE
  5
1a1
100
AcDbEntity
  8
0
 62
7
100
AcDbSpline
 70
8
 71
3
 72
8
 73
4
 74
0
 40
0
 40
0
 40
0
 40
0
 40
1
 40
1
 40
1
 40
1
 10
426.078659
 20
89.105881
 30
0.0
 10
426.078659
 20
91.737274
 30
0.0
 10
425.033173
 20
94.260575
 30
0.0
 10
423.172638
 20
96.121109
 30
0.0
  0
SPLINE
  5
1a2
100
AcDbEntity
  8
0
 62
7
100
AcDbSpline
 70
8
 71
3
 72
8
 73
4
 74
0
 40
0
 40
0
 40
0
 40
0
 40
1
 40
1
 40
1
 40
1
 10
423.172638
 20
96.121109
 30
0.0
 10
421.312103
 20
97.981644
 30
0.0
 10
418.788803
 20
99.027130
 30
0.0
 10
416.157410
 20
99.027130
 30
0.0
  0
SPLINE
  5
1a3
100
AcDbEntity
  8
0
 62
7
100
AcDbSpline
 70
8
 71
3
 72
8
 73
4
 74
0
 40
0
 40
0
 40
0
 40
0
 40
1
 40
1
 40
1
 40
1
 10
416.157410
 20
99.027130
 30
0.0
 10
413.526016
 20
99.027130
 30
0.0
 10
411.002716
 20
97.981644
 30
0.0
 10
409.142181
 20
96.121109
 30
0.0
  0
SPLINE
  5
1a4
100
AcDbEntity
  8
0
 62
7
100
AcDbSpline
 70
8
 71
3
 72
8
 73
4
 74
0
 40
0
 40
0
 40
0
 40
0
 40
1
 40
1
 40
1
 40
1
 10
409.142181
 20
96.121109
 30
0.0
 10
407.281647
 20
94.260575
 30
0.0
 10
406.236160
 20
91.737274
 30
0.0
 10
406.236160
 20
89.105881
 30
0.0
  0
SPLINE
  5
1a5
100
AcDbEntity
  8
0
 62
7
100
AcDbSpline
 70
8
 71
3
 72
8
 73
4
 74
0
 40
0
 40
0
 40
0
 40
0
 40
1
 40
1
 40
1
 40
1
 10
406.236160
 20
89.105881
 30
0.0
 10
406.236160
 20
86.474488
 30
0.0
 10
407.281647
 20
83.951187
 30
0.0
 10
409.142181
 20
82.090653
 30
0.0
  0
SPLINE
  5
1a6
100
AcDbEntity
  8
0
 62
7
100
AcDbSpline
 70
8
 71
3
 72
8
 73
4
 74
0
 40
0
 40
0
 40
0
 40
0
 40
1
 40
1
 40
1
 40
1
 10
409.142181
 20
82.090653
 30
0.0
 10
411.002716
 20
80.230118
 30
0.0
 10
413.526016
 20
79.184632
 30
0.0
 10
416.157410
 20
79.184632
 30
0.0
  0
SPLINE
  5
1a7
100
AcDbEntity
  8
0
 62
7
100
AcDbSpline
 70
8
 71
3
 72
8
 73
4
 74
0
 40
0
 40
0
 40
0
 40
0
 40
1
 40
1
 40
1
 40
1
 10
416.157410
 20
79.184632
 30
0.0
 10
418.788803
 20
79.184632
 30
0.0
 10
421.312103
 20
80.230118
 30
0.0
 10
423.172638
 20
82.090653
 30
0.0
  0
SPLINE
  5
1a8
100
AcDbEntity
  8
0
 62
7
100
AcDbSpline
 70
8
 71
3
 72
8
 73
4
 74
0
 40
0
 40
0
 40
0
 40
0
 40
1
 40
1
 40
1
 40
1
 10
423.172638
 20
82.090653
 30
0.0
 10
425.033173
 20
83.951187
 30
0.0
 10
426.078659
 20
86.474488
 30
0.0
 10
426.078659
 20
89.105881
 30
0.0
  0
LWPOLYLINE
  5
1a9
100
AcDbEntity
  8
0
 62
7
100
AcDbPolyline
 90
2
 70
1
 10
369.385757
 20
89.105881
 30
0.0
 10
369.385757
 20
89.105881
 30
0.0
  0
SPLINE
  5
1aa
100
AcDbEntity
  8
0
 62
7
100
AcDbSpline
 70
8
 71
3
 72
8
 73
4
 74
0
 40
0
 40
0
 40
0
 40
0
 40
1
 40
1
 40
1
 40
1
 10
482.771561
 20
89.105881
 30
0.0
 10
482.771561
 20
91.737274
 30
0.0
 10
481.726074
 20
94.260575
 30
0.0
 10
479.865540
 20
96.121109
 30
0.0
  0
SPLINE
  5
1ab
100
AcDbEntity
  8
0
 62
7
100
AcDbSpline
 70
8
 71
3
 72
8
 73
4
 74
0
 40
0
 40
0
 40
0
 40
0
 40
1
 40
1
 40
1
 40
1
 10
479.865540
 20
96.121109
 30
0.0
 10
478.005005
 20
97.981644
 30
0.0
 10
475.481705
 20
99.027130
 30
0.0
 10
472.850311
 20
99.027130
 30
0.0
  0
SPLINE
  5
1ac
100
AcDbEntity
  8
0
 62
7
100
AcDbSpline
 70
8
 71
3
 72
8
 73
4
 74
0
 40
0
 40
0
 40
0
 40
0
 40
1
 40
1
 40
1
 40
1
 10
472.850311
 20
99.027130
 30
0.0
 10
470.218918
 20
99.027130
 30
0.0
 10
467.695618
 20
97.981644
 30
0.0
 10
465.835083
 20
96.121109
 30
0.0
  0
SPLINE
  5
1ad
100
AcDbEntity
  8
0
 62
7
100
AcDbSpline
 70
8
 71
3
 72
8
 73
4
 74
0
 40
0
 40
0
 40
0
 40
0
 40
1
 40
1
 40
1
 40
1
 10
465.835083
 20
96.121109
 30
0.0
 10
463.974548
 20
94.260575
 30
0.0
 10
462.929062
 20
91.737274
 30
0.0
 10
462.929062
 20
89.105881
 30
0.0
  0
SPLINE
  5
1ae
100
AcDbEntity
  8
0
 62
7
100
AcDbSpline
 70
8
 71
3
 72
8
 73
4
 74
0
 40
0
 40
0
 40
0
 40
0
 40
1
 40
1
 40
1
 40
1
 10
462.929062
 20
89.105881
 30
0.0
 10
462.929062
 20
86.474488
 30
0.0
 10
463.974548
 20
83.951187
 30
0.0
 10
465.835083
 20
82.090653
 30
0.0
  0
SPLINE
  5
1af
100
AcDbEntity
  8
0
 62
7
100
AcDbSpline
 70
8
 71
3
 72
8
 73
4
 74
0
 40
0
 40
0
 40
0
 40
0
 40
1
 40
1
 40
1
 40
1
 10
465.835083
 20
82.090653
 30
0.0
 10
467.695618
 20
80.230118
 30
0.0
 10
470.218918
 20
79.184632
 30
0.0
 10
472.850311
 20
79.184632
 30
0.0
  0
SPLINE
  5
1b0
100
AcDbEntity
  8
0
 62
7
100
AcDbSpline
 70
8
 71
3
 72
8
 73
4
 74
0
 40
0
 40
0
 40
0
 40
0
 40
1
 40
1
 40
1
 40
1
 10
472.850311
 20
79.184632
 30
0.0
 10
475.481705
 20
79.184632
 30
0.0
 10
478.005005
 20
80.230118
 30
0.0
 10
479.865540
 20
82.090653
 30
0.0
  0
SPLINE
  5
1b1
100
AcDbEntity
  8
0
 62
7
100
AcDbSpline
 70
8
 71
3
 72
8
 73
4
 74
0
 40
0
 40
0
 40
0
 40
0
 40
1
 40
1
 40
1
 40
1
 10
479.865540
 20
82.090653
 30
0.0
 10
481.726074
 20
83.951187
 30
0.0
 10
482.771561
 20
86.474488
 30
0.0
 10
482.771561
 20
89.105881
 30
0.0
  0
LWPOLYLINE
  5
1b2
100
AcDbEntity
  8
0
 62
7
100
AcDbPolyline
 90
2
 70
1
 10
426.078659
 20
89.105881
 30
0.0
 10
426.078659
 20
89.105881
 30
0.0
  0
SPLINE
  5
1b3
100
AcDbEntity
  8
0
 62
7
100
AcDbSpline
 70
8
 71
3
 72
8
 73
4
 74
0
 40
0
 40
0
 40
0
 40
0
 40
1
 40
1
 40
1
 40
1
 10
539.464462
 20
89.105881
 30
0.0
 10
539.464462
 20
91.737274
 30
0.0
 10
538.418976
 20
94.260575
 30
0.0
 10
536.558441
 20
96.121109
 30
0.0
  0
SPLINE
  5
1b4
100
AcDbEntity
  8
0
 62
7
100
AcDbSpline
 70
8
 71
3
 72
8
 73
4
 74
0
 40
0
 40
0
 40
0
 40
0
 40
1
 40
1
 40
1
 40
1
 10
536.558441
 20
96.121109
 30
0.0
 10
534.697906
 20
97.981644
 30
0.0
 10
532.174606
 20
99.027130
 30
0.0
 10
529.543213
 20
99.027130
 30
0.0
  0
SPLINE
  5
1b5
100
AcDbEntity
  8
0
 62
7
100
AcDbSpline
 70
8
 71
3
 72
8
 73
4
 74
0
 40
0
 40
0
 40
0
 40
0
 40
1
 40
1
 40
1
 40
1
 10
529.543213
 20
99.027130
 30
0.0
 10
526.911819
 20
99.027130
 30
0.0
 10
524.388519
 20
97.981644
 30
0.0
 10
522.527985
 20
96.121109
 30
0.0
  0
SPLINE
  5
1b6
100
AcDbEntity
  8
0
 62
7
100
AcDbSpline
 70
8
 71
3
 72
8
 73
4
 74
0
 40
0
 40
0
 40
0
 40
0
 40
1
 40
1
 40
1
 40
1
 10
522.527985
 20
96.121109
 30
0.0
 10
520.667450
 20
94.260575
 30
0.0
 10
519.621964
 20
91.737274
 30
0.0
 10
519.621964
 20
89.105881
 30
0.0
  0
SPLINE
  5
1b7
100
AcDbEntity
  8
0
 62
7
100
AcDbSpline
 70
8
 71
3
 72
8
 73
4
 74
0
 40
0
 40
0
 40
0
 40
0
 40
1
 40
1
 40
1
 40
1
 10
519.621964
 20
89.105881
 30
0.0
 10
519.621964
 20
86.474488
 30
0.0
 10
520.667450
 20
83.951187
 30
0.0
 10
522.527985
 20
82.090653
 30
0.0
  0
SPLINE
  5
1b8
100
AcDbEntity
  8
0
 62
7
100
AcDbSpline
 70
8
 71
3
 72
8
 73
4
 74
0
 40
0
 40
0
 40
0
 40
0
 40
1
 40
1
 40
1
 40
1
 10
522.527985
 20
82.090653
 30
0.0
 10
524.388519
 20
80.230118
 30
0.0
 10
526.911819
 20
79.184632
 30
0.0
 10
529.543213
 20
79.184632
 30
0.0
  0
SPLINE
  5
1b9
100
AcDbEntity
  8
0
 62
7
100
AcDbSpline
 70
8
 71
3
 72
8
 73
4
 74
0
 40
0
 40
0
 40
0
 40
0
 40
1
 40
1
 40
1
 40
1
 10
529.543213
 20
79.184632
 30
0.0
 10
532.174606
 20
79.184632
 30
0.0
 10
534.697906
 20
80.230118
 30
0.0
 10
536.558441
 20
82.090653
 30
0.0
  0
SPLINE
  5
1ba
100
AcDbEntity
  8
0
 62
7
100
AcDbSpline
 70
8
 71
3
 72
8
 73
4
 74
0
 40
0
 40
0
 40
0
 40
0
 40
1
 40
1
 40
1
 40
1
 10
536.558441
 20
82.090653
 30
0.0
 10
538.418976
 20
83.951187
 30
0.0
 10
539.464462
 20
86.474488
 30
0.0
 10
539.464462
 20
89.105881
 30
0.0
  0
LWPOLYLINE
  5
1bb
100
AcDbEntity
  8
0
 62
7
100
AcDbPolyline
 90
2
 70
1
 10
482.771561
 20
89.105881
 30
0.0
 10
482.771561
 20
89.105881
 30
0.0
  0
SPLINE
  5
1bc
100
AcDbEntity
  8
0
 62
7
100
AcDbSpline
 70
8
 71
3
 72
8
 73
4
 74
0
 40
0
 40
0
 40
0
 40
0
 40
1
 40
1
 40
1
 40
1
 10
596.157364
 20
89.105881
 30
0.0
 10
596.157364
 20
91.737274
 30
0.0
 10
595.111877
 20
94.260575
 30
0.0
 10
593.251343
 20
96.121109
 30
0.0
  0
SPLINE
  5
1bd
100
AcDbEntity
  8
0
 62
7
100
AcDbSpline
 70
8
 71
3
 72
8
 73
4
 74
0
 40
0
 40
0
 40
0
 40
0
 40
1
 40
1
 40
1
 40
1
 10
593.251343
 20
96.121109
 30
0.0
 10
591.390808
 20
97.981644
 30
0.0
 10
588.867508
 20
99.027130
 30
0.0
 10
586.236115
 20
99.027130
 30
0.0
  0
SPLINE
  5
1be
100
AcDbEntity
  8
0
 62
7
100
AcDbSpline
 70
8
 71
3
 72
8
 73
4
 74
0
 40
0
 40
0
 40
0
 40
0
 40
1
 40
1
 40
1
 40
1
 10
586.236115
 20
99.027130
 30
0.0
 10
583.604721
 20
99.027130
 30
0.0
 10
581.081421
 20
97.981644
 30
0.0
 10
579.220886
 20
96.121109
 30
0.0
  0
SPLINE
  5
1bf
100
AcDbEntity
  8
0
 62
7
100
AcDbSpline
 70
8
 71
3
 72
8
 73
4
 74
0
 40
0
 40
0
 40
0
 40
0
 40
1
 40
1
 40
1
 40
1
 10
579.220886
 20
96.121109
 30
0.0
 10
577.360352
 20
94.260575
 30
0.0
 10
576.314865
 20
91.737274
 30
0.0
 10
576.314865
 20
89.105881
 30
0.0
  0
SPLINE
  5
1c0
100
AcDbEntity
  8
0
 62
7
100
AcDbSpline
 70
8
 71
3
 72
8
 73
4
 74
0
 40
0
 40
0
 40
0
 40
0
 40
1
 40
1
 40
1
 40
1
 10
576.314865
 20
89.105881
 30
0.0
 10
576.314865
 20
86.474488
 30
0.0
 10
577.360352
 20
83.951187
 30
0.0
 10
579.220886
 20
82.090653
 30
0.0
  0
SPLINE
  5
1c1
100
AcDbEntity
  8
0
 62
7
100
AcDbSpline
 70
8
 71
3
 72
8
 73
4
 74
0
 40
0
 40
0
 40
0
 40
0
 40
1
 40
1
 40
1
 40
1
 10
579.220886
 20
82.090653
 30
0.0
 10
581.081421
 20
80.230118
 30
0.0
 10
583.604721
 20
79.184632
 30
0.0
 10
586.236115
 20
79.184632
 30
0.0
  0
SPLINE
  5
1c2
100
AcDbEntity
  8
0
 62
7
100
AcDbSpline
 70
8
 71
3
 72
8
 73
4
 74
0
 40
0
 40
0
 40
0
 40
0
 40
1
 40
1
 40
1
 40
1
 10
586.236115
 20
79.184632
 30
0.0
 10
588.867508
 20
79.184632
 30
0.0
 10
591.390808
 20
80.230118
 30
0.0
 10
593.251343
 20
82.090653
 30
0.0
  0
SPLINE
  5
1c3
100
AcDbEntity
  8
0
 62
7
100
AcDbSpline
 70
8
 71
3
 72
8
 73
4
 74
0
 40
0
 40
0
 40
0
 40
0
 40
1
 40
1
 40
1
 40
1
 10
593.251343
 20
82.090653
 30
0.0
 10
595.111877
 20
83.951187
 30
0.0
 10
596.157364
 20
86.474488
 30
0.0
 10
596.157364
 20
89.105881
 30
0.0
  0
LWPOLYLINE
  5
1c4
100
AcDbEntity
  8
0
 62
7
100
AcDbPolyline
 90
2
 70
1
 10
539.464462
 20
89.105881
 30
0.0
 10
539.464462
 20
89.105881
 30
0.0
  0
SPLINE
  5
1c5
100
AcDbEntity
  8
0
 62
7
100
AcDbSpline
 70
8
 71
3
 72
8
 73
4
 74
0
 40
0
 40
0
 40
0
 40
0
 40
1
 40
1
 40
1
 40
1
 10
652.850266
 20
89.105881
 30
0.0
 10
652.850266
 20
91.737274
 30
0.0
 10
651.804779
 20
94.260575
 30
0.0
 10
649.944244
 20
96.121109
 30
0.0
  0
SPLINE
  5
1c6
100
AcDbEntity
  8
0
 62
7
100
AcDbSpline
 70
8
 71
3
 72
8
 73
4
 74
0
 40
0
 40
0
 40
0
 40
0
 40
1
 40
1
 40
1
 40
1
 10
649.944244
 20
96.121109
 30
0.0
 10
648.083710
 20
97.981644
 30
0.0
 10
645.560410
 20
99.027130
 30
0.0
 10
642.929016
 20
99.027130
 30
0.0
  0
SPLINE
  5
1c7
100
AcDbEntity
  8
0
 62
7
100
AcDbSpline
 70
8
 71
3
 72
8
 73
4
 74
0
 40
0
 40
0
 40
0
 40
0
 40
1
 40
1
 40
1
 40
1
 10
642.929016
 20
99.027130
 30
0.0
 10
640.297623
 20
99.027130
 30
0.0
 10
637.774323
 20
97.981644
 30
0.0
 10
635.913788
 20
96.121109
 30
0.0
  0
SPLINE
  5
1c8
100
AcDbEntity
  8
0
 62
7
100
AcDbSpline
 70
8
 71
3
 72
8
 73
4
 74
0
 40
0
 40
0
 40
0
 40
0
 40
1
 40
1
 40
1
 40
1
 10
635.913788
 20
96.121109
 30
0.0
 10
634.053253
 20
94.260575
 30
0.0
 10
633.007767
 20
91.737274
 30
0.0
 10
633.007767
 20
89.105881
 30
0.0
  0
SPLINE
  5
1c9
100
AcDbEntity
  8
0
 62
7
100
AcDbSpline
 70
8
 71
3
 72
8
 73
4
 74
0
 40
0
 40
0
 40
0
 40
0
 40
1
 40
1
 40
1
 40
1
 10
633.007767
 20
89.105881
 30
0.0
 10
633.007767
 20
86.474488
 30
0.0
 10
634.053253
 20
83.951187
 30
0.0
 10
635.913788
 20
82.090653
 30
0.0
  0
SPLINE
  5
1ca
100
AcDbEntity
  8
0
 62
7
100
AcDbSpline
 70
8
 71
3
 72
8
 73
4
 74
0
 40
0
 40
0
 40
0
 40
0
 40
1
 40
1
 40
1
 40
1
 10
635.913788
 20
82.090653
 30
0.0
 10
637.774323
 20
80.230118
 30
0.0
 10
640.297623
 20
79.184632
 30
0.0
 10
642.929016
 20
79.184632
 30
0.0
  0
SPLINE
  5
1cb
100
AcDbEntity
  8
0
 62
7
100
AcDbSpline
 70
8
 71
3
 72
8
 73
4
 74
0
 40
0
 40
0
 40
0
 40
0
 40
1
 40
1
 40
1
 40
1
 10
642.929016
 20
79.184632
 30
0.0
 10
645.560410
 20
79.184632
 30
0.0
 10
648.083710
 20
80.230118
 30
0.0
 10
649.944244
 20
82.090653
 30
0.0
  0
SPLINE
  5
1cc
100
AcDbEntity
  8
0
 62
7
100
AcDbSpline
 70
8
 71
3
 72
8
 73
4
 74
0
 40
0
 40
0
 40
0
 40
0
 40
1
 40
1
 40
1
 40
1
 10
649.944244
 20
82.090653
 30
0.0
 10
651.804779
 20
83.951187
 30
0.0
 10
652.850266
 20
86.474488
 30
0.0
 10
652.850266
 20
89.105881
 30
0.0
  0
LWPOLYLINE
  5
1cd
100
AcDbEntity
  8
0
 62
7
100
AcDbPolyline
 90
2
 70
1
 10
596.157364
 20
89.105881
 30
0.0
 10
596.157364
 20
89.105881
 30
0.0
  0
SPLINE
  5
1ce
100
AcDbEntity
  8
0
 62
7
100
AcDbSpline
 70
8
 71
3
 72
8
 73
4
 74
0
 40
0
 40
0
 40
0
 40
0
 40
1
 40
1
 40
1
 40
1
 10
709.543167
 20
89.105881
 30
0.0
 10
709.543167
 20
91.737274
 30
0.0
 10
708.497681
 20
94.260575
 30
0.0
 10
706.637146
 20
96.121109
 30
0.0
  0
SPLINE
  5
1cf
100
AcDbEntity
  8
0
 62
7
100
AcDbSpline
 70
8
 71
3
 72
8
 73
4
 74
0
 40
0
 40
0
 40
0
 40
0
 40
1
 40
1
 40
1
 40
1
 10
706.637146
 20
96.121109
 30
0.0
 10
704.776611
 20
97.981644
 30
0.0
 10
702.253311
 20
99.027130
 30
0.0
 10
699.621918
 20
99.027130
 30
0.0
  0
SPLINE
  5
1d0
100
AcDbEntity
  8
0
 62
7
100
AcDbSpline
 70
8
 71
3
 72
8
 73
4
 74
0
 40
0
 40
0
 40
0
 40
0
 40
1
 40
1
 40
1
 40
1
 10
699.621918
 20
99.027130
 30
0.0
 10
696.990524
 20
99.027130
 30
0.0
 10
694.467224
 20
97.981644
 30
0.0
 10
692.606689
 20
96.121109
 30
0.0
  0
SPLINE
  5
1d1
100
AcDbEntity
  8
0
 62
7
100
AcDbSpline
 70
8
 71
3
 72
8
 73
4
 74
0
 40
0
 40
0
 40
0
 40
0
 40
1
 40
1
 40
1
 40
1
 10
692.606689
 20
96.121109
 30
0.0
 10
690.746155
 20
94.260575
 30
0.0
 10
689.700668
 20
91.737274
 30
0.0
 10
689.700668
 20
89.105881
 30
0.0
  0
SPLINE
  5
1d2
100
AcDbEntity
  8
0
 62
7
100
AcDbSpline
 70
8
 71
3
 72
8
 73
4
 74
0
 40
0
 40
0
 40
0
 40
0
 40
1
 40
1
 40
1
 40
1
 10
689.700668
 20
89.105881
 30
0.0
 10
689.700668
 20
86.474488
 30
0.0
 10
690.746155
 20
83.951187
 30
0.0
 10
692.606689
 20
82.090653
 30
0.0
  0
SPLINE
  5
1d3
100
AcDbEntity
  8
0
 62
7
100
AcDbSpline
 70
8
 71
3
 72
8
 73
4
 74
0
 40
0
 40
0
 40
0
 40
0
 40
1
 40
1
 40
1
 40
1
 10
692.606689
 20
82.090653
 30
0.0
 10
694.467224
 20
80.230118
 30
0.0
 10
696.990524
 20
79.184632
 30
0.0
 10
699.621918
 20
79.184632
 30
0.0
  0
SPLINE
  5
1d4
100
AcDbEntity
  8
0
 62
7
100
AcDbSpline
 70
8
 71
3
 72
8
 73
4
 74
0
 40
0
 40
0
 40
0
 40
0
 40
1
 40
1
 40
1
 40
1
 10
699.621918
 20
79.184632
 30
0.0
 10
702.253311
 20
79.184632
 30
0.0
 10
704.776611
 20
80.230118
 30
0.0
 10
706.637146
 20
82.090653
 30
0.0
  0
SPLINE
  5
1d5
100
AcDbEntity
  8
0
 62
7
100
AcDbSpline
 70
8
 71
3
 72
8
 73
4
 74
0
 40
0
 40
0
 40
0
 40
0
 40
1
 40
1
 40
1
 40
1
 10
706.637146
 20
82.090653
 30
0.0
 10
708.497681
 20
83.951187
 30
0.0
 10
709.543167
 20
86.474488
 30
0.0
 10
709.543167
 20
89.105881
 30
0.0
  0
LWPOLYLINE
  5
1d6
100
AcDbEntity
  8
0
 62
7
100
AcDbPolyline
 90
2
 70
1
 10
652.850266
 20
89.105881
 30
0.0
 10
652.850266
 20
89.105881
 30
0.0
  0
SPLINE
  5
1d7
100
AcDbEntity
  8
0
 62
7
100
AcDbSpline
 70
8
 71
3
 72
8
 73
4
 74
0
 40
0
 40
0
 40
0
 40
0
 40
1
 40
1
 40
1
 40
1
 10
766.236069
 20
89.105881
 30
0.0
 10
766.236069
 20
91.737274
 30
0.0
 10
765.190582
 20
94.260575
 30
0.0
 10
763.330048
 20
96.121109
 30
0.0
  0
SPLINE
  5
1d8
100
AcDbEntity
  8
0
 62
7
100
AcDbSpline
 70
8
 71
3
 72
8
 73
4
 74
0
 40
0
 40
0
 40
0
 40
0
 40
1
 40
1
 40
1
 40
1
 10
763.330048
 20
96.121109
 30
0.0
 10
761.469513
 20
97.981644
 30
0.0
 10
758.946213
 20
99.027130
 30
0.0
 10
756.314819
 20
99.027130
 30
0.0
  0
SPLINE
  5
1d9
100
AcDbEntity
  8
0
 62
7
100
AcDbSpline
 70
8
 71
3
 72
8
 73
4
 74
0
 40
0
 40
0
 40
0
 40
0
 40
1
 40
1
 40
1
 40
1
 10
756.314819
 20
99.027130
 30
0.0
 10
753.683426
 20
99.027130
 30
0.0
 10
751.160126
 20
97.981644
 30
0.0
 10
749.299591
 20
96.121109
 30
0.0
  0
SPLINE
  5
1da
100
AcDbEntity
  8
0
 62
7
100
AcDbSpline
 70
8
 71
3
 72
8
 73
4
 74
0
 40
0
 40
0
 40
0
 40
0
 40
1
 40
1
 40
1
 40
1
 10
749.299591
 20
96.121109
 30
0.0
 10
747.439056
 20
94.260575
 30
0.0
 10
746.393570
 20
91.737274
 30
0.0
 10
746.393570
 20
89.105881
 30
0.0
  0
SPLINE
  5
1db
100
AcDbEntity
  8
0
 62
7
100
AcDbSpline
 70
8
 71
3
 72
8
 73
4
 74
0
 40
0
 40
0
 40
0
 40
0
 40
1
 40
1
 40
1
 40
1
 10
746.393570
 20
89.105881
 30
0.0
 10
746.393570
 20
86.474488
 30
0.0
 10
747.439056
 20
83.951187
 30
0.0
 10
749.299591
 20
82.090653
 30
0.0
  0
SPLINE
  5
1dc
100
AcDbEntity
  8
0
 62
7
100
AcDbSpline
 70
8
 71
3
 72
8
 73
4
 74
0
 40
0
 40
0
 40
0
 40
0
 40
1
 40
1
 40
1
 40
1
 10
749.299591
 20
82.090653
 30
0.0
 10
751.160126
 20
80.230118
 30
0.0
 10
753.683426
 20
79.184632
 30
0.0
 10
756.314819
 20
79.184632
 30
0.0
  0
SPLINE
  5
1dd
100
AcDbEntity
  8
0
 62
7
100
AcDbSpline
 70
8
 71
3
 72
8
 73
4
 74
0
 40
0
 40
0
 40
0
 40
0
 40
1
 40
1
 40
1
 40
1
 10
756.314819
 20
79.184632
 30
0.0
 10
758.946213
 20
79.184632
 30
0.0
 10
761.469513
 20
80.230118
 30
0.0
 10
763.330048
 20
82.090653
 30
0.0
  0
SPLINE
  5
1de
100
AcDbEntity
  8
0
 62
7
100
AcDbSpline
 70
8
 71
3
 72
8
 73
4
 74
0
 40
0
 40
0
 40
0
 40
0
 40
1
 40
1
 40
1
 40
1
 10
763.330048
 20
82.090653
 30
0.0
 10
765.190582
 20
83.951187
 30
0.0
 10
766.236069
 20
86.474488
 30
0.0
 10
766.236069
 20
89.105881
 30
0.0
  0
LWPOLYLINE
  5
1df
100
AcDbEntity
  8
0
 62
7
100
AcDbPolyline
 90
2
 70
1
 10
709.543167
 20
89.105881
 30
0.0
 10
709.543167
 20
89.105881
 30
0.0
  0
SPLINE
  5
1e0
100
AcDbEntity
  8
0
 62
7
100
AcDbSpline
 70
8
 71
3
 72
8
 73
4
 74
0
 40
0
 40
0
 40
0
 40
0
 40
1
 40
1
 40
1
 40
1
 10
114.267700
 20
138.203507
 30
0.0
 10
114.267700
 20
140.834900
 30
0.0
 10
113.222214
 20
143.358200
 30
0.0
 10
111.361679
 20
145.218735
 30
0.0
  0
SPLINE
  5
1e1
100
AcDbEntity
  8
0
 62
7
100
AcDbSpline
 70
8
 71
3
 72
8
 73
4
 74
0
 40
0
 40
0
 40
0
 40
0
 40
1
 40
1
 40
1
 40
1
 10
111.361679
 20
145.218735
 30
0.0
 10
109.501144
 20
147.079270
 30
0.0
 10
106.977844
 20
148.124756
 30
0.0
 10
104.346451
 20
148.124756
 30
0.0
  0
SPLINE
  5
1e2
100
AcDbEntity
  8
0
 62
7
100
AcDbSpline
 70
8
 71
3
 72
8
 73
4
 74
0
 40
0
 40
0
 40
0
 40
0
 40
1
 40
1
 40
1
 40
1
 10
104.346451
 20
148.124756
 30
0.0
 10
101.715057
 20
148.124756
 30
0.0
 10
99.191757
 20
147.079270
 30
0.0
 10
97.331223
 20
145.218735
 30
0.0
  0
SPLINE
  5
1e3
100
AcDbEntity
  8
0
 62
7
100
AcDbSpline
 70
8
 71
3
 72
8
 73
4
 74
0
 40
0
 40
0
 40
0
 40
0
 40
1
 40
1
 40
1
 40
1
 10
97.331223
 20
145.218735
 30
0.0
 10
95.470688
 20
143.358200
 30
0.0
 10
94.425201
 20
140.834900
 30
0.0
 10
94.425201
 20
138.203507
 30
0.0
  0
SPLINE
  5
1e4
100
AcDbEntity
  8
0
 62
7
100
AcDbSpline
 70
8
 71
3
 72
8
 73
4
 74
0
 40
0
 40
0
 40
0
 40
0
 40
1
 40
1
 40
1
 40
1
 10
94.425201
 20
138.203507
 30
0.0
 10
94.425201
 20
135.572113
 30
0.0
 10
95.470688
 20
133.048813
 30
0.0
 10
97.331223
 20
131.188278
 30
0.0
  0
SPLINE
  5
1e5
100
AcDbEntity
  8
0
 62
7
100
AcDbSpline
 70
8
 71
3
 72
8
 73
4
 74
0
 40
0
 40
0
 40
0
 40
0
 40
1
 40
1
 40
1
 40
1
 10
97.331223
 20
131.188278
 30
0.0
 10
99.191757
 20
129.327744
 30
0.0
 10
101.715057
 20
128.282257
 30
0.0
 10
104.346451
 20
128.282257
 30
0.0
  0
SPLINE
  5
1e6
100
AcDbEntity
  8
0
 62
7
100
AcDbSpline
 70
8
 71
3
 72
8
 73
4
 74
0
 40
0
 40
0
 40
0
 40
0
 40
1
 40
1
 40
1
 40
1
 10
104.346451
 20
128.282257
 30
0.0
 10
106.977844
 20
128.282257
 30
0.0
 10
109.501144
 20
129.327744
 30
0.0
 10
111.361679
 20
131.188278
 30
0.0
  0
SPLINE
  5
1e7
100
AcDbEntity
  8
0
 62
7
100
AcDbSpline
 70
8
 71
3
 72
8
 73
4
 74
0
 40
0
 40
0
 40
0
 40
0
 40
1
 40
1
 40
1
 40
1
 10
111.361679
 20
131.188278
 30
0.0
 10
113.222214
 20
133.048813
 30
0.0
 10
114.267700
 20
135.572113
 30
0.0
 10
114.267700
 20
138.203507
 30
0.0
  0
LWPOLYLINE
  5
1e8
100
AcDbEntity
  8
0
 62
7
100
AcDbPolyline
 90
2
 70
1
 10
766.236069
 20
89.105881
 30
0.0
 10
766.236069
 20
89.105881
 30
0.0
  0
SPLINE
  5
1e9
100
AcDbEntity
  8
0
 62
7
100
AcDbSpline
 70
8
 71
3
 72
8
 73
4
 74
0
 40
0
 40
0
 40
0
 40
0
 40
1
 40
1
 40
1
 40
1
 10
170.960602
 20
138.203507
 30
0.0
 10
170.960602
 20
140.834900
 30
0.0
 10
169.915115
 20
143.358200
 30
0.0
 10
168.054581
 20
145.218735
 30
0.0
  0
SPLINE
  5
1ea
100
AcDbEntity
  8
0
 62
7
100
AcDbSpline
 70
8
 71
3
 72
8
 73
4
 74
0
 40
0
 40
0
 40
0
 40
0
 40
1
 40
1
 40
1
 40
1
 10
168.054581
 20
145.218735
 30
0.0
 10
166.194046
 20
147.079270
 30
0.0
 10
163.670746
 20
148.124756
 30
0.0
 10
161.039352
 20
148.124756
 30
0.0
  0
SPLINE
  5
1eb
100
AcDbEntity
  8
0
 62
7
100
AcDbSpline
 70
8
 71
3
 72
8
 73
4
 74
0
 40
0
 40
0
 40
0
 40
0
 40
1
 40
1
 40
1
 40
1
 10
161.039352
 20
148.124756
 30
0.0
 10
158.407959
 20
148.124756
 30
0.0
 10
155.884659
 20
147.079270
 30
0.0
 10
154.024124
 20
145.218735
 30
0.0
  0
SPLINE
  5
1ec
100
AcDbEntity
  8
0
 62
7
100
AcDbSpline
 70
8
 71
3
 72
8
 73
4
 74
0
 40
0
 40
0
 40
0
 40
0
 40
1
 40
1
 40
1
 40
1
 10
154.024124
 20
145.218735
 30
0.0
 10
152.163589
 20
143.358200
 30
0.0
 10
151.118103
 20
140.834900
 30
0.0
 10
151.118103
 20
138.203507
 30
0.0
  0
SPLINE
  5
1ed
100
AcDbEntity
  8
0
 62
7
100
AcDbSpline
 70
8
 71
3
 72
8
 73
4
 74
0
 40
0
 40
0
 40
0
 40
0
 40
1
 40
1
 40
1
 40
1
 10
151.118103
 20
138.203507
 30
0.0
 10
151.118103
 20
135.572113
 30
0.0
 10
152.163589
 20
133.048813
 30
0.0
 10
154.024124
 20
131.188278
 30
0.0
  0
SPLINE
  5
1ee
100
AcDbEntity
  8
0
 62
7
100
AcDbSpline
 70
8
 71
3
 72
8
 73
4
 74
0
 40
0
 40
0
 40
0
 40
0
 40
1
 40
1
 40
1
 40
1
 10
154.024124
 20
131.188278
 30
0.0
 10
155.884659
 20
129.327744
 30
0.0
 10
158.407959
 20
128.282257
 30
0.0
 10
161.039352
 20
128.282257
 30
0.0
  0
SPLINE
  5
1ef
100
AcDbEntity
  8
0
 62
7
100
AcDbSpline
 70
8
 71
3
 72
8
 73
4
 74
0
 40
0
 40
0
 40
0
 40
0
 40
1
 40
1
 40
1
 40
1
 10
161.039352
 20
128.282257
 30
0.0
 10
163.670746
 20
128.282257
 30
0.0
 10
166.194046
 20
129.327744
 30
0.0
 10
168.054581
 20
131.188278
 30
0.0
  0
SPLINE
  5
1f0
100
AcDbEntity
  8
0
 62
7
100
AcDbSpline
 70
8
 71
3
 72
8
 73
4
 74
0
 40
0
 40
0
 40
0
 40
0
 40
1
 40
1
 40
1
 40
1
 10
168.054581
 20
131.188278
 30
0.0
 10
169.915115
 20
133.048813
 30
0.0
 10
170.960602
 20
135.572113
 30
0.0
 10
170.960602
 20
138.203507
 30
0.0
  0
LWPOLYLINE
  5
1f1
100
AcDbEntity
  8
0
 62
7
100
AcDbPolyline
 90
2
 70
1
 10
114.267700
 20
138.203507
 30
0.0
 10
114.267700
 20
138.203507
 30
0.0
  0
SPLINE
  5
1f2
100
AcDbEntity
  8
0
 62
7
100
AcDbSpline
 70
8
 71
3
 72
8
 73
4
 74
0
 40
0
 40
0
 40
0
 40
0
 40
1
 40
1
 40
1
 40
1
 10
227.653503
 20
138.203507
 30
0.0
 10
227.653503
 20
140.834900
 30
0.0
 10
226.608017
 20
143.358200
 30
0.0
 10
224.747482
 20
145.218735
 30
0.0
  0
SPLINE
  5
1f3
100
AcDbEntity
  8
0
 62
7
100
AcDbSpline
 70
8
 71
3
 72
8
 73
4
 74
0
 40
0
 40
0
 40
0
 40
0
 40
1
 40
1
 40
1
 40
1
 10
224.747482
 20
145.218735
 30
0.0
 10
222.886948
 20
147.079270
 30
0.0
 10
220.363647
 20
148.124756
 30
0.0
 10
217.732254
 20
148.124756
 30
0.0
  0
SPLINE
  5
1f4
100
AcDbEntity
  8
0
 62
7
100
AcDbSpline
 70
8
 71
3
 72
8
 73
4
 74
0
 40
0
 40
0
 40
0
 40
0
 40
1
 40
1
 40
1
 40
1
 10
217.732254
 20
148.124756
 30
0.0
 10
215.100861
 20
148.124756
 30
0.0
 10
212.577560
 20
147.079270
 30
0.0
 10
210.717026
 20
145.218735
 30
0.0
  0
SPLINE
  5
1f5
100
AcDbEntity
  8
0
 62
7
100
AcDbSpline
 70
8
 71
3
 72
8
 73
4
 74
0
 40
0
 40
0
 40
0
 40
0
 40
1
 40
1
 40
1
 40
1
 10
210.717026
 20
145.218735
 30
0.0
 10
208.856491
 20
143.358200
 30
0.0
 10
207.811005
 20
140.834900
 30
0.0
 10
207.811005
 20
138.203507
 30
0.0
  0
SPLINE
  5
1f6
100
AcDbEntity
  8
0
 62
7
100
AcDbSpline
 70
8
 71
3
 72
8
 73
4
 74
0
 40
0
 40
0
 40
0
 40
0
 40
1
 40
1
 40
1
 40
1
 10
207.811005
 20
138.203507
 30
0.0
 10
207.811005
 20
135.572113
 30
0.0
 10
208.856491
 20
133.048813
 30
0.0
 10
210.717026
 20
131.188278
 30
0.0
  0
SPLINE
  5
1f7
100
AcDbEntity
  8
0
 62
7
100
AcDbSpline
 70
8
 71
3
 72
8
 73
4
 74
0
 40
0
 40
0
 40
0
 40
0
 40
1
 40
1
 40
1
 40
1
 10
210.717026
 20
131.188278
 30
0.0
 10
212.577560
 20
129.327744
 30
0.0
 10
215.100861
 20
128.282257
 30
0.0
 10
217.732254
 20
128.282257
 30
0.0
  0
SPLINE
  5
1f8
100
AcDbEntity
  8
0
 62
7
100
AcDbSpline
 70
8
 71
3
 72
8
 73
4
 74
0
 40
0
 40
0
 40
0
 40
0
 40
1
 40
1
 40
1
 40
1
 10
217.732254
 20
128.282257
 30
0.0
 10
220.363647
 20
128.282257
 30
0.0
 10
222.886948
 20
129.327744
 30
0.0
 10
224.747482
 20
131.188278
 30
0.0
  0
SPLINE
  5
1f9
100
AcDbEntity
  8
0
 62
7
100
AcDbSpline
 70
8
 71
3
 72
8
 73
4
 74
0
 40
0
 40
0
 40
0
 40
0
 40
1
 40
1
 40
1
 40
1
 10
224.747482
 20
131.188278
 30
0.0
 10
226.608017
 20
133.048813
 30
0.0
 10
227.653503
 20
135.572113
 30
0.0
 10
227.653503
 20
138.203507
 30
0.0
  0
LWPOLYLINE
  5
1fa
100
AcDbEntity
  8
0
 62
7
100
AcDbPolyline
 90
2
 70
1
 10
170.960602
 20
138.203507
 30
0.0
 10
170.960602
 20
138.203507
 30
0.0
  0
SPLINE
  5
1fb
100
AcDbEntity
  8
0
 62
7
100
AcDbSpline
 70
8
 71
3
 72
8
 73
4
 74
0
 40
0
 40
0
 40
0
 40
0
 40
1
 40
1
 40
1
 40
1
 10
284.346405
 20
138.203507
 30
0.0
 10
284.346405
 20
140.834900
 30
0.0
 10
283.300919
 20
143.358200
 30
0.0
 10
281.440384
 20
145.218735
 30
0.0
  0
SPLINE
  5
1fc
100
AcDbEntity
  8
0
 62
7
100
AcDbSpline
 70
8
 71
3
 72
8
 73
4
 74
0
 40
0
 40
0
 40
0
 40
0
 40
1
 40
1
 40
1
 40
1
 10
281.440384
 20
145.218735
 30
0.0
 10
279.579849
 20
147.079270
 30
0.0
 10
277.056549
 20
148.124756
 30
0.0
 10
274.425156
 20
148.124756
 30
0.0
  0
SPLINE
  5
1fd
100
AcDbEntity
  8
0
 62
7
100
AcDbSpline
 70
8
 71
3
 72
8
 73
4
 74
0
 40
0
 40
0
 40
0
 40
0
 40
1
 40
1
 40
1
 40
1
 10
274.425156
 20
148.124756
 30
0.0
 10
271.793762
 20
148.124756
 30
0.0
 10
269.270462
 20
147.079270
 30
0.0
 10
267.409927
 20
145.218735
 30
0.0
  0
SPLINE
  5
1fe
100
AcDbEntity
  8
0
 62
7
100
AcDbSpline
 70
8
 71
3
 72
8
 73
4
 74
0
 40
0
 40
0
 40
0
 40
0
 40
1
 40
1
 40
1
 40
1
 10
267.409927
 20
145.218735
 30
0.0
 10
265.549393
 20
143.358200
 30
0.0
 10
264.503906
 20
140.834900
 30
0.0
 10
264.503906
 20
138.203507
 30
0.0
  0
SPLINE
  5
1ff
100
AcDbEntity
  8
0
 62
7
100
AcDbSpline
 70
8
 71
3
 72
8
 73
4
 74
0
 40
0
 40
0
 40
0
 40
0
 40
1
 40
1
 40
1
 40
1
 10
264.503906
 20
138.203507
 30
0.0
 10
264.503906
 20
135.572113
 30
0.0
 10
265.549393
 20
133.048813
 30
0.0
 10
267.409927
 20
131.188278
 30
0.0
  0
SPLINE
  5
200
100
AcDbEntity
  8
0
 62
7
100
AcDbSpline
 70
8
 71
3
 72
8
 73
4
 74
0
 40
0
 40
0
 40
0
 40
0
 40
1
 40
1
 40
1
 40
1
 10
267.409927
 20
131.188278
 30
0.0
 10
269.270462
 20
129.327744
 30
0.0
 10
271.793762
 20
128.282257
 30
0.0
 10
274.425156
 20
128.282257
 30
0.0
  0
SPLINE
  5
201
100
AcDbEntity
  8
0
 62
7
100
AcDbSpline
 70
8
 71
3
 72
8
 73
4
 74
0
 40
0
 40
0
 40
0
 40
0
 40
1
 40
1
 40
1
 40
1
 10
274.425156
 20
128.282257
 30
0.0
 10
277.056549
 20
128.282257
 30
0.0
 10
279.579849
 20
129.327744
 30
0.0
 10
281.440384
 20
131.188278
 30
0.0
  0
SPLINE
  5
202
100
AcDbEntity
  8
0
 62
7
100
AcDbSpline
 70
8
 71
3
 72
8
 73
4
 74
0
 40
0
 40
0
 40
0
 40
0
 40
1
 40
1
 40
1
 40
1
 10
281.440384
 20
131.188278
 30
0.0
 10
283.300919
 20
133.048813
 30
0.0
 10
284.346405
 20
135.572113
 30
0.0
 10
284.346405
 20
138.203507
 30
0.0
  0
LWPOLYLINE
  5
203
100
AcDbEntity
  8
0
 62
7
100
AcDbPolyline
 90
2
 70
1
 10
227.653503
 20
138.203507
 30
0.0
 10
227.653503
 20
138.203507
 30
0.0
  0
SPLINE
  5
204
100
AcDbEntity
  8
0
 62
7
100
AcDbSpline
 70
8
 71
3
 72
8
 73
4
 74
0
 40
0
 40
0
 40
0
 40
0
 40
1
 40
1
 40
1
 40
1
 10
341.039307
 20
138.203507
 30
0.0
 10
341.039307
 20
140.834900
 30
0.0
 10
339.993820
 20
143.358200
 30
0.0
 10
338.133286
 20
145.218735
 30
0.0
  0
SPLINE
  5
205
100
AcDbEntity
  8
0
 62
7
100
AcDbSpline
 70
8
 71
3
 72
8
 73
4
 74
0
 40
0
 40
0
 40
0
 40
0
 40
1
 40
1
 40
1
 40
1
 10
338.133286
 20
145.218735
 30
0.0
 10
336.272751
 20
147.079270
 30
0.0
 10
333.749451
 20
148.124756
 30
0.0
 10
331.118057
 20
148.124756
 30
0.0
  0
SPLINE
  5
206
100
AcDbEntity
  8
0
 62
7
100
AcDbSpline
 70
8
 71
3
 72
8
 73
4
 74
0
 40
0
 40
0
 40
0
 40
0
 40
1
 40
1
 40
1
 40
1
 10
331.118057
 20
148.124756
 30
0.0
 10
328.486664
 20
148.124756
 30
0.0
 10
325.963364
 20
147.079270
 30
0.0
 10
324.102829
 20
145.218735
 30
0.0
  0
SPLINE
  5
207
100
AcDbEntity
  8
0
 62
7
100
AcDbSpline
 70
8
 71
3
 72
8
 73
4
 74
0
 40
0
 40
0
 40
0
 40
0
 40
1
 40
1
 40
1
 40
1
 10
324.102829
 20
145.218735
 30
0.0
 10
322.242294
 20
143.358200
 30
0.0
 10
321.196808
 20
140.834900
 30
0.0
 10
321.196808
 20
138.203507
 30
0.0
  0
SPLINE
  5
208
100
AcDbEntity
  8
0
 62
7
100
AcDbSpline
 70
8
 71
3
 72
8
 73
4
 74
0
 40
0
 40
0
 40
0
 40
0
 40
1
 40
1
 40
1
 40
1
 10
321.196808
 20
138.203507
 30
0.0
 10
321.196808
 20
135.572113
 30
0.0
 10
322.242294
 20
133.048813
 30
0.0
 10
324.102829
 20
131.188278
 30
0.0
  0
SPLINE
  5
209
100
AcDbEntity
  8
0
 62
7
100
AcDbSpline
 70
8
 71
3
 72
8
 73
4
 74
0
 40
0
 40
0
 40
0
 40
0
 40
1
 40
1
 40
1
 40
1
 10
324.102829
 20
131.188278
 30
0.0
 10
325.963364
 20
129.327744
 30
0.0
 10
328.486664
 20
128.282257
 30
0.0
 10
331.118057
 20
128.282257
 30
0.0
  0
SPLINE
  5
20a
100
AcDbEntity
  8
0
 62
7
100
AcDbSpline
 70
8
 71
3
 72
8
 73
4
 74
0
 40
0
 40
0
 40
0
 40
0
 40
1
 40
1
 40
1
 40
1
 10
331.118057
 20
128.282257
 30
0.0
 10
333.749451
 20
128.282257
 30
0.0
 10
336.272751
 20
129.327744
 30
0.0
 10
338.133286
 20
131.188278
 30
0.0
  0
SPLINE
  5
20b
100
AcDbEntity
  8
0
 62
7
100
AcDbSpline
 70
8
 71
3
 72
8
 73
4
 74
0
 40
0
 40
0
 40
0
 40
0
 40
1
 40
1
 40
1
 40
1
 10
338.133286
 20
131.188278
 30
0.0
 10
339.993820
 20
133.048813
 30
0.0
 10
341.039307
 20
135.572113
 30
0.0
 10
341.039307
 20
138.203507
 30
0.0
  0
LWPOLYLINE
  5
20c
100
AcDbEntity
  8
0
 62
7
100
AcDbPolyline
 90
2
 70
1
 10
284.346405
 20
138.203507
 30
0.0
 10
284.346405
 20
138.203507
 30
0.0
  0
SPLINE
  5
20d
100
AcDbEntity
  8
0
 62
7
100
AcDbSpline
 70
8
 71
3
 72
8
 73
4
 74
0
 40
0
 40
0
 40
0
 40
0
 40
1
 40
1
 40
1
 40
1
 10
397.732208
 20
138.203507
 30
0.0
 10
397.732208
 20
140.834900
 30
0.0
 10
396.686722
 20
143.358200
 30
0.0
 10
394.826187
 20
145.218735
 30
0.0
  0
SPLINE
  5
20e
100
AcDbEntity
  8
0
 62
7
100
AcDbSpline
 70
8
 71
3
 72
8
 73
4
 74
0
 40
0
 40
0
 40
0
 40
0
 40
1
 40
1
 40
1
 40
1
 10
394.826187
 20
145.218735
 30
0.0
 10
392.965652
 20
147.079270
 30
0.0
 10
390.442352
 20
148.124756
 30
0.0
 10
387.810959
 20
148.124756
 30
0.0
  0
SPLINE
  5
20f
100
AcDbEntity
  8
0
 62
7
100
AcDbSpline
 70
8
 71
3
 72
8
 73
4
 74
0
 40
0
 40
0
 40
0
 40
0
 40
1
 40
1
 40
1
 40
1
 10
387.810959
 20
148.124756
 30
0.0
 10
385.179565
 20
148.124756
 30
0.0
 10
382.656265
 20
147.079270
 30
0.0
 10
380.795731
 20
145.218735
 30
0.0
  0
SPLINE
  5
210
100
AcDbEntity
  8
0
 62
7
100
AcDbSpline
 70
8
 71
3
 72
8
 73
4
 74
0
 40
0
 40
0
 40
0
 40
0
 40
1
 40
1
 40
1
 40
1
 10
380.795731
 20
145.218735
 30
0.0
 10
378.935196
 20
143.358200
 30
0.0
 10
377.889709
 20
140.834900
 30
0.0
 10
377.889709
 20
138.203507
 30
0.0
  0
SPLINE
  5
211
100
AcDbEntity
  8
0
 62
7
100
AcDbSpline
 70
8
 71
3
 72
8
 73
4
 74
0
 40
0
 40
0
 40
0
 40
0
 40
1
 40
1
 40
1
 40
1
 10
377.889709
 20
138.203507
 30
0.0
 10
377.889709
 20
135.572113
 30
0.0
 10
378.935196
 20
133.048813
 30
0.0
 10
380.795731
 20
131.188278
 30
0.0
  0
SPLINE
  5
212
100
AcDbEntity
  8
0
 62
7
100
AcDbSpline
 70
8
 71
3
 72
8
 73
4
 74
0
 40
0
 40
0
 40
0
 40
0
 40
1
 40
1
 40
1
 40
1
 10
380.795731
 20
131.188278
 30
0.0
 10
382.656265
 20
129.327744
 30
0.0
 10
385.179565
 20
128.282257
 30
0.0
 10
387.810959
 20
128.282257
 30
0.0
  0
SPLINE
  5
213
100
AcDbEntity
  8
0
 62
7
100
AcDbSpline
 70
8
 71
3
 72
8
 73
4
 74
0
 40
0
 40
0
 40
0
 40
0
 40
1
 40
1
 40
1
 40
1
 10
387.810959
 20
128.282257
 30
0.0
 10
390.442352
 20
128.282257
 30
0.0
 10
392.965652
 20
129.327744
 30
0.0
 10
394.826187
 20
131.188278
 30
0.0
  0
SPLINE
  5
214
100
AcDbEntity
  8
0
 62
7
100
AcDbSpline
 70
8
 71
3
 72
8
 73
4
 74
0
 40
0
 40
0
 40
0
 40
0
 40
1
 40
1
 40
1
 40
1
 10
394.826187
 20
131.188278
 30
0.0
 10
396.686722
 20
133.048813
 30
0.0
 10
397.732208
 20
135.572113
 30
0.0
 10
397.732208
 20
138.203507
 30
0.0
  0
LWPOLYLINE
  5
215
100
AcDbEntity
  8
0
 62
7
100
AcDbPolyline
 90
2
 70
1
 10
341.039307
 20
138.203507
 30
0.0
 10
341.039307
 20
138.203507
 30
0.0
  0
SPLINE
  5
216
100
AcDbEntity
  8
0
 62
7
100
AcDbSpline
 70
8
 71
3
 72
8
 73
4
 74
0
 40
0
 40
0
 40
0
 40
0
 40
1
 40
1
 40
1
 40
1
 10
454.425110
 20
138.203507
 30
0.0
 10
454.425110
 20
140.834900
 30
0.0
 10
453.379623
 20
143.358200
 30
0.0
 10
451.519089
 20
145.218735
 30
0.0
  0
SPLINE
  5
217
100
AcDbEntity
  8
0
 62
7
100
AcDbSpline
 70
8
 71
3
 72
8
 73
4
 74
0
 40
0
 40
0
 40
0
 40
0
 40
1
 40
1
 40
1
 40
1
 10
451.519089
 20
145.218735
 30
0.0
 10
449.658554
 20
147.079270
 30
0.0
 10
447.135254
 20
148.124756
 30
0.0
 10
444.503860
 20
148.124756
 30
0.0
  0
SPLINE
  5
218
100
AcDbEntity
  8
0
 62
7
100
AcDbSpline
 70
8
 71
3
 72
8
 73
4
 74
0
 40
0
 40
0
 40
0
 40
0
 40
1
 40
1
 40
1
 40
1
 10
444.503860
 20
148.124756
 30
0.0
 10
441.872467
 20
148.124756
 30
0.0
 10
439.349167
 20
147.079270
 30
0.0
 10
437.488632
 20
145.218735
 30
0.0
  0
SPLINE
  5
219
100
AcDbEntity
  8
0
 62
7
100
AcDbSpline
 70
8
 71
3
 72
8
 73
4
 74
0
 40
0
 40
0
 40
0
 40
0
 40
1
 40
1
 40
1
 40
1
 10
437.488632
 20
145.218735
 30
0.0
 10
435.628098
 20
143.358200
 30
0.0
 10
434.582611
 20
140.834900
 30
0.0
 10
434.582611
 20
138.203507
 30
0.0
  0
SPLINE
  5
21a
100
AcDbEntity
  8
0
 62
7
100
AcDbSpline
 70
8
 71
3
 72
8
 73
4
 74
0
 40
0
 40
0
 40
0
 40
0
 40
1
 40
1
 40
1
 40
1
 10
434.582611
 20
138.203507
 30
0.0
 10
434.582611
 20
135.572113
 30
0.0
 10
435.628098
 20
133.048813
 30
0.0
 10
437.488632
 20
131.188278
 30
0.0
  0
SPLINE
  5
21b
100
AcDbEntity
  8
0
 62
7
100
AcDbSpline
 70
8
 71
3
 72
8
 73
4
 74
0
 40
0
 40
0
 40
0
 40
0
 40
1
 40
1
 40
1
 40
1
 10
437.488632
 20
131.188278
 30
0.0
 10
439.349167
 20
129.327744
 30
0.0
 10
441.872467
 20
128.282257
 30
0.0
 10
444.503860
 20
128.282257
 30
0.0
  0
SPLINE
  5
21c
100
AcDbEntity
  8
0
 62
7
100
AcDbSpline
 70
8
 71
3
 72
8
 73
4
 74
0
 40
0
 40
0
 40
0
 40
0
 40
1
 40
1
 40
1
 40
1
 10
444.503860
 20
128.282257
 30
0.0
 10
447.135254
 20
128.282257
 30
0.0
 10
449.658554
 20
129.327744
 30
0.0
 10
451.519089
 20
131.188278
 30
0.0
  0
SPLINE
  5
21d
100
AcDbEntity
  8
0
 62
7
100
AcDbSpline
 70
8
 71
3
 72
8
 73
4
 74
0
 40
0
 40
0
 40
0
 40
0
 40
1
 40
1
 40
1
 40
1
 10
451.519089
 20
131.188278
 30
0.0
 10
453.379623
 20
133.048813
 30
0.0
 10
454.425110
 20
135.572113
 30
0.0
 10
454.425110
 20
138.203507
 30
0.0
  0
LWPOLYLINE
  5
21e
100
AcDbEntity
  8
0
 62
7
100
AcDbPolyline
 90
2
 70
1
 10
397.732208
 20
138.203507
 30
0.0
 10
397.732208
 20
138.203507
 30
0.0
  0
SPLINE
  5
21f
100
AcDbEntity
  8
0
 62
7
100
AcDbSpline
 70
8
 71
3
 72
8
 73
4
 74
0
 40
0
 40
0
 40
0
 40
0
 40
1
 40
1
 40
1
 40
1
 10
511.118011
 20
138.203507
 30
0.0
 10
511.118011
 20
140.834900
 30
0.0
 10
510.072525
 20
143.358200
 30
0.0
 10
508.211990
 20
145.218735
 30
0.0
  0
SPLINE
  5
220
100
AcDbEntity
  8
0
 62
7
100
AcDbSpline
 70
8
 71
3
 72
8
 73
4
 74
0
 40
0
 40
0
 40
0
 40
0
 40
1
 40
1
 40
1
 40
1
 10
508.211990
 20
145.218735
 30
0.0
 10
506.351456
 20
147.079270
 30
0.0
 10
503.828156
 20
148.124756
 30
0.0
 10
501.196762
 20
148.124756
 30
0.0
  0
SPLINE
  5
221
100
AcDbEntity
  8
0
 62
7
100
AcDbSpline
 70
8
 71
3
 72
8
 73
4
 74
0
 40
0
 40
0
 40
0
 40
0
 40
1
 40
1
 40
1
 40
1
 10
501.196762
 20
148.124756
 30
0.0
 10
498.565369
 20
148.124756
 30
0.0
 10
496.042068
 20
147.079270
 30
0.0
 10
494.181534
 20
145.218735
 30
0.0
  0
SPLINE
  5
222
100
AcDbEntity
  8
0
 62
7
100
AcDbSpline
 70
8
 71
3
 72
8
 73
4
 74
0
 40
0
 40
0
 40
0
 40
0
 40
1
 40
1
 40
1
 40
1
 10
494.181534
 20
145.218735
 30
0.0
 10
492.320999
 20
143.358200
 30
0.0
 10
491.275513
 20
140.834900
 30
0.0
 10
491.275513
 20
138.203507
 30
0.0
  0
SPLINE
  5
223
100
AcDbEntity
  8
0
 62
7
100
AcDbSpline
 70
8
 71
3
 72
8
 73
4
 74
0
 40
0
 40
0
 40
0
 40
0
 40
1
 40
1
 40
1
 40
1
 10
491.275513
 20
138.203507
 30
0.0
 10
491.275513
 20
135.572113
 30
0.0
 10
492.320999
 20
133.048813
 30
0.0
 10
494.181534
 20
131.188278
 30
0.0
  0
SPLINE
  5
224
100
AcDbEntity
  8
0
 62
7
100
AcDbSpline
 70
8
 71
3
 72
8
 73
4
 74
0
 40
0
 40
0
 40
0
 40
0
 40
1
 40
1
 40
1
 40
1
 10
494.181534
 20
131.188278
 30
0.0
 10
496.042068
 20
129.327744
 30
0.0
 10
498.565369
 20
128.282257
 30
0.0
 10
501.196762
 20
128.282257
 30
0.0
  0
SPLINE
  5
225
100
AcDbEntity
  8
0
 62
7
100
AcDbSpline
 70
8
 71
3
 72
8
 73
4
 74
0
 40
0
 40
0
 40
0
 40
0
 40
1
 40
1
 40
1
 40
1
 10
501.196762
 20
128.282257
 30
0.0
 10
503.828156
 20
128.282257
 30
0.0
 10
506.351456
 20
129.327744
 30
0.0
 10
508.211990
 20
131.188278
 30
0.0
  0
SPLINE
  5
226
100
AcDbEntity
  8
0
 62
7
100
AcDbSpline
 70
8
 71
3
 72
8
 73
4
 74
0
 40
0
 40
0
 40
0
 40
0
 40
1
 40
1
 40
1
 40
1
 10
508.211990
 20
131.188278
 30
0.0
 10
510.072525
 20
133.048813
 30
0.0
 10
511.118011
 20
135.572113
 30
0.0
 10
511.118011
 20
138.203507
 30
0.0
  0
LWPOLYLINE
  5
227
100
AcDbEntity
  8
0
 62
7
100
AcDbPolyline
 90
2
 70
1
 10
454.425110
 20
138.203507
 30
0.0
 10
454.425110
 20
138.203507
 30
0.0
  0
SPLINE
  5
228
100
AcDbEntity
  8
0
 62
7
100
AcDbSpline
 70
8
 71
3
 72
8
 73
4
 74
0
 40
0
 40
0
 40
0
 40
0
 40
1
 40
1
 40
1
 40
1
 10
567.810913
 20
138.203507
 30
0.0
 10
567.810913
 20
140.834900
 30
0.0
 10
566.765427
 20
143.358200
 30
0.0
 10
564.904892
 20
145.218735
 30
0.0
  0
SPLINE
  5
229
100
AcDbEntity
  8
0
 62
7
100
AcDbSpline
 70
8
 71
3
 72
8
 73
4
 74
0
 40
0
 40
0
 40
0
 40
0
 40
1
 40
1
 40
1
 40
1
 10
564.904892
 20
145.218735
 30
0.0
 10
563.044357
 20
147.079270
 30
0.0
 10
560.521057
 20
148.124756
 30
0.0
 10
557.889664
 20
148.124756
 30
0.0
  0
SPLINE
  5
22a
100
AcDbEntity
  8
0
 62
7
100
AcDbSpline
 70
8
 71
3
 72
8
 73
4
 74
0
 40
0
 40
0
 40
0
 40
0
 40
1
 40
1
 40
1
 40
1
 10
557.889664
 20
148.124756
 30
0.0
 10
555.258270
 20
148.124756
 30
0.0
 10
552.734970
 20
147.079270
 30
0.0
 10
550.874435
 20
145.218735
 30
0.0
  0
SPLINE
  5
22b
100
AcDbEntity
  8
0
 62
7
100
AcDbSpline
 70
8
 71
3
 72
8
 73
4
 74
0
 40
0
 40
0
 40
0
 40
0
 40
1
 40
1
 40
1
 40
1
 10
550.874435
 20
145.218735
 30
0.0
 10
549.013901
 20
143.358200
 30
0.0
 10
547.968414
 20
140.834900
 30
0.0
 10
547.968414
 20
138.203507
 30
0.0
  0
SPLINE
  5
22c
100
AcDbEntity
  8
0
 62
7
100
AcDbSpline
 70
8
 71
3
 72
8
 73
4
 74
0
 40
0
 40
0
 40
0
 40
0
 40
1
 40
1
 40
1
 40
1
 10
547.968414
 20
138.203507
 30
0.0
 10
547.968414
 20
135.572113
 30
0.0
 10
549.013901
 20
133.048813
 30
0.0
 10
550.874435
 20
131.188278
 30
0.0
  0
SPLINE
  5
22d
100
AcDbEntity
  8
0
 62
7
100
AcDbSpline
 70
8
 71
3
 72
8
 73
4
 74
0
 40
0
 40
0
 40
0
 40
0
 40
1
 40
1
 40
1
 40
1
 10
550.874435
 20
131.188278
 30
0.0
 10
552.734970
 20
129.327744
 30
0.0
 10
555.258270
 20
128.282257
 30
0.0
 10
557.889664
 20
128.282257
 30
0.0
  0
SPLINE
  5
22e
100
AcDbEntity
  8
0
 62
7
100
AcDbSpline
 70
8
 71
3
 72
8
 73
4
 74
0
 40
0
 40
0
 40
0
 40
0
 40
1
 40
1
 40
1
 40
1
 10
557.889664
 20
128.282257
 30
0.0
 10
560.521057
 20
128.282257
 30
0.0
 10
563.044357
 20
129.327744
 30
0.0
 10
564.904892
 20
131.188278
 30
0.0
  0
SPLINE
  5
22f
100
AcDbEntity
  8
0
 62
7
100
AcDbSpline
 70
8
 71
3
 72
8
 73
4
 74
0
 40
0
 40
0
 40
0
 40
0
 40
1
 40
1
 40
1
 40
1
 10
564.904892
 20
131.188278
 30
0.0
 10
566.765427
 20
133.048813
 30
0.0
 10
567.810913
 20
135.572113
 30
0.0
 10
567.810913
 20
138.203507
 30
0.0
  0
LWPOLYLINE
  5
230
100
AcDbEntity
  8
0
 62
7
100
AcDbPolyline
 90
2
 70
1
 10
511.118011
 20
138.203507
 30
0.0
 10
511.118011
 20
138.203507
 30
0.0
  0
SPLINE
  5
231
100
AcDbEntity
  8
0
 62
7
100
AcDbSpline
 70
8
 71
3
 72
8
 73
4
 74
0
 40
0
 40
0
 40
0
 40
0
 40
1
 40
1
 40
1
 40
1
 10
624.503815
 20
138.203507
 30
0.0
 10
624.503815
 20
140.834900
 30
0.0
 10
623.458328
 20
143.358200
 30
0.0
 10
621.597794
 20
145.218735
 30
0.0
  0
SPLINE
  5
232
100
AcDbEntity
  8
0
 62
7
100
AcDbSpline
 70
8
 71
3
 72
8
 73
4
 74
0
 40
0
 40
0
 40
0
 40
0
 40
1
 40
1
 40
1
 40
1
 10
621.597794
 20
145.218735
 30
0.0
 10
619.737259
 20
147.079270
 30
0.0
 10
617.213959
 20
148.124756
 30
0.0
 10
614.582565
 20
148.124756
 30
0.0
  0
SPLINE
  5
233
100
AcDbEntity
  8
0
 62
7
100
AcDbSpline
 70
8
 71
3
 72
8
 73
4
 74
0
 40
0
 40
0
 40
0
 40
0
 40
1
 40
1
 40
1
 40
1
 10
614.582565
 20
148.124756
 30
0.0
 10
611.951172
 20
148.124756
 30
0.0
 10
609.427872
 20
147.079270
 30
0.0
 10
607.567337
 20
145.218735
 30
0.0
  0
SPLINE
  5
234
100
AcDbEntity
  8
0
 62
7
100
AcDbSpline
 70
8
 71
3
 72
8
 73
4
 74
0
 40
0
 40
0
 40
0
 40
0
 40
1
 40
1
 40
1
 40
1
 10
607.567337
 20
145.218735
 30
0.0
 10
605.706802
 20
143.358200
 30
0.0
 10
604.661316
 20
140.834900
 30
0.0
 10
604.661316
 20
138.203507
 30
0.0
  0
SPLINE
  5
235
100
AcDbEntity
  8
0
 62
7
100
AcDbSpline
 70
8
 71
3
 72
8
 73
4
 74
0
 40
0
 40
0
 40
0
 40
0
 40
1
 40
1
 40
1
 40
1
 10
604.661316
 20
138.203507
 30
0.0
 10
604.661316
 20
135.572113
 30
0.0
 10
605.706802
 20
133.048813
 30
0.0
 10
607.567337
 20
131.188278
 30
0.0
  0
SPLINE
  5
236
100
AcDbEntity
  8
0
 62
7
100
AcDbSpline
 70
8
 71
3
 72
8
 73
4
 74
0
 40
0
 40
0
 40
0
 40
0
 40
1
 40
1
 40
1
 40
1
 10
607.567337
 20
131.188278
 30
0.0
 10
609.427872
 20
129.327744
 30
0.0
 10
611.951172
 20
128.282257
 30
0.0
 10
614.582565
 20
128.282257
 30
0.0
  0
SPLINE
  5
237
100
AcDbEntity
  8
0
 62
7
100
AcDbSpline
 70
8
 71
3
 72
8
 73
4
 74
0
 40
0
 40
0
 40
0
 40
0
 40
1
 40
1
 40
1
 40
1
 10
614.582565
 20
128.282257
 30
0.0
 10
617.213959
 20
128.282257
 30
0.0
 10
619.737259
 20
129.327744
 30
0.0
 10
621.597794
 20
131.188278
 30
0.0
  0
SPLINE
  5
238
100
AcDbEntity
  8
0
 62
7
100
AcDbSpline
 70
8
 71
3
 72
8
 73
4
 74
0
 40
0
 40
0
 40
0
 40
0
 40
1
 40
1
 40
1
 40
1
 10
621.597794
 20
131.188278
 30
0.0
 10
623.458328
 20
133.048813
 30
0.0
 10
624.503815
 20
135.572113
 30
0.0
 10
624.503815
 20
138.203507
 30
0.0
  0
LWPOLYLINE
  5
239
100
AcDbEntity
  8
0
 62
7
100
AcDbPolyline
 90
2
 70
1
 10
567.810913
 20
138.203507
 30
0.0
 10
567.810913
 20
138.203507
 30
0.0
  0
SPLINE
  5
23a
100
AcDbEntity
  8
0
 62
7
100
AcDbSpline
 70
8
 71
3
 72
8
 73
4
 74
0
 40
0
 40
0
 40
0
 40
0
 40
1
 40
1
 40
1
 40
1
 10
681.196716
 20
138.203507
 30
0.0
 10
681.196716
 20
140.834900
 30
0.0
 10
680.151230
 20
143.358200
 30
0.0
 10
678.290695
 20
145.218735
 30
0.0
  0
SPLINE
  5
23b
100
AcDbEntity
  8
0
 62
7
100
AcDbSpline
 70
8
 71
3
 72
8
 73
4
 74
0
 40
0
 40
0
 40
0
 40
0
 40
1
 40
1
 40
1
 40
1
 10
678.290695
 20
145.218735
 30
0.0
 10
676.430161
 20
147.079270
 30
0.0
 10
673.906860
 20
148.124756
 30
0.0
 10
671.275467
 20
148.124756
 30
0.0
  0
SPLINE
  5
23c
100
AcDbEntity
  8
0
 62
7
100
AcDbSpline
 70
8
 71
3
 72
8
 73
4
 74
0
 40
0
 40
0
 40
0
 40
0
 40
1
 40
1
 40
1
 40
1
 10
671.275467
 20
148.124756
 30
0.0
 10
668.644073
 20
148.124756
 30
0.0
 10
666.120773
 20
147.079270
 30
0.0
 10
664.260239
 20
145.218735
 30
0.0
  0
SPLINE
  5
23d
100
AcDbEntity
  8
0
 62
7
100
AcDbSpline
 70
8
 71
3
 72
8
 73
4
 74
0
 40
0
 40
0
 40
0
 40
0
 40
1
 40
1
 40
1
 40
1
 10
664.260239
 20
145.218735
 30
0.0
 10
662.399704
 20
143.358200
 30
0.0
 10
661.354218
 20
140.834900
 30
0.0
 10
661.354218
 20
138.203507
 30
0.0
  0
SPLINE
  5
23e
100
AcDbEntity
  8
0
 62
7
100
AcDbSpline
 70
8
 71
3
 72
8
 73
4
 74
0
 40
0
 40
0
 40
0
 40
0
 40
1
 40
1
 40
1
 40
1
 10
661.354218
 20
138.203507
 30
0.0
 10
661.354218
 20
135.572113
 30
0.0
 10
662.399704
 20
133.048813
 30
0.0
 10
664.260239
 20
131.188278
 30
0.0
  0
SPLINE
  5
23f
100
AcDbEntity
  8
0
 62
7
100
AcDbSpline
 70
8
 71
3
 72
8
 73
4
 74
0
 40
0
 40
0
 40
0
 40
0
 40
1
 40
1
 40
1
 40
1
 10
664.260239
 20
131.188278
 30
0.0
 10
666.120773
 20
129.327744
 30
0.0
 10
668.644073
 20
128.282257
 30
0.0
 10
671.275467
 20
128.282257
 30
0.0
  0
SPLINE
  5
240
100
AcDbEntity
  8
0
 62
7
100
AcDbSpline
 70
8
 71
3
 72
8
 73
4
 74
0
 40
0
 40
0
 40
0
 40
0
 40
1
 40
1
 40
1
 40
1
 10
671.275467
 20
128.282257
 30
0.0
 10
673.906860
 20
128.282257
 30
0.0
 10
676.430161
 20
129.327744
 30
0.0
 10
678.290695
 20
131.188278
 30
0.0
  0
SPLINE
  5
241
100
AcDbEntity
  8
0
 62
7
100
AcDbSpline
 70
8
 71
3
 72
8
 73
4
 74
0
 40
0
 40
0
 40
0
 40
0
 40
1
 40
1
 40
1
 40
1
 10
678.290695
 20
131.188278
 30
0.0
 10
680.151230
 20
133.048813
 30
0.0
 10
681.196716
 20
135.572113
 30
0.0
 10
681.196716
 20
138.203507
 30
0.0
  0
LWPOLYLINE
  5
242
100
AcDbEntity
  8
0
 62
7
100
AcDbPolyline
 90
2
 70
1
 10
624.503815
 20
138.203507
 30
0.0
 10
624.503815
 20
138.203507
 30
0.0
  0
SPLINE
  5
243
100
AcDbEntity
  8
0
 62
7
100
AcDbSpline
 70
8
 71
3
 72
8
 73
4
 74
0
 40
0
 40
0
 40
0
 40
0
 40
1
 40
1
 40
1
 40
1
 10
737.889618
 20
138.203507
 30
0.0
 10
737.889618
 20
140.834900
 30
0.0
 10
736.844131
 20
143.358200
 30
0.0
 10
734.983597
 20
145.218735
 30
0.0
  0
SPLINE
  5
244
100
AcDbEntity
  8
0
 62
7
100
AcDbSpline
 70
8
 71
3
 72
8
 73
4
 74
0
 40
0
 40
0
 40
0
 40
0
 40
1
 40
1
 40
1
 40
1
 10
734.983597
 20
145.218735
 30
0.0
 10
733.123062
 20
147.079270
 30
0.0
 10
730.599762
 20
148.124756
 30
0.0
 10
727.968369
 20
148.124756
 30
0.0
  0
SPLINE
  5
245
100
AcDbEntity
  8
0
 62
7
100
AcDbSpline
 70
8
 71
3
 72
8
 73
4
 74
0
 40
0
 40
0
 40
0
 40
0
 40
1
 40
1
 40
1
 40
1
 10
727.968369
 20
148.124756
 30
0.0
 10
725.336975
 20
148.124756
 30
0.0
 10
722.813675
 20
147.079270
 30
0.0
 10
720.953140
 20
145.218735
 30
0.0
  0
SPLINE
  5
246
100
AcDbEntity
  8
0
 62
7
100
AcDbSpline
 70
8
 71
3
 72
8
 73
4
 74
0
 40
0
 40
0
 40
0
 40
0
 40
1
 40
1
 40
1
 40
1
 10
720.953140
 20
145.218735
 30
0.0
 10
719.092606
 20
143.358200
 30
0.0
 10
718.047119
 20
140.834900
 30
0.0
 10
718.047119
 20
138.203507
 30
0.0
  0
SPLINE
  5
247
100
AcDbEntity
  8
0
 62
7
100
AcDbSpline
 70
8
 71
3
 72
8
 73
4
 74
0
 40
0
 40
0
 40
0
 40
0
 40
1
 40
1
 40
1
 40
1
 10
718.047119
 20
138.203507
 30
0.0
 10
718.047119
 20
135.572113
 30
0.0
 10
719.092606
 20
133.048813
 30
0.0
 10
720.953140
 20
131.188278
 30
0.0
  0
SPLINE
  5
248
100
AcDbEntity
  8
0
 62
7
100
AcDbSpline
 70
8
 71
3
 72
8
 73
4
 74
0
 40
0
 40
0
 40
0
 40
0
 40
1
 40
1
 40
1
 40
1
 10
720.953140
 20
131.188278
 30
0.0
 10
722.813675
 20
129.327744
 30
0.0
 10
725.336975
 20
128.282257
 30
0.0
 10
727.968369
 20
128.282257
 30
0.0
  0
SPLINE
  5
249
100
AcDbEntity
  8
0
 62
7
100
AcDbSpline
 70
8
 71
3
 72
8
 73
4
 74
0
 40
0
 40
0
 40
0
 40
0
 40
1
 40
1
 40
1
 40
1
 10
727.968369
 20
128.282257
 30
0.0
 10
730.599762
 20
128.282257
 30
0.0
 10
733.123062
 20
129.327744
 30
0.0
 10
734.983597
 20
131.188278
 30
0.0
  0
SPLINE
  5
24a
100
AcDbEntity
  8
0
 62
7
100
AcDbSpline
 70
8
 71
3
 72
8
 73
4
 74
0
 40
0
 40
0
 40
0
 40
0
 40
1
 40
1
 40
1
 40
1
 10
734.983597
 20
131.188278
 30
0.0
 10
736.844131
 20
133.048813
 30
0.0
 10
737.889618
 20
135.572113
 30
0.0
 10
737.889618
 20
138.203507
 30
0.0
  0
LWPOLYLINE
  5
24b
100
AcDbEntity
  8
0
 62
7
100
AcDbPolyline
 90
2
 70
1
 10
681.196716
 20
138.203507
 30
0.0
 10
681.196716
 20
138.203507
 30
0.0
  0
SPLINE
  5
24c
100
AcDbEntity
  8
0
 62
7
100
AcDbSpline
 70
8
 71
3
 72
8
 73
4
 74
0
 40
0
 40
0
 40
0
 40
0
 40
1
 40
1
 40
1
 40
1
 10
199.307053
 20
187.301132
 30
0.0
 10
199.307053
 20
189.932526
 30
0.0
 10
198.261566
 20
192.455826
 30
0.0
 10
196.401031
 20
194.316361
 30
0.0
  0
SPLINE
  5
24d
100
AcDbEntity
  8
0
 62
7
100
AcDbSpline
 70
8
 71
3
 72
8
 73
4
 74
0
 40
0
 40
0
 40
0
 40
0
 40
1
 40
1
 40
1
 40
1
 10
196.401031
 20
194.316361
 30
0.0
 10
194.540497
 20
196.176895
 30
0.0
 10
192.017197
 20
197.222382
 30
0.0
 10
189.385803
 20
197.222382
 30
0.0
  0
SPLINE
  5
24e
100
AcDbEntity
  8
0
 62
7
100
AcDbSpline
 70
8
 71
3
 72
8
 73
4
 74
0
 40
0
 40
0
 40
0
 40
0
 40
1
 40
1
 40
1
 40
1
 10
189.385803
 20
197.222382
 30
0.0
 10
186.754410
 20
197.222382
 30
0.0
 10
184.231110
 20
196.176895
 30
0.0
 10
182.370575
 20
194.316361
 30
0.0
  0
SPLINE
  5
24f
100
AcDbEntity
  8
0
 62
7
100
AcDbSpline
 70
8
 71
3
 72
8
 73
4
 74
0
 40
0
 40
0
 40
0
 40
0
 40
1
 40
1
 40
1
 40
1
 10
182.370575
 20
194.316361
 30
0.0
 10
180.510040
 20
192.455826
 30
0.0
 10
179.464554
 20
189.932526
 30
0.0
 10
179.464554
 20
187.301132
 30
0.0
  0
SPLINE
  5
250
100
AcDbEntity
  8
0
 62
7
100
AcDbSpline
 70
8
 71
3
 72
8
 73
4
 74
0
 40
0
 40
0
 40
0
 40
0
 40
1
 40
1
 40
1
 40
1
 10
179.464554
 20
187.301132
 30
0.0
 10
179.464554
 20
184.669739
 30
0.0
 10
180.510040
 20
182.146439
 30
0.0
 10
182.370575
 20
180.285904
 30
0.0
  0
SPLINE
  5
251
100
AcDbEntity
  8
0
 62
7
100
AcDbSpline
 70
8
 71
3
 72
8
 73
4
 74
0
 40
0
 40
0
 40
0
 40
0
 40
1
 40
1
 40
1
 40
1
 10
182.370575
 20
180.285904
 30
0.0
 10
184.231110
 20
178.425370
 30
0.0
 10
186.754410
 20
177.379883
 30
0.0
 10
189.385803
 20
177.379883
 30
0.0
  0
SPLINE
  5
252
100
AcDbEntity
  8
0
 62
7
100
AcDbSpline
 70
8
 71
3
 72
8
 73
4
 74
0
 40
0
 40
0
 40
0
 40
0
 40
1
 40
1
 40
1
 40
1
 10
189.385803
 20
177.379883
 30
0.0
 10
192.017197
 20
177.379883
 30
0.0
 10
194.540497
 20
178.425370
 30
0.0
 10
196.401031
 20
180.285904
 30
0.0
  0
SPLINE
  5
253
100
AcDbEntity
  8
0
 62
7
100
AcDbSpline
 70
8
 71
3
 72
8
 73
4
 74
0
 40
0
 40
0
 40
0
 40
0
 40
1
 40
1
 40
1
 40
1
 10
196.401031
 20
180.285904
 30
0.0
 10
198.261566
 20
182.146439
 30
0.0
 10
199.307053
 20
184.669739
 30
0.0
 10
199.307053
 20
187.301132
 30
0.0
  0
LWPOLYLINE
  5
254
100
AcDbEntity
  8
0
 62
7
100
AcDbPolyline
 90
2
 70
1
 10
737.889618
 20
138.203507
 30
0.0
 10
737.889618
 20
138.203507
 30
0.0
  0
SPLINE
  5
255
100
AcDbEntity
  8
0
 62
7
100
AcDbSpline
 70
8
 71
3
 72
8
 73
4
 74
0
 40
0
 40
0
 40
0
 40
0
 40
1
 40
1
 40
1
 40
1
 10
255.999954
 20
187.301132
 30
0.0
 10
255.999954
 20
189.932526
 30
0.0
 10
254.954468
 20
192.455826
 30
0.0
 10
253.093933
 20
194.316361
 30
0.0
  0
SPLINE
  5
256
100
AcDbEntity
  8
0
 62
7
100
AcDbSpline
 70
8
 71
3
 72
8
 73
4
 74
0
 40
0
 40
0
 40
0
 40
0
 40
1
 40
1
 40
1
 40
1
 10
253.093933
 20
194.316361
 30
0.0
 10
251.233398
 20
196.176895
 30
0.0
 10
248.710098
 20
197.222382
 30
0.0
 10
246.078705
 20
197.222382
 30
0.0
  0
SPLINE
  5
257
100
AcDbEntity
  8
0
 62
7
100
AcDbSpline
 70
8
 71
3
 72
8
 73
4
 74
0
 40
0
 40
0
 40
0
 40
0
 40
1
 40
1
 40
1
 40
1
 10
246.078705
 20
197.222382
 30
0.0
 10
243.447311
 20
197.222382
 30
0.0
 10
240.924011
 20
196.176895
 30
0.0
 10
239.063477
 20
194.316361
 30
0.0
  0
SPLINE
  5
258
100
AcDbEntity
  8
0
 62
7
100
AcDbSpline
 70
8
 71
3
 72
8
 73
4
 74
0
 40
0
 40
0
 40
0
 40
0
 40
1
 40
1
 40
1
 40
1
 10
239.063477
 20
194.316361
 30
0.0
 10
237.202942
 20
192.455826
 30
0.0
 10
236.157455
 20
189.932526
 30
0.0
 10
236.157455
 20
187.301132
 30
0.0
  0
SPLINE
  5
259
100
AcDbEntity
  8
0
 62
7
100
AcDbSpline
 70
8
 71
3
 72
8
 73
4
 74
0
 40
0
 40
0
 40
0
 40
0
 40
1
 40
1
 40
1
 40
1
 10
236.157455
 20
187.301132
 30
0.0
 10
236.157455
 20
184.669739
 30
0.0
 10
237.202942
 20
182.146439
 30
0.0
 10
239.063477
 20
180.285904
 30
0.0
  0
SPLINE
  5
25a
100
AcDbEntity
  8
0
 62
7
100
AcDbSpline
 70
8
 71
3
 72
8
 73
4
 74
0
 40
0
 40
0
 40
0
 40
0
 40
1
 40
1
 40
1
 40
1
 10
239.063477
 20
180.285904
 30
0.0
 10
240.924011
 20
178.425370
 30
0.0
 10
243.447311
 20
177.379883
 30
0.0
 10
246.078705
 20
177.379883
 30
0.0
  0
SPLINE
  5
25b
100
AcDbEntity
  8
0
 62
7
100
AcDbSpline
 70
8
 71
3
 72
8
 73
4
 74
0
 40
0
 40
0
 40
0
 40
0
 40
1
 40
1
 40
1
 40
1
 10
246.078705
 20
177.379883
 30
0.0
 10
248.710098
 20
177.379883
 30
0.0
 10
251.233398
 20
178.425370
 30
0.0
 10
253.093933
 20
180.285904
 30
0.0
  0
SPLINE
  5
25c
100
AcDbEntity
  8
0
 62
7
100
AcDbSpline
 70
8
 71
3
 72
8
 73
4
 74
0
 40
0
 40
0
 40
0
 40
0
 40
1
 40
1
 40
1
 40
1
 10
253.093933
 20
180.285904
 30
0.0
 10
254.954468
 20
182.146439
 30
0.0
 10
255.999954
 20
184.669739
 30
0.0
 10
255.999954
 20
187.301132
 30
0.0
  0
LWPOLYLINE
  5
25d
100
AcDbEntity
  8
0
 62
7
100
AcDbPolyline
 90
2
 70
1
 10
199.307053
 20
187.301132
 30
0.0
 10
199.307053
 20
187.301132
 30
0.0
  0
SPLINE
  5
25e
100
AcDbEntity
  8
0
 62
7
100
AcDbSpline
 70
8
 71
3
 72
8
 73
4
 74
0
 40
0
 40
0
 40
0
 40
0
 40
1
 40
1
 40
1
 40
1
 10
312.692856
 20
187.301132
 30
0.0
 10
312.692856
 20
189.932526
 30
0.0
 10
311.647369
 20
192.455826
 30
0.0
 10
309.786835
 20
194.316361
 30
0.0
  0
SPLINE
  5
25f
100
AcDbEntity
  8
0
 62
7
100
AcDbSpline
 70
8
 71
3
 72
8
 73
4
 74
0
 40
0
 40
0
 40
0
 40
0
 40
1
 40
1
 40
1
 40
1
 10
309.786835
 20
194.316361
 30
0.0
 10
307.926300
 20
196.176895
 30
0.0
 10
305.403000
 20
197.222382
 30
0.0
 10
302.771606
 20
197.222382
 30
0.0
  0
SPLINE
  5
260
100
AcDbEntity
  8
0
 62
7
100
AcDbSpline
 70
8
 71
3
 72
8
 73
4
 74
0
 40
0
 40
0
 40
0
 40
0
 40
1
 40
1
 40
1
 40
1
 10
302.771606
 20
197.222382
 30
0.0
 10
300.140213
 20
197.222382
 30
0.0
 10
297.616913
 20
196.176895
 30
0.0
 10
295.756378
 20
194.316361
 30
0.0
  0
SPLINE
  5
261
100
AcDbEntity
  8
0
 62
7
100
AcDbSpline
 70
8
 71
3
 72
8
 73
4
 74
0
 40
0
 40
0
 40
0
 40
0
 40
1
 40
1
 40
1
 40
1
 10
295.756378
 20
194.316361
 30
0.0
 10
293.895844
 20
192.455826
 30
0.0
 10
292.850357
 20
189.932526
 30
0.0
 10
292.850357
 20
187.301132
 30
0.0
  0
SPLINE
  5
262
100
AcDbEntity
  8
0
 62
7
100
AcDbSpline
 70
8
 71
3
 72
8
 73
4
 74
0
 40
0
 40
0
 40
0
 40
0
 40
1
 40
1
 40
1
 40
1
 10
292.850357
 20
187.301132
 30
0.0
 10
292.850357
 20
184.669739
 30
0.0
 10
293.895844
 20
182.146439
 30
0.0
 10
295.756378
 20
180.285904
 30
0.0
  0
SPLINE
  5
263
100
AcDbEntity
  8
0
 62
7
100
AcDbSpline
 70
8
 71
3
 72
8
 73
4
 74
0
 40
0
 40
0
 40
0
 40
0
 40
1
 40
1
 40
1
 40
1
 10
295.756378
 20
180.285904
 30
0.0
 10
297.616913
 20
178.425370
 30
0.0
 10
300.140213
 20
177.379883
 30
0.0
 10
302.771606
 20
177.379883
 30
0.0
  0
SPLINE
  5
264
100
AcDbEntity
  8
0
 62
7
100
AcDbSpline
 70
8
 71
3
 72
8
 73
4
 74
0
 40
0
 40
0
 40
0
 40
0
 40
1
 40
1
 40
1
 40
1
 10
302.771606
 20
177.379883
 30
0.0
 10
305.403000
 20
177.379883
 30
0.0
 10
307.926300
 20
178.425370
 30
0.0
 10
309.786835
 20
180.285904
 30
0.0
  0
SPLINE
  5
265
100
AcDbEntity
  8
0
 62
7
100
AcDbSpline
 70
8
 71
3
 72
8
 73
4
 74
0
 40
0
 40
0
 40
0
 40
0
 40
1
 40
1
 40
1
 40
1
 10
309.786835
 20
180.285904
 30
0.0
 10
311.647369
 20
182.146439
 30
0.0
 10
312.692856
 20
184.669739
 30
0.0
 10
312.692856
 20
187.301132
 30
0.0
  0
LWPOLYLINE
  5
266
100
AcDbEntity
  8
0
 62
7
100
AcDbPolyline
 90
2
 70
1
 10
255.999954
 20
187.301132
 30
0.0
 10
255.999954
 20
187.301132
 30
0.0
  0
SPLINE
  5
267
100
AcDbEntity
  8
0
 62
7
100
AcDbSpline
 70
8
 71
3
 72
8
 73
4
 74
0
 40
0
 40
0
 40
0
 40
0
 40
1
 40
1
 40
1
 40
1
 10
369.385757
 20
187.301132
 30
0.0
 10
369.385757
 20
189.932526
 30
0.0
 10
368.340271
 20
192.455826
 30
0.0
 10
366.479736
 20
194.316361
 30
0.0
  0
SPLINE
  5
268
100
AcDbEntity
  8
0
 62
7
100
AcDbSpline
 70
8
 71
3
 72
8
 73
4
 74
0
 40
0
 40
0
 40
0
 40
0
 40
1
 40
1
 40
1
 40
1
 10
366.479736
 20
194.316361
 30
0.0
 10
364.619202
 20
196.176895
 30
0.0
 10
362.095901
 20
197.222382
 30
0.0
 10
359.464508
 20
197.222382
 30
0.0
  0
SPLINE
  5
269
100
AcDbEntity
  8
0
 62
7
100
AcDbSpline
 70
8
 71
3
 72
8
 73
4
 74
0
 40
0
 40
0
 40
0
 40
0
 40
1
 40
1
 40
1
 40
1
 10
359.464508
 20
197.222382
 30
0.0
 10
356.833115
 20
197.222382
 30
0.0
 10
354.309814
 20
196.176895
 30
0.0
 10
352.449280
 20
194.316361
 30
0.0
  0
SPLINE
  5
26a
100
AcDbEntity
  8
0
 62
7
100
AcDbSpline
 70
8
 71
3
 72
8
 73
4
 74
0
 40
0
 40
0
 40
0
 40
0
 40
1
 40
1
 40
1
 40
1
 10
352.449280
 20
194.316361
 30
0.0
 10
350.588745
 20
192.455826
 30
0.0
 10
349.543259
 20
189.932526
 30
0.0
 10
349.543259
 20
187.301132
 30
0.0
  0
SPLINE
  5
26b
100
AcDbEntity
  8
0
 62
7
100
AcDbSpline
 70
8
 71
3
 72
8
 73
4
 74
0
 40
0
 40
0
 40
0
 40
0
 40
1
 40
1
 40
1
 40
1
 10
349.543259
 20
187.301132
 30
0.0
 10
349.543259
 20
184.669739
 30
0.0
 10
350.588745
 20
182.146439
 30
0.0
 10
352.449280
 20
180.285904
 30
0.0
  0
SPLINE
  5
26c
100
AcDbEntity
  8
0
 62
7
100
AcDbSpline
 70
8
 71
3
 72
8
 73
4
 74
0
 40
0
 40
0
 40
0
 40
0
 40
1
 40
1
 40
1
 40
1
 10
352.449280
 20
180.285904
 30
0.0
 10
354.309814
 20
178.425370
 30
0.0
 10
356.833115
 20
177.379883
 30
0.0
 10
359.464508
 20
177.379883
 30
0.0
  0
SPLINE
  5
26d
100
AcDbEntity
  8
0
 62
7
100
AcDbSpline
 70
8
 71
3
 72
8
 73
4
 74
0
 40
0
 40
0
 40
0
 40
0
 40
1
 40
1
 40
1
 40
1
 10
359.464508
 20
177.379883
 30
0.0
 10
362.095901
 20
177.379883
 30
0.0
 10
364.619202
 20
178.425370
 30
0.0
 10
366.479736
 20
180.285904
 30
0.0
  0
SPLINE
  5
26e
100
AcDbEntity
  8
0
 62
7
100
AcDbSpline
 70
8
 71
3
 72
8
 73
4
 74
0
 40
0
 40
0
 40
0
 40
0
 40
1
 40
1
 40
1
 40
1
 10
366.479736
 20
180.285904
 30
0.0
 10
368.340271
 20
182.146439
 30
0.0
 10
369.385757
 20
184.669739
 30
0.0
 10
369.385757
 20
187.301132
 30
0.0
  0
LWPOLYLINE
  5
26f
100
AcDbEntity
  8
0
 62
7
100
AcDbPolyline
 90
2
 70
1
 10
312.692856
 20
187.301132
 30
0.0
 10
312.692856
 20
187.301132
 30
0.0
  0
SPLINE
  5
270
100
AcDbEntity
  8
0
 62
7
100
AcDbSpline
 70
8
 71
3
 72
8
 73
4
 74
0
 40
0
 40
0
 40
0
 40
0
 40
1
 40
1
 40
1
 40
1
 10
426.078659
 20
187.301132
 30
0.0
 10
426.078659
 20
189.932526
 30
0.0
 10
425.033173
 20
192.455826
 30
0.0
 10
423.172638
 20
194.316361
 30
0.0
  0
SPLINE
  5
271
100
AcDbEntity
  8
0
 62
7
100
AcDbSpline
 70
8
 71
3
 72
8
 73
4
 74
0
 40
0
 40
0
 40
0
 40
0
 40
1
 40
1
 40
1
 40
1
 10
423.172638
 20
194.316361
 30
0.0
 10
421.312103
 20
196.176895
 30
0.0
 10
418.788803
 20
197.222382
 30
0.0
 10
416.157410
 20
197.222382
 30
0.0
  0
SPLINE
  5
272
100
AcDbEntity
  8
0
 62
7
100
AcDbSpline
 70
8
 71
3
 72
8
 73
4
 74
0
 40
0
 40
0
 40
0
 40
0
 40
1
 40
1
 40
1
 40
1
 10
416.157410
 20
197.222382
 30
0.0
 10
413.526016
 20
197.222382
 30
0.0
 10
411.002716
 20
196.176895
 30
0.0
 10
409.142181
 20
194.316361
 30
0.0
  0
SPLINE
  5
273
100
AcDbEntity
  8
0
 62
7
100
AcDbSpline
 70
8
 71
3
 72
8
 73
4
 74
0
 40
0
 40
0
 40
0
 40
0
 40
1
 40
1
 40
1
 40
1
 10
409.142181
 20
194.316361
 30
0.0
 10
407.281647
 20
192.455826
 30
0.0
 10
406.236160
 20
189.932526
 30
0.0
 10
406.236160
 20
187.301132
 30
0.0
  0
SPLINE
  5
274
100
AcDbEntity
  8
0
 62
7
100
AcDbSpline
 70
8
 71
3
 72
8
 73
4
 74
0
 40
0
 40
0
 40
0
 40
0
 40
1
 40
1
 40
1
 40
1
 10
406.236160
 20
187.301132
 30
0.0
 10
406.236160
 20
184.669739
 30
0.0
 10
407.281647
 20
182.146439
 30
0.0
 10
409.142181
 20
180.285904
 30
0.0
  0
SPLINE
  5
275
100
AcDbEntity
  8
0
 62
7
100
AcDbSpline
 70
8
 71
3
 72
8
 73
4
 74
0
 40
0
 40
0
 40
0
 40
0
 40
1
 40
1
 40
1
 40
1
 10
409.142181
 20
180.285904
 30
0.0
 10
411.002716
 20
178.425370
 30
0.0
 10
413.526016
 20
177.379883
 30
0.0
 10
416.157410
 20
177.379883
 30
0.0
  0
SPLINE
  5
276
100
AcDbEntity
  8
0
 62
7
100
AcDbSpline
 70
8
 71
3
 72
8
 73
4
 74
0
 40
0
 40
0
 40
0
 40
0
 40
1
 40
1
 40
1
 40
1
 10
416.157410
 20
177.379883
 30
0.0
 10
418.788803
 20
177.379883
 30
0.0
 10
421.312103
 20
178.425370
 30
0.0
 10
423.172638
 20
180.285904
 30
0.0
  0
SPLINE
  5
277
100
AcDbEntity
  8
0
 62
7
100
AcDbSpline
 70
8
 71
3
 72
8
 73
4
 74
0
 40
0
 40
0
 40
0
 40
0
 40
1
 40
1
 40
1
 40
1
 10
423.172638
 20
180.285904
 30
0.0
 10
425.033173
 20
182.146439
 30
0.0
 10
426.078659
 20
184.669739
 30
0.0
 10
426.078659
 20
187.301132
 30
0.0
  0
LWPOLYLINE
  5
278
100
AcDbEntity
  8
0
 62
7
100
AcDbPolyline
 90
2
 70
1
 10
369.385757
 20
187.301132
 30
0.0
 10
369.385757
 20
187.301132
 30
0.0
  0
SPLINE
  5
279
100
AcDbEntity
  8
0
 62
7
100
AcDbSpline
 70
8
 71
3
 72
8
 73
4
 74
0
 40
0
 40
0
 40
0
 40
0
 40
1
 40
1
 40
1
 40
1
 10
482.771561
 20
187.301132
 30
0.0
 10
482.771561
 20
189.932526
 30
0.0
 10
481.726074
 20
192.455826
 30
0.0
 10
479.865540
 20
194.316361
 30
0.0
  0
SPLINE
  5
27a
100
AcDbEntity
  8
0
 62
7
100
AcDbSpline
 70
8
 71
3
 72
8
 73
4
 74
0
 40
0
 40
0
 40
0
 40
0
 40
1
 40
1
 40
1
 40
1
 10
479.865540
 20
194.316361
 30
0.0
 10
478.005005
 20
196.176895
 30
0.0
 10
475.481705
 20
197.222382
 30
0.0
 10
472.850311
 20
197.222382
 30
0.0
  0
SPLINE
  5
27b
100
AcDbEntity
  8
0
 62
7
100
AcDbSpline
 70
8
 71
3
 72
8
 73
4
 74
0
 40
0
 40
0
 40
0
 40
0
 40
1
 40
1
 40
1
 40
1
 10
472.850311
 20
197.222382
 30
0.0
 10
470.218918
 20
197.222382
 30
0.0
 10
467.695618
 20
196.176895
 30
0.0
 10
465.835083
 20
194.316361
 30
0.0
  0
SPLINE
  5
27c
100
AcDbEntity
  8
0
 62
7
100
AcDbSpline
 70
8
 71
3
 72
8
 73
4
 74
0
 40
0
 40
0
 40
0
 40
0
 40
1
 40
1
 40
1
 40
1
 10
465.835083
 20
194.316361
 30
0.0
 10
463.974548
 20
192.455826
 30
0.0
 10
462.929062
 20
189.932526
 30
0.0
 10
462.929062
 20
187.301132
 30
0.0
  0
SPLINE
  5
27d
100
AcDbEntity
  8
0
 62
7
100
AcDbSpline
 70
8
 71
3
 72
8
 73
4
 74
0
 40
0
 40
0
 40
0
 40
0
 40
1
 40
1
 40
1
 40
1
 10
462.929062
 20
187.301132
 30
0.0
 10
462.929062
 20
184.669739
 30
0.0
 10
463.974548
 20
182.146439
 30
0.0
 10
465.835083
 20
180.285904
 30
0.0
  0
SPLINE
  5
27e
100
AcDbEntity
  8
0
 62
7
100
AcDbSpline
 70
8
 71
3
 72
8
 73
4
 74
0
 40
0
 40
0
 40
0
 40
0
 40
1
 40
1
 40
1
 40
1
 10
465.835083
 20
180.285904
 30
0.0
 10
467.695618
 20
178.425370
 30
0.0
 10
470.218918
 20
177.379883
 30
0.0
 10
472.850311
 20
177.379883
 30
0.0
  0
SPLINE
  5
27f
100
AcDbEntity
  8
0
 62
7
100
AcDbSpline
 70
8
 71
3
 72
8
 73
4
 74
0
 40
0
 40
0
 40
0
 40
0
 40
1
 40
1
 40
1
 40
1
 10
472.850311
 20
177.379883
 30
0.0
 10
475.481705
 20
177.379883
 30
0.0
 10
478.005005
 20
178.425370
 30
0.0
 10
479.865540
 20
180.285904
 30
0.0
  0
SPLINE
  5
280
100
AcDbEntity
  8
0
 62
7
100
AcDbSpline
 70
8
 71
3
 72
8
 73
4
 74
0
 40
0
 40
0
 40
0
 40
0
 40
1
 40
1
 40
1
 40
1
 10
479.865540
 20
180.285904
 30
0.0
 10
481.726074
 20
182.146439
 30
0.0
 10
482.771561
 20
184.669739
 30
0.0
 10
482.771561
 20
187.301132
 30
0.0
  0
LWPOLYLINE
  5
281
100
AcDbEntity
  8
0
 62
7
100
AcDbPolyline
 90
2
 70
1
 10
426.078659
 20
187.301132
 30
0.0
 10
426.078659
 20
187.301132
 30
0.0
  0
SPLINE
  5
282
100
AcDbEntity
  8
0
 62
7
100
AcDbSpline
 70
8
 71
3
 72
8
 73
4
 74
0
 40
0
 40
0
 40
0
 40
0
 40
1
 40
1
 40
1
 40
1
 10
539.464462
 20
187.301132
 30
0.0
 10
539.464462
 20
189.932526
 30
0.0
 10
538.418976
 20
192.455826
 30
0.0
 10
536.558441
 20
194.316361
 30
0.0
  0
SPLINE
  5
283
100
AcDbEntity
  8
0
 62
7
100
AcDbSpline
 70
8
 71
3
 72
8
 73
4
 74
0
 40
0
 40
0
 40
0
 40
0
 40
1
 40
1
 40
1
 40
1
 10
536.558441
 20
194.316361
 30
0.0
 10
534.697906
 20
196.176895
 30
0.0
 10
532.174606
 20
197.222382
 30
0.0
 10
529.543213
 20
197.222382
 30
0.0
  0
SPLINE
  5
284
100
AcDbEntity
  8
0
 62
7
100
AcDbSpline
 70
8
 71
3
 72
8
 73
4
 74
0
 40
0
 40
0
 40
0
 40
0
 40
1
 40
1
 40
1
 40
1
 10
529.543213
 20
197.222382
 30
0.0
 10
526.911819
 20
197.222382
 30
0.0
 10
524.388519
 20
196.176895
 30
0.0
 10
522.527985
 20
194.316361
 30
0.0
  0
SPLINE
  5
285
100
AcDbEntity
  8
0
 62
7
100
AcDbSpline
 70
8
 71
3
 72
8
 73
4
 74
0
 40
0
 40
0
 40
0
 40
0
 40
1
 40
1
 40
1
 40
1
 10
522.527985
 20
194.316361
 30
0.0
 10
520.667450
 20
192.455826
 30
0.0
 10
519.621964
 20
189.932526
 30
0.0
 10
519.621964
 20
187.301132
 30
0.0
  0
SPLINE
  5
286
100
AcDbEntity
  8
0
 62
7
100
AcDbSpline
 70
8
 71
3
 72
8
 73
4
 74
0
 40
0
 40
0
 40
0
 40
0
 40
1
 40
1
 40
1
 40
1
 10
519.621964
 20
187.301132
 30
0.0
 10
519.621964
 20
184.669739
 30
0.0
 10
520.667450
 20
182.146439
 30
0.0
 10
522.527985
 20
180.285904
 30
0.0
  0
SPLINE
  5
287
100
AcDbEntity
  8
0
 62
7
100
AcDbSpline
 70
8
 71
3
 72
8
 73
4
 74
0
 40
0
 40
0
 40
0
 40
0
 40
1
 40
1
 40
1
 40
1
 10
522.527985
 20
180.285904
 30
0.0
 10
524.388519
 20
178.425370
 30
0.0
 10
526.911819
 20
177.379883
 30
0.0
 10
529.543213
 20
177.379883
 30
0.0
  0
SPLINE
  5
288
100
AcDbEntity
  8
0
 62
7
100
AcDbSpline
 70
8
 71
3
 72
8
 73
4
 74
0
 40
0
 40
0
 40
0
 40
0
 40
1
 40
1
 40
1
 40
1
 10
529.543213
 20
177.379883
 30
0.0
 10
532.174606
 20
177.379883
 30
0.0
 10
534.697906
 20
178.425370
 30
0.0
 10
536.558441
 20
180.285904
 30
0.0
  0
SPLINE
  5
289
100
AcDbEntity
  8
0
 62
7
100
AcDbSpline
 70
8
 71
3
 72
8
 73
4
 74
0
 40
0
 40
0
 40
0
 40
0
 40
1
 40
1
 40
1
 40
1
 10
536.558441
 20
180.285904
 30
0.0
 10
538.418976
 20
182.146439
 30
0.0
 10
539.464462
 20
184.669739
 30
0.0
 10
539.464462
 20
187.301132
 30
0.0
  0
LWPOLYLINE
  5
28a
100
AcDbEntity
  8
0
 62
7
100
AcDbPolyline
 90
2
 70
1
 10
482.771561
 20
187.301132
 30
0.0
 10
482.771561
 20
187.301132
 30
0.0
  0
SPLINE
  5
28b
100
AcDbEntity
  8
0
 62
7
100
AcDbSpline
 70
8
 71
3
 72
8
 73
4
 74
0
 40
0
 40
0
 40
0
 40
0
 40
1
 40
1
 40
1
 40
1
 10
-0.535324
 20
1.231705
 30
0.0
 10
282.924866
 20
1.231705
 30
0.0
 10
566.398010
 20
1.231705
 30
0.0
 10
849.858200
 20
1.231705
 30
0.0
  0
SPLINE
  5
28c
100
AcDbEntity
  8
0
 62
7
100
AcDbSpline
 70
8
 71
3
 72
8
 73
4
 74
0
 40
0
 40
0
 40
0
 40
0
 40
1
 40
1
 40
1
 40
1
 10
849.858200
 20
1.231705
 30
0.0
 10
849.858200
 20
77.765824
 30
0.0
 10
849.858200
 20
154.303467
 30
0.0
 10
849.858200
 20
230.837586
 30
0.0
  0
SPLINE
  5
28d
100
AcDbEntity
  8
0
 62
7
100
AcDbSpline
 70
8
 71
3
 72
8
 73
4
 74
0
 40
0
 40
0
 40
0
 40
0
 40
1
 40
1
 40
1
 40
1
 10
849.858200
 20
230.837586
 30
0.0
 10
566.398010
 20
230.837586
 30
0.0
 10
282.924866
 20
230.837586
 30
0.0
 10
-0.535324
 20
230.837586
 30
0.0
  0
SPLINE
  5
28e
100
AcDbEntity
  8
0
 62
7
100
AcDbSpline
 70
8
 71
3
 72
8
 73
4
 74
0
 40
0
 40
0
 40
0
 40
0
 40
1
 40
1
 40
1
 40
1
 10
-0.535324
 20
230.837586
 30
0.0
 10
-0.535324
 20
154.303467
 30
0.0
 10
-0.535324
 20
77.765824
 30
0.0
 10
-0.535324
 20
1.231705
 30
0.0
  0
LWPOLYLINE
  5
28f
100
AcDbEntity
  8
0
 62
7
100
AcDbPolyline
 90
2
 70
1
 10
539.464462
 20
187.301132
 30
0.0
 10
539.464462
 20
187.301132
 30
0.0
  0
LWPOLYLINE
  5
290
100
AcDbEntity
  8
0
 62
7
100
AcDbPolyline
 90
2
 70
1
 10
-0.535324
 20
1.231705
 30
0.0
 10
-0.535324
 20
1.231705
 30
0.0
  0
ENDSEC
  0
SECTION
  2
OBJECTS
  0
DICTIONARY
  5
C
330
0
100
AcDbDictionary
  3
ACAD_GROUP
350
D
  3
ACAD_MLINESTYLE
350
17
  0
DICTIONARY
  5
D
330
C
100
AcDbDictionary
  0
DICTIONARY
  5
1A
330
C
100
AcDbDictionary
  0
DICTIONARY
  5
17
330
C
100
AcDbDictionary
  3
STANDARD
350
18
  0
DICTIONARY
  5
19
330
C
100
AcDbDictionary
  0
ENDSEC
  0
EOF
