<?xml version="1.0"?>
<!-- Created by MetaPost 2.000 on 2017.07.25:0128 -->
<svg version="1.1" xmlns="http://www.w3.org/2000/svg" xmlns:xlink="http://www.w3.org/1999/xlink" width="850.893524" height="230.105881" viewBox="0 0 850.893524 230.105881">
<!-- Original BoundingBox: -76.785324 -88.124176 774.108200 141.981705 -->
  <path d="M114.267700 190.097626C114.267700 187.466232,113.222214 184.942932,111.361679 183.082397C109.501144 181.221863,106.977844 180.176376,104.346451 180.176376C101.715057 180.176376,99.191757 181.221863,97.331223 183.082397C95.470688 184.942932,94.425201 187.466232,94.425201 190.097626C94.425201 192.729019,95.470688 195.252319,97.331223 197.112854C99.191757 198.973389,101.715057 200.018875,104.346451 200.018875C106.977844 200.018875,109.501144 198.973389,111.361679 197.112854C113.222214 195.252319,114.267700 192.729019,114.267700 190.097626Z" style="stroke:rgb(0.000000%,0.000000%,0.000000%); stroke-width: 0.500000;stroke-linecap: round;stroke-linejoin: round;stroke-miterlimit: 10.000000;fill: none;"></path>
  <path d="M170.960602 190.097626C170.960602 187.466232,169.915115 184.942932,168.054581 183.082397C166.194046 181.221863,163.670746 180.176376,161.039352 180.176376C158.407959 180.176376,155.884659 181.221863,154.024124 183.082397C152.163589 184.942932,151.118103 187.466232,151.118103 190.097626C151.118103 192.729019,152.163589 195.252319,154.024124 197.112854C155.884659 198.973389,158.407959 200.018875,161.039352 200.018875C163.670746 200.018875,166.194046 198.973389,168.054581 197.112854C169.915115 195.252319,170.960602 192.729019,170.960602 190.097626Z" style="stroke:rgb(0.000000%,0.000000%,0.000000%); stroke-width: 0.500000;stroke-linecap: round;stroke-linejoin: round;stroke-miterlimit: 10.000000;fill: none;"></path>
  <path d="M227.653503 190.097626C227.653503 187.466232,226.608017 184.942932,224.747482 183.082397C222.886948 181.221863,220.363647 180.176376,217.732254 180.176376C215.100861 180.176376,212.577560 181.221863,210.717026 183.082397C208.856491 184.942932,207.811005 187.466232,207.811005 190.097626C207.811005 192.729019,208.856491 195.252319,210.717026 197.112854C212.577560 198.973389,215.100861 200.018875,217.732254 200.018875C220.363647 200.018875,222.886948 198.973389,224.747482 197.112854C226.608017 195.252319,227.653503 192.729019,227.653503 190.097626Z" style="stroke:rgb(0.000000%,0.000000%,0.000000%); stroke-width: 0.500000;stroke-linecap: round;stroke-linejoin: round;stroke-miterlimit: 10.000000;fill: none;"></path>
  <path d="M284.346405 190.097626C284.346405 187.466232,283.300919 184.942932,281.440384 183.082397C279.579849 181.221863,277.056549 180.176376,274.425156 180.176376C271.793762 180.176376,269.270462 181.221863,267.409927 183.082397C265.549393 184.942932,264.503906 187.466232,264.503906 190.097626C264.503906 192.729019,265.549393 195.252319,267.409927 197.112854C269.270462 198.973389,271.793762 200.018875,274.425156 200.018875C277.056549 200.018875,279.579849 198.973389,281.440384 197.112854C283.300919 195.252319,284.346405 192.729019,284.346405 190.097626Z" style="stroke:rgb(0.000000%,0.000000%,0.000000%); stroke-width: 0.500000;stroke-linecap: round;stroke-linejoin: round;stroke-miterlimit: 10.000000;fill: none;"></path>
  <path d="M341.039307 190.097626C341.039307 187.466232,339.993820 184.942932,338.133286 183.082397C336.272751 181.221863,333.749451 180.176376,331.118057 180.176376C328.486664 180.176376,325.963364 181.221863,324.102829 183.082397C322.242294 184.942932,321.196808 187.466232,321.196808 190.097626C321.196808 192.729019,322.242294 195.252319,324.102829 197.112854C325.963364 198.973389,328.486664 200.018875,331.118057 200.018875C333.749451 200.018875,336.272751 198.973389,338.133286 197.112854C339.993820 195.252319,341.039307 192.729019,341.039307 190.097626Z" style="stroke:rgb(0.000000%,0.000000%,0.000000%); stroke-width: 0.500000;stroke-linecap: round;stroke-linejoin: round;stroke-miterlimit: 10.000000;fill: none;"></path>
  <path d="M397.732208 190.097626C397.732208 187.466232,396.686722 184.942932,394.826187 183.082397C392.965652 181.221863,390.442352 180.176376,387.810959 180.176376C385.179565 180.176376,382.656265 181.221863,380.795731 183.082397C378.935196 184.942932,377.889709 187.466232,377.889709 190.097626C377.889709 192.729019,378.935196 195.252319,380.795731 197.112854C382.656265 198.973389,385.179565 200.018875,387.810959 200.018875C390.442352 200.018875,392.965652 198.973389,394.826187 197.112854C396.686722 195.252319,397.732208 192.729019,397.732208 190.097626Z" style="stroke:rgb(0.000000%,0.000000%,0.000000%); stroke-width: 0.500000;stroke-linecap: round;stroke-linejoin: round;stroke-miterlimit: 10.000000;fill: none;"></path>
  <path d="M454.425110 190.097626C454.425110 187.466232,453.379623 184.942932,451.519089 183.082397C449.658554 181.221863,447.135254 180.176376,444.503860 180.176376C441.872467 180.176376,439.349167 181.221863,437.488632 183.082397C435.628098 184.942932,434.582611 187.466232,434.582611 190.097626C434.582611 192.729019,435.628098 195.252319,437.488632 197.112854C439.349167 198.973389,441.872467 200.018875,444.503860 200.018875C447.135254 200.018875,449.658554 198.973389,451.519089 197.112854C453.379623 195.252319,454.425110 192.729019,454.425110 190.097626Z" style="stroke:rgb(0.000000%,0.000000%,0.000000%); stroke-width: 0.500000;stroke-linecap: round;stroke-linejoin: round;stroke-miterlimit: 10.000000;fill: none;"></path>
  <path d="M511.118011 190.097626C511.118011 187.466232,510.072525 184.942932,508.211990 183.082397C506.351456 181.221863,503.828156 180.176376,501.196762 180.176376C498.565369 180.176376,496.042068 181.221863,494.181534 183.082397C492.320999 184.942932,491.275513 187.466232,491.275513 190.097626C491.275513 192.729019,492.320999 195.252319,494.181534 197.112854C496.042068 198.973389,498.565369 200.018875,501.196762 200.018875C503.828156 200.018875,506.351456 198.973389,508.211990 197.112854C510.072525 195.252319,511.118011 192.729019,511.118011 190.097626Z" style="stroke:rgb(0.000000%,0.000000%,0.000000%); stroke-width: 0.500000;stroke-linecap: round;stroke-linejoin: round;stroke-miterlimit: 10.000000;fill: none;"></path>
  <path d="M567.810913 190.097626C567.810913 187.466232,566.765427 184.942932,564.904892 183.082397C563.044357 181.221863,560.521057 180.176376,557.889664 180.176376C555.258270 180.176376,552.734970 181.221863,550.874435 183.082397C549.013901 184.942932,547.968414 187.466232,547.968414 190.097626C547.968414 192.729019,549.013901 195.252319,550.874435 197.112854C552.734970 198.973389,555.258270 200.018875,557.889664 200.018875C560.521057 200.018875,563.044357 198.973389,564.904892 197.112854C566.765427 195.252319,567.810913 192.729019,567.810913 190.097626Z" style="stroke:rgb(0.000000%,0.000000%,0.000000%); stroke-width: 0.500000;stroke-linecap: round;stroke-linejoin: round;stroke-miterlimit: 10.000000;fill: none;"></path>
  <path d="M624.503815 190.097626C624.503815 187.466232,623.458328 184.942932,621.597794 183.082397C619.737259 181.221863,617.213959 180.176376,614.582565 180.176376C611.951172 180.176376,609.427872 181.221863,607.567337 183.082397C605.706802 184.942932,604.661316 187.466232,604.661316 190.097626C604.661316 192.729019,605.706802 195.252319,607.567337 197.112854C609.427872 198.973389,611.951172 200.018875,614.582565 200.018875C617.213959 200.018875,619.737259 198.973389,621.597794 197.112854C623.458328 195.252319,624.503815 192.729019,624.503815 190.097626Z" style="stroke:rgb(0.000000%,0.000000%,0.000000%); stroke-width: 0.500000;stroke-linecap: round;stroke-linejoin: round;stroke-miterlimit: 10.000000;fill: none;"></path>
  <path d="M681.196716 190.097626C681.196716 187.466232,680.151230 184.942932,678.290695 183.082397C676.430161 181.221863,673.906860 180.176376,671.275467 180.176376C668.644073 180.176376,666.120773 181.221863,664.260239 183.082397C662.399704 184.942932,661.354218 187.466232,661.354218 190.097626C661.354218 192.729019,662.399704 195.252319,664.260239 197.112854C666.120773 198.973389,668.644073 200.018875,671.275467 200.018875C673.906860 200.018875,676.430161 198.973389,678.290695 197.112854C680.151230 195.252319,681.196716 192.729019,681.196716 190.097626Z" style="stroke:rgb(0.000000%,0.000000%,0.000000%); stroke-width: 0.500000;stroke-linecap: round;stroke-linejoin: round;stroke-miterlimit: 10.000000;fill: none;"></path>
  <path d="M737.889618 190.097626C737.889618 187.466232,736.844131 184.942932,734.983597 183.082397C733.123062 181.221863,730.599762 180.176376,727.968369 180.176376C725.336975 180.176376,722.813675 181.221863,720.953140 183.082397C719.092606 184.942932,718.047119 187.466232,718.047119 190.097626C718.047119 192.729019,719.092606 195.252319,720.953140 197.112854C722.813675 198.973389,725.336975 200.018875,727.968369 200.018875C730.599762 200.018875,733.123062 198.973389,734.983597 197.112854C736.844131 195.252319,737.889618 192.729019,737.889618 190.097626Z" style="stroke:rgb(0.000000%,0.000000%,0.000000%); stroke-width: 0.500000;stroke-linecap: round;stroke-linejoin: round;stroke-miterlimit: 10.000000;fill: none;"></path>
  <path d="M85.921249 141.000000C85.921249 138.368607,84.875763 135.845306,83.015228 133.984772C81.154694 132.124237,78.631393 131.078751,76.000000 131.078751C73.368607 131.078751,70.845306 132.124237,68.984772 133.984772C67.124237 135.845306,66.078751 138.368607,66.078751 141.000000C66.078751 143.631393,67.124237 146.154694,68.984772 148.015228C70.845306 149.875763,73.368607 150.921249,76.000000 150.921249C78.631393 150.921249,81.154694 149.875763,83.015228 148.015228C84.875763 146.154694,85.921249 143.631393,85.921249 141.000000Z" style="stroke:rgb(0.000000%,0.000000%,0.000000%); stroke-width: 0.500000;stroke-linecap: round;stroke-linejoin: round;stroke-miterlimit: 10.000000;fill: none;"></path>
  <path d="M142.614151 141.000000C142.614151 138.368607,141.568665 135.845306,139.708130 133.984772C137.847595 132.124237,135.324295 131.078751,132.692902 131.078751C130.061508 131.078751,127.538208 132.124237,125.677673 133.984772C123.817139 135.845306,122.771652 138.368607,122.771652 141.000000C122.771652 143.631393,123.817139 146.154694,125.677673 148.015228C127.538208 149.875763,130.061508 150.921249,132.692902 150.921249C135.324295 150.921249,137.847595 149.875763,139.708130 148.015228C141.568665 146.154694,142.614151 143.631393,142.614151 141.000000Z" style="stroke:rgb(0.000000%,0.000000%,0.000000%); stroke-width: 0.500000;stroke-linecap: round;stroke-linejoin: round;stroke-miterlimit: 10.000000;fill: none;"></path>
  <path d="M199.307053 141.000000C199.307053 138.368607,198.261566 135.845306,196.401031 133.984772C194.540497 132.124237,192.017197 131.078751,189.385803 131.078751C186.754410 131.078751,184.231110 132.124237,182.370575 133.984772C180.510040 135.845306,179.464554 138.368607,179.464554 141.000000C179.464554 143.631393,180.510040 146.154694,182.370575 148.015228C184.231110 149.875763,186.754410 150.921249,189.385803 150.921249C192.017197 150.921249,194.540497 149.875763,196.401031 148.015228C198.261566 146.154694,199.307053 143.631393,199.307053 141.000000Z" style="stroke:rgb(0.000000%,0.000000%,0.000000%); stroke-width: 0.500000;stroke-linecap: round;stroke-linejoin: round;stroke-miterlimit: 10.000000;fill: none;"></path>
  <path d="M255.999954 141.000000C255.999954 138.368607,254.954468 135.845306,253.093933 133.984772C251.233398 132.124237,248.710098 131.078751,246.078705 131.078751C243.447311 131.078751,240.924011 132.124237,239.063477 133.984772C237.202942 135.845306,236.157455 138.368607,236.157455 141.000000C236.157455 143.631393,237.202942 146.154694,239.063477 148.015228C240.924011 149.875763,243.447311 150.921249,246.078705 150.921249C248.710098 150.921249,251.233398 149.875763,253.093933 148.015228C254.954468 146.154694,255.999954 143.631393,255.999954 141.000000Z" style="stroke:rgb(0.000000%,0.000000%,0.000000%); stroke-width: 0.500000;stroke-linecap: round;stroke-linejoin: round;stroke-miterlimit: 10.000000;fill: none;"></path>
  <path d="M312.692856 141.000000C312.692856 138.368607,311.647369 135.845306,309.786835 133.984772C307.926300 132.124237,305.403000 131.078751,302.771606 131.078751C300.140213 131.078751,297.616913 132.124237,295.756378 133.984772C293.895844 135.845306,292.850357 138.368607,292.850357 141.000000C292.850357 143.631393,293.895844 146.154694,295.756378 148.015228C297.616913 149.875763,300.140213 150.921249,302.771606 150.921249C305.403000 150.921249,307.926300 149.875763,309.786835 148.015228C311.647369 146.154694,312.692856 143.631393,312.692856 141.000000Z" style="stroke:rgb(0.000000%,0.000000%,0.000000%); stroke-width: 0.500000;stroke-linecap: round;stroke-linejoin: round;stroke-miterlimit: 10.000000;fill: none;"></path>
  <path d="M369.385757 141.000000C369.385757 138.368607,368.340271 135.845306,366.479736 133.984772C364.619202 132.124237,362.095901 131.078751,359.464508 131.078751C356.833115 131.078751,354.309814 132.124237,352.449280 133.984772C350.588745 135.845306,349.543259 138.368607,349.543259 141.000000C349.543259 143.631393,350.588745 146.154694,352.449280 148.015228C354.309814 149.875763,356.833115 150.921249,359.464508 150.921249C362.095901 150.921249,364.619202 149.875763,366.479736 148.015228C368.340271 146.154694,369.385757 143.631393,369.385757 141.000000Z" style="stroke:rgb(0.000000%,0.000000%,0.000000%); stroke-width: 0.500000;stroke-linecap: round;stroke-linejoin: round;stroke-miterlimit: 10.000000;fill: none;"></path>
  <path d="M426.078659 141.000000C426.078659 138.368607,425.033173 135.845306,423.172638 133.984772C421.312103 132.124237,418.788803 131.078751,416.157410 131.078751C413.526016 131.078751,411.002716 132.124237,409.142181 133.984772C407.281647 135.845306,406.236160 138.368607,406.236160 141.000000C406.236160 143.631393,407.281647 146.154694,409.142181 148.015228C411.002716 149.875763,413.526016 150.921249,416.157410 150.921249C418.788803 150.921249,421.312103 149.875763,423.172638 148.015228C425.033173 146.154694,426.078659 143.631393,426.078659 141.000000Z" style="stroke:rgb(0.000000%,0.000000%,0.000000%); stroke-width: 0.500000;stroke-linecap: round;stroke-linejoin: round;stroke-miterlimit: 10.000000;fill: none;"></path>
  <path d="M482.771561 141.000000C482.771561 138.368607,481.726074 135.845306,479.865540 133.984772C478.005005 132.124237,475.481705 131.078751,472.850311 131.078751C470.218918 131.078751,467.695618 132.124237,465.835083 133.984772C463.974548 135.845306,462.929062 138.368607,462.929062 141.000000C462.929062 143.631393,463.974548 146.154694,465.835083 148.015228C467.695618 149.875763,470.218918 150.921249,472.850311 150.921249C475.481705 150.921249,478.005005 149.875763,479.865540 148.015228C481.726074 146.154694,482.771561 143.631393,482.771561 141.000000Z" style="stroke:rgb(0.000000%,0.000000%,0.000000%); stroke-width: 0.500000;stroke-linecap: round;stroke-linejoin: round;stroke-miterlimit: 10.000000;fill: none;"></path>
  <path d="M539.464462 141.000000C539.464462 138.368607,538.418976 135.845306,536.558441 133.984772C534.697906 132.124237,532.174606 131.078751,529.543213 131.078751C526.911819 131.078751,524.388519 132.124237,522.527985 133.984772C520.667450 135.845306,519.621964 138.368607,519.621964 141.000000C519.621964 143.631393,520.667450 146.154694,522.527985 148.015228C524.388519 149.875763,526.911819 150.921249,529.543213 150.921249C532.174606 150.921249,534.697906 149.875763,536.558441 148.015228C538.418976 146.154694,539.464462 143.631393,539.464462 141.000000Z" style="stroke:rgb(0.000000%,0.000000%,0.000000%); stroke-width: 0.500000;stroke-linecap: round;stroke-linejoin: round;stroke-miterlimit: 10.000000;fill: none;"></path>
  <path d="M596.157364 141.000000C596.157364 138.368607,595.111877 135.845306,593.251343 133.984772C591.390808 132.124237,588.867508 131.078751,586.236115 131.078751C583.604721 131.078751,581.081421 132.124237,579.220886 133.984772C577.360352 135.845306,576.314865 138.368607,576.314865 141.000000C576.314865 143.631393,577.360352 146.154694,579.220886 148.015228C581.081421 149.875763,583.604721 150.921249,586.236115 150.921249C588.867508 150.921249,591.390808 149.875763,593.251343 148.015228C595.111877 146.154694,596.157364 143.631393,596.157364 141.000000Z" style="stroke:rgb(0.000000%,0.000000%,0.000000%); stroke-width: 0.500000;stroke-linecap: round;stroke-linejoin: round;stroke-miterlimit: 10.000000;fill: none;"></path>
  <path d="M652.850266 141.000000C652.850266 138.368607,651.804779 135.845306,649.944244 133.984772C648.083710 132.124237,645.560410 131.078751,642.929016 131.078751C640.297623 131.078751,637.774323 132.124237,635.913788 133.984772C634.053253 135.845306,633.007767 138.368607,633.007767 141.000000C633.007767 143.631393,634.053253 146.154694,635.913788 148.015228C637.774323 149.875763,640.297623 150.921249,642.929016 150.921249C645.560410 150.921249,648.083710 149.875763,649.944244 148.015228C651.804779 146.154694,652.850266 143.631393,652.850266 141.000000Z" style="stroke:rgb(0.000000%,0.000000%,0.000000%); stroke-width: 0.500000;stroke-linecap: round;stroke-linejoin: round;stroke-miterlimit: 10.000000;fill: none;"></path>
  <path d="M709.543167 141.000000C709.543167 138.368607,708.497681 135.845306,706.637146 133.984772C704.776611 132.124237,702.253311 131.078751,699.621918 131.078751C696.990524 131.078751,694.467224 132.124237,692.606689 133.984772C690.746155 135.845306,689.700668 138.368607,689.700668 141.000000C689.700668 143.631393,690.746155 146.154694,692.606689 148.015228C694.467224 149.875763,696.990524 150.921249,699.621918 150.921249C702.253311 150.921249,704.776611 149.875763,706.637146 148.015228C708.497681 146.154694,709.543167 143.631393,709.543167 141.000000Z" style="stroke:rgb(0.000000%,0.000000%,0.000000%); stroke-width: 0.500000;stroke-linecap: round;stroke-linejoin: round;stroke-miterlimit: 10.000000;fill: none;"></path>
  <path d="M766.236069 141.000000C766.236069 138.368607,765.190582 135.845306,763.330048 133.984772C761.469513 132.124237,758.946213 131.078751,756.314819 131.078751C753.683426 131.078751,751.160126 132.124237,749.299591 133.984772C747.439056 135.845306,746.393570 138.368607,746.393570 141.000000C746.393570 143.631393,747.439056 146.154694,749.299591 148.015228C751.160126 149.875763,753.683426 150.921249,756.314819 150.921249C758.946213 150.921249,761.469513 149.875763,763.330048 148.015228C765.190582 146.154694,766.236069 143.631393,766.236069 141.000000Z" style="stroke:rgb(0.000000%,0.000000%,0.000000%); stroke-width: 0.500000;stroke-linecap: round;stroke-linejoin: round;stroke-miterlimit: 10.000000;fill: none;"></path>
  <path d="M114.267700 91.902374C114.267700 89.270981,113.222214 86.747681,111.361679 84.887146C109.501144 83.026611,106.977844 81.981125,104.346451 81.981125C101.715057 81.981125,99.191757 83.026611,97.331223 84.887146C95.470688 86.747681,94.425201 89.270981,94.425201 91.902374C94.425201 94.533768,95.470688 97.057068,97.331223 98.917603C99.191757 100.778137,101.715057 101.823624,104.346451 101.823624C106.977844 101.823624,109.501144 100.778137,111.361679 98.917603C113.222214 97.057068,114.267700 94.533768,114.267700 91.902374Z" style="stroke:rgb(0.000000%,0.000000%,0.000000%); stroke-width: 0.500000;stroke-linecap: round;stroke-linejoin: round;stroke-miterlimit: 10.000000;fill: none;"></path>
  <path d="M170.960602 91.902374C170.960602 89.270981,169.915115 86.747681,168.054581 84.887146C166.194046 83.026611,163.670746 81.981125,161.039352 81.981125C158.407959 81.981125,155.884659 83.026611,154.024124 84.887146C152.163589 86.747681,151.118103 89.270981,151.118103 91.902374C151.118103 94.533768,152.163589 97.057068,154.024124 98.917603C155.884659 100.778137,158.407959 101.823624,161.039352 101.823624C163.670746 101.823624,166.194046 100.778137,168.054581 98.917603C169.915115 97.057068,170.960602 94.533768,170.960602 91.902374Z" style="stroke:rgb(0.000000%,0.000000%,0.000000%); stroke-width: 0.500000;stroke-linecap: round;stroke-linejoin: round;stroke-miterlimit: 10.000000;fill: none;"></path>
  <path d="M227.653503 91.902374C227.653503 89.270981,226.608017 86.747681,224.747482 84.887146C222.886948 83.026611,220.363647 81.981125,217.732254 81.981125C215.100861 81.981125,212.577560 83.026611,210.717026 84.887146C208.856491 86.747681,207.811005 89.270981,207.811005 91.902374C207.811005 94.533768,208.856491 97.057068,210.717026 98.917603C212.577560 100.778137,215.100861 101.823624,217.732254 101.823624C220.363647 101.823624,222.886948 100.778137,224.747482 98.917603C226.608017 97.057068,227.653503 94.533768,227.653503 91.902374Z" style="stroke:rgb(0.000000%,0.000000%,0.000000%); stroke-width: 0.500000;stroke-linecap: round;stroke-linejoin: round;stroke-miterlimit: 10.000000;fill: none;"></path>
  <path d="M284.346405 91.902374C284.346405 89.270981,283.300919 86.747681,281.440384 84.887146C279.579849 83.026611,277.056549 81.981125,274.425156 81.981125C271.793762 81.981125,269.270462 83.026611,267.409927 84.887146C265.549393 86.747681,264.503906 89.270981,264.503906 91.902374C264.503906 94.533768,265.549393 97.057068,267.409927 98.917603C269.270462 100.778137,271.793762 101.823624,274.425156 101.823624C277.056549 101.823624,279.579849 100.778137,281.440384 98.917603C283.300919 97.057068,284.346405 94.533768,284.346405 91.902374Z" style="stroke:rgb(0.000000%,0.000000%,0.000000%); stroke-width: 0.500000;stroke-linecap: round;stroke-linejoin: round;stroke-miterlimit: 10.000000;fill: none;"></path>
  <path d="M341.039307 91.902374C341.039307 89.270981,339.993820 86.747681,338.133286 84.887146C336.272751 83.026611,333.749451 81.981125,331.118057 81.981125C328.486664 81.981125,325.963364 83.026611,324.102829 84.887146C322.242294 86.747681,321.196808 89.270981,321.196808 91.902374C321.196808 94.533768,322.242294 97.057068,324.102829 98.917603C325.963364 100.778137,328.486664 101.823624,331.118057 101.823624C333.749451 101.823624,336.272751 100.778137,338.133286 98.917603C339.993820 97.057068,341.039307 94.533768,341.039307 91.902374Z" style="stroke:rgb(0.000000%,0.000000%,0.000000%); stroke-width: 0.500000;stroke-linecap: round;stroke-linejoin: round;stroke-miterlimit: 10.000000;fill: none;"></path>
  <path d="M397.732208 91.902374C397.732208 89.270981,396.686722 86.747681,394.826187 84.887146C392.965652 83.026611,390.442352 81.981125,387.810959 81.981125C385.179565 81.981125,382.656265 83.026611,380.795731 84.887146C378.935196 86.747681,377.889709 89.270981,377.889709 91.902374C377.889709 94.533768,378.935196 97.057068,380.795731 98.917603C382.656265 100.778137,385.179565 101.823624,387.810959 101.823624C390.442352 101.823624,392.965652 100.778137,394.826187 98.917603C396.686722 97.057068,397.732208 94.533768,397.732208 91.902374Z" style="stroke:rgb(0.000000%,0.000000%,0.000000%); stroke-width: 0.500000;stroke-linecap: round;stroke-linejoin: round;stroke-miterlimit: 10.000000;fill: none;"></path>
  <path d="M454.425110 91.902374C454.425110 89.270981,453.379623 86.747681,451.519089 84.887146C449.658554 83.026611,447.135254 81.981125,444.503860 81.981125C441.872467 81.981125,439.349167 83.026611,437.488632 84.887146C435.628098 86.747681,434.582611 89.270981,434.582611 91.902374C434.582611 94.533768,435.628098 97.057068,437.488632 98.917603C439.349167 100.778137,441.872467 101.823624,444.503860 101.823624C447.135254 101.823624,449.658554 100.778137,451.519089 98.917603C453.379623 97.057068,454.425110 94.533768,454.425110 91.902374Z" style="stroke:rgb(0.000000%,0.000000%,0.000000%); stroke-width: 0.500000;stroke-linecap: round;stroke-linejoin: round;stroke-miterlimit: 10.000000;fill: none;"></path>
  <path d="M511.118011 91.902374C511.118011 89.270981,510.072525 86.747681,508.211990 84.887146C506.351456 83.026611,503.828156 81.981125,501.196762 81.981125C498.565369 81.981125,496.042068 83.026611,494.181534 84.887146C492.320999 86.747681,491.275513 89.270981,491.275513 91.902374C491.275513 94.533768,492.320999 97.057068,494.181534 98.917603C496.042068 100.778137,498.565369 101.823624,501.196762 101.823624C503.828156 101.823624,506.351456 100.778137,508.211990 98.917603C510.072525 97.057068,511.118011 94.533768,511.118011 91.902374Z" style="stroke:rgb(0.000000%,0.000000%,0.000000%); stroke-width: 0.500000;stroke-linecap: round;stroke-linejoin: round;stroke-miterlimit: 10.000000;fill: none;"></path>
  <path d="M567.810913 91.902374C567.810913 89.270981,566.765427 86.747681,564.904892 84.887146C563.044357 83.026611,560.521057 81.981125,557.889664 81.981125C555.258270 81.981125,552.734970 83.026611,550.874435 84.887146C549.013901 86.747681,547.968414 89.270981,547.968414 91.902374C547.968414 94.533768,549.013901 97.057068,550.874435 98.917603C552.734970 100.778137,555.258270 101.823624,557.889664 101.823624C560.521057 101.823624,563.044357 100.778137,564.904892 98.917603C566.765427 97.057068,567.810913 94.533768,567.810913 91.902374Z" style="stroke:rgb(0.000000%,0.000000%,0.000000%); stroke-width: 0.500000;stroke-linecap: round;stroke-linejoin: round;stroke-miterlimit: 10.000000;fill: none;"></path>
  <path d="M624.503815 91.902374C624.503815 89.270981,623.458328 86.747681,621.597794 84.887146C619.737259 83.026611,617.213959 81.981125,614.582565 81.981125C611.951172 81.981125,609.427872 83.026611,607.567337 84.887146C605.706802 86.747681,604.661316 89.270981,604.661316 91.902374C604.661316 94.533768,605.706802 97.057068,607.567337 98.917603C609.427872 100.778137,611.951172 101.823624,614.582565 101.823624C617.213959 101.823624,619.737259 100.778137,621.597794 98.917603C623.458328 97.057068,624.503815 94.533768,624.503815 91.902374Z" style="stroke:rgb(0.000000%,0.000000%,0.000000%); stroke-width: 0.500000;stroke-linecap: round;stroke-linejoin: round;stroke-miterlimit: 10.000000;fill: none;"></path>
  <path d="M681.196716 91.902374C681.196716 89.270981,680.151230 86.747681,678.290695 84.887146C676.430161 83.026611,673.906860 81.981125,671.275467 81.981125C668.644073 81.981125,666.120773 83.026611,664.260239 84.887146C662.399704 86.747681,661.354218 89.270981,661.354218 91.902374C661.354218 94.533768,662.399704 97.057068,664.260239 98.917603C666.120773 100.778137,668.644073 101.823624,671.275467 101.823624C673.906860 101.823624,676.430161 100.778137,678.290695 98.917603C680.151230 97.057068,681.196716 94.533768,681.196716 91.902374Z" style="stroke:rgb(0.000000%,0.000000%,0.000000%); stroke-width: 0.500000;stroke-linecap: round;stroke-linejoin: round;stroke-miterlimit: 10.000000;fill: none;"></path>
  <path d="M737.889618 91.902374C737.889618 89.270981,736.844131 86.747681,734.983597 84.887146C733.123062 83.026611,730.599762 81.981125,727.968369 81.981125C725.336975 81.981125,722.813675 83.026611,720.953140 84.887146C719.092606 86.747681,718.047119 89.270981,718.047119 91.902374C718.047119 94.533768,719.092606 97.057068,720.953140 98.917603C722.813675 100.778137,725.336975 101.823624,727.968369 101.823624C730.599762 101.823624,733.123062 100.778137,734.983597 98.917603C736.844131 97.057068,737.889618 94.533768,737.889618 91.902374Z" style="stroke:rgb(0.000000%,0.000000%,0.000000%); stroke-width: 0.500000;stroke-linecap: round;stroke-linejoin: round;stroke-miterlimit: 10.000000;fill: none;"></path>
  <path d="M199.307053 42.804749C199.307053 40.173355,198.261566 37.650055,196.401031 35.789520C194.540497 33.928986,192.017197 32.883499,189.385803 32.883499C186.754410 32.883499,184.231110 33.928986,182.370575 35.789520C180.510040 37.650055,179.464554 40.173355,179.464554 42.804749C179.464554 45.436142,180.510040 47.959442,182.370575 49.819977C184.231110 51.680511,186.754410 52.725998,189.385803 52.725998C192.017197 52.725998,194.540497 51.680511,196.401031 49.819977C198.261566 47.959442,199.307053 45.436142,199.307053 42.804749Z" style="stroke:rgb(0.000000%,0.000000%,0.000000%); stroke-width: 0.500000;stroke-linecap: round;stroke-linejoin: round;stroke-miterlimit: 10.000000;fill: none;"></path>
  <path d="M255.999954 42.804749C255.999954 40.173355,254.954468 37.650055,253.093933 35.789520C251.233398 33.928986,248.710098 32.883499,246.078705 32.883499C243.447311 32.883499,240.924011 33.928986,239.063477 35.789520C237.202942 37.650055,236.157455 40.173355,236.157455 42.804749C236.157455 45.436142,237.202942 47.959442,239.063477 49.819977C240.924011 51.680511,243.447311 52.725998,246.078705 52.725998C248.710098 52.725998,251.233398 51.680511,253.093933 49.819977C254.954468 47.959442,255.999954 45.436142,255.999954 42.804749Z" style="stroke:rgb(0.000000%,0.000000%,0.000000%); stroke-width: 0.500000;stroke-linecap: round;stroke-linejoin: round;stroke-miterlimit: 10.000000;fill: none;"></path>
  <path d="M312.692856 42.804749C312.692856 40.173355,311.647369 37.650055,309.786835 35.789520C307.926300 33.928986,305.403000 32.883499,302.771606 32.883499C300.140213 32.883499,297.616913 33.928986,295.756378 35.789520C293.895844 37.650055,292.850357 40.173355,292.850357 42.804749C292.850357 45.436142,293.895844 47.959442,295.756378 49.819977C297.616913 51.680511,300.140213 52.725998,302.771606 52.725998C305.403000 52.725998,307.926300 51.680511,309.786835 49.819977C311.647369 47.959442,312.692856 45.436142,312.692856 42.804749Z" style="stroke:rgb(0.000000%,0.000000%,0.000000%); stroke-width: 0.500000;stroke-linecap: round;stroke-linejoin: round;stroke-miterlimit: 10.000000;fill: none;"></path>
  <path d="M369.385757 42.804749C369.385757 40.173355,368.340271 37.650055,366.479736 35.789520C364.619202 33.928986,362.095901 32.883499,359.464508 32.883499C356.833115 32.883499,354.309814 33.928986,352.449280 35.789520C350.588745 37.650055,349.543259 40.173355,349.543259 42.804749C349.543259 45.436142,350.588745 47.959442,352.449280 49.819977C354.309814 51.680511,356.833115 52.725998,359.464508 52.725998C362.095901 52.725998,364.619202 51.680511,366.479736 49.819977C368.340271 47.959442,369.385757 45.436142,369.385757 42.804749Z" style="stroke:rgb(0.000000%,0.000000%,0.000000%); stroke-width: 0.500000;stroke-linecap: round;stroke-linejoin: round;stroke-miterlimit: 10.000000;fill: none;"></path>
  <path d="M426.078659 42.804749C426.078659 40.173355,425.033173 37.650055,423.172638 35.789520C421.312103 33.928986,418.788803 32.883499,416.157410 32.883499C413.526016 32.883499,411.002716 33.928986,409.142181 35.789520C407.281647 37.650055,406.236160 40.173355,406.236160 42.804749C406.236160 45.436142,407.281647 47.959442,409.142181 49.819977C411.002716 51.680511,413.526016 52.725998,416.157410 52.725998C418.788803 52.725998,421.312103 51.680511,423.172638 49.819977C425.033173 47.959442,426.078659 45.436142,426.078659 42.804749Z" style="stroke:rgb(0.000000%,0.000000%,0.000000%); stroke-width: 0.500000;stroke-linecap: round;stroke-linejoin: round;stroke-miterlimit: 10.000000;fill: none;"></path>
  <path d="M482.771561 42.804749C482.771561 40.173355,481.726074 37.650055,479.865540 35.789520C478.005005 33.928986,475.481705 32.883499,472.850311 32.883499C470.218918 32.883499,467.695618 33.928986,465.835083 35.789520C463.974548 37.650055,462.929062 40.173355,462.929062 42.804749C462.929062 45.436142,463.974548 47.959442,465.835083 49.819977C467.695618 51.680511,470.218918 52.725998,472.850311 52.725998C475.481705 52.725998,478.005005 51.680511,479.865540 49.819977C481.726074 47.959442,482.771561 45.436142,482.771561 42.804749Z" style="stroke:rgb(0.000000%,0.000000%,0.000000%); stroke-width: 0.500000;stroke-linecap: round;stroke-linejoin: round;stroke-miterlimit: 10.000000;fill: none;"></path>
  <path d="M539.464462 42.804749C539.464462 40.173355,538.418976 37.650055,536.558441 35.789520C534.697906 33.928986,532.174606 32.883499,529.543213 32.883499C526.911819 32.883499,524.388519 33.928986,522.527985 35.789520C520.667450 37.650055,519.621964 40.173355,519.621964 42.804749C519.621964 45.436142,520.667450 47.959442,522.527985 49.819977C524.388519 51.680511,526.911819 52.725998,529.543213 52.725998C532.174606 52.725998,534.697906 51.680511,536.558441 49.819977C538.418976 47.959442,539.464462 45.436142,539.464462 42.804749Z" style="stroke:rgb(0.000000%,0.000000%,0.000000%); stroke-width: 0.500000;stroke-linecap: round;stroke-linejoin: round;stroke-miterlimit: 10.000000;fill: none;"></path>
  <path d="M123.161987 180.199860C123.863800 179.682968,124.458908 179.022659,124.902954 178.253174C125.748993 176.788193,125.978012 175.047470,125.540085 173.413788C125.102783 171.779465,124.033569 170.386505,122.568588 169.541122C121.103592 168.695084,119.362869 168.466064,117.729202 168.903992C116.324463 169.279861,115.098022 170.122589,114.244354 171.282196" style="stroke:rgb(0.000000%,0.000000%,0.000000%); stroke-width: 0.500000;stroke-linecap: round;stroke-linejoin: round;stroke-miterlimit: 10.000000;fill: none;"></path>
  <path d="M114.244339 171.282150C111.219437 169.691193,107.826706 168.837814,104.346451 168.837814C98.708405 168.837814,93.300018 171.077469,89.313156 175.064331C85.326294 179.051193,83.086639 184.459579,83.086639 190.097626C83.086639 195.735672,85.326294 201.144058,89.313156 205.130920C93.300018 209.117783,98.708405 211.357437,104.346451 211.357437C109.984497 211.357437,115.392883 209.117783,119.379745 205.130920C123.366608 201.144058,125.606262 195.735672,125.606262 190.097626C125.606262 186.617462,124.752914 183.224808,123.162048 180.199966" style="stroke:rgb(0.000000%,0.000000%,0.000000%); stroke-width: 0.500000;stroke-linecap: round;stroke-linejoin: round;stroke-miterlimit: 10.000000;fill: none;"></path>
  <path d="M179.854889 180.199860C180.556702 179.682968,181.151810 179.022659,181.595856 178.253174C182.441895 176.788193,182.670914 175.047470,182.232986 173.413788C181.795685 171.779465,180.726471 170.386505,179.261490 169.541122C177.796494 168.695084,176.055771 168.466064,174.422104 168.903992C173.017365 169.279861,171.790924 170.122589,170.937256 171.282196" style="stroke:rgb(0.000000%,0.000000%,0.000000%); stroke-width: 0.500000;stroke-linecap: round;stroke-linejoin: round;stroke-miterlimit: 10.000000;fill: none;"></path>
  <path d="M170.937241 171.282150C167.912338 169.691193,164.519608 168.837814,161.039352 168.837814C155.401306 168.837814,149.992920 171.077469,146.006058 175.064331C142.019196 179.051193,139.779541 184.459579,139.779541 190.097626C139.779541 195.735672,142.019196 201.144058,146.006058 205.130920C149.992920 209.117783,155.401306 211.357437,161.039352 211.357437C166.677399 211.357437,172.085785 209.117783,176.072647 205.130920C180.059509 201.144058,182.299164 195.735672,182.299164 190.097626C182.299164 186.617462,181.445816 183.224808,179.854950 180.199966" style="stroke:rgb(0.000000%,0.000000%,0.000000%); stroke-width: 0.500000;stroke-linecap: round;stroke-linejoin: round;stroke-miterlimit: 10.000000;fill: none;"></path>
  <path d="M236.547791 180.199860C237.249603 179.682968,237.844711 179.022659,238.288757 178.253174C239.134796 176.788193,239.363815 175.047470,238.925888 173.413788C238.488586 171.779465,237.419373 170.386505,235.954391 169.541122C234.489395 168.695084,232.748672 168.466064,231.115005 168.903992C229.710266 169.279861,228.483826 170.122589,227.630157 171.282196" style="stroke:rgb(0.000000%,0.000000%,0.000000%); stroke-width: 0.500000;stroke-linecap: round;stroke-linejoin: round;stroke-miterlimit: 10.000000;fill: none;"></path>
  <path d="M227.630142 171.282150C224.605240 169.691193,221.212509 168.837814,217.732254 168.837814C212.094208 168.837814,206.685822 171.077469,202.698959 175.064331C198.712097 179.051193,196.472443 184.459579,196.472443 190.097626C196.472443 195.735672,198.712097 201.144058,202.698959 205.130920C206.685822 209.117783,212.094208 211.357437,217.732254 211.357437C223.370300 211.357437,228.778687 209.117783,232.765549 205.130920C236.752411 201.144058,238.992065 195.735672,238.992065 190.097626C238.992065 186.617462,238.138718 183.224808,236.547852 180.199966" style="stroke:rgb(0.000000%,0.000000%,0.000000%); stroke-width: 0.500000;stroke-linecap: round;stroke-linejoin: round;stroke-miterlimit: 10.000000;fill: none;"></path>
  <path d="M293.240692 180.199860C293.942505 179.682968,294.537613 179.022659,294.981659 178.253174C295.827698 176.788193,296.056717 175.047470,295.618790 173.413788C295.181488 171.779465,294.112274 170.386505,292.647293 169.541122C291.182297 168.695084,289.441574 168.466064,287.807907 168.903992C286.403168 169.279861,285.176727 170.122589,284.323059 171.282196" style="stroke:rgb(0.000000%,0.000000%,0.000000%); stroke-width: 0.500000;stroke-linecap: round;stroke-linejoin: round;stroke-miterlimit: 10.000000;fill: none;"></path>
  <path d="M284.323044 171.282150C281.298141 169.691193,277.905411 168.837814,274.425156 168.837814C268.787109 168.837814,263.378723 171.077469,259.391861 175.064331C255.404999 179.051193,253.165344 184.459579,253.165344 190.097626C253.165344 195.735672,255.404999 201.144058,259.391861 205.130920C263.378723 209.117783,268.787109 211.357437,274.425156 211.357437C280.063202 211.357437,285.471588 209.117783,289.458450 205.130920C293.445312 201.144058,295.684967 195.735672,295.684967 190.097626C295.684967 186.617462,294.831619 183.224808,293.240753 180.199966" style="stroke:rgb(0.000000%,0.000000%,0.000000%); stroke-width: 0.500000;stroke-linecap: round;stroke-linejoin: round;stroke-miterlimit: 10.000000;fill: none;"></path>
  <path d="M349.933594 180.199860C350.635406 179.682968,351.230515 179.022659,351.674561 178.253174C352.520599 176.788193,352.749619 175.047470,352.311691 173.413788C351.874390 171.779465,350.805176 170.386505,349.340195 169.541122C347.875198 168.695084,346.134476 168.466064,344.500809 168.903992C343.096069 169.279861,341.869629 170.122589,341.015961 171.282196" style="stroke:rgb(0.000000%,0.000000%,0.000000%); stroke-width: 0.500000;stroke-linecap: round;stroke-linejoin: round;stroke-miterlimit: 10.000000;fill: none;"></path>
  <path d="M341.015945 171.282150C337.991043 169.691193,334.598312 168.837814,331.118057 168.837814C325.480011 168.837814,320.071625 171.077469,316.084763 175.064331C312.097900 179.051193,309.858246 184.459579,309.858246 190.097626C309.858246 195.735672,312.097900 201.144058,316.084763 205.130920C320.071625 209.117783,325.480011 211.357437,331.118057 211.357437C336.756104 211.357437,342.164490 209.117783,346.151352 205.130920C350.138214 201.144058,352.377869 195.735672,352.377869 190.097626C352.377869 186.617462,351.524521 183.224808,349.933655 180.199966" style="stroke:rgb(0.000000%,0.000000%,0.000000%); stroke-width: 0.500000;stroke-linecap: round;stroke-linejoin: round;stroke-miterlimit: 10.000000;fill: none;"></path>
  <path d="M406.626495 180.199860C407.328308 179.682968,407.923416 179.022659,408.367462 178.253174C409.213501 176.788193,409.442520 175.047470,409.004593 173.413788C408.567291 171.779465,407.498077 170.386505,406.033096 169.541122C404.568100 168.695084,402.827377 168.466064,401.193710 168.903992C399.788971 169.279861,398.562531 170.122589,397.708862 171.282196" style="stroke:rgb(0.000000%,0.000000%,0.000000%); stroke-width: 0.500000;stroke-linecap: round;stroke-linejoin: round;stroke-miterlimit: 10.000000;fill: none;"></path>
  <path d="M397.708847 171.282150C394.683945 169.691193,391.291214 168.837814,387.810959 168.837814C382.172913 168.837814,376.764526 171.077469,372.777664 175.064331C368.790802 179.051193,366.551147 184.459579,366.551147 190.097626C366.551147 195.735672,368.790802 201.144058,372.777664 205.130920C376.764526 209.117783,382.172913 211.357437,387.810959 211.357437C393.449005 211.357437,398.857391 209.117783,402.844254 205.130920C406.831116 201.144058,409.070770 195.735672,409.070770 190.097626C409.070770 186.617462,408.217422 183.224808,406.626556 180.199966" style="stroke:rgb(0.000000%,0.000000%,0.000000%); stroke-width: 0.500000;stroke-linecap: round;stroke-linejoin: round;stroke-miterlimit: 10.000000;fill: none;"></path>
  <path d="M463.319397 180.199860C464.021210 179.682968,464.616318 179.022659,465.060364 178.253174C465.906403 176.788193,466.135422 175.047470,465.697495 173.413788C465.260193 171.779465,464.190979 170.386505,462.725998 169.541122C461.261002 168.695084,459.520279 168.466064,457.886612 168.903992C456.481873 169.279861,455.255432 170.122589,454.401764 171.282196" style="stroke:rgb(0.000000%,0.000000%,0.000000%); stroke-width: 0.500000;stroke-linecap: round;stroke-linejoin: round;stroke-miterlimit: 10.000000;fill: none;"></path>
  <path d="M454.401749 171.282150C451.376846 169.691193,447.984116 168.837814,444.503860 168.837814C438.865814 168.837814,433.457428 171.077469,429.470566 175.064331C425.483704 179.051193,423.244049 184.459579,423.244049 190.097626C423.244049 195.735672,425.483704 201.144058,429.470566 205.130920C433.457428 209.117783,438.865814 211.357437,444.503860 211.357437C450.141907 211.357437,455.550293 209.117783,459.537155 205.130920C463.524017 201.144058,465.763672 195.735672,465.763672 190.097626C465.763672 186.617462,464.910324 183.224808,463.319458 180.199966" style="stroke:rgb(0.000000%,0.000000%,0.000000%); stroke-width: 0.500000;stroke-linecap: round;stroke-linejoin: round;stroke-miterlimit: 10.000000;fill: none;"></path>
  <path d="M520.012299 180.199860C520.714111 179.682968,521.309219 179.022659,521.753265 178.253174C522.599304 176.788193,522.828323 175.047470,522.390396 173.413788C521.953094 171.779465,520.883881 170.386505,519.418900 169.541122C517.953903 168.695084,516.213181 168.466064,514.579514 168.903992C513.174774 169.279861,511.948334 170.122589,511.094666 171.282196" style="stroke:rgb(0.000000%,0.000000%,0.000000%); stroke-width: 0.500000;stroke-linecap: round;stroke-linejoin: round;stroke-miterlimit: 10.000000;fill: none;"></path>
  <path d="M511.094650 171.282150C508.069748 169.691193,504.677017 168.837814,501.196762 168.837814C495.558716 168.837814,490.150330 171.077469,486.163467 175.064331C482.176605 179.051193,479.936951 184.459579,479.936951 190.097626C479.936951 195.735672,482.176605 201.144058,486.163467 205.130920C490.150330 209.117783,495.558716 211.357437,501.196762 211.357437C506.834808 211.357437,512.243195 209.117783,516.230057 205.130920C520.216919 201.144058,522.456573 195.735672,522.456573 190.097626C522.456573 186.617462,521.603226 183.224808,520.012360 180.199966" style="stroke:rgb(0.000000%,0.000000%,0.000000%); stroke-width: 0.500000;stroke-linecap: round;stroke-linejoin: round;stroke-miterlimit: 10.000000;fill: none;"></path>
  <path d="M576.705200 180.199860C577.407013 179.682968,578.002121 179.022659,578.446167 178.253174C579.292206 176.788193,579.521225 175.047470,579.083298 173.413788C578.645996 171.779465,577.576782 170.386505,576.111801 169.541122C574.646805 168.695084,572.906082 168.466064,571.272415 168.903992C569.867676 169.279861,568.641235 170.122589,567.787567 171.282196" style="stroke:rgb(0.000000%,0.000000%,0.000000%); stroke-width: 0.500000;stroke-linecap: round;stroke-linejoin: round;stroke-miterlimit: 10.000000;fill: none;"></path>
  <path d="M567.787552 171.282150C564.762650 169.691193,561.369919 168.837814,557.889664 168.837814C552.251617 168.837814,546.843231 171.077469,542.856369 175.064331C538.869507 179.051193,536.629852 184.459579,536.629852 190.097626C536.629852 195.735672,538.869507 201.144058,542.856369 205.130920C546.843231 209.117783,552.251617 211.357437,557.889664 211.357437C563.527710 211.357437,568.936096 209.117783,572.922958 205.130920C576.909821 201.144058,579.149475 195.735672,579.149475 190.097626C579.149475 186.617462,578.296127 183.224808,576.705261 180.199966" style="stroke:rgb(0.000000%,0.000000%,0.000000%); stroke-width: 0.500000;stroke-linecap: round;stroke-linejoin: round;stroke-miterlimit: 10.000000;fill: none;"></path>
  <path d="M633.398102 180.199860C634.099915 179.682968,634.695023 179.022659,635.139069 178.253174C635.985107 176.788193,636.214127 175.047470,635.776199 173.413788C635.338898 171.779465,634.269684 170.386505,632.804703 169.541122C631.339706 168.695084,629.598984 168.466064,627.965317 168.903992C626.560577 169.279861,625.334137 170.122589,624.480469 171.282196" style="stroke:rgb(0.000000%,0.000000%,0.000000%); stroke-width: 0.500000;stroke-linecap: round;stroke-linejoin: round;stroke-miterlimit: 10.000000;fill: none;"></path>
  <path d="M624.480453 171.282150C621.455551 169.691193,618.062820 168.837814,614.582565 168.837814C608.944519 168.837814,603.536133 171.077469,599.549271 175.064331C595.562408 179.051193,593.322754 184.459579,593.322754 190.097626C593.322754 195.735672,595.562408 201.144058,599.549271 205.130920C603.536133 209.117783,608.944519 211.357437,614.582565 211.357437C620.220612 211.357437,625.628998 209.117783,629.615860 205.130920C633.602722 201.144058,635.842377 195.735672,635.842377 190.097626C635.842377 186.617462,634.989029 183.224808,633.398163 180.199966" style="stroke:rgb(0.000000%,0.000000%,0.000000%); stroke-width: 0.500000;stroke-linecap: round;stroke-linejoin: round;stroke-miterlimit: 10.000000;fill: none;"></path>
  <path d="M690.091003 180.199860C690.792816 179.682968,691.387924 179.022659,691.831970 178.253174C692.678009 176.788193,692.907028 175.047470,692.469101 173.413788C692.031799 171.779465,690.962585 170.386505,689.497604 169.541122C688.032608 168.695084,686.291885 168.466064,684.658218 168.903992C683.253479 169.279861,682.027039 170.122589,681.173370 171.282196" style="stroke:rgb(0.000000%,0.000000%,0.000000%); stroke-width: 0.500000;stroke-linecap: round;stroke-linejoin: round;stroke-miterlimit: 10.000000;fill: none;"></path>
  <path d="M681.173355 171.282150C678.148453 169.691193,674.755722 168.837814,671.275467 168.837814C665.637421 168.837814,660.229034 171.077469,656.242172 175.064331C652.255310 179.051193,650.015656 184.459579,650.015656 190.097626C650.015656 195.735672,652.255310 201.144058,656.242172 205.130920C660.229034 209.117783,665.637421 211.357437,671.275467 211.357437C676.913513 211.357437,682.321899 209.117783,686.308762 205.130920C690.295624 201.144058,692.535278 195.735672,692.535278 190.097626C692.535278 186.617462,691.681931 183.224808,690.091064 180.199966" style="stroke:rgb(0.000000%,0.000000%,0.000000%); stroke-width: 0.500000;stroke-linecap: round;stroke-linejoin: round;stroke-miterlimit: 10.000000;fill: none;"></path>
  <path d="M746.783905 180.199860C747.485718 179.682968,748.080826 179.022659,748.524872 178.253174C749.370911 176.788193,749.599930 175.047470,749.162003 173.413788C748.724701 171.779465,747.655487 170.386505,746.190506 169.541122C744.725510 168.695084,742.984787 168.466064,741.351120 168.903992C739.946381 169.279861,738.719940 170.122589,737.866272 171.282196" style="stroke:rgb(0.000000%,0.000000%,0.000000%); stroke-width: 0.500000;stroke-linecap: round;stroke-linejoin: round;stroke-miterlimit: 10.000000;fill: none;"></path>
  <path d="M737.866257 171.282150C734.841354 169.691193,731.448624 168.837814,727.968369 168.837814C722.330322 168.837814,716.921936 171.077469,712.935074 175.064331C708.948212 179.051193,706.708557 184.459579,706.708557 190.097626C706.708557 195.735672,708.948212 201.144058,712.935074 205.130920C716.921936 209.117783,722.330322 211.357437,727.968369 211.357437C733.606415 211.357437,739.014801 209.117783,743.001663 205.130920C746.988525 201.144058,749.228180 195.735672,749.228180 190.097626C749.228180 186.617462,748.374832 183.224808,746.783966 180.199966" style="stroke:rgb(0.000000%,0.000000%,0.000000%); stroke-width: 0.500000;stroke-linecap: round;stroke-linejoin: round;stroke-miterlimit: 10.000000;fill: none;"></path>
  <path d="M94.815536 131.102234C95.517349 130.585342,96.112457 129.925034,96.556503 129.155548C97.402542 127.690567,97.631561 125.949844,97.193634 124.316162C96.756332 122.681839,95.687119 121.288879,94.222137 120.443497C92.757141 119.597458,91.016418 119.368439,89.382751 119.806366C87.978012 120.182236,86.751572 121.024963,85.897903 122.184570" style="stroke:rgb(0.000000%,0.000000%,0.000000%); stroke-width: 0.500000;stroke-linecap: round;stroke-linejoin: round;stroke-miterlimit: 10.000000;fill: none;"></path>
  <path d="M85.897888 122.184525C82.872986 120.593567,79.480255 119.740189,76.000000 119.740189C70.361954 119.740189,64.953568 121.979843,60.966705 125.966705C56.979843 129.953568,54.740189 135.361954,54.740189 141.000000C54.740189 146.638046,56.979843 152.046432,60.966705 156.033295C64.953568 160.020157,70.361954 162.259811,76.000000 162.259811C81.638046 162.259811,87.046432 160.020157,91.033295 156.033295C95.020157 152.046432,97.259811 146.638046,97.259811 141.000000C97.259811 137.519836,96.406464 134.127182,94.815598 131.102341" style="stroke:rgb(0.000000%,0.000000%,0.000000%); stroke-width: 0.500000;stroke-linecap: round;stroke-linejoin: round;stroke-miterlimit: 10.000000;fill: none;"></path>
  <path d="M151.508438 131.102234C152.210251 130.585342,152.805359 129.925034,153.249405 129.155548C154.095444 127.690567,154.324463 125.949844,153.886536 124.316162C153.449234 122.681839,152.380020 121.288879,150.915039 120.443497C149.450043 119.597458,147.709320 119.368439,146.075653 119.806366C144.670914 120.182236,143.444473 121.024963,142.590805 122.184570" style="stroke:rgb(0.000000%,0.000000%,0.000000%); stroke-width: 0.500000;stroke-linecap: round;stroke-linejoin: round;stroke-miterlimit: 10.000000;fill: none;"></path>
  <path d="M142.590790 122.184525C139.565887 120.593567,136.173157 119.740189,132.692902 119.740189C127.054855 119.740189,121.646469 121.979843,117.659607 125.966705C113.672745 129.953568,111.433090 135.361954,111.433090 141.000000C111.433090 146.638046,113.672745 152.046432,117.659607 156.033295C121.646469 160.020157,127.054855 162.259811,132.692902 162.259811C138.330948 162.259811,143.739334 160.020157,147.726196 156.033295C151.713058 152.046432,153.952713 146.638046,153.952713 141.000000C153.952713 137.519836,153.099365 134.127182,151.508499 131.102341" style="stroke:rgb(0.000000%,0.000000%,0.000000%); stroke-width: 0.500000;stroke-linecap: round;stroke-linejoin: round;stroke-miterlimit: 10.000000;fill: none;"></path>
  <path d="M208.201340 131.102234C208.903152 130.585342,209.498260 129.925034,209.942307 129.155548C210.788345 127.690567,211.017365 125.949844,210.579437 124.316162C210.142136 122.681839,209.072922 121.288879,207.607941 120.443497C206.142944 119.597458,204.402222 119.368439,202.768555 119.806366C201.363815 120.182236,200.137375 121.024963,199.283707 122.184570" style="stroke:rgb(0.000000%,0.000000%,0.000000%); stroke-width: 0.500000;stroke-linecap: round;stroke-linejoin: round;stroke-miterlimit: 10.000000;fill: none;"></path>
  <path d="M199.283691 122.184525C196.258789 120.593567,192.866058 119.740189,189.385803 119.740189C183.747757 119.740189,178.339371 121.979843,174.352509 125.966705C170.365646 129.953568,168.125992 135.361954,168.125992 141.000000C168.125992 146.638046,170.365646 152.046432,174.352509 156.033295C178.339371 160.020157,183.747757 162.259811,189.385803 162.259811C195.023849 162.259811,200.432236 160.020157,204.419098 156.033295C208.405960 152.046432,210.645615 146.638046,210.645615 141.000000C210.645615 137.519836,209.792267 134.127182,208.201401 131.102341" style="stroke:rgb(0.000000%,0.000000%,0.000000%); stroke-width: 0.500000;stroke-linecap: round;stroke-linejoin: round;stroke-miterlimit: 10.000000;fill: none;"></path>
  <path d="M264.894241 131.102234C265.596054 130.585342,266.191162 129.925034,266.635208 129.155548C267.481247 127.690567,267.710266 125.949844,267.272339 124.316162C266.835037 122.681839,265.765823 121.288879,264.300842 120.443497C262.835846 119.597458,261.095123 119.368439,259.461456 119.806366C258.056717 120.182236,256.830276 121.024963,255.976608 122.184570" style="stroke:rgb(0.000000%,0.000000%,0.000000%); stroke-width: 0.500000;stroke-linecap: round;stroke-linejoin: round;stroke-miterlimit: 10.000000;fill: none;"></path>
  <path d="M255.976593 122.184525C252.951691 120.593567,249.558960 119.740189,246.078705 119.740189C240.440659 119.740189,235.032272 121.979843,231.045410 125.966705C227.058548 129.953568,224.818893 135.361954,224.818893 141.000000C224.818893 146.638046,227.058548 152.046432,231.045410 156.033295C235.032272 160.020157,240.440659 162.259811,246.078705 162.259811C251.716751 162.259811,257.125137 160.020157,261.112000 156.033295C265.098862 152.046432,267.338516 146.638046,267.338516 141.000000C267.338516 137.519836,266.485168 134.127182,264.894302 131.102341" style="stroke:rgb(0.000000%,0.000000%,0.000000%); stroke-width: 0.500000;stroke-linecap: round;stroke-linejoin: round;stroke-miterlimit: 10.000000;fill: none;"></path>
  <path d="M321.587143 131.102234C322.288956 130.585342,322.884064 129.925034,323.328110 129.155548C324.174149 127.690567,324.403168 125.949844,323.965240 124.316162C323.527939 122.681839,322.458725 121.288879,320.993744 120.443497C319.528748 119.597458,317.788025 119.368439,316.154358 119.806366C314.749619 120.182236,313.523178 121.024963,312.669510 122.184570" style="stroke:rgb(0.000000%,0.000000%,0.000000%); stroke-width: 0.500000;stroke-linecap: round;stroke-linejoin: round;stroke-miterlimit: 10.000000;fill: none;"></path>
  <path d="M312.669495 122.184525C309.644592 120.593567,306.251862 119.740189,302.771606 119.740189C297.133560 119.740189,291.725174 121.979843,287.738312 125.966705C283.751450 129.953568,281.511795 135.361954,281.511795 141.000000C281.511795 146.638046,283.751450 152.046432,287.738312 156.033295C291.725174 160.020157,297.133560 162.259811,302.771606 162.259811C308.409653 162.259811,313.818039 160.020157,317.804901 156.033295C321.791763 152.046432,324.031418 146.638046,324.031418 141.000000C324.031418 137.519836,323.178070 134.127182,321.587204 131.102341" style="stroke:rgb(0.000000%,0.000000%,0.000000%); stroke-width: 0.500000;stroke-linecap: round;stroke-linejoin: round;stroke-miterlimit: 10.000000;fill: none;"></path>
  <path d="M378.280045 131.102234C378.981857 130.585342,379.576965 129.925034,380.021011 129.155548C380.867050 127.690567,381.096069 125.949844,380.658142 124.316162C380.220840 122.681839,379.151627 121.288879,377.686646 120.443497C376.221649 119.597458,374.480927 119.368439,372.847260 119.806366C371.442520 120.182236,370.216080 121.024963,369.362411 122.184570" style="stroke:rgb(0.000000%,0.000000%,0.000000%); stroke-width: 0.500000;stroke-linecap: round;stroke-linejoin: round;stroke-miterlimit: 10.000000;fill: none;"></path>
  <path d="M369.362396 122.184525C366.337494 120.593567,362.944763 119.740189,359.464508 119.740189C353.826462 119.740189,348.418076 121.979843,344.431213 125.966705C340.444351 129.953568,338.204697 135.361954,338.204697 141.000000C338.204697 146.638046,340.444351 152.046432,344.431213 156.033295C348.418076 160.020157,353.826462 162.259811,359.464508 162.259811C365.102554 162.259811,370.510941 160.020157,374.497803 156.033295C378.484665 152.046432,380.724319 146.638046,380.724319 141.000000C380.724319 137.519836,379.870972 134.127182,378.280106 131.102341" style="stroke:rgb(0.000000%,0.000000%,0.000000%); stroke-width: 0.500000;stroke-linecap: round;stroke-linejoin: round;stroke-miterlimit: 10.000000;fill: none;"></path>
  <path d="M434.972946 131.102234C435.674759 130.585342,436.269867 129.925034,436.713913 129.155548C437.559952 127.690567,437.788971 125.949844,437.351044 124.316162C436.913742 122.681839,435.844528 121.288879,434.379547 120.443497C432.914551 119.597458,431.173828 119.368439,429.540161 119.806366C428.135422 120.182236,426.908981 121.024963,426.055313 122.184570" style="stroke:rgb(0.000000%,0.000000%,0.000000%); stroke-width: 0.500000;stroke-linecap: round;stroke-linejoin: round;stroke-miterlimit: 10.000000;fill: none;"></path>
  <path d="M426.055298 122.184525C423.030396 120.593567,419.637665 119.740189,416.157410 119.740189C410.519363 119.740189,405.110977 121.979843,401.124115 125.966705C397.137253 129.953568,394.897598 135.361954,394.897598 141.000000C394.897598 146.638046,397.137253 152.046432,401.124115 156.033295C405.110977 160.020157,410.519363 162.259811,416.157410 162.259811C421.795456 162.259811,427.203842 160.020157,431.190704 156.033295C435.177567 152.046432,437.417221 146.638046,437.417221 141.000000C437.417221 137.519836,436.563873 134.127182,434.973007 131.102341" style="stroke:rgb(0.000000%,0.000000%,0.000000%); stroke-width: 0.500000;stroke-linecap: round;stroke-linejoin: round;stroke-miterlimit: 10.000000;fill: none;"></path>
  <path d="M491.665848 131.102234C492.367661 130.585342,492.962769 129.925034,493.406815 129.155548C494.252853 127.690567,494.481873 125.949844,494.043945 124.316162C493.606644 122.681839,492.537430 121.288879,491.072449 120.443497C489.607452 119.597458,487.866730 119.368439,486.233063 119.806366C484.828323 120.182236,483.601883 121.024963,482.748215 122.184570" style="stroke:rgb(0.000000%,0.000000%,0.000000%); stroke-width: 0.500000;stroke-linecap: round;stroke-linejoin: round;stroke-miterlimit: 10.000000;fill: none;"></path>
  <path d="M482.748199 122.184525C479.723297 120.593567,476.330566 119.740189,472.850311 119.740189C467.212265 119.740189,461.803879 121.979843,457.817017 125.966705C453.830154 129.953568,451.590500 135.361954,451.590500 141.000000C451.590500 146.638046,453.830154 152.046432,457.817017 156.033295C461.803879 160.020157,467.212265 162.259811,472.850311 162.259811C478.488358 162.259811,483.896744 160.020157,487.883606 156.033295C491.870468 152.046432,494.110123 146.638046,494.110123 141.000000C494.110123 137.519836,493.256775 134.127182,491.665909 131.102341" style="stroke:rgb(0.000000%,0.000000%,0.000000%); stroke-width: 0.500000;stroke-linecap: round;stroke-linejoin: round;stroke-miterlimit: 10.000000;fill: none;"></path>
  <path d="M548.358749 131.102234C549.060562 130.585342,549.655670 129.925034,550.099716 129.155548C550.945755 127.690567,551.174774 125.949844,550.736847 124.316162C550.299545 122.681839,549.230331 121.288879,547.765350 120.443497C546.300354 119.597458,544.559631 119.368439,542.925964 119.806366C541.521225 120.182236,540.294785 121.024963,539.441116 122.184570" style="stroke:rgb(0.000000%,0.000000%,0.000000%); stroke-width: 0.500000;stroke-linecap: round;stroke-linejoin: round;stroke-miterlimit: 10.000000;fill: none;"></path>
  <path d="M539.441101 122.184525C536.416199 120.593567,533.023468 119.740189,529.543213 119.740189C523.905167 119.740189,518.496780 121.979843,514.509918 125.966705C510.523056 129.953568,508.283401 135.361954,508.283401 141.000000C508.283401 146.638046,510.523056 152.046432,514.509918 156.033295C518.496780 160.020157,523.905167 162.259811,529.543213 162.259811C535.181259 162.259811,540.589645 160.020157,544.576508 156.033295C548.563370 152.046432,550.803024 146.638046,550.803024 141.000000C550.803024 137.519836,549.949677 134.127182,548.358810 131.102341" style="stroke:rgb(0.000000%,0.000000%,0.000000%); stroke-width: 0.500000;stroke-linecap: round;stroke-linejoin: round;stroke-miterlimit: 10.000000;fill: none;"></path>
  <path d="M605.051651 131.102234C605.753464 130.585342,606.348572 129.925034,606.792618 129.155548C607.638657 127.690567,607.867676 125.949844,607.429749 124.316162C606.992447 122.681839,605.923233 121.288879,604.458252 120.443497C602.993256 119.597458,601.252533 119.368439,599.618866 119.806366C598.214127 120.182236,596.987686 121.024963,596.134018 122.184570" style="stroke:rgb(0.000000%,0.000000%,0.000000%); stroke-width: 0.500000;stroke-linecap: round;stroke-linejoin: round;stroke-miterlimit: 10.000000;fill: none;"></path>
  <path d="M596.134003 122.184525C593.109100 120.593567,589.716370 119.740189,586.236115 119.740189C580.598068 119.740189,575.189682 121.979843,571.202820 125.966705C567.215958 129.953568,564.976303 135.361954,564.976303 141.000000C564.976303 146.638046,567.215958 152.046432,571.202820 156.033295C575.189682 160.020157,580.598068 162.259811,586.236115 162.259811C591.874161 162.259811,597.282547 160.020157,601.269409 156.033295C605.256271 152.046432,607.495926 146.638046,607.495926 141.000000C607.495926 137.519836,606.642578 134.127182,605.051712 131.102341" style="stroke:rgb(0.000000%,0.000000%,0.000000%); stroke-width: 0.500000;stroke-linecap: round;stroke-linejoin: round;stroke-miterlimit: 10.000000;fill: none;"></path>
  <path d="M661.744553 131.102234C662.446365 130.585342,663.041473 129.925034,663.485519 129.155548C664.331558 127.690567,664.560577 125.949844,664.122650 124.316162C663.685349 122.681839,662.616135 121.288879,661.151154 120.443497C659.686157 119.597458,657.945435 119.368439,656.311768 119.806366C654.907028 120.182236,653.680588 121.024963,652.826920 122.184570" style="stroke:rgb(0.000000%,0.000000%,0.000000%); stroke-width: 0.500000;stroke-linecap: round;stroke-linejoin: round;stroke-miterlimit: 10.000000;fill: none;"></path>
  <path d="M652.826904 122.184525C649.802002 120.593567,646.409271 119.740189,642.929016 119.740189C637.290970 119.740189,631.882584 121.979843,627.895721 125.966705C623.908859 129.953568,621.669205 135.361954,621.669205 141.000000C621.669205 146.638046,623.908859 152.046432,627.895721 156.033295C631.882584 160.020157,637.290970 162.259811,642.929016 162.259811C648.567062 162.259811,653.975449 160.020157,657.962311 156.033295C661.949173 152.046432,664.188828 146.638046,664.188828 141.000000C664.188828 137.519836,663.335480 134.127182,661.744614 131.102341" style="stroke:rgb(0.000000%,0.000000%,0.000000%); stroke-width: 0.500000;stroke-linecap: round;stroke-linejoin: round;stroke-miterlimit: 10.000000;fill: none;"></path>
  <path d="M718.437454 131.102234C719.139267 130.585342,719.734375 129.925034,720.178421 129.155548C721.024460 127.690567,721.253479 125.949844,720.815552 124.316162C720.378250 122.681839,719.309036 121.288879,717.844055 120.443497C716.379059 119.597458,714.638336 119.368439,713.004669 119.806366C711.599930 120.182236,710.373489 121.024963,709.519821 122.184570" style="stroke:rgb(0.000000%,0.000000%,0.000000%); stroke-width: 0.500000;stroke-linecap: round;stroke-linejoin: round;stroke-miterlimit: 10.000000;fill: none;"></path>
  <path d="M709.519806 122.184525C706.494904 120.593567,703.102173 119.740189,699.621918 119.740189C693.983871 119.740189,688.575485 121.979843,684.588623 125.966705C680.601761 129.953568,678.362106 135.361954,678.362106 141.000000C678.362106 146.638046,680.601761 152.046432,684.588623 156.033295C688.575485 160.020157,693.983871 162.259811,699.621918 162.259811C705.259964 162.259811,710.668350 160.020157,714.655212 156.033295C718.642075 152.046432,720.881729 146.638046,720.881729 141.000000C720.881729 137.519836,720.028381 134.127182,718.437515 131.102341" style="stroke:rgb(0.000000%,0.000000%,0.000000%); stroke-width: 0.500000;stroke-linecap: round;stroke-linejoin: round;stroke-miterlimit: 10.000000;fill: none;"></path>
  <path d="M775.130356 131.102234C775.832169 130.585342,776.427277 129.925034,776.871323 129.155548C777.717361 127.690567,777.946381 125.949844,777.508453 124.316162C777.071152 122.681839,776.001938 121.288879,774.536957 120.443497C773.071960 119.597458,771.331238 119.368439,769.697571 119.806366C768.292831 120.182236,767.066391 121.024963,766.212723 122.184570" style="stroke:rgb(0.000000%,0.000000%,0.000000%); stroke-width: 0.500000;stroke-linecap: round;stroke-linejoin: round;stroke-miterlimit: 10.000000;fill: none;"></path>
  <path d="M766.212708 122.184525C763.187805 120.593567,759.795074 119.740189,756.314819 119.740189C750.676773 119.740189,745.268387 121.979843,741.281525 125.966705C737.294662 129.953568,735.055008 135.361954,735.055008 141.000000C735.055008 146.638046,737.294662 152.046432,741.281525 156.033295C745.268387 160.020157,750.676773 162.259811,756.314819 162.259811C761.952866 162.259811,767.361252 160.020157,771.348114 156.033295C775.334976 152.046432,777.574631 146.638046,777.574631 141.000000C777.574631 137.519836,776.721283 134.127182,775.130417 131.102341" style="stroke:rgb(0.000000%,0.000000%,0.000000%); stroke-width: 0.500000;stroke-linecap: round;stroke-linejoin: round;stroke-miterlimit: 10.000000;fill: none;"></path>
  <path d="M123.161987 82.004608C123.863800 81.487717,124.458908 80.827408,124.902954 80.057922C125.748993 78.592941,125.978012 76.852219,125.540085 75.218536C125.102783 73.584213,124.033569 72.191254,122.568588 71.345871C121.103592 70.499832,119.362869 70.270813,117.729202 70.708740C116.324463 71.084610,115.098022 71.927338,114.244354 73.086945" style="stroke:rgb(0.000000%,0.000000%,0.000000%); stroke-width: 0.500000;stroke-linecap: round;stroke-linejoin: round;stroke-miterlimit: 10.000000;fill: none;"></path>
  <path d="M114.244339 73.086899C111.219437 71.495941,107.826706 70.642563,104.346451 70.642563C98.708405 70.642563,93.300018 72.882217,89.313156 76.869080C85.326294 80.855942,83.086639 86.264328,83.086639 91.902374C83.086639 97.540421,85.326294 102.948807,89.313156 106.935669C93.300018 110.922531,98.708405 113.162186,104.346451 113.162186C109.984497 113.162186,115.392883 110.922531,119.379745 106.935669C123.366608 102.948807,125.606262 97.540421,125.606262 91.902374C125.606262 88.422211,124.752914 85.029556,123.162048 82.004715" style="stroke:rgb(0.000000%,0.000000%,0.000000%); stroke-width: 0.500000;stroke-linecap: round;stroke-linejoin: round;stroke-miterlimit: 10.000000;fill: none;"></path>
  <path d="M179.854889 82.004608C180.556702 81.487717,181.151810 80.827408,181.595856 80.057922C182.441895 78.592941,182.670914 76.852219,182.232986 75.218536C181.795685 73.584213,180.726471 72.191254,179.261490 71.345871C177.796494 70.499832,176.055771 70.270813,174.422104 70.708740C173.017365 71.084610,171.790924 71.927338,170.937256 73.086945" style="stroke:rgb(0.000000%,0.000000%,0.000000%); stroke-width: 0.500000;stroke-linecap: round;stroke-linejoin: round;stroke-miterlimit: 10.000000;fill: none;"></path>
  <path d="M170.937241 73.086899C167.912338 71.495941,164.519608 70.642563,161.039352 70.642563C155.401306 70.642563,149.992920 72.882217,146.006058 76.869080C142.019196 80.855942,139.779541 86.264328,139.779541 91.902374C139.779541 97.540421,142.019196 102.948807,146.006058 106.935669C149.992920 110.922531,155.401306 113.162186,161.039352 113.162186C166.677399 113.162186,172.085785 110.922531,176.072647 106.935669C180.059509 102.948807,182.299164 97.540421,182.299164 91.902374C182.299164 88.422211,181.445816 85.029556,179.854950 82.004715" style="stroke:rgb(0.000000%,0.000000%,0.000000%); stroke-width: 0.500000;stroke-linecap: round;stroke-linejoin: round;stroke-miterlimit: 10.000000;fill: none;"></path>
  <path d="M236.547791 82.004608C237.249603 81.487717,237.844711 80.827408,238.288757 80.057922C239.134796 78.592941,239.363815 76.852219,238.925888 75.218536C238.488586 73.584213,237.419373 72.191254,235.954391 71.345871C234.489395 70.499832,232.748672 70.270813,231.115005 70.708740C229.710266 71.084610,228.483826 71.927338,227.630157 73.086945" style="stroke:rgb(0.000000%,0.000000%,0.000000%); stroke-width: 0.500000;stroke-linecap: round;stroke-linejoin: round;stroke-miterlimit: 10.000000;fill: none;"></path>
  <path d="M227.630142 73.086899C224.605240 71.495941,221.212509 70.642563,217.732254 70.642563C212.094208 70.642563,206.685822 72.882217,202.698959 76.869080C198.712097 80.855942,196.472443 86.264328,196.472443 91.902374C196.472443 97.540421,198.712097 102.948807,202.698959 106.935669C206.685822 110.922531,212.094208 113.162186,217.732254 113.162186C223.370300 113.162186,228.778687 110.922531,232.765549 106.935669C236.752411 102.948807,238.992065 97.540421,238.992065 91.902374C238.992065 88.422211,238.138718 85.029556,236.547852 82.004715" style="stroke:rgb(0.000000%,0.000000%,0.000000%); stroke-width: 0.500000;stroke-linecap: round;stroke-linejoin: round;stroke-miterlimit: 10.000000;fill: none;"></path>
  <path d="M293.240692 82.004608C293.942505 81.487717,294.537613 80.827408,294.981659 80.057922C295.827698 78.592941,296.056717 76.852219,295.618790 75.218536C295.181488 73.584213,294.112274 72.191254,292.647293 71.345871C291.182297 70.499832,289.441574 70.270813,287.807907 70.708740C286.403168 71.084610,285.176727 71.927338,284.323059 73.086945" style="stroke:rgb(0.000000%,0.000000%,0.000000%); stroke-width: 0.500000;stroke-linecap: round;stroke-linejoin: round;stroke-miterlimit: 10.000000;fill: none;"></path>
  <path d="M284.323044 73.086899C281.298141 71.495941,277.905411 70.642563,274.425156 70.642563C268.787109 70.642563,263.378723 72.882217,259.391861 76.869080C255.404999 80.855942,253.165344 86.264328,253.165344 91.902374C253.165344 97.540421,255.404999 102.948807,259.391861 106.935669C263.378723 110.922531,268.787109 113.162186,274.425156 113.162186C280.063202 113.162186,285.471588 110.922531,289.458450 106.935669C293.445312 102.948807,295.684967 97.540421,295.684967 91.902374C295.684967 88.422211,294.831619 85.029556,293.240753 82.004715" style="stroke:rgb(0.000000%,0.000000%,0.000000%); stroke-width: 0.500000;stroke-linecap: round;stroke-linejoin: round;stroke-miterlimit: 10.000000;fill: none;"></path>
  <path d="M349.933594 82.004608C350.635406 81.487717,351.230515 80.827408,351.674561 80.057922C352.520599 78.592941,352.749619 76.852219,352.311691 75.218536C351.874390 73.584213,350.805176 72.191254,349.340195 71.345871C347.875198 70.499832,346.134476 70.270813,344.500809 70.708740C343.096069 71.084610,341.869629 71.927338,341.015961 73.086945" style="stroke:rgb(0.000000%,0.000000%,0.000000%); stroke-width: 0.500000;stroke-linecap: round;stroke-linejoin: round;stroke-miterlimit: 10.000000;fill: none;"></path>
  <path d="M341.015945 73.086899C337.991043 71.495941,334.598312 70.642563,331.118057 70.642563C325.480011 70.642563,320.071625 72.882217,316.084763 76.869080C312.097900 80.855942,309.858246 86.264328,309.858246 91.902374C309.858246 97.540421,312.097900 102.948807,316.084763 106.935669C320.071625 110.922531,325.480011 113.162186,331.118057 113.162186C336.756104 113.162186,342.164490 110.922531,346.151352 106.935669C350.138214 102.948807,352.377869 97.540421,352.377869 91.902374C352.377869 88.422211,351.524521 85.029556,349.933655 82.004715" style="stroke:rgb(0.000000%,0.000000%,0.000000%); stroke-width: 0.500000;stroke-linecap: round;stroke-linejoin: round;stroke-miterlimit: 10.000000;fill: none;"></path>
  <path d="M406.626495 82.004608C407.328308 81.487717,407.923416 80.827408,408.367462 80.057922C409.213501 78.592941,409.442520 76.852219,409.004593 75.218536C408.567291 73.584213,407.498077 72.191254,406.033096 71.345871C404.568100 70.499832,402.827377 70.270813,401.193710 70.708740C399.788971 71.084610,398.562531 71.927338,397.708862 73.086945" style="stroke:rgb(0.000000%,0.000000%,0.000000%); stroke-width: 0.500000;stroke-linecap: round;stroke-linejoin: round;stroke-miterlimit: 10.000000;fill: none;"></path>
  <path d="M397.708847 73.086899C394.683945 71.495941,391.291214 70.642563,387.810959 70.642563C382.172913 70.642563,376.764526 72.882217,372.777664 76.869080C368.790802 80.855942,366.551147 86.264328,366.551147 91.902374C366.551147 97.540421,368.790802 102.948807,372.777664 106.935669C376.764526 110.922531,382.172913 113.162186,387.810959 113.162186C393.449005 113.162186,398.857391 110.922531,402.844254 106.935669C406.831116 102.948807,409.070770 97.540421,409.070770 91.902374C409.070770 88.422211,408.217422 85.029556,406.626556 82.004715" style="stroke:rgb(0.000000%,0.000000%,0.000000%); stroke-width: 0.500000;stroke-linecap: round;stroke-linejoin: round;stroke-miterlimit: 10.000000;fill: none;"></path>
  <path d="M463.319397 82.004608C464.021210 81.487717,464.616318 80.827408,465.060364 80.057922C465.906403 78.592941,466.135422 76.852219,465.697495 75.218536C465.260193 73.584213,464.190979 72.191254,462.725998 71.345871C461.261002 70.499832,459.520279 70.270813,457.886612 70.708740C456.481873 71.084610,455.255432 71.927338,454.401764 73.086945" style="stroke:rgb(0.000000%,0.000000%,0.000000%); stroke-width: 0.500000;stroke-linecap: round;stroke-linejoin: round;stroke-miterlimit: 10.000000;fill: none;"></path>
  <path d="M454.401749 73.086899C451.376846 71.495941,447.984116 70.642563,444.503860 70.642563C438.865814 70.642563,433.457428 72.882217,429.470566 76.869080C425.483704 80.855942,423.244049 86.264328,423.244049 91.902374C423.244049 97.540421,425.483704 102.948807,429.470566 106.935669C433.457428 110.922531,438.865814 113.162186,444.503860 113.162186C450.141907 113.162186,455.550293 110.922531,459.537155 106.935669C463.524017 102.948807,465.763672 97.540421,465.763672 91.902374C465.763672 88.422211,464.910324 85.029556,463.319458 82.004715" style="stroke:rgb(0.000000%,0.000000%,0.000000%); stroke-width: 0.500000;stroke-linecap: round;stroke-linejoin: round;stroke-miterlimit: 10.000000;fill: none;"></path>
  <path d="M520.012299 82.004608C520.714111 81.487717,521.309219 80.827408,521.753265 80.057922C522.599304 78.592941,522.828323 76.852219,522.390396 75.218536C521.953094 73.584213,520.883881 72.191254,519.418900 71.345871C517.953903 70.499832,516.213181 70.270813,514.579514 70.708740C513.174774 71.084610,511.948334 71.927338,511.094666 73.086945" style="stroke:rgb(0.000000%,0.000000%,0.000000%); stroke-width: 0.500000;stroke-linecap: round;stroke-linejoin: round;stroke-miterlimit: 10.000000;fill: none;"></path>
  <path d="M511.094650 73.086899C508.069748 71.495941,504.677017 70.642563,501.196762 70.642563C495.558716 70.642563,490.150330 72.882217,486.163467 76.869080C482.176605 80.855942,479.936951 86.264328,479.936951 91.902374C479.936951 97.540421,482.176605 102.948807,486.163467 106.935669C490.150330 110.922531,495.558716 113.162186,501.196762 113.162186C506.834808 113.162186,512.243195 110.922531,516.230057 106.935669C520.216919 102.948807,522.456573 97.540421,522.456573 91.902374C522.456573 88.422211,521.603226 85.029556,520.012360 82.004715" style="stroke:rgb(0.000000%,0.000000%,0.000000%); stroke-width: 0.500000;stroke-linecap: round;stroke-linejoin: round;stroke-miterlimit: 10.000000;fill: none;"></path>
  <path d="M576.705200 82.004608C577.407013 81.487717,578.002121 80.827408,578.446167 80.057922C579.292206 78.592941,579.521225 76.852219,579.083298 75.218536C578.645996 73.584213,577.576782 72.191254,576.111801 71.345871C574.646805 70.499832,572.906082 70.270813,571.272415 70.708740C569.867676 71.084610,568.641235 71.927338,567.787567 73.086945" style="stroke:rgb(0.000000%,0.000000%,0.000000%); stroke-width: 0.500000;stroke-linecap: round;stroke-linejoin: round;stroke-miterlimit: 10.000000;fill: none;"></path>
  <path d="M567.787552 73.086899C564.762650 71.495941,561.369919 70.642563,557.889664 70.642563C552.251617 70.642563,546.843231 72.882217,542.856369 76.869080C538.869507 80.855942,536.629852 86.264328,536.629852 91.902374C536.629852 97.540421,538.869507 102.948807,542.856369 106.935669C546.843231 110.922531,552.251617 113.162186,557.889664 113.162186C563.527710 113.162186,568.936096 110.922531,572.922958 106.935669C576.909821 102.948807,579.149475 97.540421,579.149475 91.902374C579.149475 88.422211,578.296127 85.029556,576.705261 82.004715" style="stroke:rgb(0.000000%,0.000000%,0.000000%); stroke-width: 0.500000;stroke-linecap: round;stroke-linejoin: round;stroke-miterlimit: 10.000000;fill: none;"></path>
  <path d="M633.398102 82.004608C634.099915 81.487717,634.695023 80.827408,635.139069 80.057922C635.985107 78.592941,636.214127 76.852219,635.776199 75.218536C635.338898 73.584213,634.269684 72.191254,632.804703 71.345871C631.339706 70.499832,629.598984 70.270813,627.965317 70.708740C626.560577 71.084610,625.334137 71.927338,624.480469 73.086945" style="stroke:rgb(0.000000%,0.000000%,0.000000%); stroke-width: 0.500000;stroke-linecap: round;stroke-linejoin: round;stroke-miterlimit: 10.000000;fill: none;"></path>
  <path d="M624.480453 73.086899C621.455551 71.495941,618.062820 70.642563,614.582565 70.642563C608.944519 70.642563,603.536133 72.882217,599.549271 76.869080C595.562408 80.855942,593.322754 86.264328,593.322754 91.902374C593.322754 97.540421,595.562408 102.948807,599.549271 106.935669C603.536133 110.922531,608.944519 113.162186,614.582565 113.162186C620.220612 113.162186,625.628998 110.922531,629.615860 106.935669C633.602722 102.948807,635.842377 97.540421,635.842377 91.902374C635.842377 88.422211,634.989029 85.029556,633.398163 82.004715" style="stroke:rgb(0.000000%,0.000000%,0.000000%); stroke-width: 0.500000;stroke-linecap: round;stroke-linejoin: round;stroke-miterlimit: 10.000000;fill: none;"></path>
  <path d="M690.091003 82.004608C690.792816 81.487717,691.387924 80.827408,691.831970 80.057922C692.678009 78.592941,692.907028 76.852219,692.469101 75.218536C692.031799 73.584213,690.962585 72.191254,689.497604 71.345871C688.032608 70.499832,686.291885 70.270813,684.658218 70.708740C683.253479 71.084610,682.027039 71.927338,681.173370 73.086945" style="stroke:rgb(0.000000%,0.000000%,0.000000%); stroke-width: 0.500000;stroke-linecap: round;stroke-linejoin: round;stroke-miterlimit: 10.000000;fill: none;"></path>
  <path d="M681.173355 73.086899C678.148453 71.495941,674.755722 70.642563,671.275467 70.642563C665.637421 70.642563,660.229034 72.882217,656.242172 76.869080C652.255310 80.855942,650.015656 86.264328,650.015656 91.902374C650.015656 97.540421,652.255310 102.948807,656.242172 106.935669C660.229034 110.922531,665.637421 113.162186,671.275467 113.162186C676.913513 113.162186,682.321899 110.922531,686.308762 106.935669C690.295624 102.948807,692.535278 97.540421,692.535278 91.902374C692.535278 88.422211,691.681931 85.029556,690.091064 82.004715" style="stroke:rgb(0.000000%,0.000000%,0.000000%); stroke-width: 0.500000;stroke-linecap: round;stroke-linejoin: round;stroke-miterlimit: 10.000000;fill: none;"></path>
  <path d="M746.783905 82.004608C747.485718 81.487717,748.080826 80.827408,748.524872 80.057922C749.370911 78.592941,749.599930 76.852219,749.162003 75.218536C748.724701 73.584213,747.655487 72.191254,746.190506 71.345871C744.725510 70.499832,742.984787 70.270813,741.351120 70.708740C739.946381 71.084610,738.719940 71.927338,737.866272 73.086945" style="stroke:rgb(0.000000%,0.000000%,0.000000%); stroke-width: 0.500000;stroke-linecap: round;stroke-linejoin: round;stroke-miterlimit: 10.000000;fill: none;"></path>
  <path d="M737.866257 73.086899C734.841354 71.495941,731.448624 70.642563,727.968369 70.642563C722.330322 70.642563,716.921936 72.882217,712.935074 76.869080C708.948212 80.855942,706.708557 86.264328,706.708557 91.902374C706.708557 97.540421,708.948212 102.948807,712.935074 106.935669C716.921936 110.922531,722.330322 113.162186,727.968369 113.162186C733.606415 113.162186,739.014801 110.922531,743.001663 106.935669C746.988525 102.948807,749.228180 97.540421,749.228180 91.902374C749.228180 88.422211,748.374832 85.029556,746.783966 82.004715" style="stroke:rgb(0.000000%,0.000000%,0.000000%); stroke-width: 0.500000;stroke-linecap: round;stroke-linejoin: round;stroke-miterlimit: 10.000000;fill: none;"></path>
  <path d="M208.201340 32.906982C208.903152 32.390091,209.498260 31.729782,209.942307 30.960297C210.788345 29.495316,211.017365 27.754593,210.579437 26.120911C210.142136 24.486588,209.072922 23.093628,207.607941 22.248245C206.142944 21.402206,204.402222 21.173187,202.768555 21.611115C201.363815 21.986984,200.137375 22.829712,199.283707 23.989319" style="stroke:rgb(0.000000%,0.000000%,0.000000%); stroke-width: 0.500000;stroke-linecap: round;stroke-linejoin: round;stroke-miterlimit: 10.000000;fill: none;"></path>
  <path d="M199.283691 23.989258C196.258789 22.398300,192.866058 21.544922,189.385803 21.544922C183.747757 21.544922,178.339371 23.784576,174.352509 27.771439C170.365646 31.758301,168.125992 37.166687,168.125992 42.804733C168.125992 48.442780,170.365646 53.851166,174.352509 57.838028C178.339371 61.824890,183.747757 64.064545,189.385803 64.064545C195.023849 64.064545,200.432236 61.824890,204.419098 57.838028C208.405960 53.851166,210.645615 48.442780,210.645615 42.804733C210.645615 39.324570,209.792267 35.931915,208.201401 32.907074" style="stroke:rgb(0.000000%,0.000000%,0.000000%); stroke-width: 0.500000;stroke-linecap: round;stroke-linejoin: round;stroke-miterlimit: 10.000000;fill: none;"></path>
  <path d="M264.894241 32.906982C265.596054 32.390091,266.191162 31.729782,266.635208 30.960297C267.481247 29.495316,267.710266 27.754593,267.272339 26.120911C266.835037 24.486588,265.765823 23.093628,264.300842 22.248245C262.835846 21.402206,261.095123 21.173187,259.461456 21.611115C258.056717 21.986984,256.830276 22.829712,255.976608 23.989319" style="stroke:rgb(0.000000%,0.000000%,0.000000%); stroke-width: 0.500000;stroke-linecap: round;stroke-linejoin: round;stroke-miterlimit: 10.000000;fill: none;"></path>
  <path d="M255.976593 23.989258C252.951691 22.398300,249.558960 21.544922,246.078705 21.544922C240.440659 21.544922,235.032272 23.784576,231.045410 27.771439C227.058548 31.758301,224.818893 37.166687,224.818893 42.804733C224.818893 48.442780,227.058548 53.851166,231.045410 57.838028C235.032272 61.824890,240.440659 64.064545,246.078705 64.064545C251.716751 64.064545,257.125137 61.824890,261.112000 57.838028C265.098862 53.851166,267.338516 48.442780,267.338516 42.804733C267.338516 39.324570,266.485168 35.931915,264.894302 32.907074" style="stroke:rgb(0.000000%,0.000000%,0.000000%); stroke-width: 0.500000;stroke-linecap: round;stroke-linejoin: round;stroke-miterlimit: 10.000000;fill: none;"></path>
  <path d="M321.587143 32.906982C322.288956 32.390091,322.884064 31.729782,323.328110 30.960297C324.174149 29.495316,324.403168 27.754593,323.965240 26.120911C323.527939 24.486588,322.458725 23.093628,320.993744 22.248245C319.528748 21.402206,317.788025 21.173187,316.154358 21.611115C314.749619 21.986984,313.523178 22.829712,312.669510 23.989319" style="stroke:rgb(0.000000%,0.000000%,0.000000%); stroke-width: 0.500000;stroke-linecap: round;stroke-linejoin: round;stroke-miterlimit: 10.000000;fill: none;"></path>
  <path d="M312.669495 23.989258C309.644592 22.398300,306.251862 21.544922,302.771606 21.544922C297.133560 21.544922,291.725174 23.784576,287.738312 27.771439C283.751450 31.758301,281.511795 37.166687,281.511795 42.804733C281.511795 48.442780,283.751450 53.851166,287.738312 57.838028C291.725174 61.824890,297.133560 64.064545,302.771606 64.064545C308.409653 64.064545,313.818039 61.824890,317.804901 57.838028C321.791763 53.851166,324.031418 48.442780,324.031418 42.804733C324.031418 39.324570,323.178070 35.931915,321.587204 32.907074" style="stroke:rgb(0.000000%,0.000000%,0.000000%); stroke-width: 0.500000;stroke-linecap: round;stroke-linejoin: round;stroke-miterlimit: 10.000000;fill: none;"></path>
  <path d="M378.280045 32.906982C378.981857 32.390091,379.576965 31.729782,380.021011 30.960297C380.867050 29.495316,381.096069 27.754593,380.658142 26.120911C380.220840 24.486588,379.151627 23.093628,377.686646 22.248245C376.221649 21.402206,374.480927 21.173187,372.847260 21.611115C371.442520 21.986984,370.216080 22.829712,369.362411 23.989319" style="stroke:rgb(0.000000%,0.000000%,0.000000%); stroke-width: 0.500000;stroke-linecap: round;stroke-linejoin: round;stroke-miterlimit: 10.000000;fill: none;"></path>
  <path d="M369.362396 23.989258C366.337494 22.398300,362.944763 21.544922,359.464508 21.544922C353.826462 21.544922,348.418076 23.784576,344.431213 27.771439C340.444351 31.758301,338.204697 37.166687,338.204697 42.804733C338.204697 48.442780,340.444351 53.851166,344.431213 57.838028C348.418076 61.824890,353.826462 64.064545,359.464508 64.064545C365.102554 64.064545,370.510941 61.824890,374.497803 57.838028C378.484665 53.851166,380.724319 48.442780,380.724319 42.804733C380.724319 39.324570,379.870972 35.931915,378.280106 32.907074" style="stroke:rgb(0.000000%,0.000000%,0.000000%); stroke-width: 0.500000;stroke-linecap: round;stroke-linejoin: round;stroke-miterlimit: 10.000000;fill: none;"></path>
  <path d="M434.972946 32.906982C435.674759 32.390091,436.269867 31.729782,436.713913 30.960297C437.559952 29.495316,437.788971 27.754593,437.351044 26.120911C436.913742 24.486588,435.844528 23.093628,434.379547 22.248245C432.914551 21.402206,431.173828 21.173187,429.540161 21.611115C428.135422 21.986984,426.908981 22.829712,426.055313 23.989319" style="stroke:rgb(0.000000%,0.000000%,0.000000%); stroke-width: 0.500000;stroke-linecap: round;stroke-linejoin: round;stroke-miterlimit: 10.000000;fill: none;"></path>
  <path d="M426.055298 23.989258C423.030396 22.398300,419.637665 21.544922,416.157410 21.544922C410.519363 21.544922,405.110977 23.784576,401.124115 27.771439C397.137253 31.758301,394.897598 37.166687,394.897598 42.804733C394.897598 48.442780,397.137253 53.851166,401.124115 57.838028C405.110977 61.824890,410.519363 64.064545,416.157410 64.064545C421.795456 64.064545,427.203842 61.824890,431.190704 57.838028C435.177567 53.851166,437.417221 48.442780,437.417221 42.804733C437.417221 39.324570,436.563873 35.931915,434.973007 32.907074" style="stroke:rgb(0.000000%,0.000000%,0.000000%); stroke-width: 0.500000;stroke-linecap: round;stroke-linejoin: round;stroke-miterlimit: 10.000000;fill: none;"></path>
  <path d="M491.665848 32.906982C492.367661 32.390091,492.962769 31.729782,493.406815 30.960297C494.252853 29.495316,494.481873 27.754593,494.043945 26.120911C493.606644 24.486588,492.537430 23.093628,491.072449 22.248245C489.607452 21.402206,487.866730 21.173187,486.233063 21.611115C484.828323 21.986984,483.601883 22.829712,482.748215 23.989319" style="stroke:rgb(0.000000%,0.000000%,0.000000%); stroke-width: 0.500000;stroke-linecap: round;stroke-linejoin: round;stroke-miterlimit: 10.000000;fill: none;"></path>
  <path d="M482.748199 23.989258C479.723297 22.398300,476.330566 21.544922,472.850311 21.544922C467.212265 21.544922,461.803879 23.784576,457.817017 27.771439C453.830154 31.758301,451.590500 37.166687,451.590500 42.804733C451.590500 48.442780,453.830154 53.851166,457.817017 57.838028C461.803879 61.824890,467.212265 64.064545,472.850311 64.064545C478.488358 64.064545,483.896744 61.824890,487.883606 57.838028C491.870468 53.851166,494.110123 48.442780,494.110123 42.804733C494.110123 39.324570,493.256775 35.931915,491.665909 32.907074" style="stroke:rgb(0.000000%,0.000000%,0.000000%); stroke-width: 0.500000;stroke-linecap: round;stroke-linejoin: round;stroke-miterlimit: 10.000000;fill: none;"></path>
  <path d="M548.358749 32.906982C549.060562 32.390091,549.655670 31.729782,550.099716 30.960297C550.945755 29.495316,551.174774 27.754593,550.736847 26.120911C550.299545 24.486588,549.230331 23.093628,547.765350 22.248245C546.300354 21.402206,544.559631 21.173187,542.925964 21.611115C541.521225 21.986984,540.294785 22.829712,539.441116 23.989319" style="stroke:rgb(0.000000%,0.000000%,0.000000%); stroke-width: 0.500000;stroke-linecap: round;stroke-linejoin: round;stroke-miterlimit: 10.000000;fill: none;"></path>
  <path d="M539.441101 23.989258C536.416199 22.398300,533.023468 21.544922,529.543213 21.544922C523.905167 21.544922,518.496780 23.784576,514.509918 27.771439C510.523056 31.758301,508.283401 37.166687,508.283401 42.804733C508.283401 48.442780,510.523056 53.851166,514.509918 57.838028C518.496780 61.824890,523.905167 64.064545,529.543213 64.064545C535.181259 64.064545,540.589645 61.824890,544.576508 57.838028C548.563370 53.851166,550.803024 48.442780,550.803024 42.804733C550.803024 39.324570,549.949677 35.931915,548.358810 32.907074" style="stroke:rgb(0.000000%,0.000000%,0.000000%); stroke-width: 0.500000;stroke-linecap: round;stroke-linejoin: round;stroke-miterlimit: 10.000000;fill: none;"></path>
  <path d="M-0.535324 228.874176C282.924866 228.874176,566.398010 228.874176,849.858200 228.874176C849.858200 152.340057,849.858200 75.802414,849.858200 -0.731705C566.398010 -0.731705,282.924866 -0.731705,-0.535324 -0.731705C-0.535324 75.802414,-0.535324 152.340057,-0.535324 228.874176Z" style="stroke:rgb(0.000000%,0.000000%,0.000000%); stroke-width: 0.500000;stroke-linecap: round;stroke-linejoin: round;stroke-miterlimit: 10.000000;fill: none;"></path>
</svg>
