<?xml version="1.0"?>
<!-- Created by MetaPost 2.000 on 2017.07.25:0128 -->
<svg version="1.1" xmlns="http://www.w3.org/2000/svg" xmlns:xlink="http://www.w3.org/1999/xlink" width="850.893524" height="230.105881" viewBox="0 0 850.893524 230.105881">
<!-- Original BoundingBox: -76.785324 -88.124176 774.108200 141.981705 -->
  <path d="M114.267700 190.097626C114.267700 187.466232,113.222214 184.942932,111.361679 183.082397C109.501144 181.221863,106.977844 180.176376,104.346451 180.176376C101.715057 180.176376,99.191757 181.221863,97.331223 183.082397C95.470688 184.942932,94.425201 187.466232,94.425201 190.097626C94.425201 192.729019,95.470688 195.252319,97.331223 197.112854C99.191757 198.973389,101.715057 200.018875,104.346451 200.018875C106.977844 200.018875,109.501144 198.973389,111.361679 197.112854C113.222214 195.252319,114.267700 192.729019,114.267700 190.097626Z" style="stroke:rgb(0.000000%,0.000000%,0.000000%); stroke-width: 0.500000;stroke-linecap: round;stroke-linejoin: round;stroke-miterlimit: 10.000000;fill: none;"></path>
  <path d="M170.960602 190.097626C170.960602 187.466232,169.915115 184.942932,168.054581 183.082397C166.194046 181.221863,163.670746 180.176376,161.039352 180.176376C158.407959 180.176376,155.884659 181.221863,154.024124 183.082397C152.163589 184.942932,151.118103 187.466232,151.118103 190.097626C151.118103 192.729019,152.163589 195.252319,154.024124 197.112854C155.884659 198.973389,158.407959 200.018875,161.039352 200.018875C163.670746 200.018875,166.194046 198.973389,168.054581 197.112854C169.915115 195.252319,170.960602 192.729019,170.960602 190.097626Z" style="stroke:rgb(0.000000%,0.000000%,0.000000%); stroke-width: 0.500000;stroke-linecap: round;stroke-linejoin: round;stroke-miterlimit: 10.000000;fill: none;"></path>
  <path d="M227.653503 190.097626C227.653503 187.466232,226.608017 184.942932,224.747482 183.082397C222.886948 181.221863,220.363647 180.176376,217.732254 180.176376C215.100861 180.176376,212.577560 181.221863,210.717026 183.082397C208.856491 184.942932,207.811005 187.466232,207.811005 190.097626C207.811005 192.729019,208.856491 195.252319,210.717026 197.112854C212.577560 198.973389,215.100861 200.018875,217.732254 200.018875C220.363647 200.018875,222.886948 198.973389,224.747482 197.112854C226.608017 195.252319,227.653503 192.729019,227.653503 190.097626Z" style="stroke:rgb(0.000000%,0.000000%,0.000000%); stroke-width: 0.500000;stroke-linecap: round;stroke-linejoin: round;stroke-miterlimit: 10.000000;fill: none;"></path>
  <path d="M284.346405 190.097626C284.346405 187.466232,283.300919 184.942932,281.440384 183.082397C279.579849 181.221863,277.056549 180.176376,274.425156 180.176376C271.793762 180.176376,269.270462 181.221863,267.409927 183.082397C265.549393 184.942932,264.503906 187.466232,264.503906 190.097626C264.503906 192.729019,265.549393 195.252319,267.409927 197.112854C269.270462 198.973389,271.793762 200.018875,274.425156 200.018875C277.056549 200.018875,279.579849 198.973389,281.440384 197.112854C283.300919 195.252319,284.346405 192.729019,284.346405 190.097626Z" style="stroke:rgb(0.000000%,0.000000%,0.000000%); stroke-width: 0.500000;stroke-linecap: round;stroke-linejoin: round;stroke-miterlimit: 10.000000;fill: none;"></path>
  <path d="M341.039307 190.097626C341.039307 187.466232,339.993820 184.942932,338.133286 183.082397C336.272751 181.221863,333.749451 180.176376,331.118057 180.176376C328.486664 180.176376,325.963364 181.221863,324.102829 183.082397C322.242294 184.942932,321.196808 187.466232,321.196808 190.097626C321.196808 192.729019,322.242294 195.252319,324.102829 197.112854C325.963364 198.973389,328.486664 200.018875,331.118057 200.018875C333.749451 200.018875,336.272751 198.973389,338.133286 197.112854C339.993820 195.252319,341.039307 192.729019,341.039307 190.097626Z" style="stroke:rgb(0.000000%,0.000000%,0.000000%); stroke-width: 0.500000;stroke-linecap: round;stroke-linejoin: round;stroke-miterlimit: 10.000000;fill: none;"></path>
  <path d="M397.732208 190.097626C397.732208 187.466232,396.686722 184.942932,394.826187 183.082397C392.965652 181.221863,390.442352 180.176376,387.810959 180.176376C385.179565 180.176376,382.656265 181.221863,380.795731 183.082397C378.935196 184.942932,377.889709 187.466232,377.889709 190.097626C377.889709 192.729019,378.935196 195.252319,380.795731 197.112854C382.656265 198.973389,385.179565 200.018875,387.810959 200.018875C390.442352 200.018875,392.965652 198.973389,394.826187 197.112854C396.686722 195.252319,397.732208 192.729019,397.732208 190.097626Z" style="stroke:rgb(0.000000%,0.000000%,0.000000%); stroke-width: 0.500000;stroke-linecap: round;stroke-linejoin: round;stroke-miterlimit: 10.000000;fill: none;"></path>
  <path d="M454.425110 190.097626C454.425110 187.466232,453.379623 184.942932,451.519089 183.082397C449.658554 181.221863,447.135254 180.176376,444.503860 180.176376C441.872467 180.176376,439.349167 181.221863,437.488632 183.082397C435.628098 184.942932,434.582611 187.466232,434.582611 190.097626C434.582611 192.729019,435.628098 195.252319,437.488632 197.112854C439.349167 198.973389,441.872467 200.018875,444.503860 200.018875C447.135254 200.018875,449.658554 198.973389,451.519089 197.112854C453.379623 195.252319,454.425110 192.729019,454.425110 190.097626Z" style="stroke:rgb(0.000000%,0.000000%,0.000000%); stroke-width: 0.500000;stroke-linecap: round;stroke-linejoin: round;stroke-miterlimit: 10.000000;fill: none;"></path>
  <path d="M511.118011 190.097626C511.118011 187.466232,510.072525 184.942932,508.211990 183.082397C506.351456 181.221863,503.828156 180.176376,501.196762 180.176376C498.565369 180.176376,496.042068 181.221863,494.181534 183.082397C492.320999 184.942932,491.275513 187.466232,491.275513 190.097626C491.275513 192.729019,492.320999 195.252319,494.181534 197.112854C496.042068 198.973389,498.565369 200.018875,501.196762 200.018875C503.828156 200.018875,506.351456 198.973389,508.211990 197.112854C510.072525 195.252319,511.118011 192.729019,511.118011 190.097626Z" style="stroke:rgb(0.000000%,0.000000%,0.000000%); stroke-width: 0.500000;stroke-linecap: round;stroke-linejoin: round;stroke-miterlimit: 10.000000;fill: none;"></path>
  <path d="M567.810913 190.097626C567.810913 187.466232,566.765427 184.942932,564.904892 183.082397C563.044357 181.221863,560.521057 180.176376,557.889664 180.176376C555.258270 180.176376,552.734970 181.221863,550.874435 183.082397C549.013901 184.942932,547.968414 187.466232,547.968414 190.097626C547.968414 192.729019,549.013901 195.252319,550.874435 197.112854C552.734970 198.973389,555.258270 200.018875,557.889664 200.018875C560.521057 200.018875,563.044357 198.973389,564.904892 197.112854C566.765427 195.252319,567.810913 192.729019,567.810913 190.097626Z" style="stroke:rgb(0.000000%,0.000000%,0.000000%); stroke-width: 0.500000;stroke-linecap: round;stroke-linejoin: round;stroke-miterlimit: 10.000000;fill: none;"></path>
  <path d="M624.503815 190.097626C624.503815 187.466232,623.458328 184.942932,621.597794 183.082397C619.737259 181.221863,617.213959 180.176376,614.582565 180.176376C611.951172 180.176376,609.427872 181.221863,607.567337 183.082397C605.706802 184.942932,604.661316 187.466232,604.661316 190.097626C604.661316 192.729019,605.706802 195.252319,607.567337 197.112854C609.427872 198.973389,611.951172 200.018875,614.582565 200.018875C617.213959 200.018875,619.737259 198.973389,621.597794 197.112854C623.458328 195.252319,624.503815 192.729019,624.503815 190.097626Z" style="stroke:rgb(0.000000%,0.000000%,0.000000%); stroke-width: 0.500000;stroke-linecap: round;stroke-linejoin: round;stroke-miterlimit: 10.000000;fill: none;"></path>
  <path d="M681.196716 190.097626C681.196716 187.466232,680.151230 184.942932,678.290695 183.082397C676.430161 181.221863,673.906860 180.176376,671.275467 180.176376C668.644073 180.176376,666.120773 181.221863,664.260239 183.082397C662.399704 184.942932,661.354218 187.466232,661.354218 190.097626C661.354218 192.729019,662.399704 195.252319,664.260239 197.112854C666.120773 198.973389,668.644073 200.018875,671.275467 200.018875C673.906860 200.018875,676.430161 198.973389,678.290695 197.112854C680.151230 195.252319,681.196716 192.729019,681.196716 190.097626Z" style="stroke:rgb(0.000000%,0.000000%,0.000000%); stroke-width: 0.500000;stroke-linecap: round;stroke-linejoin: round;stroke-miterlimit: 10.000000;fill: none;"></path>
  <path d="M737.889618 190.097626C737.889618 187.466232,736.844131 184.942932,734.983597 183.082397C733.123062 181.221863,730.599762 180.176376,727.968369 180.176376C725.336975 180.176376,722.813675 181.221863,720.953140 183.082397C719.092606 184.942932,718.047119 187.466232,718.047119 190.097626C718.047119 192.729019,719.092606 195.252319,720.953140 197.112854C722.813675 198.973389,725.336975 200.018875,727.968369 200.018875C730.599762 200.018875,733.123062 198.973389,734.983597 197.112854C736.844131 195.252319,737.889618 192.729019,737.889618 190.097626Z" style="stroke:rgb(0.000000%,0.000000%,0.000000%); stroke-width: 0.500000;stroke-linecap: round;stroke-linejoin: round;stroke-miterlimit: 10.000000;fill: none;"></path>
  <path d="M85.921249 141.000000C85.921249 138.368607,84.875763 135.845306,83.015228 133.984772C81.154694 132.124237,78.631393 131.078751,76.000000 131.078751C73.368607 131.078751,70.845306 132.124237,68.984772 133.984772C67.124237 135.845306,66.078751 138.368607,66.078751 141.000000C66.078751 143.631393,67.124237 146.154694,68.984772 148.015228C70.845306 149.875763,73.368607 150.921249,76.000000 150.921249C78.631393 150.921249,81.154694 149.875763,83.015228 148.015228C84.875763 146.154694,85.921249 143.631393,85.921249 141.000000Z" style="stroke:rgb(0.000000%,0.000000%,0.000000%); stroke-width: 0.500000;stroke-linecap: round;stroke-linejoin: round;stroke-miterlimit: 10.000000;fill: none;"></path>
  <path d="M142.614151 141.000000C142.614151 138.368607,141.568665 135.845306,139.708130 133.984772C137.847595 132.124237,135.324295 131.078751,132.692902 131.078751C130.061508 131.078751,127.538208 132.124237,125.677673 133.984772C123.817139 135.845306,122.771652 138.368607,122.771652 141.000000C122.771652 143.631393,123.817139 146.154694,125.677673 148.015228C127.538208 149.875763,130.061508 150.921249,132.692902 150.921249C135.324295 150.921249,137.847595 149.875763,139.708130 148.015228C141.568665 146.154694,142.614151 143.631393,142.614151 141.000000Z" style="stroke:rgb(0.000000%,0.000000%,0.000000%); stroke-width: 0.500000;stroke-linecap: round;stroke-linejoin: round;stroke-miterlimit: 10.000000;fill: none;"></path>
  <path d="M199.307053 141.000000C199.307053 138.368607,198.261566 135.845306,196.401031 133.984772C194.540497 132.124237,192.017197 131.078751,189.385803 131.078751C186.754410 131.078751,184.231110 132.124237,182.370575 133.984772C180.510040 135.845306,179.464554 138.368607,179.464554 141.000000C179.464554 143.631393,180.510040 146.154694,182.370575 148.015228C184.231110 149.875763,186.754410 150.921249,189.385803 150.921249C192.017197 150.921249,194.540497 149.875763,196.401031 148.015228C198.261566 146.154694,199.307053 143.631393,199.307053 141.000000Z" style="stroke:rgb(0.000000%,0.000000%,0.000000%); stroke-width: 0.500000;stroke-linecap: round;stroke-linejoin: round;stroke-miterlimit: 10.000000;fill: none;"></path>
  <path d="M255.999954 141.000000C255.999954 138.368607,254.954468 135.845306,253.093933 133.984772C251.233398 132.124237,248.710098 131.078751,246.078705 131.078751C243.447311 131.078751,240.924011 132.124237,239.063477 133.984772C237.202942 135.845306,236.157455 138.368607,236.157455 141.000000C236.157455 143.631393,237.202942 146.154694,239.063477 148.015228C240.924011 149.875763,243.447311 150.921249,246.078705 150.921249C248.710098 150.921249,251.233398 149.875763,253.093933 148.015228C254.954468 146.154694,255.999954 143.631393,255.999954 141.000000Z" style="stroke:rgb(0.000000%,0.000000%,0.000000%); stroke-width: 0.500000;stroke-linecap: round;stroke-linejoin: round;stroke-miterlimit: 10.000000;fill: none;"></path>
  <path d="M312.692856 141.000000C312.692856 138.368607,311.647369 135.845306,309.786835 133.984772C307.926300 132.124237,305.403000 131.078751,302.771606 131.078751C300.140213 131.078751,297.616913 132.124237,295.756378 133.984772C293.895844 135.845306,292.850357 138.368607,292.850357 141.000000C292.850357 143.631393,293.895844 146.154694,295.756378 148.015228C297.616913 149.875763,300.140213 150.921249,302.771606 150.921249C305.403000 150.921249,307.926300 149.875763,309.786835 148.015228C311.647369 146.154694,312.692856 143.631393,312.692856 141.000000Z" style="stroke:rgb(0.000000%,0.000000%,0.000000%); stroke-width: 0.500000;stroke-linecap: round;stroke-linejoin: round;stroke-miterlimit: 10.000000;fill: none;"></path>
  <path d="M369.385757 141.000000C369.385757 138.368607,368.340271 135.845306,366.479736 133.984772C364.619202 132.124237,362.095901 131.078751,359.464508 131.078751C356.833115 131.078751,354.309814 132.124237,352.449280 133.984772C350.588745 135.845306,349.543259 138.368607,349.543259 141.000000C349.543259 143.631393,350.588745 146.154694,352.449280 148.015228C354.309814 149.875763,356.833115 150.921249,359.464508 150.921249C362.095901 150.921249,364.619202 149.875763,366.479736 148.015228C368.340271 146.154694,369.385757 143.631393,369.385757 141.000000Z" style="stroke:rgb(0.000000%,0.000000%,0.000000%); stroke-width: 0.500000;stroke-linecap: round;stroke-linejoin: round;stroke-miterlimit: 10.000000;fill: none;"></path>
  <path d="M426.078659 141.000000C426.078659 138.368607,425.033173 135.845306,423.172638 133.984772C421.312103 132.124237,418.788803 131.078751,416.157410 131.078751C413.526016 131.078751,411.002716 132.124237,409.142181 133.984772C407.281647 135.845306,406.236160 138.368607,406.236160 141.000000C406.236160 143.631393,407.281647 146.154694,409.142181 148.015228C411.002716 149.875763,413.526016 150.921249,416.157410 150.921249C418.788803 150.921249,421.312103 149.875763,423.172638 148.015228C425.033173 146.154694,426.078659 143.631393,426.078659 141.000000Z" style="stroke:rgb(0.000000%,0.000000%,0.000000%); stroke-width: 0.500000;stroke-linecap: round;stroke-linejoin: round;stroke-miterlimit: 10.000000;fill: none;"></path>
  <path d="M482.771561 141.000000C482.771561 138.368607,481.726074 135.845306,479.865540 133.984772C478.005005 132.124237,475.481705 131.078751,472.850311 131.078751C470.218918 131.078751,467.695618 132.124237,465.835083 133.984772C463.974548 135.845306,462.929062 138.368607,462.929062 141.000000C462.929062 143.631393,463.974548 146.154694,465.835083 148.015228C467.695618 149.875763,470.218918 150.921249,472.850311 150.921249C475.481705 150.921249,478.005005 149.875763,479.865540 148.015228C481.726074 146.154694,482.771561 143.631393,482.771561 141.000000Z" style="stroke:rgb(0.000000%,0.000000%,0.000000%); stroke-width: 0.500000;stroke-linecap: round;stroke-linejoin: round;stroke-miterlimit: 10.000000;fill: none;"></path>
  <path d="M539.464462 141.000000C539.464462 138.368607,538.418976 135.845306,536.558441 133.984772C534.697906 132.124237,532.174606 131.078751,529.543213 131.078751C526.911819 131.078751,524.388519 132.124237,522.527985 133.984772C520.667450 135.845306,519.621964 138.368607,519.621964 141.000000C519.621964 143.631393,520.667450 146.154694,522.527985 148.015228C524.388519 149.875763,526.911819 150.921249,529.543213 150.921249C532.174606 150.921249,534.697906 149.875763,536.558441 148.015228C538.418976 146.154694,539.464462 143.631393,539.464462 141.000000Z" style="stroke:rgb(0.000000%,0.000000%,0.000000%); stroke-width: 0.500000;stroke-linecap: round;stroke-linejoin: round;stroke-miterlimit: 10.000000;fill: none;"></path>
  <path d="M596.157364 141.000000C596.157364 138.368607,595.111877 135.845306,593.251343 133.984772C591.390808 132.124237,588.867508 131.078751,586.236115 131.078751C583.604721 131.078751,581.081421 132.124237,579.220886 133.984772C577.360352 135.845306,576.314865 138.368607,576.314865 141.000000C576.314865 143.631393,577.360352 146.154694,579.220886 148.015228C581.081421 149.875763,583.604721 150.921249,586.236115 150.921249C588.867508 150.921249,591.390808 149.875763,593.251343 148.015228C595.111877 146.154694,596.157364 143.631393,596.157364 141.000000Z" style="stroke:rgb(0.000000%,0.000000%,0.000000%); stroke-width: 0.500000;stroke-linecap: round;stroke-linejoin: round;stroke-miterlimit: 10.000000;fill: none;"></path>
  <path d="M652.850266 141.000000C652.850266 138.368607,651.804779 135.845306,649.944244 133.984772C648.083710 132.124237,645.560410 131.078751,642.929016 131.078751C640.297623 131.078751,637.774323 132.124237,635.913788 133.984772C634.053253 135.845306,633.007767 138.368607,633.007767 141.000000C633.007767 143.631393,634.053253 146.154694,635.913788 148.015228C637.774323 149.875763,640.297623 150.921249,642.929016 150.921249C645.560410 150.921249,648.083710 149.875763,649.944244 148.015228C651.804779 146.154694,652.850266 143.631393,652.850266 141.000000Z" style="stroke:rgb(0.000000%,0.000000%,0.000000%); stroke-width: 0.500000;stroke-linecap: round;stroke-linejoin: round;stroke-miterlimit: 10.000000;fill: none;"></path>
  <path d="M709.543167 141.000000C709.543167 138.368607,708.497681 135.845306,706.637146 133.984772C704.776611 132.124237,702.253311 131.078751,699.621918 131.078751C696.990524 131.078751,694.467224 132.124237,692.606689 133.984772C690.746155 135.845306,689.700668 138.368607,689.700668 141.000000C689.700668 143.631393,690.746155 146.154694,692.606689 148.015228C694.467224 149.875763,696.990524 150.921249,699.621918 150.921249C702.253311 150.921249,704.776611 149.875763,706.637146 148.015228C708.497681 146.154694,709.543167 143.631393,709.543167 141.000000Z" style="stroke:rgb(0.000000%,0.000000%,0.000000%); stroke-width: 0.500000;stroke-linecap: round;stroke-linejoin: round;stroke-miterlimit: 10.000000;fill: none;"></path>
  <path d="M766.236069 141.000000C766.236069 138.368607,765.190582 135.845306,763.330048 133.984772C761.469513 132.124237,758.946213 131.078751,756.314819 131.078751C753.683426 131.078751,751.160126 132.124237,749.299591 133.984772C747.439056 135.845306,746.393570 138.368607,746.393570 141.000000C746.393570 143.631393,747.439056 146.154694,749.299591 148.015228C751.160126 149.875763,753.683426 150.921249,756.314819 150.921249C758.946213 150.921249,761.469513 149.875763,763.330048 148.015228C765.190582 146.154694,766.236069 143.631393,766.236069 141.000000Z" style="stroke:rgb(0.000000%,0.000000%,0.000000%); stroke-width: 0.500000;stroke-linecap: round;stroke-linejoin: round;stroke-miterlimit: 10.000000;fill: none;"></path>
  <path d="M114.267700 91.902374C114.267700 89.270981,113.222214 86.747681,111.361679 84.887146C109.501144 83.026611,106.977844 81.981125,104.346451 81.981125C101.715057 81.981125,99.191757 83.026611,97.331223 84.887146C95.470688 86.747681,94.425201 89.270981,94.425201 91.902374C94.425201 94.533768,95.470688 97.057068,97.331223 98.917603C99.191757 100.778137,101.715057 101.823624,104.346451 101.823624C106.977844 101.823624,109.501144 100.778137,111.361679 98.917603C113.222214 97.057068,114.267700 94.533768,114.267700 91.902374Z" style="stroke:rgb(0.000000%,0.000000%,0.000000%); stroke-width: 0.500000;stroke-linecap: round;stroke-linejoin: round;stroke-miterlimit: 10.000000;fill: none;"></path>
  <path d="M170.960602 91.902374C170.960602 89.270981,169.915115 86.747681,168.054581 84.887146C166.194046 83.026611,163.670746 81.981125,161.039352 81.981125C158.407959 81.981125,155.884659 83.026611,154.024124 84.887146C152.163589 86.747681,151.118103 89.270981,151.118103 91.902374C151.118103 94.533768,152.163589 97.057068,154.024124 98.917603C155.884659 100.778137,158.407959 101.823624,161.039352 101.823624C163.670746 101.823624,166.194046 100.778137,168.054581 98.917603C169.915115 97.057068,170.960602 94.533768,170.960602 91.902374Z" style="stroke:rgb(0.000000%,0.000000%,0.000000%); stroke-width: 0.500000;stroke-linecap: round;stroke-linejoin: round;stroke-miterlimit: 10.000000;fill: none;"></path>
  <path d="M227.653503 91.902374C227.653503 89.270981,226.608017 86.747681,224.747482 84.887146C222.886948 83.026611,220.363647 81.981125,217.732254 81.981125C215.100861 81.981125,212.577560 83.026611,210.717026 84.887146C208.856491 86.747681,207.811005 89.270981,207.811005 91.902374C207.811005 94.533768,208.856491 97.057068,210.717026 98.917603C212.577560 100.778137,215.100861 101.823624,217.732254 101.823624C220.363647 101.823624,222.886948 100.778137,224.747482 98.917603C226.608017 97.057068,227.653503 94.533768,227.653503 91.902374Z" style="stroke:rgb(0.000000%,0.000000%,0.000000%); stroke-width: 0.500000;stroke-linecap: round;stroke-linejoin: round;stroke-miterlimit: 10.000000;fill: none;"></path>
  <path d="M284.346405 91.902374C284.346405 89.270981,283.300919 86.747681,281.440384 84.887146C279.579849 83.026611,277.056549 81.981125,274.425156 81.981125C271.793762 81.981125,269.270462 83.026611,267.409927 84.887146C265.549393 86.747681,264.503906 89.270981,264.503906 91.902374C264.503906 94.533768,265.549393 97.057068,267.409927 98.917603C269.270462 100.778137,271.793762 101.823624,274.425156 101.823624C277.056549 101.823624,279.579849 100.778137,281.440384 98.917603C283.300919 97.057068,284.346405 94.533768,284.346405 91.902374Z" style="stroke:rgb(0.000000%,0.000000%,0.000000%); stroke-width: 0.500000;stroke-linecap: round;stroke-linejoin: round;stroke-miterlimit: 10.000000;fill: none;"></path>
  <path d="M341.039307 91.902374C341.039307 89.270981,339.993820 86.747681,338.133286 84.887146C336.272751 83.026611,333.749451 81.981125,331.118057 81.981125C328.486664 81.981125,325.963364 83.026611,324.102829 84.887146C322.242294 86.747681,321.196808 89.270981,321.196808 91.902374C321.196808 94.533768,322.242294 97.057068,324.102829 98.917603C325.963364 100.778137,328.486664 101.823624,331.118057 101.823624C333.749451 101.823624,336.272751 100.778137,338.133286 98.917603C339.993820 97.057068,341.039307 94.533768,341.039307 91.902374Z" style="stroke:rgb(0.000000%,0.000000%,0.000000%); stroke-width: 0.500000;stroke-linecap: round;stroke-linejoin: round;stroke-miterlimit: 10.000000;fill: none;"></path>
  <path d="M397.732208 91.902374C397.732208 89.270981,396.686722 86.747681,394.826187 84.887146C392.965652 83.026611,390.442352 81.981125,387.810959 81.981125C385.179565 81.981125,382.656265 83.026611,380.795731 84.887146C378.935196 86.747681,377.889709 89.270981,377.889709 91.902374C377.889709 94.533768,378.935196 97.057068,380.795731 98.917603C382.656265 100.778137,385.179565 101.823624,387.810959 101.823624C390.442352 101.823624,392.965652 100.778137,394.826187 98.917603C396.686722 97.057068,397.732208 94.533768,397.732208 91.902374Z" style="stroke:rgb(0.000000%,0.000000%,0.000000%); stroke-width: 0.500000;stroke-linecap: round;stroke-linejoin: round;stroke-miterlimit: 10.000000;fill: none;"></path>
  <path d="M454.425110 91.902374C454.425110 89.270981,453.379623 86.747681,451.519089 84.887146C449.658554 83.026611,447.135254 81.981125,444.503860 81.981125C441.872467 81.981125,439.349167 83.026611,437.488632 84.887146C435.628098 86.747681,434.582611 89.270981,434.582611 91.902374C434.582611 94.533768,435.628098 97.057068,437.488632 98.917603C439.349167 100.778137,441.872467 101.823624,444.503860 101.823624C447.135254 101.823624,449.658554 100.778137,451.519089 98.917603C453.379623 97.057068,454.425110 94.533768,454.425110 91.902374Z" style="stroke:rgb(0.000000%,0.000000%,0.000000%); stroke-width: 0.500000;stroke-linecap: round;stroke-linejoin: round;stroke-miterlimit: 10.000000;fill: none;"></path>
  <path d="M511.118011 91.902374C511.118011 89.270981,510.072525 86.747681,508.211990 84.887146C506.351456 83.026611,503.828156 81.981125,501.196762 81.981125C498.565369 81.981125,496.042068 83.026611,494.181534 84.887146C492.320999 86.747681,491.275513 89.270981,491.275513 91.902374C491.275513 94.533768,492.320999 97.057068,494.181534 98.917603C496.042068 100.778137,498.565369 101.823624,501.196762 101.823624C503.828156 101.823624,506.351456 100.778137,508.211990 98.917603C510.072525 97.057068,511.118011 94.533768,511.118011 91.902374Z" style="stroke:rgb(0.000000%,0.000000%,0.000000%); stroke-width: 0.500000;stroke-linecap: round;stroke-linejoin: round;stroke-miterlimit: 10.000000;fill: none;"></path>
  <path d="M567.810913 91.902374C567.810913 89.270981,566.765427 86.747681,564.904892 84.887146C563.044357 83.026611,560.521057 81.981125,557.889664 81.981125C555.258270 81.981125,552.734970 83.026611,550.874435 84.887146C549.013901 86.747681,547.968414 89.270981,547.968414 91.902374C547.968414 94.533768,549.013901 97.057068,550.874435 98.917603C552.734970 100.778137,555.258270 101.823624,557.889664 101.823624C560.521057 101.823624,563.044357 100.778137,564.904892 98.917603C566.765427 97.057068,567.810913 94.533768,567.810913 91.902374Z" style="stroke:rgb(0.000000%,0.000000%,0.000000%); stroke-width: 0.500000;stroke-linecap: round;stroke-linejoin: round;stroke-miterlimit: 10.000000;fill: none;"></path>
  <path d="M624.503815 91.902374C624.503815 89.270981,623.458328 86.747681,621.597794 84.887146C619.737259 83.026611,617.213959 81.981125,614.582565 81.981125C611.951172 81.981125,609.427872 83.026611,607.567337 84.887146C605.706802 86.747681,604.661316 89.270981,604.661316 91.902374C604.661316 94.533768,605.706802 97.057068,607.567337 98.917603C609.427872 100.778137,611.951172 101.823624,614.582565 101.823624C617.213959 101.823624,619.737259 100.778137,621.597794 98.917603C623.458328 97.057068,624.503815 94.533768,624.503815 91.902374Z" style="stroke:rgb(0.000000%,0.000000%,0.000000%); stroke-width: 0.500000;stroke-linecap: round;stroke-linejoin: round;stroke-miterlimit: 10.000000;fill: none;"></path>
  <path d="M681.196716 91.902374C681.196716 89.270981,680.151230 86.747681,678.290695 84.887146C676.430161 83.026611,673.906860 81.981125,671.275467 81.981125C668.644073 81.981125,666.120773 83.026611,664.260239 84.887146C662.399704 86.747681,661.354218 89.270981,661.354218 91.902374C661.354218 94.533768,662.399704 97.057068,664.260239 98.917603C666.120773 100.778137,668.644073 101.823624,671.275467 101.823624C673.906860 101.823624,676.430161 100.778137,678.290695 98.917603C680.151230 97.057068,681.196716 94.533768,681.196716 91.902374Z" style="stroke:rgb(0.000000%,0.000000%,0.000000%); stroke-width: 0.500000;stroke-linecap: round;stroke-linejoin: round;stroke-miterlimit: 10.000000;fill: none;"></path>
  <path d="M737.889618 91.902374C737.889618 89.270981,736.844131 86.747681,734.983597 84.887146C733.123062 83.026611,730.599762 81.981125,727.968369 81.981125C725.336975 81.981125,722.813675 83.026611,720.953140 84.887146C719.092606 86.747681,718.047119 89.270981,718.047119 91.902374C718.047119 94.533768,719.092606 97.057068,720.953140 98.917603C722.813675 100.778137,725.336975 101.823624,727.968369 101.823624C730.599762 101.823624,733.123062 100.778137,734.983597 98.917603C736.844131 97.057068,737.889618 94.533768,737.889618 91.902374Z" style="stroke:rgb(0.000000%,0.000000%,0.000000%); stroke-width: 0.500000;stroke-linecap: round;stroke-linejoin: round;stroke-miterlimit: 10.000000;fill: none;"></path>
  <path d="M199.307053 42.804749C199.307053 40.173355,198.261566 37.650055,196.401031 35.789520C194.540497 33.928986,192.017197 32.883499,189.385803 32.883499C186.754410 32.883499,184.231110 33.928986,182.370575 35.789520C180.510040 37.650055,179.464554 40.173355,179.464554 42.804749C179.464554 45.436142,180.510040 47.959442,182.370575 49.819977C184.231110 51.680511,186.754410 52.725998,189.385803 52.725998C192.017197 52.725998,194.540497 51.680511,196.401031 49.819977C198.261566 47.959442,199.307053 45.436142,199.307053 42.804749Z" style="stroke:rgb(0.000000%,0.000000%,0.000000%); stroke-width: 0.500000;stroke-linecap: round;stroke-linejoin: round;stroke-miterlimit: 10.000000;fill: none;"></path>
  <path d="M255.999954 42.804749C255.999954 40.173355,254.954468 37.650055,253.093933 35.789520C251.233398 33.928986,248.710098 32.883499,246.078705 32.883499C243.447311 32.883499,240.924011 33.928986,239.063477 35.789520C237.202942 37.650055,236.157455 40.173355,236.157455 42.804749C236.157455 45.436142,237.202942 47.959442,239.063477 49.819977C240.924011 51.680511,243.447311 52.725998,246.078705 52.725998C248.710098 52.725998,251.233398 51.680511,253.093933 49.819977C254.954468 47.959442,255.999954 45.436142,255.999954 42.804749Z" style="stroke:rgb(0.000000%,0.000000%,0.000000%); stroke-width: 0.500000;stroke-linecap: round;stroke-linejoin: round;stroke-miterlimit: 10.000000;fill: none;"></path>
  <path d="M312.692856 42.804749C312.692856 40.173355,311.647369 37.650055,309.786835 35.789520C307.926300 33.928986,305.403000 32.883499,302.771606 32.883499C300.140213 32.883499,297.616913 33.928986,295.756378 35.789520C293.895844 37.650055,292.850357 40.173355,292.850357 42.804749C292.850357 45.436142,293.895844 47.959442,295.756378 49.819977C297.616913 51.680511,300.140213 52.725998,302.771606 52.725998C305.403000 52.725998,307.926300 51.680511,309.786835 49.819977C311.647369 47.959442,312.692856 45.436142,312.692856 42.804749Z" style="stroke:rgb(0.000000%,0.000000%,0.000000%); stroke-width: 0.500000;stroke-linecap: round;stroke-linejoin: round;stroke-miterlimit: 10.000000;fill: none;"></path>
  <path d="M369.385757 42.804749C369.385757 40.173355,368.340271 37.650055,366.479736 35.789520C364.619202 33.928986,362.095901 32.883499,359.464508 32.883499C356.833115 32.883499,354.309814 33.928986,352.449280 35.789520C350.588745 37.650055,349.543259 40.173355,349.543259 42.804749C349.543259 45.436142,350.588745 47.959442,352.449280 49.819977C354.309814 51.680511,356.833115 52.725998,359.464508 52.725998C362.095901 52.725998,364.619202 51.680511,366.479736 49.819977C368.340271 47.959442,369.385757 45.436142,369.385757 42.804749Z" style="stroke:rgb(0.000000%,0.000000%,0.000000%); stroke-width: 0.500000;stroke-linecap: round;stroke-linejoin: round;stroke-miterlimit: 10.000000;fill: none;"></path>
  <path d="M426.078659 42.804749C426.078659 40.173355,425.033173 37.650055,423.172638 35.789520C421.312103 33.928986,418.788803 32.883499,416.157410 32.883499C413.526016 32.883499,411.002716 33.928986,409.142181 35.789520C407.281647 37.650055,406.236160 40.173355,406.236160 42.804749C406.236160 45.436142,407.281647 47.959442,409.142181 49.819977C411.002716 51.680511,413.526016 52.725998,416.157410 52.725998C418.788803 52.725998,421.312103 51.680511,423.172638 49.819977C425.033173 47.959442,426.078659 45.436142,426.078659 42.804749Z" style="stroke:rgb(0.000000%,0.000000%,0.000000%); stroke-width: 0.500000;stroke-linecap: round;stroke-linejoin: round;stroke-miterlimit: 10.000000;fill: none;"></path>
  <path d="M482.771561 42.804749C482.771561 40.173355,481.726074 37.650055,479.865540 35.789520C478.005005 33.928986,475.481705 32.883499,472.850311 32.883499C470.218918 32.883499,467.695618 33.928986,465.835083 35.789520C463.974548 37.650055,462.929062 40.173355,462.929062 42.804749C462.929062 45.436142,463.974548 47.959442,465.835083 49.819977C467.695618 51.680511,470.218918 52.725998,472.850311 52.725998C475.481705 52.725998,478.005005 51.680511,479.865540 49.819977C481.726074 47.959442,482.771561 45.436142,482.771561 42.804749Z" style="stroke:rgb(0.000000%,0.000000%,0.000000%); stroke-width: 0.500000;stroke-linecap: round;stroke-linejoin: round;stroke-miterlimit: 10.000000;fill: none;"></path>
  <path d="M539.464462 42.804749C539.464462 40.173355,538.418976 37.650055,536.558441 35.789520C534.697906 33.928986,532.174606 32.883499,529.543213 32.883499C526.911819 32.883499,524.388519 33.928986,522.527985 35.789520C520.667450 37.650055,519.621964 40.173355,519.621964 42.804749C519.621964 45.436142,520.667450 47.959442,522.527985 49.819977C524.388519 51.680511,526.911819 52.725998,529.543213 52.725998C532.174606 52.725998,534.697906 51.680511,536.558441 49.819977C538.418976 47.959442,539.464462 45.436142,539.464462 42.804749Z" style="stroke:rgb(0.000000%,0.000000%,0.000000%); stroke-width: 0.500000;stroke-linecap: round;stroke-linejoin: round;stroke-miterlimit: 10.000000;fill: none;"></path>
  <path d="M-0.535324 228.874176C282.924866 228.874176,566.398010 228.874176,849.858200 228.874176C849.858200 152.340057,849.858200 75.802414,849.858200 -0.731705C566.398010 -0.731705,282.924866 -0.731705,-0.535324 -0.731705C-0.535324 75.802414,-0.535324 152.340057,-0.535324 228.874176Z" style="stroke:rgb(0.000000%,0.000000%,0.000000%); stroke-width: 0.500000;stroke-linecap: round;stroke-linejoin: round;stroke-miterlimit: 10.000000;fill: none;"></path>
</svg>
