<?xml version="1.0" encoding="UTF-8"?>
<!DOCTYPE svg PUBLIC "-//W3C//DTD SVG 1.1//EN" "http://www.w3.org/Graphics/SVG/1.1/DTD/svg11.dtd">
<!-- Creator: CorelDRAW X7 -->
<svg xmlns="http://www.w3.org/2000/svg" xml:space="preserve" width="297mm" height="210mm" version="1.1" style="shape-rendering:geometricPrecision; text-rendering:geometricPrecision; image-rendering:optimizeQuality; fill-rule:evenodd; clip-rule:evenodd"
viewBox="0 0 29700 21000"
 xmlns:xlink="http://www.w3.org/1999/xlink">
 <defs>
  <style type="text/css">
   <![CDATA[
    .str0 {stroke:red;stroke-width:7.62;stroke-linejoin:bevel}
    .fil0 {fill:none}
   ]]>
  </style>
 </defs>
 <g id="_0">
  <metadata id="CorelCorpID_0Corel-Layer"/>
  <path class="fil0 str0" d="M25000 17550c0,-83 -67,-150 -150,-150 -83,0 -150,67 -150,150 0,83 67,150 150,150 83,0 150,-67 150,-150z"/>
  <path class="fil0 str0" d="M20000 17550c0,-83 -67,-150 -150,-150 -83,0 -150,67 -150,150 0,83 67,150 150,150 83,0 150,-67 150,-150z"/>
  <path class="fil0 str0" d="M15000 17550c0,-83 -67,-150 -150,-150 -83,0 -150,67 -150,150 0,83 67,150 150,150 83,0 150,-67 150,-150z"/>
  <path class="fil0 str0" d="M25000 13150c0,-83 -67,-150 -150,-150 -83,0 -150,67 -150,150 0,83 67,150 150,150 83,0 150,-67 150,-150z"/>
  <path class="fil0 str0" d="M20000 13150c0,-83 -67,-150 -150,-150 -83,0 -150,67 -150,150 0,83 67,150 150,150 83,0 150,-67 150,-150z"/>
  <path class="fil0 str0" d="M15000 13150c0,-83 -67,-150 -150,-150 -83,0 -150,67 -150,150 0,83 67,150 150,150 83,0 150,-67 150,-150z"/>
  <path class="fil0 str0" d="M10000 13150c0,-83 -67,-150 -150,-150 -83,0 -150,67 -150,150 0,83 67,150 150,150 83,0 150,-67 150,-150z"/>
  <path class="fil0 str0" d="M5000 13150c0,-83 -67,-150 -150,-150 -83,0 -150,67 -150,150 0,83 67,150 150,150 83,0 150,-67 150,-150z"/>
  <path class="fil0 str0" d="M25000 8150c0,-83 -67,-150 -150,-150 -83,0 -150,67 -150,150 0,83 67,150 150,150 83,0 150,-67 150,-150z"/>
  <path class="fil0 str0" d="M20000 8150c0,-83 -67,-150 -150,-150 -83,0 -150,67 -150,150 0,83 67,150 150,150 83,0 150,-67 150,-150z"/>
  <path class="fil0 str0" d="M15000 8150c0,-83 -67,-150 -150,-150 -83,0 -150,67 -150,150 0,83 67,150 150,150 83,0 150,-67 150,-150z"/>
  <path class="fil0 str0" d="M10000 8150c0,-83 -67,-150 -150,-150 -83,0 -150,67 -150,150 0,83 67,150 150,150 83,0 150,-67 150,-150z"/>
  <path class="fil0 str0" d="M5000 8150c0,-83 -67,-150 -150,-150 -83,0 -150,67 -150,150 0,83 67,150 150,150 83,0 150,-67 150,-150z"/>
  <path class="fil0 str0" d="M25000 3150c0,-83 -67,-150 -150,-150 -83,0 -150,67 -150,150 0,83 67,150 150,150 83,0 150,-67 150,-150z"/>
  <path class="fil0 str0" d="M20000 3150c0,-83 -67,-150 -150,-150 -83,0 -150,67 -150,150 0,83 67,150 150,150 83,0 150,-67 150,-150z"/>
  <path class="fil0 str0" d="M15000 3150c0,-83 -67,-150 -150,-150 -83,0 -150,67 -150,150 0,83 67,150 150,150 83,0 150,-67 150,-150z"/>
  <path class="fil0 str0" d="M29000 3150c0,-83 -67,-150 -150,-150 -83,0 -150,67 -150,150 0,83 67,150 150,150 83,0 150,-67 150,-150z"/>
  <path class="fil0 str0" d="M29000 17550c0,-83 -67,-150 -150,-150 -83,0 -150,67 -150,150 0,83 67,150 150,150 83,0 150,-67 150,-150z"/>
  <path class="fil0 str0" d="M29000 12575c0,-83 -67,-150 -150,-150 -83,0 -150,67 -150,150 0,83 67,150 150,150 83,0 150,-67 150,-150z"/>
  <path class="fil0 str0" d="M1000 3150c0,-83 -67,-150 -150,-150 -83,0 -150,67 -150,150 0,83 67,150 150,150 83,0 150,-67 150,-150z"/>
  <path class="fil0 str0" d="M1000 17550c0,-83 -67,-150 -150,-150 -83,0 -150,67 -150,150 0,83 67,150 150,150 83,0 150,-67 150,-150z"/>
  <path class="fil0 str0" d="M1000 12575c0,-83 -67,-150 -150,-150 -83,0 -150,67 -150,150 0,83 67,150 150,150 83,0 150,-67 150,-150z"/>
  <path class="fil0 str0" d="M5000 3150c0,-83 -67,-150 -150,-150 -83,0 -150,67 -150,150 0,83 67,150 150,150 83,0 150,-67 150,-150z"/>
  <path class="fil0 str0" d="M10000 3150c0,-83 -67,-150 -150,-150 -83,0 -150,67 -150,150 0,83 67,150 150,150 83,0 150,-67 150,-150z"/>
  <path class="fil0 str0" d="M5000 17550c0,-83 -67,-150 -150,-150 -83,0 -150,67 -150,150 0,83 67,150 150,150 83,0 150,-67 150,-150z"/>
  <path class="fil0 str0" d="M10000 17550c0,-83 -67,-150 -150,-150 -83,0 -150,67 -150,150 0,83 67,150 150,150 83,0 150,-67 150,-150z"/>
  <polygon class="fil0 str0" points="1023,4150 937,4000 763,4000 677,4150 763,4300 937,4300 "/>
  <polygon class="fil0 str0" points="29550,18200 150,18200 150,2650 29550,2650 "/>
 </g>
</svg>
