<?xml version="1.0" encoding="UTF-8"?>
<!DOCTYPE svg PUBLIC "-//W3C//DTD SVG 1.1//EN" "http://www.w3.org/Graphics/SVG/1.1/DTD/svg11.dtd">
<!-- Creator: CorelDRAW X7 -->
<svg xmlns="http://www.w3.org/2000/svg" xml:space="preserve" width="297mm" height="210mm" version="1.1" style="shape-rendering:geometricPrecision; text-rendering:geometricPrecision; image-rendering:optimizeQuality; fill-rule:evenodd; clip-rule:evenodd"
viewBox="0 0 29700 21000"
 xmlns:xlink="http://www.w3.org/1999/xlink">
 <defs>
  <style type="text/css">
   <![CDATA[
    .str0 {stroke:red;stroke-width:7.62;stroke-linejoin:bevel}
    .fil0 {fill:none}
   ]]>
  </style>
 </defs>
 <g id="_0">
  <metadata id="CorelCorpID_0Corel-Layer"/>
  <path class="fil0 str0" d="M14585 16956c0,-221 -179,-400 -400,-400 -221,0 -400,179 -400,400 0,221 179,400 400,400 221,0 400,-179 400,-400z"/>
  <path class="fil0 str0" d="M14785 15048l0 -12592 -1200 0 0 13700 -200 0 0 300 -2400 0 0 1000 2400 0 0 206 200 0 5001 882 0 -56 129 -733 -2560 -452c174,-989 -412,-1954 -1370,-2255z"/>
 </g>
</svg>
