<?xml version="1.0" encoding="UTF-8"?>
<!DOCTYPE svg PUBLIC "-//W3C//DTD SVG 1.1//EN" "http://www.w3.org/Graphics/SVG/1.1/DTD/svg11.dtd">
<!-- Creator: CorelDRAW X7 -->
<svg xmlns="http://www.w3.org/2000/svg" xml:space="preserve" width="297mm" height="210mm" version="1.1" style="shape-rendering:geometricPrecision; text-rendering:geometricPrecision; image-rendering:optimizeQuality; fill-rule:evenodd; clip-rule:evenodd"
viewBox="0 0 29700 21000"
 xmlns:xlink="http://www.w3.org/1999/xlink">
 <defs>
  <style type="text/css">
   <![CDATA[
    .str0 {stroke:red;stroke-width:15;stroke-linejoin:bevel}
    .fil0 {fill:none}
   ]]>
  </style>
 </defs>
 <g id="_0">
  <metadata id="CorelCorpID_0Corel-Layer"/>
  <path class="fil0 str0" d="M25000 10492c0,-82 -67,-150 -150,-150 -83,0 -150,68 -150,150 0,83 67,150 150,150 83,0 150,-67 150,-150z"/>
  <path class="fil0 str0" d="M20000 10492c0,-82 -67,-150 -150,-150 -83,0 -150,68 -150,150 0,83 67,150 150,150 83,0 150,-67 150,-150z"/>
  <path class="fil0 str0" d="M15000 10492c0,-82 -67,-150 -150,-150 -83,0 -150,68 -150,150 0,83 67,150 150,150 83,0 150,-67 150,-150z"/>
  <path class="fil0 str0" d="M29000 9955c0,-83 -67,-150 -150,-150 -83,0 -150,67 -150,150 0,83 67,150 150,150 83,0 150,-67 150,-150z"/>
  <path class="fil0 str0" d="M29000 10992c0,-82 -67,-150 -150,-150 -83,0 -150,68 -150,150 0,83 67,150 150,150 83,0 150,-67 150,-150z"/>
  <path class="fil0 str0" d="M1000 9955c0,-83 -67,-150 -150,-150 -83,0 -150,67 -150,150 0,83 67,150 150,150 83,0 150,-67 150,-150z"/>
  <path class="fil0 str0" d="M1000 10992c0,-82 -67,-150 -150,-150 -83,0 -150,68 -150,150 0,83 67,150 150,150 83,0 150,-67 150,-150z"/>
  <path class="fil0 str0" d="M5000 10492c0,-82 -67,-150 -150,-150 -83,0 -150,68 -150,150 0,83 67,150 150,150 83,0 150,-67 150,-150z"/>
  <path class="fil0 str0" d="M10000 10492c0,-82 -67,-150 -150,-150 -83,0 -150,68 -150,150 0,83 67,150 150,150 83,0 150,-67 150,-150z"/>
  <polygon class="fil0 str0" points="2023,9955 1937,9805 1763,9805 1677,9955 1763,10105 1937,10105 "/>
  <polygon class="fil0 str0" points="29550,11492 150,11492 150,9558 29550,9558 "/>
 </g>
</svg>
