<?xml version="1.0" encoding="UTF-8"?>
<!DOCTYPE svg PUBLIC "-//W3C//DTD SVG 1.1//EN" "http://www.w3.org/Graphics/SVG/1.1/DTD/svg11.dtd">
<!-- Creator: CorelDRAW X7 -->
<svg xmlns="http://www.w3.org/2000/svg" xml:space="preserve" width="680mm" height="520mm" version="1.1" style="shape-rendering:geometricPrecision; text-rendering:geometricPrecision; image-rendering:optimizeQuality; fill-rule:evenodd; clip-rule:evenodd"
viewBox="0 0 68000 52000"
 xmlns:xlink="http://www.w3.org/1999/xlink">
 <defs>
  <style type="text/css">
   <![CDATA[
    .str0 {stroke:red;stroke-width:7.62;stroke-linejoin:bevel}
    .fil0 {fill:none}
   ]]>
  </style>
 </defs>
 <g id="Layer_x0020_1">
  <metadata id="CorelCorpID_0Corel-Layer"/>
  <path class="fil0 str0" d="M5740 4034c48,-28 64,-89 37,-137 -28,-47 -89,-64 -137,-36 -48,28 -64,89 -36,137 27,48 89,64 136,36z"/>
  <path class="fil0 str0" d="M5740 4034c48,-28 64,-89 37,-137 -28,-47 -89,-64 -137,-36 -48,28 -64,89 -36,137 27,48 89,64 136,36z"/>
  <path class="fil0 str0" d="M4917 6420c191,-111 256,-356 145,-547 -111,-191 -356,-256 -547,-145 -191,111 -256,356 -145,547 111,191 356,256 547,145z"/>
  <path class="fil0 str0" d="M6667 5635l5226 -3033 401 691 175 -101c-93,-252 -199,-499 -317,-741l-602 -1038c-152,-222 -314,-436 -486,-643l-175 102 401 692 -4921 2856 -429 -594c-86,-118 -244,-158 -375,-94 -121,82 -165,239 -104,372l303 668 -1960 1138 1722 4697 -266 155c-67,39 -106,113 -99,191l137 1520c5,57 34,108 80,142 43,33 53,94 21,139 -31,44 -92,55 -137,24 -45,-30 -58,-91 -28,-137 31,-48 40,-106 26,-161l-1212 -4481c-27,-100 -127,-163 -229,-145l-309 56c-102,18 -173,111 -164,214l199 2217c6,57 35,109 80,143 44,32 53,94 22,138 -32,44 -93,55 -138,25 -45,-31 -57,-92 -27,-138 31,-47 40,-106 25,-161l-765 -2830 779 -549c85,-59 110,-174 58,-264l-157 -271c-52,-90 -164,-125 -258,-81l-1790 840c-48,22 -85,63 -103,113 -18,50 -15,105 7,153l767 1633c-26,24 -51,47 -77,69l-1365 -1952 -173 100 2050 3532 -328 190 -502 -864 -346 200 1004 1730 674 -392 -262 -452 173 -100 -701 -1569 255 -147c89,-52 124,-164 80,-258l-802 -1709 968 -454c51,-24 90,-69 106,-124 16,-52 70,-82 123,-67 52,14 83,68 70,121 -13,52 -66,85 -119,72 -56,-12 -114,-1 -161,32l-315 222c-69,48 -100,134 -78,215l987 3649c27,100 126,163 228,145l309 -56c102,-18 173,-111 164,-214l-199 -2217c-5,-57 -34,-109 -80,-143 -43,-32 -53,-94 -21,-138 31,-44 92,-55 137,-25 45,31 57,92 28,138 -31,47 -41,106 -26,161l1207 4461c24,87 103,148 194,148l317 -1c56,0 110,-24 147,-65 38,-42 57,-97 52,-153l-182 -2023 120 -70 536 1462 751 -275 -103 -282 951 -552 -50 -87 346 -201 -201 -346 -346 201 -50 -86 -860 499 -1270 -3465c942,-346 1483,-1337 1262,-2317z"/>
  <path class="fil0 str0" d="M12636 4138c48,-27 64,-89 36,-136 -28,-48 -89,-64 -137,-37 -47,28 -64,89 -36,137 28,48 89,64 137,36z"/>
  <path class="fil0 str0" d="M11812 6524c191,-111 256,-356 146,-547 -111,-191 -356,-256 -547,-145 -191,111 -256,356 -145,547 111,191 355,256 546,145z"/>
  <path class="fil0 str0" d="M13563 5739l5225 -3033 402 692 175 -102c-94,-252 -200,-499 -317,-741l-603 -1038c-151,-222 -313,-436 -486,-642l-175 101 402 692 -4921 2857 -430 -595c-85,-118 -243,-158 -374,-94 -121,82 -165,239 -105,372l303 668 -1960 1138 1723 4697 -266 155c-68,39 -106,113 -99,191l137 1520c5,57 34,109 79,143 44,32 54,94 22,138 -32,44 -93,55 -138,24 -45,-30 -57,-91 -27,-137 31,-47 40,-106 25,-161l-1212 -4481c-27,-100 -126,-163 -228,-144l-309 55c-102,18 -174,111 -164,215l199 2216c5,57 34,109 80,143 43,32 53,94 21,138 -31,45 -92,55 -137,25 -45,-31 -57,-92 -28,-137 31,-48 40,-107 26,-162l-766 -2830 780 -548c85,-60 110,-175 58,-264l-158 -272c-52,-90 -164,-125 -258,-81l-1789 840c-48,22 -85,63 -103,113 -18,50 -16,105 7,153l766 1633c-25,24 -51,47 -77,69l-1364 -1952 -173 100 2050 3532 -329 191 -502 -865 -346 201 1004 1729 675 -391 -262 -452 173 -101 -701 -1568 254 -148c90,-52 125,-164 81,-258l-802 -1709 967 -454c52,-24 91,-69 107,-123 15,-53 70,-83 122,-68 53,14 84,68 71,121 -14,53 -67,85 -120,73 -55,-13 -114,-2 -160,31l-316 222c-68,48 -99,134 -78,216l987 3648c27,100 127,163 229,145l309 -55c102,-19 173,-112 164,-215l-199 -2217c-6,-57 -35,-108 -80,-142 -44,-33 -53,-94 -22,-139 32,-44 93,-55 138,-24 45,30 57,91 27,137 -31,48 -40,106 -25,161l1207 4461c23,88 103,148 193,148l318 -1c56,0 109,-24 147,-65 38,-41 56,-97 51,-153l-181 -2023 119 -70 537 1462 751 -275 -104 -282 952 -552 -51 -87 346 -200 -200 -346 -346 200 -51 -86 -859 499 -1271 -3465c943,-346 1483,-1337 1263,-2317z"/>
  <path class="fil0 str0" d="M19211 4032c48,-28 64,-89 37,-137 -28,-48 -89,-64 -137,-36 -48,27 -64,88 -36,136 27,48 89,64 136,37z"/>
  <path class="fil0 str0" d="M18388 6417c191,-110 256,-355 145,-546 -111,-191 -356,-256 -547,-145 -191,110 -256,355 -145,546 111,191 356,256 547,145z"/>
  <path class="fil0 str0" d="M20138 5633l5226 -3034 402 692 175 -102c-94,-252 -200,-499 -318,-741l-602 -1037c-152,-222 -314,-437 -486,-643l-175 101 401 692 -4921 2857 -429 -595c-86,-118 -244,-158 -375,-93 -121,82 -165,239 -104,372l303 667 -1960 1138 1722 4698 -266 154c-67,39 -105,114 -99,191l137 1520c5,57 34,109 80,143 44,32 53,94 22,138 -32,44 -93,55 -138,25 -45,-31 -57,-92 -28,-137 31,-48 41,-107 26,-162l-1212 -4480c-27,-101 -126,-163 -228,-145l-310 55c-102,18 -173,112 -164,215l200 2217c5,56 34,108 79,142 44,33 54,94 22,138 -31,45 -93,56 -138,25 -45,-31 -57,-92 -27,-137 31,-48 40,-106 25,-161l-765 -2830 780 -549c84,-60 110,-175 57,-264l-157 -272c-52,-89 -164,-124 -258,-80l-1790 839c-48,23 -85,63 -103,113 -18,50 -15,105 7,153l767 1634c-25,23 -51,46 -77,68l-1365 -1952 -173 101 2051 3531 -329 191 -502 -865 -346 201 1004 1730 675 -392 -263 -452 173 -101 -701 -1568 255 -148c89,-52 124,-164 80,-258l-802 -1709 968 -454c51,-24 90,-69 106,-123 16,-52 71,-82 123,-68 52,15 84,68 70,121 -13,53 -66,85 -119,73 -56,-13 -114,-2 -161,31l-315 222c-69,48 -100,135 -78,216l987 3648c27,101 126,163 228,145l309 -55c102,-18 174,-112 164,-215l-199 -2217c-5,-56 -34,-108 -80,-142 -43,-33 -53,-94 -21,-138 31,-45 92,-56 137,-25 45,31 58,92 28,137 -31,48 -40,107 -25,161l1206 4461c24,88 103,148 194,148l317 -1c56,0 110,-23 148,-65 37,-41 56,-97 51,-152l-182 -2024 120 -70 536 1462 751 -275 -103 -282 951 -552 -50 -86 346 -201 -201 -346 -346 201 -50 -87 -860 499 -1270 -3465c943,-345 1483,-1337 1262,-2316z"/>
  <path class="fil0 str0" d="M25787 3925c48,-28 64,-89 36,-137 -27,-48 -89,-64 -136,-36 -48,28 -64,89 -37,136 28,48 89,64 137,37z"/>
  <path class="fil0 str0" d="M24964 6311c191,-111 256,-356 145,-547 -111,-191 -356,-256 -547,-145 -191,111 -256,356 -145,547 111,191 356,256 547,145z"/>
  <path class="fil0 str0" d="M26714 5526l5225 -3034 402 692 175 -101c-93,-252 -199,-500 -317,-741l-603 -1038c-151,-222 -313,-437 -486,-643l-175 102 402 692 -4921 2856 -429 -594c-86,-119 -244,-158 -375,-94 -121,82 -165,239 -105,372l304 668 -1960 1138 1722 4697 -266 154c-67,39 -106,114 -99,191l137 1521c5,56 34,108 79,142 44,33 54,94 22,138 -31,45 -93,56 -138,25 -45,-31 -57,-92 -27,-137 31,-48 40,-107 25,-162l-1212 -4480c-27,-100 -126,-163 -228,-145l-309 55c-102,19 -173,112 -164,215l199 2217c5,57 34,108 80,142 44,33 53,94 22,139 -32,44 -93,55 -138,24 -45,-30 -57,-91 -28,-137 31,-48 41,-106 26,-161l-766 -2830 780 -549c85,-60 110,-174 58,-264l-158 -272c-52,-89 -164,-124 -257,-80l-1790 839c-48,23 -85,64 -103,114 -18,49 -16,104 7,152l766 1634c-25,23 -50,46 -76,69l-1365 -1953 -173 101 2050 3531 -328 191 -502 -865 -346 201 1004 1730 674 -392 -262 -452 173 -100 -701 -1569 254 -147c90,-52 125,-164 81,-258l-802 -1709 967 -454c52,-25 91,-69 107,-124 16,-52 70,-82 123,-68 52,15 83,69 70,121 -14,53 -67,85 -120,73 -55,-13 -113,-1 -160,31l-315 222c-69,49 -100,135 -78,216l987 3649c27,100 126,163 228,144l309 -55c102,-18 173,-111 164,-215l-199 -2216c-5,-57 -34,-109 -80,-143 -44,-32 -53,-94 -22,-138 32,-44 93,-55 138,-25 45,31 57,92 28,137 -31,48 -41,107 -26,162l1207 4461c23,87 103,148 193,147l318 0c56,0 109,-24 147,-66 38,-41 57,-96 52,-152l-182 -2024 120 -69 536 1462 751 -276 -103 -281 951 -553 -50 -86 346 -201 -201 -346 -346 201 -50 -86 -860 499 -1271 -3466c943,-345 1483,-1336 1263,-2316z"/>
  <path class="fil0 str0" d="M32359 3795c47,-28 64,-89 36,-137 -28,-48 -89,-64 -137,-36 -47,28 -64,89 -36,137 28,47 89,64 137,36z"/>
  <path class="fil0 str0" d="M31535 6181c191,-111 256,-356 145,-547 -111,-191 -355,-256 -546,-145 -191,111 -256,356 -145,547 110,191 355,256 546,145z"/>
  <path class="fil0 str0" d="M33286 5396l5225 -3034 402 692 175 -101c-94,-252 -200,-500 -317,-741l-603 -1038c-151,-222 -314,-437 -486,-643l-175 102 402 692 -4921 2856 -430 -594c-85,-119 -243,-158 -375,-94 -120,82 -164,239 -104,372l303 668 -1960 1138 1723 4697 -266 154c-68,39 -106,114 -99,191l136 1521c5,56 34,108 80,142 44,33 53,94 22,138 -32,45 -93,56 -138,25 -45,-31 -57,-92 -27,-137 31,-48 40,-107 25,-161l-1212 -4481c-27,-100 -126,-163 -228,-145l-309 55c-102,19 -174,112 -164,215l199 2217c5,57 34,109 80,143 43,32 53,93 21,138 -31,44 -92,55 -137,24 -45,-30 -58,-91 -28,-137 31,-48 40,-106 26,-161l-766 -2830 780 -549c85,-60 110,-174 58,-264l-158 -271c-52,-90 -164,-125 -258,-81l-1789 839c-48,23 -85,64 -103,114 -18,49 -16,104 7,152l766 1634c-25,23 -51,46 -77,69l-1364 -1952 -173 100 2050 3531 -329 191 -502 -865 -346 201 1004 1730 675 -392 -263 -452 173 -100 -700 -1569 254 -147c90,-52 125,-164 81,-258l-802 -1709 967 -454c52,-24 90,-69 107,-124 15,-52 70,-82 122,-68 53,15 84,69 70,121 -13,53 -66,85 -119,73 -55,-13 -114,-1 -160,31l-316 222c-68,49 -100,135 -78,216l987 3649c27,100 126,163 229,144l309 -55c102,-18 173,-111 164,-215l-200 -2216c-5,-57 -34,-109 -79,-143 -44,-32 -54,-94 -22,-138 32,-44 93,-55 138,-25 45,31 57,92 27,137 -31,48 -40,107 -25,162l1206 4461c24,87 103,148 194,148l318 -1c56,0 109,-24 147,-65 38,-42 56,-97 51,-153l-182 -2024 120 -69 536 1462 751 -276 -103 -281 952 -553 -51 -86 346 -201 -201 -346 -346 201 -50 -86 -860 499 -1270 -3465c943,-346 1483,-1337 1263,-2317z"/>
  <path class="fil0 str0" d="M38938 3711c48,-27 64,-89 37,-136 -28,-48 -89,-64 -137,-37 -48,28 -64,89 -36,137 27,48 89,64 136,36z"/>
  <path class="fil0 str0" d="M38115 6097c191,-111 256,-356 145,-547 -111,-191 -356,-256 -547,-145 -191,111 -256,356 -145,547 111,191 356,256 547,145z"/>
  <path class="fil0 str0" d="M39865 5312l5226 -3033 401 692 175 -102c-93,-252 -199,-499 -317,-741l-602 -1038c-152,-222 -314,-436 -486,-643l-175 102 401 692 -4921 2857 -429 -595c-86,-118 -244,-158 -375,-94 -121,82 -165,239 -104,372l303 668 -1960 1138 1722 4697 -266 155c-67,39 -106,113 -99,191l137 1520c5,57 34,109 80,143 43,32 53,94 21,138 -31,44 -92,55 -137,24 -45,-30 -58,-91 -28,-137 31,-47 40,-106 26,-161l-1212 -4481c-27,-100 -127,-163 -229,-144l-309 55c-102,18 -173,111 -164,215l199 2216c6,57 35,109 80,143 44,32 53,94 22,138 -32,45 -93,55 -138,25 -45,-31 -57,-92 -27,-137 31,-48 40,-107 25,-162l-765 -2830 779 -548c85,-60 110,-175 58,-264l-157 -272c-52,-90 -164,-125 -258,-81l-1790 840c-48,22 -85,63 -103,113 -18,50 -15,105 7,153l767 1633c-26,24 -51,47 -77,69l-1365 -1952 -173 100 2050 3532 -328 191 -502 -865 -346 201 1004 1729 674 -391 -262 -452 173 -101 -701 -1568 255 -148c89,-52 124,-164 80,-258l-802 -1709 968 -454c51,-24 90,-69 106,-124 16,-52 70,-82 123,-67 52,14 83,68 70,121 -13,53 -66,85 -119,73 -56,-13 -114,-2 -161,31l-315 222c-69,48 -100,134 -78,216l987 3648c27,100 126,163 228,145l309 -55c102,-19 173,-112 164,-215l-199 -2217c-5,-57 -34,-108 -80,-142 -43,-33 -53,-94 -21,-139 31,-44 92,-55 137,-24 45,30 57,91 28,137 -31,48 -41,106 -26,161l1207 4461c24,88 103,148 194,148l317 -1c56,0 110,-24 147,-65 38,-41 57,-97 52,-153l-182 -2023 120 -70 536 1462 751 -275 -103 -282 951 -552 -50 -87 346 -200 -201 -346 -346 200 -50 -86 -860 499 -1270 -3465c942,-346 1483,-1337 1262,-2317z"/>
  <path class="fil0 str0" d="M45771 3802c48,-27 64,-89 36,-136 -28,-48 -89,-64 -137,-37 -47,28 -64,89 -36,137 28,48 89,64 137,36z"/>
  <path class="fil0 str0" d="M44947 6188c191,-111 256,-355 146,-546 -111,-192 -356,-257 -547,-146 -191,111 -256,356 -145,547 111,191 355,256 546,145z"/>
  <path class="fil0 str0" d="M46698 5403l5225 -3033 402 692 175 -102c-94,-252 -200,-499 -317,-741l-603 -1038c-151,-222 -313,-436 -486,-642l-175 101 402 692 -4921 2857 -430 -595c-85,-118 -243,-158 -374,-94 -121,82 -165,240 -105,372l303 668 -1960 1138 1723 4698 -266 154c-68,39 -106,113 -99,191l137 1520c5,57 34,109 79,143 44,32 54,94 22,138 -32,44 -93,55 -138,25 -45,-31 -57,-92 -27,-138 31,-47 40,-106 25,-161l-1212 -4481c-27,-100 -126,-162 -228,-144l-309 55c-102,18 -174,112 -164,215l199 2217c5,56 34,108 80,142 43,33 53,94 21,138 -31,45 -92,56 -137,25 -45,-31 -57,-92 -28,-137 31,-48 41,-107 26,-162l-766 -2830 780 -548c85,-60 110,-175 58,-264l-158 -272c-52,-90 -164,-125 -258,-81l-1789 840c-48,23 -85,63 -103,113 -18,50 -16,105 7,153l766 1633c-25,24 -51,47 -77,69l-1364 -1952 -173 100 2050 3532 -329 191 -502 -865 -346 201 1004 1729 675 -391 -262 -452 173 -101 -701 -1568 254 -148c90,-52 125,-164 81,-258l-802 -1709 967 -454c52,-24 91,-69 107,-123 15,-53 70,-83 122,-68 53,14 84,68 71,121 -14,53 -67,85 -120,73 -55,-13 -114,-2 -160,31l-316 222c-68,48 -99,135 -78,216l987 3648c27,100 127,163 229,145l309 -55c102,-19 173,-112 164,-215l-199 -2217c-6,-56 -35,-108 -80,-142 -44,-33 -53,-94 -22,-139 32,-44 93,-55 138,-24 45,30 57,91 27,137 -31,48 -40,106 -25,161l1207 4461c23,88 103,148 193,148l318 -1c56,0 109,-23 147,-65 38,-41 56,-97 51,-153l-181 -2023 119 -70 537 1462 751 -275 -104 -282 952 -552 -51 -86 346 -201 -200 -346 -346 201 -51 -87 -859 499 -1271 -3465c943,-346 1483,-1337 1263,-2317z"/>
  <path class="fil0 str0" d="M5806 16724c46,-31 58,-93 26,-139 -31,-45 -93,-57 -139,-26 -45,31 -57,93 -26,139 31,46 94,57 139,26z"/>
  <path class="fil0 str0" d="M11809 16264c46,-31 58,-93 27,-139 -31,-46 -94,-57 -139,-26 -46,31 -58,93 -27,139 32,45 94,57 139,26z"/>
  <path class="fil0 str0" d="M4801 19408c182,-125 229,-374 105,-556 -125,-183 -374,-230 -556,-105 -183,124 -230,373 -105,556 124,182 373,229 556,105z"/>
  <path class="fil0 str0" d="M10804 18948c183,-125 229,-374 105,-556 -125,-183 -373,-230 -556,-105 -182,124 -229,373 -105,556 125,182 374,229 556,105z"/>
  <path class="fil0 str0" d="M6489 18498l5570 -3801 451 661 173 -118c-115,-243 -240,-480 -377,-712l-676 -991c-166,-211 -341,-415 -525,-610l-174 118 451 661 -4920 3358 -472 -562c-94,-112 -255,-140 -381,-66 -114,90 -146,250 -77,378l351 644 -2229 1522 2237 4954 -192 131c-64,44 -97,121 -84,198l247 1506c9,56 42,106 90,136 45,30 59,90 31,137 -28,46 -88,62 -135,34 -47,-27 -64,-87 -38,-134 28,-50 33,-110 14,-163l-1535 -4381c-34,-98 -138,-153 -238,-127l-304 77c-101,26 -165,124 -148,226l360 2197c9,56 42,105 90,136 45,29 60,90 31,136 -28,47 -88,62 -135,35 -47,-27 -64,-87 -38,-135 28,-50 33,-109 14,-163l-969 -2767 737 -604c81,-65 97,-181 39,-267l-177 -259c-58,-86 -173,-113 -263,-62l-1724 967c-46,26 -80,70 -94,121 -15,51 -8,105 18,152l883 1573c-23,25 -47,50 -72,74l-1634 -2040 -165 113 2192 3213 -313 214 -564 -826 -330 226 1127 1652 644 -440 -54 -80 165 -112 -813 -1514 243 -165c86,-59 112,-173 62,-263l-925 -1647 932 -523c50,-28 85,-75 98,-131 11,-53 63,-87 117,-76 53,10 88,62 79,115 -10,54 -60,90 -114,82 -56,-9 -114,6 -158,42l-298 245c-65,53 -90,141 -62,221l1250 3567c34,98 137,153 238,127l304 -77c100,-26 165,-124 148,-226l-360 -2197c-9,-56 -42,-105 -90,-136 -46,-29 -60,-90 -32,-136 29,-47 89,-62 136,-35 47,27 64,87 37,135 -27,50 -32,109 -13,163l1528 4361c30,85 113,140 203,133l317 -24c56,-4 108,-31 142,-75 35,-44 50,-101 41,-156l-329 -2005 52 -36 1176 2603 729 -329 -123 -274 908 -620 -56 -82 330 -226 -225 -330 -331 225 -56 -82 -821 560 -2232 -4942c915,-413 1382,-1441 1090,-2402z"/>
  <path class="fil0 str0" d="M12493 18037l5569 -3800 451 661 173 -118c-115,-243 -240,-480 -376,-712l-677 -991c-166,-211 -341,-415 -525,-610l-173 118 450 661 -4920 3358 -472 -562c-94,-112 -254,-140 -380,-66 -115,90 -147,250 -77,378l351 644 -2230 1522 2238 4954 -192 131c-65,44 -98,121 -85,198l247 1506c9,56 42,106 90,136 46,30 60,90 31,137 -28,46 -88,61 -135,34 -47,-27 -64,-87 -38,-135 28,-50 33,-109 14,-162l-1535 -4381c-34,-98 -137,-153 -238,-128l-304 78c-101,26 -165,124 -148,226l360 2196c9,57 42,106 90,137 46,29 60,90 31,136 -28,47 -88,62 -135,35 -47,-28 -64,-88 -38,-135 28,-50 33,-109 14,-163l-969 -2767 738 -604c80,-66 97,-182 38,-267l-177 -260c-58,-85 -173,-112 -263,-61l-1724 967c-46,26 -80,69 -94,120 -15,52 -8,106 18,152l883 1574c-23,25 -47,50 -71,74l-1635 -2040 -165 113 2193 3213 -314 214 -564 -826 -330 225 1127 1652 644 -439 -54 -80 165 -112 -813 -1514 243 -166c86,-58 113,-172 62,-263l-924 -1646 931 -523c50,-28 86,-76 98,-131 12,-53 64,-87 117,-77 53,11 88,63 79,116 -10,54 -60,90 -114,81 -56,-8 -114,7 -158,43l-298 245c-65,53 -90,141 -62,220l1250 3568c34,97 137,153 238,127l304 -77c101,-26 165,-124 148,-227l-360 -2196c-9,-56 -42,-106 -90,-136 -46,-29 -60,-90 -31,-137 28,-46 88,-61 135,-34 47,27 64,87 38,135 -28,50 -33,109 -14,162l1528 4362c30,85 113,140 204,133l316 -24c56,-4 108,-31 143,-75 34,-45 49,-101 40,-157l-329 -2004 53 -36 1175 2603 729 -330 -123 -273 908 -620 -56 -83 331 -225 -226 -330 -330 225 -57 -83 -821 561 -2232 -4942c915,-414 1382,-1441 1091,-2403z"/>
  <path class="fil0 str0" d="M17306 16224c46,-31 58,-93 26,-139 -31,-45 -93,-57 -139,-26 -45,31 -57,93 -26,139 31,46 94,57 139,26z"/>
  <path class="fil0 str0" d="M16301 18908c182,-125 229,-374 105,-556 -125,-183 -374,-230 -556,-105 -183,124 -230,373 -105,556 124,182 373,229 556,105z"/>
  <path class="fil0 str0" d="M17990 17998l5569 -3801 451 661 173 -118c-115,-243 -240,-480 -377,-712l-676 -991c-166,-211 -341,-415 -525,-610l-174 118 451 661 -4920 3358 -472 -562c-94,-112 -255,-140 -381,-66 -114,90 -146,250 -77,378l351 644 -2229 1522 2237 4954 -192 131c-64,44 -97,121 -84,198l247 1506c9,56 42,106 90,136 45,30 60,90 31,137 -28,46 -88,62 -135,34 -47,-27 -64,-87 -38,-134 28,-50 33,-110 14,-163l-1535 -4381c-34,-98 -138,-153 -238,-127l-304 77c-101,26 -165,124 -148,226l360 2197c9,56 42,105 90,136 45,29 60,90 31,136 -28,47 -88,62 -135,35 -47,-27 -64,-87 -38,-135 28,-50 33,-109 14,-163l-969 -2766 737 -605c81,-65 97,-181 39,-267l-177 -259c-58,-86 -173,-113 -263,-62l-1724 967c-46,26 -80,70 -94,121 -15,51 -8,105 18,152l883 1573c-23,25 -47,50 -72,74l-1634 -2040 -165 113 2192 3213 -313 214 -564 -826 -330 226 1127 1652 644 -440 -54 -80 165 -112 -813 -1514 243 -165c86,-59 112,-173 62,-263l-925 -1647 932 -523c50,-28 85,-75 98,-131 11,-53 63,-87 117,-76 53,10 88,62 79,115 -10,54 -60,90 -114,82 -56,-9 -114,6 -158,42l-298 245c-65,53 -90,141 -62,221l1250 3567c34,98 137,153 238,127l304 -77c100,-26 165,-124 148,-226l-360 -2197c-9,-56 -42,-105 -90,-136 -46,-29 -60,-90 -32,-136 29,-47 89,-62 136,-35 47,27 64,87 37,135 -27,50 -32,109 -13,163l1528 4361c30,85 113,140 203,133l317 -24c56,-4 108,-31 142,-75 35,-44 50,-101 41,-156l-329 -2005 52 -36 1176 2603 729 -329 -123 -274 908 -620 -56 -82 330 -226 -225 -330 -331 225 -56 -82 -821 560 -2232 -4942c915,-413 1382,-1441 1091,-2402z"/>
  <path class="fil0 str0" d="M22806 16224c46,-31 58,-93 26,-139 -31,-45 -93,-57 -139,-26 -45,31 -57,93 -26,139 31,46 94,57 139,26z"/>
  <path class="fil0 str0" d="M21801 18908c182,-125 229,-374 105,-556 -125,-183 -374,-230 -556,-105 -183,124 -230,373 -105,556 124,182 373,229 556,105z"/>
  <path class="fil0 str0" d="M23490 17998l5569 -3801 451 661 173 -118c-115,-243 -240,-480 -377,-712l-676 -991c-166,-211 -341,-415 -525,-610l-174 118 451 661 -4920 3358 -472 -562c-94,-112 -255,-140 -381,-66 -114,90 -146,250 -77,378l351 644 -2229 1522 2237 4954 -192 131c-64,44 -97,121 -84,198l247 1506c9,56 42,106 90,136 45,30 60,90 31,137 -28,46 -88,62 -135,34 -47,-27 -64,-87 -38,-134 28,-50 33,-110 14,-163l-1535 -4381c-34,-98 -138,-153 -238,-127l-304 77c-101,26 -165,124 -148,226l360 2197c9,56 42,105 90,136 45,29 60,90 31,136 -28,47 -88,62 -135,35 -47,-27 -64,-87 -38,-135 28,-50 33,-109 14,-163l-969 -2766 737 -605c81,-65 97,-181 39,-267l-177 -259c-58,-86 -173,-113 -263,-62l-1724 967c-46,26 -80,70 -94,121 -15,51 -8,105 18,152l883 1573c-23,25 -47,50 -72,74l-1634 -2040 -165 113 2192 3213 -313 214 -564 -826 -330 226 1127 1652 644 -440 -54 -80 165 -112 -813 -1514 243 -165c86,-59 112,-173 62,-263l-925 -1647 932 -523c50,-28 85,-75 98,-131 11,-53 63,-87 117,-76 53,10 88,62 79,115 -10,54 -60,90 -114,82 -56,-9 -114,6 -158,42l-298 245c-65,53 -90,141 -62,221l1250 3567c34,98 137,153 238,127l304 -77c100,-26 165,-124 148,-226l-360 -2197c-9,-56 -42,-105 -90,-136 -46,-29 -60,-90 -32,-136 29,-47 89,-62 136,-35 47,27 64,87 37,135 -27,50 -32,109 -13,163l1528 4361c30,85 113,140 203,133l317 -24c56,-4 108,-31 142,-75 35,-44 50,-101 41,-156l-329 -2005 52 -36 1176 2603 729 -329 -123 -274 908 -620 -56 -82 330 -226 -225 -330 -331 225 -56 -82 -821 560 -2232 -4942c915,-413 1382,-1441 1091,-2402z"/>
  <path class="fil0 str0" d="M28215 16261c45,-31 57,-94 26,-139 -31,-46 -93,-58 -139,-26 -46,31 -57,93 -26,138 31,46 93,58 139,27z"/>
  <path class="fil0 str0" d="M27209 18944c183,-124 230,-373 105,-556 -124,-182 -373,-229 -556,-105 -182,125 -229,374 -105,556 125,183 374,230 556,105z"/>
  <path class="fil0 str0" d="M28898 18034l5569 -3800 451 661 174 -119c-115,-242 -241,-480 -377,-711l-676 -991c-166,-211 -342,-415 -526,-611l-173 119 451 661 -4921 3357 -472 -561c-93,-112 -254,-140 -380,-67 -115,91 -147,251 -77,379l351 644 -2230 1521 2238 4955 -192 131c-64,44 -97,121 -85,197l247 1507c9,56 42,105 90,136 46,29 60,90 32,136 -29,47 -89,62 -136,35 -47,-27 -64,-87 -37,-135 27,-50 32,-109 13,-163l-1534 -4380c-35,-98 -138,-154 -239,-128l-304 78c-100,25 -165,123 -148,226l360 2196c9,56 42,106 90,136 46,30 60,90 32,137 -29,46 -89,62 -136,34 -47,-27 -64,-87 -37,-134 27,-50 32,-110 13,-163l-969 -2767 738 -604c80,-66 97,-182 38,-268l-177 -259c-58,-86 -172,-112 -263,-62l-1723 968c-47,26 -81,69 -95,120 -14,51 -8,106 18,152l883 1574c-23,25 -47,50 -71,74l-1634 -2040 -166 112 2193 3214 -314 214 -564 -826 -330 225 1127 1652 645 -439 -55 -80 165 -113 -813 -1513 243 -166c86,-58 113,-173 62,-263l-924 -1646 932 -523c49,-28 85,-76 97,-131 12,-54 64,-87 117,-77 54,11 89,62 79,116 -9,53 -60,89 -114,81 -56,-9 -113,7 -157,43l-299 244c-65,53 -90,142 -62,221l1250 3567c34,98 138,154 238,128l304 -78c101,-25 165,-124 148,-226l-360 -2196c-9,-56 -42,-106 -90,-137 -45,-29 -60,-89 -31,-136 28,-46 88,-62 135,-34 47,27 64,87 38,134 -28,50 -33,109 -14,163l1528 4362c30,85 114,140 204,133l317 -24c56,-4 107,-32 142,-76 34,-44 49,-100 40,-156l-329 -2005 53 -36 1175 2604 730 -330 -124 -273 909 -620 -57 -83 331 -225 -226 -331 -330 226 -56 -83 -822 561 -2232 -4942c915,-414 1382,-1442 1091,-2403z"/>
  <path class="fil0 str0" d="M33969 16071c45,-31 57,-94 26,-139 -31,-46 -93,-58 -139,-26 -46,31 -57,93 -26,138 31,46 93,58 139,27z"/>
  <path class="fil0 str0" d="M32963 18754c183,-124 230,-373 105,-556 -124,-182 -373,-229 -555,-105 -183,125 -230,374 -105,556 124,183 373,230 555,105z"/>
  <path class="fil0 str0" d="M34652 17844l5569 -3800 451 661 174 -119c-115,-242 -241,-480 -377,-711l-676 -991c-166,-211 -341,-415 -525,-611l-174 119 451 661 -4921 3357 -471 -561c-94,-112 -255,-140 -381,-67 -114,91 -147,251 -77,379l351 644 -2230 1521 2238 4955 -192 131c-64,44 -97,121 -85,197l247 1507c9,56 42,105 90,136 46,29 60,90 32,136 -28,47 -89,62 -136,35 -47,-27 -63,-87 -37,-135 27,-50 32,-109 13,-163l-1534 -4380c-35,-98 -138,-154 -238,-128l-305 78c-100,25 -164,123 -148,226l360 2196c10,56 42,106 90,136 46,30 60,90 32,137 -28,46 -89,62 -136,34 -47,-27 -63,-87 -37,-134 27,-50 32,-110 14,-163l-970 -2767 738 -604c80,-66 97,-182 39,-268l-177 -259c-59,-86 -173,-112 -264,-62l-1723 968c-46,26 -80,69 -95,120 -14,51 -8,106 18,152l884 1573c-24,26 -48,51 -72,75l-1634 -2040 -165 112 2192 3213 -314 215 -563 -826 -331 225 1127 1652 645 -439 -55 -80 166 -113 -813 -1513 243 -166c85,-58 112,-173 61,-263l-924 -1646 932 -523c50,-28 85,-76 97,-131 12,-54 64,-87 117,-77 54,11 89,62 79,116 -9,53 -60,89 -114,81 -56,-9 -113,7 -157,43l-299 244c-65,53 -89,142 -62,221l1250 3567c34,98 138,154 238,128l305 -78c100,-25 164,-124 148,-226l-360 -2196c-10,-56 -42,-106 -90,-137 -46,-29 -60,-89 -32,-136 28,-46 88,-62 136,-34 47,27 63,87 37,134 -28,50 -32,109 -14,163l1528 4362c30,85 114,140 204,133l317 -24c56,-4 107,-32 142,-76 35,-44 49,-100 40,-156l-328 -2005 52 -36 1176 2603 729 -329 -124 -273 909 -620 -56 -83 330 -225 -226 -331 -330 226 -56 -83 -822 561 -2232 -4942c915,-414 1382,-1442 1091,-2403z"/>
  <path class="fil0 str0" d="M39215 16261c45,-31 57,-94 26,-139 -31,-46 -93,-58 -139,-26 -46,31 -57,93 -26,138 31,46 93,58 139,27z"/>
  <path class="fil0 str0" d="M38209 18944c183,-124 230,-373 105,-556 -124,-182 -373,-229 -556,-105 -182,125 -229,374 -105,556 125,183 374,230 556,105z"/>
  <path class="fil0 str0" d="M39898 18034l5569 -3800 451 661 174 -119c-115,-242 -241,-480 -377,-711l-676 -991c-166,-211 -342,-415 -526,-611l-173 119 451 661 -4921 3357 -472 -561c-93,-112 -254,-140 -380,-67 -115,91 -147,251 -77,379l351 644 -2230 1521 2238 4955 -192 131c-64,44 -97,121 -85,197l247 1507c9,56 42,105 90,136 46,29 60,90 32,136 -29,47 -89,62 -136,35 -47,-27 -64,-87 -37,-135 27,-50 32,-109 13,-163l-1534 -4380c-35,-98 -138,-154 -239,-128l-304 78c-100,25 -165,123 -148,226l360 2196c9,56 42,106 90,136 46,30 60,90 32,137 -29,46 -89,62 -136,34 -47,-27 -64,-87 -37,-134 27,-50 32,-110 13,-163l-969 -2767 738 -604c80,-66 97,-182 38,-268l-177 -259c-58,-86 -172,-112 -263,-62l-1723 968c-47,26 -81,69 -95,120 -14,51 -8,106 18,152l883 1574c-23,25 -47,50 -71,74l-1634 -2040 -166 112 2193 3214 -314 214 -564 -826 -330 225 1127 1652 645 -439 -55 -80 165 -113 -813 -1513 243 -166c86,-58 113,-173 62,-263l-924 -1646 932 -523c49,-28 85,-76 97,-131 12,-54 64,-87 117,-77 54,11 89,62 79,116 -9,53 -60,89 -114,81 -56,-9 -113,7 -157,43l-299 244c-65,53 -90,142 -62,221l1250 3567c34,98 138,154 238,128l304 -78c101,-25 165,-124 148,-226l-360 -2196c-9,-56 -42,-106 -90,-137 -45,-29 -60,-89 -31,-136 28,-46 88,-62 135,-34 47,27 64,87 38,134 -28,50 -33,109 -14,163l1528 4362c30,85 114,140 204,133l317 -24c56,-4 107,-32 142,-76 34,-44 49,-100 40,-156l-329 -2005 53 -36 1175 2604 730 -330 -124 -273 909 -620 -57 -83 331 -225 -226 -331 -330 226 -56 -83 -822 561 -2232 -4942c915,-414 1382,-1442 1091,-2403z"/>
  <path class="fil0 str0" d="M44623 16297c46,-31 57,-93 26,-139 -31,-45 -93,-57 -139,-26 -45,31 -57,93 -26,139 31,46 93,57 139,26z"/>
  <path class="fil0 str0" d="M43618 18981c182,-125 229,-374 105,-556 -125,-183 -374,-230 -556,-105 -183,124 -230,373 -105,556 124,182 373,229 556,105z"/>
  <path class="fil0 str0" d="M45306 18071l5569 -3800 451 660 174 -118c-115,-243 -241,-480 -377,-712l-676 -991c-166,-211 -341,-415 -525,-610l-174 118 451 661 -4920 3358 -472 -562c-94,-112 -255,-140 -381,-66 -114,90 -147,250 -77,378l351 644 -2230 1522 2238 4954 -192 131c-64,44 -97,121 -84,198l246 1506c10,56 42,106 90,136 46,30 60,90 32,137 -28,46 -88,62 -136,34 -47,-27 -63,-87 -37,-134 28,-50 33,-109 14,-163l-1535 -4381c-34,-98 -138,-153 -238,-127l-305 77c-100,26 -164,124 -147,226l360 2197c9,56 41,105 89,136 46,29 60,90 32,136 -28,47 -88,62 -135,35 -48,-27 -64,-87 -38,-135 28,-50 33,-109 14,-163l-970 -2766 738 -605c81,-65 97,-181 39,-267l-177 -259c-59,-86 -173,-113 -263,-62l-1724 967c-46,26 -80,70 -95,121 -14,51 -7,105 19,152l883 1573c-24,25 -48,50 -72,74l-1634 -2040 -165 113 2192 3213 -314 214 -563 -826 -331 226 1128 1652 644 -440 -54 -80 165 -112 -813 -1514 243 -165c85,-59 112,-173 61,-263l-924 -1647 932 -523c50,-28 85,-75 97,-131 12,-53 64,-87 118,-76 53,10 88,62 79,115 -10,54 -61,90 -114,82 -57,-9 -114,6 -158,42l-298 245c-65,53 -90,141 -62,221l1249 3567c35,98 138,153 239,127l304 -77c100,-26 165,-124 148,-226l-360 -2197c-9,-56 -42,-105 -90,-136 -46,-29 -60,-90 -32,-136 28,-47 89,-62 136,-35 47,27 63,87 37,135 -27,50 -32,109 -13,163l1528 4361c29,85 113,140 203,133l317 -24c56,-4 108,-31 142,-75 35,-44 49,-101 40,-156l-328 -2005 52 -36 1176 2603 729 -329 -124 -274 909 -620 -56 -82 330 -226 -225 -330 -331 225 -56 -82 -821 560 -2233 -4942c916,-413 1382,-1441 1091,-2402z"/>
  <path class="fil0 str0" d="M50306 16224c46,-31 58,-93 26,-139 -31,-45 -93,-57 -139,-26 -45,31 -57,93 -26,139 31,46 94,57 139,26z"/>
  <path class="fil0 str0" d="M49301 18908c182,-125 229,-374 105,-556 -125,-183 -374,-230 -556,-105 -183,124 -230,373 -105,556 124,182 373,229 556,105z"/>
  <path class="fil0 str0" d="M50990 17998l5569 -3801 451 661 173 -118c-115,-243 -240,-480 -377,-712l-676 -991c-166,-211 -341,-415 -525,-610l-174 118 451 661 -4920 3358 -472 -562c-94,-112 -255,-140 -381,-66 -114,90 -146,250 -77,378l351 644 -2229 1522 2237 4954 -192 131c-64,44 -97,121 -84,198l247 1506c9,56 42,106 90,136 45,30 60,90 31,137 -28,46 -88,62 -135,34 -47,-27 -64,-87 -38,-134 28,-50 33,-110 14,-163l-1535 -4381c-34,-98 -138,-153 -238,-127l-304 77c-101,26 -165,124 -148,226l360 2197c9,56 42,105 90,136 45,29 60,90 31,136 -28,47 -88,62 -135,35 -47,-27 -64,-87 -38,-135 28,-50 33,-109 14,-163l-969 -2766 737 -605c81,-65 97,-181 39,-267l-177 -259c-58,-86 -173,-113 -263,-62l-1724 967c-46,26 -80,70 -94,121 -15,51 -8,105 18,152l883 1573c-23,25 -47,50 -72,74l-1634 -2040 -165 113 2192 3213 -313 214 -564 -826 -330 226 1127 1652 644 -440 -54 -80 165 -112 -813 -1514 243 -165c86,-59 112,-173 62,-263l-925 -1647 932 -523c50,-28 85,-75 98,-131 11,-53 63,-87 117,-76 53,10 88,62 79,115 -10,54 -60,90 -114,82 -56,-9 -114,6 -158,42l-298 245c-65,53 -90,141 -62,221l1250 3567c34,98 137,153 238,127l304 -77c100,-26 165,-124 148,-226l-360 -2197c-9,-56 -42,-105 -90,-136 -46,-29 -60,-90 -32,-136 29,-47 89,-62 136,-35 47,27 64,87 37,135 -27,50 -32,109 -13,163l1528 4361c30,85 113,140 203,133l317 -24c56,-4 108,-31 142,-75 35,-44 50,-101 41,-156l-329 -2005 52 -36 1176 2603 729 -329 -123 -274 908 -620 -56 -82 330 -226 -225 -330 -331 225 -56 -82 -821 560 -2232 -4942c915,-413 1382,-1441 1091,-2402z"/>
  <path class="fil0 str0" d="M55806 16224c46,-31 58,-93 26,-139 -31,-45 -93,-57 -139,-26 -45,31 -57,93 -26,139 31,46 94,57 139,26z"/>
  <path class="fil0 str0" d="M54801 18908c182,-125 229,-374 105,-556 -125,-183 -374,-230 -556,-105 -183,124 -230,373 -105,556 124,182 373,229 556,105z"/>
  <path class="fil0 str0" d="M56490 17998l5569 -3801 451 661 173 -118c-115,-243 -240,-480 -377,-712l-676 -991c-166,-211 -341,-415 -525,-610l-174 118 451 661 -4920 3358 -472 -562c-94,-112 -255,-140 -381,-66 -114,90 -146,250 -77,378l351 644 -2229 1522 2237 4954 -192 131c-64,44 -97,121 -84,198l247 1506c9,56 42,106 90,136 45,30 60,90 31,137 -28,46 -88,62 -135,34 -47,-27 -64,-87 -38,-134 28,-50 33,-110 14,-163l-1535 -4381c-34,-98 -138,-153 -238,-127l-304 77c-101,26 -165,124 -148,226l360 2197c9,56 42,105 90,136 45,29 60,90 31,136 -28,47 -88,62 -135,35 -47,-27 -64,-87 -38,-135 28,-50 33,-109 14,-163l-969 -2766 737 -605c81,-65 97,-181 39,-267l-177 -259c-58,-86 -173,-113 -263,-62l-1724 967c-46,26 -80,70 -94,121 -15,51 -8,105 18,152l883 1573c-23,25 -47,50 -72,74l-1634 -2040 -165 113 2192 3213 -313 214 -564 -826 -330 226 1127 1652 644 -440 -54 -80 165 -112 -813 -1514 243 -165c86,-59 112,-173 62,-263l-925 -1647 932 -523c50,-28 85,-75 98,-131 11,-53 63,-87 117,-76 53,10 88,62 79,115 -10,54 -60,90 -114,82 -56,-9 -114,6 -158,42l-298 245c-65,53 -90,141 -62,221l1250 3567c34,98 137,153 238,127l304 -77c100,-26 165,-124 148,-226l-360 -2197c-9,-56 -42,-105 -90,-136 -46,-29 -60,-90 -32,-136 29,-47 89,-62 136,-35 47,27 64,87 37,135 -27,50 -32,109 -13,163l1528 4361c30,85 113,140 203,133l317 -24c56,-4 108,-31 142,-75 35,-44 50,-101 41,-156l-329 -2005 52 -36 1176 2603 729 -329 -123 -274 908 -620 -56 -82 330 -226 -225 -330 -331 225 -56 -82 -821 560 -2232 -4942c915,-413 1382,-1441 1091,-2402z"/>
  <path class="fil0 str0" d="M61058 16260c46,-31 58,-93 27,-139 -31,-46 -94,-57 -139,-26 -46,31 -58,93 -27,139 32,45 94,57 139,26z"/>
  <path class="fil0 str0" d="M53037 3707c48,-26 66,-87 40,-135 -26,-49 -87,-67 -136,-40 -48,26 -66,87 -40,135 26,49 87,67 136,40z"/>
  <path class="fil0 str0" d="M60053 18944c183,-125 230,-374 105,-556 -124,-183 -373,-230 -556,-105 -182,124 -229,373 -105,556 125,182 374,229 556,105z"/>
  <path class="fil0 str0" d="M51763 6275c195,-106 267,-348 161,-543 -105,-194 -348,-266 -542,-161 -194,106 -266,348 -161,543 105,194 348,266 542,161z"/>
  <path class="fil0 str0" d="M61742 18033l5569 -3800 451 661 173 -118c-114,-243 -240,-480 -376,-712l-677 -991c-165,-211 -341,-415 -525,-610l-173 118 451 661 -4921 3358 -472 -562c-94,-112 -254,-140 -380,-66 -115,90 -147,250 -77,378l351 644 -2230 1522 2238 4954 -192 131c-65,44 -98,121 -85,198l247 1506c9,56 42,106 90,136 46,30 60,90 31,137 -28,46 -88,61 -135,34 -47,-27 -64,-87 -38,-135 28,-49 33,-109 14,-162l-1535 -4381c-34,-98 -137,-153 -238,-128l-304 78c-101,26 -165,124 -148,226l360 2197c9,56 42,105 90,136 46,29 60,90 32,136 -29,47 -89,62 -136,35 -47,-28 -64,-87 -37,-135 27,-50 32,-109 13,-163l-969 -2767 738 -604c80,-65 97,-182 38,-267l-177 -260c-58,-85 -172,-112 -263,-61l-1724 967c-46,26 -80,69 -94,121 -14,51 -8,105 18,152l883 1573c-23,25 -47,50 -71,74l-1635 -2040 -165 113 2193 3213 -314 214 -564 -826 -330 225 1127 1653 644 -440 -54 -80 165 -112 -813 -1514 243 -165c86,-59 113,-173 62,-264l-924 -1646 932 -523c49,-28 85,-75 97,-131 12,-53 64,-87 117,-76 53,10 88,62 79,115 -10,54 -60,90 -114,81 -56,-8 -113,7 -158,43l-298 245c-65,53 -90,141 -62,220l1250 3568c34,97 137,153 238,127l304 -77c101,-26 165,-124 148,-226l-360 -2197c-9,-56 -42,-106 -90,-136 -46,-29 -60,-90 -31,-136 28,-47 88,-62 135,-35 47,27 64,87 38,135 -28,50 -33,109 -14,163l1528 4361c30,85 113,140 204,133l316 -24c56,-4 108,-31 143,-75 34,-45 49,-101 40,-156l-329 -2005 53 -36 1175 2603 729 -329 -123 -274 909 -620 -57 -82 331 -226 -226 -330 -330 225 -57 -82 -821 560 -2232 -4942c915,-413 1382,-1441 1091,-2403z"/>
  <path class="fil0 str0" d="M53536 5541l5927 -3213 381 703 185 -100c-89,-253 -190,-502 -302,-746l-572 -1055c-144,-227 -297,-447 -460,-660l-185 100 381 703 -5237 2839 -412 -607c-82,-121 -239,-165 -372,-105 -123,79 -171,235 -115,369l284 677 -2373 1286 1721 5157 -204 110c-68,37 -109,111 -104,188l92 1524c3,57 31,109 75,145 43,34 51,95 18,139 -33,43 -94,52 -138,20 -45,-32 -55,-93 -24,-138 32,-47 43,-105 30,-160l-1080 -4514c-25,-101 -122,-167 -224,-152l-311 47c-103,15 -176,106 -170,209l134 2222c4,57 31,110 76,145 42,34 50,95 17,139 -32,43 -94,52 -138,20 -44,-32 -54,-93 -23,-138 32,-46 43,-105 30,-160l-683 -2851 796 -526c86,-57 115,-171 65,-262l-149 -276c-50,-92 -161,-130 -256,-89l-1813 787c-49,22 -87,61 -106,110 -20,50 -19,105 2,154l718 1655c-25,22 -52,45 -78,66l-1418 -2196 -176 96 1854 3419 -334 181 -477 -879 -351 191 953 1758 685 -372 -46 -84 176 -96 -654 -1588 258 -140c91,-49 130,-160 88,-255l-751 -1732 980 -426c52,-22 92,-66 110,-120 17,-52 73,-80 125,-64 51,16 81,70 66,123 -15,52 -69,83 -121,69 -55,-14 -114,-5 -162,27l-321 212c-70,47 -104,132 -84,214l879 3675c25,101 122,167 224,152l311 -46c103,-16 176,-107 170,-210l-134 -2222c-4,-57 -31,-109 -76,-145 -42,-34 -50,-95 -17,-139 32,-43 94,-52 138,-20 44,32 54,93 24,138 -33,47 -44,105 -31,160l1076 4495c21,88 99,151 189,153l318 8c56,2 110,-20 149,-60 39,-41 59,-96 56,-152l-123 -2028 56 -30 904 2709 759 -253 -95 -284 967 -525 -47 -88 351 -190 -190 -352 -352 191 -48 -88 -874 474 -1717 -5144c953,-318 1522,-1293 1330,-2279z"/>
  <path class="fil0 str0" d="M6185 31598c45,-33 54,-95 22,-140 -33,-44 -96,-54 -140,-21 -45,33 -54,95 -22,140 33,44 96,54 140,21z"/>
  <path class="fil0 str0" d="M11330 31098c45,-33 54,-95 22,-140 -33,-44 -95,-54 -140,-21 -45,33 -54,95 -21,140 32,44 95,54 139,21z"/>
  <path class="fil0 str0" d="M4413 34945c178,-131 216,-381 86,-559 -131,-178 -381,-217 -560,-86 -178,131 -216,381 -85,559 130,178 381,217 559,86z"/>
  <path class="fil0 str0" d="M9558 34445c178,-131 216,-381 86,-559 -131,-178 -381,-217 -559,-86 -178,131 -217,381 -86,559 130,178 381,217 559,86z"/>
  <path class="fil0 str0" d="M6069 33978l7129 -5231 474 645 183 -134c-130,-235 -268,-464 -415,-688l-710 -968c-170,-207 -347,-408 -532,-602l-183 135 473 645 -5636 4135 -491 -545c-97,-109 -259,-131 -382,-53 -112,94 -139,255 -64,381l372 631 -3035 2228 2789 5651 -66 49c-63,46 -93,124 -78,200l298 1497c11,56 46,104 95,133 46,28 63,88 36,135 -27,48 -86,65 -134,40 -48,-26 -67,-85 -42,-134 25,-51 28,-110 8,-163l-1684 -4326c-38,-96 -143,-148 -242,-119l-302 88c-99,29 -160,129 -140,231l435 2183c11,56 45,104 94,133 47,28 63,88 37,135 -27,48 -87,65 -135,39 -48,-25 -66,-85 -42,-133 26,-51 29,-110 8,-163l-1063 -2732 717 -629c78,-69 90,-185 29,-269l-186 -253c-61,-84 -176,-107 -265,-53l-1689 1026c-46,28 -78,72 -91,124 -12,51 -4,106 24,151l936 1542c-22,26 -45,52 -69,77l-1869 -2209 -161 118 1963 2675 -307 225 -591 -807 -323 237 1183 1612 629 -461 448 610 161 -118 -864 -1485 237 -174c83,-61 106,-176 52,-265l-980 -1614 914 -554c48,-30 82,-79 93,-135 9,-53 60,-89 114,-80 54,9 91,59 83,113 -8,54 -57,91 -111,85 -57,-7 -113,11 -156,48l-290 255c-63,55 -85,144 -55,222l1371 3523c38,96 143,148 243,119l301 -88c100,-29 161,-129 140,-231l-434 -2183c-12,-56 -46,-104 -95,-133 -47,-28 -63,-88 -36,-135 26,-47 86,-65 134,-39 48,25 67,85 42,133 -26,51 -29,110 -8,163l1676 4307c33,84 119,136 208,126l316 -34c56,-7 107,-36 140,-81 33,-45 45,-102 35,-157l-333 -1668 2279 4618 718 -355 -133 -269 887 -650 -59 -81 322 -237 -236 -322 -323 237 -59 -81 -802 588 -3933 -7969c901,-444 1332,-1488 1008,-2438z"/>
  <path class="fil0 str0" d="M11214 33478l7129 -5231 474 645 183 -134c-130,-235 -268,-464 -415,-688l-710 -968c-169,-207 -347,-408 -531,-602l-184 135 474 645 -5637 4135 -491 -545c-97,-109 -259,-131 -382,-53 -111,94 -138,255 -64,381l373 631 -3036 2228 2789 5651 -66 49c-63,46 -93,124 -78,200l298 1497c11,56 46,104 95,133 47,28 63,88 36,135 -27,48 -86,65 -134,40 -48,-26 -67,-85 -42,-134 25,-51 28,-110 8,-163l-1684 -4326c-38,-96 -143,-148 -242,-119l-302 88c-99,29 -160,129 -140,231l435 2183c11,56 45,104 94,133 47,28 63,88 37,135 -27,48 -86,65 -134,39 -48,-25 -67,-85 -42,-133 25,-51 28,-110 8,-163l-1064 -2732 717 -629c78,-69 91,-185 29,-269l-186 -253c-61,-84 -176,-107 -265,-53l-1689 1026c-45,28 -78,72 -91,124 -12,51 -4,106 24,151l936 1542c-22,26 -45,52 -69,77l-1869 -2209 -161 118 1963 2675 -307 225 -591 -807 -323 237 1183 1612 629 -461 448 610 161 -118 -864 -1485 237 -174c83,-61 106,-176 52,-265l-980 -1614 914 -554c49,-30 82,-79 93,-135 10,-53 61,-89 114,-80 54,9 91,59 83,113 -8,54 -57,91 -111,85 -57,-7 -113,11 -156,48l-290 255c-63,55 -85,144 -54,222l1371 3523c37,96 142,148 242,119l301 -88c100,-29 161,-129 141,-231l-435 -2183c-11,-56 -46,-104 -95,-133 -47,-28 -63,-88 -36,-135 27,-47 86,-65 134,-39 48,25 67,85 42,133 -26,51 -29,110 -8,163l1676 4307c33,84 119,136 209,126l315 -34c56,-7 107,-36 140,-81 33,-45 46,-102 35,-157l-333 -1668 2279 4618 718 -355 -133 -269 887 -650 -59 -81 322 -237 -236 -322 -323 237 -59 -81 -802 588 -3933 -7969c901,-444 1332,-1488 1008,-2438z"/>
  <path class="fil0 str0" d="M16685 31044c45,-33 54,-96 22,-140 -33,-45 -96,-54 -140,-22 -45,33 -54,96 -22,140 33,45 96,54 140,22z"/>
  <path class="fil0 str0" d="M14913 34391c178,-131 216,-381 86,-560 -131,-178 -381,-216 -560,-85 -178,130 -216,381 -85,559 130,178 381,216 559,86z"/>
  <path class="fil0 str0" d="M16569 33423l7129 -5230 474 645 183 -135c-130,-234 -268,-464 -415,-688l-710 -967c-170,-208 -347,-408 -532,-603l-183 135 473 645 -5636 4136 -491 -546c-97,-108 -259,-131 -382,-53 -112,95 -139,255 -64,381l372 632 -3035 2227 2789 5652 -66 48c-63,46 -93,124 -78,201l298 1497c11,55 46,104 95,133 46,27 63,87 36,135 -27,47 -86,65 -134,39 -48,-26 -67,-85 -42,-133 25,-51 28,-110 8,-163l-1684 -4326c-38,-97 -143,-149 -242,-119l-302 88c-99,29 -160,129 -140,231l435 2182c11,56 45,105 94,134 47,27 63,87 37,135 -27,47 -87,64 -135,39 -48,-26 -66,-85 -42,-134 26,-50 29,-110 8,-163l-1063 -2732 717 -629c78,-68 90,-185 29,-268l-186 -254c-61,-83 -176,-106 -265,-52l-1689 1026c-46,27 -78,72 -91,123 -12,52 -4,106 24,152l936 1542c-22,26 -45,51 -69,76l-1869 -2209 -161 119 1963 2674 -307 225 -591 -806 -323 236 1183 1613 629 -461 448 609 161 -118 -864 -1484 237 -174c83,-62 106,-177 52,-265l-980 -1614 914 -555c48,-29 82,-78 93,-134 9,-54 60,-89 114,-81 54,9 91,59 83,113 -8,54 -57,92 -111,85 -57,-6 -113,11 -156,49l-290 254c-63,55 -85,145 -55,223l1371 3522c38,97 143,149 243,120l301 -88c100,-29 161,-130 140,-231l-434 -2183c-12,-56 -46,-104 -95,-133 -47,-28 -63,-88 -36,-136 26,-47 86,-64 134,-39 48,26 67,85 42,134 -26,51 -29,110 -8,163l1676 4306c33,85 119,137 208,127l316 -35c56,-6 107,-35 140,-81 33,-45 45,-102 35,-157l-333 -1668 2279 4618 718 -354 -133 -269 887 -651 -59 -80 322 -237 -236 -323 -323 237 -59 -81 -802 589 -3933 -7969c901,-445 1332,-1488 1008,-2439z"/>
  <path class="fil0 str0" d="M22185 31098c45,-33 54,-95 22,-140 -33,-44 -96,-54 -140,-21 -45,33 -54,95 -22,140 33,44 96,54 140,21z"/>
  <path class="fil0 str0" d="M20413 34445c178,-131 216,-381 86,-559 -131,-178 -381,-217 -560,-86 -178,131 -216,381 -85,559 130,178 381,217 559,86z"/>
  <path class="fil0 str0" d="M22069 33478l7129 -5231 474 645 183 -134c-130,-235 -268,-464 -415,-688l-710 -968c-170,-207 -347,-408 -532,-602l-183 135 473 645 -5636 4135 -491 -545c-97,-109 -259,-131 -382,-53 -112,94 -139,255 -64,381l372 631 -3035 2228 2789 5651 -66 49c-63,46 -93,124 -78,200l298 1497c11,56 46,104 95,133 46,28 63,88 36,135 -27,48 -86,65 -134,40 -48,-26 -67,-85 -42,-134 25,-51 28,-110 8,-163l-1684 -4326c-38,-96 -143,-148 -242,-119l-302 88c-99,29 -160,129 -140,231l435 2183c11,56 45,104 94,133 47,28 63,88 37,135 -27,48 -87,65 -135,39 -48,-25 -66,-85 -42,-133 26,-51 29,-110 8,-163l-1063 -2732 717 -629c78,-69 90,-185 29,-269l-186 -253c-61,-84 -176,-107 -265,-53l-1689 1026c-46,28 -78,72 -91,124 -12,51 -4,106 24,151l936 1542c-22,26 -45,52 -69,77l-1869 -2209 -161 118 1963 2675 -307 225 -591 -807 -323 237 1183 1612 629 -461 448 610 161 -118 -864 -1485 237 -174c83,-61 106,-176 52,-265l-980 -1614 914 -554c48,-30 82,-79 93,-135 9,-53 60,-89 114,-80 54,9 91,59 83,113 -8,54 -57,91 -111,85 -57,-7 -113,11 -156,48l-290 255c-63,55 -85,144 -55,222l1371 3523c38,96 143,148 243,119l301 -88c100,-29 161,-129 140,-231l-434 -2183c-12,-56 -46,-104 -95,-133 -47,-28 -63,-88 -36,-135 26,-47 86,-65 134,-39 48,25 67,85 42,133 -26,51 -29,110 -8,163l1676 4307c33,84 119,136 208,126l316 -34c56,-7 107,-36 140,-81 33,-45 45,-102 35,-157l-333 -1668 2279 4618 718 -355 -133 -269 887 -650 -59 -81 322 -237 -236 -322 -323 237 -59 -81 -802 588 -3933 -7969c901,-444 1332,-1488 1008,-2438z"/>
  <path class="fil0 str0" d="M27685 31098c45,-33 54,-95 22,-140 -33,-44 -96,-54 -140,-21 -45,33 -54,95 -22,140 33,44 96,54 140,21z"/>
  <path class="fil0 str0" d="M25913 34445c178,-131 216,-381 86,-559 -131,-178 -381,-217 -560,-86 -178,131 -216,381 -85,559 130,178 381,217 559,86z"/>
  <path class="fil0 str0" d="M27569 33478l7129 -5231 474 645 183 -134c-130,-235 -268,-464 -415,-688l-710 -968c-170,-207 -347,-408 -532,-602l-183 135 473 645 -5636 4135 -491 -545c-97,-109 -259,-131 -382,-53 -112,94 -139,255 -64,381l372 631 -3035 2228 2789 5651 -66 49c-63,46 -93,124 -78,200l298 1497c11,56 46,104 95,133 46,28 63,88 36,135 -27,48 -86,65 -134,40 -48,-26 -67,-85 -42,-134 25,-51 28,-110 8,-163l-1684 -4326c-38,-96 -143,-148 -242,-119l-302 88c-99,29 -160,129 -140,231l435 2183c11,56 45,104 94,133 47,28 63,88 37,135 -27,48 -87,65 -135,39 -48,-25 -66,-85 -42,-133 26,-51 29,-110 8,-163l-1063 -2732 717 -629c78,-69 90,-185 29,-269l-186 -253c-61,-84 -176,-107 -265,-53l-1689 1026c-46,28 -78,72 -91,124 -12,51 -4,106 24,151l936 1542c-22,26 -45,52 -69,77l-1869 -2209 -161 118 1963 2675 -307 225 -591 -807 -323 237 1183 1612 629 -461 448 610 161 -118 -864 -1485 237 -174c83,-61 106,-176 52,-265l-980 -1614 914 -554c48,-30 82,-79 93,-135 9,-53 60,-89 114,-80 54,9 91,59 83,113 -8,54 -57,91 -111,85 -57,-7 -113,11 -156,48l-290 255c-63,55 -85,144 -55,222l1371 3523c38,96 143,148 243,119l301 -88c100,-29 161,-129 140,-231l-434 -2183c-12,-56 -46,-104 -95,-133 -47,-28 -63,-88 -36,-135 26,-47 86,-65 134,-39 48,25 67,85 42,133 -26,51 -29,110 -8,163l1676 4307c33,84 119,136 208,126l316 -34c56,-7 107,-36 140,-81 33,-45 45,-102 35,-157l-333 -1668 2279 4618 718 -355 -133 -269 887 -650 -59 -81 322 -237 -236 -322 -323 237 -59 -81 -802 588 -3933 -7969c901,-444 1332,-1488 1008,-2438z"/>
  <path class="fil0 str0" d="M33185 31098c45,-33 54,-95 22,-140 -33,-44 -96,-54 -140,-21 -45,33 -54,95 -22,140 33,44 96,54 140,21z"/>
  <path class="fil0 str0" d="M31413 34445c178,-131 216,-381 86,-559 -131,-178 -381,-217 -560,-86 -178,131 -216,381 -85,559 130,178 381,217 559,86z"/>
  <path class="fil0 str0" d="M33069 33478l7129 -5231 474 645 183 -134c-130,-235 -268,-464 -415,-688l-710 -968c-170,-207 -347,-408 -532,-602l-183 135 473 645 -5636 4135 -491 -545c-97,-109 -259,-131 -382,-53 -112,94 -139,255 -64,381l372 631 -3035 2228 2789 5651 -66 49c-63,46 -93,124 -78,200l298 1497c11,56 46,104 95,133 46,28 63,88 36,135 -27,48 -86,65 -134,40 -48,-26 -67,-85 -42,-134 25,-51 28,-110 8,-163l-1684 -4326c-38,-96 -143,-148 -242,-119l-302 88c-99,29 -160,129 -140,231l435 2183c11,56 45,104 94,133 47,28 63,88 37,135 -27,48 -87,65 -135,39 -48,-25 -66,-85 -42,-133 26,-51 29,-110 8,-163l-1063 -2732 717 -629c78,-69 90,-185 29,-269l-186 -253c-61,-84 -176,-107 -265,-53l-1689 1026c-46,28 -78,72 -91,124 -12,51 -4,106 24,151l936 1542c-22,26 -45,52 -69,77l-1869 -2209 -161 118 1963 2675 -307 225 -591 -807 -323 237 1183 1612 629 -461 448 610 161 -118 -864 -1485 237 -174c83,-61 106,-176 52,-265l-980 -1614 914 -554c48,-30 82,-79 93,-135 9,-53 60,-89 114,-80 54,9 91,59 83,113 -8,54 -57,91 -111,85 -57,-7 -113,11 -156,48l-290 255c-63,55 -85,144 -55,222l1371 3523c38,96 143,148 243,119l301 -88c100,-29 161,-129 140,-231l-434 -2183c-12,-56 -46,-104 -95,-133 -47,-28 -63,-88 -36,-135 26,-47 86,-65 134,-39 48,25 67,85 42,133 -26,51 -29,110 -8,163l1676 4307c33,84 119,136 208,126l316 -34c56,-7 107,-36 140,-81 33,-45 45,-102 35,-157l-333 -1668 2279 4618 718 -355 -133 -269 887 -650 -59 -81 322 -237 -236 -322 -323 237 -59 -81 -802 588 -3933 -7969c901,-444 1332,-1488 1008,-2438z"/>
  <path class="fil0 str0" d="M38685 31098c45,-33 54,-95 22,-140 -33,-44 -96,-54 -140,-21 -45,33 -54,95 -22,140 33,44 96,54 140,21z"/>
  <path class="fil0 str0" d="M36913 34445c178,-131 216,-381 86,-559 -131,-178 -381,-217 -560,-86 -178,131 -216,381 -85,559 130,178 381,217 559,86z"/>
  <path class="fil0 str0" d="M38569 33478l7129 -5231 474 645 183 -134c-130,-235 -268,-464 -415,-688l-710 -968c-170,-207 -347,-408 -532,-602l-183 135 473 645 -5636 4135 -491 -545c-97,-109 -259,-131 -382,-53 -112,94 -139,255 -64,381l372 631 -3035 2228 2789 5651 -66 49c-63,46 -93,124 -78,200l298 1497c11,56 46,104 95,133 46,28 63,88 36,135 -27,48 -86,65 -134,40 -48,-26 -67,-85 -42,-134 25,-51 28,-110 8,-163l-1684 -4326c-38,-96 -143,-148 -242,-119l-302 88c-99,29 -160,129 -140,231l435 2183c11,56 45,104 94,133 47,28 63,88 37,135 -27,48 -87,65 -135,39 -48,-25 -66,-85 -42,-133 26,-51 29,-110 8,-163l-1063 -2732 717 -629c78,-69 90,-185 29,-269l-186 -253c-61,-84 -176,-107 -265,-53l-1689 1026c-46,28 -78,72 -91,124 -12,51 -4,106 24,151l936 1542c-22,26 -45,52 -69,77l-1869 -2209 -161 118 1963 2675 -307 225 -591 -807 -323 237 1183 1612 629 -461 448 610 161 -118 -864 -1485 237 -174c83,-61 106,-176 52,-265l-980 -1614 914 -554c48,-30 82,-79 93,-135 9,-53 60,-89 114,-80 54,9 91,59 83,113 -8,54 -57,91 -111,85 -57,-7 -113,11 -156,48l-290 255c-63,55 -85,144 -55,222l1371 3523c38,96 143,148 243,119l301 -88c100,-29 161,-129 140,-231l-434 -2183c-12,-56 -46,-104 -95,-133 -47,-28 -63,-88 -36,-135 26,-47 86,-65 134,-39 48,25 67,85 42,133 -26,51 -29,110 -8,163l1676 4307c33,84 119,136 208,126l316 -34c56,-7 107,-36 140,-81 33,-45 45,-102 35,-157l-333 -1668 2279 4618 718 -355 -133 -269 887 -650 -59 -81 322 -237 -236 -322 -323 237 -59 -81 -802 588 -3933 -7969c901,-444 1332,-1488 1008,-2438z"/>
  <path class="fil0 str0" d="M44330 31098c45,-33 54,-95 22,-140 -33,-44 -95,-54 -140,-21 -45,33 -54,95 -21,140 32,44 95,54 139,21z"/>
  <path class="fil0 str0" d="M42558 34445c178,-131 216,-381 86,-559 -131,-178 -381,-217 -559,-86 -178,131 -217,381 -86,559 130,178 381,217 559,86z"/>
  <path class="fil0 str0" d="M44214 33478l7129 -5231 474 645 183 -134c-130,-235 -268,-464 -415,-688l-710 -968c-169,-207 -347,-408 -531,-602l-184 135 474 645 -5637 4135 -491 -545c-97,-109 -259,-131 -382,-53 -111,94 -138,255 -64,381l373 631 -3036 2228 2789 5651 -66 49c-63,46 -93,124 -78,200l298 1497c11,56 46,104 95,133 47,28 63,88 36,135 -27,48 -86,65 -134,40 -48,-26 -67,-85 -42,-134 25,-51 28,-110 8,-163l-1684 -4326c-38,-96 -143,-148 -242,-119l-302 88c-99,29 -160,129 -140,231l435 2183c11,56 45,104 94,133 47,28 63,88 37,135 -27,48 -86,65 -134,39 -48,-25 -67,-85 -42,-133 25,-51 28,-110 8,-163l-1064 -2732 717 -629c78,-69 91,-185 29,-269l-186 -253c-61,-84 -176,-107 -265,-53l-1689 1026c-45,28 -78,72 -91,124 -12,51 -4,106 24,151l936 1542c-22,26 -45,52 -69,77l-1869 -2209 -161 118 1963 2675 -307 225 -591 -807 -323 237 1183 1612 629 -461 448 610 161 -118 -864 -1485 237 -174c83,-61 106,-176 52,-265l-980 -1614 914 -554c49,-30 82,-79 93,-135 10,-53 61,-89 114,-80 54,9 91,59 83,113 -8,54 -57,91 -111,85 -57,-7 -113,11 -156,48l-290 255c-63,55 -85,144 -54,222l1371 3523c37,96 142,148 242,119l301 -88c100,-29 161,-129 141,-231l-435 -2183c-11,-56 -46,-104 -95,-133 -47,-28 -63,-88 -36,-135 27,-47 86,-65 134,-39 48,25 67,85 42,133 -26,51 -29,110 -8,163l1676 4307c33,84 119,136 209,126l315 -34c56,-7 107,-36 140,-81 33,-45 46,-102 35,-157l-333 -1668 2279 4618 718 -355 -133 -269 887 -650 -59 -81 322 -237 -236 -322 -323 237 -59 -81 -802 588 -3933 -7969c901,-444 1332,-1488 1008,-2438z"/>
  <path class="fil0 str0" d="M49830 31098c45,-33 54,-95 22,-140 -33,-44 -95,-54 -140,-21 -45,33 -54,95 -21,140 32,44 95,54 139,21z"/>
  <path class="fil0 str0" d="M48058 34445c178,-131 216,-381 86,-559 -131,-178 -381,-217 -559,-86 -178,131 -217,381 -86,559 130,178 381,217 559,86z"/>
  <path class="fil0 str0" d="M49714 33478l7129 -5231 474 645 183 -134c-130,-235 -268,-464 -415,-688l-710 -968c-169,-207 -347,-408 -531,-602l-184 135 474 645 -5637 4135 -491 -545c-97,-109 -259,-131 -382,-53 -111,94 -138,255 -64,381l373 631 -3036 2228 2789 5651 -66 49c-63,46 -93,124 -78,200l298 1497c11,56 46,104 95,133 47,28 63,88 36,135 -27,48 -86,65 -134,40 -48,-26 -67,-85 -42,-134 25,-51 28,-110 8,-163l-1684 -4326c-38,-96 -143,-148 -242,-119l-302 88c-99,29 -160,129 -140,231l435 2183c11,56 45,104 94,133 47,28 63,88 37,135 -27,48 -86,65 -134,39 -48,-25 -67,-85 -42,-133 25,-51 28,-110 8,-163l-1064 -2732 717 -629c78,-69 91,-185 29,-269l-186 -253c-61,-84 -176,-107 -265,-53l-1689 1026c-45,28 -78,72 -91,124 -12,51 -4,106 24,151l936 1542c-22,26 -45,52 -69,77l-1869 -2209 -161 118 1963 2675 -307 225 -591 -807 -323 237 1183 1612 629 -461 448 610 161 -118 -864 -1485 237 -174c83,-61 106,-176 52,-265l-980 -1614 914 -554c49,-30 82,-79 93,-135 10,-53 61,-89 114,-80 54,9 91,59 83,113 -8,54 -57,91 -111,85 -57,-7 -113,11 -156,48l-290 255c-63,55 -85,144 -54,222l1371 3523c37,96 142,148 242,119l301 -88c100,-29 161,-129 141,-231l-435 -2183c-11,-56 -46,-104 -95,-133 -47,-28 -63,-88 -36,-135 27,-47 86,-65 134,-39 48,25 67,85 42,133 -26,51 -29,110 -8,163l1676 4307c33,84 119,136 209,126l315 -34c56,-7 107,-36 140,-81 33,-45 46,-102 35,-157l-333 -1668 2279 4618 718 -355 -133 -269 887 -650 -59 -81 322 -237 -236 -322 -323 237 -59 -81 -802 588 -3933 -7969c901,-444 1332,-1488 1008,-2438z"/>
  <path class="fil0 str0" d="M55185 31098c45,-33 54,-95 22,-140 -33,-44 -96,-54 -140,-21 -45,33 -54,95 -22,140 33,44 96,54 140,21z"/>
  <path class="fil0 str0" d="M53413 34445c178,-131 216,-381 86,-559 -131,-178 -381,-217 -560,-86 -178,131 -216,381 -85,559 130,178 381,217 559,86z"/>
  <path class="fil0 str0" d="M55069 33478l7129 -5231 474 645 183 -134c-130,-235 -268,-464 -415,-688l-710 -968c-170,-207 -347,-408 -532,-602l-183 135 473 645 -5636 4135 -491 -545c-97,-109 -259,-131 -382,-53 -112,94 -139,255 -64,381l372 631 -3035 2228 2789 5651 -66 49c-63,46 -93,124 -78,200l298 1497c11,56 46,104 95,133 46,28 63,88 36,135 -27,48 -86,65 -134,40 -48,-26 -67,-85 -42,-134 25,-51 28,-110 8,-163l-1684 -4326c-38,-96 -143,-148 -242,-119l-302 88c-99,29 -160,129 -140,231l435 2183c11,56 45,104 94,133 47,28 63,88 37,135 -27,48 -87,65 -135,39 -48,-25 -66,-85 -42,-133 26,-51 29,-110 8,-163l-1063 -2732 717 -629c78,-69 90,-185 29,-269l-186 -253c-61,-84 -176,-107 -265,-53l-1689 1026c-46,28 -78,72 -91,124 -12,51 -4,106 24,151l936 1542c-22,26 -45,52 -69,77l-1869 -2209 -161 118 1963 2675 -307 225 -591 -807 -323 237 1183 1612 629 -461 448 610 161 -118 -864 -1485 237 -174c83,-61 106,-176 52,-265l-980 -1614 914 -554c48,-30 82,-79 93,-135 9,-53 60,-89 114,-80 54,9 91,59 83,113 -8,54 -57,91 -111,85 -57,-7 -113,11 -156,48l-290 255c-63,55 -85,144 -55,222l1371 3523c38,96 143,148 243,119l301 -88c100,-29 161,-129 140,-231l-434 -2183c-12,-56 -46,-104 -95,-133 -47,-28 -63,-88 -36,-135 26,-47 86,-65 134,-39 48,25 67,85 42,133 -26,51 -29,110 -8,163l1676 4307c33,84 119,136 208,126l316 -34c56,-7 107,-36 140,-81 33,-45 45,-102 35,-157l-333 -1668 2279 4618 718 -355 -133 -269 887 -650 -59 -81 322 -237 -236 -322 -323 237 -59 -81 -802 588 -3933 -7969c901,-444 1332,-1488 1008,-2438z"/>
  <path class="fil0 str0" d="M60200 30548c45,-33 54,-95 22,-140 -33,-44 -95,-54 -140,-21 -45,33 -54,95 -21,140 32,44 95,54 139,21z"/>
  <path class="fil0 str0" d="M58428 33895c178,-131 216,-381 86,-559 -131,-178 -381,-217 -559,-86 -178,131 -217,381 -86,559 130,178 381,217 559,86z"/>
  <path class="fil0 str0" d="M60084 32928l7129 -5231 474 645 183 -134c-130,-235 -268,-464 -415,-688l-710 -968c-169,-207 -347,-408 -531,-602l-184 135 474 645 -5637 4135 -491 -545c-97,-109 -259,-131 -382,-53 -111,94 -138,255 -64,381l373 631 -3036 2228 2789 5651 -66 49c-63,46 -93,124 -78,200l298 1497c11,56 46,104 95,133 47,28 63,88 36,135 -27,48 -86,65 -134,40 -48,-26 -67,-85 -42,-134 25,-51 28,-110 8,-163l-1684 -4326c-38,-96 -143,-148 -242,-119l-302 88c-99,29 -160,129 -140,231l435 2183c11,56 45,104 94,133 47,28 63,88 37,135 -27,48 -86,65 -134,39 -48,-25 -67,-85 -42,-133 25,-51 28,-110 8,-163l-1064 -2732 717 -629c78,-69 91,-185 29,-269l-186 -253c-61,-84 -176,-107 -265,-53l-1689 1026c-45,28 -78,72 -91,124 -12,51 -4,106 24,151l936 1542c-22,26 -45,52 -69,77l-1869 -2209 -161 118 1963 2675 -307 225 -591 -807 -323 237 1183 1612 629 -461 448 610 161 -118 -864 -1485 237 -174c83,-61 106,-176 52,-265l-980 -1614 914 -554c49,-30 82,-79 93,-135 10,-53 61,-89 114,-80 54,9 91,59 83,113 -8,54 -57,91 -111,85 -57,-7 -113,11 -156,48l-290 255c-63,55 -85,144 -54,222l1371 3523c37,96 142,148 242,119l301 -88c100,-29 161,-129 141,-231l-435 -2183c-11,-56 -46,-104 -95,-133 -47,-28 -63,-88 -36,-135 27,-47 86,-65 134,-39 48,25 67,85 42,133 -26,51 -29,110 -8,163l1676 4307c33,84 119,136 209,126l315 -34c56,-7 107,-36 140,-81 33,-45 46,-102 35,-157l-333 -1668 2279 4618 718 -355 -133 -269 887 -650 -59 -81 322 -237 -236 -322 -323 237 -59 -81 -802 588 -3933 -7969c901,-444 1332,-1488 1008,-2438z"/>
  <path class="fil0 str0" d="M57803 49712c-53,-18 -109,11 -127,63 -17,53 11,109 64,127 52,17 109,-11 126,-64 18,-52 -11,-109 -63,-126z"/>
  <path class="fil0 str0" d="M61557 49214c-210,-69 -436,45 -505,255 -69,209 44,436 254,505 210,69 436,-45 506,-255 69,-209 -45,-436 -255,-505z"/>
  <path class="fil0 str0" d="M59808 48426l-8396 -2773 251 -760 -216 -71c-115,242 -222,487 -320,737l-376 1139c-70,259 -131,520 -182,783l216 71 251 -760 6638 2193 -159 716c-32,142 43,287 178,342 142,36 288,-35 348,-169l298 -670 3575 1181 2986 -5550 78 26c74,24 155,4 208,-53l1047 -1111c39,-42 58,-98 53,-154 -4,-55 35,-103 89,-108 54,-6 103,32 110,86 7,54 -30,104 -84,112 -56,8 -106,40 -138,88l-2547 3880c-56,87 -38,203 44,267l246 195c82,64 199,55 270,-20l1526 -1621c39,-41 58,-97 53,-154 -4,-54 35,-102 89,-108 54,-6 103,33 110,87 7,54 -31,104 -84,112 -57,8 -107,40 -138,88l-1608 2451 -929 -219c-101,-24 -203,33 -235,131l-99 299c-32,98 16,205 111,246l1816 781c48,21 103,22 153,2 49,-19 88,-58 109,-106l713 -1658c35,3 69,7 103,12l-716 2804 190 62 1041 -3150 361 119 -314 950 380 125 627 -1899 -741 -244 238 -719 -190 -62 -708 1565 -279 -92c-99,-33 -206,15 -247,111l-746 1734 -982 -423c-52,-22 -111,-21 -163,3 -49,23 -108,2 -132,-47 -24,-49 -4,-108 44,-133 48,-25 108,-6 134,41 27,50 74,86 130,99l375 89c82,19 167,-15 213,-85l2074 -3160c57,-87 38,-202 -43,-267l-247 -194c-81,-64 -198,-56 -269,20l-1526 1620c-39,42 -59,98 -54,154 5,55 -35,103 -89,108 -54,6 -103,-32 -110,-86 -6,-54 31,-104 85,-112 56,-8 106,-40 137,-88l2536 -3863c50,-76 42,-176 -18,-243l-211 -237c-38,-42 -91,-66 -147,-67 -56,-1 -110,22 -148,63l-1166 1238 2440 -4535 -705 -379 -142 264 -1045 -345 -31 95 -380 -126 -125 380 380 126 -32 95 944 311 -4210 7827c-884,-476 -1984,-222 -2571,593z"/>
 </g>
</svg>
