<?xml version="1.0" encoding="UTF-8"?>
<!DOCTYPE svg PUBLIC "-//W3C//DTD SVG 1.1//EN" "http://www.w3.org/Graphics/SVG/1.1/DTD/svg11.dtd">
<!-- Creator: CorelDRAW X7 -->
<svg xmlns="http://www.w3.org/2000/svg" xml:space="preserve" width="530mm" height="420mm" version="1.1" style="shape-rendering:geometricPrecision; text-rendering:geometricPrecision; image-rendering:optimizeQuality; fill-rule:evenodd; clip-rule:evenodd"
viewBox="0 0 53000 42000"
 xmlns:xlink="http://www.w3.org/1999/xlink">
 <defs>
  <style type="text/css">
   <![CDATA[
    .str0 {stroke:red;stroke-width:7.62;stroke-linejoin:bevel}
    .fil0 {fill:none}
   ]]>
  </style>
 </defs>
 <g id="Layer_x0020_1">
  <metadata id="CorelCorpID_0Corel-Layer"/>
  <path class="fil0 str0" d="M7080 2914c-19,220 145,414 365,432 220,18 414,-145 432,-365 18,-221 -145,-414 -366,-432 -220,-18 -413,145 -431,365z"/>
  <path class="fil0 str0" d="M7040 23064c-19,220 145,414 365,432 220,18 414,-145 432,-365 18,-221 -145,-414 -366,-432 -220,-18 -413,145 -431,365z"/>
  <path class="fil0 str0" d="M46129 19556c18,-221 -145,-414 -365,-432 -221,-18 -414,145 -432,365 -19,221 145,414 365,432 220,18 414,-145 432,-365z"/>
  <path class="fil0 str0" d="M46089 39706c18,-221 -145,-414 -365,-432 -221,-18 -414,145 -432,365 -19,221 145,414 365,432 220,18 414,-145 432,-365z"/>
  <path class="fil0 str0" d="M13080 2914c-19,220 145,414 365,432 220,18 414,-145 432,-365 18,-221 -145,-414 -366,-432 -220,-18 -413,145 -431,365z"/>
  <path class="fil0 str0" d="M13040 23064c-19,220 145,414 365,432 220,18 414,-145 432,-365 18,-221 -145,-414 -366,-432 -220,-18 -413,145 -431,365z"/>
  <path class="fil0 str0" d="M40129 19556c18,-221 -145,-414 -365,-432 -221,-18 -414,145 -432,365 -19,221 145,414 365,432 220,18 414,-145 432,-365z"/>
  <path class="fil0 str0" d="M40089 39706c18,-221 -145,-414 -365,-432 -221,-18 -414,145 -432,365 -19,221 145,414 365,432 220,18 414,-145 432,-365z"/>
  <path class="fil0 str0" d="M19080 2914c-19,220 145,414 365,432 220,18 414,-145 432,-365 18,-221 -145,-414 -366,-432 -220,-18 -413,145 -431,365z"/>
  <path class="fil0 str0" d="M19040 23064c-19,220 145,414 365,432 220,18 414,-145 432,-365 18,-221 -145,-414 -366,-432 -220,-18 -413,145 -431,365z"/>
  <path class="fil0 str0" d="M34129 19556c18,-221 -145,-414 -365,-432 -221,-18 -414,145 -432,365 -19,221 145,414 365,432 220,18 414,-145 432,-365z"/>
  <path class="fil0 str0" d="M34089 39706c18,-221 -145,-414 -365,-432 -221,-18 -414,145 -432,365 -19,221 145,414 365,432 220,18 414,-145 432,-365z"/>
  <path class="fil0 str0" d="M25080 2914c-19,220 145,414 365,432 220,18 414,-145 432,-365 18,-221 -145,-414 -366,-432 -220,-18 -413,145 -431,365z"/>
  <path class="fil0 str0" d="M25040 23064c-19,220 145,414 365,432 220,18 414,-145 432,-365 18,-221 -145,-414 -366,-432 -220,-18 -413,145 -431,365z"/>
  <path class="fil0 str0" d="M28129 19556c18,-221 -145,-414 -365,-432 -221,-18 -414,145 -432,365 -19,221 145,414 365,432 220,18 414,-145 432,-365z"/>
  <path class="fil0 str0" d="M28089 39706c18,-221 -145,-414 -365,-432 -221,-18 -414,145 -432,365 -19,221 145,414 365,432 220,18 414,-145 432,-365z"/>
  <path class="fil0 str0" d="M31080 2914c-19,220 145,414 365,432 220,18 414,-145 432,-365 18,-221 -145,-414 -366,-432 -220,-18 -413,145 -431,365z"/>
  <path class="fil0 str0" d="M31040 23064c-19,220 145,414 365,432 220,18 414,-145 432,-365 18,-221 -145,-414 -366,-432 -220,-18 -413,145 -431,365z"/>
  <path class="fil0 str0" d="M22129 19556c18,-221 -145,-414 -365,-432 -221,-18 -414,145 -432,365 -19,221 145,414 365,432 220,18 414,-145 432,-365z"/>
  <path class="fil0 str0" d="M22089 39706c18,-221 -145,-414 -365,-432 -221,-18 -414,145 -432,365 -19,221 145,414 365,432 220,18 414,-145 432,-365z"/>
  <path class="fil0 str0" d="M37080 2914c-19,220 145,414 365,432 220,18 414,-145 432,-365 18,-221 -145,-414 -366,-432 -220,-18 -413,145 -431,365z"/>
  <path class="fil0 str0" d="M37040 23064c-19,220 145,414 365,432 220,18 414,-145 432,-365 18,-221 -145,-414 -366,-432 -220,-18 -413,145 -431,365z"/>
  <path class="fil0 str0" d="M16129 19556c18,-221 -145,-414 -365,-432 -221,-18 -414,145 -432,365 -19,221 145,414 365,432 220,18 414,-145 432,-365z"/>
  <path class="fil0 str0" d="M16089 39706c18,-221 -145,-414 -365,-432 -221,-18 -414,145 -432,365 -19,221 145,414 365,432 220,18 414,-145 432,-365z"/>
  <path class="fil0 str0" d="M43080 2914c-19,220 145,414 365,432 220,18 414,-145 432,-365 18,-221 -145,-414 -366,-432 -220,-18 -413,145 -431,365z"/>
  <path class="fil0 str0" d="M43040 23064c-19,220 145,414 365,432 220,18 414,-145 432,-365 18,-221 -145,-414 -366,-432 -220,-18 -413,145 -431,365z"/>
  <path class="fil0 str0" d="M10129 19556c18,-221 -145,-414 -365,-432 -221,-18 -414,145 -432,365 -19,221 145,414 365,432 220,18 414,-145 432,-365z"/>
  <path class="fil0 str0" d="M10089 39706c18,-221 -145,-414 -365,-432 -221,-18 -414,145 -432,365 -19,221 145,414 365,432 220,18 414,-145 432,-365z"/>
  <path class="fil0 str0" d="M49080 2914c-19,220 145,414 365,432 220,18 414,-145 432,-365 18,-221 -145,-414 -366,-432 -220,-18 -413,145 -431,365z"/>
  <path class="fil0 str0" d="M49040 23064c-19,220 145,414 365,432 220,18 414,-145 432,-365 18,-221 -145,-414 -366,-432 -220,-18 -413,145 -431,365z"/>
  <path class="fil0 str0" d="M4129 19556c18,-221 -145,-414 -365,-432 -221,-18 -414,145 -432,365 -19,221 145,414 365,432 220,18 414,-145 432,-365z"/>
  <path class="fil0 str0" d="M4089 39706c18,-221 -145,-414 -365,-432 -221,-18 -414,145 -432,365 -19,221 145,414 365,432 220,18 414,-145 432,-365z"/>
  <path class="fil0 str0" d="M6722 4799l-1043 12549 1196 99 1135 -13653 199 17 25 -299 2392 199 83 -997 -2392 -199 17 -205 -199 -17 -4911 -1293 -4 56 -190 720 2514 662c-255,971 249,1981 1178,2361z"/>
  <path class="fil0 str0" d="M6682 24949l-1043 12549 1196 99 1135 -13653 199 17 25 -299 2392 199 83 -997 -2392 -199 17 -205 -199 -17 -4911 -1293 -4 56 -190 720 2514 662c-255,971 249,1981 1178,2361z"/>
  <path class="fil0 str0" d="M46486 17671l1044 -12549 -1196 -99 -1135 13653 -200 -17 -24 299 -2392 -199 -83 997 2392 198 -17 206 199 17 4910 1293 5 -56 190 -720 -2515 -662c256,-971 -248,-1981 -1178,-2361z"/>
  <path class="fil0 str0" d="M46446 37821l1044 -12549 -1196 -99 -1135 13653 -200 -17 -24 299 -2392 -199 -83 997 2392 198 -17 206 199 17 4910 1293 5 -56 190 -720 -2515 -662c256,-971 -248,-1981 -1178,-2361z"/>
  <path class="fil0 str0" d="M12722 4799l-1043 12549 1196 99 1135 -13653 199 17 25 -299 2392 199 83 -997 -2392 -199 17 -205 -199 -17 -4911 -1293 -4 56 -190 720 2514 662c-255,971 249,1981 1178,2361z"/>
  <path class="fil0 str0" d="M12682 24949l-1043 12549 1196 99 1135 -13653 199 17 25 -299 2392 199 83 -997 -2392 -199 17 -205 -199 -17 -4911 -1293 -4 56 -190 720 2514 662c-255,971 249,1981 1178,2361z"/>
  <path class="fil0 str0" d="M40486 17671l1044 -12549 -1196 -99 -1135 13653 -200 -17 -24 299 -2392 -199 -83 997 2392 198 -17 206 199 17 4910 1293 5 -56 190 -720 -2515 -662c256,-971 -248,-1981 -1178,-2361z"/>
  <path class="fil0 str0" d="M40446 37821l1044 -12549 -1196 -99 -1135 13653 -200 -17 -24 299 -2392 -199 -83 997 2392 198 -17 206 199 17 4910 1293 5 -56 190 -720 -2515 -662c256,-971 -248,-1981 -1178,-2361z"/>
  <path class="fil0 str0" d="M18722 4799l-1043 12549 1196 99 1135 -13653 199 17 25 -299 2392 199 83 -997 -2392 -199 17 -205 -199 -17 -4911 -1293 -4 56 -190 720 2514 662c-255,971 249,1981 1178,2361z"/>
  <path class="fil0 str0" d="M18682 24949l-1043 12549 1196 99 1135 -13653 199 17 25 -299 2392 199 83 -997 -2392 -199 17 -205 -199 -17 -4911 -1293 -4 56 -190 720 2514 662c-255,971 249,1981 1178,2361z"/>
  <path class="fil0 str0" d="M34486 17671l1044 -12549 -1196 -99 -1135 13653 -200 -17 -24 299 -2392 -199 -83 997 2392 198 -17 206 199 17 4910 1293 5 -56 190 -720 -2515 -662c256,-971 -248,-1981 -1178,-2361z"/>
  <path class="fil0 str0" d="M34446 37821l1044 -12549 -1196 -99 -1135 13653 -200 -17 -24 299 -2392 -199 -83 997 2392 198 -17 206 199 17 4910 1293 5 -56 190 -720 -2515 -662c256,-971 -248,-1981 -1178,-2361z"/>
  <path class="fil0 str0" d="M24722 4799l-1043 12549 1196 99 1135 -13653 199 17 25 -299 2392 199 83 -997 -2392 -199 17 -205 -199 -17 -4911 -1293 -4 56 -190 720 2514 662c-255,971 249,1981 1178,2361z"/>
  <path class="fil0 str0" d="M24682 24949l-1043 12549 1196 99 1135 -13653 199 17 25 -299 2392 199 83 -997 -2392 -199 17 -205 -199 -17 -4911 -1293 -4 56 -190 720 2514 662c-255,971 249,1981 1178,2361z"/>
  <path class="fil0 str0" d="M28486 17671l1044 -12549 -1196 -99 -1135 13653 -200 -17 -24 299 -2392 -199 -83 997 2392 198 -17 206 199 17 4910 1293 5 -56 190 -720 -2515 -662c256,-971 -248,-1981 -1178,-2361z"/>
  <path class="fil0 str0" d="M28446 37821l1044 -12549 -1196 -99 -1135 13653 -200 -17 -24 299 -2392 -199 -83 997 2392 198 -17 206 199 17 4910 1293 5 -56 190 -720 -2515 -662c256,-971 -248,-1981 -1178,-2361z"/>
  <path class="fil0 str0" d="M30722 4799l-1043 12549 1196 99 1135 -13653 199 17 25 -299 2392 199 83 -997 -2392 -199 17 -205 -199 -17 -4911 -1293 -4 56 -190 720 2514 662c-255,971 249,1981 1178,2361z"/>
  <path class="fil0 str0" d="M30682 24949l-1043 12549 1196 99 1135 -13653 199 17 25 -299 2392 199 83 -997 -2392 -199 17 -205 -199 -17 -4911 -1293 -4 56 -190 720 2514 662c-255,971 249,1981 1178,2361z"/>
  <path class="fil0 str0" d="M22486 17671l1044 -12549 -1196 -99 -1135 13653 -200 -17 -24 299 -2392 -199 -83 997 2392 198 -17 206 199 17 4910 1293 5 -56 190 -720 -2515 -662c256,-971 -248,-1981 -1178,-2361z"/>
  <path class="fil0 str0" d="M22446 37821l1044 -12549 -1196 -99 -1135 13653 -200 -17 -24 299 -2392 -199 -83 997 2392 198 -17 206 199 17 4910 1293 5 -56 190 -720 -2515 -662c256,-971 -248,-1981 -1178,-2361z"/>
  <path class="fil0 str0" d="M36722 4799l-1043 12549 1196 99 1135 -13653 199 17 25 -299 2392 199 83 -997 -2392 -199 17 -205 -199 -17 -4911 -1293 -4 56 -190 720 2514 662c-255,971 249,1981 1178,2361z"/>
  <path class="fil0 str0" d="M36682 24949l-1043 12549 1196 99 1135 -13653 199 17 25 -299 2392 199 83 -997 -2392 -199 17 -205 -199 -17 -4911 -1293 -4 56 -190 720 2514 662c-255,971 249,1981 1178,2361z"/>
  <path class="fil0 str0" d="M16486 17671l1044 -12549 -1196 -99 -1135 13653 -200 -17 -24 299 -2392 -199 -83 997 2392 198 -17 206 199 17 4910 1293 5 -56 190 -720 -2515 -662c256,-971 -248,-1981 -1178,-2361z"/>
  <path class="fil0 str0" d="M16446 37821l1044 -12549 -1196 -99 -1135 13653 -200 -17 -24 299 -2392 -199 -83 997 2392 198 -17 206 199 17 4910 1293 5 -56 190 -720 -2515 -662c256,-971 -248,-1981 -1178,-2361z"/>
  <path class="fil0 str0" d="M42722 4799l-1043 12549 1196 99 1135 -13653 199 17 25 -299 2392 199 83 -997 -2392 -199 17 -205 -199 -17 -4911 -1293 -4 56 -190 720 2514 662c-255,971 249,1981 1178,2361z"/>
  <path class="fil0 str0" d="M42682 24949l-1043 12549 1196 99 1135 -13653 199 17 25 -299 2392 199 83 -997 -2392 -199 17 -205 -199 -17 -4911 -1293 -4 56 -190 720 2514 662c-255,971 249,1981 1178,2361z"/>
  <path class="fil0 str0" d="M10486 17671l1044 -12549 -1196 -99 -1135 13653 -200 -17 -24 299 -2392 -199 -83 997 2392 198 -17 206 199 17 4910 1293 5 -56 190 -720 -2515 -662c256,-971 -248,-1981 -1178,-2361z"/>
  <path class="fil0 str0" d="M10446 37821l1044 -12549 -1196 -99 -1135 13653 -200 -17 -24 299 -2392 -199 -83 997 2392 198 -17 206 199 17 4910 1293 5 -56 190 -720 -2515 -662c256,-971 -248,-1981 -1178,-2361z"/>
  <path class="fil0 str0" d="M48722 4799l-1043 12549 1196 99 1135 -13653 199 17 25 -299 2392 199 83 -997 -2392 -199 17 -205 -199 -17 -4911 -1293 -4 56 -190 720 2514 662c-255,971 249,1981 1178,2361z"/>
  <path class="fil0 str0" d="M48682 24949l-1043 12549 1196 99 1135 -13653 199 17 25 -299 2392 199 83 -997 -2392 -199 17 -205 -199 -17 -4911 -1293 -4 56 -190 720 2514 662c-255,971 249,1981 1178,2361z"/>
  <path class="fil0 str0" d="M4486 17671l1044 -12549 -1196 -99 -1135 13653 -200 -17 -24 299 -2392 -199 -83 997 2392 198 -17 206 199 17 4910 1293 5 -56 190 -720 -2515 -662c256,-971 -248,-1981 -1178,-2361z"/>
  <path class="fil0 str0" d="M4446 37821l1044 -12549 -1196 -99 -1135 13653 -200 -17 -24 299 -2392 -199 -83 997 2392 198 -17 206 199 17 4910 1293 5 -56 190 -720 -2515 -662c256,-971 -248,-1981 -1178,-2361z"/>
 </g>
</svg>
