<?xml version="1.0" encoding="UTF-8"?>
<!DOCTYPE svg PUBLIC "-//W3C//DTD SVG 1.1//EN" "http://www.w3.org/Graphics/SVG/1.1/DTD/svg11.dtd">
<!-- Creator: CorelDRAW X7 -->
<svg xmlns="http://www.w3.org/2000/svg" xml:space="preserve" width="680mm" height="400mm" version="1.1" style="shape-rendering:geometricPrecision; text-rendering:geometricPrecision; image-rendering:optimizeQuality; fill-rule:evenodd; clip-rule:evenodd"
viewBox="0 0 68000 40000"
 xmlns:xlink="http://www.w3.org/1999/xlink">
 <defs>
  <style type="text/css">
   <![CDATA[
    .str0 {stroke:red;stroke-width:7.62;stroke-linejoin:bevel}
    .fil0 {fill:none}
   ]]>
  </style>
 </defs>
 <g id="Layer_x0020_1">
  <metadata id="CorelCorpID_0Corel-Layer"/>
  <path class="fil0 str0" d="M29060 7000c0,-88 -72,-160 -160,-160 -88,0 -160,72 -160,160 0,88 72,160 160,160 88,0 160,-72 160,-160z"/>
  <path class="fil0 str0" d="M1660 7000c0,-88 -72,-160 -160,-160 -88,0 -160,72 -160,160 0,88 72,160 160,160 88,0 160,-72 160,-160z"/>
  <polygon class="fil0 str0" points="14653,3380 14653,3420 14693,3420 14693,3380 "/>
  <polygon class="fil0 str0" points="15307,4780 15307,4820 15347,4820 15347,4780 "/>
  <polygon class="fil0 str0" points="15053,5780 15053,5820 15093,5820 15093,5780 "/>
  <polygon class="fil0 str0" points="15307,5780 15307,5820 15347,5820 15347,5780 "/>
  <polygon class="fil0 str0" points="15453,1280 15453,1320 15493,1320 15493,1280 "/>
  <polygon class="fil0 str0" points="15707,1280 15707,1320 15747,1320 15747,1280 "/>
  <polygon class="fil0 str0" points="14907,3380 14907,3420 14947,3420 14947,3380 "/>
  <polygon class="fil0 str0" points="14653,4380 14653,4420 14693,4420 14693,4380 "/>
  <polygon class="fil0 str0" points="14907,4380 14907,4420 14947,4420 14947,4380 "/>
  <polygon class="fil0 str0" points="15053,4780 15053,4820 15093,4820 15093,4780 "/>
  <polygon class="fil0 str0" points="16147,5080 16107,5080 16107,5120 16147,5120 "/>
  <polygon class="fil0 str0" points="16293,1980 16253,1980 16253,2020 16293,2020 "/>
  <polygon class="fil0 str0" points="16507,1980 16507,2020 16547,2020 16547,1980 "/>
  <polygon class="fil0 str0" points="16293,2980 16253,2980 16253,3020 16293,3020 "/>
  <polygon class="fil0 str0" points="16507,2980 16507,3020 16547,3020 16547,2980 "/>
  <polygon class="fil0 str0" points="15893,4080 15853,4080 15853,4120 15893,4120 "/>
  <polygon class="fil0 str0" points="16107,4080 16107,4120 16147,4120 16147,4080 "/>
  <polygon class="fil0 str0" points="15893,5080 15853,5080 15853,5120 15893,5120 "/>
  <polygon class="fil0 str0" points="15707,2280 15707,2320 15747,2320 15747,2280 "/>
  <polygon class="fil0 str0" points="15493,2280 15453,2280 15453,2320 15493,2320 "/>
  <polygon class="fil0 str0" points="17493,2280 17453,2280 17453,2320 17493,2320 "/>
  <polygon class="fil0 str0" points="3493,2280 3453,2280 3453,2320 3493,2320 "/>
  <polygon class="fil0 str0" points="5493,2280 5453,2280 5453,2320 5493,2320 "/>
  <polygon class="fil0 str0" points="7493,2280 7453,2280 7453,2320 7493,2320 "/>
  <polygon class="fil0 str0" points="9493,2280 9453,2280 9453,2320 9493,2320 "/>
  <polygon class="fil0 str0" points="11493,2280 11453,2280 11453,2320 11493,2320 "/>
  <polygon class="fil0 str0" points="13493,2280 13453,2280 13453,2320 13493,2320 "/>
  <polygon class="fil0 str0" points="27493,2280 27453,2280 27453,2320 27493,2320 "/>
  <polygon class="fil0 str0" points="25493,2280 25453,2280 25453,2320 25493,2320 "/>
  <polygon class="fil0 str0" points="23493,2280 23453,2280 23453,2320 23493,2320 "/>
  <polygon class="fil0 str0" points="21493,2280 21453,2280 21453,2320 21493,2320 "/>
  <polygon class="fil0 str0" points="19493,2280 19453,2280 19453,2320 19493,2320 "/>
  <polygon class="fil0 str0" points="16653,3380 16653,3420 16693,3420 16693,3380 "/>
  <polygon class="fil0 str0" points="2653,3380 2653,3420 2693,3420 2693,3380 "/>
  <polygon class="fil0 str0" points="4653,3380 4653,3420 4693,3420 4693,3380 "/>
  <polygon class="fil0 str0" points="6653,3380 6653,3420 6693,3420 6693,3380 "/>
  <polygon class="fil0 str0" points="8653,3380 8653,3420 8693,3420 8693,3380 "/>
  <polygon class="fil0 str0" points="10653,3380 10653,3420 10693,3420 10693,3380 "/>
  <polygon class="fil0 str0" points="12653,3380 12653,3420 12693,3420 12693,3380 "/>
  <polygon class="fil0 str0" points="26653,3380 26653,3420 26693,3420 26693,3380 "/>
  <polygon class="fil0 str0" points="24653,3380 24653,3420 24693,3420 24693,3380 "/>
  <polygon class="fil0 str0" points="22653,3380 22653,3420 22693,3420 22693,3380 "/>
  <polygon class="fil0 str0" points="20653,3380 20653,3420 20693,3420 20693,3380 "/>
  <polygon class="fil0 str0" points="18653,3380 18653,3420 18693,3420 18693,3380 "/>
  <polygon class="fil0 str0" points="17307,4780 17307,4820 17347,4820 17347,4780 "/>
  <polygon class="fil0 str0" points="3307,4780 3307,4820 3347,4820 3347,4780 "/>
  <polygon class="fil0 str0" points="5307,4780 5307,4820 5347,4820 5347,4780 "/>
  <polygon class="fil0 str0" points="7307,4780 7307,4820 7347,4820 7347,4780 "/>
  <polygon class="fil0 str0" points="9307,4780 9307,4820 9347,4820 9347,4780 "/>
  <polygon class="fil0 str0" points="11307,4780 11307,4820 11347,4820 11347,4780 "/>
  <polygon class="fil0 str0" points="13307,4780 13307,4820 13347,4820 13347,4780 "/>
  <polygon class="fil0 str0" points="27307,4780 27307,4820 27347,4820 27347,4780 "/>
  <polygon class="fil0 str0" points="25307,4780 25307,4820 25347,4820 25347,4780 "/>
  <polygon class="fil0 str0" points="23307,4780 23307,4820 23347,4820 23347,4780 "/>
  <polygon class="fil0 str0" points="21307,4780 21307,4820 21347,4820 21347,4780 "/>
  <polygon class="fil0 str0" points="19307,4780 19307,4820 19347,4820 19347,4780 "/>
  <polygon class="fil0 str0" points="17053,5780 17053,5820 17093,5820 17093,5780 "/>
  <polygon class="fil0 str0" points="3053,5780 3053,5820 3093,5820 3093,5780 "/>
  <polygon class="fil0 str0" points="5053,5780 5053,5820 5093,5820 5093,5780 "/>
  <polygon class="fil0 str0" points="7053,5780 7053,5820 7093,5820 7093,5780 "/>
  <polygon class="fil0 str0" points="9053,5780 9053,5820 9093,5820 9093,5780 "/>
  <polygon class="fil0 str0" points="11053,5780 11053,5820 11093,5820 11093,5780 "/>
  <polygon class="fil0 str0" points="13053,5780 13053,5820 13093,5820 13093,5780 "/>
  <polygon class="fil0 str0" points="27053,5780 27053,5820 27093,5820 27093,5780 "/>
  <polygon class="fil0 str0" points="25053,5780 25053,5820 25093,5820 25093,5780 "/>
  <polygon class="fil0 str0" points="23053,5780 23053,5820 23093,5820 23093,5780 "/>
  <polygon class="fil0 str0" points="21053,5780 21053,5820 21093,5820 21093,5780 "/>
  <polygon class="fil0 str0" points="19053,5780 19053,5820 19093,5820 19093,5780 "/>
  <polygon class="fil0 str0" points="17307,5780 17307,5820 17347,5820 17347,5780 "/>
  <polygon class="fil0 str0" points="3307,5780 3307,5820 3347,5820 3347,5780 "/>
  <polygon class="fil0 str0" points="5307,5780 5307,5820 5347,5820 5347,5780 "/>
  <polygon class="fil0 str0" points="7307,5780 7307,5820 7347,5820 7347,5780 "/>
  <polygon class="fil0 str0" points="9307,5780 9307,5820 9347,5820 9347,5780 "/>
  <polygon class="fil0 str0" points="11307,5780 11307,5820 11347,5820 11347,5780 "/>
  <polygon class="fil0 str0" points="13307,5780 13307,5820 13347,5820 13347,5780 "/>
  <polygon class="fil0 str0" points="27307,5780 27307,5820 27347,5820 27347,5780 "/>
  <polygon class="fil0 str0" points="25307,5780 25307,5820 25347,5820 25347,5780 "/>
  <polygon class="fil0 str0" points="23307,5780 23307,5820 23347,5820 23347,5780 "/>
  <polygon class="fil0 str0" points="21307,5780 21307,5820 21347,5820 21347,5780 "/>
  <polygon class="fil0 str0" points="19307,5780 19307,5820 19347,5820 19347,5780 "/>
  <polygon class="fil0 str0" points="17453,1280 17453,1320 17493,1320 17493,1280 "/>
  <polygon class="fil0 str0" points="3453,1280 3453,1320 3493,1320 3493,1280 "/>
  <polygon class="fil0 str0" points="5453,1280 5453,1320 5493,1320 5493,1280 "/>
  <polygon class="fil0 str0" points="7453,1280 7453,1320 7493,1320 7493,1280 "/>
  <polygon class="fil0 str0" points="9453,1280 9453,1320 9493,1320 9493,1280 "/>
  <polygon class="fil0 str0" points="11453,1280 11453,1320 11493,1320 11493,1280 "/>
  <polygon class="fil0 str0" points="13453,1280 13453,1320 13493,1320 13493,1280 "/>
  <polygon class="fil0 str0" points="27453,1280 27453,1320 27493,1320 27493,1280 "/>
  <polygon class="fil0 str0" points="25453,1280 25453,1320 25493,1320 25493,1280 "/>
  <polygon class="fil0 str0" points="23453,1280 23453,1320 23493,1320 23493,1280 "/>
  <polygon class="fil0 str0" points="21453,1280 21453,1320 21493,1320 21493,1280 "/>
  <polygon class="fil0 str0" points="19453,1280 19453,1320 19493,1320 19493,1280 "/>
  <polygon class="fil0 str0" points="17707,1280 17707,1320 17747,1320 17747,1280 "/>
  <polygon class="fil0 str0" points="3707,1280 3707,1320 3747,1320 3747,1280 "/>
  <polygon class="fil0 str0" points="5707,1280 5707,1320 5747,1320 5747,1280 "/>
  <polygon class="fil0 str0" points="7707,1280 7707,1320 7747,1320 7747,1280 "/>
  <polygon class="fil0 str0" points="9707,1280 9707,1320 9747,1320 9747,1280 "/>
  <polygon class="fil0 str0" points="11707,1280 11707,1320 11747,1320 11747,1280 "/>
  <polygon class="fil0 str0" points="13707,1280 13707,1320 13747,1320 13747,1280 "/>
  <polygon class="fil0 str0" points="27707,1280 27707,1320 27747,1320 27747,1280 "/>
  <polygon class="fil0 str0" points="25707,1280 25707,1320 25747,1320 25747,1280 "/>
  <polygon class="fil0 str0" points="23707,1280 23707,1320 23747,1320 23747,1280 "/>
  <polygon class="fil0 str0" points="21707,1280 21707,1320 21747,1320 21747,1280 "/>
  <polygon class="fil0 str0" points="19707,1280 19707,1320 19747,1320 19747,1280 "/>
  <polygon class="fil0 str0" points="16907,3380 16907,3420 16947,3420 16947,3380 "/>
  <polygon class="fil0 str0" points="2907,3380 2907,3420 2947,3420 2947,3380 "/>
  <polygon class="fil0 str0" points="4907,3380 4907,3420 4947,3420 4947,3380 "/>
  <polygon class="fil0 str0" points="6907,3380 6907,3420 6947,3420 6947,3380 "/>
  <polygon class="fil0 str0" points="8907,3380 8907,3420 8947,3420 8947,3380 "/>
  <polygon class="fil0 str0" points="10907,3380 10907,3420 10947,3420 10947,3380 "/>
  <polygon class="fil0 str0" points="12907,3380 12907,3420 12947,3420 12947,3380 "/>
  <polygon class="fil0 str0" points="26907,3380 26907,3420 26947,3420 26947,3380 "/>
  <polygon class="fil0 str0" points="24907,3380 24907,3420 24947,3420 24947,3380 "/>
  <polygon class="fil0 str0" points="22907,3380 22907,3420 22947,3420 22947,3380 "/>
  <polygon class="fil0 str0" points="20907,3380 20907,3420 20947,3420 20947,3380 "/>
  <polygon class="fil0 str0" points="18907,3380 18907,3420 18947,3420 18947,3380 "/>
  <polygon class="fil0 str0" points="16653,4380 16653,4420 16693,4420 16693,4380 "/>
  <polygon class="fil0 str0" points="2653,4380 2653,4420 2693,4420 2693,4380 "/>
  <polygon class="fil0 str0" points="4653,4380 4653,4420 4693,4420 4693,4380 "/>
  <polygon class="fil0 str0" points="6653,4380 6653,4420 6693,4420 6693,4380 "/>
  <polygon class="fil0 str0" points="8653,4380 8653,4420 8693,4420 8693,4380 "/>
  <polygon class="fil0 str0" points="10653,4380 10653,4420 10693,4420 10693,4380 "/>
  <polygon class="fil0 str0" points="12653,4380 12653,4420 12693,4420 12693,4380 "/>
  <polygon class="fil0 str0" points="26653,4380 26653,4420 26693,4420 26693,4380 "/>
  <polygon class="fil0 str0" points="24653,4380 24653,4420 24693,4420 24693,4380 "/>
  <polygon class="fil0 str0" points="22653,4380 22653,4420 22693,4420 22693,4380 "/>
  <polygon class="fil0 str0" points="20653,4380 20653,4420 20693,4420 20693,4380 "/>
  <polygon class="fil0 str0" points="18653,4380 18653,4420 18693,4420 18693,4380 "/>
  <polygon class="fil0 str0" points="16907,4380 16907,4420 16947,4420 16947,4380 "/>
  <polygon class="fil0 str0" points="2907,4380 2907,4420 2947,4420 2947,4380 "/>
  <polygon class="fil0 str0" points="4907,4380 4907,4420 4947,4420 4947,4380 "/>
  <polygon class="fil0 str0" points="6907,4380 6907,4420 6947,4420 6947,4380 "/>
  <polygon class="fil0 str0" points="8907,4380 8907,4420 8947,4420 8947,4380 "/>
  <polygon class="fil0 str0" points="10907,4380 10907,4420 10947,4420 10947,4380 "/>
  <polygon class="fil0 str0" points="12907,4380 12907,4420 12947,4420 12947,4380 "/>
  <polygon class="fil0 str0" points="26907,4380 26907,4420 26947,4420 26947,4380 "/>
  <polygon class="fil0 str0" points="24907,4380 24907,4420 24947,4420 24947,4380 "/>
  <polygon class="fil0 str0" points="22907,4380 22907,4420 22947,4420 22947,4380 "/>
  <polygon class="fil0 str0" points="20907,4380 20907,4420 20947,4420 20947,4380 "/>
  <polygon class="fil0 str0" points="18907,4380 18907,4420 18947,4420 18947,4380 "/>
  <polygon class="fil0 str0" points="17053,4780 17053,4820 17093,4820 17093,4780 "/>
  <polygon class="fil0 str0" points="3053,4780 3053,4820 3093,4820 3093,4780 "/>
  <polygon class="fil0 str0" points="5053,4780 5053,4820 5093,4820 5093,4780 "/>
  <polygon class="fil0 str0" points="7053,4780 7053,4820 7093,4820 7093,4780 "/>
  <polygon class="fil0 str0" points="9053,4780 9053,4820 9093,4820 9093,4780 "/>
  <polygon class="fil0 str0" points="11053,4780 11053,4820 11093,4820 11093,4780 "/>
  <polygon class="fil0 str0" points="13053,4780 13053,4820 13093,4820 13093,4780 "/>
  <polygon class="fil0 str0" points="27053,4780 27053,4820 27093,4820 27093,4780 "/>
  <polygon class="fil0 str0" points="25053,4780 25053,4820 25093,4820 25093,4780 "/>
  <polygon class="fil0 str0" points="23053,4780 23053,4820 23093,4820 23093,4780 "/>
  <polygon class="fil0 str0" points="21053,4780 21053,4820 21093,4820 21093,4780 "/>
  <polygon class="fil0 str0" points="19053,4780 19053,4820 19093,4820 19093,4780 "/>
  <polygon class="fil0 str0" points="18147,5080 18107,5080 18107,5120 18147,5120 "/>
  <polygon class="fil0 str0" points="4147,5080 4107,5080 4107,5120 4147,5120 "/>
  <polygon class="fil0 str0" points="6147,5080 6107,5080 6107,5120 6147,5120 "/>
  <polygon class="fil0 str0" points="8147,5080 8107,5080 8107,5120 8147,5120 "/>
  <polygon class="fil0 str0" points="10147,5080 10107,5080 10107,5120 10147,5120 "/>
  <polygon class="fil0 str0" points="12147,5080 12107,5080 12107,5120 12147,5120 "/>
  <polygon class="fil0 str0" points="14147,5080 14107,5080 14107,5120 14147,5120 "/>
  <polygon class="fil0 str0" points="28147,5080 28107,5080 28107,5120 28147,5120 "/>
  <polygon class="fil0 str0" points="26147,5080 26107,5080 26107,5120 26147,5120 "/>
  <polygon class="fil0 str0" points="24147,5080 24107,5080 24107,5120 24147,5120 "/>
  <polygon class="fil0 str0" points="22147,5080 22107,5080 22107,5120 22147,5120 "/>
  <polygon class="fil0 str0" points="20147,5080 20107,5080 20107,5120 20147,5120 "/>
  <polygon class="fil0 str0" points="18293,1980 18253,1980 18253,2020 18293,2020 "/>
  <polygon class="fil0 str0" points="4293,1980 4253,1980 4253,2020 4293,2020 "/>
  <polygon class="fil0 str0" points="6293,1980 6253,1980 6253,2020 6293,2020 "/>
  <polygon class="fil0 str0" points="8293,1980 8253,1980 8253,2020 8293,2020 "/>
  <polygon class="fil0 str0" points="10293,1980 10253,1980 10253,2020 10293,2020 "/>
  <polygon class="fil0 str0" points="12293,1980 12253,1980 12253,2020 12293,2020 "/>
  <polygon class="fil0 str0" points="14293,1980 14253,1980 14253,2020 14293,2020 "/>
  <polygon class="fil0 str0" points="28293,1980 28253,1980 28253,2020 28293,2020 "/>
  <polygon class="fil0 str0" points="26293,1980 26253,1980 26253,2020 26293,2020 "/>
  <polygon class="fil0 str0" points="24293,1980 24253,1980 24253,2020 24293,2020 "/>
  <polygon class="fil0 str0" points="22293,1980 22253,1980 22253,2020 22293,2020 "/>
  <polygon class="fil0 str0" points="20293,1980 20253,1980 20253,2020 20293,2020 "/>
  <polygon class="fil0 str0" points="18507,1980 18507,2020 18547,2020 18547,1980 "/>
  <polygon class="fil0 str0" points="4507,1980 4507,2020 4547,2020 4547,1980 "/>
  <polygon class="fil0 str0" points="6507,1980 6507,2020 6547,2020 6547,1980 "/>
  <polygon class="fil0 str0" points="8507,1980 8507,2020 8547,2020 8547,1980 "/>
  <polygon class="fil0 str0" points="10507,1980 10507,2020 10547,2020 10547,1980 "/>
  <polygon class="fil0 str0" points="12507,1980 12507,2020 12547,2020 12547,1980 "/>
  <polygon class="fil0 str0" points="14507,1980 14507,2020 14547,2020 14547,1980 "/>
  <polygon class="fil0 str0" points="28507,1980 28507,2020 28547,2020 28547,1980 "/>
  <polygon class="fil0 str0" points="26507,1980 26507,2020 26547,2020 26547,1980 "/>
  <polygon class="fil0 str0" points="24507,1980 24507,2020 24547,2020 24547,1980 "/>
  <polygon class="fil0 str0" points="22507,1980 22507,2020 22547,2020 22547,1980 "/>
  <polygon class="fil0 str0" points="20507,1980 20507,2020 20547,2020 20547,1980 "/>
  <polygon class="fil0 str0" points="18293,2980 18253,2980 18253,3020 18293,3020 "/>
  <polygon class="fil0 str0" points="4293,2980 4253,2980 4253,3020 4293,3020 "/>
  <polygon class="fil0 str0" points="6293,2980 6253,2980 6253,3020 6293,3020 "/>
  <polygon class="fil0 str0" points="8293,2980 8253,2980 8253,3020 8293,3020 "/>
  <polygon class="fil0 str0" points="10293,2980 10253,2980 10253,3020 10293,3020 "/>
  <polygon class="fil0 str0" points="12293,2980 12253,2980 12253,3020 12293,3020 "/>
  <polygon class="fil0 str0" points="14293,2980 14253,2980 14253,3020 14293,3020 "/>
  <polygon class="fil0 str0" points="28293,2980 28253,2980 28253,3020 28293,3020 "/>
  <polygon class="fil0 str0" points="26293,2980 26253,2980 26253,3020 26293,3020 "/>
  <polygon class="fil0 str0" points="24293,2980 24253,2980 24253,3020 24293,3020 "/>
  <polygon class="fil0 str0" points="22293,2980 22253,2980 22253,3020 22293,3020 "/>
  <polygon class="fil0 str0" points="20293,2980 20253,2980 20253,3020 20293,3020 "/>
  <polygon class="fil0 str0" points="18507,2980 18507,3020 18547,3020 18547,2980 "/>
  <polygon class="fil0 str0" points="4507,2980 4507,3020 4547,3020 4547,2980 "/>
  <polygon class="fil0 str0" points="6507,2980 6507,3020 6547,3020 6547,2980 "/>
  <polygon class="fil0 str0" points="8507,2980 8507,3020 8547,3020 8547,2980 "/>
  <polygon class="fil0 str0" points="10507,2980 10507,3020 10547,3020 10547,2980 "/>
  <polygon class="fil0 str0" points="12507,2980 12507,3020 12547,3020 12547,2980 "/>
  <polygon class="fil0 str0" points="14507,2980 14507,3020 14547,3020 14547,2980 "/>
  <polygon class="fil0 str0" points="28507,2980 28507,3020 28547,3020 28547,2980 "/>
  <polygon class="fil0 str0" points="26507,2980 26507,3020 26547,3020 26547,2980 "/>
  <polygon class="fil0 str0" points="24507,2980 24507,3020 24547,3020 24547,2980 "/>
  <polygon class="fil0 str0" points="22507,2980 22507,3020 22547,3020 22547,2980 "/>
  <polygon class="fil0 str0" points="20507,2980 20507,3020 20547,3020 20547,2980 "/>
  <polygon class="fil0 str0" points="17893,4080 17853,4080 17853,4120 17893,4120 "/>
  <polygon class="fil0 str0" points="3893,4080 3853,4080 3853,4120 3893,4120 "/>
  <polygon class="fil0 str0" points="5893,4080 5853,4080 5853,4120 5893,4120 "/>
  <polygon class="fil0 str0" points="7893,4080 7853,4080 7853,4120 7893,4120 "/>
  <polygon class="fil0 str0" points="9893,4080 9853,4080 9853,4120 9893,4120 "/>
  <polygon class="fil0 str0" points="11893,4080 11853,4080 11853,4120 11893,4120 "/>
  <polygon class="fil0 str0" points="13893,4080 13853,4080 13853,4120 13893,4120 "/>
  <polygon class="fil0 str0" points="27893,4080 27853,4080 27853,4120 27893,4120 "/>
  <polygon class="fil0 str0" points="25893,4080 25853,4080 25853,4120 25893,4120 "/>
  <polygon class="fil0 str0" points="23893,4080 23853,4080 23853,4120 23893,4120 "/>
  <polygon class="fil0 str0" points="21893,4080 21853,4080 21853,4120 21893,4120 "/>
  <polygon class="fil0 str0" points="19893,4080 19853,4080 19853,4120 19893,4120 "/>
  <polygon class="fil0 str0" points="18107,4080 18107,4120 18147,4120 18147,4080 "/>
  <polygon class="fil0 str0" points="4107,4080 4107,4120 4147,4120 4147,4080 "/>
  <polygon class="fil0 str0" points="6107,4080 6107,4120 6147,4120 6147,4080 "/>
  <polygon class="fil0 str0" points="8107,4080 8107,4120 8147,4120 8147,4080 "/>
  <polygon class="fil0 str0" points="10107,4080 10107,4120 10147,4120 10147,4080 "/>
  <polygon class="fil0 str0" points="12107,4080 12107,4120 12147,4120 12147,4080 "/>
  <polygon class="fil0 str0" points="14107,4080 14107,4120 14147,4120 14147,4080 "/>
  <polygon class="fil0 str0" points="28107,4080 28107,4120 28147,4120 28147,4080 "/>
  <polygon class="fil0 str0" points="26107,4080 26107,4120 26147,4120 26147,4080 "/>
  <polygon class="fil0 str0" points="24107,4080 24107,4120 24147,4120 24147,4080 "/>
  <polygon class="fil0 str0" points="22107,4080 22107,4120 22147,4120 22147,4080 "/>
  <polygon class="fil0 str0" points="20107,4080 20107,4120 20147,4120 20147,4080 "/>
  <polygon class="fil0 str0" points="17893,5080 17853,5080 17853,5120 17893,5120 "/>
  <polygon class="fil0 str0" points="3893,5080 3853,5080 3853,5120 3893,5120 "/>
  <polygon class="fil0 str0" points="5893,5080 5853,5080 5853,5120 5893,5120 "/>
  <polygon class="fil0 str0" points="7893,5080 7853,5080 7853,5120 7893,5120 "/>
  <polygon class="fil0 str0" points="9893,5080 9853,5080 9853,5120 9893,5120 "/>
  <polygon class="fil0 str0" points="11893,5080 11853,5080 11853,5120 11893,5120 "/>
  <polygon class="fil0 str0" points="13893,5080 13853,5080 13853,5120 13893,5120 "/>
  <polygon class="fil0 str0" points="27893,5080 27853,5080 27853,5120 27893,5120 "/>
  <polygon class="fil0 str0" points="25893,5080 25853,5080 25853,5120 25893,5120 "/>
  <polygon class="fil0 str0" points="23893,5080 23853,5080 23853,5120 23893,5120 "/>
  <polygon class="fil0 str0" points="21893,5080 21853,5080 21853,5120 21893,5120 "/>
  <polygon class="fil0 str0" points="19893,5080 19853,5080 19853,5120 19893,5120 "/>
  <polygon class="fil0 str0" points="17707,2280 17707,2320 17747,2320 17747,2280 "/>
  <polygon class="fil0 str0" points="3707,2280 3707,2320 3747,2320 3747,2280 "/>
  <polygon class="fil0 str0" points="5707,2280 5707,2320 5747,2320 5747,2280 "/>
  <polygon class="fil0 str0" points="7707,2280 7707,2320 7747,2320 7747,2280 "/>
  <polygon class="fil0 str0" points="9707,2280 9707,2320 9747,2320 9747,2280 "/>
  <polygon class="fil0 str0" points="11707,2280 11707,2320 11747,2320 11747,2280 "/>
  <polygon class="fil0 str0" points="13707,2280 13707,2320 13747,2320 13747,2280 "/>
  <polygon class="fil0 str0" points="27707,2280 27707,2320 27747,2320 27747,2280 "/>
  <polygon class="fil0 str0" points="25707,2280 25707,2320 25747,2320 25747,2280 "/>
  <polygon class="fil0 str0" points="23707,2280 23707,2320 23747,2320 23747,2280 "/>
  <polygon class="fil0 str0" points="21707,2280 21707,2320 21747,2320 21747,2280 "/>
  <polygon class="fil0 str0" points="19707,2280 19707,2320 19747,2320 19747,2280 "/>
  <path class="fil0 str0" d="M1660 1000c0,-88 -72,-160 -160,-160 -88,0 -160,72 -160,160 0,88 72,160 160,160 88,0 160,-72 160,-160z"/>
  <path class="fil0 str0" d="M29060 1000c0,-88 -72,-160 -160,-160 -88,0 -160,72 -160,160 0,88 72,160 160,160 88,0 160,-72 160,-160z"/>
  <polygon class="fil0 str0" points="1673,2000 1587,1850 1413,1850 1327,2000 1413,2150 1587,2150 "/>
  <polygon class="fil0 str0" points="500,7500 500,500 29900,500 29900,7500 "/>
  <path class="fil0 str0" d="M1950 8600c0,-83 -67,-150 -150,-150 -83,0 -150,67 -150,150 0,83 67,150 150,150 83,0 150,-67 150,-150z"/>
  <path class="fil0 str0" d="M1950 23000c0,-83 -67,-150 -150,-150 -83,0 -150,67 -150,150 0,83 67,150 150,150 83,0 150,-67 150,-150z"/>
  <polygon class="fil0 str0" points="14085,14777 14495,14777 14495,8777 14105,8777 14105,9630 13695,9630 13695,10056 13265,10056 13265,9204 12875,9204 12875,15204 13285,15204 13285,16056 13675,16056 13675,15630 14085,15630 "/>
  <polygon class="fil0 str0" points="12495,14777 12495,8777 12105,8777 12105,9630 11695,9630 11695,10056 11265,10056 11265,9204 10875,9204 10875,15204 11285,15204 11285,16056 11675,16056 11675,15630 12085,15630 12085,14777 "/>
  <polygon class="fil0 str0" points="18495,14777 18495,8777 18105,8777 18105,9630 17695,9630 17695,10056 17265,10056 17265,9204 16875,9204 16875,15204 17285,15204 17285,16056 17675,16056 17675,15630 18085,15630 18085,14777 "/>
  <polygon class="fil0 str0" points="16495,14777 16495,8777 16105,8777 16105,9630 15695,9630 15695,10056 15265,10056 15265,9204 14875,9204 14875,15204 15285,15204 15285,16056 15675,16056 15675,15630 16085,15630 16085,14777 "/>
  <polygon class="fil0 str0" points="6495,14777 6495,8777 6105,8777 6105,9630 5695,9630 5695,10056 5265,10056 5265,9204 4875,9204 4875,15204 5285,15204 5285,16056 5675,16056 5675,15630 6085,15630 6085,14777 "/>
  <polygon class="fil0 str0" points="8495,14777 8495,8777 8105,8777 8105,9630 7695,9630 7695,10056 7265,10056 7265,9204 6875,9204 6875,15204 7285,15204 7285,16056 7675,16056 7675,15630 8085,15630 8085,14777 "/>
  <polygon class="fil0 str0" points="10495,14777 10495,8777 10105,8777 10105,9630 9695,9630 9695,10056 9265,10056 9265,9204 8875,9204 8875,15204 9285,15204 9285,16056 9675,16056 9675,15630 10085,15630 10085,14777 "/>
  <path class="fil0 str0" d="M1950 18600c0,-83 -67,-150 -150,-150 -83,0 -150,67 -150,150 0,83 67,150 150,150 83,0 150,-67 150,-150z"/>
  <path class="fil0 str0" d="M6950 23000c0,-83 -67,-150 -150,-150 -83,0 -150,67 -150,150 0,83 67,150 150,150 83,0 150,-67 150,-150z"/>
  <path class="fil0 str0" d="M6950 18600c0,-83 -67,-150 -150,-150 -83,0 -150,67 -150,150 0,83 67,150 150,150 83,0 150,-67 150,-150z"/>
  <path class="fil0 str0" d="M6950 8600c0,-83 -67,-150 -150,-150 -83,0 -150,67 -150,150 0,83 67,150 150,150 83,0 150,-67 150,-150z"/>
  <path class="fil0 str0" d="M11950 18600c0,-83 -67,-150 -150,-150 -83,0 -150,67 -150,150 0,83 67,150 150,150 83,0 150,-67 150,-150z"/>
  <path class="fil0 str0" d="M16950 8600c0,-83 -67,-150 -150,-150 -83,0 -150,67 -150,150 0,83 67,150 150,150 83,0 150,-67 150,-150z"/>
  <path class="fil0 str0" d="M11950 23000c0,-83 -67,-150 -150,-150 -83,0 -150,67 -150,150 0,83 67,150 150,150 83,0 150,-67 150,-150z"/>
  <path class="fil0 str0" d="M11950 8600c0,-83 -67,-150 -150,-150 -83,0 -150,67 -150,150 0,83 67,150 150,150 83,0 150,-67 150,-150z"/>
  <path class="fil0 str0" d="M26950 8600c0,-83 -67,-150 -150,-150 -83,0 -150,67 -150,150 0,83 67,150 150,150 83,0 150,-67 150,-150z"/>
  <path class="fil0 str0" d="M21950 18600c0,-83 -67,-150 -150,-150 -83,0 -150,67 -150,150 0,83 67,150 150,150 83,0 150,-67 150,-150z"/>
  <path class="fil0 str0" d="M26950 18600c0,-83 -67,-150 -150,-150 -83,0 -150,67 -150,150 0,83 67,150 150,150 83,0 150,-67 150,-150z"/>
  <path class="fil0 str0" d="M26950 23000c0,-83 -67,-150 -150,-150 -83,0 -150,67 -150,150 0,83 67,150 150,150 83,0 150,-67 150,-150z"/>
  <path class="fil0 str0" d="M16950 23000c0,-83 -67,-150 -150,-150 -83,0 -150,67 -150,150 0,83 67,150 150,150 83,0 150,-67 150,-150z"/>
  <path class="fil0 str0" d="M16950 18600c0,-83 -67,-150 -150,-150 -83,0 -150,67 -150,150 0,83 67,150 150,150 83,0 150,-67 150,-150z"/>
  <path class="fil0 str0" d="M21950 8600c0,-83 -67,-150 -150,-150 -83,0 -150,67 -150,150 0,83 67,150 150,150 83,0 150,-67 150,-150z"/>
  <path class="fil0 str0" d="M21950 23000c0,-83 -67,-150 -150,-150 -83,0 -150,67 -150,150 0,83 67,150 150,150 83,0 150,-67 150,-150z"/>
  <polygon class="fil0 str0" points="1695,15630 2085,15630 2085,9630 1695,9630 "/>
  <polygon class="fil0 str0" points="3695,10056 3265,10056 3265,9204 2875,9204 2875,15204 3285,15204 3285,16056 3675,16056 3675,15630 4085,15630 4085,9630 3695,9630 "/>
  <polygon class="fil0 str0" points="25695,10056 25265,10056 25265,9204 24875,9204 24875,15204 25285,15204 25285,16056 25675,16056 25675,15630 26085,15630 26085,9630 25695,9630 "/>
  <polygon class="fil0 str0" points="23695,10056 23265,10056 23265,9204 22875,9204 22875,15204 23285,15204 23285,16056 23675,16056 23675,15630 24085,15630 24085,9630 23695,9630 "/>
  <polygon class="fil0 str0" points="21695,10056 21265,10056 21265,9204 20875,9204 20875,15204 21285,15204 21285,16056 21675,16056 21675,15630 22085,15630 22085,9630 21695,9630 "/>
  <polygon class="fil0 str0" points="19695,10056 19265,10056 19265,9204 18875,9204 18875,15204 19285,15204 19285,16056 19675,16056 19675,15630 20085,15630 20085,9630 19695,9630 "/>
  <polygon class="fil0 str0" points="1373,9600 1287,9450 1113,9450 1027,9600 1113,9750 1287,9750 "/>
  <polygon class="fil0 str0" points="600,23500 28000,23500 28000,8100 600,8100 "/>
  <path class="fil0 str0" d="M38126 839c55,0 100,-45 100,-100 0,-55 -45,-100 -100,-100 -55,0 -100,45 -100,100 0,55 45,100 100,100z"/>
  <path class="fil0 str0" d="M35350 2489c221,0 400,-179 400,-400 0,-221 -179,-400 -400,-400 -221,0 -400,179 -400,400 0,221 179,400 400,400z"/>
  <path class="fil0 str0" d="M37258 2689l7442 0 0 800 217 0c39,-266 66,-532 83,-800l0 -1200c-17,-268 -44,-535 -83,-800l-217 0 0 800 -6224 0 -73 -730c-14,-145 -131,-259 -277,-269 -146,10 -262,124 -277,269l-73 730 -3133 0 -1019 5780 -157 0c-78,0 -148,45 -181,115l-645 1384c-24,51 -25,111 -3,163 22,50 -1,108 -50,131 -50,22 -108,1 -132,-48 -23,-49 -3,-108 45,-133 51,-25 88,-71 103,-126l1201 -4484c27,-100 -27,-204 -124,-240l-295 -107c-98,-36 -206,9 -250,103l-941 2018c-24,51 -25,110 -2,163 21,50 -1,108 -51,130 -49,23 -108,1 -131,-48 -24,-49 -4,-108 45,-132 50,-26 88,-72 103,-127l758 -2832 950 -83c104,-9 183,-95 183,-199l0 -314c0,-104 -79,-190 -183,-199l-1969 -173c-53,-4 -105,12 -146,47 -40,34 -66,82 -70,135l-158 1798c-33,7 -67,14 -101,21l-200 -2873 -200 0 0 3730 -380 0 0 -1000 -400 0 0 2000 780 0 0 330 200 0 182 -1708 294 0c104,0 190,-80 199,-183l165 -1881 1064 94c57,4 113,-15 155,-54 39,-37 101,-36 139,3 39,39 39,101 0,140 -38,39 -100,40 -139,3 -42,-39 -98,-58 -155,-53l-384 33c-84,7 -154,66 -176,148l-978 3651c-27,100 27,204 125,239l295 108c97,35 206,-10 250,-104l940 -2017c24,-51 25,-111 3,-163 -22,-50 1,-108 50,-131 50,-22 108,-1 132,48 23,49 3,108 -45,133 -51,25 -88,71 -103,126l-1196 4464c-24,88 15,180 93,225l275 159c49,28 107,34 160,18 54,-17 98,-56 121,-107l840 -1801 -714 4052 787 139 53 -295 1100 0 0 -100 400 0 0 -400 -400 0 0 -100 -995 0 1243 -7046c989,174 1954,-412 2255,-1370z"/>
  <path class="fil0 str0" d="M42626 3849c55,0 100,-45 100,-100 0,-55 -45,-100 -100,-100 -55,0 -100,45 -100,100 0,55 45,100 100,100z"/>
  <path class="fil0 str0" d="M39850 5499c221,0 400,-179 400,-400 0,-221 -179,-400 -400,-400 -221,0 -400,179 -400,400 0,221 179,400 400,400z"/>
  <path class="fil0 str0" d="M41758 5699l7442 0 0 800 217 0c39,-265 66,-532 83,-800l0 -1200c-17,-267 -44,-534 -83,-800l-217 0 0 800 -6224 0 -73 -730c-14,-145 -131,-259 -277,-269 -146,10 -262,124 -277,269l-73 730 -3133 0 -1019 5780 -157 0c-78,0 -148,45 -181,116l-645 1383c-24,52 -25,111 -3,163 22,51 -1,108 -50,131 -50,22 -108,1 -132,-48 -23,-49 -3,-108 45,-132 51,-26 88,-72 103,-127l1201 -4484c27,-100 -27,-204 -124,-239l-295 -108c-98,-35 -206,10 -250,104l-941 2017c-24,51 -25,111 -2,163 21,50 -1,108 -51,131 -49,22 -108,1 -131,-48 -24,-49 -4,-108 45,-133 50,-25 88,-72 103,-126l758 -2832 950 -83c104,-9 183,-96 183,-200l0 -314c0,-103 -79,-190 -183,-199l-1969 -172c-53,-5 -105,12 -146,46 -40,34 -66,83 -70,136l-158 1797c-33,8 -67,15 -101,21l-200 -2872 -200 0 0 3729 -380 0 0 -1000 -400 0 0 2000 780 0 0 330 200 0 182 -1708 294 0c104,0 190,-79 199,-183l165 -1880 1064 93c57,5 113,-15 155,-54 39,-37 101,-35 139,3 39,39 39,101 0,140 -38,39 -100,41 -139,3 -42,-39 -98,-58 -155,-53l-384 33c-84,8 -154,67 -176,148l-978 3651c-27,100 27,204 125,240l295 107c97,35 206,-9 250,-103l940 -2018c24,-51 25,-111 3,-163 -22,-50 1,-108 50,-130 50,-23 108,-2 132,48 23,49 3,107 -45,132 -51,26 -88,72 -103,127l-1196 4464c-24,87 15,179 93,225l275 158c49,28 107,35 160,18 54,-17 98,-56 121,-106l840 -1801 -714 4051 787 139 53 -295 1100 0 0 -100 400 0 0 -400 -400 0 0 -100 -995 0 1243 -7046c989,174 1954,-412 2255,-1370z"/>
  <path class="fil0 str0" d="M47004 7094c55,0 100,-45 100,-100 0,-55 -45,-100 -100,-100 -55,0 -100,45 -100,100 0,55 45,100 100,100z"/>
  <path class="fil0 str0" d="M44228 8744c221,0 400,-179 400,-400 0,-221 -179,-400 -400,-400 -221,0 -400,179 -400,400 0,221 179,400 400,400z"/>
  <path class="fil0 str0" d="M46136 8944l7442 0 0 800 217 0c39,-265 67,-532 83,-800l0 -1200c-16,-268 -44,-535 -83,-800l-217 0 0 800 -6224 0 -73 -730c-14,-145 -131,-259 -277,-269 -145,10 -262,124 -277,269l-73 730 -3132 0 -1019 5780 -158 0c-77,0 -148,45 -181,116l-645 1383c-24,52 -25,111 -3,163 22,50 -1,108 -50,131 -50,22 -108,1 -132,-48 -23,-49 -3,-108 45,-133 51,-25 89,-71 103,-126l1202 -4484c27,-100 -28,-204 -125,-239l-295 -108c-98,-35 -206,10 -250,104l-940 2017c-25,51 -25,111 -3,163 21,50 -1,108 -51,130 -49,23 -108,2 -131,-47 -24,-50 -4,-108 45,-133 51,-26 88,-72 103,-127l759 -2831 950 -84c103,-9 182,-95 182,-199l0 -314c0,-104 -79,-190 -182,-199l-1969 -172c-53,-5 -106,12 -146,46 -41,34 -66,83 -71,135l-157 1798c-34,8 -68,15 -101,21l-200 -2872 -200 0 0 3729 -380 0 0 -1000 -400 0 0 2000 780 0 0 330 200 0 181 -1708 294 0c104,0 190,-79 199,-183l165 -1880 1065 93c56,5 112,-15 154,-54 39,-37 102,-36 140,3 38,39 38,101 0,140 -38,39 -101,40 -140,3 -42,-39 -98,-58 -154,-53l-385 33c-83,8 -154,67 -175,148l-979 3651c-27,100 28,204 125,239l295 108c98,35 206,-10 250,-104l940 -2017c25,-51 25,-111 3,-163 -21,-50 1,-108 51,-130 49,-23 108,-2 131,47 24,49 4,108 -45,133 -51,26 -88,72 -103,127l-1196 4463c-23,88 15,180 93,225l275 159c49,28 107,35 160,18 54,-17 98,-56 121,-107l840 -1800 -714 4051 788 139 52 -295 1100 0 0 -100 400 0 0 -400 -400 0 0 -100 -994 0 1242 -7046c989,174 1954,-412 2255,-1370z"/>
  <path class="fil0 str0" d="M51504 10094c55,0 100,-45 100,-100 0,-55 -45,-100 -100,-100 -55,0 -100,45 -100,100 0,55 45,100 100,100z"/>
  <path class="fil0 str0" d="M48728 11744c221,0 400,-179 400,-400 0,-221 -179,-400 -400,-400 -221,0 -400,179 -400,400 0,221 179,400 400,400z"/>
  <path class="fil0 str0" d="M50636 11944l7442 0 0 800 217 0c39,-265 67,-532 83,-800l0 -1200c-16,-268 -44,-535 -83,-800l-217 0 0 800 -6224 0 -73 -730c-14,-145 -131,-259 -277,-269 -145,10 -262,124 -277,269l-73 730 -3132 0 -1019 5780 -158 0c-77,0 -148,45 -181,116l-645 1383c-24,52 -25,111 -3,163 22,50 -1,108 -50,131 -50,22 -108,1 -132,-48 -23,-49 -3,-108 45,-133 51,-25 89,-71 103,-126l1202 -4484c27,-100 -28,-204 -125,-239l-295 -108c-98,-35 -206,10 -250,104l-940 2017c-25,51 -25,111 -3,163 21,50 -1,108 -51,130 -49,23 -108,2 -131,-47 -24,-50 -4,-108 45,-133 51,-26 88,-72 103,-127l759 -2831 950 -84c103,-9 182,-95 182,-199l0 -314c0,-104 -79,-190 -182,-199l-1969 -172c-53,-5 -106,12 -146,46 -41,34 -66,83 -71,135l-157 1798c-34,8 -68,15 -101,21l-200 -2872 -200 0 0 3729 -380 0 0 -1000 -400 0 0 2000 780 0 0 330 200 0 181 -1708 294 0c104,0 190,-79 199,-183l165 -1880 1065 93c56,5 112,-15 154,-54 39,-37 102,-36 140,3 38,39 38,101 0,140 -38,39 -101,40 -140,3 -42,-39 -98,-58 -154,-53l-385 33c-83,8 -154,67 -175,148l-979 3651c-27,100 28,204 125,239l295 108c98,35 206,-10 250,-104l940 -2017c25,-51 25,-111 3,-163 -21,-50 1,-108 51,-130 49,-23 108,-2 131,47 24,49 4,108 -45,133 -51,26 -88,72 -103,127l-1196 4463c-23,88 15,180 93,225l275 159c49,28 107,35 160,18 54,-17 98,-56 121,-107l840 -1800 -714 4051 788 139 52 -295 1100 0 0 -100 400 0 0 -400 -400 0 0 -100 -994 0 1242 -7046c989,174 1954,-412 2255,-1370z"/>
  <path class="fil0 str0" d="M56004 13094c55,0 100,-45 100,-100 0,-55 -45,-100 -100,-100 -55,0 -100,45 -100,100 0,55 45,100 100,100z"/>
  <path class="fil0 str0" d="M53228 14744c221,0 400,-179 400,-400 0,-221 -179,-400 -400,-400 -221,0 -400,179 -400,400 0,221 179,400 400,400z"/>
  <path class="fil0 str0" d="M55136 14944l7442 0 0 800 217 0c39,-265 67,-532 83,-800l0 -1200c-16,-268 -44,-535 -83,-800l-217 0 0 800 -6224 0 -73 -730c-14,-145 -131,-259 -277,-269 -145,10 -262,124 -277,269l-73 730 -3132 0 -1019 5780 -158 0c-77,0 -148,45 -181,116l-645 1383c-24,52 -25,111 -3,163 22,50 -1,108 -50,131 -50,22 -108,1 -132,-48 -23,-49 -3,-108 45,-133 51,-25 89,-71 103,-126l1202 -4484c27,-100 -28,-204 -125,-239l-295 -108c-98,-35 -206,10 -250,104l-940 2017c-25,51 -25,111 -3,163 21,50 -1,108 -51,130 -49,23 -108,2 -131,-47 -24,-50 -4,-108 45,-133 51,-26 88,-72 103,-127l759 -2831 950 -84c103,-9 182,-95 182,-199l0 -314c0,-104 -79,-190 -182,-199l-1969 -172c-53,-5 -106,12 -146,46 -41,34 -66,83 -71,135l-157 1798c-34,8 -68,15 -101,21l-200 -2872 -200 0 0 3729 -380 0 0 -1000 -400 0 0 2000 780 0 0 330 200 0 181 -1708 294 0c104,0 190,-79 199,-183l165 -1880 1065 93c56,5 112,-15 154,-54 39,-37 102,-36 140,3 38,39 38,101 0,140 -38,39 -101,40 -140,3 -42,-39 -98,-58 -154,-53l-385 33c-83,8 -154,67 -175,148l-979 3651c-27,100 28,204 125,239l295 108c98,35 206,-10 250,-104l940 -2017c25,-51 25,-111 3,-163 -21,-50 1,-108 51,-130 49,-23 108,-2 131,47 24,49 4,108 -45,133 -51,26 -88,72 -103,127l-1196 4463c-23,88 15,180 93,225l275 159c49,28 107,35 160,18 54,-17 98,-56 121,-107l840 -1800 -714 4051 788 139 52 -295 1100 0 0 -100 400 0 0 -400 -400 0 0 -100 -994 0 1242 -7046c989,174 1954,-412 2255,-1370z"/>
  <path class="fil0 str0" d="M60504 16094c55,0 100,-45 100,-100 0,-55 -45,-100 -100,-100 -55,0 -100,45 -100,100 0,55 45,100 100,100z"/>
  <path class="fil0 str0" d="M66406 8504c0,55 45,100 100,100 55,0 100,-45 100,-100 0,-55 -45,-100 -100,-100 -55,0 -100,45 -100,100z"/>
  <path class="fil0 str0" d="M28406 32004c0,55 45,100 100,100 55,0 100,-45 100,-100 0,-55 -45,-100 -100,-100 -55,0 -100,45 -100,100z"/>
  <path class="fil0 str0" d="M57728 17744c221,0 400,-179 400,-400 0,-221 -179,-400 -400,-400 -221,0 -400,179 -400,400 0,221 179,400 400,400z"/>
  <path class="fil0 str0" d="M64756 5728c0,221 179,400 400,400 221,0 400,-179 400,-400 0,-221 -179,-400 -400,-400 -221,0 -400,179 -400,400z"/>
  <path class="fil0 str0" d="M26756 29228c0,221 179,400 400,400 221,0 400,-179 400,-400 0,-221 -179,-400 -400,-400 -221,0 -400,179 -400,400z"/>
  <path class="fil0 str0" d="M59636 17944l7442 0 0 800 217 0c39,-265 67,-532 83,-800l0 -1200c-16,-268 -44,-535 -83,-800l-217 0 0 800 -6224 0 -73 -730c-14,-145 -131,-259 -277,-269 -145,10 -262,124 -277,269l-73 730 -3132 0 -1019 5780 -158 0c-77,0 -148,45 -181,116l-645 1383c-24,52 -25,111 -3,163 22,50 -1,108 -50,131 -50,22 -108,1 -132,-48 -23,-49 -3,-108 45,-133 51,-25 89,-71 103,-126l1202 -4484c27,-100 -28,-204 -125,-239l-295 -108c-98,-35 -206,10 -250,104l-940 2017c-25,51 -25,111 -3,163 21,50 -1,108 -51,130 -49,23 -108,2 -131,-47 -24,-50 -4,-108 45,-133 51,-26 88,-72 103,-127l759 -2831 950 -84c103,-9 182,-95 182,-199l0 -314c0,-104 -79,-190 -182,-199l-1969 -172c-53,-5 -106,12 -146,46 -41,34 -66,83 -71,135l-157 1798c-34,8 -68,15 -101,21l-200 -2872 -200 0 0 3729 -380 0 0 -1000 -400 0 0 2000 780 0 0 330 200 0 181 -1708 294 0c104,0 190,-79 199,-183l165 -1880 1065 93c56,5 112,-15 154,-54 39,-37 102,-36 140,3 38,39 38,101 0,140 -38,39 -101,40 -140,3 -42,-39 -98,-58 -154,-53l-385 33c-83,8 -154,67 -175,148l-979 3651c-27,100 28,204 125,239l295 108c98,35 206,-10 250,-104l940 -2017c25,-51 25,-111 3,-163 -21,-50 1,-108 51,-130 49,-23 108,-2 131,47 24,49 4,108 -45,133 -51,26 -88,72 -103,127l-1196 4463c-23,88 15,180 93,225l275 159c49,28 107,35 160,18 54,-17 98,-56 121,-107l840 -1800 -714 4051 788 139 52 -295 1100 0 0 -100 400 0 0 -400 -400 0 0 -100 -994 0 1242 -7046c989,174 1954,-412 2255,-1370z"/>
  <path class="fil0 str0" d="M64556 7636l0 7442 -800 0 0 217c265,39 532,67 800,83l1200 0c268,-16 535,-44 800,-83l0 -217 -800 0 0 -6224 730 -73c145,-14 259,-131 269,-277 -10,-145 -124,-262 -269,-277l-730 -73 0 -3132 -5780 -1019 0 -158c0,-77 -45,-148 -116,-181l-1383 -645c-52,-24 -111,-25 -163,-3 -50,22 -108,-1 -131,-50 -22,-50 -1,-108 48,-132 49,-23 108,-3 133,45 25,51 71,89 126,103l4484 1202c100,27 204,-28 239,-125l108 -295c35,-98 -10,-206 -104,-250l-2017 -940c-51,-25 -111,-25 -163,-3 -50,21 -108,-1 -130,-51 -23,-49 -2,-108 47,-131 50,-24 108,-4 133,45 26,51 72,88 127,103l2831 759 84 950c9,103 95,182 199,182l314 0c104,0 190,-79 199,-182l172 -1969c5,-53 -12,-106 -46,-146 -34,-41 -83,-66 -135,-71l-1798 -157c-8,-34 -15,-68 -21,-101l2872 -200 0 -200 -3729 0 0 -380 1000 0 0 -400 -2000 0 0 780 -330 0 0 200 1708 181 0 294c0,104 79,190 183,199l1880 165 -93 1065c-5,56 15,112 54,154 37,39 36,102 -3,140 -39,38 -101,38 -140,0 -39,-38 -40,-101 -3,-140 39,-42 58,-98 53,-154l-33 -385c-8,-83 -67,-154 -148,-175l-3651 -979c-100,-27 -204,28 -239,125l-108 295c-35,98 10,206 104,250l2017 940c51,25 111,25 163,3 50,-21 108,1 130,51 23,49 2,108 -47,131 -49,24 -108,4 -133,-45 -26,-51 -72,-88 -127,-103l-4463 -1196c-88,-23 -180,15 -225,93l-159 275c-28,49 -35,107 -18,160 17,54 56,98 107,121l1800 840 -4051 -714 -139 788 295 52 0 1100 100 0 0 400 400 0 0 -400 100 0 0 -994 7046 1242c-174,989 412,1954 1370,2255z"/>
  <path class="fil0 str0" d="M26556 31136l0 7442 -800 0 0 217c265,39 532,67 800,83l1200 0c268,-16 535,-44 800,-83l0 -217 -800 0 0 -6224 730 -73c145,-14 259,-131 269,-277 -10,-145 -124,-262 -269,-277l-730 -73 0 -3132 -5780 -1019 0 -158c0,-77 -45,-148 -116,-181l-1383 -645c-52,-24 -111,-25 -163,-3 -50,22 -108,-1 -131,-50 -22,-50 -1,-108 48,-132 49,-23 108,-3 133,45 25,51 71,89 126,103l4484 1202c100,27 204,-28 239,-125l108 -295c35,-98 -10,-206 -104,-250l-2017 -940c-51,-25 -111,-25 -163,-3 -50,21 -108,-1 -130,-51 -23,-49 -2,-108 47,-131 50,-24 108,-4 133,45 26,51 72,88 127,103l2831 759 84 950c9,103 95,182 199,182l314 0c104,0 190,-79 199,-182l172 -1969c5,-53 -12,-106 -46,-146 -34,-41 -83,-66 -135,-71l-1798 -157c-8,-34 -15,-68 -21,-101l2872 -200 0 -200 -3729 0 0 -380 1000 0 0 -400 -2000 0 0 780 -330 0 0 200 1708 181 0 294c0,104 79,190 183,199l1880 165 -93 1065c-5,56 15,112 54,154 37,39 36,102 -3,140 -39,38 -101,38 -140,0 -39,-38 -40,-101 -3,-140 39,-42 58,-98 53,-154l-33 -385c-8,-83 -67,-154 -148,-175l-3651 -979c-100,-27 -204,28 -239,125l-108 295c-35,98 10,206 104,250l2017 940c51,25 111,25 163,3 50,-21 108,1 130,51 23,49 2,108 -47,131 -49,24 -108,4 -133,-45 -26,-51 -72,-88 -127,-103l-4463 -1196c-88,-23 -180,15 -225,93l-159 275c-28,49 -35,107 -18,160 17,54 56,98 107,121l1800 840 -4051 -714 -139 788 295 52 0 1100 100 0 0 400 400 0 0 -400 100 0 0 -994 7046 1242c-174,989 412,1954 1370,2255z"/>
  <path class="fil0 str0" d="M37004 19094c55,0 100,-45 100,-100 0,-55 -45,-100 -100,-100 -55,0 -100,45 -100,100 0,55 45,100 100,100z"/>
  <path class="fil0 str0" d="M34228 20744c221,0 400,-179 400,-400 0,-221 -179,-400 -400,-400 -221,0 -400,179 -400,400 0,221 179,400 400,400z"/>
  <path class="fil0 str0" d="M36136 20944l7442 0 0 800 217 0c39,-265 67,-532 83,-800l0 -1200c-16,-268 -44,-535 -83,-800l-217 0 0 800 -6224 0 -73 -730c-14,-145 -131,-259 -277,-269 -145,10 -262,124 -277,269l-73 730 -3132 0 -1019 5780 -158 0c-77,0 -148,45 -181,116l-645 1383c-24,52 -25,111 -3,163 22,50 -1,108 -50,131 -50,22 -108,1 -132,-48 -23,-49 -3,-108 45,-133 51,-25 89,-71 103,-126l1202 -4484c27,-100 -28,-204 -125,-239l-295 -108c-98,-35 -206,10 -250,104l-940 2017c-25,51 -25,111 -3,163 21,50 -1,108 -51,130 -49,23 -108,2 -131,-47 -24,-50 -4,-108 45,-133 51,-26 88,-72 103,-127l759 -2831 950 -84c103,-9 182,-95 182,-199l0 -314c0,-104 -79,-190 -182,-199l-1969 -172c-53,-5 -106,12 -146,46 -41,34 -66,83 -71,135l-157 1798c-34,8 -68,15 -101,21l-200 -2872 -200 0 0 3729 -380 0 0 -1000 -400 0 0 2000 780 0 0 330 200 0 181 -1708 294 0c104,0 190,-79 199,-183l165 -1880 1065 93c56,5 112,-15 154,-54 39,-37 102,-36 140,3 38,39 38,101 0,140 -38,39 -101,40 -140,3 -42,-39 -98,-58 -154,-53l-385 33c-83,8 -154,67 -175,148l-979 3651c-27,100 28,204 125,239l295 108c98,35 206,-10 250,-104l940 -2017c25,-51 25,-111 3,-163 -21,-50 1,-108 51,-130 49,-23 108,-2 131,47 24,49 4,108 -45,133 -51,26 -88,72 -103,127l-1196 4463c-23,88 15,180 93,225l275 159c49,28 107,35 160,18 54,-17 98,-56 121,-107l840 -1800 -714 4051 788 139 52 -295 1100 0 0 -100 400 0 0 -400 -400 0 0 -100 -994 0 1242 -7046c989,174 1954,-412 2255,-1370z"/>
  <path class="fil0 str0" d="M42383 22349c55,0 100,-45 100,-100 0,-55 -45,-100 -100,-100 -56,0 -100,45 -100,100 0,55 44,100 100,100z"/>
  <path class="fil0 str0" d="M39607 23999c220,0 400,-179 400,-400 0,-221 -180,-400 -400,-400 -221,0 -400,179 -400,400 0,221 179,400 400,400z"/>
  <path class="fil0 str0" d="M41514 24199l7443 0 0 800 216 0c39,-265 67,-532 84,-800l0 -1200c-17,-267 -45,-534 -84,-800l-216 0 0 800 -6224 0 -73 -730c-15,-145 -132,-259 -277,-269 -146,10 -263,124 -277,269l-73 730 -3133 0 -1019 5780 -157 0c-78,0 -149,45 -182,116l-645 1383c-24,52 -25,111 -2,163 21,51 -1,108 -51,131 -50,22 -108,1 -131,-48 -24,-49 -4,-108 45,-132 50,-26 88,-72 103,-127l1201 -4484c27,-100 -27,-204 -125,-239l-295 -108c-97,-35 -206,10 -250,104l-940 2017c-24,51 -25,111 -3,163 22,50 -1,108 -50,131 -50,22 -108,1 -132,-48 -23,-49 -3,-108 45,-133 51,-25 88,-72 103,-126l759 -2832 950 -83c103,-9 183,-96 183,-200l0 -314c0,-103 -80,-190 -183,-199l-1969 -172c-53,-5 -106,12 -146,46 -41,34 -66,83 -71,136l-157 1797c-34,8 -67,15 -101,21l-200 -2872 -200 0 0 3729 -380 0 0 -1000 -400 0 0 2000 780 0 0 330 200 0 181 -1708 294 0c104,0 191,-79 200,-183l164 -1880 1065 93c56,5 113,-15 154,-54 40,-37 102,-35 140,3 38,39 38,101 0,140 -38,39 -100,41 -140,3 -41,-39 -98,-58 -154,-53l-384 33c-84,8 -154,67 -176,148l-978 3651c-27,100 27,204 124,240l295 107c98,35 206,-9 250,-103l941 -2018c24,-51 25,-111 2,-163 -21,-50 1,-108 51,-130 49,-23 108,-2 131,48 24,49 4,107 -45,132 -50,26 -88,72 -103,127l-1196 4464c-23,87 15,179 93,225l275 158c49,28 107,35 161,18 53,-17 97,-56 121,-106l839 -1801 -714 4051 788 139 52 -295 1100 0 0 -100 400 0 0 -400 -400 0 0 -100 -994 0 1242 -7046c989,174 1954,-412 2255,-1370z"/>
  <path class="fil0 str0" d="M47126 25839c55,0 100,-45 100,-100 0,-55 -45,-100 -100,-100 -55,0 -100,45 -100,100 0,55 45,100 100,100z"/>
  <path class="fil0 str0" d="M44350 27489c221,0 400,-179 400,-400 0,-221 -179,-400 -400,-400 -221,0 -400,179 -400,400 0,221 179,400 400,400z"/>
  <path class="fil0 str0" d="M46258 27689l7442 0 0 800 217 0c39,-266 66,-532 83,-800l0 -1200c-17,-268 -44,-535 -83,-800l-217 0 0 800 -6224 0 -73 -730c-14,-145 -131,-259 -277,-269 -146,10 -262,124 -277,269l-73 730 -3133 0 -1019 5780 -157 0c-78,0 -148,45 -181,115l-645 1384c-24,51 -25,111 -3,163 22,50 -1,108 -50,131 -50,22 -108,1 -132,-48 -23,-49 -3,-108 45,-133 51,-25 88,-71 103,-126l1201 -4484c27,-100 -27,-204 -124,-240l-295 -107c-98,-36 -206,9 -250,103l-941 2018c-24,51 -25,110 -2,163 21,50 -1,108 -51,130 -49,23 -108,1 -131,-48 -24,-49 -4,-108 45,-132 50,-26 88,-72 103,-127l758 -2832 950 -83c104,-9 183,-95 183,-199l0 -314c0,-104 -79,-190 -183,-199l-1969 -173c-53,-4 -105,12 -146,47 -40,34 -66,82 -70,135l-158 1798c-33,7 -67,14 -101,21l-200 -2873 -200 0 0 3730 -380 0 0 -1000 -400 0 0 2000 780 0 0 330 200 0 182 -1708 294 0c104,0 190,-80 199,-183l165 -1881 1064 94c57,4 113,-15 155,-54 39,-37 101,-36 139,3 39,39 39,101 0,140 -38,39 -100,40 -139,3 -42,-39 -98,-58 -155,-53l-384 33c-84,7 -154,66 -176,148l-978 3651c-27,100 27,204 125,239l295 108c97,35 206,-10 250,-104l940 -2017c24,-51 25,-111 3,-163 -22,-50 1,-108 50,-131 50,-22 108,-1 132,48 23,49 3,108 -45,133 -51,25 -88,71 -103,126l-1196 4464c-24,88 15,180 93,225l275 159c49,28 107,34 160,18 54,-17 98,-56 121,-107l840 -1801 -714 4052 787 139 53 -295 1100 0 0 -100 400 0 0 -400 -400 0 0 -100 -995 0 1243 -7046c989,174 1954,-412 2255,-1370z"/>
  <path class="fil0 str0" d="M52883 28339c55,0 100,-45 100,-100 0,-55 -45,-100 -100,-100 -56,0 -100,45 -100,100 0,55 44,100 100,100z"/>
  <path class="fil0 str0" d="M50107 29989c220,0 400,-179 400,-400 0,-221 -180,-400 -400,-400 -221,0 -400,179 -400,400 0,221 179,400 400,400z"/>
  <path class="fil0 str0" d="M52014 30189l7443 0 0 800 216 0c39,-266 67,-532 84,-800l0 -1200c-17,-268 -45,-535 -84,-800l-216 0 0 800 -6224 0 -73 -730c-15,-145 -132,-259 -277,-269 -146,10 -263,124 -277,269l-73 730 -3133 0 -1019 5780 -157 0c-78,0 -149,45 -182,115l-645 1384c-24,51 -25,111 -2,163 21,50 -1,108 -51,131 -50,22 -108,1 -131,-48 -24,-49 -4,-108 45,-133 50,-25 88,-71 103,-126l1201 -4484c27,-100 -27,-204 -125,-240l-295 -107c-97,-36 -206,9 -250,103l-940 2018c-24,51 -25,110 -3,163 22,50 -1,108 -50,130 -50,23 -108,1 -132,-48 -23,-49 -3,-108 45,-132 51,-26 88,-72 103,-127l759 -2832 950 -83c103,-9 183,-95 183,-199l0 -314c0,-104 -80,-190 -183,-199l-1969 -173c-53,-4 -106,12 -146,47 -41,34 -66,82 -71,135l-157 1798c-34,7 -67,14 -101,21l-200 -2873 -200 0 0 3730 -380 0 0 -1000 -400 0 0 2000 780 0 0 330 200 0 181 -1708 294 0c104,0 191,-80 200,-183l164 -1881 1065 94c56,4 113,-15 154,-54 40,-37 102,-36 140,3 38,39 38,101 0,140 -38,39 -100,40 -140,3 -41,-39 -98,-58 -154,-53l-384 33c-84,7 -154,66 -176,148l-978 3651c-27,100 27,204 124,239l295 108c98,35 206,-10 250,-104l941 -2017c24,-51 25,-111 2,-163 -21,-50 1,-108 51,-131 49,-22 108,-1 131,48 24,49 4,108 -45,133 -50,25 -88,71 -103,126l-1196 4464c-23,88 15,180 93,225l275 159c49,28 107,34 161,18 53,-17 97,-56 121,-107l839 -1801 -714 4052 788 139 52 -295 1100 0 0 -100 400 0 0 -400 -400 0 0 -100 -994 0 1242 -7046c989,174 1954,-412 2255,-1370z"/>
  <path class="fil0 str0" d="M28948 32512c-9,-55 -60,-92 -114,-84 -55,9 -92,60 -84,114 8,55 59,92 114,84 55,-8 92,-59 84,-114z"/>
  <path class="fil0 str0" d="M31000 35006c-34,-219 -238,-369 -456,-335 -219,33 -369,238 -335,456 33,218 237,368 456,335 218,-34 368,-238 335,-456z"/>
  <path class="fil0 str0" d="M30908 33090l-1129 -7356 791 -122 -33 -214c-268,2 -536,15 -803,39l-1186 182c-262,57 -522,125 -778,204l32 214 791 -122 944 6153 -710 182c-142,37 -236,170 -225,315 33,142 163,241 309,233l732 -39 475 3097 5868 131 24 155c12,77 67,140 142,162l1465 427c54,16 113,8 162,-22 46,-29 106,-15 136,30 30,46 18,107 -27,138 -45,30 -106,19 -138,-25 -33,-46 -84,-76 -141,-82l-4614 -508c-103,-11 -197,58 -218,160l-61 308c-20,101 40,202 140,231l2136 624c55,16 114,8 162,-23 46,-28 107,-15 137,31 30,45 17,106 -27,137 -45,31 -107,20 -138,-25 -33,-46 -85,-76 -141,-82l-2914 -321 -226 -926c-25,-101 -123,-166 -225,-150l-310 47c-103,16 -176,108 -170,211l129 1972c3,53 27,103 67,138 40,35 92,53 145,49l1801 -117c12,32 24,64 36,96l-2809 634 30 197 3687 -565 57 375 -988 152 61 395 1976 -303 -118 -771 326 -50 -30 -198 -1716 80 -45 -290c-15,-103 -107,-176 -210,-170l-1884 123 -70 -1066c-3,-57 -31,-110 -76,-145 -43,-33 -51,-95 -18,-139 33,-43 94,-53 138,-21 44,32 55,93 24,138 -32,47 -43,105 -29,161l91 374c20,82 89,142 173,152l3757 413c103,11 198,-58 218,-160l61 -308c21,-101 -40,-202 -140,-231l-2136 -624c-55,-16 -114,-8 -162,23 -46,28 -107,15 -137,-31 -29,-45 -17,-106 28,-137 45,-31 106,-20 137,25 34,46 85,76 141,82l4594 505c90,10 175,-41 208,-126l115 -296c21,-52 18,-110 -6,-161 -25,-50 -70,-88 -124,-103l-1907 -557 4113 91 18 -799 -300 -7 -167 -1087 -99 15 -61 -396 -395 61 61 395 -99 16 151 982 -7153 -159c22,-1004 -704,-1869 -1696,-2021z"/>
  <path class="fil0 str0" d="M849 31374c0,-55 -45,-100 -100,-100 -55,0 -100,45 -100,100 0,55 45,100 100,100 55,0 100,-45 100,-100z"/>
  <path class="fil0 str0" d="M2499 34150c0,-221 -179,-400 -400,-400 -221,0 -400,179 -400,400 0,221 179,400 400,400 221,0 400,-179 400,-400z"/>
  <path class="fil0 str0" d="M2699 32242l0 -7442 800 0 0 -217c-265,-39 -532,-66 -800,-83l-1200 0c-267,17 -534,44 -800,83l0 217 800 0 0 6224 -730 73c-145,15 -259,131 -269,277 10,146 124,262 269,277l730 73 0 3133 5780 1019 0 157c0,78 45,148 116,181l1383 645c52,24 111,25 163,3 51,-22 108,1 131,50 22,50 1,108 -48,132 -49,23 -108,3 -132,-45 -26,-51 -72,-88 -127,-103l-4484 -1201c-100,-27 -204,27 -239,124l-108 295c-35,98 10,206 104,250l2017 941c51,24 111,25 163,2 50,-21 108,1 131,51 22,49 1,108 -48,131 -49,24 -108,4 -133,-45 -25,-50 -72,-88 -126,-103l-2832 -758 -83 -950c-9,-104 -96,-183 -200,-183l-314 0c-103,0 -190,79 -199,183l-172 1969c-5,53 12,105 46,146 34,40 83,66 136,70l1797 158c8,33 15,67 21,101l-2872 200 0 200 3729 0 0 380 -1000 0 0 400 2000 0 0 -780 330 0 0 -200 -1708 -182 0 -294c0,-104 -79,-190 -183,-199l-1880 -165 93 -1064c5,-57 -15,-113 -54,-155 -37,-39 -35,-101 3,-139 39,-39 101,-39 140,0 39,38 41,100 3,139 -39,42 -58,98 -53,155l33 384c8,84 67,154 148,176l3651 978c100,27 204,-27 240,-125l107 -295c35,-97 -9,-206 -103,-250l-2018 -940c-51,-24 -111,-25 -163,-3 -50,22 -108,-1 -130,-50 -23,-50 -2,-108 48,-132 49,-23 107,-3 132,45 26,51 72,88 127,103l4464 1196c87,24 179,-15 225,-93l158 -275c28,-49 35,-107 18,-160 -17,-54 -56,-98 -106,-121l-1801 -840 4051 714 139 -787 -295 -52 0 -1100 -100 0 0 -400 -400 0 0 400 -100 0 0 994 -7046 -1243c174,-989 -412,-1954 -1370,-2255z"/>
  <path class="fil0 str0" d="M14342 32838c0,55 45,100 100,100 56,0 100,-45 100,-100 0,-55 -44,-100 -100,-100 -55,0 -100,45 -100,100z"/>
  <path class="fil0 str0" d="M12692 30928c0,221 180,400 400,400 221,0 400,-179 400,-400 0,-221 -179,-400 -400,-400 -220,0 -400,179 -400,400z"/>
  <path class="fil0 str0" d="M12492 32836l0 6042 -800 0 0 203c265,45 532,78 800,97l1200 0c269,-19 535,-52 800,-97l0 -203 -800 0 0 -5690 730 -73c145,-14 259,-131 270,-277 -11,-145 -125,-262 -270,-277l-730 -73 0 -2266 -4927 -869 0 -308c0,-77 -45,-148 -115,-181l-1384 -645c-51,-24 -111,-25 -163,-3 -50,22 -108,-1 -130,-50 -23,-50 -2,-108 47,-132 49,-23 108,-3 133,45 26,51 72,89 127,103l4483 1202c100,27 204,-28 240,-125l107 -295c36,-98 -9,-206 -103,-250l-2017 -940c-52,-25 -111,-25 -164,-3 -50,21 -108,-1 -130,-51 -23,-49 -1,-108 48,-131 49,-24 108,-4 132,45 26,51 72,88 127,103l2832 759 83 950c9,103 95,182 199,182l314 0c104,0 190,-79 199,-182l173 -1969c4,-53 -12,-106 -46,-146 -34,-41 -83,-66 -136,-71l-1798 -157c-7,-34 -14,-68 -20,-101l2373 -200 0 -200 -4084 0 0 -380 1000 0 0 -400 -2000 0 0 780 523 0 0 200 1708 181 0 294c0,104 80,190 183,199l1881 165 -93 1065c-5,56 14,112 53,154 37,39 36,102 -3,140 -39,38 -101,38 -140,0 -39,-38 -40,-101 -3,-140 39,-42 59,-98 54,-154l-34 -385c-7,-83 -66,-154 -147,-175l-3651 -979c-101,-27 -205,28 -240,125l-107 295c-36,98 9,206 103,250l2017 940c52,25 111,25 163,3 50,-21 108,1 131,51 22,49 1,108 -48,131 -49,24 -108,4 -133,-45 -25,-51 -71,-88 -126,-103l-4464 -1196c-88,-23 -180,15 -225,93l-159 275c-28,49 -34,107 -17,160 16,54 55,98 106,121l1841 859 0 139 -1533 -271 -139 788 295 52 0 1100 100 0 0 400 400 0 0 -400 100 0 0 -994 3635 641c-175,989 411,1954 1369,2255z"/>
  <path class="fil0 str0" d="M14849 31607c0,-55 -45,-100 -100,-100 -55,0 -100,45 -100,100 0,55 45,100 100,100 55,0 100,-45 100,-100z"/>
  <path class="fil0 str0" d="M16499 33950c0,-221 -179,-400 -400,-400 -221,0 -400,179 -400,400 0,221 179,400 400,400 221,0 400,-179 400,-400z"/>
  <path class="fil0 str0" d="M16699 32042l0 -6742 800 0 0 -210c-265,-42 -532,-72 -800,-90l-1200 0c-268,18 -535,48 -800,90l0 210 800 0 0 5957 -730 73c-145,15 -259,131 -269,277 10,146 124,262 269,277l730 73 0 2700 5354 944 0 232c0,78 45,148 115,181l1384 645c51,24 111,25 163,3 50,-22 108,1 131,50 22,50 1,108 -48,132 -49,23 -108,3 -133,-45 -25,-51 -72,-88 -127,-103l-4483 -1201c-100,-27 -204,27 -240,124l-107 295c-36,98 9,206 103,250l2017 941c52,24 111,25 164,2 50,-21 108,1 130,51 23,49 1,108 -48,131 -49,24 -108,4 -132,-45 -26,-50 -72,-88 -127,-103l-2832 -758 -83 -950c-9,-104 -95,-183 -199,-183l-314 0c-104,0 -190,79 -199,183l-173 1969c-4,53 12,105 46,146 35,40 83,66 136,70l1798 158c7,33 14,67 20,101l-2606 200 0 200 3890 0 0 380 -1000 0 0 400 2000 0 0 -780 -96 0 0 -200 -1708 -182 0 -294c0,-104 -80,-190 -183,-199l-1881 -165 93 -1064c5,-57 -14,-113 -53,-155 -37,-39 -36,-101 3,-139 39,-39 101,-39 140,0 39,38 40,100 3,139 -39,42 -59,98 -54,155l34 384c7,84 66,154 148,176l3650 978c101,27 205,-27 240,-125l108 -295c35,-97 -10,-206 -104,-250l-2017 -940c-52,-24 -111,-25 -163,-3 -50,22 -108,-1 -131,-50 -22,-50 -1,-108 48,-132 49,-23 108,-3 133,45 25,51 71,88 126,103l4464 1196c88,24 180,-15 225,-93l159 -275c28,-49 34,-107 17,-160 -16,-54 -55,-98 -106,-121l-1841 -859 0 -63 2813 496 139 -788 -296 -52 0 -1100 -100 0 0 -400 -400 0 0 400 -100 0 0 994 -5340 -942c174,-989 -412,-1954 -1370,-2255z"/>
  <path class="fil0 str0" d="M58542 36448c-55,0 -100,44 -100,100 0,55 45,100 100,100 55,0 100,-45 100,-100 0,-56 -45,-100 -100,-100z"/>
  <path class="fil0 str0" d="M61951 34798c-221,0 -400,179 -400,400 0,221 179,400 400,400 221,0 400,-179 400,-400 0,-221 -179,-400 -400,-400z"/>
  <path class="fil0 str0" d="M60043 34598l-8842 0 0 -800 -227 0c-34,265 -59,532 -73,800l0 1200c14,267 39,534 73,800l227 0 0 -800 6991 0 73 730c14,145 131,258 277,269 145,-11 262,-124 277,-269l73 -730 3765 0 1095 -6207 82 0c78,0 148,-45 181,-115l645 -1384c24,-51 25,-111 3,-163 -22,-50 1,-108 50,-130 50,-23 108,-2 132,47 23,49 3,108 -45,133 -51,26 -88,72 -103,127l-1202 4483c-26,100 28,204 125,240l295 107c98,36 206,-9 250,-103l941 -2017c24,-52 25,-111 2,-164 -21,-50 1,-108 51,-130 49,-23 108,-1 131,48 24,49 4,108 -45,132 -51,26 -88,72 -103,127l-759 2832 -950 83c-103,9 -182,95 -182,199l0 314c0,104 79,190 182,199l1970 173c52,4 105,-12 146,-46 40,-34 66,-83 70,-136l157 -1798c34,-7 68,-14 101,-20l200 2886 200 0 0 -3317 380 0 0 1000 400 0 0 -2000 -780 0 0 -757 -200 0 -181 1708 -294 0c-104,0 -190,80 -199,183l-165 1881 -1064 -93c-57,-5 -113,14 -155,53 -39,37 -102,36 -140,-3 -38,-39 -38,-101 0,-140 38,-39 101,-40 140,-3 42,39 98,59 155,54l384 -34c84,-7 154,-66 176,-147l978 -3651c27,-101 -27,-205 -125,-240l-295 -107c-97,-36 -206,9 -250,103l-940 2017c-24,52 -25,111 -3,163 22,50 -1,108 -51,131 -49,22 -107,1 -131,-48 -24,-49 -3,-108 45,-133 51,-25 88,-71 103,-126l1196 -4464c24,-88 -15,-180 -93,-225l-275 -159c-49,-28 -107,-34 -160,-17 -54,16 -98,55 -121,106l-719 1541 894 -5071 -788 -139 -52 295 -1100 0 0 100 -400 0 0 400 400 0 0 100 994 0 -1543 8752c-989,-174 -1954,412 -2255,1370z"/>
 </g>
</svg>
