<?xml version="1.0" encoding="UTF-8"?>
<!DOCTYPE svg PUBLIC "-//W3C//DTD SVG 1.1//EN" "http://www.w3.org/Graphics/SVG/1.1/DTD/svg11.dtd">
<!-- Creator: CorelDRAW X7 -->
<svg xmlns="http://www.w3.org/2000/svg" xml:space="preserve" width="680mm" height="400mm" version="1.1" style="shape-rendering:geometricPrecision; text-rendering:geometricPrecision; image-rendering:optimizeQuality; fill-rule:evenodd; clip-rule:evenodd"
viewBox="0 0 68000 40000"
 xmlns:xlink="http://www.w3.org/1999/xlink">
 <defs>
  <style type="text/css">
   <![CDATA[
    .str1 {stroke:red;stroke-width:15;stroke-linejoin:bevel}
    .str0 {stroke:red;stroke-width:7.62;stroke-linejoin:bevel}
    .fil0 {fill:none}
   ]]>
  </style>
 </defs>
 <g id="Layer_x0020_1">
  <metadata id="CorelCorpID_0Corel-Layer"/>
  <path class="fil0 str0" d="M1450 1300c0,-83 -67,-150 -150,-150 -83,0 -150,67 -150,150 0,83 67,150 150,150 83,0 150,-67 150,-150z"/>
  <path class="fil0 str0" d="M1450 19700c0,-83 -67,-150 -150,-150 -83,0 -150,67 -150,150 0,83 67,150 150,150 83,0 150,-67 150,-150z"/>
  <path class="fil0 str0" d="M1450 13900c0,-83 -67,-150 -150,-150 -83,0 -150,67 -150,150 0,83 67,150 150,150 83,0 150,-67 150,-150z"/>
  <path class="fil0 str0" d="M1450 10600c0,-83 -67,-150 -150,-150 -83,0 -150,67 -150,150 0,83 67,150 150,150 83,0 150,-67 150,-150z"/>
  <path class="fil0 str0" d="M5450 1300c0,-83 -67,-150 -150,-150 -83,0 -150,67 -150,150 0,83 67,150 150,150 83,0 150,-67 150,-150z"/>
  <path class="fil0 str0" d="M5450 19700c0,-83 -67,-150 -150,-150 -83,0 -150,67 -150,150 0,83 67,150 150,150 83,0 150,-67 150,-150z"/>
  <path class="fil0 str0" d="M5450 6300c0,-83 -67,-150 -150,-150 -83,0 -150,67 -150,150 0,83 67,150 150,150 83,0 150,-67 150,-150z"/>
  <path class="fil0 str0" d="M15450 1300c0,-83 -67,-150 -150,-150 -83,0 -150,67 -150,150 0,83 67,150 150,150 83,0 150,-67 150,-150z"/>
  <path class="fil0 str0" d="M15450 19700c0,-83 -67,-150 -150,-150 -83,0 -150,67 -150,150 0,83 67,150 150,150 83,0 150,-67 150,-150z"/>
  <path class="fil0 str0" d="M15450 6300c0,-83 -67,-150 -150,-150 -83,0 -150,67 -150,150 0,83 67,150 150,150 83,0 150,-67 150,-150z"/>
  <path class="fil0 str0" d="M15450 11300c0,-83 -67,-150 -150,-150 -83,0 -150,67 -150,150 0,83 67,150 150,150 83,0 150,-67 150,-150z"/>
  <path class="fil0 str0" d="M10450 11300c0,-83 -67,-150 -150,-150 -83,0 -150,67 -150,150 0,83 67,150 150,150 83,0 150,-67 150,-150z"/>
  <path class="fil0 str0" d="M10450 16300c0,-83 -67,-150 -150,-150 -83,0 -150,67 -150,150 0,83 67,150 150,150 83,0 150,-67 150,-150z"/>
  <path class="fil0 str0" d="M5450 16300c0,-83 -67,-150 -150,-150 -83,0 -150,67 -150,150 0,83 67,150 150,150 83,0 150,-67 150,-150z"/>
  <path class="fil0 str0" d="M5450 11300c0,-83 -67,-150 -150,-150 -83,0 -150,67 -150,150 0,83 67,150 150,150 83,0 150,-67 150,-150z"/>
  <path class="fil0 str0" d="M10450 19700c0,-83 -67,-150 -150,-150 -83,0 -150,67 -150,150 0,83 67,150 150,150 83,0 150,-67 150,-150z"/>
  <path class="fil0 str0" d="M10450 6300c0,-83 -67,-150 -150,-150 -83,0 -150,67 -150,150 0,83 67,150 150,150 83,0 150,-67 150,-150z"/>
  <path class="fil0 str0" d="M10450 1300c0,-83 -67,-150 -150,-150 -83,0 -150,67 -150,150 0,83 67,150 150,150 83,0 150,-67 150,-150z"/>
  <path class="fil0 str0" d="M20450 16300c0,-83 -67,-150 -150,-150 -83,0 -150,67 -150,150 0,83 67,150 150,150 83,0 150,-67 150,-150z"/>
  <path class="fil0 str0" d="M25450 1300c0,-83 -67,-150 -150,-150 -83,0 -150,67 -150,150 0,83 67,150 150,150 83,0 150,-67 150,-150z"/>
  <path class="fil0 str0" d="M25450 19700c0,-83 -67,-150 -150,-150 -83,0 -150,67 -150,150 0,83 67,150 150,150 83,0 150,-67 150,-150z"/>
  <path class="fil0 str0" d="M25450 6300c0,-83 -67,-150 -150,-150 -83,0 -150,67 -150,150 0,83 67,150 150,150 83,0 150,-67 150,-150z"/>
  <path class="fil0 str0" d="M25450 16300c0,-83 -67,-150 -150,-150 -83,0 -150,67 -150,150 0,83 67,150 150,150 83,0 150,-67 150,-150z"/>
  <path class="fil0 str0" d="M25450 11300c0,-83 -67,-150 -150,-150 -83,0 -150,67 -150,150 0,83 67,150 150,150 83,0 150,-67 150,-150z"/>
  <path class="fil0 str0" d="M20450 1300c0,-83 -67,-150 -150,-150 -83,0 -150,67 -150,150 0,83 67,150 150,150 83,0 150,-67 150,-150z"/>
  <path class="fil0 str0" d="M15450 16300c0,-83 -67,-150 -150,-150 -83,0 -150,67 -150,150 0,83 67,150 150,150 83,0 150,-67 150,-150z"/>
  <path class="fil0 str0" d="M20450 11300c0,-83 -67,-150 -150,-150 -83,0 -150,67 -150,150 0,83 67,150 150,150 83,0 150,-67 150,-150z"/>
  <path class="fil0 str0" d="M20450 6300c0,-83 -67,-150 -150,-150 -83,0 -150,67 -150,150 0,83 67,150 150,150 83,0 150,-67 150,-150z"/>
  <path class="fil0 str0" d="M20450 19700c0,-83 -67,-150 -150,-150 -83,0 -150,67 -150,150 0,83 67,150 150,150 83,0 150,-67 150,-150z"/>
  <path class="fil0 str0" d="M29450 1300c0,-83 -67,-150 -150,-150 -83,0 -150,67 -150,150 0,83 67,150 150,150 83,0 150,-67 150,-150z"/>
  <path class="fil0 str0" d="M29450 19700c0,-83 -67,-150 -150,-150 -83,0 -150,67 -150,150 0,83 67,150 150,150 83,0 150,-67 150,-150z"/>
  <path class="fil0 str0" d="M29450 13900c0,-83 -67,-150 -150,-150 -83,0 -150,67 -150,150 0,83 67,150 150,150 83,0 150,-67 150,-150z"/>
  <path class="fil0 str0" d="M29450 10600c0,-83 -67,-150 -150,-150 -83,0 -150,67 -150,150 0,83 67,150 150,150 83,0 150,-67 150,-150z"/>
  <polygon class="fil0 str0" points="29473,18700 29387,18550 29213,18550 29127,18700 29213,18850 29387,18850 "/>
  <polygon class="fil0 str0" points="600,500 600,20500 30000,20500 30000,500 "/>
  <path class="fil0 str0" d="M900 29050c83,0 150,-67 150,-150 0,-83 -67,-150 -150,-150 -83,0 -150,67 -150,150 0,83 67,150 150,150z"/>
  <path class="fil0 str0" d="M900 37050c83,0 150,-67 150,-150 0,-83 -67,-150 -150,-150 -83,0 -150,67 -150,150 0,83 67,150 150,150z"/>
  <path class="fil0 str0" d="M900 33050c83,0 150,-67 150,-150 0,-83 -67,-150 -150,-150 -83,0 -150,67 -150,150 0,83 67,150 150,150z"/>
  <path class="fil0 str0" d="M900 22650c83,0 150,-67 150,-150 0,-83 -67,-150 -150,-150 -83,0 -150,67 -150,150 0,83 67,150 150,150z"/>
  <path class="fil0 str0" d="M29700 29050c83,0 150,-67 150,-150 0,-83 -67,-150 -150,-150 -83,0 -150,67 -150,150 0,83 67,150 150,150z"/>
  <path class="fil0 str0" d="M29700 37050c83,0 150,-67 150,-150 0,-83 -67,-150 -150,-150 -83,0 -150,67 -150,150 0,83 67,150 150,150z"/>
  <path class="fil0 str0" d="M29700 33050c83,0 150,-67 150,-150 0,-83 -67,-150 -150,-150 -83,0 -150,67 -150,150 0,83 67,150 150,150z"/>
  <path class="fil0 str0" d="M29700 22650c83,0 150,-67 150,-150 0,-83 -67,-150 -150,-150 -83,0 -150,67 -150,150 0,83 67,150 150,150z"/>
  <path class="fil0 str0" d="M27800 22650c83,0 150,-67 150,-150 0,-83 -67,-150 -150,-150 -83,0 -150,67 -150,150 0,83 67,150 150,150z"/>
  <path class="fil0 str0" d="M27800 37050c83,0 150,-67 150,-150 0,-83 -67,-150 -150,-150 -83,0 -150,67 -150,150 0,83 67,150 150,150z"/>
  <path class="fil0 str0" d="M27800 32650c83,0 150,-67 150,-150 0,-83 -67,-150 -150,-150 -83,0 -150,67 -150,150 0,83 67,150 150,150z"/>
  <path class="fil0 str0" d="M22800 37050c83,0 150,-67 150,-150 0,-83 -67,-150 -150,-150 -83,0 -150,67 -150,150 0,83 67,150 150,150z"/>
  <path class="fil0 str0" d="M22800 32650c83,0 150,-67 150,-150 0,-83 -67,-150 -150,-150 -83,0 -150,67 -150,150 0,83 67,150 150,150z"/>
  <path class="fil0 str0" d="M22800 22650c83,0 150,-67 150,-150 0,-83 -67,-150 -150,-150 -83,0 -150,67 -150,150 0,83 67,150 150,150z"/>
  <path class="fil0 str0" d="M17800 32650c83,0 150,-67 150,-150 0,-83 -67,-150 -150,-150 -83,0 -150,67 -150,150 0,83 67,150 150,150z"/>
  <path class="fil0 str0" d="M12800 22650c83,0 150,-67 150,-150 0,-83 -67,-150 -150,-150 -83,0 -150,67 -150,150 0,83 67,150 150,150z"/>
  <path class="fil0 str0" d="M17800 37050c83,0 150,-67 150,-150 0,-83 -67,-150 -150,-150 -83,0 -150,67 -150,150 0,83 67,150 150,150z"/>
  <path class="fil0 str0" d="M17800 22650c83,0 150,-67 150,-150 0,-83 -67,-150 -150,-150 -83,0 -150,67 -150,150 0,83 67,150 150,150z"/>
  <path class="fil0 str0" d="M2800 22650c83,0 150,-67 150,-150 0,-83 -67,-150 -150,-150 -83,0 -150,67 -150,150 0,83 67,150 150,150z"/>
  <path class="fil0 str0" d="M7800 32650c83,0 150,-67 150,-150 0,-83 -67,-150 -150,-150 -83,0 -150,67 -150,150 0,83 67,150 150,150z"/>
  <path class="fil0 str0" d="M2800 32650c83,0 150,-67 150,-150 0,-83 -67,-150 -150,-150 -83,0 -150,67 -150,150 0,83 67,150 150,150z"/>
  <path class="fil0 str0" d="M2800 37050c83,0 150,-67 150,-150 0,-83 -67,-150 -150,-150 -83,0 -150,67 -150,150 0,83 67,150 150,150z"/>
  <path class="fil0 str0" d="M12800 37050c83,0 150,-67 150,-150 0,-83 -67,-150 -150,-150 -83,0 -150,67 -150,150 0,83 67,150 150,150z"/>
  <path class="fil0 str0" d="M12800 32650c83,0 150,-67 150,-150 0,-83 -67,-150 -150,-150 -83,0 -150,67 -150,150 0,83 67,150 150,150z"/>
  <path class="fil0 str0" d="M7800 22650c83,0 150,-67 150,-150 0,-83 -67,-150 -150,-150 -83,0 -150,67 -150,150 0,83 67,150 150,150z"/>
  <path class="fil0 str0" d="M7800 37050c83,0 150,-67 150,-150 0,-83 -67,-150 -150,-150 -83,0 -150,67 -150,150 0,83 67,150 150,150z"/>
  <polygon class="fil0 str0" points="15095,30200 15095,28200 16735,28200 16735,30200 "/>
  <polygon class="fil0 str0" points="17095,30200 17095,28200 18735,28200 18735,30200 "/>
  <polygon class="fil0 str0" points="11095,30200 11095,28200 12735,28200 12735,30200 "/>
  <polygon class="fil0 str0" points="13095,30200 13095,28200 14735,28200 14735,30200 "/>
  <polygon class="fil0 str0" points="23095,30200 23095,28200 24735,28200 24735,30200 "/>
  <polygon class="fil0 str0" points="21095,30200 21095,28200 22735,28200 22735,30200 "/>
  <polygon class="fil0 str0" points="19095,30200 19095,28200 20735,28200 20735,30200 "/>
  <polygon class="fil0 str0" points="27915,30200 27505,30200 27505,28200 27915,28200 "/>
  <polygon class="fil0 str0" points="10735,30200 9505,30200 9505,28200 10735,28200 "/>
  <polygon class="fil0 str0" points="26735,30200 25505,30200 25505,28200 26735,28200 "/>
  <polygon class="fil0 str0" points="8735,30200 7505,30200 7505,28200 8735,28200 "/>
  <polygon class="fil0 str0" points="6735,30200 5505,30200 5505,28200 6735,28200 "/>
  <polygon class="fil0 str0" points="4735,30200 3505,30200 3505,28200 4735,28200 "/>
  <polygon class="fil0 str0" points="29613,36050 29787,36050 29873,35900 29787,35750 29613,35750 29527,35900 "/>
  <polygon class="fil0 str0" points="30000,37700 30000,22000 600,22000 600,37700 "/>
  <path class="fil0 str0" d="M55850 15350c0,-83 -67,-150 -150,-150 -83,0 -150,67 -150,150 0,83 67,150 150,150 83,0 150,-67 150,-150z"/>
  <path class="fil0 str0" d="M50850 15350c0,-83 -67,-150 -150,-150 -83,0 -150,67 -150,150 0,83 67,150 150,150 83,0 150,-67 150,-150z"/>
  <path class="fil0 str0" d="M45850 15350c0,-83 -67,-150 -150,-150 -83,0 -150,67 -150,150 0,83 67,150 150,150 83,0 150,-67 150,-150z"/>
  <path class="fil0 str0" d="M55850 10950c0,-83 -67,-150 -150,-150 -83,0 -150,67 -150,150 0,83 67,150 150,150 83,0 150,-67 150,-150z"/>
  <path class="fil0 str0" d="M50850 10950c0,-83 -67,-150 -150,-150 -83,0 -150,67 -150,150 0,83 67,150 150,150 83,0 150,-67 150,-150z"/>
  <path class="fil0 str0" d="M45850 10950c0,-83 -67,-150 -150,-150 -83,0 -150,67 -150,150 0,83 67,150 150,150 83,0 150,-67 150,-150z"/>
  <path class="fil0 str0" d="M40850 10950c0,-83 -67,-150 -150,-150 -83,0 -150,67 -150,150 0,83 67,150 150,150 83,0 150,-67 150,-150z"/>
  <path class="fil0 str0" d="M35850 10950c0,-83 -67,-150 -150,-150 -83,0 -150,67 -150,150 0,83 67,150 150,150 83,0 150,-67 150,-150z"/>
  <path class="fil0 str0" d="M55850 5950c0,-83 -67,-150 -150,-150 -83,0 -150,67 -150,150 0,83 67,150 150,150 83,0 150,-67 150,-150z"/>
  <path class="fil0 str0" d="M50850 5950c0,-83 -67,-150 -150,-150 -83,0 -150,67 -150,150 0,83 67,150 150,150 83,0 150,-67 150,-150z"/>
  <path class="fil0 str0" d="M45850 5950c0,-83 -67,-150 -150,-150 -83,0 -150,67 -150,150 0,83 67,150 150,150 83,0 150,-67 150,-150z"/>
  <path class="fil0 str0" d="M40850 5950c0,-83 -67,-150 -150,-150 -83,0 -150,67 -150,150 0,83 67,150 150,150 83,0 150,-67 150,-150z"/>
  <path class="fil0 str0" d="M35850 5950c0,-83 -67,-150 -150,-150 -83,0 -150,67 -150,150 0,83 67,150 150,150 83,0 150,-67 150,-150z"/>
  <path class="fil0 str0" d="M55850 950c0,-83 -67,-150 -150,-150 -83,0 -150,67 -150,150 0,83 67,150 150,150 83,0 150,-67 150,-150z"/>
  <path class="fil0 str0" d="M50850 950c0,-83 -67,-150 -150,-150 -83,0 -150,67 -150,150 0,83 67,150 150,150 83,0 150,-67 150,-150z"/>
  <path class="fil0 str0" d="M45850 950c0,-83 -67,-150 -150,-150 -83,0 -150,67 -150,150 0,83 67,150 150,150 83,0 150,-67 150,-150z"/>
  <path class="fil0 str0" d="M59850 950c0,-83 -67,-150 -150,-150 -83,0 -150,67 -150,150 0,83 67,150 150,150 83,0 150,-67 150,-150z"/>
  <path class="fil0 str0" d="M59850 15350c0,-83 -67,-150 -150,-150 -83,0 -150,67 -150,150 0,83 67,150 150,150 83,0 150,-67 150,-150z"/>
  <path class="fil0 str0" d="M59850 10375c0,-83 -67,-150 -150,-150 -83,0 -150,67 -150,150 0,83 67,150 150,150 83,0 150,-67 150,-150z"/>
  <path class="fil0 str0" d="M31850 950c0,-83 -67,-150 -150,-150 -83,0 -150,67 -150,150 0,83 67,150 150,150 83,0 150,-67 150,-150z"/>
  <path class="fil0 str0" d="M31850 15350c0,-83 -67,-150 -150,-150 -83,0 -150,67 -150,150 0,83 67,150 150,150 83,0 150,-67 150,-150z"/>
  <path class="fil0 str0" d="M31850 10375c0,-83 -67,-150 -150,-150 -83,0 -150,67 -150,150 0,83 67,150 150,150 83,0 150,-67 150,-150z"/>
  <path class="fil0 str0" d="M35850 950c0,-83 -67,-150 -150,-150 -83,0 -150,67 -150,150 0,83 67,150 150,150 83,0 150,-67 150,-150z"/>
  <path class="fil0 str0" d="M40850 950c0,-83 -67,-150 -150,-150 -83,0 -150,67 -150,150 0,83 67,150 150,150 83,0 150,-67 150,-150z"/>
  <path class="fil0 str0" d="M35850 15350c0,-83 -67,-150 -150,-150 -83,0 -150,67 -150,150 0,83 67,150 150,150 83,0 150,-67 150,-150z"/>
  <path class="fil0 str0" d="M40850 15350c0,-83 -67,-150 -150,-150 -83,0 -150,67 -150,150 0,83 67,150 150,150 83,0 150,-67 150,-150z"/>
  <polygon class="fil0 str0" points="31873,1950 31787,1800 31613,1800 31527,1950 31613,2100 31787,2100 "/>
  <polygon class="fil0 str0" points="60400,16000 31000,16000 31000,450 60400,450 "/>
  <path class="fil0 str1" d="M55850 17935c0,-83 -67,-150 -150,-150 -83,0 -150,67 -150,150 0,83 67,150 150,150 83,0 150,-67 150,-150z"/>
  <path class="fil0 str1" d="M50850 17935c0,-83 -67,-150 -150,-150 -83,0 -150,67 -150,150 0,83 67,150 150,150 83,0 150,-67 150,-150z"/>
  <path class="fil0 str1" d="M45850 17935c0,-83 -67,-150 -150,-150 -83,0 -150,67 -150,150 0,83 67,150 150,150 83,0 150,-67 150,-150z"/>
  <path class="fil0 str1" d="M59850 17397c0,-83 -67,-150 -150,-150 -83,0 -150,67 -150,150 0,83 67,150 150,150 83,0 150,-67 150,-150z"/>
  <path class="fil0 str1" d="M59850 18435c0,-83 -67,-150 -150,-150 -83,0 -150,67 -150,150 0,83 67,150 150,150 83,0 150,-67 150,-150z"/>
  <path class="fil0 str1" d="M31850 17397c0,-83 -67,-150 -150,-150 -83,0 -150,67 -150,150 0,83 67,150 150,150 83,0 150,-67 150,-150z"/>
  <path class="fil0 str1" d="M31850 18435c0,-83 -67,-150 -150,-150 -83,0 -150,67 -150,150 0,83 67,150 150,150 83,0 150,-67 150,-150z"/>
  <path class="fil0 str1" d="M35850 17935c0,-83 -67,-150 -150,-150 -83,0 -150,67 -150,150 0,83 67,150 150,150 83,0 150,-67 150,-150z"/>
  <path class="fil0 str1" d="M40850 17935c0,-83 -67,-150 -150,-150 -83,0 -150,67 -150,150 0,83 67,150 150,150 83,0 150,-67 150,-150z"/>
  <polygon class="fil0 str1" points="32873,17397 32787,17247 32613,17247 32527,17397 32613,17547 32787,17547 "/>
  <polygon class="fil0 str1" points="60400,18935 31000,18935 31000,17000 60400,17000 "/>
  <polygon class="fil0 str0" points="43453,20750 43453,21950 43873,21950 43873,20750 "/>
  <polygon class="fil0 str0" points="46223,22482 46223,23682 46643,23682 46643,22482 "/>
  <polygon class="fil0 str0" points="46633,25946 46633,27146 47053,27146 47053,25946 "/>
  <polygon class="fil0 str0" points="44633,25946 44633,27146 45053,27146 45053,25946 "/>
  <polygon class="fil0 str0" points="56633,25946 56633,27146 57053,27146 57053,25946 "/>
  <polygon class="fil0 str0" points="54633,25946 54633,27146 55053,27146 55053,25946 "/>
  <polygon class="fil0 str0" points="52633,25946 52633,27146 53053,27146 53053,25946 "/>
  <polygon class="fil0 str0" points="50633,25946 50633,27146 51053,27146 51053,25946 "/>
  <polygon class="fil0 str0" points="48633,25946 48633,27146 49053,27146 49053,25946 "/>
  <polygon class="fil0 str0" points="34633,25946 34633,27146 35053,27146 35053,25946 "/>
  <polygon class="fil0 str0" points="36633,25946 36633,27146 37053,27146 37053,25946 "/>
  <polygon class="fil0 str0" points="38633,25946 38633,27146 39053,27146 39053,25946 "/>
  <polygon class="fil0 str0" points="40633,25946 40633,27146 41053,27146 41053,25946 "/>
  <polygon class="fil0 str0" points="42633,25946 42633,27146 43053,27146 43053,25946 "/>
  <polygon class="fil0 str0" points="44223,22482 44223,23682 44643,23682 44643,22482 "/>
  <polygon class="fil0 str0" points="56223,22482 56223,23682 56643,23682 56643,22482 "/>
  <polygon class="fil0 str0" points="54223,22482 54223,23682 54643,23682 54643,22482 "/>
  <polygon class="fil0 str0" points="52223,22482 52223,23682 52643,23682 52643,22482 "/>
  <polygon class="fil0 str0" points="50223,22482 50223,23682 50643,23682 50643,22482 "/>
  <polygon class="fil0 str0" points="48223,22482 48223,23682 48643,23682 48643,22482 "/>
  <polygon class="fil0 str0" points="34223,22482 34223,23682 34643,23682 34643,22482 "/>
  <polygon class="fil0 str0" points="36223,22482 36223,23682 36643,23682 36643,22482 "/>
  <polygon class="fil0 str0" points="38223,22482 38223,23682 38643,23682 38643,22482 "/>
  <polygon class="fil0 str0" points="40223,22482 40223,23682 40643,23682 40643,22482 "/>
  <polygon class="fil0 str0" points="42223,22482 42223,23682 42643,23682 42643,22482 "/>
  <polygon class="fil0 str0" points="45043,24214 45043,25414 45463,25414 45463,24214 "/>
  <polygon class="fil0 str0" points="43043,24214 43043,25414 43463,25414 43463,24214 "/>
  <polygon class="fil0 str0" points="57043,24214 57043,25414 57463,25414 57463,24214 "/>
  <polygon class="fil0 str0" points="55043,24214 55043,25414 55463,25414 55463,24214 "/>
  <polygon class="fil0 str0" points="53043,24214 53043,25414 53463,25414 53463,24214 "/>
  <polygon class="fil0 str0" points="51043,24214 51043,25414 51463,25414 51463,24214 "/>
  <polygon class="fil0 str0" points="49043,24214 49043,25414 49463,25414 49463,24214 "/>
  <polygon class="fil0 str0" points="47043,24214 47043,25414 47463,25414 47463,24214 "/>
  <polygon class="fil0 str0" points="33043,24214 33043,25414 33463,25414 33463,24214 "/>
  <polygon class="fil0 str0" points="35043,24214 35043,25414 35463,25414 35463,24214 "/>
  <polygon class="fil0 str0" points="37043,24214 37043,25414 37463,25414 37463,24214 "/>
  <polygon class="fil0 str0" points="39043,24214 39043,25414 39463,25414 39463,24214 "/>
  <polygon class="fil0 str0" points="41043,24214 41043,25414 41463,25414 41463,24214 "/>
  <path class="fil0 str0" d="M60213 20668c0,-82 -67,-150 -150,-150 -83,0 -150,68 -150,150 0,83 67,150 150,150 83,0 150,-67 150,-150z"/>
  <path class="fil0 str0" d="M60213 27092c0,-83 -67,-150 -150,-150 -83,0 -150,67 -150,150 0,83 67,150 150,150 83,0 150,-67 150,-150z"/>
  <path class="fil0 str0" d="M60213 23880c0,-83 -67,-150 -150,-150 -83,0 -150,67 -150,150 0,83 67,150 150,150 83,0 150,-67 150,-150z"/>
  <path class="fil0 str0" d="M31413 20668c0,-82 -67,-150 -150,-150 -83,0 -150,68 -150,150 0,83 67,150 150,150 83,0 150,-67 150,-150z"/>
  <path class="fil0 str0" d="M31413 27092c0,-83 -67,-150 -150,-150 -83,0 -150,67 -150,150 0,83 67,150 150,150 83,0 150,-67 150,-150z"/>
  <path class="fil0 str0" d="M31413 23880c0,-83 -67,-150 -150,-150 -83,0 -150,67 -150,150 0,83 67,150 150,150 83,0 150,-67 150,-150z"/>
  <polygon class="fil0 str0" points="45453,20750 45453,21950 45873,21950 45873,20750 "/>
  <polygon class="fil0 str0" points="37453,20750 37453,21950 37873,21950 37873,20750 "/>
  <polygon class="fil0 str0" points="39453,20750 39453,21950 39873,21950 39873,20750 "/>
  <polygon class="fil0 str0" points="41453,20750 41453,21950 41873,21950 41873,20750 "/>
  <polygon class="fil0 str0" points="49453,20750 49453,21950 49873,21950 49873,20750 "/>
  <polygon class="fil0 str0" points="47453,20750 47453,21950 47873,21950 47873,20750 "/>
  <polygon class="fil0 str0" points="31436,21667 31348,21518 31175,21519 31090,21670 31178,21819 31351,21818 "/>
  <polygon class="fil0 str0" points="60363,27992 30963,27992 30963,19564 60363,19564 "/>
  <path class="fil0 str0" d="M58200 29150c83,0 150,-67 150,-150 0,-83 -67,-150 -150,-150 -83,0 -150,67 -150,150 0,83 67,150 150,150z"/>
  <path class="fil0 str0" d="M53200 29150c83,0 150,-67 150,-150 0,-83 -67,-150 -150,-150 -83,0 -150,67 -150,150 0,83 67,150 150,150z"/>
  <path class="fil0 str0" d="M48200 29150c83,0 150,-67 150,-150 0,-83 -67,-150 -150,-150 -83,0 -150,67 -150,150 0,83 67,150 150,150z"/>
  <path class="fil0 str0" d="M43200 29150c83,0 150,-67 150,-150 0,-83 -67,-150 -150,-150 -83,0 -150,67 -150,150 0,83 67,150 150,150z"/>
  <path class="fil0 str0" d="M58200 35550c83,0 150,-67 150,-150 0,-83 -67,-150 -150,-150 -83,0 -150,67 -150,150 0,83 67,150 150,150z"/>
  <path class="fil0 str0" d="M53200 35550c83,0 150,-67 150,-150 0,-83 -67,-150 -150,-150 -83,0 -150,67 -150,150 0,83 67,150 150,150z"/>
  <path class="fil0 str0" d="M48200 35550c83,0 150,-67 150,-150 0,-83 -67,-150 -150,-150 -83,0 -150,67 -150,150 0,83 67,150 150,150z"/>
  <path class="fil0 str0" d="M43200 35550c83,0 150,-67 150,-150 0,-83 -67,-150 -150,-150 -83,0 -150,67 -150,150 0,83 67,150 150,150z"/>
  <path class="fil0 str0" d="M60100 29150c83,0 150,-67 150,-150 0,-83 -67,-150 -150,-150 -83,0 -150,67 -150,150 0,83 67,150 150,150z"/>
  <path class="fil0 str0" d="M60100 35550c83,0 150,-67 150,-150 0,-83 -67,-150 -150,-150 -83,0 -150,67 -150,150 0,83 67,150 150,150z"/>
  <path class="fil0 str0" d="M31300 29150c83,0 150,-67 150,-150 0,-83 -67,-150 -150,-150 -83,0 -150,67 -150,150 0,83 67,150 150,150z"/>
  <path class="fil0 str0" d="M31300 35550c83,0 150,-67 150,-150 0,-83 -67,-150 -150,-150 -83,0 -150,67 -150,150 0,83 67,150 150,150z"/>
  <path class="fil0 str0" d="M33200 29150c83,0 150,-67 150,-150 0,-83 -67,-150 -150,-150 -83,0 -150,67 -150,150 0,83 67,150 150,150z"/>
  <path class="fil0 str0" d="M33200 35550c83,0 150,-67 150,-150 0,-83 -67,-150 -150,-150 -83,0 -150,67 -150,150 0,83 67,150 150,150z"/>
  <path class="fil0 str0" d="M38200 35550c83,0 150,-67 150,-150 0,-83 -67,-150 -150,-150 -83,0 -150,67 -150,150 0,83 67,150 150,150z"/>
  <path class="fil0 str0" d="M38200 29150c83,0 150,-67 150,-150 0,-83 -67,-150 -150,-150 -83,0 -150,67 -150,150 0,83 67,150 150,150z"/>
  <polygon class="fil0 str0" points="31387,30150 31473,30000 31387,29850 31213,29850 31127,30000 31213,30150 "/>
  <polygon class="fil0 str0" points="60400,36200 31000,36200 31000,28500 60400,28500 "/>
  <path class="fil0 str0" d="M31840 37000c0,88 72,160 160,160 88,0 160,-72 160,-160 0,-88 -72,-160 -160,-160 -88,0 -160,72 -160,160z"/>
  <path class="fil0 str0" d="M59240 37000c0,88 72,160 160,160 88,0 160,-72 160,-160 0,-88 -72,-160 -160,-160 -88,0 -160,72 -160,160z"/>
  <polygon class="fil0 str0" points="45465,38500 45465,37500 45165,37500 45165,38500 "/>
  <polygon class="fil0 str0" points="60400,36500 31000,36500 31000,39500 60400,39500 "/>
  <path class="fil0 str0" d="M59240 39000c0,88 72,160 160,160 88,0 160,-72 160,-160 0,-88 -72,-160 -160,-160 -88,0 -160,72 -160,160z"/>
  <path class="fil0 str0" d="M31840 39000c0,88 72,160 160,160 88,0 160,-72 160,-160 0,-88 -72,-160 -160,-160 -88,0 -160,72 -160,160z"/>
  <polygon class="fil0 str0" points="43465,38500 43465,37500 43165,37500 43165,38500 "/>
  <polygon class="fil0 str0" points="57465,38500 57465,37500 57165,37500 57165,38500 "/>
  <polygon class="fil0 str0" points="55465,38500 55465,37500 55165,37500 55165,38500 "/>
  <polygon class="fil0 str0" points="53465,38500 53465,37500 53165,37500 53165,38500 "/>
  <polygon class="fil0 str0" points="51465,38500 51465,37500 51165,37500 51165,38500 "/>
  <polygon class="fil0 str0" points="49465,38500 49465,37500 49165,37500 49165,38500 "/>
  <polygon class="fil0 str0" points="47465,38500 47465,37500 47165,37500 47165,38500 "/>
  <polygon class="fil0 str0" points="33465,38500 33465,37500 33165,37500 33165,38500 "/>
  <polygon class="fil0 str0" points="35465,38500 35465,37500 35165,37500 35165,38500 "/>
  <polygon class="fil0 str0" points="37465,38500 37465,37500 37165,37500 37165,38500 "/>
  <polygon class="fil0 str0" points="39465,38500 39465,37500 39165,37500 39165,38500 "/>
  <polygon class="fil0 str0" points="41465,38500 41465,37500 41165,37500 41165,38500 "/>
  <polygon class="fil0 str0" points="58345,37500 58345,38500 58645,38500 58645,37500 "/>
  <polygon class="fil0 str0" points="59227,38200 59313,38350 59487,38350 59573,38200 59487,38050 59313,38050 "/>
  <path class="fil0 str0" d="M62500 29560c88,0 160,-72 160,-160 0,-88 -72,-160 -160,-160 -88,0 -160,72 -160,160 0,88 72,160 160,160z"/>
  <path class="fil0 str0" d="M62500 1160c88,0 160,-72 160,-160 0,-88 -72,-160 -160,-160 -88,0 -160,72 -160,160 0,88 72,160 160,160z"/>
  <polygon class="fil0 str0" points="65200,15435 64000,15435 64000,15735 65200,15735 "/>
  <path class="fil0 str0" d="M65500 1160c88,0 160,-72 160,-160 0,-88 -72,-160 -160,-160 -88,0 -160,72 -160,160 0,88 72,160 160,160z"/>
  <path class="fil0 str0" d="M65500 29560c88,0 160,-72 160,-160 0,-88 -72,-160 -160,-160 -88,0 -160,72 -160,160 0,88 72,160 160,160z"/>
  <polygon class="fil0 str0" points="65200,17435 64000,17435 64000,17735 65200,17735 "/>
  <polygon class="fil0 str0" points="65200,3435 64000,3435 64000,3735 65200,3735 "/>
  <polygon class="fil0 str0" points="65200,5435 64000,5435 64000,5735 65200,5735 "/>
  <polygon class="fil0 str0" points="65200,7435 64000,7435 64000,7735 65200,7735 "/>
  <polygon class="fil0 str0" points="65200,9435 64000,9435 64000,9735 65200,9735 "/>
  <polygon class="fil0 str0" points="65200,11435 64000,11435 64000,11735 65200,11735 "/>
  <polygon class="fil0 str0" points="65200,13435 64000,13435 64000,13735 65200,13735 "/>
  <polygon class="fil0 str0" points="65200,27435 64000,27435 64000,27735 65200,27735 "/>
  <polygon class="fil0 str0" points="65200,25435 64000,25435 64000,25735 65200,25735 "/>
  <polygon class="fil0 str0" points="65200,23435 64000,23435 64000,23735 65200,23735 "/>
  <polygon class="fil0 str0" points="65200,21435 64000,21435 64000,21735 65200,21735 "/>
  <polygon class="fil0 str0" points="65200,19435 64000,19435 64000,19735 65200,19735 "/>
  <polygon class="fil0 str0" points="64000,2555 65200,2555 65200,2255 64000,2255 "/>
  <polygon class="fil0 str0" points="64500,1173 64650,1087 64650,913 64500,827 64350,913 64350,1087 "/>
  <polygon class="fil0 str0" points="62000,500 62000,29900 66000,29900 66000,500 "/>
 </g>
</svg>
