<?xml version="1.0" encoding="UTF-8"?>
<!DOCTYPE svg PUBLIC "-//W3C//DTD SVG 1.1//EN" "http://www.w3.org/Graphics/SVG/1.1/DTD/svg11.dtd">
<!-- Creator: CorelDRAW X7 -->
<svg xmlns="http://www.w3.org/2000/svg" xml:space="preserve" width="645mm" height="500mm" version="1.1" style="shape-rendering:geometricPrecision; text-rendering:geometricPrecision; image-rendering:optimizeQuality; fill-rule:evenodd; clip-rule:evenodd"
viewBox="0 0 64500 50000"
 xmlns:xlink="http://www.w3.org/1999/xlink">
 <defs>
  <style type="text/css">
   <![CDATA[
    .str0 {stroke:red;stroke-width:7.62;stroke-linejoin:bevel}
    .fil0 {fill:none}
   ]]>
  </style>
 </defs>
 <g id="Layer_x0020_1">
  <metadata id="CorelCorpID_0Corel-Layer"/>
  <path class="fil0 str0" d="M2612 14750c83,0 150,-67 150,-150 0,-83 -67,-150 -150,-150 -83,0 -150,67 -150,150 0,83 67,150 150,150z"/>
  <path class="fil0 str0" d="M2612 35540c83,0 150,67 150,150 0,83 -67,150 -150,150 -83,0 -150,-67 -150,-150 0,-83 67,-150 150,-150z"/>
  <path class="fil0 str0" d="M18388 10640c-83,0 -150,67 -150,150 0,83 67,150 150,150 83,0 150,-67 150,-150 0,-83 -67,-150 -150,-150z"/>
  <path class="fil0 str0" d="M18388 39710c-83,0 -150,-67 -150,-150 0,-83 67,-150 150,-150 83,0 150,67 150,150 0,83 -67,150 -150,150z"/>
  <path class="fil0 str0" d="M18450 7850c83,0 150,-67 150,-150 0,-83 -67,-150 -150,-150 -83,0 -150,67 -150,150 0,83 67,150 150,150z"/>
  <path class="fil0 str0" d="M18450 42440c83,0 150,67 150,150 0,83 -67,150 -150,150 -83,0 -150,-67 -150,-150 0,-83 67,-150 150,-150z"/>
  <path class="fil0 str0" d="M2550 17540c-83,0 -150,67 -150,150 0,83 67,150 150,150 83,0 150,-67 150,-150 0,-83 -67,-150 -150,-150z"/>
  <path class="fil0 str0" d="M2550 32810c-83,0 -150,-67 -150,-150 0,-83 67,-150 150,-150 83,0 150,67 150,150 0,83 -67,150 -150,150z"/>
  <path class="fil0 str0" d="M18450 1450c83,0 150,-67 150,-150 0,-83 -67,-150 -150,-150 -83,0 -150,67 -150,150 0,83 67,150 150,150z"/>
  <path class="fil0 str0" d="M18450 48840c83,0 150,67 150,150 0,83 -67,150 -150,150 -83,0 -150,-67 -150,-150 0,-83 67,-150 150,-150z"/>
  <path class="fil0 str0" d="M2550 23940c-83,0 -150,67 -150,150 0,83 67,150 150,150 83,0 150,-67 150,-150 0,-83 -67,-150 -150,-150z"/>
  <path class="fil0 str0" d="M2550 26410c-83,0 -150,-67 -150,-150 0,-83 67,-150 150,-150 83,0 150,67 150,150 0,83 -67,150 -150,150z"/>
  <path class="fil0 str0" d="M9600 1450c83,0 150,-67 150,-150 0,-83 -67,-150 -150,-150 -83,0 -150,67 -150,150 0,83 67,150 150,150z"/>
  <path class="fil0 str0" d="M9600 48840c83,0 150,67 150,150 0,83 -67,150 -150,150 -83,0 -150,-67 -150,-150 0,-83 67,-150 150,-150z"/>
  <path class="fil0 str0" d="M11400 23940c-83,0 -150,67 -150,150 0,83 67,150 150,150 83,0 150,-67 150,-150 0,-83 -67,-150 -150,-150z"/>
  <path class="fil0 str0" d="M11400 26410c-83,0 -150,-67 -150,-150 0,-83 67,-150 150,-150 83,0 150,67 150,150 0,83 -67,150 -150,150z"/>
  <path class="fil0 str0" d="M9400 7850c83,0 150,-67 150,-150 0,-83 -67,-150 -150,-150 -83,0 -150,67 -150,150 0,83 67,150 150,150z"/>
  <path class="fil0 str0" d="M9400 42440c83,0 150,67 150,150 0,83 -67,150 -150,150 -83,0 -150,-67 -150,-150 0,-83 67,-150 150,-150z"/>
  <path class="fil0 str0" d="M11600 17540c-83,0 -150,67 -150,150 0,83 67,150 150,150 83,0 150,-67 150,-150 0,-83 -67,-150 -150,-150z"/>
  <path class="fil0 str0" d="M11600 32810c-83,0 -150,-67 -150,-150 0,-83 67,-150 150,-150 83,0 150,67 150,150 0,83 -67,150 -150,150z"/>
  <path class="fil0 str0" d="M2900 1450c83,0 150,-67 150,-150 0,-83 -67,-150 -150,-150 -83,0 -150,67 -150,150 0,83 67,150 150,150z"/>
  <path class="fil0 str0" d="M2900 48840c83,0 150,67 150,150 0,83 -67,150 -150,150 -83,0 -150,-67 -150,-150 0,-83 67,-150 150,-150z"/>
  <path class="fil0 str0" d="M18100 23940c-83,0 -150,67 -150,150 0,83 67,150 150,150 83,0 150,-67 150,-150 0,-83 -67,-150 -150,-150z"/>
  <path class="fil0 str0" d="M18100 26410c-83,0 -150,-67 -150,-150 0,-83 67,-150 150,-150 83,0 150,67 150,150 0,83 -67,150 -150,150z"/>
  <path class="fil0 str0" d="M3829 7850c83,0 150,-67 150,-150 0,-83 -67,-150 -150,-150 -83,0 -150,67 -150,150 0,83 67,150 150,150z"/>
  <path class="fil0 str0" d="M3829 42440c83,0 150,67 150,150 0,83 -67,150 -150,150 -83,0 -150,-67 -150,-150 0,-83 67,-150 150,-150z"/>
  <path class="fil0 str0" d="M17171 17540c-83,0 -150,67 -150,150 0,83 67,150 150,150 83,0 150,-67 150,-150 0,-83 -67,-150 -150,-150z"/>
  <path class="fil0 str0" d="M17171 32810c-83,0 -150,-67 -150,-150 0,-83 67,-150 150,-150 83,0 150,67 150,150 0,83 -67,150 -150,150z"/>
  <path class="fil0 str0" d="M1300 2850c83,0 150,-67 150,-150 0,-83 -67,-150 -150,-150 -83,0 -150,67 -150,150 0,83 67,150 150,150z"/>
  <path class="fil0 str0" d="M1300 47440c83,0 150,67 150,150 0,83 -67,150 -150,150 -83,0 -150,-67 -150,-150 0,-83 67,-150 150,-150z"/>
  <path class="fil0 str0" d="M19700 22540c-83,0 -150,67 -150,150 0,83 67,150 150,150 83,0 150,-67 150,-150 0,-83 -67,-150 -150,-150z"/>
  <path class="fil0 str0" d="M19700 27810c-83,0 -150,-67 -150,-150 0,-83 67,-150 150,-150 83,0 150,67 150,150 0,83 -67,150 -150,150z"/>
  <path class="fil0 str0" d="M1300 14750c83,0 150,-67 150,-150 0,-83 -67,-150 -150,-150 -83,0 -150,67 -150,150 0,83 67,150 150,150z"/>
  <path class="fil0 str0" d="M1300 35540c83,0 150,67 150,150 0,83 -67,150 -150,150 -83,0 -150,-67 -150,-150 0,-83 67,-150 150,-150z"/>
  <path class="fil0 str0" d="M19700 10640c-83,0 -150,67 -150,150 0,83 67,150 150,150 83,0 150,-67 150,-150 0,-83 -67,-150 -150,-150z"/>
  <path class="fil0 str0" d="M19700 39710c-83,0 -150,-67 -150,-150 0,-83 67,-150 150,-150 83,0 150,67 150,150 0,83 -67,150 -150,150z"/>
  <polygon class="fil0 str0" points="17600,7613 17600,7787 17450,7873 17300,7787 17300,7613 17450,7527 "/>
  <polygon class="fil0 str0" points="17600,42677 17600,42503 17450,42417 17300,42503 17300,42677 17450,42763 "/>
  <polygon class="fil0 str0" points="3400,17777 3400,17603 3550,17517 3700,17603 3700,17777 3550,17863 "/>
  <polygon class="fil0 str0" points="3400,32573 3400,32747 3550,32833 3700,32747 3700,32573 3550,32487 "/>
  <polygon class="fil0 str0" points="4500,8500 20500,8500 20500,500 500,500 500,16500 3089,16500 "/>
  <polygon class="fil0 str0" points="4500,41790 20500,41790 20500,49790 500,49790 500,33790 3089,33790 "/>
  <polygon class="fil0 str0" points="16500,16890 500,16890 500,24890 20500,24890 20500,8890 17911,8890 "/>
  <polygon class="fil0 str0" points="16500,33460 500,33460 500,25460 20500,25460 20500,41460 17911,41460 "/>
 </g>
</svg>
