<?xml version="1.0" encoding="UTF-8"?>
<!DOCTYPE svg PUBLIC "-//W3C//DTD SVG 1.1//EN" "http://www.w3.org/Graphics/SVG/1.1/DTD/svg11.dtd">
<!-- Creator: CorelDRAW X7 -->
<svg xmlns="http://www.w3.org/2000/svg" xml:space="preserve" width="297mm" height="210mm" version="1.1" style="shape-rendering:geometricPrecision; text-rendering:geometricPrecision; image-rendering:optimizeQuality; fill-rule:evenodd; clip-rule:evenodd"
viewBox="0 0 29700 21000"
 xmlns:xlink="http://www.w3.org/1999/xlink">
 <defs>
  <style type="text/css">
   <![CDATA[
    .str0 {stroke:red;stroke-width:7.62;stroke-linejoin:bevel}
    .fil0 {fill:none}
   ]]>
  </style>
 </defs>
 <g id="_0">
  <metadata id="CorelCorpID_0Corel-Layer"/>
  <path class="fil0 str0" d="M28710 13500c0,-88 -72,-160 -160,-160 -88,0 -160,72 -160,160 0,88 72,160 160,160 88,0 160,-72 160,-160z"/>
  <path class="fil0 str0" d="M1310 13500c0,-88 -72,-160 -160,-160 -88,0 -160,72 -160,160 0,88 72,160 160,160 88,0 160,-72 160,-160z"/>
  <polygon class="fil0 str0" points="14303,9880 14303,9920 14343,9920 14343,9880 "/>
  <polygon class="fil0 str0" points="14957,11280 14957,11320 14997,11320 14997,11280 "/>
  <polygon class="fil0 str0" points="14703,12280 14703,12320 14743,12320 14743,12280 "/>
  <polygon class="fil0 str0" points="14957,12280 14957,12320 14997,12320 14997,12280 "/>
  <polygon class="fil0 str0" points="15103,7780 15103,7820 15143,7820 15143,7780 "/>
  <polygon class="fil0 str0" points="15357,7780 15357,7820 15397,7820 15397,7780 "/>
  <polygon class="fil0 str0" points="14557,9880 14557,9920 14597,9920 14597,9880 "/>
  <polygon class="fil0 str0" points="14303,10880 14303,10920 14343,10920 14343,10880 "/>
  <polygon class="fil0 str0" points="14557,10880 14557,10920 14597,10920 14597,10880 "/>
  <polygon class="fil0 str0" points="14703,11280 14703,11320 14743,11320 14743,11280 "/>
  <polygon class="fil0 str0" points="15797,11580 15757,11580 15757,11620 15797,11620 "/>
  <polygon class="fil0 str0" points="15943,8480 15903,8480 15903,8520 15943,8520 "/>
  <polygon class="fil0 str0" points="16157,8480 16157,8520 16197,8520 16197,8480 "/>
  <polygon class="fil0 str0" points="15943,9480 15903,9480 15903,9520 15943,9520 "/>
  <polygon class="fil0 str0" points="16157,9480 16157,9520 16197,9520 16197,9480 "/>
  <polygon class="fil0 str0" points="15543,10580 15503,10580 15503,10620 15543,10620 "/>
  <polygon class="fil0 str0" points="15757,10580 15757,10620 15797,10620 15797,10580 "/>
  <polygon class="fil0 str0" points="15543,11580 15503,11580 15503,11620 15543,11620 "/>
  <polygon class="fil0 str0" points="15357,8780 15357,8820 15397,8820 15397,8780 "/>
  <polygon class="fil0 str0" points="15143,8780 15103,8780 15103,8820 15143,8820 "/>
  <polygon class="fil0 str0" points="17143,8780 17103,8780 17103,8820 17143,8820 "/>
  <polygon class="fil0 str0" points="3143,8780 3103,8780 3103,8820 3143,8820 "/>
  <polygon class="fil0 str0" points="5143,8780 5103,8780 5103,8820 5143,8820 "/>
  <polygon class="fil0 str0" points="7143,8780 7103,8780 7103,8820 7143,8820 "/>
  <polygon class="fil0 str0" points="9143,8780 9103,8780 9103,8820 9143,8820 "/>
  <polygon class="fil0 str0" points="11143,8780 11103,8780 11103,8820 11143,8820 "/>
  <polygon class="fil0 str0" points="13143,8780 13103,8780 13103,8820 13143,8820 "/>
  <polygon class="fil0 str0" points="27143,8780 27103,8780 27103,8820 27143,8820 "/>
  <polygon class="fil0 str0" points="25143,8780 25103,8780 25103,8820 25143,8820 "/>
  <polygon class="fil0 str0" points="23143,8780 23103,8780 23103,8820 23143,8820 "/>
  <polygon class="fil0 str0" points="21143,8780 21103,8780 21103,8820 21143,8820 "/>
  <polygon class="fil0 str0" points="19143,8780 19103,8780 19103,8820 19143,8820 "/>
  <polygon class="fil0 str0" points="16303,9880 16303,9920 16343,9920 16343,9880 "/>
  <polygon class="fil0 str0" points="2303,9880 2303,9920 2343,9920 2343,9880 "/>
  <polygon class="fil0 str0" points="4303,9880 4303,9920 4343,9920 4343,9880 "/>
  <polygon class="fil0 str0" points="6303,9880 6303,9920 6343,9920 6343,9880 "/>
  <polygon class="fil0 str0" points="8303,9880 8303,9920 8343,9920 8343,9880 "/>
  <polygon class="fil0 str0" points="10303,9880 10303,9920 10343,9920 10343,9880 "/>
  <polygon class="fil0 str0" points="12303,9880 12303,9920 12343,9920 12343,9880 "/>
  <polygon class="fil0 str0" points="26303,9880 26303,9920 26343,9920 26343,9880 "/>
  <polygon class="fil0 str0" points="24303,9880 24303,9920 24343,9920 24343,9880 "/>
  <polygon class="fil0 str0" points="22303,9880 22303,9920 22343,9920 22343,9880 "/>
  <polygon class="fil0 str0" points="20303,9880 20303,9920 20343,9920 20343,9880 "/>
  <polygon class="fil0 str0" points="18303,9880 18303,9920 18343,9920 18343,9880 "/>
  <polygon class="fil0 str0" points="16957,11280 16957,11320 16997,11320 16997,11280 "/>
  <polygon class="fil0 str0" points="2957,11280 2957,11320 2997,11320 2997,11280 "/>
  <polygon class="fil0 str0" points="4957,11280 4957,11320 4997,11320 4997,11280 "/>
  <polygon class="fil0 str0" points="6957,11280 6957,11320 6997,11320 6997,11280 "/>
  <polygon class="fil0 str0" points="8957,11280 8957,11320 8997,11320 8997,11280 "/>
  <polygon class="fil0 str0" points="10957,11280 10957,11320 10997,11320 10997,11280 "/>
  <polygon class="fil0 str0" points="12957,11280 12957,11320 12997,11320 12997,11280 "/>
  <polygon class="fil0 str0" points="26957,11280 26957,11320 26997,11320 26997,11280 "/>
  <polygon class="fil0 str0" points="24957,11280 24957,11320 24997,11320 24997,11280 "/>
  <polygon class="fil0 str0" points="22957,11280 22957,11320 22997,11320 22997,11280 "/>
  <polygon class="fil0 str0" points="20957,11280 20957,11320 20997,11320 20997,11280 "/>
  <polygon class="fil0 str0" points="18957,11280 18957,11320 18997,11320 18997,11280 "/>
  <polygon class="fil0 str0" points="16703,12280 16703,12320 16743,12320 16743,12280 "/>
  <polygon class="fil0 str0" points="2703,12280 2703,12320 2743,12320 2743,12280 "/>
  <polygon class="fil0 str0" points="4703,12280 4703,12320 4743,12320 4743,12280 "/>
  <polygon class="fil0 str0" points="6703,12280 6703,12320 6743,12320 6743,12280 "/>
  <polygon class="fil0 str0" points="8703,12280 8703,12320 8743,12320 8743,12280 "/>
  <polygon class="fil0 str0" points="10703,12280 10703,12320 10743,12320 10743,12280 "/>
  <polygon class="fil0 str0" points="12703,12280 12703,12320 12743,12320 12743,12280 "/>
  <polygon class="fil0 str0" points="26703,12280 26703,12320 26743,12320 26743,12280 "/>
  <polygon class="fil0 str0" points="24703,12280 24703,12320 24743,12320 24743,12280 "/>
  <polygon class="fil0 str0" points="22703,12280 22703,12320 22743,12320 22743,12280 "/>
  <polygon class="fil0 str0" points="20703,12280 20703,12320 20743,12320 20743,12280 "/>
  <polygon class="fil0 str0" points="18703,12280 18703,12320 18743,12320 18743,12280 "/>
  <polygon class="fil0 str0" points="16957,12280 16957,12320 16997,12320 16997,12280 "/>
  <polygon class="fil0 str0" points="2957,12280 2957,12320 2997,12320 2997,12280 "/>
  <polygon class="fil0 str0" points="4957,12280 4957,12320 4997,12320 4997,12280 "/>
  <polygon class="fil0 str0" points="6957,12280 6957,12320 6997,12320 6997,12280 "/>
  <polygon class="fil0 str0" points="8957,12280 8957,12320 8997,12320 8997,12280 "/>
  <polygon class="fil0 str0" points="10957,12280 10957,12320 10997,12320 10997,12280 "/>
  <polygon class="fil0 str0" points="12957,12280 12957,12320 12997,12320 12997,12280 "/>
  <polygon class="fil0 str0" points="26957,12280 26957,12320 26997,12320 26997,12280 "/>
  <polygon class="fil0 str0" points="24957,12280 24957,12320 24997,12320 24997,12280 "/>
  <polygon class="fil0 str0" points="22957,12280 22957,12320 22997,12320 22997,12280 "/>
  <polygon class="fil0 str0" points="20957,12280 20957,12320 20997,12320 20997,12280 "/>
  <polygon class="fil0 str0" points="18957,12280 18957,12320 18997,12320 18997,12280 "/>
  <polygon class="fil0 str0" points="17103,7780 17103,7820 17143,7820 17143,7780 "/>
  <polygon class="fil0 str0" points="3103,7780 3103,7820 3143,7820 3143,7780 "/>
  <polygon class="fil0 str0" points="5103,7780 5103,7820 5143,7820 5143,7780 "/>
  <polygon class="fil0 str0" points="7103,7780 7103,7820 7143,7820 7143,7780 "/>
  <polygon class="fil0 str0" points="9103,7780 9103,7820 9143,7820 9143,7780 "/>
  <polygon class="fil0 str0" points="11103,7780 11103,7820 11143,7820 11143,7780 "/>
  <polygon class="fil0 str0" points="13103,7780 13103,7820 13143,7820 13143,7780 "/>
  <polygon class="fil0 str0" points="27103,7780 27103,7820 27143,7820 27143,7780 "/>
  <polygon class="fil0 str0" points="25103,7780 25103,7820 25143,7820 25143,7780 "/>
  <polygon class="fil0 str0" points="23103,7780 23103,7820 23143,7820 23143,7780 "/>
  <polygon class="fil0 str0" points="21103,7780 21103,7820 21143,7820 21143,7780 "/>
  <polygon class="fil0 str0" points="19103,7780 19103,7820 19143,7820 19143,7780 "/>
  <polygon class="fil0 str0" points="17357,7780 17357,7820 17397,7820 17397,7780 "/>
  <polygon class="fil0 str0" points="3357,7780 3357,7820 3397,7820 3397,7780 "/>
  <polygon class="fil0 str0" points="5357,7780 5357,7820 5397,7820 5397,7780 "/>
  <polygon class="fil0 str0" points="7357,7780 7357,7820 7397,7820 7397,7780 "/>
  <polygon class="fil0 str0" points="9357,7780 9357,7820 9397,7820 9397,7780 "/>
  <polygon class="fil0 str0" points="11357,7780 11357,7820 11397,7820 11397,7780 "/>
  <polygon class="fil0 str0" points="13357,7780 13357,7820 13397,7820 13397,7780 "/>
  <polygon class="fil0 str0" points="27357,7780 27357,7820 27397,7820 27397,7780 "/>
  <polygon class="fil0 str0" points="25357,7780 25357,7820 25397,7820 25397,7780 "/>
  <polygon class="fil0 str0" points="23357,7780 23357,7820 23397,7820 23397,7780 "/>
  <polygon class="fil0 str0" points="21357,7780 21357,7820 21397,7820 21397,7780 "/>
  <polygon class="fil0 str0" points="19357,7780 19357,7820 19397,7820 19397,7780 "/>
  <polygon class="fil0 str0" points="16557,9880 16557,9920 16597,9920 16597,9880 "/>
  <polygon class="fil0 str0" points="2557,9880 2557,9920 2597,9920 2597,9880 "/>
  <polygon class="fil0 str0" points="4557,9880 4557,9920 4597,9920 4597,9880 "/>
  <polygon class="fil0 str0" points="6557,9880 6557,9920 6597,9920 6597,9880 "/>
  <polygon class="fil0 str0" points="8557,9880 8557,9920 8597,9920 8597,9880 "/>
  <polygon class="fil0 str0" points="10557,9880 10557,9920 10597,9920 10597,9880 "/>
  <polygon class="fil0 str0" points="12557,9880 12557,9920 12597,9920 12597,9880 "/>
  <polygon class="fil0 str0" points="26557,9880 26557,9920 26597,9920 26597,9880 "/>
  <polygon class="fil0 str0" points="24557,9880 24557,9920 24597,9920 24597,9880 "/>
  <polygon class="fil0 str0" points="22557,9880 22557,9920 22597,9920 22597,9880 "/>
  <polygon class="fil0 str0" points="20557,9880 20557,9920 20597,9920 20597,9880 "/>
  <polygon class="fil0 str0" points="18557,9880 18557,9920 18597,9920 18597,9880 "/>
  <polygon class="fil0 str0" points="16303,10880 16303,10920 16343,10920 16343,10880 "/>
  <polygon class="fil0 str0" points="2303,10880 2303,10920 2343,10920 2343,10880 "/>
  <polygon class="fil0 str0" points="4303,10880 4303,10920 4343,10920 4343,10880 "/>
  <polygon class="fil0 str0" points="6303,10880 6303,10920 6343,10920 6343,10880 "/>
  <polygon class="fil0 str0" points="8303,10880 8303,10920 8343,10920 8343,10880 "/>
  <polygon class="fil0 str0" points="10303,10880 10303,10920 10343,10920 10343,10880 "/>
  <polygon class="fil0 str0" points="12303,10880 12303,10920 12343,10920 12343,10880 "/>
  <polygon class="fil0 str0" points="26303,10880 26303,10920 26343,10920 26343,10880 "/>
  <polygon class="fil0 str0" points="24303,10880 24303,10920 24343,10920 24343,10880 "/>
  <polygon class="fil0 str0" points="22303,10880 22303,10920 22343,10920 22343,10880 "/>
  <polygon class="fil0 str0" points="20303,10880 20303,10920 20343,10920 20343,10880 "/>
  <polygon class="fil0 str0" points="18303,10880 18303,10920 18343,10920 18343,10880 "/>
  <polygon class="fil0 str0" points="16557,10880 16557,10920 16597,10920 16597,10880 "/>
  <polygon class="fil0 str0" points="2557,10880 2557,10920 2597,10920 2597,10880 "/>
  <polygon class="fil0 str0" points="4557,10880 4557,10920 4597,10920 4597,10880 "/>
  <polygon class="fil0 str0" points="6557,10880 6557,10920 6597,10920 6597,10880 "/>
  <polygon class="fil0 str0" points="8557,10880 8557,10920 8597,10920 8597,10880 "/>
  <polygon class="fil0 str0" points="10557,10880 10557,10920 10597,10920 10597,10880 "/>
  <polygon class="fil0 str0" points="12557,10880 12557,10920 12597,10920 12597,10880 "/>
  <polygon class="fil0 str0" points="26557,10880 26557,10920 26597,10920 26597,10880 "/>
  <polygon class="fil0 str0" points="24557,10880 24557,10920 24597,10920 24597,10880 "/>
  <polygon class="fil0 str0" points="22557,10880 22557,10920 22597,10920 22597,10880 "/>
  <polygon class="fil0 str0" points="20557,10880 20557,10920 20597,10920 20597,10880 "/>
  <polygon class="fil0 str0" points="18557,10880 18557,10920 18597,10920 18597,10880 "/>
  <polygon class="fil0 str0" points="16703,11280 16703,11320 16743,11320 16743,11280 "/>
  <polygon class="fil0 str0" points="2703,11280 2703,11320 2743,11320 2743,11280 "/>
  <polygon class="fil0 str0" points="4703,11280 4703,11320 4743,11320 4743,11280 "/>
  <polygon class="fil0 str0" points="6703,11280 6703,11320 6743,11320 6743,11280 "/>
  <polygon class="fil0 str0" points="8703,11280 8703,11320 8743,11320 8743,11280 "/>
  <polygon class="fil0 str0" points="10703,11280 10703,11320 10743,11320 10743,11280 "/>
  <polygon class="fil0 str0" points="12703,11280 12703,11320 12743,11320 12743,11280 "/>
  <polygon class="fil0 str0" points="26703,11280 26703,11320 26743,11320 26743,11280 "/>
  <polygon class="fil0 str0" points="24703,11280 24703,11320 24743,11320 24743,11280 "/>
  <polygon class="fil0 str0" points="22703,11280 22703,11320 22743,11320 22743,11280 "/>
  <polygon class="fil0 str0" points="20703,11280 20703,11320 20743,11320 20743,11280 "/>
  <polygon class="fil0 str0" points="18703,11280 18703,11320 18743,11320 18743,11280 "/>
  <polygon class="fil0 str0" points="17797,11580 17757,11580 17757,11620 17797,11620 "/>
  <polygon class="fil0 str0" points="3797,11580 3757,11580 3757,11620 3797,11620 "/>
  <polygon class="fil0 str0" points="5797,11580 5757,11580 5757,11620 5797,11620 "/>
  <polygon class="fil0 str0" points="7797,11580 7757,11580 7757,11620 7797,11620 "/>
  <polygon class="fil0 str0" points="9797,11580 9757,11580 9757,11620 9797,11620 "/>
  <polygon class="fil0 str0" points="11797,11580 11757,11580 11757,11620 11797,11620 "/>
  <polygon class="fil0 str0" points="13797,11580 13757,11580 13757,11620 13797,11620 "/>
  <polygon class="fil0 str0" points="27797,11580 27757,11580 27757,11620 27797,11620 "/>
  <polygon class="fil0 str0" points="25797,11580 25757,11580 25757,11620 25797,11620 "/>
  <polygon class="fil0 str0" points="23797,11580 23757,11580 23757,11620 23797,11620 "/>
  <polygon class="fil0 str0" points="21797,11580 21757,11580 21757,11620 21797,11620 "/>
  <polygon class="fil0 str0" points="19797,11580 19757,11580 19757,11620 19797,11620 "/>
  <polygon class="fil0 str0" points="17943,8480 17903,8480 17903,8520 17943,8520 "/>
  <polygon class="fil0 str0" points="3943,8480 3903,8480 3903,8520 3943,8520 "/>
  <polygon class="fil0 str0" points="5943,8480 5903,8480 5903,8520 5943,8520 "/>
  <polygon class="fil0 str0" points="7943,8480 7903,8480 7903,8520 7943,8520 "/>
  <polygon class="fil0 str0" points="9943,8480 9903,8480 9903,8520 9943,8520 "/>
  <polygon class="fil0 str0" points="11943,8480 11903,8480 11903,8520 11943,8520 "/>
  <polygon class="fil0 str0" points="13943,8480 13903,8480 13903,8520 13943,8520 "/>
  <polygon class="fil0 str0" points="27943,8480 27903,8480 27903,8520 27943,8520 "/>
  <polygon class="fil0 str0" points="25943,8480 25903,8480 25903,8520 25943,8520 "/>
  <polygon class="fil0 str0" points="23943,8480 23903,8480 23903,8520 23943,8520 "/>
  <polygon class="fil0 str0" points="21943,8480 21903,8480 21903,8520 21943,8520 "/>
  <polygon class="fil0 str0" points="19943,8480 19903,8480 19903,8520 19943,8520 "/>
  <polygon class="fil0 str0" points="18157,8480 18157,8520 18197,8520 18197,8480 "/>
  <polygon class="fil0 str0" points="4157,8480 4157,8520 4197,8520 4197,8480 "/>
  <polygon class="fil0 str0" points="6157,8480 6157,8520 6197,8520 6197,8480 "/>
  <polygon class="fil0 str0" points="8157,8480 8157,8520 8197,8520 8197,8480 "/>
  <polygon class="fil0 str0" points="10157,8480 10157,8520 10197,8520 10197,8480 "/>
  <polygon class="fil0 str0" points="12157,8480 12157,8520 12197,8520 12197,8480 "/>
  <polygon class="fil0 str0" points="14157,8480 14157,8520 14197,8520 14197,8480 "/>
  <polygon class="fil0 str0" points="28157,8480 28157,8520 28197,8520 28197,8480 "/>
  <polygon class="fil0 str0" points="26157,8480 26157,8520 26197,8520 26197,8480 "/>
  <polygon class="fil0 str0" points="24157,8480 24157,8520 24197,8520 24197,8480 "/>
  <polygon class="fil0 str0" points="22157,8480 22157,8520 22197,8520 22197,8480 "/>
  <polygon class="fil0 str0" points="20157,8480 20157,8520 20197,8520 20197,8480 "/>
  <polygon class="fil0 str0" points="17943,9480 17903,9480 17903,9520 17943,9520 "/>
  <polygon class="fil0 str0" points="3943,9480 3903,9480 3903,9520 3943,9520 "/>
  <polygon class="fil0 str0" points="5943,9480 5903,9480 5903,9520 5943,9520 "/>
  <polygon class="fil0 str0" points="7943,9480 7903,9480 7903,9520 7943,9520 "/>
  <polygon class="fil0 str0" points="9943,9480 9903,9480 9903,9520 9943,9520 "/>
  <polygon class="fil0 str0" points="11943,9480 11903,9480 11903,9520 11943,9520 "/>
  <polygon class="fil0 str0" points="13943,9480 13903,9480 13903,9520 13943,9520 "/>
  <polygon class="fil0 str0" points="27943,9480 27903,9480 27903,9520 27943,9520 "/>
  <polygon class="fil0 str0" points="25943,9480 25903,9480 25903,9520 25943,9520 "/>
  <polygon class="fil0 str0" points="23943,9480 23903,9480 23903,9520 23943,9520 "/>
  <polygon class="fil0 str0" points="21943,9480 21903,9480 21903,9520 21943,9520 "/>
  <polygon class="fil0 str0" points="19943,9480 19903,9480 19903,9520 19943,9520 "/>
  <polygon class="fil0 str0" points="18157,9480 18157,9520 18197,9520 18197,9480 "/>
  <polygon class="fil0 str0" points="4157,9480 4157,9520 4197,9520 4197,9480 "/>
  <polygon class="fil0 str0" points="6157,9480 6157,9520 6197,9520 6197,9480 "/>
  <polygon class="fil0 str0" points="8157,9480 8157,9520 8197,9520 8197,9480 "/>
  <polygon class="fil0 str0" points="10157,9480 10157,9520 10197,9520 10197,9480 "/>
  <polygon class="fil0 str0" points="12157,9480 12157,9520 12197,9520 12197,9480 "/>
  <polygon class="fil0 str0" points="14157,9480 14157,9520 14197,9520 14197,9480 "/>
  <polygon class="fil0 str0" points="28157,9480 28157,9520 28197,9520 28197,9480 "/>
  <polygon class="fil0 str0" points="26157,9480 26157,9520 26197,9520 26197,9480 "/>
  <polygon class="fil0 str0" points="24157,9480 24157,9520 24197,9520 24197,9480 "/>
  <polygon class="fil0 str0" points="22157,9480 22157,9520 22197,9520 22197,9480 "/>
  <polygon class="fil0 str0" points="20157,9480 20157,9520 20197,9520 20197,9480 "/>
  <polygon class="fil0 str0" points="17543,10580 17503,10580 17503,10620 17543,10620 "/>
  <polygon class="fil0 str0" points="3543,10580 3503,10580 3503,10620 3543,10620 "/>
  <polygon class="fil0 str0" points="5543,10580 5503,10580 5503,10620 5543,10620 "/>
  <polygon class="fil0 str0" points="7543,10580 7503,10580 7503,10620 7543,10620 "/>
  <polygon class="fil0 str0" points="9543,10580 9503,10580 9503,10620 9543,10620 "/>
  <polygon class="fil0 str0" points="11543,10580 11503,10580 11503,10620 11543,10620 "/>
  <polygon class="fil0 str0" points="13543,10580 13503,10580 13503,10620 13543,10620 "/>
  <polygon class="fil0 str0" points="27543,10580 27503,10580 27503,10620 27543,10620 "/>
  <polygon class="fil0 str0" points="25543,10580 25503,10580 25503,10620 25543,10620 "/>
  <polygon class="fil0 str0" points="23543,10580 23503,10580 23503,10620 23543,10620 "/>
  <polygon class="fil0 str0" points="21543,10580 21503,10580 21503,10620 21543,10620 "/>
  <polygon class="fil0 str0" points="19543,10580 19503,10580 19503,10620 19543,10620 "/>
  <polygon class="fil0 str0" points="17757,10580 17757,10620 17797,10620 17797,10580 "/>
  <polygon class="fil0 str0" points="3757,10580 3757,10620 3797,10620 3797,10580 "/>
  <polygon class="fil0 str0" points="5757,10580 5757,10620 5797,10620 5797,10580 "/>
  <polygon class="fil0 str0" points="7757,10580 7757,10620 7797,10620 7797,10580 "/>
  <polygon class="fil0 str0" points="9757,10580 9757,10620 9797,10620 9797,10580 "/>
  <polygon class="fil0 str0" points="11757,10580 11757,10620 11797,10620 11797,10580 "/>
  <polygon class="fil0 str0" points="13757,10580 13757,10620 13797,10620 13797,10580 "/>
  <polygon class="fil0 str0" points="27757,10580 27757,10620 27797,10620 27797,10580 "/>
  <polygon class="fil0 str0" points="25757,10580 25757,10620 25797,10620 25797,10580 "/>
  <polygon class="fil0 str0" points="23757,10580 23757,10620 23797,10620 23797,10580 "/>
  <polygon class="fil0 str0" points="21757,10580 21757,10620 21797,10620 21797,10580 "/>
  <polygon class="fil0 str0" points="19757,10580 19757,10620 19797,10620 19797,10580 "/>
  <polygon class="fil0 str0" points="17543,11580 17503,11580 17503,11620 17543,11620 "/>
  <polygon class="fil0 str0" points="3543,11580 3503,11580 3503,11620 3543,11620 "/>
  <polygon class="fil0 str0" points="5543,11580 5503,11580 5503,11620 5543,11620 "/>
  <polygon class="fil0 str0" points="7543,11580 7503,11580 7503,11620 7543,11620 "/>
  <polygon class="fil0 str0" points="9543,11580 9503,11580 9503,11620 9543,11620 "/>
  <polygon class="fil0 str0" points="11543,11580 11503,11580 11503,11620 11543,11620 "/>
  <polygon class="fil0 str0" points="13543,11580 13503,11580 13503,11620 13543,11620 "/>
  <polygon class="fil0 str0" points="27543,11580 27503,11580 27503,11620 27543,11620 "/>
  <polygon class="fil0 str0" points="25543,11580 25503,11580 25503,11620 25543,11620 "/>
  <polygon class="fil0 str0" points="23543,11580 23503,11580 23503,11620 23543,11620 "/>
  <polygon class="fil0 str0" points="21543,11580 21503,11580 21503,11620 21543,11620 "/>
  <polygon class="fil0 str0" points="19543,11580 19503,11580 19503,11620 19543,11620 "/>
  <polygon class="fil0 str0" points="17357,8780 17357,8820 17397,8820 17397,8780 "/>
  <polygon class="fil0 str0" points="3357,8780 3357,8820 3397,8820 3397,8780 "/>
  <polygon class="fil0 str0" points="5357,8780 5357,8820 5397,8820 5397,8780 "/>
  <polygon class="fil0 str0" points="7357,8780 7357,8820 7397,8820 7397,8780 "/>
  <polygon class="fil0 str0" points="9357,8780 9357,8820 9397,8820 9397,8780 "/>
  <polygon class="fil0 str0" points="11357,8780 11357,8820 11397,8820 11397,8780 "/>
  <polygon class="fil0 str0" points="13357,8780 13357,8820 13397,8820 13397,8780 "/>
  <polygon class="fil0 str0" points="27357,8780 27357,8820 27397,8820 27397,8780 "/>
  <polygon class="fil0 str0" points="25357,8780 25357,8820 25397,8820 25397,8780 "/>
  <polygon class="fil0 str0" points="23357,8780 23357,8820 23397,8820 23397,8780 "/>
  <polygon class="fil0 str0" points="21357,8780 21357,8820 21397,8820 21397,8780 "/>
  <polygon class="fil0 str0" points="19357,8780 19357,8820 19397,8820 19397,8780 "/>
  <path class="fil0 str0" d="M1310 7500c0,-88 -72,-160 -160,-160 -88,0 -160,72 -160,160 0,88 72,160 160,160 88,0 160,-72 160,-160z"/>
  <path class="fil0 str0" d="M28710 7500c0,-88 -72,-160 -160,-160 -88,0 -160,72 -160,160 0,88 72,160 160,160 88,0 160,-72 160,-160z"/>
  <polygon class="fil0 str0" points="1323,8500 1237,8350 1063,8350 977,8500 1063,8650 1237,8650 "/>
  <polygon class="fil0 str0" points="150,14000 150,7000 29550,7000 29550,14000 "/>
 </g>
</svg>
