<?xml version="1.0" encoding="UTF-8"?>
<!DOCTYPE svg PUBLIC "-//W3C//DTD SVG 1.1//EN" "http://www.w3.org/Graphics/SVG/1.1/DTD/svg11.dtd">
<!-- Creator: CorelDRAW X7 -->
<svg xmlns="http://www.w3.org/2000/svg" xml:space="preserve" width="297mm" height="210mm" version="1.1" style="shape-rendering:geometricPrecision; text-rendering:geometricPrecision; image-rendering:optimizeQuality; fill-rule:evenodd; clip-rule:evenodd"
viewBox="0 0 29700 21000"
 xmlns:xlink="http://www.w3.org/1999/xlink">
 <defs>
  <style type="text/css">
   <![CDATA[
    .str0 {stroke:red;stroke-width:7.62;stroke-linejoin:bevel}
    .fil0 {fill:none}
   ]]>
  </style>
 </defs>
 <g id="_0">
  <metadata id="CorelCorpID_0Corel-Layer"/>
  <polygon class="fil0 str0" points="12640,7472 12640,8672 13060,8672 13060,7472 "/>
  <polygon class="fil0 str0" points="15410,9204 15410,10404 15830,10404 15830,9204 "/>
  <polygon class="fil0 str0" points="15820,12668 15820,13868 16240,13868 16240,12668 "/>
  <polygon class="fil0 str0" points="13820,12668 13820,13868 14240,13868 14240,12668 "/>
  <polygon class="fil0 str0" points="25820,12668 25820,13868 26240,13868 26240,12668 "/>
  <polygon class="fil0 str0" points="23820,12668 23820,13868 24240,13868 24240,12668 "/>
  <polygon class="fil0 str0" points="21820,12668 21820,13868 22240,13868 22240,12668 "/>
  <polygon class="fil0 str0" points="19820,12668 19820,13868 20240,13868 20240,12668 "/>
  <polygon class="fil0 str0" points="17820,12668 17820,13868 18240,13868 18240,12668 "/>
  <polygon class="fil0 str0" points="3820,12668 3820,13868 4240,13868 4240,12668 "/>
  <polygon class="fil0 str0" points="5820,12668 5820,13868 6240,13868 6240,12668 "/>
  <polygon class="fil0 str0" points="7820,12668 7820,13868 8240,13868 8240,12668 "/>
  <polygon class="fil0 str0" points="9820,12668 9820,13868 10240,13868 10240,12668 "/>
  <polygon class="fil0 str0" points="11820,12668 11820,13868 12240,13868 12240,12668 "/>
  <polygon class="fil0 str0" points="13410,9204 13410,10404 13830,10404 13830,9204 "/>
  <polygon class="fil0 str0" points="25410,9204 25410,10404 25830,10404 25830,9204 "/>
  <polygon class="fil0 str0" points="23410,9204 23410,10404 23830,10404 23830,9204 "/>
  <polygon class="fil0 str0" points="21410,9204 21410,10404 21830,10404 21830,9204 "/>
  <polygon class="fil0 str0" points="19410,9204 19410,10404 19830,10404 19830,9204 "/>
  <polygon class="fil0 str0" points="17410,9204 17410,10404 17830,10404 17830,9204 "/>
  <polygon class="fil0 str0" points="3410,9204 3410,10404 3830,10404 3830,9204 "/>
  <polygon class="fil0 str0" points="5410,9204 5410,10404 5830,10404 5830,9204 "/>
  <polygon class="fil0 str0" points="7410,9204 7410,10404 7830,10404 7830,9204 "/>
  <polygon class="fil0 str0" points="9410,9204 9410,10404 9830,10404 9830,9204 "/>
  <polygon class="fil0 str0" points="11410,9204 11410,10404 11830,10404 11830,9204 "/>
  <polygon class="fil0 str0" points="14230,10936 14230,12136 14650,12136 14650,10936 "/>
  <polygon class="fil0 str0" points="12230,10936 12230,12136 12650,12136 12650,10936 "/>
  <polygon class="fil0 str0" points="26230,10936 26230,12136 26650,12136 26650,10936 "/>
  <polygon class="fil0 str0" points="24230,10936 24230,12136 24650,12136 24650,10936 "/>
  <polygon class="fil0 str0" points="22230,10936 22230,12136 22650,12136 22650,10936 "/>
  <polygon class="fil0 str0" points="20230,10936 20230,12136 20650,12136 20650,10936 "/>
  <polygon class="fil0 str0" points="18230,10936 18230,12136 18650,12136 18650,10936 "/>
  <polygon class="fil0 str0" points="16230,10936 16230,12136 16650,12136 16650,10936 "/>
  <polygon class="fil0 str0" points="2230,10936 2230,12136 2650,12136 2650,10936 "/>
  <polygon class="fil0 str0" points="4230,10936 4230,12136 4650,12136 4650,10936 "/>
  <polygon class="fil0 str0" points="6230,10936 6230,12136 6650,12136 6650,10936 "/>
  <polygon class="fil0 str0" points="8230,10936 8230,12136 8650,12136 8650,10936 "/>
  <polygon class="fil0 str0" points="10230,10936 10230,12136 10650,12136 10650,10936 "/>
  <path class="fil0 str0" d="M29400 7391c0,-83 -67,-150 -150,-150 -83,0 -150,67 -150,150 0,82 67,150 150,150 83,0 150,-68 150,-150z"/>
  <path class="fil0 str0" d="M29400 13814c0,-83 -67,-150 -150,-150 -83,0 -150,67 -150,150 0,83 67,150 150,150 83,0 150,-67 150,-150z"/>
  <path class="fil0 str0" d="M29400 10602c0,-83 -67,-150 -150,-150 -83,0 -150,67 -150,150 0,83 67,150 150,150 83,0 150,-67 150,-150z"/>
  <path class="fil0 str0" d="M600 7391c0,-83 -67,-150 -150,-150 -83,0 -150,67 -150,150 0,82 67,150 150,150 83,0 150,-68 150,-150z"/>
  <path class="fil0 str0" d="M600 13814c0,-83 -67,-150 -150,-150 -83,0 -150,67 -150,150 0,83 67,150 150,150 83,0 150,-67 150,-150z"/>
  <path class="fil0 str0" d="M600 10602c0,-83 -67,-150 -150,-150 -83,0 -150,67 -150,150 0,83 67,150 150,150 83,0 150,-67 150,-150z"/>
  <polygon class="fil0 str0" points="14640,7472 14640,8672 15060,8672 15060,7472 "/>
  <polygon class="fil0 str0" points="6640,7472 6640,8672 7060,8672 7060,7472 "/>
  <polygon class="fil0 str0" points="8640,7472 8640,8672 9060,8672 9060,7472 "/>
  <polygon class="fil0 str0" points="10640,7472 10640,8672 11060,8672 11060,7472 "/>
  <polygon class="fil0 str0" points="18640,7472 18640,8672 19060,8672 19060,7472 "/>
  <polygon class="fil0 str0" points="16640,7472 16640,8672 17060,8672 17060,7472 "/>
  <polygon class="fil0 str0" points="623,8389 535,8240 362,8242 277,8393 365,8542 538,8540 "/>
  <polygon class="fil0 str0" points="29550,14714 150,14714 150,6286 29550,6286 "/>
 </g>
</svg>
