<?xml version="1.0" encoding="UTF-8"?>
<!DOCTYPE svg PUBLIC "-//W3C//DTD SVG 1.1//EN" "http://www.w3.org/Graphics/SVG/1.1/DTD/svg11.dtd">
<!-- Creator: CorelDRAW X7 -->
<svg xmlns="http://www.w3.org/2000/svg" xml:space="preserve" width="297mm" height="210mm" version="1.1" style="shape-rendering:geometricPrecision; text-rendering:geometricPrecision; image-rendering:optimizeQuality; fill-rule:evenodd; clip-rule:evenodd"
viewBox="0 0 29700 21000"
 xmlns:xlink="http://www.w3.org/1999/xlink">
 <defs>
  <style type="text/css">
   <![CDATA[
    .str0 {stroke:red;stroke-width:7.62;stroke-linejoin:bevel}
    .fil0 {fill:none}
   ]]>
  </style>
 </defs>
 <g id="_0">
  <metadata id="CorelCorpID_0Corel-Layer"/>
  <path class="fil0 str0" d="M28710 11500c0,-88 -72,-160 -160,-160 -88,0 -160,72 -160,160 0,88 72,160 160,160 88,0 160,-72 160,-160z"/>
  <path class="fil0 str0" d="M1310 11500c0,-88 -72,-160 -160,-160 -88,0 -160,72 -160,160 0,88 72,160 160,160 88,0 160,-72 160,-160z"/>
  <polygon class="fil0 str0" points="15085,10000 15085,11000 15385,11000 15385,10000 "/>
  <polygon class="fil0 str0" points="150,12000 29550,12000 29550,9000 150,9000 "/>
  <path class="fil0 str0" d="M1310 9500c0,-88 -72,-160 -160,-160 -88,0 -160,72 -160,160 0,88 72,160 160,160 88,0 160,-72 160,-160z"/>
  <path class="fil0 str0" d="M28710 9500c0,-88 -72,-160 -160,-160 -88,0 -160,72 -160,160 0,88 72,160 160,160 88,0 160,-72 160,-160z"/>
  <polygon class="fil0 str0" points="17085,10000 17085,11000 17385,11000 17385,10000 "/>
  <polygon class="fil0 str0" points="3085,10000 3085,11000 3385,11000 3385,10000 "/>
  <polygon class="fil0 str0" points="5085,10000 5085,11000 5385,11000 5385,10000 "/>
  <polygon class="fil0 str0" points="7085,10000 7085,11000 7385,11000 7385,10000 "/>
  <polygon class="fil0 str0" points="9085,10000 9085,11000 9385,11000 9385,10000 "/>
  <polygon class="fil0 str0" points="11085,10000 11085,11000 11385,11000 11385,10000 "/>
  <polygon class="fil0 str0" points="13085,10000 13085,11000 13385,11000 13385,10000 "/>
  <polygon class="fil0 str0" points="27085,10000 27085,11000 27385,11000 27385,10000 "/>
  <polygon class="fil0 str0" points="25085,10000 25085,11000 25385,11000 25385,10000 "/>
  <polygon class="fil0 str0" points="23085,10000 23085,11000 23385,11000 23385,10000 "/>
  <polygon class="fil0 str0" points="21085,10000 21085,11000 21385,11000 21385,10000 "/>
  <polygon class="fil0 str0" points="19085,10000 19085,11000 19385,11000 19385,10000 "/>
  <polygon class="fil0 str0" points="2205,11000 2205,10000 1905,10000 1905,11000 "/>
  <polygon class="fil0 str0" points="1323,10300 1237,10150 1063,10150 977,10300 1063,10450 1237,10450 "/>
 </g>
</svg>
