<?xml version="1.0" encoding="UTF-8"?>
<!DOCTYPE svg PUBLIC "-//W3C//DTD SVG 1.1//EN" "http://www.w3.org/Graphics/SVG/1.1/DTD/svg11.dtd">
<!-- Creator: CorelDRAW X7 -->
<svg xmlns="http://www.w3.org/2000/svg" xml:space="preserve" width="297mm" height="210mm" version="1.1" style="shape-rendering:geometricPrecision; text-rendering:geometricPrecision; image-rendering:optimizeQuality; fill-rule:evenodd; clip-rule:evenodd"
viewBox="0 0 29700 21000"
 xmlns:xlink="http://www.w3.org/1999/xlink">
 <defs>
  <style type="text/css">
   <![CDATA[
    .str0 {stroke:red;stroke-width:7.62;stroke-linejoin:bevel}
    .fil0 {fill:none}
   ]]>
  </style>
 </defs>
 <g id="_0">
  <metadata id="CorelCorpID_0Corel-Layer"/>
  <path class="fil0 str0" d="M10545 10079c0,-55 -44,-100 -100,-100 -55,0 -100,45 -100,100 0,55 45,100 100,100 56,0 100,-45 100,-100z"/>
  <path class="fil0 str0" d="M12195 12422c0,-221 -179,-400 -400,-400 -220,0 -400,179 -400,400 0,221 180,400 400,400 221,0 400,-179 400,-400z"/>
  <path class="fil0 str0" d="M12395 10514l0 -6742 800 0 0 -210c-265,-42 -532,-72 -800,-90l-1200 0c-267,18 -534,48 -800,90l0 210 800 0 0 5957 -729 73c-146,14 -259,131 -270,277 11,145 124,262 270,277l729 73 0 2699 5354 944 0 233c0,77 45,148 116,181l1383 645c52,24 111,25 163,3 50,-22 108,1 131,50 22,50 1,108 -48,132 -49,23 -108,3 -133,-45 -25,-51 -71,-89 -126,-103l-4484 -1202c-100,-27 -204,28 -239,125l-108 295c-35,98 10,206 104,250l2017 940c51,25 111,25 163,3 50,-21 108,1 130,51 23,49 2,108 -47,131 -50,24 -108,4 -133,-45 -26,-51 -72,-88 -127,-103l-2831 -759 -84 -950c-9,-103 -95,-182 -199,-182l-314 0c-104,0 -190,79 -199,182l-172 1969c-5,53 12,106 46,146 34,41 83,66 135,71l1798 157c8,34 15,68 21,101l-3813 200 0 200 5096 0 0 380 -1000 0 0 400 2000 0 0 -780 -96 0 0 -200 -1708 -181 0 -294c0,-104 -79,-190 -183,-199l-1880 -165 93 -1065c5,-56 -15,-112 -54,-154 -37,-39 -36,-102 3,-140 39,-38 101,-38 140,0 39,38 40,101 3,140 -39,42 -58,98 -53,154l33 385c8,83 67,154 148,175l3651 979c100,27 204,-28 239,-125l108 -295c35,-98 -10,-206 -104,-250l-2017 -940c-51,-24 -111,-25 -163,-3 -50,21 -108,-1 -130,-51 -23,-49 -2,-108 47,-131 49,-24 108,-4 133,45 26,51 72,88 127,103l4463 1196c88,23 180,-15 225,-93l159 -275c28,-49 35,-107 18,-160 -17,-54 -56,-98 -107,-121l-1841 -859 0 -64 2813 496 139 -787 -296 -53 0 -1100 -100 0 0 -400 -400 0 0 400 -100 0 0 995 -5340 -942c174,-989 -412,-1954 -1370,-2255z"/>
 </g>
</svg>
