  0
SECTION
  2
HEADER
  9
$ACADVER
  1
AC1009
  9
$EXTMIN
 10
0.0
 20
0.0
 30
0.0
  9
$EXTMAX
 10
1000.0
 20
1000.0
 30
0.0
  9
$FILLMODE
 70
 0
  9
$SPLFRAME
 70
 1
  0
ENDSEC
  0
SECTION
  2
TABLES
  0
TABLE
  2
LAYER
 70
1
  0
LAYER
  2
0
 70
     0
 62
     7
  6
CONTINUOUS
  0
ENDTAB
  0
ENDSEC
  0
SECTION
  2
ENTITIES
  0
LINE
  8
0
 62
     1
 10
4.23746
 20
78.8582
 30
0.0
 11
4.23746
 21
79.036
 31
0.0
  0
LINE
  8
0
 62
     1
 10
4.23746
 20
79.036
 30
0.0
 11
3.9467
 21
79.5651
 31
0.0
  0
LINE
  8
0
 62
     1
 10
3.9467
 20
79.5651
 30
0.0
 11
3.41478
 21
79.8587
 31
0.0
  0
LINE
  8
0
 62
     1
 10
3.41478
 20
79.8587
 30
0.0
 11
3.23839
 21
79.8587
 31
0.0
  0
LINE
  8
0
 62
     1
 10
3.23839
 20
79.8587
 30
0.0
 11
3.06062
 21
79.8587
 31
0.0
  0
LINE
  8
0
 62
     1
 10
3.06062
 20
79.8587
 30
0.0
 11
2.53146
 21
79.5651
 31
0.0
  0
LINE
  8
0
 62
     1
 10
2.53146
 20
79.5651
 30
0.0
 11
2.23793
 21
79.036
 31
0.0
  0
LINE
  8
0
 62
     1
 10
2.23793
 20
79.036
 30
0.0
 11
2.23793
 21
78.8582
 31
0.0
  0
LINE
  8
0
 62
     1
 10
2.23793
 20
78.8582
 30
0.0
 11
2.23793
 21
78.6818
 31
0.0
  0
LINE
  8
0
 62
     1
 10
2.23793
 20
78.6818
 30
0.0
 11
2.53146
 21
78.1526
 31
0.0
  0
LINE
  8
0
 62
     1
 10
2.53146
 20
78.1526
 30
0.0
 11
3.06062
 21
77.8577
 31
0.0
  0
LINE
  8
0
 62
     1
 10
3.06062
 20
77.8577
 30
0.0
 11
3.23839
 21
77.8577
 31
0.0
  0
LINE
  8
0
 62
     1
 10
3.23839
 20
77.8577
 30
0.0
 11
3.41478
 21
77.8577
 31
0.0
  0
LINE
  8
0
 62
     1
 10
3.41478
 20
77.8577
 30
0.0
 11
3.9467
 21
78.1526
 31
0.0
  0
LINE
  8
0
 62
     1
 10
3.9467
 20
78.1526
 30
0.0
 11
4.23746
 21
78.6818
 31
0.0
  0
LINE
  8
0
 62
     1
 10
4.23746
 20
78.6818
 30
0.0
 11
4.23746
 21
78.8582
 31
0.0
  0
LINE
  8
0
 62
     1
 10
20.7381
 20
51.0977
 30
0.0
 11
20.7381
 21
51.4876
 31
0.0
  0
LINE
  8
0
 62
     1
 10
20.7381
 20
51.4876
 30
0.0
 11
20.4225
 21
52.6563
 31
0.0
  0
LINE
  8
0
 62
     1
 10
20.4225
 20
52.6563
 30
0.0
 11
19.5667
 21
53.9267
 31
0.0
  0
LINE
  8
0
 62
     1
 10
19.5667
 20
53.9267
 30
0.0
 11
18.2948
 21
54.7839
 31
0.0
  0
LINE
  8
0
 62
     1
 10
18.2948
 20
54.7839
 30
0.0
 11
17.1263
 21
55.0982
 31
0.0
  0
LINE
  8
0
 62
     1
 10
17.1263
 20
55.0982
 30
0.0
 11
16.7376
 21
55.0982
 31
0.0
  0
LINE
  8
0
 62
     1
 10
16.7376
 20
55.0982
 30
0.0
 11
16.3491
 21
55.0982
 31
0.0
  0
LINE
  8
0
 62
     1
 10
16.3491
 20
55.0982
 30
0.0
 11
15.1846
 21
54.7839
 31
0.0
  0
LINE
  8
0
 62
     1
 10
15.1846
 20
54.7839
 30
0.0
 11
13.9127
 21
53.9267
 31
0.0
  0
LINE
  8
0
 62
     1
 10
13.9127
 20
53.9267
 30
0.0
 11
13.0542
 21
52.6563
 31
0.0
  0
LINE
  8
0
 62
     1
 10
13.0542
 20
52.6563
 30
0.0
 11
12.7386
 21
51.4876
 31
0.0
  0
LINE
  8
0
 62
     1
 10
12.7386
 20
51.4876
 30
0.0
 11
12.7386
 21
51.0977
 31
0.0
  0
LINE
  8
0
 62
     1
 10
12.7386
 20
51.0977
 30
0.0
 11
12.7386
 21
50.709
 31
0.0
  0
LINE
  8
0
 62
     1
 10
12.7386
 20
50.709
 30
0.0
 11
13.0542
 21
49.542
 31
0.0
  0
LINE
  8
0
 62
     1
 10
13.0542
 20
49.542
 30
0.0
 11
13.9127
 21
48.2699
 31
0.0
  0
LINE
  8
0
 62
     1
 10
13.9127
 20
48.2699
 30
0.0
 11
15.1846
 21
47.414
 31
0.0
  0
LINE
  8
0
 62
     1
 10
15.1846
 20
47.414
 30
0.0
 11
16.3491
 21
47.0987
 31
0.0
  0
LINE
  8
0
 62
     1
 10
16.3491
 20
47.0987
 30
0.0
 11
16.7376
 21
47.0987
 31
0.0
  0
LINE
  8
0
 62
     1
 10
16.7376
 20
47.0987
 30
0.0
 11
17.1263
 21
47.0987
 31
0.0
  0
LINE
  8
0
 62
     1
 10
17.1263
 20
47.0987
 30
0.0
 11
18.2948
 21
47.414
 31
0.0
  0
LINE
  8
0
 62
     1
 10
18.2948
 20
47.414
 30
0.0
 11
19.5667
 21
48.2699
 31
0.0
  0
LINE
  8
0
 62
     1
 10
19.5667
 20
48.2699
 30
0.0
 11
20.4225
 21
49.542
 31
0.0
  0
LINE
  8
0
 62
     1
 10
20.4225
 20
49.542
 30
0.0
 11
20.7381
 21
50.709
 31
0.0
  0
LINE
  8
0
 62
     1
 10
20.7381
 20
50.709
 30
0.0
 11
20.7381
 21
51.0977
 31
0.0
  0
LINE
  8
0
 62
     1
 10
22.7376
 20
70.1781
 30
0.0
 11
22.7376
 21
144.598
 31
0.0
  0
LINE
  8
0
 62
     1
 10
22.7376
 20
144.598
 30
0.0
 11
30.7385
 21
144.598
 31
0.0
  0
LINE
  8
0
 62
     1
 10
30.7385
 20
144.598
 30
0.0
 11
30.7385
 21
146.768
 31
0.0
  0
LINE
  8
0
 62
     1
 10
30.7385
 20
146.768
 30
0.0
 11
30.0757
 21
146.866
 31
0.0
  0
LINE
  8
0
 62
     1
 10
30.0757
 20
146.866
 30
0.0
 11
23.4074
 21
147.557
 31
0.0
  0
LINE
  8
0
 62
     1
 10
23.4074
 20
147.557
 30
0.0
 11
22.7376
 21
147.598
 31
0.0
  0
LINE
  8
0
 62
     1
 10
22.7376
 20
147.598
 30
0.0
 11
10.7377
 21
147.598
 31
0.0
  0
LINE
  8
0
 62
     1
 10
10.7377
 20
147.598
 30
0.0
 11
10.0693
 21
147.557
 31
0.0
  0
LINE
  8
0
 62
     1
 10
10.0693
 20
147.557
 30
0.0
 11
3.40238
 21
146.866
 31
0.0
  0
LINE
  8
0
 62
     1
 10
3.40238
 20
146.866
 30
0.0
 11
2.73816
 21
146.768
 31
0.0
  0
LINE
  8
0
 62
     1
 10
2.73816
 20
146.768
 30
0.0
 11
2.73816
 21
144.598
 31
0.0
  0
LINE
  8
0
 62
     1
 10
2.73816
 20
144.598
 30
0.0
 11
10.7377
 21
144.598
 31
0.0
  0
LINE
  8
0
 62
     1
 10
10.7377
 20
144.598
 30
0.0
 11
10.7377
 21
82.3584
 31
0.0
  0
LINE
  8
0
 62
     1
 10
10.7377
 20
82.3584
 30
0.0
 11
3.44785
 21
81.6282
 31
0.0
  0
LINE
  8
0
 62
     1
 10
3.44785
 20
81.6282
 30
0.0
 11
3.1874
 21
81.6031
 31
0.0
  0
LINE
  8
0
 62
     1
 10
3.1874
 20
81.6031
 30
0.0
 11
2.42535
 21
81.3414
 31
0.0
  0
LINE
  8
0
 62
     1
 10
2.42535
 20
81.3414
 30
0.0
 11
1.59163
 21
80.7378
 31
0.0
  0
LINE
  8
0
 62
     1
 10
1.59163
 20
80.7378
 30
0.0
 11
1.0101
 21
79.8876
 31
0.0
  0
LINE
  8
0
 62
     1
 10
1.0101
 20
79.8876
 30
0.0
 11
0.767567
 21
79.1199
 31
0.0
  0
LINE
  8
0
 62
     1
 10
0.767567
 20
79.1199
 30
0.0
 11
0.748273
 21
78.8582
 31
0.0
  0
LINE
  8
0
 62
     1
 10
0.748273
 20
78.8582
 30
0.0
 11
0.767567
 21
78.5992
 31
0.0
  0
LINE
  8
0
 62
     1
 10
0.767567
 20
78.5992
 30
0.0
 11
1.0101
 21
77.8358
 31
0.0
  0
LINE
  8
0
 62
     1
 10
1.0101
 20
77.8358
 30
0.0
 11
1.59163
 21
76.9867
 31
0.0
  0
LINE
  8
0
 62
     1
 10
1.59163
 20
76.9867
 30
0.0
 11
2.42535
 21
76.382
 31
0.0
  0
LINE
  8
0
 62
     1
 10
2.42535
 20
76.382
 30
0.0
 11
3.1874
 21
76.116
 31
0.0
  0
LINE
  8
0
 62
     1
 10
3.1874
 20
76.116
 30
0.0
 11
3.44785
 21
76.0885
 31
0.0
  0
LINE
  8
0
 62
     1
 10
3.44785
 20
76.0885
 30
0.0
 11
10.7377
 21
75.3579
 31
0.0
  0
LINE
  8
0
 62
     1
 10
10.7377
 20
75.3579
 30
0.0
 11
10.7377
 21
44.038
 31
0.0
  0
LINE
  8
0
 62
     1
 10
10.7377
 20
44.038
 30
0.0
 11
68.538
 21
33.8474
 31
0.0
  0
LINE
  8
0
 62
     1
 10
68.538
 20
33.8474
 30
0.0
 11
68.538
 21
32.2682
 31
0.0
  0
LINE
  8
0
 62
     1
 10
68.538
 20
32.2682
 30
0.0
 11
68.538
 21
32.0008
 31
0.0
  0
LINE
  8
0
 62
     1
 10
68.538
 20
32.0008
 30
0.0
 11
68.8552
 21
31.1988
 31
0.0
  0
LINE
  8
0
 62
     1
 10
68.8552
 20
31.1988
 30
0.0
 11
69.5233
 21
30.5401
 31
0.0
  0
LINE
  8
0
 62
     1
 10
69.5233
 20
30.5401
 30
0.0
 11
69.6983
 21
30.4574
 31
0.0
  0
LINE
  8
0
 62
     1
 10
69.6983
 20
30.4574
 30
0.0
 11
83.5283
 21
24.0082
 31
0.0
  0
LINE
  8
0
 62
     1
 10
83.5283
 20
24.0082
 30
0.0
 11
83.6581
 21
23.9489
 31
0.0
  0
LINE
  8
0
 62
     1
 10
83.6581
 20
23.9489
 30
0.0
 11
84.3442
 21
23.8208
 31
0.0
  0
LINE
  8
0
 62
     1
 10
84.3442
 20
23.8208
 30
0.0
 11
85.0346
 21
23.9227
 31
0.0
  0
LINE
  8
0
 62
     1
 10
85.0346
 20
23.9227
 30
0.0
 11
85.1683
 21
23.9779
 31
0.0
  0
LINE
  8
0
 62
     1
 10
85.1683
 20
23.9779
 30
0.0
 11
85.2921
 21
24.033
 31
0.0
  0
LINE
  8
0
 62
     1
 10
85.2921
 20
24.033
 30
0.0
 11
85.9236
 21
23.9944
 31
0.0
  0
LINE
  8
0
 62
     1
 10
85.9236
 20
23.9944
 30
0.0
 11
86.4126
 21
23.6003
 31
0.0
  0
LINE
  8
0
 62
     1
 10
86.4126
 20
23.6003
 30
0.0
 11
86.4676
 21
23.4776
 31
0.0
  0
LINE
  8
0
 62
     1
 10
86.4676
 20
23.4776
 30
0.0
 11
86.5244
 21
23.3536
 31
0.0
  0
LINE
  8
0
 62
     1
 10
86.5244
 20
23.3536
 30
0.0
 11
86.4969
 21
22.7211
 31
0.0
  0
LINE
  8
0
 62
     1
 10
86.4969
 20
22.7211
 30
0.0
 11
86.1095
 21
22.2181
 31
0.0
  0
LINE
  8
0
 62
     1
 10
86.1095
 20
22.2181
 30
0.0
 11
85.9882
 21
22.1575
 31
0.0
  0
LINE
  8
0
 62
     1
 10
85.9882
 20
22.1575
 30
0.0
 11
85.8654
 21
22.101
 31
0.0
  0
LINE
  8
0
 62
     1
 10
85.8654
 20
22.101
 30
0.0
 11
85.2329
 21
22.1175
 31
0.0
  0
LINE
  8
0
 62
     1
 10
85.2329
 20
22.1175
 30
0.0
 11
84.7273
 21
22.4882
 31
0.0
  0
LINE
  8
0
 62
     1
 10
84.7273
 20
22.4882
 30
0.0
 11
84.6681
 21
22.6081
 31
0.0
  0
LINE
  8
0
 62
     1
 10
84.6681
 20
22.6081
 30
0.0
 11
84.6018
 21
22.7362
 31
0.0
  0
LINE
  8
0
 62
     1
 10
84.6018
 20
22.7362
 30
0.0
 11
84.1417
 21
23.2627
 31
0.0
  0
LINE
  8
0
 62
     1
 10
84.1417
 20
23.2627
 30
0.0
 11
83.5353
 21
23.6031
 31
0.0
  0
LINE
  8
0
 62
     1
 10
83.5353
 20
23.6031
 30
0.0
 11
83.3974
 21
23.6375
 31
0.0
  0
LINE
  8
0
 62
     1
 10
83.3974
 20
23.6375
 30
0.0
 11
38.5685
 21
35.6581
 31
0.0
  0
LINE
  8
0
 62
     1
 10
38.5685
 20
35.6581
 30
0.0
 11
38.3893
 21
35.7064
 31
0.0
  0
LINE
  8
0
 62
     1
 10
38.3893
 20
35.7064
 30
0.0
 11
37.816
 21
35.7131
 31
0.0
  0
LINE
  8
0
 62
     1
 10
37.816
 20
35.7131
 30
0.0
 11
37.1203
 21
35.4983
 31
0.0
  0
LINE
  8
0
 62
     1
 10
37.1203
 20
35.4983
 30
0.0
 11
36.5485
 21
35.0518
 31
0.0
  0
LINE
  8
0
 62
     1
 10
36.5485
 20
35.0518
 30
0.0
 11
36.2299
 21
34.5819
 31
0.0
  0
LINE
  8
0
 62
     1
 10
36.2299
 20
34.5819
 30
0.0
 11
36.1678
 21
34.4083
 31
0.0
  0
LINE
  8
0
 62
     1
 10
36.1678
 20
34.4083
 30
0.0
 11
35.0876
 21
31.4579
 31
0.0
  0
LINE
  8
0
 62
     1
 10
35.0876
 20
31.4579
 30
0.0
 11
35.0256
 21
31.2842
 31
0.0
  0
LINE
  8
0
 62
     1
 10
35.0256
 20
31.2842
 30
0.0
 11
34.9691
 21
30.7165
 31
0.0
  0
LINE
  8
0
 62
     1
 10
34.9691
 20
30.7165
 30
0.0
 11
35.1234
 21
30.0054
 31
0.0
  0
LINE
  8
0
 62
     1
 10
35.1234
 20
30.0054
 30
0.0
 11
35.5191
 21
29.3977
 31
0.0
  0
LINE
  8
0
 62
     1
 10
35.5191
 20
29.3977
 30
0.0
 11
35.96
 21
29.0366
 31
0.0
  0
LINE
  8
0
 62
     1
 10
35.96
 20
29.0366
 30
0.0
 11
36.128
 21
28.9581
 31
0.0
  0
LINE
  8
0
 62
     1
 10
36.128
 20
28.9581
 30
0.0
 11
56.2984
 21
19.5585
 31
0.0
  0
LINE
  8
0
 62
     1
 10
56.2984
 20
19.5585
 30
0.0
 11
56.4279
 21
19.4965
 31
0.0
  0
LINE
  8
0
 62
     1
 10
56.4279
 20
19.4965
 30
0.0
 11
57.113
 21
19.3669
 31
0.0
  0
LINE
  8
0
 62
     1
 10
57.113
 20
19.3669
 30
0.0
 11
57.7977
 21
19.4731
 31
0.0
  0
LINE
  8
0
 62
     1
 10
57.7977
 20
19.4731
 30
0.0
 11
57.9286
 21
19.5282
 31
0.0
  0
LINE
  8
0
 62
     1
 10
57.9286
 20
19.5282
 30
0.0
 11
58.0528
 21
19.5805
 31
0.0
  0
LINE
  8
0
 62
     1
 10
58.0528
 20
19.5805
 30
0.0
 11
58.6839
 21
19.5406
 31
0.0
  0
LINE
  8
0
 62
     1
 10
58.6839
 20
19.5406
 30
0.0
 11
59.1799
 21
19.1437
 31
0.0
  0
LINE
  8
0
 62
     1
 10
59.1799
 20
19.1437
 30
0.0
 11
59.2377
 21
19.0183
 31
0.0
  0
LINE
  8
0
 62
     1
 10
59.2377
 20
19.0183
 30
0.0
 11
59.2928
 21
18.8957
 31
0.0
  0
LINE
  8
0
 62
     1
 10
59.2928
 20
18.8957
 30
0.0
 11
59.2638
 21
18.2659
 31
0.0
  0
LINE
  8
0
 62
     1
 10
59.2638
 20
18.2659
 30
0.0
 11
58.8807
 21
17.7657
 31
0.0
  0
LINE
  8
0
 62
     1
 10
58.8807
 20
17.7657
 30
0.0
 11
58.7583
 21
17.7078
 31
0.0
  0
LINE
  8
0
 62
     1
 10
58.7583
 20
17.7078
 30
0.0
 11
58.6355
 21
17.6485
 31
0.0
  0
LINE
  8
0
 62
     1
 10
58.6355
 20
17.6485
 30
0.0
 11
58.0016
 21
17.6596
 31
0.0
  0
LINE
  8
0
 62
     1
 10
58.0016
 20
17.6596
 30
0.0
 11
57.4904
 21
18.0358
 31
0.0
  0
LINE
  8
0
 62
     1
 10
57.4904
 20
18.0358
 30
0.0
 11
57.4283
 21
18.1584
 31
0.0
  0
LINE
  8
0
 62
     1
 10
57.4283
 20
18.1584
 30
0.0
 11
57.3648
 21
18.2866
 31
0.0
  0
LINE
  8
0
 62
     1
 10
57.3648
 20
18.2866
 30
0.0
 11
56.9101
 21
18.8088
 31
0.0
  0
LINE
  8
0
 62
     1
 10
56.9101
 20
18.8088
 30
0.0
 11
56.3051
 21
19.1506
 31
0.0
  0
LINE
  8
0
 62
     1
 10
56.3051
 20
19.1506
 30
0.0
 11
56.1675
 21
19.1878
 31
0.0
  0
LINE
  8
0
 62
     1
 10
56.1675
 20
19.1878
 30
0.0
 11
27.8488
 21
26.7781
 31
0.0
  0
LINE
  8
0
 62
     1
 10
27.8488
 20
26.7781
 30
0.0
 11
27.0178
 21
36.2783
 31
0.0
  0
LINE
  8
0
 62
     1
 10
27.0178
 20
36.2783
 30
0.0
 11
27.0013
 21
36.4613
 31
0.0
  0
LINE
  8
0
 62
     1
 10
27.0013
 20
36.4613
 30
0.0
 11
26.8139
 21
36.9976
 31
0.0
  0
LINE
  8
0
 62
     1
 10
26.8139
 20
36.9976
 30
0.0
 11
26.3756
 21
37.5751
 31
0.0
  0
LINE
  8
0
 62
     1
 10
26.3756
 20
37.5751
 30
0.0
 11
25.761
 21
37.9596
 31
0.0
  0
LINE
  8
0
 62
     1
 10
25.761
 20
37.9596
 30
0.0
 11
25.2112
 21
38.0986
 31
0.0
  0
LINE
  8
0
 62
     1
 10
25.2112
 20
38.0986
 30
0.0
 11
25.0279
 21
38.0986
 31
0.0
  0
LINE
  8
0
 62
     1
 10
25.0279
 20
38.0986
 30
0.0
 11
21.8888
 21
38.0986
 31
0.0
  0
LINE
  8
0
 62
     1
 10
21.8888
 20
38.0986
 30
0.0
 11
21.7027
 21
38.0986
 31
0.0
  0
LINE
  8
0
 62
     1
 10
21.7027
 20
38.0986
 30
0.0
 11
21.1487
 21
37.9596
 31
0.0
  0
LINE
  8
0
 62
     1
 10
21.1487
 20
37.9596
 30
0.0
 11
20.5314
 21
37.5751
 31
0.0
  0
LINE
  8
0
 62
     1
 10
20.5314
 20
37.5751
 30
0.0
 11
20.0918
 21
36.9976
 31
0.0
  0
LINE
  8
0
 62
     1
 10
20.0918
 20
36.9976
 30
0.0
 11
19.903
 21
36.4613
 31
0.0
  0
LINE
  8
0
 62
     1
 10
19.903
 20
36.4613
 30
0.0
 11
19.8878
 21
36.2783
 31
0.0
  0
LINE
  8
0
 62
     1
 10
19.8878
 20
36.2783
 30
0.0
 11
18.1681
 21
16.5874
 31
0.0
  0
LINE
  8
0
 62
     1
 10
18.1681
 20
16.5874
 30
0.0
 11
18.1556
 21
16.4551
 31
0.0
  0
LINE
  8
0
 62
     1
 10
18.1556
 20
16.4551
 30
0.0
 11
18.2507
 21
15.8102
 31
0.0
  0
LINE
  8
0
 62
     1
 10
18.2507
 20
15.8102
 30
0.0
 11
18.5429
 21
15.2287
 31
0.0
  0
LINE
  8
0
 62
     1
 10
18.5429
 20
15.2287
 30
0.0
 11
18.6283
 21
15.1281
 31
0.0
  0
LINE
  8
0
 62
     1
 10
18.6283
 20
15.1281
 30
0.0
 11
18.7124
 21
15.0261
 31
0.0
  0
LINE
  8
0
 62
     1
 10
18.7124
 20
15.0261
 30
0.0
 11
19.236
 21
14.6389
 31
0.0
  0
LINE
  8
0
 62
     1
 10
19.236
 20
14.6389
 30
0.0
 11
19.8548
 21
14.4308
 31
0.0
  0
LINE
  8
0
 62
     1
 10
19.8548
 20
14.4308
 30
0.0
 11
19.9885
 21
14.4184
 31
0.0
  0
LINE
  8
0
 62
     1
 10
19.9885
 20
14.4184
 30
0.0
 11
37.9582
 21
12.8475
 31
0.0
  0
LINE
  8
0
 62
     1
 10
37.9582
 20
12.8475
 30
0.0
 11
37.9772
 21
12.7634
 31
0.0
  0
LINE
  8
0
 62
     1
 10
37.9772
 20
12.7634
 30
0.0
 11
38.1522
 21
11.92
 31
0.0
  0
LINE
  8
0
 62
     1
 10
38.1522
 20
11.92
 30
0.0
 11
38.1674
 21
11.8374
 31
0.0
  0
LINE
  8
0
 62
     1
 10
38.1674
 20
11.8374
 30
0.0
 11
0.0385851
 21
9.83781
 31
0.0
  0
LINE
  8
0
 62
     1
 10
0.0385851
 20
9.83781
 30
0.0
 11
0.0385851
 21
7.8383
 31
0.0
  0
LINE
  8
0
 62
     1
 10
0.0385851
 20
7.8383
 30
0.0
 11
46.7374
 21
7.8383
 31
0.0
  0
LINE
  8
0
 62
     1
 10
46.7374
 20
7.8383
 30
0.0
 11
46.7374
 21
4.03765
 31
0.0
  0
LINE
  8
0
 62
     1
 10
46.7374
 20
4.03765
 30
0.0
 11
36.7386
 21
4.03765
 31
0.0
  0
LINE
  8
0
 62
     1
 10
36.7386
 20
4.03765
 30
0.0
 11
36.7386
 21
0.0385851
 31
0.0
  0
LINE
  8
0
 62
     1
 10
36.7386
 20
0.0385851
 30
0.0
 11
56.738
 21
0.0385851
 31
0.0
  0
LINE
  8
0
 62
     1
 10
56.738
 20
0.0385851
 30
0.0
 11
56.738
 21
7.8383
 31
0.0
  0
LINE
  8
0
 62
     1
 10
56.738
 20
7.8383
 30
0.0
 11
60.0385
 21
7.8383
 31
0.0
  0
LINE
  8
0
 62
     1
 10
60.0385
 20
7.8383
 30
0.0
 11
60.0385
 21
9.83781
 31
0.0
  0
LINE
  8
0
 62
     1
 10
60.0385
 20
9.83781
 30
0.0
 11
42.9577
 21
11.6485
 31
0.0
  0
LINE
  8
0
 62
     1
 10
42.9577
 20
11.6485
 30
0.0
 11
42.9577
 21
14.5879
 31
0.0
  0
LINE
  8
0
 62
     1
 10
42.9577
 20
14.5879
 30
0.0
 11
42.9577
 21
14.7726
 31
0.0
  0
LINE
  8
0
 62
     1
 10
42.9577
 20
14.7726
 30
0.0
 11
42.817
 21
15.3252
 31
0.0
  0
LINE
  8
0
 62
     1
 10
42.817
 20
15.3252
 30
0.0
 11
42.4339
 21
15.9398
 31
0.0
  0
LINE
  8
0
 62
     1
 10
42.4339
 20
15.9398
 30
0.0
 11
41.8564
 21
16.3766
 31
0.0
  0
LINE
  8
0
 62
     1
 10
41.8564
 20
16.3766
 30
0.0
 11
41.3205
 21
16.5626
 31
0.0
  0
LINE
  8
0
 62
     1
 10
41.3205
 20
16.5626
 30
0.0
 11
41.1385
 21
16.5778
 31
0.0
  0
LINE
  8
0
 62
     1
 10
41.1385
 20
16.5778
 30
0.0
 11
22.3284
 21
18.2287
 31
0.0
  0
LINE
  8
0
 62
     1
 10
22.3284
 20
18.2287
 30
0.0
 11
23.2585
 21
28.8782
 31
0.0
  0
LINE
  8
0
 62
     1
 10
23.2585
 20
28.8782
 30
0.0
 11
23.2709
 21
29.0187
 31
0.0
  0
LINE
  8
0
 62
     1
 10
23.2709
 20
29.0187
 30
0.0
 11
23.1579
 21
29.7009
 31
0.0
  0
LINE
  8
0
 62
     1
 10
23.1579
 20
29.7009
 30
0.0
 11
22.8244
 21
30.3127
 31
0.0
  0
LINE
  8
0
 62
     1
 10
22.8244
 20
30.3127
 30
0.0
 11
22.728
 21
30.4175
 31
0.0
  0
LINE
  8
0
 62
     1
 10
22.728
 20
30.4175
 30
0.0
 11
22.6329
 21
30.5153
 31
0.0
  0
LINE
  8
0
 62
     1
 10
22.6329
 20
30.5153
 30
0.0
 11
22.4537
 21
31.1216
 31
0.0
  0
LINE
  8
0
 62
     1
 10
22.4537
 20
31.1216
 30
0.0
 11
22.6605
 21
31.7238
 31
0.0
  0
LINE
  8
0
 62
     1
 10
22.6605
 20
31.7238
 30
0.0
 11
22.7583
 21
31.8175
 31
0.0
  0
LINE
  8
0
 62
     1
 10
22.7583
 20
31.8175
 30
0.0
 11
22.8534
 21
31.9126
 31
0.0
  0
LINE
  8
0
 62
     1
 10
22.8534
 20
31.9126
 30
0.0
 11
23.4542
 21
32.1028
 31
0.0
  0
LINE
  8
0
 62
     1
 10
23.4542
 20
32.1028
 30
0.0
 11
24.0605
 21
31.9126
 31
0.0
  0
LINE
  8
0
 62
     1
 10
24.0605
 20
31.9126
 30
0.0
 11
24.1584
 21
31.8175
 31
0.0
  0
LINE
  8
0
 62
     1
 10
24.1584
 20
31.8175
 30
0.0
 11
24.2535
 21
31.7238
 31
0.0
  0
LINE
  8
0
 62
     1
 10
24.2535
 20
31.7238
 30
0.0
 11
24.4533
 21
31.1216
 31
0.0
  0
LINE
  8
0
 62
     1
 10
24.4533
 20
31.1216
 30
0.0
 11
24.2728
 21
30.5153
 31
0.0
  0
LINE
  8
0
 62
     1
 10
24.2728
 20
30.5153
 30
0.0
 11
24.1777
 21
30.4175
 31
0.0
  0
LINE
  8
0
 62
     1
 10
24.1777
 20
30.4175
 30
0.0
 11
24.0826
 21
30.3127
 31
0.0
  0
LINE
  8
0
 62
     1
 10
24.0826
 20
30.3127
 30
0.0
 11
23.7519
 21
29.7009
 31
0.0
  0
LINE
  8
0
 62
     1
 10
23.7519
 20
29.7009
 30
0.0
 11
23.6347
 21
29.0187
 31
0.0
  0
LINE
  8
0
 62
     1
 10
23.6347
 20
29.0187
 30
0.0
 11
23.6485
 21
28.8782
 31
0.0
  0
LINE
  8
0
 62
     1
 10
23.6485
 20
28.8782
 30
0.0
 11
23.9875
 21
25.0279
 31
0.0
  0
LINE
  8
0
 62
     1
 10
23.9875
 20
25.0279
 30
0.0
 11
23.9999
 21
24.8791
 31
0.0
  0
LINE
  8
0
 62
     1
 10
23.9999
 20
24.8791
 30
0.0
 11
24.1322
 21
24.4354
 31
0.0
  0
LINE
  8
0
 62
     1
 10
24.1322
 20
24.4354
 30
0.0
 11
24.445
 21
23.9214
 31
0.0
  0
LINE
  8
0
 62
     1
 10
24.445
 20
23.9214
 30
0.0
 11
24.8956
 21
23.5245
 31
0.0
  0
LINE
  8
0
 62
     1
 10
24.8956
 20
23.5245
 30
0.0
 11
25.3104
 21
23.3164
 31
0.0
  0
LINE
  8
0
 62
     1
 10
25.3104
 20
23.3164
 30
0.0
 11
25.4579
 21
23.2778
 31
0.0
  0
LINE
  8
0
 62
     1
 10
25.4579
 20
23.2778
 30
0.0
 11
61.9675
 21
13.4882
 31
0.0
  0
LINE
  8
0
 62
     1
 10
61.9675
 20
13.4882
 30
0.0
 11
62.1439
 21
13.4414
 31
0.0
  0
LINE
  8
0
 62
     1
 10
62.1439
 20
13.4414
 30
0.0
 11
62.7133
 21
13.4345
 31
0.0
  0
LINE
  8
0
 62
     1
 10
62.7133
 20
13.4345
 30
0.0
 11
63.4076
 21
13.6481
 31
0.0
  0
LINE
  8
0
 62
     1
 10
63.4076
 20
13.6481
 30
0.0
 11
63.9808
 21
14.0959
 31
0.0
  0
LINE
  8
0
 62
     1
 10
63.9808
 20
14.0959
 30
0.0
 11
64.3033
 21
14.5659
 31
0.0
  0
LINE
  8
0
 62
     1
 10
64.3033
 20
14.5659
 30
0.0
 11
64.3682
 21
14.7381
 31
0.0
  0
LINE
  8
0
 62
     1
 10
64.3682
 20
14.7381
 30
0.0
 11
65.4375
 21
17.6885
 31
0.0
  0
LINE
  8
0
 62
     1
 10
65.4375
 20
17.6885
 30
0.0
 11
65.501
 21
17.8621
 31
0.0
  0
LINE
  8
0
 62
     1
 10
65.501
 20
17.8621
 30
0.0
 11
65.5602
 21
18.4313
 31
0.0
  0
LINE
  8
0
 62
     1
 10
65.5602
 20
18.4313
 30
0.0
 11
65.4099
 21
19.1409
 31
0.0
  0
LINE
  8
0
 62
     1
 10
65.4099
 20
19.1409
 30
0.0
 11
65.0159
 21
19.7501
 31
0.0
  0
LINE
  8
0
 62
     1
 10
65.0159
 20
19.7501
 30
0.0
 11
64.5735
 21
20.1111
 31
0.0
  0
LINE
  8
0
 62
     1
 10
64.5735
 20
20.1111
 30
0.0
 11
64.4081
 21
20.1883
 31
0.0
  0
LINE
  8
0
 62
     1
 10
64.4081
 20
20.1883
 30
0.0
 11
44.2376
 21
29.5879
 31
0.0
  0
LINE
  8
0
 62
     1
 10
44.2376
 20
29.5879
 30
0.0
 11
44.1067
 21
29.6485
 31
0.0
  0
LINE
  8
0
 62
     1
 10
44.1067
 20
29.6485
 30
0.0
 11
43.422
 21
29.7767
 31
0.0
  0
LINE
  8
0
 62
     1
 10
43.422
 20
29.7767
 30
0.0
 11
42.7302
 21
29.6733
 31
0.0
  0
LINE
  8
0
 62
     1
 10
42.7302
 20
29.6733
 30
0.0
 11
42.5979
 21
29.6182
 31
0.0
  0
LINE
  8
0
 62
     1
 10
42.5979
 20
29.6182
 30
0.0
 11
42.4727
 21
29.5658
 31
0.0
  0
LINE
  8
0
 62
     1
 10
42.4727
 20
29.5658
 30
0.0
 11
41.8426
 21
29.6072
 31
0.0
  0
LINE
  8
0
 62
     1
 10
41.8426
 20
29.6072
 30
0.0
 11
41.3523
 21
30.004
 31
0.0
  0
LINE
  8
0
 62
     1
 10
41.3523
 20
30.004
 30
0.0
 11
41.2983
 21
30.128
 31
0.0
  0
LINE
  8
0
 62
     1
 10
41.2983
 20
30.128
 30
0.0
 11
41.2404
 21
30.2507
 31
0.0
  0
LINE
  8
0
 62
     1
 10
41.2404
 20
30.2507
 30
0.0
 11
41.2679
 21
30.8818
 31
0.0
  0
LINE
  8
0
 62
     1
 10
41.2679
 20
30.8818
 30
0.0
 11
41.6553
 21
31.3821
 31
0.0
  0
LINE
  8
0
 62
     1
 10
41.6553
 20
31.3821
 30
0.0
 11
41.7781
 21
31.4386
 31
0.0
  0
LINE
  8
0
 62
     1
 10
41.7781
 20
31.4386
 30
0.0
 11
41.9005
 21
31.4992
 31
0.0
  0
LINE
  8
0
 62
     1
 10
41.9005
 20
31.4992
 30
0.0
 11
42.5319
 21
31.4882
 31
0.0
  0
LINE
  8
0
 62
     1
 10
42.5319
 20
31.4882
 30
0.0
 11
43.0375
 21
31.1106
 31
0.0
  0
LINE
  8
0
 62
     1
 10
43.0375
 20
31.1106
 30
0.0
 11
43.0982
 21
30.9879
 31
0.0
  0
LINE
  8
0
 62
     1
 10
43.0982
 20
30.9879
 30
0.0
 11
43.1631
 21
30.8612
 31
0.0
  0
LINE
  8
0
 62
     1
 10
43.1631
 20
30.8612
 30
0.0
 11
43.6231
 21
30.3389
 31
0.0
  0
LINE
  8
0
 62
     1
 10
43.6231
 20
30.3389
 30
0.0
 11
44.2309
 21
29.9957
 31
0.0
  0
LINE
  8
0
 62
     1
 10
44.2309
 20
29.9957
 30
0.0
 11
44.3689
 21
29.9586
 31
0.0
  0
LINE
  8
0
 62
     1
 10
44.3689
 20
29.9586
 30
0.0
 11
89.0076
 21
17.9985
 31
0.0
  0
LINE
  8
0
 62
     1
 10
89.0076
 20
17.9985
 30
0.0
 11
89.1632
 21
17.9586
 31
0.0
  0
LINE
  8
0
 62
     1
 10
89.1632
 20
17.9586
 30
0.0
 11
89.6606
 21
17.9379
 31
0.0
  0
LINE
  8
0
 62
     1
 10
89.6606
 20
17.9379
 30
0.0
 11
90.2864
 21
18.0854
 31
0.0
  0
LINE
  8
0
 62
     1
 10
90.2864
 20
18.0854
 30
0.0
 11
90.8332
 21
18.4216
 31
0.0
  0
LINE
  8
0
 62
     1
 10
90.8332
 20
18.4216
 30
0.0
 11
91.1751
 21
18.7882
 31
0.0
  0
LINE
  8
0
 62
     1
 10
91.1751
 20
18.7882
 30
0.0
 11
91.258
 21
18.9273
 31
0.0
  0
LINE
  8
0
 62
     1
 10
91.258
 20
18.9273
 30
0.0
 11
92.8479
 21
21.6779
 31
0.0
  0
LINE
  8
0
 62
     1
 10
92.8479
 20
21.6779
 30
0.0
 11
92.9171
 21
21.8006
 31
0.0
  0
LINE
  8
0
 62
     1
 10
92.9171
 20
21.8006
 30
0.0
 11
93.1016
 21
22.4634
 31
0.0
  0
LINE
  8
0
 62
     1
 10
93.1016
 20
22.4634
 30
0.0
 11
93.0603
 21
23.1455
 31
0.0
  0
LINE
  8
0
 62
     1
 10
93.0603
 20
23.1455
 30
0.0
 11
93.0176
 21
23.2778
 31
0.0
  0
LINE
  8
0
 62
     1
 10
93.0176
 20
23.2778
 30
0.0
 11
92.9749
 21
23.4129
 31
0.0
  0
LINE
  8
0
 62
     1
 10
92.9749
 20
23.4129
 30
0.0
 11
92.6151
 21
23.9999
 31
0.0
  0
LINE
  8
0
 62
     1
 10
92.6151
 20
23.9999
 30
0.0
 11
92.0845
 21
24.4312
 31
0.0
  0
LINE
  8
0
 62
     1
 10
92.0845
 20
24.4312
 30
0.0
 11
91.9579
 21
24.4878
 31
0.0
  0
LINE
  8
0
 62
     1
 10
91.9579
 20
24.4878
 30
0.0
 11
73.9482
 21
32.8883
 31
0.0
  0
LINE
  8
0
 62
     1
 10
73.9482
 20
32.8883
 30
0.0
 11
114.468
 21
25.7486
 31
0.0
  0
LINE
  8
0
 62
     1
 10
114.468
 20
25.7486
 30
0.0
 11
115.859
 21
33.6283
 31
0.0
  0
LINE
  8
0
 62
     1
 10
115.859
 20
33.6283
 30
0.0
 11
112.898
 21
34.1478
 31
0.0
  0
LINE
  8
0
 62
     1
 10
112.898
 20
34.1478
 30
0.0
 11
112.898
 21
45.1485
 31
0.0
  0
LINE
  8
0
 62
     1
 10
112.898
 20
45.1485
 30
0.0
 11
111.898
 21
45.1485
 31
0.0
  0
LINE
  8
0
 62
     1
 10
111.898
 20
45.1485
 30
0.0
 11
111.898
 21
49.1476
 31
0.0
  0
LINE
  8
0
 62
     1
 10
111.898
 20
49.1476
 30
0.0
 11
107.898
 21
49.1476
 31
0.0
  0
LINE
  8
0
 62
     1
 10
107.898
 20
49.1476
 30
0.0
 11
107.898
 21
45.1485
 31
0.0
  0
LINE
  8
0
 62
     1
 10
107.898
 20
45.1485
 30
0.0
 11
106.899
 21
45.1485
 31
0.0
  0
LINE
  8
0
 62
     1
 10
106.899
 20
45.1485
 30
0.0
 11
106.899
 21
35.2075
 31
0.0
  0
LINE
  8
0
 62
     1
 10
106.899
 20
35.2075
 30
0.0
 11
36.4381
 21
47.6278
 31
0.0
  0
LINE
  8
0
 62
     1
 10
36.4381
 20
47.6278
 30
0.0
 11
36.5965
 21
48.5345
 31
0.0
  0
LINE
  8
0
 62
     1
 10
36.5965
 20
48.5345
 30
0.0
 11
36.7411
 21
51.314
 31
0.0
  0
LINE
  8
0
 62
     1
 10
36.7411
 20
51.314
 30
0.0
 11
36.3788
 21
54.901
 31
0.0
  0
LINE
  8
0
 62
     1
 10
36.3788
 20
54.901
 30
0.0
 11
35.3935
 21
58.3159
 31
0.0
  0
LINE
  8
0
 62
     1
 10
35.3935
 20
58.3159
 30
0.0
 11
33.8322
 21
61.4839
 31
0.0
  0
LINE
  8
0
 62
     1
 10
33.8322
 20
61.4839
 30
0.0
 11
31.7404
 21
64.3283
 31
0.0
  0
LINE
  8
0
 62
     1
 10
31.7404
 20
64.3283
 30
0.0
 11
29.1634
 21
66.777
 31
0.0
  0
LINE
  8
0
 62
     1
 10
29.1634
 20
66.777
 30
0.0
 11
26.1469
 21
68.7518
 31
0.0
  0
LINE
  8
0
 62
     1
 10
26.1469
 20
68.7518
 30
0.0
 11
23.6141
 21
69.9022
 31
0.0
  0
LINE
  8
0
 62
     1
 10
23.6141
 20
69.9022
 30
0.0
 11
22.7376
 21
70.1781
 31
0.0
  0
ENDSEC
  0
EOF
