<?xml version="1.0" encoding="UTF-8"?>
<!DOCTYPE svg PUBLIC "-//W3C//DTD SVG 1.1//EN" "http://www.w3.org/Graphics/SVG/1.1/DTD/svg11.dtd">
<!-- Creator: CorelDRAW X7 -->
<svg xmlns="http://www.w3.org/2000/svg" xml:space="preserve" width="297mm" height="210mm" version="1.1" style="shape-rendering:geometricPrecision; text-rendering:geometricPrecision; image-rendering:optimizeQuality; fill-rule:evenodd; clip-rule:evenodd"
viewBox="0 0 29700 21000"
 xmlns:xlink="http://www.w3.org/1999/xlink">
 <defs>
  <style type="text/css">
   <![CDATA[
    .str0 {stroke:red;stroke-width:7.62;stroke-linejoin:bevel}
    .fil0 {fill:none}
   ]]>
  </style>
 </defs>
 <g id="_0">
  <metadata id="CorelCorpID_0Corel-Layer"/>
  <path class="fil0 str0" d="M29210 12000c0,-88 -72,-160 -160,-160 -88,0 -160,72 -160,160 0,88 72,160 160,160 88,0 160,-72 160,-160z"/>
  <path class="fil0 str0" d="M810 12000c0,-88 -72,-160 -160,-160 -88,0 -160,72 -160,160 0,88 72,160 160,160 88,0 160,-72 160,-160z"/>
  <polygon class="fil0 str0" points="15085,9300 15085,10500 15385,10500 15385,9300 "/>
  <path class="fil0 str0" d="M810 9000c0,-88 -72,-160 -160,-160 -88,0 -160,72 -160,160 0,88 72,160 160,160 88,0 160,-72 160,-160z"/>
  <path class="fil0 str0" d="M29210 9000c0,-88 -72,-160 -160,-160 -88,0 -160,72 -160,160 0,88 72,160 160,160 88,0 160,-72 160,-160z"/>
  <polygon class="fil0 str0" points="17085,9300 17085,10500 17385,10500 17385,9300 "/>
  <polygon class="fil0 str0" points="3085,9300 3085,10500 3385,10500 3385,9300 "/>
  <polygon class="fil0 str0" points="5085,9300 5085,10500 5385,10500 5385,9300 "/>
  <polygon class="fil0 str0" points="7085,9300 7085,10500 7385,10500 7385,9300 "/>
  <polygon class="fil0 str0" points="9085,9300 9085,10500 9385,10500 9385,9300 "/>
  <polygon class="fil0 str0" points="11085,9300 11085,10500 11385,10500 11385,9300 "/>
  <polygon class="fil0 str0" points="13085,9300 13085,10500 13385,10500 13385,9300 "/>
  <polygon class="fil0 str0" points="27085,9300 27085,10500 27385,10500 27385,9300 "/>
  <polygon class="fil0 str0" points="25085,9300 25085,10500 25385,10500 25385,9300 "/>
  <polygon class="fil0 str0" points="23085,9300 23085,10500 23385,10500 23385,9300 "/>
  <polygon class="fil0 str0" points="21085,9300 21085,10500 21385,10500 21385,9300 "/>
  <polygon class="fil0 str0" points="19085,9300 19085,10500 19385,10500 19385,9300 "/>
  <polygon class="fil0 str0" points="2205,10500 2205,9300 1905,9300 1905,10500 "/>
  <polygon class="fil0 str0" points="823,10000 737,9850 563,9850 477,10000 563,10150 737,10150 "/>
  <polygon class="fil0 str0" points="150,12500 29550,12500 29550,8500 150,8500 "/>
 </g>
</svg>
