<?xml version="1.0" encoding="UTF-8"?>
<!DOCTYPE svg PUBLIC "-//W3C//DTD SVG 1.1//EN" "http://www.w3.org/Graphics/SVG/1.1/DTD/svg11.dtd">
<!-- Creator: CorelDRAW X7 -->
<svg xmlns="http://www.w3.org/2000/svg" xml:space="preserve" width="297mm" height="210mm" version="1.1" style="shape-rendering:geometricPrecision; text-rendering:geometricPrecision; image-rendering:optimizeQuality; fill-rule:evenodd; clip-rule:evenodd"
viewBox="0 0 29700 21000"
 xmlns:xlink="http://www.w3.org/1999/xlink">
 <defs>
  <style type="text/css">
   <![CDATA[
    .str0 {stroke:red;stroke-width:7.62;stroke-linejoin:bevel}
    .fil0 {fill:none}
   ]]>
  </style>
 </defs>
 <g id="_0">
  <metadata id="CorelCorpID_0Corel-Layer"/>
  <path class="fil0 str0" d="M8591 10063c0,-55 -45,-100 -100,-100 -55,0 -100,45 -100,100 0,55 45,100 100,100 55,0 100,-45 100,-100z"/>
  <path class="fil0 str0" d="M10241 13472c0,-221 -179,-400 -400,-400 -221,0 -400,179 -400,400 0,221 179,400 400,400 221,0 400,-179 400,-400z"/>
  <path class="fil0 str0" d="M10441 11564l0 -8842 800 0 0 -228c-265,-34 -532,-58 -800,-72l-1200 0c-267,14 -534,38 -800,72l0 228 800 0 0 6991 -730 73c-145,14 -259,131 -269,277 10,145 124,262 269,277l730 73 0 3765 6207 1095 0 82c0,77 45,148 115,181l1384 645c51,24 111,25 163,3 50,-22 108,1 130,50 23,50 2,108 -48,132 -49,23 -107,3 -132,-45 -26,-51 -72,-89 -127,-103l-4483 -1202c-100,-27 -204,28 -240,125l-107 295c-36,98 9,206 103,250l2017 940c52,25 111,25 164,3 50,-21 108,1 130,51 22,49 1,108 -48,131 -49,24 -108,4 -132,-45 -26,-51 -72,-88 -127,-103l-2832 -759 -83 -950c-9,-103 -96,-182 -199,-182l-314 0c-104,0 -190,79 -199,182l-173 1969c-4,53 12,106 46,146 34,41 83,66 136,71l1797 157c8,34 15,68 21,101l-3812 200 0 200 4243 0 0 380 -1000 0 0 400 2000 0 0 -780 757 0 0 -200 -1709 -181 0 -294c0,-104 -79,-190 -182,-199l-1881 -165 93 -1065c5,-56 -14,-112 -53,-154 -37,-39 -36,-102 3,-140 39,-38 101,-38 140,0 39,38 40,101 3,140 -39,42 -59,98 -54,154l34 385c7,83 66,154 147,175l3651 979c100,27 205,-28 240,-125l107 -295c36,-98 -9,-206 -103,-250l-2017 -940c-52,-24 -111,-25 -163,-3 -50,21 -108,-1 -131,-51 -22,-49 -1,-108 48,-131 49,-24 108,-4 132,45 26,51 72,88 127,103l4464 1196c87,23 180,-15 225,-93l159 -275c28,-49 34,-107 17,-160 -17,-54 -55,-98 -106,-121l-1541 -719 5071 894 139 -788 -295 -52 0 -1100 -100 0 0 -400 -400 0 0 400 -100 0 0 994 -8752 -1543c174,-989 -412,-1954 -1370,-2255z"/>
 </g>
</svg>
