<?xml version="1.0" encoding="UTF-8"?>
<!DOCTYPE svg PUBLIC "-//W3C//DTD SVG 1.1//EN" "http://www.w3.org/Graphics/SVG/1.1/DTD/svg11.dtd">
<!-- Creator: CorelDRAW X7 -->
<svg xmlns="http://www.w3.org/2000/svg" xml:space="preserve" width="297mm" height="210mm" version="1.1" style="shape-rendering:geometricPrecision; text-rendering:geometricPrecision; image-rendering:optimizeQuality; fill-rule:evenodd; clip-rule:evenodd"
viewBox="0 0 29700 21000"
 xmlns:xlink="http://www.w3.org/1999/xlink">
 <defs>
  <style type="text/css">
   <![CDATA[
    .str0 {stroke:red;stroke-width:7.62;stroke-linejoin:bevel}
    .fil0 {fill:none}
   ]]>
  </style>
 </defs>
 <g id="_0">
  <metadata id="CorelCorpID_0Corel-Layer"/>
  <path class="fil0 str0" d="M2500 3300c0,-83 -67,-150 -150,-150 -83,0 -150,67 -150,150 0,83 67,150 150,150 83,0 150,-67 150,-150z"/>
  <path class="fil0 str0" d="M2500 17700c0,-83 -67,-150 -150,-150 -83,0 -150,67 -150,150 0,83 67,150 150,150 83,0 150,-67 150,-150z"/>
  <polygon class="fil0 str0" points="14635,9477 15045,9477 15045,3477 14655,3477 14655,4330 14245,4330 14245,4756 13815,4756 13815,3904 13425,3904 13425,9904 13835,9904 13835,10756 14225,10756 14225,10330 14635,10330 "/>
  <polygon class="fil0 str0" points="13045,9477 13045,3477 12655,3477 12655,4330 12245,4330 12245,4756 11815,4756 11815,3904 11425,3904 11425,9904 11835,9904 11835,10756 12225,10756 12225,10330 12635,10330 12635,9477 "/>
  <polygon class="fil0 str0" points="19045,9477 19045,3477 18655,3477 18655,4330 18245,4330 18245,4756 17815,4756 17815,3904 17425,3904 17425,9904 17835,9904 17835,10756 18225,10756 18225,10330 18635,10330 18635,9477 "/>
  <polygon class="fil0 str0" points="17045,9477 17045,3477 16655,3477 16655,4330 16245,4330 16245,4756 15815,4756 15815,3904 15425,3904 15425,9904 15835,9904 15835,10756 16225,10756 16225,10330 16635,10330 16635,9477 "/>
  <polygon class="fil0 str0" points="7045,9477 7045,3477 6655,3477 6655,4330 6245,4330 6245,4756 5815,4756 5815,3904 5425,3904 5425,9904 5835,9904 5835,10756 6225,10756 6225,10330 6635,10330 6635,9477 "/>
  <polygon class="fil0 str0" points="9045,9477 9045,3477 8655,3477 8655,4330 8245,4330 8245,4756 7815,4756 7815,3904 7425,3904 7425,9904 7835,9904 7835,10756 8225,10756 8225,10330 8635,10330 8635,9477 "/>
  <polygon class="fil0 str0" points="11045,9477 11045,3477 10655,3477 10655,4330 10245,4330 10245,4756 9815,4756 9815,3904 9425,3904 9425,9904 9835,9904 9835,10756 10225,10756 10225,10330 10635,10330 10635,9477 "/>
  <path class="fil0 str0" d="M2500 13300c0,-83 -67,-150 -150,-150 -83,0 -150,67 -150,150 0,83 67,150 150,150 83,0 150,-67 150,-150z"/>
  <path class="fil0 str0" d="M7500 17700c0,-83 -67,-150 -150,-150 -83,0 -150,67 -150,150 0,83 67,150 150,150 83,0 150,-67 150,-150z"/>
  <path class="fil0 str0" d="M7500 13300c0,-83 -67,-150 -150,-150 -83,0 -150,67 -150,150 0,83 67,150 150,150 83,0 150,-67 150,-150z"/>
  <path class="fil0 str0" d="M7500 3300c0,-83 -67,-150 -150,-150 -83,0 -150,67 -150,150 0,83 67,150 150,150 83,0 150,-67 150,-150z"/>
  <path class="fil0 str0" d="M12500 13300c0,-83 -67,-150 -150,-150 -83,0 -150,67 -150,150 0,83 67,150 150,150 83,0 150,-67 150,-150z"/>
  <path class="fil0 str0" d="M17500 3300c0,-83 -67,-150 -150,-150 -83,0 -150,67 -150,150 0,83 67,150 150,150 83,0 150,-67 150,-150z"/>
  <path class="fil0 str0" d="M12500 17700c0,-83 -67,-150 -150,-150 -83,0 -150,67 -150,150 0,83 67,150 150,150 83,0 150,-67 150,-150z"/>
  <path class="fil0 str0" d="M12500 3300c0,-83 -67,-150 -150,-150 -83,0 -150,67 -150,150 0,83 67,150 150,150 83,0 150,-67 150,-150z"/>
  <path class="fil0 str0" d="M27500 3300c0,-83 -67,-150 -150,-150 -83,0 -150,67 -150,150 0,83 67,150 150,150 83,0 150,-67 150,-150z"/>
  <path class="fil0 str0" d="M22500 13300c0,-83 -67,-150 -150,-150 -83,0 -150,67 -150,150 0,83 67,150 150,150 83,0 150,-67 150,-150z"/>
  <path class="fil0 str0" d="M27500 13300c0,-83 -67,-150 -150,-150 -83,0 -150,67 -150,150 0,83 67,150 150,150 83,0 150,-67 150,-150z"/>
  <path class="fil0 str0" d="M27500 17700c0,-83 -67,-150 -150,-150 -83,0 -150,67 -150,150 0,83 67,150 150,150 83,0 150,-67 150,-150z"/>
  <path class="fil0 str0" d="M17500 17700c0,-83 -67,-150 -150,-150 -83,0 -150,67 -150,150 0,83 67,150 150,150 83,0 150,-67 150,-150z"/>
  <path class="fil0 str0" d="M17500 13300c0,-83 -67,-150 -150,-150 -83,0 -150,67 -150,150 0,83 67,150 150,150 83,0 150,-67 150,-150z"/>
  <path class="fil0 str0" d="M22500 3300c0,-83 -67,-150 -150,-150 -83,0 -150,67 -150,150 0,83 67,150 150,150 83,0 150,-67 150,-150z"/>
  <path class="fil0 str0" d="M22500 17700c0,-83 -67,-150 -150,-150 -83,0 -150,67 -150,150 0,83 67,150 150,150 83,0 150,-67 150,-150z"/>
  <polygon class="fil0 str0" points="2245,10330 2635,10330 2635,4330 2245,4330 "/>
  <polygon class="fil0 str0" points="4245,4756 3815,4756 3815,3904 3425,3904 3425,9904 3835,9904 3835,10756 4225,10756 4225,10330 4635,10330 4635,4330 4245,4330 "/>
  <polygon class="fil0 str0" points="26245,4756 25815,4756 25815,3904 25425,3904 25425,9904 25835,9904 25835,10756 26225,10756 26225,10330 26635,10330 26635,4330 26245,4330 "/>
  <polygon class="fil0 str0" points="24245,4756 23815,4756 23815,3904 23425,3904 23425,9904 23835,9904 23835,10756 24225,10756 24225,10330 24635,10330 24635,4330 24245,4330 "/>
  <polygon class="fil0 str0" points="22245,4756 21815,4756 21815,3904 21425,3904 21425,9904 21835,9904 21835,10756 22225,10756 22225,10330 22635,10330 22635,4330 22245,4330 "/>
  <polygon class="fil0 str0" points="20245,4756 19815,4756 19815,3904 19425,3904 19425,9904 19835,9904 19835,10756 20225,10756 20225,10330 20635,10330 20635,4330 20245,4330 "/>
  <polygon class="fil0 str0" points="1923,4300 1837,4150 1663,4150 1577,4300 1663,4450 1837,4450 "/>
  <polygon class="fil0 str0" points="1150,18200 28550,18200 28550,2800 1150,2800 "/>
 </g>
</svg>
