<?xml version="1.0" encoding="UTF-8"?>
<!DOCTYPE svg PUBLIC "-//W3C//DTD SVG 1.1//EN" "http://www.w3.org/Graphics/SVG/1.1/DTD/svg11.dtd">
<!-- Creator: CorelDRAW X7 -->
<svg xmlns="http://www.w3.org/2000/svg" xml:space="preserve" width="297mm" height="210mm" version="1.1" style="shape-rendering:geometricPrecision; text-rendering:geometricPrecision; image-rendering:optimizeQuality; fill-rule:evenodd; clip-rule:evenodd"
viewBox="0 0 29700 21000"
 xmlns:xlink="http://www.w3.org/1999/xlink">
 <defs>
  <style type="text/css">
   <![CDATA[
    .str0 {stroke:red;stroke-width:7.62;stroke-linejoin:bevel}
    .fil0 {fill:none}
   ]]>
  </style>
 </defs>
 <g id="_0">
  <metadata id="CorelCorpID_0Corel-Layer"/>
  <path class="fil0 str0" d="M-7400 18388c0,-83 67,-150 150,-150 83,0 150,67 150,150 0,83 -67,150 -150,150 -83,0 -150,-67 -150,-150z"/>
  <path class="fil0 str0" d="M-500 2550c0,-83 67,-150 150,-150 83,0 150,67 150,150 0,83 -67,150 -150,150 -83,0 -150,-67 -150,-150z"/>
  <path class="fil0 str0" d="M5900 2550c0,-83 67,-150 150,-150 83,0 150,67 150,150 0,83 -67,150 -150,150 -83,0 -150,-67 -150,-150z"/>
  <path class="fil0 str0" d="M5900 11400c0,-83 67,-150 150,-150 83,0 150,67 150,150 0,83 -67,150 -150,150 -83,0 -150,-67 -150,-150z"/>
  <path class="fil0 str0" d="M-500 11600c0,-83 67,-150 150,-150 83,0 150,67 150,150 0,83 -67,150 -150,150 -83,0 -150,-67 -150,-150z"/>
  <path class="fil0 str0" d="M5900 18100c0,-83 67,-150 150,-150 83,0 150,67 150,150 0,83 -67,150 -150,150 -83,0 -150,-67 -150,-150z"/>
  <path class="fil0 str0" d="M-500 17171c0,-83 67,-150 150,-150 83,0 150,67 150,150 0,83 -67,150 -150,150 -83,0 -150,-67 -150,-150z"/>
  <path class="fil0 str0" d="M4500 19700c0,-83 67,-150 150,-150 83,0 150,67 150,150 0,83 -67,150 -150,150 -83,0 -150,-67 -150,-150z"/>
  <path class="fil0 str0" d="M-7400 19700c0,-83 67,-150 150,-150 83,0 150,67 150,150 0,83 -67,150 -150,150 -83,0 -150,-67 -150,-150z"/>
  <polygon class="fil0 str0" points="-263,3400 -437,3400 -523,3550 -437,3700 -263,3700 -177,3550 "/>
  <polygon class="fil0 str0" points="-1150,16500 -1150,500 6850,500 6850,20500 -9150,20500 -9150,17911 "/>
 </g>
</svg>
