<?xml version="1.0" encoding="UTF-8"?>
<!DOCTYPE svg PUBLIC "-//W3C//DTD SVG 1.1//EN" "http://www.w3.org/Graphics/SVG/1.1/DTD/svg11.dtd">
<!-- Creator: CorelDRAW X7 -->
<svg xmlns="http://www.w3.org/2000/svg" xml:space="preserve" width="297mm" height="210mm" version="1.1" style="shape-rendering:geometricPrecision; text-rendering:geometricPrecision; image-rendering:optimizeQuality; fill-rule:evenodd; clip-rule:evenodd"
viewBox="0 0 29700 21000"
 xmlns:xlink="http://www.w3.org/1999/xlink">
 <defs>
  <style type="text/css">
   <![CDATA[
    .str0 {stroke:red;stroke-width:7.62;stroke-linejoin:bevel}
    .fil0 {fill:none}
   ]]>
  </style>
 </defs>
 <g id="_0">
  <metadata id="CorelCorpID_0Corel-Layer"/>
  <path class="fil0 str0" d="M11650 -2000c0,-83 -67,-150 -150,-150 -83,0 -150,67 -150,150 0,83 67,150 150,150 83,0 150,-67 150,-150z"/>
  <path class="fil0 str0" d="M11650 3000c0,-83 -67,-150 -150,-150 -83,0 -150,67 -150,150 0,83 67,150 150,150 83,0 150,-67 150,-150z"/>
  <path class="fil0 str0" d="M11650 8000c0,-83 -67,-150 -150,-150 -83,0 -150,67 -150,150 0,83 67,150 150,150 83,0 150,-67 150,-150z"/>
  <path class="fil0 str0" d="M11650 13000c0,-83 -67,-150 -150,-150 -83,0 -150,67 -150,150 0,83 67,150 150,150 83,0 150,-67 150,-150z"/>
  <path class="fil0 str0" d="M18050 -2000c0,-83 -67,-150 -150,-150 -83,0 -150,67 -150,150 0,83 67,150 150,150 83,0 150,-67 150,-150z"/>
  <path class="fil0 str0" d="M18050 3000c0,-83 -67,-150 -150,-150 -83,0 -150,67 -150,150 0,83 67,150 150,150 83,0 150,-67 150,-150z"/>
  <path class="fil0 str0" d="M18050 8000c0,-83 -67,-150 -150,-150 -83,0 -150,67 -150,150 0,83 67,150 150,150 83,0 150,-67 150,-150z"/>
  <path class="fil0 str0" d="M18050 13000c0,-83 -67,-150 -150,-150 -83,0 -150,67 -150,150 0,83 67,150 150,150 83,0 150,-67 150,-150z"/>
  <path class="fil0 str0" d="M11650 -3900c0,-83 -67,-150 -150,-150 -83,0 -150,67 -150,150 0,83 67,150 150,150 83,0 150,-67 150,-150z"/>
  <path class="fil0 str0" d="M18050 -3900c0,-83 -67,-150 -150,-150 -83,0 -150,67 -150,150 0,83 67,150 150,150 83,0 150,-67 150,-150z"/>
  <path class="fil0 str0" d="M11650 24900c0,-83 -67,-150 -150,-150 -83,0 -150,67 -150,150 0,83 67,150 150,150 83,0 150,-67 150,-150z"/>
  <path class="fil0 str0" d="M18050 24900c0,-83 -67,-150 -150,-150 -83,0 -150,67 -150,150 0,83 67,150 150,150 83,0 150,-67 150,-150z"/>
  <path class="fil0 str0" d="M11650 23000c0,-83 -67,-150 -150,-150 -83,0 -150,67 -150,150 0,83 67,150 150,150 83,0 150,-67 150,-150z"/>
  <path class="fil0 str0" d="M18050 23000c0,-83 -67,-150 -150,-150 -83,0 -150,67 -150,150 0,83 67,150 150,150 83,0 150,-67 150,-150z"/>
  <path class="fil0 str0" d="M18050 18000c0,-83 -67,-150 -150,-150 -83,0 -150,67 -150,150 0,83 67,150 150,150 83,0 150,-67 150,-150z"/>
  <path class="fil0 str0" d="M11650 18000c0,-83 -67,-150 -150,-150 -83,0 -150,67 -150,150 0,83 67,150 150,150 83,0 150,-67 150,-150z"/>
  <polygon class="fil0 str0" points="12650,24813 12500,24727 12350,24813 12350,24987 12500,25073 12650,24987 "/>
  <polygon class="fil0 str0" points="18700,-4200 18700,25200 11000,25200 11000,-4200 "/>
 </g>
</svg>
